<svg width="117" height="219" viewBox="0 0 117 219" fill="none" xmlns="http://www.w3.org/2000/svg">
<path d="M42.2122 61.4827C38.9089 67.626 34.5065 71.8572 30.4916 73.7803C23.9994 76.892 17.3521 77.2232 11.9536 76.6032C10.6793 78.4427 9.46375 80.5002 8.29197 82.7266C48.5861 88.0486 66.849 93.6354 67.9436 93.9916L6.96745 90.5058C6.96745 90.5058 7.11079 91.3785 7.48238 92.8254C15.8085 95.0484 25.5601 99.4196 33.3792 107.967C36.7451 111.659 39.7006 117.177 41.5495 124.008C54.502 124.174 72.1519 117.795 96.0835 99.0104C81.8699 80.8072 61.2448 63.4961 42.2122 61.4827Z" fill="#90B74B"/>
<path d="M28.6158 112.167C31.9817 115.86 34.9372 121.377 36.786 128.209C41.9217 147.205 38.4201 176.221 11.012 203.372C9.2215 176.399 -25.9514 179.637 -35.1128 150.716C-44.3015 121.802 -22.0565 99.6734 -22.0565 99.6734C-22.0565 99.6734 -3.87385 125.485 10.579 149.32C9.0954 139.172 -15.4689 94.7562 -15.4689 94.7562C-15.4689 94.7562 -7.41237 94.3144 2.72176 97.0271C11.045 99.2492 20.7966 103.62 28.6158 112.167ZM38.001 56.7221C34.6977 62.8654 30.2953 67.0966 26.2804 69.0196C19.7882 72.1314 13.1409 72.4626 7.74238 71.8426C0.903446 71.0615 -3.90887 68.7856 -3.90887 68.7856C-3.90887 68.7856 21.201 48.4092 24.5083 42.7769C10.2687 53.4076 -6.61313 64.3155 -6.61313 64.3155C-6.61313 64.3155 -14.4948 45.9328 -2.15676 31.0459C10.1663 16.1476 30.1567 26.4511 37.645 10.9591C45.9734 30.2948 43.6144 46.272 38.001 56.7221Z" fill="#A9DA52"/>
</svg>
