<svg width="115" height="116" fill="none" xmlns="http://www.w3.org/2000/svg"><path d="M109.395 48.314 83.765 60.13 65.18 56.192l12.704-14.126 27.675-5.537a3.89 3.89 0 0 0-1.526-7.628l-17.447 3.49 8.5-9.45a3.89 3.89 0 1 0-5.785-5.203l-8.5 9.451 1.627-17.717a3.89 3.89 0 1 0-7.747-.711l-2.582 28.103-12.445 13.838-5.881-18.065 9.042-26.734a3.89 3.89 0 1 0-7.37-2.492l-5.7 16.853-3.53-10.842a3.89 3.89 0 0 0-7.398 2.409l3.53 10.842-14.53-10.267a3.89 3.89 0 0 0-4.49 6.353l23.048 16.287 6 18.432-18.964-4.019L14.78 28.262A3.89 3.89 0 0 0 8.936 33.4l11.746 13.363-11.155-2.364a3.89 3.89 0 0 0-1.613 7.61l11.155 2.365-16.158 7.45a3.89 3.89 0 1 0 3.257 7.064l25.63-11.817 18.586 3.939-12.705 14.125-27.674 5.538A3.89 3.89 0 1 0 11.53 88.3l17.447-3.49-7.625 8.477a3.89 3.89 0 1 0 5.784 5.203l7.626-8.479-1.628 17.718a3.89 3.89 0 0 0 7.748.711l2.581-28.103 12.964-14.414 5.88 18.064-9.042 26.735a3.89 3.89 0 1 0 7.37 2.492l5.701-16.854 3.935 12.086a3.89 3.89 0 0 0 7.398-2.409l-3.935-12.085 14.53 10.267a3.89 3.89 0 0 0 4.49-6.354L69.707 81.58l-5.761-17.696 18.206 3.858 18.632 21.197a3.89 3.89 0 1 0 5.844-5.137L94.882 70.438l12.435 2.635a3.89 3.89 0 0 0 1.613-7.61l-12.434-2.635 16.157-7.45a3.89 3.89 0 1 0-3.258-7.064Z" fill="#59CAFC"/></svg>