<svg width="139" height="199" fill="none" xmlns="http://www.w3.org/2000/svg"><path d="M-17.2 125.358s-10.888 33.877 34.927 43.979c-13.52-13.403-13.432-24.399-9.766-24.709 3.665-.309 25.792 25.569 29.538 24.624 3.744-.945 31.789-1.508 23.43-9.181-8.359-7.674-47.301-27.54-36.14-38.027 11.162-10.487 34.628 36.67 52.798 29.147 18.172-7.521 13.393-12.793 7.98-17.11s-16.72-13.272-4.77-13.559c11.95-.286 21.11 2.049 23.904-3.681 2.795-5.73 5.989-16.719 5.989-16.719s-32.03 5.493-28.837-3.425c3.192-8.917 28.843-4.864 30.28-9.083 1.438-4.22.492-17.293.492-17.293L-17.2 125.358Z" fill="#AAD15D"/><path d="M-17.481 125.617S-49.48 109.958-25 69.994c.296 19.02 8.293 26.582 11.057 24.16 2.765-2.423-.566-36.284 2.714-38.323 3.282-2.038 23.133-21.821 22.873-10.49-.26 11.333-12.928 53.124 2.381 52.368 15.31-.756-2.45-50.335 15.58-58.19 18.03-7.855 18.52-.764 17.883 6.124-.637 6.888-2.015 21.232 6.478 12.834 8.492-8.398 13.16-16.606 19.233-14.644 6.071 1.963 16.216 7.286 16.216 7.286S63.241 70.352 71.888 74.237c8.648 3.885 23.512-17.375 27.554-15.483 4.042 1.892 12.819 11.636 12.819 11.636l-129.742 55.227Z" fill="#90B74B"/></svg>