<svg width="153" height="157" fill="none" xmlns="http://www.w3.org/2000/svg"><path d="M63.565 119.256c5.068 2.319 9.954 2.307 15.14.262 5.184-2.046 9.47-6.27 11.59-11.424 1.295-3.151 1.793-6.706.913-9.997-.88-3.29-3.26-6.254-6.473-7.385 5.362-2.626 9.487-7.66 11.01-13.432.421-1.597.645-3.324.085-4.878-.5-1.389-1.569-2.488-2.655-3.488a46.014 46.014 0 0 0-8.257-6.048c-1.175-.674-2.41-1.306-3.753-1.484-3.9-.52-7.154 2.777-9.698 5.78-.168-4.958-.379-10.093-2.598-14.53-2.22-4.436-7.045-7.98-11.923-7.076-2.49.46-4.639 1.976-6.697 3.453-1.069.766-2.173 1.573-2.797 2.73-.59 1.092-.684 2.374-.766 3.612-.294 4.404-.551 9.018 1.276 13.035a26.451 26.451 0 0 0-13.733-4.66c-1.373-.065-2.768-.02-4.086.37-1.966.58-3.64 1.892-5.057 3.372-3.75 3.915-5.995 9.95-3.642 14.835.433.898 1.028 1.75 1.866 2.29 1.46.94 3.343.78 5.069.585-3.844 3.383-7.252 7.497-8.715 12.404-1.462 4.907-.66 10.704 2.955 14.33 2.335 2.342 5.713 3.603 9.011 3.364 3.298-.239 6.46-1.974 8.432-4.628-.661 5.986 2.314 12.229 7.38 15.486 5.065 3.256 11.98 3.372 17.152.286 1.042-.623 2.073-1.441 2.43-2.601.357-1.162-2.253-4.425-3.46-4.563ZM99.526 48.534c1.102-1.83.582-4.357-.904-5.893-1.486-1.537-3.736-2.166-5.87-2.05 3.893-2.934 6.496-7.52 7.021-12.367.194-1.79.102-3.666-.673-5.292s-2.335-2.957-4.132-3.086c-1.711-.123-3.322.819-4.629 1.93-1.306 1.113-2.449 2.435-3.91 3.333.477-2.235.947-4.61.18-6.762-.642-1.798-2.069-3.196-3.544-4.407-2.533-2.077-5.845-3.883-8.96-2.87-1.75.568-3.104 1.934-4.385 3.254-.397.409-.812.85-.924 1.41-.094.47.043.955.211 1.405a10.244 10.244 0 0 0 2.655 3.95c-4.063-2.333-9.73-1.336-12.754 2.243-.51.604-.959 1.293-1.093 2.071-.317 1.829 1.128 3.45 2.497 4.704 1.552 1.42 3.393 2.87 5.493 2.73a11.434 11.434 0 0 0-4.361 7.736c-.085.775-.081 1.596.282 2.286.387.735 1.121 1.212 1.837 1.633 1.368.805 2.834 1.54 4.416 1.666 1.582.128 3.311-.475 4.132-1.833-.97 1.206-1.09 2.939-.615 4.411.476 1.472 1.472 2.72 2.566 3.815 3.424 3.425 9.391 5.482 12.22.358 1.546-2.803 2.883-1.795 5.95-1.701 2.55.078 5.835-.248 7.294-2.674Z" fill="#F68F8D"/><path d="M56.676 102.672a17.873 17.873 0 0 1-7.217-3.224c-1.04-.782-2.017-1.707-2.573-2.884-.542-1.149-.646-2.456-.605-3.726.067-2.109.527-4.249 1.657-6.03 2.308-3.64 7.386-5.122 11.383-3.513 5.556 2.237 5.952 7.229 6.309 12.338.156 2.23.908 3.687-.953 5.439-2.128 2.005-5.283 2.14-8 1.6ZM76.163 38.64c-.601-.302-1.208-.641-1.62-1.173-.414-.537-.587-1.216-.751-1.874-.225-.903-.45-1.857-.198-2.754.218-.772.765-1.405 1.332-1.974 1.413-1.417 3.08-2.628 4.986-3.243 1.904-.614 4.066-.584 5.834.354 3.993 2.12 3.229 6.937 1.116 10.194-2.718 4.188-6.988 2.332-10.7.47Z" fill="#F6C11E"/><path d="M117.78 89.21c-3.634-2.25-6.649-5.354-10.006-8-1.42-1.12-3.092-2.21-4.887-1.992.05-1.568.256-3.41 1.615-4.192.571-.33 1.252-.4 1.91-.427 6.384-.266 12.799 3.065 16.255 8.44 1.125 1.75 1.967 3.708 3.4 5.216 1.433 1.508 3.726 2.484 5.615 1.612-1.011.467-1.489 1.449-2.581 1.84-1.163.417-2.681.337-3.885.214-2.644-.271-5.192-1.32-7.436-2.71ZM111.655 66.409c2.467-.504 4.966-1.019 7.214-2.151 1.862-.939 3.49-2.27 5.159-3.52a71.14 71.14 0 0 1 11.806-7.162c-5.635-2.336-11.416-4.706-17.511-4.968-6.095-.262-12.67 2.006-15.93 7.162-1.348 2.13-4.19 7.65-2.27 10.145 2.169 2.82 8.695 1.073 11.532.494Z" fill="#BED665"/><path d="M72.955 32.473c-1.176 1.698-1.038 3.218-.665 4.254.805 2.236 3.414 4.046 6.345 4.403 3.918.478 5.493-1.422 7.162-3.434.435-.524.884-1.066 1.387-1.578 1.028-1.048 1.016-2.072.824-2.746-.463-1.63-2.544-3.12-5.302-3.796-2.793-.686-6.63-.518-9.025 2.009a7.5 7.5 0 0 0-.726.888Zm13.762 2.522a2.775 2.775 0 0 1-.305.365c-.535.544-.999 1.104-1.448 1.645-1.602 1.932-2.867 3.458-6.198 3.051-2.501-.304-4.797-1.859-5.458-3.695-.48-1.332-.08-2.725 1.159-4.033 2.075-2.19 5.483-2.315 7.981-1.702 2.313.567 4.172 1.818 4.52 3.041.13.459.048.896-.251 1.328Zm.08.744.002-.002-.001.002Z" fill="#231F20"/><path d="M58.78 22.544c-.496.715-.886 1.566-1.16 2.536-.765 2.709 1.082 6.467 3.18 7.893.96.653 2.782 1.14 3.752 1.377-.343.545-1.096 1.032-1.881 1.538-1.562 1.007-3.504 2.26-2.896 4.703.607 2.438 4.366 8.396 7.345 8.38.862-.004 1.859-.656 2.914-1.346 1.033-.676 2.32-1.517 2.704-1.069.776.908.75 2.417.722 4.015-.027 1.574-.055 3.201.692 4.483.809 1.388 2.135 2.274 3.834 2.561 2.216.376 4.873-.371 6.61-1.858 1.537-1.313 1.297-3.586 1.138-5.09-.023-.222-.051-.49-.064-.708.688.19 2.02.677 2.887.994 1.348.492 2.127.773 2.453.813 2.045.25 4.202-.463 5.919-1.954 1.722-1.495 2.732-3.558 2.773-5.66.045-2.363-2.383-3.839-4.333-5.024-1.022-.621-2.181-1.326-2.276-1.82-.007-.04-.029-.135.108-.313.52-.69 1.139-1.414 1.793-2.181 3.023-3.542 6.785-7.951 3.488-12.466-1.912-2.62-5.162-3.412-7.902-1.928-.572.31-1.142.687-1.73 1.143.268-2.926-.938-6.456-3.156-8.704-2.068-2.097-4.582-2.692-7.08-1.678-3.715 1.51-7.302 5.53-8.168 9.156-.123.515.144 1.244.512 2.08-.607-.198-1.737-.642-3.84-1.611a17.312 17.312 0 0 0-.36-.164c-2.055-.868-4.011-.909-5.657-.118-.922.444-1.703 1.127-2.322 2.02Zm6.623 12.478c.202-.292.344-.612.4-.972.08-.498-.399-.61-.603-.658-1.885-.443-3.16-.884-3.792-1.314-1.928-1.31-3.315-4.694-2.748-6.704.53-1.874 1.536-3.214 2.91-3.875 1.358-.652 3.006-.604 4.768.14.044.019.16.072.327.15 4.193 1.932 4.864 1.961 5.262 1.807a.64.64 0 0 0 .365-.348c.11-.259.025-.445-.224-.997-.154-.342-.622-1.38-.57-1.664.78-3.265 4.155-7.036 7.522-8.403 2.788-1.133 4.896.413 5.904 1.435 2.463 2.497 3.575 6.905 2.427 9.623-.22.518.175.743.221.767.45.235.714-.182.856-.407.096-.15.385-.607.498-.704.754-.644 1.463-1.143 2.17-1.526 2.286-1.239 4.903-.59 6.513 1.614 2.793 3.825-.517 7.704-3.438 11.126-.666.78-1.294 1.517-1.834 2.231-.28.372-.383.765-.306 1.17.184.964 1.328 1.66 2.776 2.54 1.802 1.095 3.846 2.337 3.813 4.079-.035 1.796-.91 3.569-2.401 4.864-1.486 1.29-3.337 1.909-5.078 1.697-.225-.03-1.328-.432-2.213-.756a72.795 72.795 0 0 0-2.38-.84c-.906-.292-1.622-.521-1.87.067-.152.36-.1.86-.02 1.617.143 1.355.339 3.21-.765 4.154-1.508 1.29-3.81 1.939-5.727 1.614-.957-.162-2.269-.648-3.08-2.04-.595-1.02-.57-2.494-.545-3.92.03-1.728.062-3.516-.982-4.736-1.001-1.171-2.657-.089-4.117.866-.837.548-1.786 1.168-2.328 1.17-2.193.012-5.697-5.176-6.29-7.56-.392-1.578.657-2.387 2.432-3.532.82-.528 1.658-1.069 2.147-1.775ZM100.028 77.779a3.502 3.502 0 0 0-.199.32c-.245.45-.01.734.068.81.394.387.913.09 1.945-.502.242-.139.471-.27.619-.342.414-.201.651-.568.811-.981.004.427.042.837.207 1.157 1.018 1.972 2.093 3.864 4.033 5.322 3.693 2.776 7.63 4.346 11.798 6.008 1.102.44 2.242.894 3.368 1.37.264.11 1.898.517 2.647.697.46.11 1.118.263 1.638.367.725.146 1.162.236 1.356-.224.597-1.413-.891-2.234-2.086-2.894-.638-.351-1.297-.715-1.637-1.113-.972-1.136-1.945-2.721-2.976-4.4-2.326-3.79-4.964-8.085-8.675-8.845-.392-.08-.803-.172-1.226-.266-2.745-.609-5.858-1.299-8.18-.17-.506.246-.747.739-.908 1.264-.454.302-.853.665-1.217.996l-.213.192c-.415.372-.842.755-1.173 1.234Zm1.75-1.026.001-.002-.001.002Zm25.525 14.218c-1.152-.225-3.886-.907-4.211-1.03-1.129-.477-2.274-.934-3.382-1.376-4.099-1.634-7.971-3.177-11.549-5.867-1.756-1.32-2.762-3.097-3.721-4.954-.1-.194-.089-.749-.082-1.117.015-.702.026-1.26-.375-1.545l.029-.017c1.983-.964 4.9-.317 7.473.254.428.095.845.188 1.243.27 3.251.666 5.759 4.749 7.971 8.352 1.053 1.715 2.048 3.335 3.075 4.535.468.548 1.215.96 1.937 1.358.905.5 1.426.83 1.592 1.137ZM47.807 82.873c-1.235 1.784-1.963 3.973-2.629 6.33-.17.608-.525 1.252-.9 1.935-.535.977-1.09 1.988-1.171 3.031-.114 1.456 1.028 2.952 1.783 3.941 2.344 3.07 5.56 4.946 9.3 5.424 3.466.444 7.2-.376 10.512-2.306 1.584-.924 2.508-3.783 2.822-8.742.258-4.088-1.5-8.51-4.48-11.268-2.242-2.074-4.975-3.004-7.697-2.618-3.79.538-6.04 2.105-7.54 4.273Zm17.027 16.754c-.23.333-.461.541-.677.666-5.594 3.261-13.454 3.647-18.407-2.84-.615-.806-1.646-2.156-1.565-3.2.064-.811.561-1.718 1.042-2.595.387-.706.788-1.435.992-2.161 1.42-5.023 3.003-8.936 9.28-9.826 3.067-.435 5.396 1.033 6.81 2.34 2.751 2.546 4.374 6.63 4.135 10.406-.265 4.187-.935 6.235-1.61 7.21ZM98.2 62.8c-.635.918-1.02 1.822-.926 2.647.085.736.52 1.335 1.294 1.781 5.373 3.095 10.074 1.88 16.129-.174 2.784-.944 5.426-2.256 7.982-3.524.637-.316 1.274-.632 1.912-.942.811-.395 3.437-2.407 5.852-4.486 4.834-4.16 4.78-5.006 4.757-5.367-.031-.49-.084-1.308-7.847-2.802-3.837-.739-7.826-1.293-8.697-1.277-6.22.116-11.114 4.413-15.081 8.6-.418.44-.994.977-1.604 1.545-1.315 1.225-2.822 2.628-3.77 3.998Zm.638 3.96.27-.469c-.467-.269-.715-.585-.759-.967-.172-1.511 2.447-3.95 4.359-5.73.623-.58 1.211-1.128 1.652-1.594 4.005-4.227 8.511-8.154 14.316-8.262.754-.014 4.42.494 8.015 1.17 5.008.942 6.954 1.65 7.398 1.971-.592 1.462-8.32 7.934-9.971 8.736-.641.312-1.281.63-1.92.946-2.524 1.252-5.133 2.548-7.848 3.469-5.967 2.024-10.251 3.136-15.242.261l-.27.469Z" fill="#231F20"/><path d="M21.896 65.717c-.899 1.298-1.608 2.8-2.107 4.48-1.192 4.01-.376 11.9 3.193 14.584.25.188 1.475.712 4.853 2.079l.557.225c-.12.268-.486.77-1.565 1.589-1.087.824-2.43 1.623-3.41 2.207-.537.319-.924.55-1.124.698-3.332 2.478-4.557 5.372-4.092 9.674.653 6.055 3.74 13.569 10.29 14.818 1.96.374 4.79.249 7.044-.312.293-.072.689-.291 1.31-.642.56-.317 1.853-1.047 2.245-.991.365.586.434 1.419.508 2.3.084 1.015.172 2.065.717 2.951 3.07 4.996 10.61 11.826 17.761 11.368 2.984-.192 7.548-3.438 7.324-6.924-.023-.364-.288-.947-.794-2.033-.332-.711-.906-1.943-1.042-2.532.69.083 1.559.523 2.403.951.903.458 1.837.931 2.693 1.046 7.398.992 17.308-.786 22.769-6.995 2.244-2.552 4.872-7.163 5.386-10.465.714-4.58-4.118-10.497-8.428-11.948a6.889 6.889 0 0 0-.276-.086 67.476 67.476 0 0 0 3.987-4.068c2.61-2.9 5.658-6.803 5.357-8.928-.963-6.793-7.533-15.395-14.884-16.74-2.64-.483-5.72.442-7.839 1.302-.89.362-2.473 1.123-3.498 1.8-.248-1.178-.286-2.66-.326-4.21-.063-2.41-.128-4.901-.95-6.925-1.659-4.085-6.355-7.182-11.42-7.533-4.271-.295-7.807 1.413-9.697 4.685-.354.614-.817 1.278-1.305 1.98-1.161 1.669-2.473 3.556-2.765 5.428-.07.45.062 1.38.283 2.861.133.886.339 2.263.346 2.92-1.08-.3-4.038-1.58-5.72-2.308-1.355-.586-2.136-.922-2.437-1.015-3.9-1.206-7.785-.941-10.939.745-1.759.94-3.243 2.28-4.408 3.964Zm7.24 22.229c.312-.449.454-.884.373-1.304-.053-.293-.053-.293-1.269-.785-1.17-.474-4.282-1.732-4.62-1.95-3.156-2.372-3.875-9.767-2.794-13.401 1.063-3.576 3.133-6.273 5.988-7.799 2.897-1.55 6.487-1.785 10.109-.666.26.08 1.264.515 2.327.975 6.24 2.699 6.602 2.693 6.995 2.245.358-.407.296-1.22-.12-4.01-.15-.991-.334-2.225-.285-2.535.253-1.626 1.491-3.406 2.583-4.976.502-.721.977-1.404 1.354-2.056 1.677-2.901 4.843-4.414 8.686-4.148 4.669.323 8.983 3.144 10.493 6.86.748 1.842.81 4.234.87 6.548.055 2.12.107 4.123.695 5.57a.563.563 0 0 0 .58.369c.42-.04.5-.45.53-.604l.028-.136c.847-.593 2.439-1.392 3.48-1.815 1.986-.807 4.854-1.677 7.238-1.241 6.8 1.244 13.114 9.53 14.007 15.828.188 1.325-1.88 4.54-5.397 8.391a63.415 63.415 0 0 1-4.233 4.23c-1.339-.031-2.405.56-3.033 1.722-.132.245-.44.817-.065 1.209.234.245.572.262 1.003.053.528-.257 1.416-.938 2.476-1.874.283.042.585.116.907.225 3.892 1.31 8.327 6.761 7.704 10.756-.477 3.066-3.035 7.534-5.13 9.916-5.197 5.91-14.7 7.592-21.813 6.638-.674-.09-1.524-.522-2.347-.939-1.108-.561-2.253-1.141-3.275-1.076a.743.743 0 0 0-.604.364c-.346.585.053 1.581 1.048 3.715.283.608.67 1.44.696 1.649.175 2.753-3.81 5.61-6.314 5.771-6.704.43-13.843-6.088-16.77-10.854-.41-.666-.484-1.545-.562-2.475-.083-.997-.169-2.028-.708-2.845-.664-1.006-2.253-.108-3.655.684-.39.22-.874.494-1.039.535-2.115.526-4.76.646-6.58.299-5.969-1.139-8.803-8.184-9.417-13.872-.424-3.922.637-6.44 3.663-8.69.154-.115.56-.357 1.03-.636 2.255-1.342 4.328-2.652 5.168-3.865Z" fill="#231F20"/></svg>