<svg width="119" height="153" fill="none" xmlns="http://www.w3.org/2000/svg"><path d="M48.31 111.342 104.849 1M103.771 63.771 91.297 27.446 53.16 37.839M78.84 105.685 68.403 72.129l-37.437 9.027" stroke="#B2BD2E" stroke-width="3" stroke-miterlimit="10"/><path d="M77.332 31.253s-2.937 25.814-30.597 19.126c-27.659-6.688-24.066-6.96-24.066-6.96s13.72-9.696 19.599-16.109c6.251-6.816 26.495-16.831 35.064 3.943ZM19.841 71.082C13.96 77.494.242 87.192.242 87.192s-3.593.27 24.066 6.958c27.66 6.688 30.597-19.126 30.597-19.126-8.571-20.772-28.813-10.759-35.064-3.942Z" fill="#CFDC31"/><path d="M118.572 66.408c-1.769 8.516-1.627 25.317-1.627 25.317s1.879 3.073-19.705-15.47c-21.584-18.545-2.35-36.008-2.35-36.008 21.867-5.178 25.563 17.105 23.682 26.16ZM72.464 84.02s-19.238 17.463 2.349 36.007c21.586 18.544 19.703 15.468 19.703 15.468s-.143-16.8 1.626-25.317c1.884-9.056-1.814-31.336-23.678-26.158Z" fill="#B2BD2E"/><path d="M50.998 106.099S65.282 139.453 26.968 153c-11.307-30.179 10.996-49.55 24.03-46.901Z" fill="#CFDC31"/></svg>