<svg width="123" height="221" fill="none" xmlns="http://www.w3.org/2000/svg"><g clip-path="url('#clip0_198_1178')" fill="#88C9F9"><path d="m2.492 156.132 28.904-88.597 29.592-15.038s4.334-2.201 2.134-6.54c-2.202-4.333-6.535-2.131-6.535-2.131L35.661 54.46l6.914-21.194s1.508-4.621-3.114-6.129c-4.621-1.508-6.129 3.114-6.129 3.114l-6.914 21.194-10.629-20.93s-2.201-4.333-6.534-2.132c-4.335 2.206-2.134 6.54-2.134 6.54l15.032 29.595-28.904 88.597-29.59 15.033s-4.334 2.202-2.133 6.535c2.202 4.333 6.535 2.132 6.535 2.132l20.925-10.63-6.914 21.193s-1.508 4.622 3.113 6.129c4.622 1.508 6.13-3.113 6.13-3.113l6.914-21.194 10.63 20.925s2.201 4.333 6.534 2.131c4.334-2.201 2.132-6.534 2.132-6.534L2.492 156.132Z"/><path d="M84.82 148.629c.259-4.855-4.596-5.115-4.596-5.115l-33.142-1.777-62.277-69.332 1.777-33.142s.26-4.855-4.595-5.115c-4.86-.26-5.114 4.596-5.114 4.596l-1.255 23.438-14.898-16.59s-3.248-3.616-6.864-.367c-3.617 3.248-.369 6.864-.369 6.864l14.895 16.584-23.437-1.26s-4.86-.26-5.115 4.596c-.26 4.859 4.594 5.118 4.594 5.118l33.147 1.779 62.277 69.333-1.779 33.146s-.26 4.855 4.595 5.115c4.857.254 5.115-4.596 5.115-4.596l1.255-23.439 14.899 16.586s3.253 3.618 6.867.374c3.618-3.253.365-6.871.365-6.871L56.271 151.97l23.433 1.258c.001-.004 4.856.255 5.115-4.599Z"/><path d="m92.044 115.402-19.67-12.808 21.813-4.609s4.762-1.008 3.757-5.764c-1.008-4.762-5.765-3.752-5.765-3.752l-21.807 4.605 12.802-19.666s2.653-4.074-1.42-6.728c-4.074-2.653-6.728 1.421-6.728 1.421L56.917 95.915l-91.19 19.281-27.808-18.112s-4.074-2.653-6.727 1.42c-2.66 4.077 1.42 6.728 1.42 6.728l19.666 12.802-21.808 4.61s-4.753 1.011-3.748 5.767c1.007 4.752 5.758 3.745 5.758 3.745l21.813-4.608-12.807 19.665s-2.655 4.078 1.42 6.727c4.078 2.659 6.73-1.415 6.73-1.415l18.117-27.821 91.185-19.263 27.813 18.113s4.074 2.654 6.727-1.42c2.636-4.084-1.434-6.732-1.434-6.732Z"/></g><defs><clipPath id="clip0_198_1178"><path fill="#fff" transform="rotate(18.068 -21.862 -137.501)" d="M0 0h175v175H0z"/></clipPath></defs></svg>