<svg width="154" height="218" fill="none" xmlns="http://www.w3.org/2000/svg"><path d="M116.799 162.484c29.102 15.547 59.506 4.971 61.008 4.152l-.994-21.859c-.343.205-29.795 23.765-55.677 9.901-12.366-6.632-22.29-17.594-27.281-36.46-3.98-7.439-5.702-15.143-5.118-10.373.66 5.382.544 11.12-.063 16.509 5.647 18.378 15.083 31.147 28.125 38.13Z" fill="#F4AB3E"/><path d="M91.801 108.958c-3.98-7.439-6.929-15.915-6.616-23.851.005-.05.017-.069.022-.119a.993.993 0 0 1 .399-.541c14.857-7.973 41.967-3.105 50.072 2.06 6.411 4.083 9.151 12.428 4.791 19.27-4.586 7.202-17.523 1.132-20.017 1.344.874 2.333 12.008 11.228 7.253 18.69-4.36 6.843-13.08 7.886-19.49 3.803-3.713-2.362-11.02-10.57-16.414-20.656ZM26.892 61.592c4.587-7.202 17.524-1.132 19.998-1.359-.842-2.34-11.99-11.215-7.233-18.68 4.36-6.842 13.08-7.885 19.49-3.802 6.464 4.118 23.771 25.875 23.01 44.497a.81.81 0 0 1-.42.66c-14.838 7.983-41.95 3.117-50.054-2.047-6.408-4.084-9.148-12.428-4.79-19.27Z" fill="#F4AB3E"/><path d="M84.459 81.755c-7.984-14.838-3.118-41.95 2.046-50.054 4.082-6.41 12.409-9.162 19.251-4.802 7.22 4.598 1.132 17.523 1.359 19.997 2.34-.841 11.233-11.978 18.7-7.222 6.842 4.36 7.867 13.068 3.785 19.478-4.107 6.446-25.864 23.75-44.497 23.01a.77.77 0 0 1-.644-.407Zm-24.212 38.714c-2.34.841-11.233 11.978-18.7 7.222-6.842-4.36-7.867-13.068-3.785-19.478 4.107-6.446 25.864-23.75 44.497-23.01a.694.694 0 0 1 .239.046.91.91 0 0 1 .403.363c4.263 7.91 4.866 19.318 3.72 29.477-1.024 8.889-3.352 16.786-5.768 20.574-4.082 6.41-12.409 9.162-19.251 4.802-7.218-4.596-1.13-17.52-1.355-19.996Z" fill="#E69D30"/></svg>