<svg width="150" height="152" fill="none" xmlns="http://www.w3.org/2000/svg"><path d="M59.69 37.326c4.72-2.566 9.422-2.878 14.544-1.254 5.123 1.624 9.525 5.403 11.905 10.22 1.455 2.945 2.17 6.332 1.541 9.555-.628 3.223-2.722 6.232-5.738 7.533 5.332 2.17 9.634 6.738 11.48 12.19.511 1.509.841 3.155.406 4.687-.39 1.368-1.345 2.497-2.324 3.53a44.364 44.364 0 0 1-7.541 6.365c-1.085.725-2.233 1.415-3.511 1.676-3.718.757-7.066-2.198-9.712-4.918.167 4.78.304 9.733-1.537 14.148-1.84 4.414-6.247 8.142-10.999 7.596-2.426-.278-4.593-1.594-6.67-2.878-1.079-.666-2.194-1.369-2.871-2.44-.64-1.012-.816-2.239-.977-3.424-.574-4.216-1.127-8.638.364-12.623a25.503 25.503 0 0 1-12.9 5.391c-1.316.154-2.661.203-3.955-.084-1.929-.428-3.626-1.58-5.087-2.91-3.867-3.517-6.425-9.173-4.486-14.027.357-.893.873-1.75 1.643-2.326 1.343-1.001 3.164-.972 4.837-.899-3.92-3-7.471-6.73-9.203-11.353-1.732-4.623-1.344-10.252 1.893-13.98 2.09-2.407 5.256-3.844 8.444-3.832 3.189.011 6.344 1.47 8.417 3.893-1.032-5.714 1.416-11.916 6.073-15.384s11.3-4.037 16.479-1.41c1.044.53 2.09 1.248 2.51 2.34.42 1.094-1.874 4.406-3.026 4.618ZM98.964 102.97c1.181 1.688.848 4.152-.48 5.729-1.327 1.576-3.45 2.33-5.51 2.359 3.938 2.565 6.746 6.804 7.572 11.431.305 1.71.341 3.52-.297 5.135-.638 1.616-2.05 2.998-3.77 3.242-1.638.231-3.25-.568-4.58-1.551s-2.517-2.179-3.982-2.946c.607 2.118 1.216 4.371.62 6.493-.497 1.771-1.777 3.21-3.116 4.473-2.298 2.166-5.365 4.122-8.428 3.354-1.72-.431-3.113-1.655-4.433-2.839-.41-.368-.838-.765-.982-1.296-.122-.446-.022-.921.11-1.365a9.883 9.883 0 0 1 2.292-3.975c-3.754 2.513-9.271 1.929-12.416-1.314-.53-.546-1.008-1.179-1.19-1.919-.425-1.738.858-3.394 2.091-4.689 1.4-1.47 3.074-2.987 5.103-2.99a11.02 11.02 0 0 1-4.707-7.153c-.133-.739-.184-1.53.12-2.217.324-.733.998-1.24 1.659-1.693 1.263-.864 2.624-1.668 4.137-1.895 1.513-.227 3.216.238 4.096 1.49-1.013-1.096-1.244-2.754-.884-4.202s1.236-2.714 2.215-3.839c3.067-3.521 8.67-5.895 11.73-1.154 1.674 2.593 2.892 1.536 5.836 1.243 2.448-.244 5.63-.148 7.194 2.088Z" fill="#F68F8D"/><path d="M54.163 53.735a17.235 17.235 0 0 0-6.728 3.579c-.95.82-1.828 1.775-2.284 2.944-.446 1.14-.459 2.405-.336 3.623.204 2.025.789 4.052 1.994 5.692 2.46 3.347 7.444 4.437 11.181 2.624 5.196-2.519 5.247-7.347 5.251-12.285.002-2.156.63-3.606-1.276-5.169-2.18-1.787-5.223-1.708-7.802-1.008ZM77.146 114.035c-.558.329-1.12.696-1.48 1.235-.363.543-.485 1.208-.599 1.851-.156.885-.31 1.817-.007 2.663.26.728.828 1.301 1.411 1.81 1.453 1.27 3.138 2.324 5.01 2.789 1.873.465 3.95.293 5.589-.726 3.7-2.303 2.646-6.887.398-9.879-2.89-3.848-6.876-1.781-10.322.257Z" fill="#F6C11E"/><path d="M113.828 62.636c-3.346 2.406-6.041 5.59-9.094 8.358-1.292 1.17-2.828 2.33-4.569 2.24.152 1.504.472 3.262 1.831 3.925.571.279 1.23.301 1.866.284 6.158-.167 12.107-3.796 15.076-9.194.966-1.758 1.646-3.697 2.924-5.243 1.279-1.545 3.42-2.635 5.294-1.922-1.003-.382-1.527-1.295-2.603-1.6-1.147-.323-2.602-.146-3.752.053-2.525.435-4.906 1.613-6.973 3.1ZM109.447 84.974c2.406.32 4.844.65 7.081 1.59 1.853.78 3.507 1.953 5.195 3.045a68.576 68.576 0 0 0 11.831 6.107c-5.266 2.62-10.669 5.282-16.514 5.938-5.846.656-12.32-1.091-15.798-5.834-1.437-1.96-4.536-7.08-2.855-9.608 1.9-2.856 8.292-1.608 11.06-1.239Z" fill="#BED665"/><path d="M74.47 120.178c-1.244-1.556-1.212-3.026-.922-4.048.626-2.203 3.016-4.118 5.812-4.655 3.736-.719 5.378 1.004 7.116 2.829.453.475.92.967 1.438 1.426 1.059.939 1.115 1.925.975 2.586-.338 1.598-2.24 3.169-4.849 4.003-2.64.844-6.343.937-8.813-1.335a7.247 7.247 0 0 1-.758-.806Zm13.07-3.337a2.692 2.692 0 0 0-.318-.331c-.55-.488-1.034-.996-1.501-1.487-1.67-1.752-2.987-3.136-6.164-2.524-2.386.459-4.491 2.106-5.006 3.916-.373 1.313.105 2.627 1.382 3.802 2.14 1.969 5.428 1.864 7.79 1.109 2.187-.699 3.892-2.025 4.145-3.225.096-.449-.012-.864-.328-1.26Zm.028-.721.001.002-.001-.002Z" fill="#231F20"/><path d="M61.492 130.667c-.524-.655-.956-1.447-1.283-2.363-.916-2.554.612-6.291 2.536-7.802.88-.691 2.6-1.281 3.517-1.572-.365-.503-1.122-.921-1.911-1.356-1.568-.865-3.52-1.941-3.097-4.331.422-2.386 3.644-8.366 6.51-8.548.83-.053 1.831.509 2.892 1.102 1.039.582 2.332 1.306 2.671.849.688-.925.562-2.374.43-3.909-.13-1.512-.266-3.075.368-4.358.686-1.388 1.903-2.328 3.519-2.718 2.106-.508 4.71.035 6.481 1.35 1.565 1.162 1.484 3.363 1.431 4.82-.007.215-.017.474-.015.686.65-.229 1.898-.785 2.711-1.147 1.265-.564 1.995-.885 2.306-.945 1.95-.375 4.072.167 5.822 1.487 1.756 1.325 2.864 3.242 3.042 5.261.2 2.27-2.037 3.85-3.834 5.119-.943.666-2.01 1.42-2.069 1.901-.005.04-.019.132.125.295.545.628 1.188 1.284 1.869 1.979 3.142 3.206 7.053 7.198 4.18 11.759-1.666 2.646-4.739 3.624-7.472 2.378a12.172 12.172 0 0 1-1.74-.985c.451 2.797-.476 6.272-2.46 8.581-1.85 2.154-4.23 2.894-6.7 2.083-3.671-1.205-7.388-4.836-8.461-8.265-.153-.488.056-1.207.355-2.035-.572.231-1.63.732-3.588 1.804-.171.094-.29.158-.334.181-1.92.971-3.799 1.14-5.434.488-.917-.366-1.714-.971-2.367-1.789Zm5.544-12.441c.214.268.372.567.45.909.11.473-.344.613-.537.673-1.783.55-2.981 1.059-3.56 1.514-1.768 1.389-2.878 4.735-2.199 6.631.633 1.768 1.69 2.99 3.055 3.534 1.35.538 2.932.382 4.577-.45.041-.021.149-.08.305-.165 3.905-2.137 4.548-2.21 4.942-2.087.165.051.298.16.374.31.122.242.053.426-.15.974-.125.339-.507 1.369-.438 1.638.967 3.089 4.462 6.492 7.792 7.585 2.757.904 4.681-.721 5.583-1.771 2.204-2.566 2.981-6.879 1.697-9.418-.245-.483.12-.725.163-.752.416-.256.698.128.85.335.101.139.41.559.526.644.767.57 1.482 1.003 2.187 1.325 2.281 1.039 4.756.242 6.158-1.985 2.433-3.863-1.008-7.375-4.043-10.473-.692-.707-1.346-1.373-1.912-2.025-.294-.34-.42-.711-.372-1.104.113-.941 1.168-1.685 2.502-2.628 1.661-1.173 3.544-2.503 3.397-4.176-.152-1.725-1.111-3.373-2.631-4.519-1.515-1.143-3.336-1.615-4.997-1.296-.214.043-1.248.503-2.079.873-.78.347-1.586.706-2.233.966-.852.341-1.525.609-1.804.059-.17-.336-.152-.82-.125-1.554.047-1.312.113-3.11-1.011-3.945-1.536-1.14-3.793-1.612-5.615-1.173-.91.22-2.14.773-2.829 2.166-.504 1.021-.382 2.437-.264 3.806.144 1.661.292 3.379-.63 4.621-.887 1.193-2.55.262-4.019-.56-.84-.471-1.794-1.005-2.317-.972-2.109.134-5.136 5.357-5.548 7.689-.273 1.544.79 2.252 2.573 3.236.823.453 1.665.918 2.182 1.565ZM97.51 74.807a3.437 3.437 0 0 1-.212-.295c-.266-.417-.059-.705.011-.783.354-.398.872-.147 1.904.354.243.118.472.229.619.288.411.166.663.503.845.89-.025-.411-.015-.808.122-1.126.849-1.965 1.757-3.856 3.526-5.387 3.369-2.915 7.052-4.685 10.951-6.56a173.22 173.22 0 0 0 3.148-1.54c.248-.125 1.792-.624 2.501-.846a48.485 48.485 0 0 1 1.551-.462c.688-.188 1.102-.304 1.319.125.668 1.32-.709 2.209-1.815 2.922-.59.38-1.2.774-1.501 1.18-.859 1.157-1.69 2.746-2.57 4.428-1.987 3.8-4.24 8.106-7.759 9.083-.372.103-.761.218-1.161.337-2.601.767-5.549 1.637-7.857.705-.503-.203-.768-.661-.957-1.155-.458-.26-.865-.584-1.237-.878a36.458 36.458 0 0 0-.217-.17c-.425-.331-.86-.671-1.211-1.11Zm1.751.871.002.002-.002-.002Zm23.61-15.366c-1.093.292-3.677 1.13-3.981 1.27-1.055.533-2.127 1.048-3.162 1.547-3.835 1.843-7.457 3.584-10.72 6.408-1.603 1.387-2.453 3.162-3.252 5.011-.083.194-.036.727-.004 1.08.06.675.108 1.21-.259 1.512.01.005.019.01.029.013 1.971.797 4.734-.019 7.171-.739.406-.12.8-.236 1.178-.34 3.083-.857 5.224-4.95 7.114-8.562.899-1.72 1.749-3.344 2.657-4.567.415-.558 1.105-1.003 1.773-1.434.838-.54 1.317-.893 1.456-1.199ZM46.943 73.366c-1.306-1.634-2.151-3.692-2.948-5.915-.205-.573-.588-1.17-.993-1.801-.58-.905-1.18-1.84-1.328-2.838-.206-1.393.793-2.907 1.454-3.91 2.051-3.107 5.02-5.124 8.586-5.832 3.305-.656 6.95-.116 10.264 1.522 1.585.784 2.663 3.473 3.293 8.222.52 3.914-.879 8.285-3.563 11.135-2.019 2.143-4.586 3.218-7.23 3.027-3.682-.266-5.948-1.625-7.535-3.61Zm15.268-17.243c-.244-.305-.48-.49-.695-.596C55.92 52.761 48.333 52.91 44 59.477c-.539.817-1.44 2.184-1.293 3.182.114.777.653 1.616 1.174 2.428.419.653.852 1.328 1.097 2.013 1.698 4.737 3.48 8.396 9.576 8.836 2.98.216 5.123-1.35 6.396-2.702 2.477-2.63 3.768-6.667 3.289-10.282-.533-4.01-1.313-5.936-2.027-6.829ZM96.744 89.336c-.673-.842-1.102-1.685-1.067-2.485.033-.713.412-1.319 1.127-1.8 4.963-3.332 9.565-2.475 15.526-.9 2.74.724 5.368 1.81 7.91 2.861.634.262 1.267.524 1.902.78.806.326 3.465 2.087 5.926 3.927 4.925 3.681 4.929 4.5 4.931 4.848.002.472.006 1.264-7.362 3.215-3.643.964-7.443 1.761-8.281 1.803-5.991.301-10.983-3.508-15.076-7.273-.431-.396-1.021-.874-1.645-1.38-1.345-1.09-2.888-2.341-3.891-3.596Zm.35-3.851.291.433c-.431.29-.649.61-.666.98-.065 1.465 2.615 3.638 4.573 5.224.637.516 1.239 1.004 1.694 1.422 4.132 3.801 8.726 7.28 14.317 7 .727-.037 4.219-.768 7.632-1.656 4.755-1.238 6.579-2.048 6.986-2.387-.667-1.367-8.528-7.08-10.17-7.742-.637-.257-1.273-.52-1.91-.783-2.509-1.037-5.105-2.11-7.778-2.817-5.873-1.551-10.068-2.337-14.678.759l-.29-.433Z" fill="#231F20"/><path d="M23.156 91.583c-.95-1.19-1.732-2.587-2.324-4.17-1.411-3.778-1.15-11.421 2.106-14.238.228-.198 1.371-.784 4.53-2.322.189-.091.373-.18.52-.253-.133-.25-.517-.708-1.61-1.424-1.1-.722-2.444-1.401-3.426-1.898-.537-.271-.925-.467-1.127-.597-3.37-2.163-4.738-4.865-4.577-9.034.228-5.867 2.7-13.299 8.917-14.934 1.86-.49 4.591-.557 6.796-.167.287.05.681.235 1.302.531.56.268 1.852.885 2.225.805.312-.588.324-1.394.337-2.246.014-.982.029-1.998.494-2.886 2.621-5.01 9.421-12.078 16.331-12.11 2.883-.014 7.487 2.807 7.503 6.174.002.352-.215.93-.63 2.008-.271.706-.742 1.929-.833 2.504.657-.125 1.464-.606 2.248-1.074.838-.5 1.705-1.017 2.52-1.184 7.05-1.444 16.7-.39 22.365 5.221 2.327 2.305 5.16 6.567 5.874 9.709.99 4.359-3.267 10.37-7.316 12.05-.087.036-.174.07-.26.102a65.007 65.007 0 0 1 4.105 3.648c2.702 2.616 5.892 6.169 5.743 8.233-.476 6.598-6.225 15.307-13.207 17.088-2.507.639-5.53-.047-7.626-.734-.88-.29-2.453-.916-3.484-1.5-.16 1.15-.1 2.579-.035 4.07.099 2.323.202 4.725-.455 6.725-1.325 4.039-5.637 7.329-10.486 8.002-4.089.567-7.603-.842-9.637-3.864-.382-.567-.87-1.175-1.387-1.819-1.227-1.527-2.614-3.255-3.018-5.036-.098-.429-.032-1.333.083-2.772.068-.86.175-2.199.139-2.83-1.02.36-3.78 1.786-5.35 2.597-1.264.654-1.993 1.029-2.277 1.138-3.67 1.418-7.425 1.421-10.57.008-1.755-.788-3.27-1.979-4.503-3.52Zm5.493-21.86c.328.41.493.82.444 1.229-.032.286-.032.286-1.168.84-1.095.532-4.005 1.949-4.315 2.18-2.879 2.491-3.08 9.652-1.8 13.076 1.258 3.37 3.429 5.826 6.275 7.105 2.89 1.298 6.36 1.288 9.768-.03.245-.094 1.182-.578 2.174-1.09 5.824-3.01 6.172-3.028 6.58-2.624.371.368.365 1.154.149 3.865-.077.964-.173 2.163-.106 2.458.352 1.547 1.66 3.177 2.815 4.615.53.66 1.032 1.285 1.438 1.888 1.805 2.68 4.95 3.925 8.63 3.414 4.469-.62 8.432-3.619 9.638-7.294.597-1.82.499-4.125.403-6.355-.087-2.043-.17-3.972.3-5.404a.543.543 0 0 1 .532-.393c.408.012.512.4.551.546.01.034.023.087.037.129.853.514 2.437 1.178 3.467 1.516 1.963.644 4.78 1.291 7.043.714 6.46-1.647 11.983-10.035 12.425-16.152.093-1.288-2.11-4.243-5.746-7.714a61.112 61.112 0 0 0-4.352-3.79c-1.286.12-2.35-.377-3.031-1.454-.143-.226-.478-.756-.143-1.158.21-.251.533-.29.961-.117.525.212 1.424.808 2.506 1.638.27-.059.555-.15.857-.276 3.657-1.518 7.562-7.055 6.699-10.857-.663-2.917-3.419-7.045-5.592-9.198-5.39-5.34-14.642-6.329-21.42-4.94-.643.131-1.432.602-2.196 1.058-1.028.613-2.091 1.248-3.078 1.252a.717.717 0 0 1-.605-.31c-.373-.54-.054-1.524.761-3.643.232-.603.55-1.428.56-1.632-.013-2.66-4.036-5.144-6.455-5.133-6.477.03-12.912 6.773-15.413 11.551-.35.668-.362 1.518-.375 2.418-.014.964-.029 1.962-.493 2.784-.572 1.01-2.16.252-3.561-.417-.389-.185-.873-.417-1.034-.445-2.07-.366-4.622-.307-6.35.148-5.665 1.49-7.925 8.455-8.139 13.966-.148 3.801 1.04 6.153 4.099 8.117.156.1.562.305 1.033.543 2.258 1.142 4.338 2.264 5.227 3.375Z" fill="#231F20"/></svg>