<svg width="120" height="120" fill="none" xmlns="http://www.w3.org/2000/svg"><path d="M118.685 55.93h-12.739l10.004-10.003c.246-.246.388-.586.388-.927 0-.35-.142-.69-.388-.937l-3.9-3.899a1.325 1.325 0 0 0-1.864 0L94.429 55.931H69.833l17.394-17.395h22.287c.729 0 1.316-.587 1.316-1.315v-5.517c0-.341-.133-.682-.388-.928a1.274 1.274 0 0 0-.928-.388H95.366l9.009-9c.246-.246.388-.587.388-.927 0-.35-.142-.691-.388-.937l-3.899-3.9a1.324 1.324 0 0 0-1.864 0l-9.01 9.02V10.486c0-.34-.132-.682-.388-.928a1.273 1.273 0 0 0-.927-.388H82.78c-.728 0-1.315.587-1.315 1.316v22.287L64.069 50.167V25.571L79.836 9.814a1.325 1.325 0 0 0 0-1.864l-3.9-3.9a1.311 1.311 0 0 0-.927-.388c-.35 0-.69.142-.927.388L64.069 14.054V1.315C64.07.587 63.483 0 62.754 0h-5.508c-.729 0-1.315.587-1.315 1.315v12.739L45.927 4.05c-.492-.501-1.372-.501-1.864 0l-3.899 3.9a1.325 1.325 0 0 0 0 1.864L55.921 25.57v24.596L38.536 32.773V10.486c0-.729-.587-1.316-1.315-1.316h-5.517c-.35 0-.682.133-.928.388a1.311 1.311 0 0 0-.388.928v14.139l-9-9.01a1.325 1.325 0 0 0-1.864 0l-3.9 3.9a1.325 1.325 0 0 0 0 1.863l9.01 9H10.486c-.729 0-1.316.587-1.316 1.316v5.517c0 .35.133.682.388.928.246.255.587.388.928.388h22.287L50.167 55.93H25.571L9.814 40.164a1.325 1.325 0 0 0-1.864 0l-3.9 3.9a1.317 1.317 0 0 0 0 1.863l10.004 10.004H1.315C.587 55.93 0 56.527 0 57.246v5.508c0 .729.587 1.315 1.315 1.315h12.739L4.05 74.063a1.333 1.333 0 0 0-.388.937c0 .34.133.681.388.927l3.9 3.9c.255.264.596.388.927.388.331 0 .672-.124.927-.389L25.571 64.07h24.596L32.773 81.464H10.486c-.729 0-1.316.587-1.316 1.315v5.508c0 .35.142.69.388.937.246.246.578.379.928.379h14.148l-9.01 9a1.325 1.325 0 0 0 0 1.864l3.9 3.899a1.308 1.308 0 0 0 1.43.287c.159-.067.303-.164.424-.287l9.01-9.01v14.149c0 .35.132.681.388.927.246.246.577.388.927.388l5.508-.009c.73 0 1.316-.587 1.316-1.316V87.227l17.385-17.394v24.596l-15.757 15.757a1.325 1.325 0 0 0 0 1.864l3.899 3.9c.246.246.577.378.927.378.35 0 .69-.132.927-.378l10.004-10.004v12.739c0 .728.586 1.315 1.315 1.315h5.508c.729 0 1.316-.596 1.316-1.315v-12.739l10.003 10.004c.246.246.577.378.927.378.35 0 .681-.132.928-.378l3.899-3.9a1.325 1.325 0 0 0 0-1.864L64.069 94.429V69.823l17.395 17.395v22.287c0 .728.587 1.315 1.315 1.315h5.508c.35 0 .69-.132.927-.378.247-.246.389-.578.389-.937v-14.14l9.009 9.01a1.309 1.309 0 0 0 .927.388 1.313 1.313 0 0 0 .928-.388l3.889-3.899a1.306 1.306 0 0 0 0-1.864l-9.009-9h14.139c.729 0 1.315-.596 1.315-1.316V82.79c0-.73-.586-1.316-1.315-1.316H87.227L69.833 64.07h24.596l15.757 15.757c.256.266.596.389.928.389.331 0 .671-.124.927-.389l3.899-3.899a1.318 1.318 0 0 0 .389-.932 1.307 1.307 0 0 0-.389-.932l-9.994-9.994h12.739c.728 0 1.315-.586 1.315-1.315v-5.508c0-.729-.587-1.315-1.315-1.315Z" fill="#40C0E7" fill-opacity=".4"/></svg>