<svg width="150" height="277" fill="none" xmlns="http://www.w3.org/2000/svg"><path d="M33.359 28.064c-.1-2.986.127-6.06 1.37-8.777 1.244-2.717 3.658-5.035 6.607-5.522 2.99-.493 5.991.93 8.368 2.81 4.005 3.169 6.953 8.39 5.628 13.323 3.407-2.777 7.029-5.655 11.366-6.374 4.337-.719 9.514 1.626 10.286 5.953.897 5.025-4.109 8.939-8.484 11.567 5.962-.081 11.84 3.37 14.673 8.617.552 1.023 1.005 2.16.894 3.318-.154 1.606-1.343 2.904-2.545 3.98-2.888 2.584-6.372 4.705-10.224 5.132-3.852.426-8.082-1.148-10.022-4.504a52.082 52.082 0 0 1-10.148 11.637c-2.951 2.51-6.606 4.795-10.439 4.232-3.127-.46-5.845-2.984-6.533-6.069-.689-3.084.697-6.525 3.33-8.271-3.584-1.603-7.765.837-11.634.17-4.44-.766-7.104-5.223-9.173-9.224-1.438-2.78-2.905-6.028-1.697-8.915 1.28-3.056 5.005-4.253 8.315-4.387 2.158-.088 7.978 1.956 9.577 1.067 2.55-1.417.561-7.457.485-9.763ZM11.597 64.833c5.982.243 10.886 6.693 9.52 12.522 1.751-4.66 7.15-7.8 11.962-6.525 4.812 1.275 7.96 7.19 5.902 11.724-1.821 4.012-6.518 5.794-10.85 6.6 5.089.32 8.195 5.654 9.926 10.45.669 1.851 1.282 3.79 1.115 5.752-.167 1.962-1.294 3.966-3.158 4.604-1.897.65-3.944-.228-5.756-1.088-2.952-1.401-5.968-2.847-8.274-5.162 2.05 5.135-2.666 11.621-8.182 11.257-5.518-.365-9.337-7.416-6.63-12.236-2.551 1.16-5.162 2.336-7.952 2.609-2.79.272-5.841-.518-7.605-2.697C-16.135 93.063 1.06 88.985 1.82 82c.419-3.841-1.663-6.955.128-10.875 1.672-3.657 5.548-6.459 9.649-6.292ZM68.73 96.697c1.309-2.127 3.005-4.14 5.3-5.124 2.755-1.18 6.174-.608 8.394 1.405 2.22 2.013 3.123 5.36 2.217 8.216 3.197-4.585 8.352-8.071 13.942-8.14 5.59-.07 11.284 3.937 12.094 9.468.811 5.531-4.526 11.384-9.993 10.218 4.526 2.062 9.133 4.383 12.278 8.236 3.146 3.853 4.443 9.645 1.789 13.852-2.209 3.503-6.494 5.076-10.571 5.805-3.565.637-7.348.79-10.707-.566-3.358-1.357-6.176-4.513-6.25-8.135-.921 7.224-5.391 13.91-11.715 17.522-.91.52-1.9.99-2.948.97-.926-.017-1.8-.417-2.618-.852-3.997-2.127-7.684-5.896-7.594-10.423.057-2.87 1.609-5.463 3.03-7.957.341-.6.689-1.249.633-1.936-.129-1.593-2.207-2.203-3.783-1.942-1.577.26-3.203.968-4.708.432-1.328-.473-2.143-1.781-2.822-3.016-2.214-4.024-3.839-9.667-.388-12.698 1.922-1.687 4.173-1.481 6.52-1.31 3.61.263 2.778 1.327 3.977-1.835 1.564-4.122 1.466-8.196 3.923-12.19ZM99.781 143.726c1.949-.035 3.832.866 5.293 2.156 1.65 1.458 2.878 3.8 2.051 5.841a13.967 13.967 0 0 1 3.733-7.085c.884-.896 1.915-1.686 3.113-2.073 2.971-.961 6.424 1 7.532 3.92 1.108 2.919.076 6.393-2.132 8.601-2.209 2.208-5.407 3.24-8.53 3.268 1.219 1.572 2.461 3.183 3.096 5.068.635 1.885.562 4.13-.689 5.677-1.454 1.797-4.218 2.179-6.329 1.236-2.111-.944-3.589-2.972-4.343-5.157-1.696 1.416-2.995 3.279-4.777 4.585-1.782 1.307-4.38 1.937-6.154.618-1.677-1.248-1.908-3.787-1.093-5.712.815-1.925 2.426-3.38 3.988-4.769-1.986.334-4.02.667-6.002.307-1.982-.36-3.934-1.558-4.63-3.449-.978-2.661.948-5.702 3.527-6.88 2.21-1.01 4.767-.351 6.695-1.769 2.267-1.665 2.044-4.319 5.651-4.383ZM33.128 175.341c2.848-1.6 6.587-.95 9.215.989s4.277 4.954 5.29 8.059c.627-3.004 3.119-5.4 5.997-6.463 2.878-1.063 6.081-.939 9.072-.252 3.084.707 6.393 2.398 7.16 5.468.717 2.873-1.142 5.824-3.496 7.622-2.353 1.798-5.201 2.827-7.677 4.452 4.812.173 9.523 2.328 12.8 5.856 1.256 1.352 2.34 2.982 2.52 4.82.283 2.896-1.719 5.52-3.925 7.417-2.904 2.495-6.595 4.383-10.412 4.097-3.817-.285-7.562-3.305-7.681-7.132a29.994 29.994 0 0 1-6.049 14.079c-2.816 3.588-7.815 6.664-11.72 4.306-3.875-2.34-3.54-8.011-2.427-12.4.646-2.549 1.515-5.262 3.639-6.811-2.74.926-4.955 2.944-7.484 4.348-2.53 1.404-5.861 2.119-8.198.415-1.879-1.37-2.53-3.958-2.203-6.26.327-2.301 1.465-4.395 2.583-6.433 1.498-2.729 3.04-5.237 5.274-7.422 1.44-1.41 3.443-2.328 4.066-4.383 1.533-5.056-2.709-10.797 3.656-14.372ZM18.864 164.829c1.72 2.505 2.941 5.571 2.366 8.555-.575 2.984-3.457 5.629-6.45 5.101 2.148.864 3.53 2.985 4.383 5.138 1.21 3.052 1.594 6.632.087 9.548-1.506 2.917-5.31 4.738-8.256 3.29-2.67-1.312-3.682-4.531-4.429-7.411 1.45 4.062-.04 9.05-3.613 11.466-3.573 2.416-8.925 1.844-11.746-1.418-2.822-3.262-2.514-8.826.789-11.6-1.752 2.594-4.949 4.267-8.047 3.821-3.098-.447-5.81-3.235-5.797-6.365.012-2.993 2.255-5.517 4.691-7.255 3.17-2.263 6.935-3.457 10.759-2.391-1.342-2.367-6.027-6.839-3.015-9.858 1.729-1.734 4.239-.372 6.194.282 8.013 2.676 14.165 2.48 22.084-.903Z" fill="#F68F8D"/><path d="M-56.6 145.087c4.7-18.684 14.701-37.601 32.213-45.632a983.016 983.016 0 0 1-24.567 47.326l34.282-13.234c4.615-1.781 9.32-3.583 14.256-3.897 4.303-.274 8.603.597 12.914.527 12.704-.207 24.208-8.799 30.68-19.733 6.473-10.933 8.604-23.9 9.22-36.591a34.627 34.627 0 0 1 6.8 13.524c8.45-11.719 21.838-19.753 36.153-21.696l-51.287 53.712c-2.15 2.25-4.306 5.977-2.013 8.081 1.567 1.438 4.019.805 6.142.672 3.443-.214 6.95 1.254 9.213 3.857a233.91 233.91 0 0 1-50.192 13.328 50.342 50.342 0 0 0 21.243 10.342c6.834 1.493 13.937 1.548 20.712 3.285 5.665 1.452 11.027 4.063 16.802 4.983 8.664 1.38 17.921-1.097 26.099 2.081 4.44 1.726 8.219 5.1 10.434 9.319.327.623.626 1.349.386 2.009-.184.505-.646.851-1.109 1.122-3.144 1.846-7.061 1.494-10.685 1.084l-48.979-5.544c-3.567-.403-7.19-.821-10.503-2.203-4.993-2.083-8.901-6.192-13.81-8.464-4.1-1.897-8.825-2.479-12.514-5.087-4.575-3.234-6.969-9.193-12.057-11.537-6.535-3.01-13.92 1.268-19.954 5.185a323.501 323.501 0 0 1-70.455 34.397c-1.99.688-4.086 1.365-6.166 1.035-4.672-.742-7.058-5.985-8.05-10.609-.955-4.452-5.308-11.331-.805-13.549 5.549-2.734 12.92-3.552 18.812-5.956 6.167-2.517 12.218-5.322 18.472-7.62 1.712-.629 18.27-4.345 18.312-4.517Z" fill="#4E3B31"/><path d="M-7.92 128.233c-.033.975.106 2.068.86 2.689.41.338.943.481 1.439.678 1.535.611 2.77 1.793 4.222 2.582 2.743 1.49 6.264 1.435 8.958-.142-1.595.933-7.525-13.921-8.675-14.573-3.996-2.265-6.703 5.77-6.804 8.766ZM48.91 149.108c2.996-3.274-4.421-18.336-8.941-11.353-3.184 4.917 3.633 17.158 8.942 11.353Z" fill="#BED665"/><path d="M17.05 198.597c-2.394.947-4.65.911-6.421-.119-.936-.544-1.743-1.686-2.384-2.936C5.8 200.089.927 205.57-3.693 204.71c-3.411-.634-6.121-5.556-6.77-9.948-.214-1.452-.188-2.754.064-3.858-2.216.265-4.402.265-5.083-.015-3.855-1.592-4.517-7.611-3.278-11.056.895-2.487 3.622-6.463 6.624-7.109 1.224-.262 2.638.461 3.886 1.098.19.098.42.215.641.322-.224-1.066-.802-1.972-1.407-2.918-1.4-2.193-2.989-4.679-.17-9.034 1.05-1.62 2.197-2.457 3.506-2.558 2.283-.176 4.188 1.96 6.206 4.22 1.85 2.073 3.761 4.216 5.612 4.174 2.307-.052 4.437-.825 6.496-1.573 3.623-1.317 7.37-2.678 10.062 1.674 3.543 5.727-1.067 9.47-3.544 11.481-.516.42-1.19.966-1.486 1.31.27.086.71.161 1.003.21 1.012.171 2.16.365 2.87 1.229 2.335 2.839 3.535 7.863 1.503 11.356-1.015 1.746-3.01 3.485-5.207 4.538-.263.127-.525.241-.785.344Zm-7.594-5.778c.619 1.619 1.529 3.313 2.283 3.752 1.77 1.029 3.98.248 5.14-.307 1.792-.859 3.462-2.295 4.254-3.658 1.53-2.628.516-6.637-1.3-8.845-.186-.227-.997-.364-1.534-.454-1.098-.186-2.936-.498-2.96-2.282-.016-1.149 1.006-1.979 2.421-3.127 3.161-2.567 5.394-4.831 3.058-8.606-1.674-2.706-3.593-2.156-7.43-.762-2.124.771-4.531 1.646-7.201 1.706-2.87.065-5.228-2.578-7.309-4.911-1.571-1.76-3.195-3.581-4.39-3.489-.57.044-1.181.569-1.822 1.557-2.048 3.164-1.114 4.624.177 6.646.855 1.337 1.824 2.854 1.852 4.942.012.869-.441 1.282-.713 1.451-.895.556-1.928.026-3.237-.643-.734-.375-1.963-1.002-2.42-.905-1.99.423-4.256 3.605-5.009 5.697-.914 2.544-.448 7.24 2.043 8.269.69.205 3.331.004 5.4-.351.35-.402.766-.731 1.244-.977 1.042-.62 1.747-.813 2.342-.642.362.103.655.342.825.671.295.568.197 1.228-.256 1.72-.466.51-1.545.916-2.842 1.214-.463.914-.597 2.292-.351 3.956.57 3.86 2.948 7.721 4.99 8.101 3.105.578 7.48-3.871 9.752-8.322.265-.518.48-.991.65-1.419a14.361 14.361 0 0 1-.48-1.778c-.2-1.114-.268-2.569.542-3.183.406-.307.937-.354 1.419-.12.817.395 2.02 1.572.889 5.02a6.08 6.08 0 0 1-.027.079ZM46.966 39.962c-.336.133-.73.1-1.04-.113-.715-.49-.537-1.13-.108-2.68.13-.47.464-1.63.745-2.24.466-1.012 1.19-.941 1.478-.864 1.003.267.904 1.353.845 2.002-.077.85-.38 2.452-1.533 3.638a1.11 1.11 0 0 1-.387.257Zm.82-3.995.005-.001-.004.001ZM50.552 55.514a1.104 1.104 0 0 1-1.316-.403c-.247-.359-.416-.594-.537-.762-.38-.528-.435-.635-.644-1.271-.058-.176-.135-.41-.25-.741a1.104 1.104 0 0 1 2.085-.726c.12.346.201.592.261.777.122.37.122.37.338.67.128.177.306.424.567.804a1.103 1.103 0 0 1-.504 1.651ZM86.312 111.949a1.104 1.104 0 0 1-1.4-1.506l.41-.849c.183-.377.562-.618.98-.623l.662-.009 1.09-.38a1.103 1.103 0 0 1 1.405.678c.2.576-.115 1.204-.679 1.406l-1.258.439c-.113.04-.23.061-.35.062l-.16.002-.115.235a1.093 1.093 0 0 1-.585.545ZM77.01 109.967a1.105 1.105 0 0 1-1.176-.235l-.856-.832a1.11 1.11 0 0 1-.334-.777l-.04-2.95a1.097 1.097 0 0 1 .11-.495l.821-1.699a1.102 1.102 0 1 1 1.987.96l-.707 1.464.03 2.233.528.513a1.103 1.103 0 0 1-.363 1.818Z" fill="#231F20"/><path d="M41.898 230.27a8.249 8.249 0 0 1-.548.196c-2.216.704-5.461.663-8.34-3.532-1.675-2.44-2.368-7.754-1.577-11.707a33.888 33.888 0 0 1-2.556.86c-4.065.637-9.366-4.978-10.95-8.041-.894-1.732-.825-4.008.2-6.582 1.54-3.862 4.917-7.532 7.823-8.559.545-.19 1.539-.262 3.248-.374 1.097-.072 2.872-.188 3.493-.354.68-1.235-.037-3.464-.73-5.622-.66-2.051-1.34-4.171-1.008-5.958.823-4.424 3.408-5.709 5.433-6.009 5.096-.753 11.517 3.878 13.719 7.584.665-.234 1.955-.999 3.033-1.635 4.417-2.609 11.093-6.552 15.484-2.278 4.287 4.172 4.594 10.673.784 16.56-.51.787-1.314 1.641-2.288 2.321 1.747.681 3.245 1.707 4.41 3.044 2.241 2.576 3.098 6.091 2.475 10.164-.384 2.517-1.954 4.746-4.419 6.276-3.089 1.917-7.27 2.534-10.406 1.537-1.149-.367-3.936-1.386-6.008-3.209-1.599 5.836-6.11 13.275-11.272 15.318Zm-7.868-16.157c-1.249 3.115-.747 9.32.8 11.572 1.719 2.506 3.633 3.382 5.852 2.677 5.6-1.767 10.967-12.347 10.898-17.47-.015-1.146.782-1.295 1.025-1.313.39-.029 1.065.09 1.222 1.222.234 1.7.45 2.14.533 2.251 1.197 1.162 3.258 2.296 5.489 3.006 2.515.801 6.04.262 8.572-1.308 1.35-.838 3.035-2.34 3.4-4.735.522-3.412-.155-6.31-1.958-8.381-1.583-1.818-3.982-2.927-6.86-3.199-.181.003-.373.004-.577.003-1.395-.009-1.77-.011-2.135-.473-.26-.33-.311-.78-.13-1.16.298-.629.914-.638 1.177-.641.593-.007 1.172.013 1.737.061.411-.009.79-.031.998-.076 1.405-.299 2.814-1.499 3.48-2.528 2.558-3.951 3.777-9.646-.47-13.78-3.182-3.097-8.983.329-12.822 2.596-2.585 1.528-3.874 2.247-4.936 1.942a1.539 1.539 0 0 1-.95-.777c-1.756-3.397-7.845-7.395-11.667-6.83-1.938.286-3.109 1.67-3.585 4.23-.23 1.238.364 3.089.939 4.879.897 2.793 1.824 5.682.297 7.777-.527.724-1.659.856-5.017 1.076-.993.065-2.355.154-2.668.257-2.308.805-5.214 4.072-6.497 7.291-.771 1.934-.874 3.621-.29 4.751 1.483 2.868 6.139 7.267 8.648 6.874.582-.119 2.291-.755 3.858-1.475.143-.257.298-.495.466-.711.126-.162.266-.371.415-.592.674-.997 1.373-2.028 2.415-2.135a1.62 1.62 0 0 1 1.311.473c.504.49.674 1.146.466 1.8-.331 1.046-1.803 2.038-3.436 2.846Zm16.306-31.528v.003-.003ZM50.119 49.814c-.507.2-1.085.31-1.718.319-1.213.016-2.11-.617-2.4-1.693-.563-2.095 1.518-6 2.393-6.493.768-.433 1.672-.315 2.417.314 1.2 1.013 2.052 3.498 1.356 5.446a3.474 3.474 0 0 1-2.048 2.107Zm-1.97-1.902c.009-.004.079.016.222.014 1.408-.019 1.703-.738 1.8-1.276.201-1.107-.345-2.294-.726-2.66-.658.94-1.613 3.375-1.298 3.923h.001Zm.786-5.003.004-.002-.004.002Z" fill="#231F20"/><path d="M52.968 72.296c-1.095.434-2.446.78-4.117 1.011-.382.053-.791.125-1.218.198-2.021.35-4.537.787-6.58-.2-4.708-2.275-7.016-7.894-5.369-13.069.117-.365.392-.775.91-1.53.095-.139.22-.32.35-.515-.302.078-.486.113-.66.116l-.336.005c-4.423.064-12.657.184-14.288-5.245-.678-2.254-1.78-14.753 1.43-17.228 2.544-1.962 8.004-1.493 9.717-1.174.788.146 1.61.721 2.405 1.29-.14-1.105-.401-2.22-.673-3.38-.791-3.379-1.688-7.209.718-11.343 3.182-5.47 7.336-5.32 9.53-4.745 5.434 1.427 10.273 8.118 10.358 14.32.008.597.113.83.149.893.801.173 3.77-1.944 5.55-3.215 4.413-3.148 9.414-6.716 12.446-3.764 3.402 3.312 2.641 9.741 2.156 12.351-.135.728-.83 1.4-2.264 2.73-.402.374-.962.894-1.395 1.34.325-.005.668-.023.934-.037 1.047-.055 2.13-.112 2.953.205 4.646 1.785 7.598 8.848 6.756 13.377-1.512 8.128-12.605 9.49-19.083 9.578-2.324.031-2.978-.909-3.59-2.14-.19-.38-.385-.773-.71-1.195a1.963 1.963 0 0 1-.167-.257c-.657 1.242-.804 2.617-.958 4.05-.295 2.782-.625 5.86-4.954 7.573ZM36.197 56.1c.113-.022.385-.096.588-.151 1.443-.392 2.486-.676 2.988.29.487.944-.199 2.027-1.36 3.716-.241.352-.572.835-.638.985-1.282 4.033.574 8.606 4.238 10.378 1.405.678 3.444.324 5.243.013.453-.08.887-.154 1.292-.21 6.569-.912 6.827-3.312 7.182-6.633.23-2.144.489-4.575 2.535-6.676.34-.35.804-.488 1.243-.371.776.205.974.975 1.135 1.594.045.176.12.466.172.572.446.584.708 1.11.919 1.534.411.827.464.933 1.585.917 4.671-.063 15.673-.948 16.943-7.773.67-3.606-1.817-9.546-5.378-10.914-.385-.148-1.306-.1-2.046-.061-1.242.065-2.415.127-3.222-.397a1.386 1.386 0 0 1-.634-1.048c-.09-1.036.864-1.974 2.7-3.68.565-.523 1.403-1.3 1.615-1.618.34-1.883 1.118-7.672-1.544-10.263-1.713-1.667-6.286 1.597-9.625 3.979-3.503 2.498-6.033 4.304-7.848 3.384-.87-.44-1.322-1.393-1.341-2.83l1.103-.014-1.103.014c-.07-5.12-4.303-11.057-8.712-12.213-2.78-.73-5.222.556-7.061 3.719-1.964 3.376-1.242 6.462-.476 9.73.399 1.707.811 3.47.836 5.298.012.871-.505 1.236-.729 1.352-.87.459-1.72-.15-2.794-.919-.474-.339-1.268-.907-1.599-.969-2.302-.427-6.462-.404-7.965.752-1.706 1.316-1.553 11.89-.665 14.845 1.152 3.834 8.575 3.725 12.143 3.673l.28-.005Zm24.598 3.481c0 .002.002.003.003.004l-.003-.004Zm-24.552-3.481h.011-.01Zm19.064-24.382.004-.001-.004.001ZM92.276 116.506c-.277.11-.598.108-.888-.033l-.613-.296-3.955.053a1.104 1.104 0 0 1-.03-2.207l4.217-.057c.171-.002.34.035.495.11l.848.411a1.103 1.103 0 0 1-.074 2.019Z" fill="#231F20"/><path d="M45.75 43.35a1.1 1.1 0 0 1-.392.078l-.843.011a1.105 1.105 0 0 1-.926-.48l-.86-1.252a1.105 1.105 0 0 1-.192-.609l-.017-1.265a1.104 1.104 0 0 1 2.206-.03l.013.931.337.49.252-.003a1.104 1.104 0 0 1 .421 2.13ZM81.218 109.489a1.108 1.108 0 0 1-.392.077l-.843.01a1.102 1.102 0 0 1-1.118-1.088l-.01-.843a1.106 1.106 0 0 1 .211-.666l1.184-1.622.777-1.608a1.103 1.103 0 1 1 1.987.96l-.82 1.697a1.04 1.04 0 0 1-.103.17l-.692.95a1.105 1.105 0 0 1-.18 1.963ZM58.437 46.13a1.1 1.1 0 0 1-.886-.032l-.615-.297-1.247.017-1.09.38a1.104 1.104 0 0 1-1.405-.68c-.2-.576.085-1.194.68-1.406l1.258-.438c.113-.039.23-.06.348-.061l1.687-.023a1.1 1.1 0 0 1 .495.11l.849.41a1.103 1.103 0 0 1-.074 2.02ZM72.85 114.239c-.277.11-.598.108-.887-.033l-.848-.41a1.11 1.11 0 0 1-.43-.369l-.86-1.253a1.096 1.096 0 0 1-.194-.61l-.01-.843a1.103 1.103 0 1 1 2.207-.028l.006.508.506.736.584.283a1.103 1.103 0 0 1-.074 2.019ZM78.53 128.919a1.102 1.102 0 0 1-1.333-1.625c.253-.391.39-.635.49-.812.328-.58.498-.737 1.14-1.052.116-.056.262-.128.453-.226a1.103 1.103 0 1 1 1.013 1.96c-.208.108-.37.186-.495.248l-.141.068-.048.086c-.108.191-.271.48-.56.926a1.094 1.094 0 0 1-.52.427ZM116.465 169.242a5.109 5.109 0 0 1-.763.232c-2.354.526-5.559-.376-6.964-1.514a19.408 19.408 0 0 1-2.444-2.324c-.693 1.283-1.567 2.706-2.611 3.888-2.896 3.278-5.585 2.96-7.33 2.116-2.645-1.278-4.028-4.538-4.115-9.692-1.67-.089-3.362-.5-3.83-.88-3.325-2.695-5.95-4.823-2.435-9.889 1.825-2.629 3.721-4.216 5.627-4.722 1.023-.271 2.106.298 3.09.884a16.972 16.972 0 0 0-.079-.212c-.3-.81-.64-1.728-.189-2.687.37-.785 1.15-1.348 2.526-1.828 2.134-.743 5.842-1.063 8.528 3.952.917-1.118 2.427-2.027 4.348-2.535 3.359-.887 7.382-.26 8.797 3.143.615 1.479.675 2.756.178 3.796-.779 1.627-2.65 2.177-4.02 2.578 1.49.84 1.893 1.114 2.12 1.409 2.037 2.64 3.149 9.184 1.538 12.518-.391.806-1.065 1.407-1.972 1.767Zm-8.68-5.259c.634.759 1.401 1.5 2.343 2.262.861.698 3.38 1.458 5.093 1.075.942-.211 1.157-.659 1.228-.806 1.126-2.33.434-7.875-1.25-10.145-.298-.226-1.388-.835-1.985-1.169-1.429-.799-1.687-.943-1.694-1.619-.019-1.376 1.387-1.786 2.627-2.149 1.027-.3 2.305-.673 2.66-1.415.214-.45.139-1.121-.225-1.996-.904-2.175-3.763-2.499-6.195-1.856-2.248.595-3.831 1.946-3.682 3.145.136 1.103-.534 1.385-.827 1.453-.648.153-1.124-.187-1.416-1.009-1.555-4.383-3.839-6.084-6.79-5.056-1.1.382-1.249.672-1.254.684-.057.121.142.658.261.98.234.63.525 1.416.538 2.354.011.814-.43 1.189-.694 1.34-.818.472-1.679-.044-2.668-.641-.453-.273-1.395-.843-1.716-.819-1.346.356-2.858 1.687-4.354 3.841-2.332 3.361-1.35 4.191 1.944 6.862.497.21 1.916.419 3.049.457.3-.706.75-1.362 1.422-1.527.264-.067 1.175-.192 1.777.973.41.794.264 1.615-.383 2.142-.278.226-.675.381-1.144.481l-.007.047c.065 4.275 1.03 6.893 2.868 7.781.996.481 2.57.84 4.716-1.59 1.523-1.725 2.7-4.161 3.403-5.616.31-.637.883-.775 1.28-.7.884.167.95 1.02.99 1.53.015.181.043.541.085.706Zm-.064-.077.001.001-.001-.001Zm-13.277-2.08v.009-.009ZM82.555 120.886c-2.838 1.123-5.253-.344-6.184-2.398-.912-2.013-.505-4.861 2.542-6.36 1.384-.681 2.823-.579 4.053.284 1.51 1.058 2.419 3.124 2.212 5.025-.172 1.571-1.091 2.814-2.522 3.408l-.1.041Zm-2.668-6.777c-1.857.913-1.972 2.439-1.506 3.468.505 1.112 1.749 1.924 3.427 1.23.695-.289 1.09-.83 1.175-1.609.12-1.101-.432-2.382-1.285-2.979-.564-.396-1.16-.433-1.81-.11Z" fill="#231F20"/><path d="M99.612 176.759c-1.145.453-3.197.846-6.775 1.311-.188.025-.317.041-.368.049-7.645 1.381-15.577 1.174-23.01.745-15.587-.902-33.452-2.461-48.189-9.581-5.424-2.621-9.913-6.498-14.255-10.248-6.205-5.357-12.065-10.418-20.341-11.957-6.297-1.171-18.05 5.044-24.364 8.383-.806.426-1.546.817-2.203 1.157-4.066 2.103-8.204 4.411-12.585 6.854-13.027 7.266-26.498 14.781-40.037 17.982-.76.179-1.901.596-3.222 1.078-4.93 1.801-11.681 4.266-15.056.98-1.521-1.48-2.74-5.054-4.062-9.225-.397-1.252-.739-2.332-.974-2.858-.062-.14-.31-.63-.573-1.15-2.883-5.69-2.958-6.114-2.213-6.81.876-.819 2.05-1.382 3.3-1.583 6.463-1.048 12.172-2.693 18.215-4.435 2.557-.737 5.202-1.499 7.94-2.223 2.545-.673 5.083-1.236 7.536-1.78 6.244-1.385 12.141-2.691 17.856-5.648 2.113-1.092 4.5-5.872 6.078-9.034.666-1.334 1.24-2.485 1.745-3.319 4.267-7.035 9.849-14.005 17.567-21.935.372-.382.75-.772 1.132-1.169 2.742-2.836 5.85-6.049 8.997-8.362.196-.144 1.942-1.386 3.104-.808.465.232.748.692.755 1.232.032 2.306-2.904 5.719-5.914 9.018-.404.443-.742.812-.968 1.079-4.63 5.438-20.014 27.559-19.953 32.008.002.13.019.293.089.332.196.11 1.44.527 6.658-2.025 3.32-1.623 6.944-3.796 9.59-5.383 1.345-.806 2.407-1.443 3.026-1.763 6.128-3.169 14.306-3.268 22.22-3.367 5.195-.065 10.103-.127 14.259-1.017 20.892-4.472 36.22-15.703 44.325-32.476 1.11-2.298 1.502-7.917 1.88-13.35.59-8.486 1.056-13.767 3.116-15.356a1.185 1.185 0 0 1 1.11-.164c.76.291.85.784 1.44 3.994.399 2.17 1.61 8.758 2.753 9.397l.01.002a5.23 5.23 0 0 1 .558-.888c5.91-7.595 11.96-12.46 19.619-15.773 2.332-1.01 6.904-2.709 11.35-2.769.19-.002.486-.035.8-.07 1.21-.135 2.355-.263 2.986.507.31.378.396.883.236 1.384-.16.502-.163.512-7.026 5.52-4.619 3.368-10.944 7.981-12.015 9.082-3.626 3.726-6.376 7.798-9.286 12.11-1.744 2.581-3.547 5.251-5.543 7.817-1.836 2.36-3.832 4.714-5.945 7.207-4.843 5.714-9.843 11.613-12.995 17.774 2.554.995 11.406 2.804 12.932 2.821.038-.008.078-.02.118-.031.336-.088.9-.237 1.41.149.297.226.47.575.476.958.017 1.339-1.296 2.005-9.532 3.56-.49.092-.841.158-.979.191-9.774 2.311-20.238 4.672-31.25 5.925l-.433.046c-1.289.135-5.211.546-6.073 1.796-.095.139-.18.326-.088.676 1.269 4.797 9.43 8.498 16.646 10.362 6.393 1.65 12.55 3.807 18.505 5.893 10.67 3.738 20.75 7.268 32.09 8.144 5.042.39 9.886 1.833 14.57 3.227 2.356.702 4.793 1.428 7.172 1.988l.18.04c1.117.242 3.196.693 3.217 2.25.007.632-.273 1.107-1.338 1.529Zm-125.517-29.405c4.715-1.866 9.439-3.105 12.982-2.446 8.864 1.648 15.227 7.143 21.38 12.457 4.234 3.655 8.611 7.436 13.773 9.93 14.373 6.945 31.98 8.476 47.356 9.365 7.297.422 15.072.628 22.498-.714.05-.009.215-.031.467-.064 2.254-.294 3.73-.547 4.695-.751l-.201-.045c-2.44-.575-4.908-1.31-7.294-2.02-4.574-1.363-9.303-2.771-14.111-3.142-11.628-.899-22.315-4.642-32.65-8.262-5.911-2.071-12.024-4.212-18.326-5.84-3.796-.98-16.325-4.738-18.229-11.934-.238-.902-.098-1.763.406-2.493 1.264-1.833 4.429-2.399 7.66-2.738l.413-.044c10.891-1.239 21.282-3.584 30.992-5.88.151-.036.538-.11 1.077-.212a133.33 133.33 0 0 0 4.07-.824c-1.243-.231-2.603-.51-3.845-.786-6.825-1.516-7.264-2.207-7.528-2.62a1.24 1.24 0 0 1-.08-1.213c3.24-6.706 8.558-12.979 13.7-19.046 2.098-2.474 4.08-4.811 5.888-7.135 1.95-2.507 3.732-5.146 5.454-7.697 2.838-4.202 5.771-8.546 9.534-12.413 1.114-1.144 6.01-4.742 12.296-9.327a773.904 773.904 0 0 0 4.585-3.36c-.087.005-.17.01-.25.01-2.967.04-6.796.983-10.503 2.587-7.3 3.158-13.083 7.816-18.753 15.103-.193.248-.29.445-.384.637-.493 1-1.131 1.286-2.358 1.06-2.148-.401-3.16-3.919-4.491-11.164l-.032-.17c-.664 2.847-.998 7.647-1.263 11.45-.41 5.902-.798 11.477-2.094 14.157-8.412 17.409-24.267 29.054-45.85 33.674-4.37.936-9.386.999-14.694 1.066-7.657.095-15.573.195-21.233 3.12-.558.289-1.593.91-2.905 1.696-9.706 5.82-15.837 8.904-18.458 7.443-.448-.25-1.203-.873-1.221-2.231-.081-5.927 17.247-29.673 20.48-33.469.237-.28.592-.67 1.017-1.136 1.134-1.243 3.72-4.077 4.824-6.05-2.942 2.195-5.918 5.272-8.549 7.993-.385.398-.764.79-1.137 1.173-7.6 7.807-13.084 14.652-17.26 21.541-.459.755-1.015 1.869-1.66 3.159-1.909 3.826-4.285 8.587-7.038 10.009-5.969 3.088-12.004 4.426-18.392 5.843-2.432.539-4.948 1.097-7.45 1.758-2.714.718-5.347 1.477-7.893 2.211-6.109 1.76-11.879 3.424-18.474 4.492-.6.097-1.184.325-1.67.645.445 1.111 1.684 3.555 2.199 4.573.353.696.541 1.069.622 1.25.283.639.627 1.72 1.061 3.088.841 2.654 2.249 7.097 3.497 8.311 2.382 2.318 8.627.038 12.76-1.471 1.386-.506 2.584-.944 3.471-1.153 13.24-3.132 26.574-10.569 39.47-17.762 4.396-2.452 8.548-4.768 12.646-6.887.652-.337 1.386-.725 2.185-1.148 3.49-1.843 8.15-4.307 12.818-6.154ZM44.166 50.962a1.106 1.106 0 0 1-.392.077l-4.636.063a1.103 1.103 0 0 1-1.12-1.089l-.01-.843a1.104 1.104 0 0 1 2.172-.29l3.565-.048a1.104 1.104 0 0 1 .42 2.13Z" fill="#231F20"/><path d="M87.753 125a1.107 1.107 0 0 1-.886-.032l-.849-.41a1.1 1.1 0 0 1-.5-.488l-.866-1.673a1.104 1.104 0 1 1 1.96-1.015l.698 1.348.517.25a1.104 1.104 0 0 1-.074 2.02ZM58.356 40.23a1.099 1.099 0 0 1-.39.076 19.55 19.55 0 0 1-1.541-.032c-.078-.005-.137-.01-.188-.01-.062.03-.172.088-.278.144-.12.065-.266.142-.448.236a1.103 1.103 0 1 1-1.013-1.96c.172-.09.309-.162.422-.223.686-.366.886-.433 1.632-.39.265.015.666.038 1.383.028a1.104 1.104 0 0 1 .421 2.13ZM72.93 120.141a1.105 1.105 0 0 1-.392.077l-.707.01-1.432.379-.73.378a1.12 1.12 0 0 1-.492.123l-.843.011a1.104 1.104 0 0 1-.029-2.207l.582-.008.606-.313c.071-.037.147-.066.225-.086l1.68-.445c.088-.023.177-.035.268-.036l.843-.012a1.105 1.105 0 0 1 .42 2.129ZM2.136 135.52c-.425.168-.97.173-1.62.117-1.807-.154-9.296-1.685-10.174-2.964-3.441-5.014 8.312-15.847 8.437-15.946.458-.361 1.15-.327 1.54.106.32.355.536.947-.247 1.751-1.086 1.115.234 3.76 1.512 6.318 1.757 3.52 3.75 7.51 1.032 10.302a1.335 1.335 0 0 1-.48.316Zm-10.047-4.215c1.186.665 7.539 2.243 9.117 2.164 1.242-1.571.116-4.15-1.597-7.581-.822-1.647-1.659-3.322-1.999-4.866-2.851 3.182-6.647 8.233-5.521 10.283Zm7.192-13.49.004-.001-.004.001Z" fill="#231F20"/><path d="M106.698 140.261c-4.009 1.587-8.407 2.067-11.702 1.563-2.764-.422-4.963-3.051-6.253-5.605-.032.609-.064 1.098-.128 1.446-.767 4.121-5.498 8.263-9.774 10.226-3.845 1.762-7.348 1.93-9.862.468-3.401-1.979-6.004-13.326-5.378-16.691.13-.697.56-1.411 1.086-2.062-3.623.539-6.763-.282-8.854-2.317-4.153-4.042-4.584-9.456-1.216-15.246 2.355-4.048 5.444-3.557 7.7-3.199 1.332.212 2.49.396 3.438-.183.24-.757-.235-3.551-.495-5.077-.377-2.216-.598-3.616-.401-4.45 1.158-4.918 5.892-7.332 9.697-9.272l.867-.444c3.831-1.987 9.049.237 11.69 3.427 1.11 1.341 1.714 2.767 1.803 4.152 1.499-1.089 3.036-2.164 4.623-3.145 6.262-3.877 15.229-1.32 19.943 3.269 4.263 4.148 1.516 12.848-.902 16.584-.683 1.055-1.998 1.709-3.441 2.11 4.315 2.252 6.798 5.44 7.565 9.689.703 3.892-.44 7.506-3.306 10.451-1.837 1.888-4.193 3.314-6.7 4.306Zm-18.671-9.411c.274-.108.57-.121.85-.028.875.287 1.002 1.21 1.148 2.279.048.345.112.817.179.987.954 2.444 2.965 5.224 5.126 5.554 4.81.735 12.224-.847 16.487-5.227 2.382-2.447 3.295-5.314 2.716-8.52-.769-4.256-3.54-7.166-8.721-9.158-.459-.177-1.56-.277-2.331-.302a32.372 32.372 0 0 1-.263-.006 1.104 1.104 0 0 1 .047-2.207c.058.001.152.002.275.006 2.579.04 6.364-.452 7.188-1.724 2.135-3.3 4.368-10.734 1.215-13.803-4.137-4.028-12.055-6.181-17.243-2.973-2.267 1.401-4.466 3.028-6.593 4.601l-.123.092a6.484 6.484 0 0 1-.303.418v.001c-.36.458-1.238.782-1.771.655a1.129 1.129 0 0 1-.838-.864 1.134 1.134 0 0 1 .46-1.144l.79-.582c.999-1.857-.105-3.68-.91-4.654-2.06-2.489-6.25-4.284-8.976-2.873l-.878.45c-3.576 1.822-7.628 3.889-8.552 7.811-.103.447.205 2.254.43 3.574.658 3.872.996 6.291-.321 7.195-1.696 1.163-3.53.873-5.147.615-2.234-.355-3.849-.612-5.444 2.129-1.988 3.417-3.455 8.368.846 12.554 2.166 2.108 5.377 1.97 7.098 1.7 1.12-.176 3.304-.459 3.396-.471a1.103 1.103 0 0 1 .789 1.989c-1.07.775-2.729 2.312-2.883 3.147-.579 3.112 2.148 13.117 4.317 14.379 1.848 1.075 4.703.871 7.832-.566 4.314-1.979 7.978-5.686 8.525-8.623.049-.266.08-.892.11-1.497.117-2.351.24-3.831.952-4.562.157-.16.334-.278.52-.352Zm-1.187-29.584-.002.002.002-.002Zm-.026-1.107.005-.002-.005.002ZM20.662 115.175c-1.763.698-4.305.808-7.793.358-2.944-.38-5.521-5.179-6.41-8.466a13.544 13.544 0 0 1-.425-2.261c-3.223.878-6.656.253-9.027-1.805-2.631-2.284-3.264-5.716-1.737-9.416 1.723-4.177 3.73-7.11 6.134-8.964.579-.445 1.317-.494 2.138-.316-1.311-2.465-1.644-5.23-.926-8.06 1.183-4.667 5.17-8.935 9.48-10.156 2.695-.76 5.168-.217 6.964 1.53 1.96 1.907 3.234 5.439 4.027 8.58 1.285-1.586 3.436-4.02 6.36-4.794 1.924-.51 4.077-.092 6.066 1.173 2.213 1.409 3.838 3.67 4.242 5.9 1.134 6.281-2.235 9.093-5.817 11.587.24.154.494.304.648.395.43.255.643.384.814.55.407.396.812.761 1.204 1.114 1.181 1.065 2.296 2.07 3.254 3.695 1.64 2.783 2.167 5.433 1.523 7.666-.54 1.879-1.864 3.373-3.932 4.442-2.63 1.365-9.459 2.246-12.242-.463a8.325 8.325 0 0 1-1.864-2.75c.006.791.111 1.659.22 2.547.286 2.365.612 5.045-1.171 6.814-.462.459-1.036.825-1.73 1.1ZM8.206 103.962c.003.73.13 1.593.383 2.528.99 3.656 3.266 6.687 4.563 6.854 4.018.519 6.605.239 7.685-.836 1.016-1.007.782-2.937.533-4.98-.294-2.428-.629-5.179 1.21-7.069.331-.339.783-.462 1.212-.332.735.223.863.909.986 1.573.18.968.514 2.769 1.967 4.183 1.73 1.683 7.386 1.276 9.69.084 1.508-.779 2.458-1.819 2.825-3.092.595-2.066-.38-4.368-1.304-5.934-.786-1.333-1.733-2.187-2.83-3.177-.398-.358-.81-.728-1.235-1.142-.078-.054-.28-.173-.43-.261-1.08-.639-2.196-1.299-2.23-2.335-.017-.483.216-.926.637-1.215 4.267-2.927 6.635-4.833 5.713-9.94-.297-1.644-1.544-3.342-3.254-4.43-1.463-.93-2.996-1.251-4.316-.902-2.508.664-4.416 3.053-5.555 4.48-.83 1.041-1.33 1.67-2.184 1.467-.47-.113-.816-.485-.923-.997-.942-4.504-2.302-7.802-3.829-9.287-1.547-1.506-3.477-1.368-4.824-.988-3.546.999-6.956 4.687-7.941 8.573-.598 2.36-.607 5.855 2.747 9.118.773.753.523 1.367.306 1.668-.588.81-1.41.38-2.135 0-1.936-1.016-2.69-1.199-2.978-1.16C.63 88.028-1.132 90.65-2.69 94.427c-1.16 2.808-.754 5.261 1.143 6.907 1.946 1.69 4.982 2.084 7.686 1.121.22-.993.68-1.779 1.377-2.316.02-.015 1.4-1 2.431-.767.4.09.721.336.904.691.427.826.413 2.12-2.079 3.587a11.91 11.91 0 0 1-.567.312Zm25.653-11.37Zm-10.35-14.556Zm-1.08.226.005-.001-.004.001ZM45.233 153.279a1.101 1.101 0 0 1-1.148-.21c-.143-.13-3.525-3.236-4.425-7.043-.06-.257-.24-.81-.449-1.452-1.448-4.461-2.033-6.958-1.21-8.231.848-1.309 1.959-1.574 2.742-1.567 3.637.038 7.58 6.048 7.618 6.109 2.774 4.486-2.419 11.711-2.642 12.017a1.105 1.105 0 0 1-.486.377Zm-4.838-16.24c-.168.066-.35.209-.542.504-.33.845 1.015 4.988 1.457 6.35.241.744.416 1.281.497 1.626.483 2.04 1.907 3.909 2.857 4.98 1.378-2.258 3.205-6.211 1.819-8.452-1.057-1.709-4.05-5.045-5.764-5.063a.827.827 0 0 0-.324.055Z" fill="#231F20"/></svg>