<svg width="124" height="154" fill="none" xmlns="http://www.w3.org/2000/svg"><path d="m132.452 167.881-15.166 5.213a5.381 5.381 0 0 1-5.703-1.477l-1.221-1.348-.219-.163a13.325 13.325 0 0 0 2.578-9.191l-.163-.538a17.897 17.897 0 0 0 7.785-3.042l.124.177 5.458 6.03a16.022 16.022 0 0 0 6.527 4.339Z" fill="#fff"/><path d="m143.409 158.179 13.239-4.551 11.148 4.343 12.945 6.325-15.867 14.365-12.569-13.884-9.249 3.177a16.144 16.144 0 0 1-17.131-4.412l-5.458-6.03-.124-.176a14.45 14.45 0 0 0 2.107-1.619 18.784 18.784 0 0 0 4.729-6.736l7.828 8.648a5.392 5.392 0 0 0 5.704 1.477l2.698-.927Z" fill="#9A6948"/><path d="M97.01 116.134a16.142 16.142 0 0 0 2.606 10.055 20.665 20.665 0 0 0-2.303 1.761 18.728 18.728 0 0 0 15.245 32.427l.163.538a13.325 13.325 0 0 1-2.578 9.191 12.104 12.104 0 0 1-1.764 1.958 13.38 13.38 0 0 1-15.08 1.959 11.169 11.169 0 0 1-2.207 2.864 10.7 10.7 0 0 1-15.116-.751c-.251-.278-.425-.59-.638-.865a13.376 13.376 0 0 1-16.52-18.247c-.252-.24-.545-.444-.797-.722a13.269 13.269 0 0 1 .555-18.538 13.268 13.268 0 0 1 5.91-3.301 10.72 10.72 0 0 1 2.783-11.795l.141-.163A18.68 18.68 0 0 0 91.926 122c1.8-1.635 3.267-3.6 4.322-5.79.256-.007.51-.032.762-.076Z" fill="#2F5224"/><path d="M124.119 45.941a18.656 18.656 0 0 1 4.612 15.42 18.374 18.374 0 0 0-5.552 3.475 18.73 18.73 0 0 0-1.315 26.452 19.995 19.995 0 0 0 2.082 1.94 21.179 21.179 0 0 0-4.801 9.327 16.016 16.016 0 0 0-7.407-1.192 16 16 0 0 0-14.728 14.771 5.256 5.256 0 0 1-.762.076 18.907 18.907 0 0 1-4.322 5.789 18.672 18.672 0 0 1-24.516.505 14.327 14.327 0 0 1-1.936-1.819 18.152 18.152 0 0 1-1.655-2.147c-.06.054-.08.109-.14.163a13.378 13.378 0 1 1-17.956-19.833c.08-.072.157-.106.217-.16a14.93 14.93 0 0 1-2.012-1.824 13.377 13.377 0 0 1 .94-18.894 13.091 13.091 0 0 1 4.7-2.74 18.69 18.69 0 0 1 13.815-21.853A18.69 18.69 0 0 1 95.87 42.643c.6.666 1.146 1.377 1.637 2.127l.158-.144a18.728 18.728 0 0 1 26.453 1.315Z" fill="#5CB34F"/><path d="M143.183 146.727a18.897 18.897 0 0 1-15.341.355 18.63 18.63 0 0 1-.663 1.899 18.784 18.784 0 0 1-4.729 6.736 14.374 14.374 0 0 1-2.107 1.618 17.897 17.897 0 0 1-7.785 3.042 18.733 18.733 0 0 1-19.636-10.566 18.727 18.727 0 0 1 4.39-21.861 20.665 20.665 0 0 1 2.304-1.761 16.142 16.142 0 0 1-2.606-10.055 16.005 16.005 0 0 1 22.135-13.579 21.168 21.168 0 0 1 4.801-9.326 19.985 19.985 0 0 1-2.082-1.941 18.73 18.73 0 0 1 1.315-26.452 18.374 18.374 0 0 1 5.552-3.475c.453-.194.916-.36 1.389-.499a14.716 14.716 0 0 1 24.752-4.869 14.829 14.829 0 0 1 3.706 8.121 18.732 18.732 0 0 1 21.905 8.905 18.723 18.723 0 0 1-4.276 23.257 18.734 18.734 0 0 1-15.964 4.079 21.676 21.676 0 0 1 1.145 6.687 21.245 21.245 0 0 1-3.602 12.246 21.811 21.811 0 0 1-3.415 3.921c-.456.413-.928.769-1.382 1.144a18.724 18.724 0 0 1-9.806 22.374Z" fill="#7BC24F"/><path d="M167.587 85.984a18.736 18.736 0 0 1-16.322 4.455 21.642 21.642 0 0 1 1.145 6.686 21.248 21.248 0 0 1-3.601 12.246 21.857 21.857 0 0 1-3.415 3.922c-.456.413-.928.768-1.383 1.143a18.727 18.727 0 0 1-5.319 19.359 18.674 18.674 0 0 1-19.828 3.371 18.557 18.557 0 0 1-.663 1.899 18.78 18.78 0 0 1-4.729 6.735 14.397 14.397 0 0 1-2.107 1.619 17.891 17.891 0 0 1-7.784 3.041 18.744 18.744 0 0 1-11.134-1.83 18.687 18.687 0 0 0 8.003 9.388 18.689 18.689 0 0 0 12.108 2.359 17.897 17.897 0 0 0 7.785-3.042 14.374 14.374 0 0 0 2.107-1.618 18.784 18.784 0 0 0 4.729-6.736c.255-.62.476-1.254.663-1.899a18.673 18.673 0 0 0 19.828-3.371 18.724 18.724 0 0 0 5.319-19.358c.454-.375.926-.731 1.383-1.144a21.81 21.81 0 0 0 3.414-3.921 21.245 21.245 0 0 0 3.602-12.246 21.676 21.676 0 0 0-1.145-6.687 18.685 18.685 0 0 0 12.238-34.984 18.695 18.695 0 0 1-4.894 20.613Z" fill="#44853B"/><path d="m158.649 64.097-.077.095a15.119 15.119 0 0 1-2.994 20.032 16.416 16.416 0 0 1-13.258 4.262c.489 1.7.696 3.47.613 5.237a18.375 18.375 0 0 1-3.433 9.85 20.595 20.595 0 0 1-2.911 3.255c-.384.348-.778.651-1.159.967a13.86 13.86 0 0 1 .349 5.042 16.598 16.598 0 0 1-5.469 10.502 17.457 17.457 0 0 1-3.726 2.586 15.49 15.49 0 0 1-12.288.977c-.171.516-.382 1.02-.616 1.532-.98 2.1-2.37 3.984-4.088 5.541-.547.506-1.135.966-1.758 1.375a16.206 16.206 0 0 1-6.367 2.758 14.29 14.29 0 0 1-9.59-1.354 18.744 18.744 0 0 0 .575 11.861 18.743 18.743 0 0 0 11.133 1.83 17.895 17.895 0 0 0 7.785-3.041 14.415 14.415 0 0 0 2.102-1.604 18.78 18.78 0 0 0 4.729-6.735c.255-.621.477-1.255.663-1.9a18.675 18.675 0 0 0 19.829-3.37 18.733 18.733 0 0 0 5.318-19.359c.455-.375.927-.73 1.383-1.143a21.857 21.857 0 0 0 3.415-3.922 21.248 21.248 0 0 0 3.601-12.246 21.642 21.642 0 0 0-1.145-6.686 18.703 18.703 0 0 0 21.224-25.042 18.647 18.647 0 0 0-13.84-1.3Z" fill="#5CB34F"/><path d="M172.469 164.567a5.352 5.352 0 0 1-6.779.334l-7.435-5.51-20.834 5.811a3.725 3.725 0 0 1-2.033-.008 3.732 3.732 0 0 1-1.724-1.076l-1.347-1.488a3.724 3.724 0 0 1 .262-5.256l1.208-1.094-6.608-7.299a18.784 18.784 0 0 1-4.729 6.736 14.45 14.45 0 0 1-2.107 1.619l.124.176 5.458 6.03a16.144 16.144 0 0 0 17.131 4.412l9.249-3.177 12.569 13.884 15.867-14.365-5.178-2.53-3.094 2.801Z" fill="#714226"/><path d="M134.088 54.96a14.646 14.646 0 0 0-3.968 5.902c-.473.138-.936.305-1.389.5a18.376 18.376 0 0 0-5.552 3.474 18.73 18.73 0 0 0-1.315 26.452 19.996 19.996 0 0 0 2.082 1.94 21.168 21.168 0 0 0-4.801 9.327 16.033 16.033 0 0 0-18.511 4.59 16.027 16.027 0 0 0-1.018 19.044l-.176.124 5.386 5.95.177-.124a16.146 16.146 0 0 1-2.607-10.055 16.01 16.01 0 0 1 14.728-14.771 16.018 16.018 0 0 1 7.408 1.192 21.161 21.161 0 0 1 4.801-9.326 19.895 19.895 0 0 1-2.082-1.941 18.723 18.723 0 0 1 1.315-26.452 18.362 18.362 0 0 1 5.552-3.475c.452-.194.916-.36 1.388-.499a14.718 14.718 0 0 1 15.461-9.613c2.177.242 4.272.967 6.133 2.122a14.604 14.604 0 0 0-10.411-7.96 14.598 14.598 0 0 0-12.601 3.6Z" fill="#8EE05B"/><path d="M112.723 64.918a24.836 24.836 0 0 0-22.52 22.31 24.832 24.832 0 0 0 1.505 11.259c-2.341-2.738-6.798-1.785-9.95-.037a29.629 29.629 0 0 0-11.643 11.985 18.32 18.32 0 0 1-1.794 3.345c-.888 1.068-2.054 1.896-2.926 3.01a19.939 19.939 0 0 0-1.37 2.016c.441.657.925 1.285 1.449 1.879a14.327 14.327 0 0 0 1.936 1.819 18.675 18.675 0 0 0 24.516-.505 18.907 18.907 0 0 0 4.322-5.789c.256-.007.51-.032.762-.076a16.005 16.005 0 0 1 22.135-13.579 21.168 21.168 0 0 1 4.801-9.326 19.995 19.995 0 0 1-2.082-1.941 18.73 18.73 0 0 1 1.315-26.452 18.374 18.374 0 0 1 5.552-3.475 18.658 18.658 0 0 0-2.684-12.835 21.042 21.042 0 0 0-13.324 16.392Z" fill="#44853B"/><path d="M111.708 39.854c-.655.593-1.336 1.156-1.953 1.794a22.69 22.69 0 0 0-6.91 15.428 19.926 19.926 0 0 0-20.853 20.449A18.291 18.291 0 0 0 64.77 99.206a15.017 15.017 0 0 0-10.504 4.714 22.485 22.485 0 0 0-5.46 10.312 29.982 29.982 0 0 0-.798 6.056 13.34 13.34 0 0 0 15.67-1.587c.059-.054.08-.109.14-.163.062.092.15.164.203.264a19.94 19.94 0 0 1 1.37-2.016c.871-1.114 2.037-1.942 2.926-3.01a18.333 18.333 0 0 0 1.793-3.345 29.628 29.628 0 0 1 11.644-11.985c3.14-1.76 7.609-2.701 9.95.037a24.833 24.833 0 0 1 21.018-33.565 21.05 21.05 0 0 1 13.316-16.385 18.355 18.355 0 0 0-14.343-8.668l.012-.01Z" fill="#52A147"/><path d="M81.608 174.061a57.644 57.644 0 0 1-3.162-6.758 6.242 6.242 0 0 1-4.274.621 10.244 10.244 0 0 1-4.66-2.029 10.242 10.242 0 0 1-3.11-4.022 9.174 9.174 0 0 1-.475-5.11c.158-.85.439-1.673.834-2.443.262-.508 1.428-1.683 1.25-2.16-.16-.423-2.387-.929-2.831-1.133a24.536 24.536 0 0 1-3.09-1.58 17.16 17.16 0 0 1-5.07-4.571 13.821 13.821 0 0 1-1.43-2.569 13.341 13.341 0 0 0 2.431 13.995c.252.278.544.482.798.722a13.375 13.375 0 0 0 8.823 18.562c2.54.652 5.217.542 7.696-.315.213.275.387.587.638.865a10.655 10.655 0 0 0 9.887 3.319 25.246 25.246 0 0 1-4.255-5.394Z" fill="#39632C"/><path d="M96.248 116.21a18.907 18.907 0 0 1-4.322 5.789 18.672 18.672 0 0 1-24.516.505l-.14.164a10.703 10.703 0 0 0-2.859 11.544c2.465 1.475 5.068 2.732 7.662 3.971.843.405 1.689.809 2.564 1.142 1.445.61 2.974.996 4.535 1.146a21.83 21.83 0 0 0-.663 3.733 16.078 16.078 0 0 0 .3 3.831 18.725 18.725 0 0 0 3.007 7.022 29.433 29.433 0 0 0 11.923 9.387 15.12 15.12 0 0 0 .762 10.078 13.325 13.325 0 0 0 13.878-2.458 12.104 12.104 0 0 0 1.764-1.958 13.325 13.325 0 0 0 2.578-9.191l-.163-.538a18.733 18.733 0 0 1-19.636-10.566 18.725 18.725 0 0 1 4.39-21.861 20.666 20.666 0 0 1 2.304-1.761 16.142 16.142 0 0 1-2.606-10.055 5.256 5.256 0 0 1-.762.076Z" fill="#233D1B"/><path d="M93.746 164.452a29.433 29.433 0 0 1-11.922-9.387 18.724 18.724 0 0 1-3.008-7.022 16.084 16.084 0 0 1-.3-3.831 21.84 21.84 0 0 1 .663-3.733 15.46 15.46 0 0 1-4.535-1.146c-.875-.333-1.72-.737-2.564-1.142-2.594-1.239-5.206-2.506-7.661-3.971.028.083.044.169.074.25a12.887 12.887 0 0 0-8.9 7.852c.384.905.864 1.766 1.43 2.57a17.17 17.17 0 0 0 5.07 4.57 24.542 24.542 0 0 0 3.09 1.58c.454.195 2.681.702 2.83 1.133.18.477-.987 1.652-1.25 2.16a8.928 8.928 0 0 0-.833 2.444 9.17 9.17 0 0 0 .475 5.109 10.234 10.234 0 0 0 7.77 6.051 6.236 6.236 0 0 0 4.274-.621 57.609 57.609 0 0 0 3.159 6.762 25.25 25.25 0 0 0 4.255 5.375 10.606 10.606 0 0 0 5.229-2.568 11.171 11.171 0 0 0 2.207-2.864c.393.2.808.351 1.21.507a15.12 15.12 0 0 1-.763-10.078Z" fill="#2F5224"/><path d="M48.807 114.232a24.084 24.084 0 0 1 3.621-8.082 13.34 13.34 0 0 1 1.417-18.243 13.09 13.09 0 0 1 4.7-2.74A18.69 18.69 0 0 1 72.36 63.313a18.672 18.672 0 0 1 25.054-15.777c.19-1.735.252-2.91.252-2.91l-.158.144a17.482 17.482 0 0 0-1.637-2.127 18.69 18.69 0 0 0-32.488 10.754A18.69 18.69 0 0 0 49.568 75.25a13.091 13.091 0 0 0-4.7 2.74 13.377 13.377 0 0 0-.94 18.894 14.93 14.93 0 0 0 2.012 1.824c-.06.054-.137.088-.217.16a13.378 13.378 0 0 0-.939 18.894 12.997 12.997 0 0 0 4.923 3.349 13.627 13.627 0 0 1-1.704-.818c.06-2.042.33-4.073.804-6.061Z" fill="#7BC24F"/></svg>