<svg width="158" height="149" fill="none" xmlns="http://www.w3.org/2000/svg"><path d="M160.765 71.648c-2.128-26.68-16.646-47.29-32.427-46.031-15.782 1.258-26.85 23.908-24.723 50.588 2.128 26.681 16.646 47.29 32.427 46.032 15.782-1.258 26.85-23.908 24.723-50.589Z" fill="#F4920B"/><path d="M126.336 151.07c-15.335-31.323-53.16-44.284-84.484-28.948l-1.092.535a13.993 13.993 0 0 0-6.415 18.721l.535 1.092c15.336 31.323 53.16 44.284 84.484 28.948l1.092-.535a13.993 13.993 0 0 0 6.415-18.721l-.535-1.092Z" fill="#378900"/><path d="m72.644 146.704-19.194 9.397a3.562 3.562 0 1 0 3.133 6.398l19.193-9.398a3.562 3.562 0 1 0-3.132-6.397Z" fill="#216600"/><path d="m121.521 160.788-64.738-22.182-7.557-2.589a5.039 5.039 0 0 0-6.398 3.132 5.038 5.038 0 0 0 3.133 6.398l7.556 2.59 64.738 22.182a5.036 5.036 0 0 0 6.398-3.133 5.037 5.037 0 0 0-3.132-6.398Z" fill="#216600"/><path d="M83.074 125.398a3.563 3.563 0 0 0 .544 6.612 49.342 49.342 0 0 1 11.352 5.028 3.564 3.564 0 0 0 4.886-1.2 3.564 3.564 0 0 0-1.19-4.889 55.839 55.839 0 0 0-4.144-2.273l-.15-.074-.003-.002-.036-.017-.002-.001-.106-.052-.01-.005-.031-.015-.008-.004-.1-.048-.013-.007-.029-.013-.014-.008-.094-.045-.015-.007-.026-.012-.02-.01-.023-.011-.036-.017-.025-.012a.227.227 0 0 0-.024-.011l-.021-.011-.026-.012c-.006-.003-.011-.006-.018-.008l-.042-.021-.014-.006-.032-.015-.017-.008-.029-.014-.017-.008a.87.87 0 0 0-.043-.02l-.01-.005-.037-.017-.014-.007-.035-.016-.01-.005-.094-.044-.01-.004-.038-.018-.01-.005-.094-.043-.009-.004-.04-.019-.007-.003-.098-.045-.002-.001-.047-.021-.004-.002a56.407 56.407 0 0 0-7.224-2.721l-.003-.001-.05-.015h-.002a3.544 3.544 0 0 0-2.586.212Zm-38.954 3.545-.021.01-.02.011h-.002l-.02.01v.001l-.02.01h-.002l-.02.01-.001.001-.019.01-.002.001-.019.009-.002.002-.019.009-.002.002-.019.009-.002.002-.019.009-.002.001-.018.01-.003.002-.018.009-.003.002-.018.009-.002.002-.018.009-.003.002-.018.01-.002.001-.018.01-.003.001-.018.01-.003.002-.017.009-.003.002-.017.01-.003.001-.018.01-.003.002-.017.01-.003.001-.017.01-.003.002-.017.01-.003.002-.018.01-.002.001-.018.01-.002.002-.017.01-.003.001-.017.01-.002.002-.017.01-.003.002-.017.01-.003.002-.017.01-.003.002-.016.01-.004.002-.016.009-.004.003-.016.01-.003.002-.016.01-.004.002-.016.01-.003.002-.016.01-.004.003-.016.01-.003.002-.016.01-.004.003-.015.009-.005.003-.014.01-.005.003-.015.009-.004.003-.015.01-.004.003-.015.01-.004.002-.015.01-.005.003-.014.01-.005.003-.014.01-.005.003-.014.01-.005.002-.014.01-.004.003-.015.01-.004.003-.014.01-.005.003-.013.009-.005.004-.013.009-.006.004-.013.009-.005.004-.013.009-.006.004-.012.009-.006.004-.012.009-.007.004-.012.009-.005.004-.013.009-.006.004-.012.01-.006.004-.013.009-.006.004-.012.009-.006.005-.012.009-.006.004-.012.01-.006.004-.012.009-.006.005-.012.009-.006.004-.012.01-.006.004-.012.009-.006.005-.012.009-.006.005-.012.009-.006.004-.012.01-.006.005-.01.008-.008.006-.01.008-.007.006-.01.008-.007.005-.01.009-.008.005-.01.009-.007.005-.01.008-.008.007-.01.007-.007.007-.01.008-.007.006-.01.008-.007.006-.01.008-.008.006-.009.008-.007.006-.01.009-.006.005-.011.009-.006.006-.01.009-.007.005-.011.009-.006.005-.011.01-.005.005-.012.01-.005.004-.011.01-.006.005-.012.01-.005.005-.011.01-.005.004-.012.011-.005.004-.011.01-.006.005-.01.01-.006.005-.011.01-.006.005-.01.01-.006.005-.011.01-.005.005-.012.01-.004.004-.012.012-.004.003-.012.012-.004.003-.012.012-.004.003-.012.012-.004.003-.012.012-.003.003-.012.012-.004.003-.012.012-.004.003-.012.012-.003.003-.013.013-.002.002-.014.013-.002.002-.013.013-.003.003-.013.013-.002.002-.013.014-.003.002-.013.013-.002.002-.013.013-.003.003-.013.013-.002.002-.013.014-.002.002-.014.014-.001.002-.014.014-.001.001-.014.015-.001.001-.014.015-.016.016-.014.015-.001.001a9.26 9.26 0 0 0-.159.175 3.56 3.56 0 0 0 .326 5.024 3.56 3.56 0 0 0 5.025-.321.374.374 0 0 1 .117-.077l.862-.422a48.545 48.545 0 0 1 17.051-4.781 3.564 3.564 0 0 0 3.23-3.866 3.561 3.561 0 0 0-3.866-3.229 55.565 55.565 0 0 0-7.142 1.115l-.041.009-.002.001c-.112.025-.224.05-.337.077h-.003l-.038.009-.005.001-.038.009-.003.001-.038.009h-.004l-.252.06-.003.001-.038.009-.004.001-.038.009-.005.001-.038.009-.003.001-.039.009-.003.001-.04.01h-.001l-.21.051-.005.002-.036.009-.006.001-.035.009-.008.002-.034.008-.007.002-.035.009-.006.001-.039.01h-.002l-.209.053-.005.002a.466.466 0 0 0-.036.009l-.007.002a.4.4 0 0 0-.034.008l-.01.003a.357.357 0 0 0-.03.008l-.01.002-.032.008-.01.003-.035.009-.005.001-.04.011-.127.033H55.4l-.038.011-.008.002-.034.008-.009.003-.031.008-.01.003-.033.008-.008.003-.033.009-.008.002-.034.009-.008.002-.037.01-.003.001a5.839 5.839 0 0 0-.126.034h-.002l-.038.01-.008.003-.034.009-.008.002-.032.009-.01.003a.36.36 0 0 0-.032.008l-.009.003-.032.009-.01.002-.032.009-.008.002-.037.011-.004.001-.125.034-.004.001-.036.011-.009.002-.032.009-.011.003-.029.008-.013.004-.028.008-.013.004-.028.008-.013.003-.03.009-.01.003-.031.009-.01.002-.123.036-.006.001a.45.45 0 0 1-.035.01l-.01.003-.03.009-.01.003-.032.009-.011.003-.03.009-.01.003-.03.009-.012.003-.03.009-.01.003-.035.01-.006.002a6.228 6.228 0 0 0-.124.037l-.003.001-.037.011-.01.002-.03.01-.013.003-.028.008-.013.005-.028.008-.013.004-.029.008-.011.004-.03.009-.011.003-.033.01-.007.002-.04.012v.001l-.083.025-.009.002-.032.01-.012.004-.028.008-.013.004-.028.009-.013.004-.028.009-.013.004-.027.008-.014.004-.027.009-.014.004-.026.008-.015.005-.029.009-.01.003-.038.012-.008.002-.036.011-.01.004-.03.009-.013.004-.028.009-.013.004-.026.009-.016.004-.026.009-.014.004-.026.008-.014.005-.026.008-.015.005-.025.008-.016.005-.027.009-.013.004-.08.026-.01.003-.03.01-.016.005-.025.008-.015.005-.025.008-.016.005-.025.008-.015.005-.025.008-.016.005-.025.009-.015.004-.027.009-.013.005-.032.01-.008.003-.036.012-.005.001-.04.014-.01.003-.03.01-.015.005-.025.008-.016.006-.024.007-.017.006-.024.008-.016.006-.024.007-.017.006-.023.008-.017.006-.023.007-.018.006-.023.008-.016.006-.027.009-.013.004-.04.014-.011.004-.029.009-.015.006-.025.008-.016.006-.024.008-.017.006-.024.008-.016.005-.024.008-.017.006-.023.008-.017.006-.023.008-.017.006-.026.009-.013.005a.336.336 0 0 0-.03.01l-.011.004-.04.014-.01.003-.03.01-.015.006-.025.009-.016.005-.023.008-.019.007-.021.007-.018.007-.022.008-.018.006-.023.008-.017.006-.022.008-.018.006-.023.008-.017.006-.026.01-.014.005-.04.014-.01.003-.03.011-.015.006-.024.008-.017.006-.023.009-.017.006-.023.008-.018.007-.021.007-.02.007-.02.008-.019.007-.021.007-.02.007-.02.008-.019.007-.026.009-.014.005-.039.015-.01.003-.03.011-.016.006-.023.009-.02.007-.019.007-.021.008-.019.007-.02.007-.02.007-.02.008-.02.007-.02.008-.02.007-.02.007-.021.009-.018.006-.022.009-.018.006-.024.009-.032.012-.022.009-.017.006-.023.009-.017.006-.023.009-.017.006-.023.009-.016.006-.024.009-.017.007-.022.008-.018.007-.022.008-.019.007-.021.009-.018.006-.022.009-.018.007-.039.015-.01.004-.03.011-.014.006-.025.009-.017.007-.022.008-.02.008-.02.008-.019.007-.021.008-.019.008-.021.008-.019.007-.02.008-.019.008-.023.008-.017.007-.028.011-.01.004-.04.016-.004.001-.036.015-.014.005-.026.01-.015.006-.025.01-.016.007-.023.009-.018.007-.021.008-.02.008-.02.008-.018.008-.022.008-.018.008-.023.008-.016.007-.023.009-.018.008a.385.385 0 0 0-.03.012l-.01.004a.58.58 0 0 0-.038.015l-.013.005-.027.011-.016.006-.023.01-.017.007-.023.009-.017.007-.021.009-.02.008-.02.008-.02.008-.02.008-.019.008-.02.008-.02.008-.019.008-.02.009-.02.007-.034.015-.023.009-.02.009-.02.008-.02.008-.019.008-.02.008-.02.008-.02.009-.019.008-.02.008-.02.008-.019.008-.02.009-.02.008-.02.008-.019.009-.02.008-.02.008-.018.008-.041.017-.017.008-.02.008-.02.008-.021.009-.018.008-.022.009-.018.007-.02.009-.019.008-.02.009-.02.008-.02.009-.018.008-.021.009-.018.008-.021.008-.02.009-.019.008-.026.011-.013.006-.039.017-.013.005-.027.012-.013.006-.026.011-.016.007-.023.01-.017.007-.022.01-.02.008-.02.009-.018.008-.022.01-.017.007-.023.01-.016.007-.025.011-.015.007-.035.015-.003.002-.04.017-.012.005-.028.013-.015.007-.023.01-.018.008-.022.009-.017.008-.022.01-.018.008-.023.01-.015.007-.024.011-.016.006-.025.012-.015.006-.024.011-.015.007-.028.012-.012.006-.038.017-.013.006-.027.012-.015.007-.023.01-.018.008-.022.01-.017.008-.022.01-.018.008-.022.01-.017.008-.022.01-.018.008-.022.01-.016.008-.023.01-.017.008-.028.013-.01.005-.04.018h-.001l-.04.018-.007.004-.03.014-.015.007-.025.011-.015.007-.024.011-.016.008-.023.011-.017.007-.022.01-.018.009-.022.01-.016.008-.026.012-.013.006a.407.407 0 0 1-.031.014l-.008.004-.04.019-.007.003-.032.015-.013.006-.026.013-.015.007-.024.011-.016.008-.023.01-.018.009-.021.01-.017.008-.024.011-.015.008-.025.011-.014.007-.026.012-.014.007-.029.014-.01.005-.038.018-.007.003-.033.016-.013.007-.025.012-.016.008-.024.011-.016.007-.023.012-.016.008-.023.011-.017.008-.022.01-.017.009-.022.011-.017.008-.038.019-.029.013-.912.447Z" fill="#9FE27C"/><path d="M35.23 129.485a3.546 3.546 0 0 0-1.889 2.33 13.941 13.941 0 0 0 .17 7.443l.006.018v.002l.006.018.04.13v.001l.006.017v.002l.006.017v.002l.036.109v.002l.006.015.001.005.005.014.002.006.004.013.002.005.005.015.001.004.005.016.025.071v.004l.006.014.002.006.004.013.002.006.005.013.002.007.005.013.002.005.004.014.002.006.018.049v.002l.005.013.003.007.004.012.002.007.005.012.003.008.004.012.002.007.005.012.003.007.004.013.002.005.018.05v.001l.006.015.002.005.005.013.002.006.005.014.002.006.005.012.003.008.005.012.002.007.005.012.003.009.004.011.004.009.008.02.003.008.004.012.003.008.004.011.004.008.004.011.003.009.004.011.004.009.004.01.004.009.004.011.003.009.005.01.003.009.011.028v.001l.005.013.003.007.004.01.004.01.004.009.004.01.004.01.004.01.004.009.004.011.004.009.005.011.003.009.005.011.005.013.006.014.003.009.005.011.004.009.004.01.004.01.004.01.004.01.004.009.004.01.005.01.003.009.005.011.004.009.004.011.004.009.008.018.003.008.005.012.004.008.005.012.003.008.005.011.004.008.005.012.003.008.006.012.003.007.005.013.004.007.006.015.002.005.009.019.002.006.006.014.003.007.006.012.004.008.005.012.003.008.006.011.003.009.005.011.004.008.005.011.004.009.006.013.003.006.009.019.003.007.006.013.003.007.006.012.003.008.006.012.003.008.005.011.005.009.005.011.004.008.005.011.004.008.006.013.003.007.008.016.004.008.006.014.003.007.006.013.004.007.006.012.004.008.005.011.013.028.006.012.557 1.138c15.337 31.323 53.162 44.284 84.485 28.948l1.118-.547.013-.007.019-.009.008-.004.012-.006.007-.004.012-.005.008-.004.011-.006.008-.004.013-.007.006-.002.018-.009.007-.004.013-.007.007-.003.012-.006.008-.004.011-.006.009-.004.01-.006.009-.004.01-.006.009-.004.01-.005.009-.005.011-.005.008-.005.01-.005.018-.009.009-.005.009-.005.009-.005.011-.005.008-.005.01-.005.009-.004.01-.006.008-.004.01-.006.009-.004.01-.006.007-.003.042-.023.006-.003.012-.006.006-.004.012-.006.007-.004.011-.006.007-.004.012-.006.005-.003.013-.008.004-.002.083-.046h.001l.016-.009.002-.001.016-.009.002-.001.016-.009c.495-.279.973-.588 1.431-.924a3.558 3.558 0 0 0 1.351-3.723 3.56 3.56 0 0 0-5.573-2.015 6.903 6.903 0 0 1-1.065.644l-1.092.535c-27.746 13.584-61.37 2.063-74.954-25.683l-.535-1.092a6.781 6.781 0 0 1-.494-4.691 3.561 3.561 0 0 0-5.019-4.069Z" fill="#216600"/><path d="M137.449 160.922 53.65 132.209l-7.556-2.59a5.047 5.047 0 0 0-5.41 1.434 5.034 5.034 0 0 0 .445 7.109 5.04 5.04 0 0 0 1.7.988l7.556 2.589 83.798 28.713a5.04 5.04 0 0 0 6.398-3.132v-.001a5.037 5.037 0 0 0-3.132-6.397Z" fill="#4DA900"/><path d="M53.717 124.244a3.563 3.563 0 0 0-1.633 4.766l6.265 12.795a3.562 3.562 0 1 0 6.398-3.132l-6.265-12.796a3.563 3.563 0 0 0-4.765-1.633ZM98.236 134.174a3.562 3.562 0 0 0-1.633 4.765L106 158.133a3.562 3.562 0 0 0 6.398-3.133l-9.397-19.193a3.562 3.562 0 0 0-4.766-1.633ZM69.645 124.378a3.562 3.562 0 0 0-1.633 4.765l9.397 19.193a3.562 3.562 0 1 0 6.398-3.132L74.41 126.01a3.562 3.562 0 0 0-4.765-1.632Z" fill="#4DA900"/><path d="m69.512 140.306-19.194 9.397a3.561 3.561 0 1 0 3.132 6.398l19.194-9.398a3.561 3.561 0 1 0-3.132-6.397ZM88.572 146.837l-19.193 9.397a3.562 3.562 0 1 0 3.132 6.398l19.194-9.398a3.561 3.561 0 1 0-3.133-6.397Z" fill="#4DA900"/><path d="M123.627 145.537a7.123 7.123 0 0 0-3.265 9.53l9.397 19.193a7.123 7.123 0 0 0 9.53 3.266 7.123 7.123 0 0 0 3.266-9.53l-9.397-19.194a7.124 7.124 0 0 0-9.531-3.265Z" fill="#216600"/><path d="M114.93 157.153c6.749-7.848-7.324-31.018-31.433-51.75C59.39 84.67 34.373 74.224 27.624 82.073c-6.749 7.847 7.324 31.016 31.433 51.749 24.11 20.733 49.124 31.179 55.873 23.331Z" fill="#F4920B"/><path d="M95.236 111.848c12.367-6.055 14.679-26.717 5.165-46.151-9.515-19.434-27.254-30.28-39.62-24.225-12.368 6.055-14.68 26.717-5.165 46.151 9.514 19.434 27.253 30.28 39.62 24.225Z" fill="#F47B00"/><path d="m126.759 151.935.001-.001c24.734-12.109 34.968-41.977 22.858-66.711l-9.397-19.194c-12.11-24.734-41.978-34.968-66.712-22.858-24.734 12.11-34.968 41.977-22.858 66.711l9.397 19.194c12.11 24.734 41.977 34.968 66.711 22.859Z" fill="#F4AC03"/><path d="m73.51 43.171-.04.02-.017.008-.023.011-.021.01-.017.008-.025.013-.009.004-.263.131a7.123 7.123 0 0 0 6.4 12.728l.026-.012.253-.125a7.123 7.123 0 0 0-6.205-12.825l-.06.029Zm17.092-4.338a7.132 7.132 0 0 0 3.427 13.52l.279-.009c.043-.001.086-.003.128-.006l.151-.001a36.018 36.018 0 0 1 21.121 6.323 7.124 7.124 0 0 0 8.108-11.715 50.077 50.077 0 0 0-30.339-8.828h-.004l-.06.003a7.076 7.076 0 0 0-2.811.713Z" fill="#F4920B"/><path d="M40.027 81.08a3.561 3.561 0 0 0-1.992 2.992 55.172 55.172 0 0 0 1.454 16.232c.018.074.038.146.06.217.013.073.03.147.048.22a55.884 55.884 0 0 0 4.009 10.952l6.795 13.88a3.562 3.562 0 0 0 6.398-3.133l-6.795-13.88-.018-.036-.004-.008-.014-.027-.006-.014-.01-.022-.009-.016-.01-.02-.008-.018-.009-.017-.008-.019-.009-.018-.009-.018-.008-.017-.01-.019-.008-.017-.009-.02-.008-.015-.01-.02-.007-.017-.01-.019-.007-.017-.009-.018-.008-.018-.01-.019-.007-.016-.01-.019-.008-.017-.009-.02-.008-.016-.009-.019-.008-.017-.009-.02-.007-.015-.01-.02-.007-.016-.01-.021-.007-.015-.01-.02-.007-.016-.01-.021-.007-.015-.01-.02-.007-.017-.01-.019-.006-.015-.01-.021-.006-.013-.011-.024v-.001l-.078-.168-.004-.009-.012-.024-.005-.012-.01-.022-.007-.014-.01-.023-.006-.012-.01-.024-.006-.012-.01-.023-.007-.013-.01-.023-.006-.013-.01-.024-.006-.012-.011-.024-.005-.012-.011-.024-.006-.011-.01-.024-.006-.013-.01-.024-.006-.01-.011-.026-.005-.01-.011-.027-.004-.008-.012-.027-.005-.01-.012-.026-.003-.008-.013-.028-.003-.008-.013-.028-.002-.006-.013-.03-.003-.006-.184-.421v-.001l-.015-.034-.001-.002-.014-.033-.002-.003-.014-.032-.001-.004-.013-.03-.003-.006-.013-.032-.002-.003-.014-.033v-.002l-.015-.034v-.001l-.015-.034-.001-.003-.014-.033v-.002l-.016-.034v-.001a48.533 48.533 0 0 1-1.915-5.397l-.002-.006-.008-.027-.003-.011-.007-.025-.003-.012-.007-.024-.004-.013-.006-.021-.005-.017-.005-.019-.006-.019-.005-.017-.006-.021-.004-.015-.006-.023-.004-.014-.007-.023-.004-.015-.006-.023-.004-.013-.007-.023-.004-.015-.006-.024-.004-.012-.007-.026-.003-.012-.008-.027-.002-.009-.009-.029-.002-.008-.01-.034v-.002l-.01-.037a48.175 48.175 0 0 1-.28-1.067 3.723 3.723 0 0 0-.052-.183 3.731 3.731 0 0 0-.04-.191 47.818 47.818 0 0 1-.766-3.837v-.002l-.017-.107v-.004a40.427 40.427 0 0 1-.017-.108v-.001l-.017-.11-.016-.11v-.001l-.016-.109v-.002l-.016-.107v-.004l-.016-.106v-.005l-.015-.105v-.006c-.006-.034-.01-.069-.015-.103l-.001-.007-.014-.103v-.008a34.905 34.905 0 0 1-.014-.101l-.002-.01-.013-.1-.001-.012-.013-.1-.001-.01-.013-.1v-.01a16.913 16.913 0 0 1-.013-.1l-.002-.011a16.389 16.389 0 0 1-.011-.098l-.002-.014-.011-.095-.002-.017-.008-.062v-.003l-.003-.03-.002-.015-.006-.052-.002-.014-.003-.028-.002-.018-.005-.043-.002-.022-.003-.027-.002-.019-.005-.042-.002-.023-.003-.026-.002-.02-.005-.044-.002-.02-.003-.027-.002-.02-.003-.031-.004-.033-.002-.025-.003-.022-.003-.035-.003-.03-.002-.023-.003-.024-.003-.03-.003-.033-.003-.023-.002-.025-.003-.031-.003-.032-.002-.023-.003-.026-.002-.023-.004-.039-.002-.022-.002-.026-.003-.03-.003-.033-.002-.021-.003-.027-.002-.028-.003-.034-.002-.022-.002-.027-.003-.03-.003-.032-.002-.022-.002-.029-.002-.02-.004-.04-.001-.02-.003-.031-.002-.022-.003-.039-.001-.018-.003-.036-.001-.012-.004-.045-.001-.016-.003-.037-.001-.016-.004-.041-.001-.018-.003-.037v-.012l-.004-.044-.001-.016-.003-.039-.001-.014-.004-.043v-.015l-.004-.04v-.01l-.004-.045v-.016l-.003-.038-.002-.016-.002-.041-.001-.015-.003-.046v-.002l-.004-.048v-.014l-.004-.044v-.008l-.003-.046v-.012l-.004-.049v-.002l-.003-.047v-.012l-.004-.05v-.003l-.003-.046v-.012a33.568 33.568 0 0 1-.006-.1v-.01a17.32 17.32 0 0 1-.007-.101v-.009l-.003-.05v-.001l-.002-.05-.001-.01-.002-.05v-.002l-.003-.048v-.01a35.794 35.794 0 0 1-.006-.101v-.01l-.002-.05v-.002l-.003-.05v-.008l-.002-.051-.003-.052v-.007l-.002-.051v-.003l-.002-.05v-.006a35.788 35.788 0 0 1-.005-.104v-.007l-.002-.052v-.001l-.002-.052v-.005l-.002-.053-.002-.052v-.005l-.002-.053v-.002l-.002-.05v-.006l-.003-.106v-.004l-.003-.107v-.003a19.496 19.496 0 0 1-.003-.108v-.002l-.003-.11-.002-.11a80.265 80.265 0 0 1-.004-.22V88.013l-.002-.052v-.112a45.74 45.74 0 0 1-.004-.496v-.223l.001-.108v-.113l.002-.107v-.003l.001-.107v-.004l.002-.107v-.002c0-.037 0-.071.002-.108v-.003c0-.036 0-.07.002-.107v-.004l.002-.105v-.006l.002-.105v-.004l.003-.106v-.005l.003-.105v-.004l.004-.106v-.005l.003-.105v-.005l.004-.104v-.007l.004-.103v-.007l.004-.102v-.009l.005-.103v-.006l.005-.102v-.009l.005-.1v-.01l.005-.1v-.011l.006-.099v-.01l.005-.099.001-.012.005-.097.001-.013.003-.048v-.004l.003-.043v-.009a3.562 3.562 0 0 0-5.12-3.41Z" fill="#F47B00"/><path d="M133.374 53.034c.986-2.877-8.622-8.775-21.459-13.173-12.837-4.399-24.043-5.632-25.029-2.755-.985 2.877 8.622 8.775 21.459 13.173 12.838 4.399 24.043 5.632 25.029 2.755Z" fill="#FFE754"/><path d="M89.038 91.088c14.134-6.92 22.086-19.69 17.761-28.524-4.325-8.833-19.289-10.385-33.422-3.465-14.134 6.92-22.086 19.69-17.76 28.524 4.324 8.834 19.288 10.385 33.421 3.465Z" fill="#F4920B"/><path d="M89.105 83.124c8.833-4.325 13.189-13.56 9.73-20.626-3.46-7.067-13.426-9.29-22.26-4.965-8.833 4.325-13.19 13.56-9.73 20.627 3.46 7.067 13.426 9.29 22.26 4.964Z" fill="#F47B00"/><path d="M76.575 57.533c-8.833 4.325-13.19 13.56-9.73 20.627l.01.02.003.006.007.013.003.007.006.013.004.007.006.012.004.008.006.012.004.008.006.012.004.007.007.014.003.006.009.018.002.005.008.016.004.006.006.013.004.008.007.012.003.007.006.012.005.008.006.012.004.007.006.013.004.006.007.015.003.005.01.019.003.005.007.014.004.007.007.013.004.007.006.011.004.008.006.012.005.008.006.012.004.007.007.013.003.006.008.015.002.004.011.02.002.002.009.017.002.004.008.015.004.005.007.014.004.006.007.013.003.006.008.013.003.007.007.012.004.007.008.015.002.003.011.02.003.004.008.014.004.006.007.013.004.007.007.012.004.007.007.012.004.007.007.012.004.007.008.013.003.005.01.018.012.02.002.004.009.015.003.005.008.013.004.007.007.012.004.007.007.012.005.007.007.011.004.007.008.013.003.006.01.017.001.001.012.019.003.004.008.014.003.006.009.013.003.006.008.012.004.006.007.013.005.006.008.013.003.005.009.015.002.004.024.037.001.002.01.016.003.004.01.014.003.006.008.013.004.006.008.012.004.006.008.013.003.005.01.014.002.004.024.037.003.004.009.014.004.005.008.013.004.006.008.012.004.006.008.012.004.006.009.013.003.005.01.015.002.003.025.036.002.004.01.014.003.005.009.013.004.005.008.013.004.006.009.012.004.005.009.014.003.004.012.017.025.037.003.003.01.014.003.005.01.013.003.005.009.013.004.005.009.013.003.005.01.015.003.002.038.054.002.002.011.015.002.003.01.015.004.004.01.013.003.005.01.013.003.004.011.015.002.002.04.053.001.003.011.015.003.003.01.014.003.004.011.014.002.003.012.015.002.003.054.07v.001l.013.016.002.002.011.015.003.003.011.015.002.002.012.015.002.003.055.07.014.017.014.017.001.001.013.016v.001l.014.016.001.002.056.069h.001l.013.016.002.002.012.015.002.003.012.014.002.002.013.016.001.001.058.068.014.016.002.003.012.014.002.003.013.014.001.002.014.016.06.068.014.016v.002l.014.015.002.001.014.016.075.084.015.016.014.016.001.001.015.016a11.584 11.584 0 0 0 .215.228c.75.773 1.596 1.446 2.517 2.002.091.055.183.11.275.163l.02.01v.002l.019.01.002.001.018.01.001.001.1.056.019.01.002.002.017.01.003.001.018.01h.001c.034.02.066.037.1.055h.001l.018.01.003.002.017.01.003.001.019.01.1.053.004.002.016.008.004.002.016.009.004.002.016.008.004.002.018.01h.002l.04.021h.002l.018.01.004.002.015.008.006.003.014.007.006.003.013.007.007.003.014.007.006.003.016.008.003.002.04.02.006.002.014.007.006.004.013.006.008.004.012.006.009.004.01.005.01.005.01.005.009.004.013.006.007.003.019.01.006.003.013.006.01.005.01.004.01.005.01.005.01.005.01.004.01.005.008.004.012.006.008.003.011.006.01.004.01.005.002.001.032.015.004.002.013.006.007.003.013.006.006.002.013.007.007.003.013.006.006.002.014.007.005.002.015.007h.002l.072.033h.001l.017.008.003.001.016.008h.003l.017.008.002.001.15.065c.457.195.926.369 1.409.52a3.561 3.561 0 1 0 2.138-6.794c-1.177-.37-2.744-1.146-3.522-2.735-1.668-3.408 1.352-8.593 6.465-11.096a14.447 14.447 0 0 1 5.38-1.46c3.423-.208 6.308 1.033 7.349 3.16.135.275.241.565.317.863a3.562 3.562 0 1 0 6.906-1.747 11.565 11.565 0 0 0-.53-1.594l-.006-.017-.001-.001-.007-.017-.02-.05-.002-.002-.005-.013-.003-.007-.006-.012-.002-.006-.006-.013-.001-.004-.02-.044-.002-.006-.006-.012-.003-.007-.005-.012-.003-.007-.005-.012-.003-.006-.01-.024-.003-.006-.005-.01-.004-.01-.004-.01-.004-.008-.005-.01-.004-.01-.004-.01-.007-.016-.004-.008-.006-.013-.004-.008-.005-.01-.004-.01-.005-.01-.004-.009-.006-.012-.003-.007-.008-.019-.003-.006-.006-.013-.004-.008-.006-.011-.003-.008-.006-.012-.003-.007-.008-.015-.001-.004-.01-.02-.002-.005-.007-.014-.003-.006-.006-.013-.004-.007-.006-.013-.003-.006-.01-.02-.008-.018-.003-.005-.007-.015-.002-.004-.01-.018-.001-.004-.007-.015-.003-.005-.009-.018-.002-.003-.007-.015-.003-.005-.01-.018v-.001l-.008-.017-.003-.006-.008-.015-.001-.003-.01-.018-.002-.005-.008-.015-.002-.004-.009-.018-.002-.004-.008-.014-.002-.005-.01-.018v-.001l-.01-.017-.002-.005-.008-.015-.002-.004-.01-.018-.001-.004-.008-.015-.002-.004-.01-.017-.002-.005-.008-.014-.002-.005-.01-.018-.01-.018-.002-.004-.01-.017v-.002l-.01-.017-.003-.005-.008-.015-.002-.003-.01-.018-.001-.003-.01-.016-.001-.004-.01-.018-.01-.018-.003-.004-.01-.016v-.002l-.01-.018-.003-.004-.008-.014-.002-.005-.01-.017-.002-.004-.01-.015-.001-.003-.01-.018-.001-.002-.01-.016-.002-.005-.01-.017-.011-.018-.003-.004-.009-.016-.001-.002-.01-.018-.003-.004-.008-.014-.003-.004-.01-.018-.001-.001-.01-.017-.002-.003-.022-.036-.002-.004-.01-.015v-.003l-.011-.017-.003-.004-.008-.014-.003-.005-.01-.017-.002-.002-.01-.015-.002-.004-.022-.035-.002-.005-.01-.015-.001-.002-.011-.017-.003-.004-.009-.014-.002-.004-.01-.017-.002-.003-.01-.015-.003-.004-.01-.017-.012-.017-.003-.005-.008-.013-.003-.004-.01-.017-.003-.004-.01-.014-.002-.004-.01-.016-.003-.004-.009-.013-.003-.005-.01-.017-.002-.001-.01-.016-.003-.004-.01-.015-.001-.002-.012-.017-.002-.004-.01-.014-.002-.003-.011-.017-.002-.003-.01-.014-.003-.005-.01-.016-.002-.001-.01-.016-.003-.004-.01-.016-.002-.001-.011-.017-.003-.004-.01-.014-.002-.003-.012-.017-.001-.002-.01-.015-.003-.003-.012-.017v-.001l-.011-.016-.004-.004-.01-.015-.001-.002-.012-.016-.002-.004-.01-.014-.003-.003-.012-.017-.001-.002-.01-.015-.003-.003-.012-.017-.013-.017-.002-.003-.025-.034v-.002l-.013-.016v-.001l-.013-.018-.001-.001-.012-.016-.002-.002-.025-.034-.002-.003-.025-.033-.002-.004-.011-.014-.002-.002-.013-.017v-.002l-.013-.015-.001-.002-.026-.034-.001-.002-.027-.034-.001-.002-.012-.016-.001-.001-.013-.017-.002-.001-.012-.016-.001-.002-.026-.033-.002-.003-.027-.033-.001-.002-.013-.016-.014-.017-.001-.002-.013-.016-.014-.018-.014-.017-.001-.001-.027-.033-.002-.002-.013-.016-.014-.017-.001-.002-.013-.015-.001-.002-.014-.016v-.001l-.013-.016-.002-.002-.027-.032-.002-.003-.014-.015-.013-.017-.002-.002-.013-.015v-.001l-.014-.016-.002-.002-.013-.015-.001-.002-.028-.032-.001-.002-.029-.033-.044-.05-.001-.001-.029-.033-.03-.033a11.09 11.09 0 0 0-.045-.05l-.03-.034-.03-.033-.046-.05-.03-.032-.031-.033c-2.069-2.198-4.971-3.602-8.239-4.108l-.048-.007h-.002l-.047-.008h-.002l-.022-.003h-.001l-.024-.004h-.001l-.022-.003h-.002l-.046-.007h-.004l-.02-.004h-.003l-.023-.003h-.004l-.02-.003h-.003l-.022-.004H88.3l-.018-.003h-.007l-.042-.006-.007-.001-.016-.002-.006-.001-.02-.003-.01-.001-.012-.002h-.008l-.02-.003-.008-.001-.014-.002-.009-.001-.016-.002-.01-.001-.015-.002-.008-.001-.015-.002h-.008l-.019-.003-.009-.001-.012-.002h-.01l-.018-.003-.01-.001-.012-.002h-.01l-.015-.002-.013-.002-.011-.001-.012-.002h-.01l-.02-.003h-.008l-.014-.002h-.006l-.044-.006h-.008l-.013-.002h-.005l-.026-.003h-.006l-.014-.002H87.7l-.03-.004h-.001l-.016-.001h-.003l-.05-.005a18.885 18.885 0 0 0-2.942-.049c-.066.004-.13.01-.195.018-.065.001-.13.005-.196.01-1.595.131-3.17.446-4.694.936l-.03.01-.151.05-.03.01h-.002l-.027.009h-.003l-.149.051h-.001l-.028.01-.003.001-.027.01h-.003l-.148.052-.004.002-.025.008-.005.002-.025.009-.004.002-.028.01h-.001l-.09.032h-.002l-.027.01-.004.002-.024.009-.007.002-.023.009-.006.002-.026.01h-.002l-.09.033-.002.002-.026.01-.005.001-.024.01-.006.002-.023.008-.007.003-.025.01h-.003l-.088.034-.004.002-.025.01-.005.002-.024.009-.006.002-.024.01-.005.002-.026.01h-.003l-.06.024h-.001l-.027.011-.006.003-.022.009-.008.003-.021.008-.008.004-.022.008-.007.003-.025.01-.003.002-.059.023-.005.002-.023.01-.008.003-.02.009-.01.003-.02.008-.009.004-.02.008-.008.004-.024.01-.004.002-.058.024-.007.003-.021.008-.01.005-.019.008-.01.004-.019.008-.009.004-.02.008-.009.004-.023.01-.005.002-.029.013-.003.001-.025.01-.01.005-.017.008-.012.005-.017.007-.011.005-.018.008-.01.004-.02.009-.009.003-.024.011-.004.002-.029.013-.003.001-.025.011-.008.004-.02.009-.01.004-.018.008-.011.005-.018.008-.01.005-.02.008-.009.005-.025.01-.002.002-.03.013-.005.003-.023.01-.008.004-.02.009-.01.004-.018.009-.01.005-.018.008-.011.005-.019.008-.01.005-.024.011-.003.002-.028.013-.007.003-.021.01-.01.005-.019.008-.01.005-.018.009-.01.005-.018.008-.011.005-.018.008-.01.005-.056.027-.008.004-.02.01-.01.005-.018.008-.011.005-.018.009-.01.005-.018.009-.01.005-.02.009-.009.004-.028.014Z" fill="#E45E00"/><path d="M131.073 155.599c11.417-10.514 5.308-35.723-13.647-56.307C98.472 78.708 73.85 70.545 62.433 81.058c-11.417 10.514-5.308 35.724 13.647 56.307 18.954 20.584 43.575 28.748 54.993 18.234Z" fill="#FFD432"/><path d="M69.412 84.834c-.79.386-1.52.885-2.168 1.48l-.01.01h-.001l-.01.01-.002.001-.01.009-.01.01-.002.002-.008.007-.002.003-.008.007-.004.003-.007.007-.003.003-.007.007-.003.003-.008.007-.003.003-.007.007-.003.003-.008.007-.002.002-.008.008-.003.002-.008.008-.002.002-.008.008-.002.003-.008.007-.002.003-.009.008-.002.002-.008.008-.002.002-.009.008-.001.002-.01.009-.01.01-.001.001-.01.01c-1.798 1.79-2.862 4.474-3.156 7.791l-.002.018v.003l-.001.017v.001l-.002.018v.001l-.003.037v.002l-.006.076-.018.231-.002.039-.002.018v.019l-.001.005-.001.015v.003l-.001.016v.004l-.002.016v.023l-.002.015V94.912l-.001.006-.001.012v.009l-.001.01v.009l-.001.01v.009l-.001.012v.006l-.002.015v.024l-.002.015v.023l-.002.017v.022l-.002.019-.005.098v.031l-.001.007v.013l-.001.007v.019l-.001.01v.01l-.001.008V95.354l-.001.01v.01l-.001.01V95.401l-.001.011V95.434l-.001.007v.02l-.001.011v.019l-.001.01V95.518l-.001.012v.025l-.001.014v.006l-.001.015V95.613l-.001.017V95.655l-.001.013v.024l-.002.035v.066l-.001.013v.038l-.001.017V95.883l-.001.036V95.977l-.001.004V96.06l-.001.018v.08c-.001.144 0 .289.001.434v.04l.001.04.002.08v.001c.021 1.002.095 2.002.222 2.997v.002l.002.02v.001l.023.173c.02.152.04.304.063.457v.001l.003.021v.001l.003.019v.005l.004.018v.003l.003.018v.005l.003.018v.003l.003.018v.005l.004.019v.002l.003.018v.006l.003.017.001.006.002.015.002.007.002.017v.002l.003.02.001.003.006.041v.001l.014.088.001.006.005.031.001.007.003.021v.001l.003.014.001.009.004.02v.001l.002.017.002.007.002.014.001.008.002.013.002.01.002.014.002.008.002.013.001.011.002.012.002.01.002.012.002.011.002.012.001.009.003.013.001.011.002.011.002.013.002.008.002.016.002.006.002.016.001.008.003.014.002.009.002.013.001.01.003.013.001.01.002.012.002.011.002.012.002.01.002.013.002.01.003.014v.009l.003.012.002.01.002.014.002.009.003.016v.007l.003.013.002.01.001.006.004.022.015.086.001.004.003.019.001.005.004.019v.004l.004.018.001.006.003.017.001.007.003.016.001.006.003.018.002.005.003.017.001.007.003.016.001.008.003.015.001.006.004.018v.005l.004.017.001.007.003.015.002.009.003.016v.005l.004.019.001.004.004.02v.003l.004.02v.004l.005.021v.001l.004.022v.001l.005.021v.003l.004.021v.002c.131.676.284 1.362.458 2.061a3.56 3.56 0 0 0 4.32 2.588 3.564 3.564 0 0 0 2.59-4.32c-1.561-6.256-.652-9.892.327-10.798.143-.13.303-.239.477-.323a3.561 3.561 0 0 0-3.133-6.398Z" fill="#FFEF7D"/><path d="M66.28 78.436a16.108 16.108 0 0 0-3.873 2.646l-.015.015-.004.003-.012.011-.004.004-.013.012-.003.002a15.888 15.888 0 0 0-1.602 1.735 3.562 3.562 0 0 0 5.582 4.426c.278-.349.581-.676.908-.979a9.041 9.041 0 0 1 2.168-1.477h.001c8.464-4.144 26.763 1.92 42.734 19.241a77.757 77.757 0 0 1 12.043 17.007 3.557 3.557 0 0 0 4.731 1.569l.066-.033a3.561 3.561 0 0 0 1.543-4.783 78.052 78.052 0 0 0-3.858-6.651l-.005-.007-.016-.026-.005-.007-.017-.026-.003-.005-.078-.12-.003-.004-.016-.025-.006-.009-.015-.023-.007-.011-.015-.023-.006-.009-.016-.025-.002-.002-.079-.121-.004-.007-.016-.024-.007-.011-.014-.021-.008-.013-.015-.022-.005-.008-.056-.084-.003-.005-.016-.024-.006-.01-.015-.023-.008-.011-.014-.022-.008-.012-.014-.02-.01-.016-.012-.018-.012-.018-.026-.039-.005-.008-.014-.02-.01-.016-.012-.017-.011-.017-.011-.016-.012-.019-.011-.017-.011-.016-.012-.018-.012-.018-.02-.029-.012-.019-.013-.019-.01-.015-.012-.018-.011-.017-.012-.017-.011-.017-.011-.017-.013-.018-.011-.017-.012-.017-.011-.016-.014-.021-.019-.029-.012-.017-.011-.017-.012-.017-.011-.016-.012-.019-.011-.017-.012-.016-.012-.018-.012-.018-.011-.016-.022-.033-.003-.004-.02-.031-.009-.012-.014-.021-.011-.016-.013-.019-.01-.015-.014-.02-.01-.014-.014-.021-.009-.014-.018-.027-.005-.007-.024-.035-.005-.006-.018-.027-.009-.013-.015-.023-.009-.012-.015-.022-.008-.012-.017-.025-.007-.01-.02-.029-.004-.005-.024-.035-.003-.005-.021-.031-.005-.007-.019-.027-.007-.01-.017-.026-.007-.009-.019-.027-.005-.008-.02-.028-.005-.008-.048-.069-.006-.009-.018-.026-.007-.011-.016-.023-.009-.013-.016-.022-.008-.012-.018-.026-.006-.008-.023-.033-.001-.002-.025-.035-.005-.008-.019-.027-.007-.009-.018-.026-.007-.01-.017-.025-.007-.01-.018-.025-.007-.011-.073-.104-.006-.008-.018-.026-.008-.011-.018-.025-.007-.01-.017-.025-.007-.01-.021-.029-.004-.005-.05-.071-.002-.004-.023-.031-.004-.007-.021-.028-.005-.007-.02-.029-.005-.007-.023-.033-.001-.001a7.043 7.043 0 0 1-.076-.107l-.005-.007-.021-.029-.005-.007-.021-.029-.004-.005-.024-.034-.001-.001-.077-.108-.002-.003-.023-.032-.004-.005-.022-.031-.004-.005-.024-.034-.001-.001-.078-.108-.002-.003-.024-.032-.003-.005-.022-.03-.004-.006-.024-.033-.001-.002-.104-.143-.003-.004-.023-.031-.004-.006-.024-.033-.001-.001-.106-.145-.026-.035-.002-.003-.024-.032-.003-.005-.024-.033-.002-.001-.079-.109-.001-.001-.025-.033-.004-.005-.022-.031-.004-.005-.023-.031-.003-.004-.106-.143-.003-.004-.023-.031-.004-.005-.022-.03-.005-.006-.024-.033-.001-.002a4.25 4.25 0 0 1-.08-.107l-.004-.004-.022-.03-.005-.007-.022-.029-.005-.006-.023-.032-.003-.003-.081-.107-.001-.001-.025-.034-.003-.004-.022-.03-.006-.008-.022-.028-.004-.006-.108-.142-.002-.002-.024-.033-.005-.005-.023-.032-.003-.003-.024-.032-.003-.004-.054-.07-.003-.004-.024-.032-.003-.004-.024-.03-.005-.007-.022-.029-.005-.006-.023-.031-.003-.004a3.401 3.401 0 0 0-.055-.071l-.002-.003-.024-.031-.007-.009-.019-.026-.007-.009-.022-.028-.004-.005-.023-.03-.005-.006-.082-.106-.001-.002-.024-.031-.007-.008-.022-.029-.004-.005-.025-.032-.001-.002-.084-.108-.027-.034-.004-.006-.023-.029-.005-.007-.021-.026-.008-.01-.023-.03-.002-.003-.082-.104-.007-.009-.022-.028-.005-.006-.021-.028-.007-.008-.023-.029-.004-.005-.083-.105-.003-.005-.024-.03-.005-.006-.022-.028-.007-.009-.021-.027-.006-.007-.023-.029-.005-.006-.054-.068-.008-.011-.02-.024-.008-.01-.018-.024-.01-.011-.019-.024-.008-.01-.02-.025-.007-.01-.083-.103-.006-.008-.02-.025-.01-.012-.018-.023-.009-.011-.018-.022-.01-.013-.02-.025-.007-.008-.027-.033-.006-.009-.022-.027-.007-.008-.019-.024-.011-.014-.016-.02-.012-.015-.014-.017-.014-.017-.016-.02-.01-.013-.025-.03-.008-.01-.022-.027-.007-.008-.021-.026-.008-.011-.019-.023-.009-.011-.019-.023-.01-.012-.018-.023-.009-.011-.02-.024-.011-.014-.024-.029-.008-.01-.02-.024-.008-.01-.021-.026-.007-.009-.02-.024-.009-.011-.02-.025-.008-.009-.027-.033-.029-.036-.002-.002-.025-.03-.01-.012-.019-.023-.007-.01-.022-.025-.007-.01-.021-.025-.007-.009-.022-.026-.007-.008-.055-.068-.009-.01-.02-.024-.009-.011-.018-.022-.011-.013-.018-.022-.01-.012-.019-.023-.009-.011-.024-.029-.004-.004-.028-.034-.008-.01-.02-.024-.009-.011-.019-.022-.011-.013-.018-.022-.009-.011-.018-.021-.012-.015-.017-.021-.01-.011-.028-.033-.007-.009-.022-.026-.008-.01-.019-.022-.012-.014-.016-.02-.012-.014-.016-.019-.012-.014-.018-.022-.011-.012-.019-.024-.02-.023-.015-.018-.013-.015-.016-.019-.013-.016-.015-.017-.013-.015-.016-.02-.012-.014-.02-.024-.007-.008-.026-.03-.006-.008-.025-.029-.013-.015-.014-.017-.015-.018-.014-.016-.014-.016-.014-.017-.014-.016-.016-.019-.012-.015-.019-.021-.009-.012-.028-.032-.012-.013-.016-.02-.015-.017-.013-.015-.015-.017-.013-.016-.016-.018-.013-.016-.014-.016-.017-.02-.012-.014-.028-.032-.007-.009-.02-.023-.014-.016-.015-.018-.015-.017-.012-.014-.016-.019-.013-.014-.016-.02-.009-.009a3.615 3.615 0 0 0-.059-.069l-.015-.018-.014-.016-.015-.017-.015-.017-.013-.015-.016-.018-.014-.016-.013-.016-.016-.018-.014-.016-.015-.018-.014-.016-.026-.03-.012-.013-.018-.021-.011-.013-.017-.019-.014-.016-.015-.017-.014-.017-.014-.015-.015-.018-.014-.016-.06-.068-.01-.012-.017-.018-.012-.015-.017-.019-.011-.013-.018-.02-.01-.012-.019-.021-.009-.011-.019-.02-.011-.014-.033-.036-.012-.014-.015-.017-.014-.016-.013-.015-.017-.019-.014-.015-.013-.016-.017-.018-.013-.015-.015-.017-.019-.021-.013-.015-.025-.028-.014-.017-.015-.016-.016-.018-.013-.014-.015-.018-.014-.016-.016-.018-.012-.013-.017-.019-.01-.011-.066-.074-.009-.01-.018-.02-.012-.013-.016-.018-.014-.016-.014-.016-.017-.019-.012-.014-.017-.018-.013-.015-.023-.025-.019-.021-.015-.017-.017-.019-.013-.014-.015-.017-.015-.016-.015-.017-.015-.016-.014-.016-.016-.017-.014-.017-.015-.016-.023-.025-.02-.022-.011-.013-.019-.02-.013-.015-.015-.017-.016-.017-.015-.017-.014-.015-.019-.02-.01-.012-.023-.025-.007-.008-.029-.032-.012-.013-.019-.02-.011-.013-.019-.021-.012-.013-.018-.02-.012-.013-.018-.02-.013-.014-.021-.023-.008-.008-.03-.033-.007-.007-.024-.027-.009-.01-.02-.022-.012-.013-.019-.021-.012-.012-.018-.02-.012-.014-.02-.02-.011-.013-.03-.032a46.446 46.446 0 0 0-.366-.394l-.013-.015c-16.973-18.186-38.333-26.46-50.717-20.404l-.006.003Z" fill="#F4AC03"/><path d="M52.334 100.771a3.567 3.567 0 0 0-1.928 3.874c1.365 7.075 4.406 14.697 8.795 22.042.036.062.075.122.114.18.033.062.068.124.105.185a93.814 93.814 0 0 0 9.047 12.469 3.562 3.562 0 0 0 5.41-4.635 86.573 86.573 0 0 1-8.36-11.517 3.401 3.401 0 0 0-.105-.164 3.613 3.613 0 0 0-.095-.169 78.743 78.743 0 0 1-.695-1.188l-.023-.039v-.001a10.565 10.565 0 0 1-.068-.118v-.001l-.021-.037-.003-.003-.02-.037-.001-.001-.045-.079v-.001l-.022-.037-.001-.003-.02-.036-.002-.003-.044-.078-.001-.001-.02-.036-.003-.006-.02-.033-.002-.005-.043-.076-.003-.006-.017-.031-.005-.008-.016-.029-.006-.01-.019-.034-.001-.002-.02-.037-.005-.009-.016-.028-.007-.011-.013-.025-.008-.013-.017-.031-.002-.005-.02-.036-.007-.011-.013-.024-.009-.016-.011-.02-.01-.017-.012-.022-.007-.013-.019-.034-.008-.015-.012-.022-.009-.016-.01-.019-.01-.017-.01-.02-.01-.016-.017-.032-.012-.022-.008-.014-.011-.02-.008-.015-.012-.022-.006-.012-.013-.022-.008-.016-.019-.034-.01-.018-.01-.019-.008-.015-.012-.021-.008-.015-.011-.021-.002-.003-.028-.052-.006-.011-.013-.023-.006-.011-.013-.024-.005-.01-.013-.025-.002-.003-.029-.053-.005-.009-.013-.025-.005-.009-.013-.025-.005-.009-.045-.084-.004-.006-.013-.025-.005-.01-.014-.025-.003-.007-.047-.088-.002-.003-.014-.026-.004-.009-.014-.025-.004-.008-.063-.119-.003-.005-.015-.028-.002-.004-.065-.123-.001-.003-.015-.028-.003-.006-.164-.314a70.842 70.842 0 0 1-1.573-3.224l-.001-.002a93.133 93.133 0 0 1-.213-.471v-.001l-.014-.03-.001-.003-.054-.121-.002-.006-.054-.121-.001-.002-.013-.029-.002-.004-.012-.029-.002-.003-.053-.122-.001-.003-.013-.03v-.001a65.574 65.574 0 0 1-.055-.123v-.003l-.013-.029-.002-.003-.052-.12-.002-.005-.012-.029-.002-.003-.05-.119-.004-.007-.01-.025-.005-.009-.01-.026-.039-.09-.003-.007-.011-.026-.002-.006-.012-.028-.002-.003a7.425 7.425 0 0 0-.036-.086l-.003-.007-.01-.025-.005-.01-.01-.025-.003-.005-.035-.083-.004-.01-.01-.024-.003-.009-.01-.025-.004-.008-.023-.055v-.001l-.01-.022-.005-.012-.01-.023-.004-.011-.01-.024-.004-.01a5.137 5.137 0 0 1-.033-.079l-.004-.009-.009-.023-.005-.012-.009-.022-.006-.014-.008-.021-.005-.011-.016-.039-.006-.015-.008-.02-.007-.016-.008-.019-.007-.018-.007-.016-.01-.026-.009-.022-.008-.021-.008-.017-.006-.017-.008-.019-.007-.016-.007-.019-.008-.02-.012-.029-.007-.018-.008-.018-.007-.017-.007-.019-.007-.017-.007-.017-.009-.022-.01-.025-.008-.021-.008-.018-.006-.016-.008-.02-.006-.016-.008-.019-.007-.018-.01-.024-.01-.025-.005-.015-.009-.021-.006-.016-.008-.019-.006-.016-.01-.025-.005-.014-.012-.03-.006-.015-.008-.019-.007-.018-.007-.018-.006-.017-.01-.026-.004-.008-.013-.035-.005-.012-.01-.023-.005-.015-.008-.021-.006-.014-.01-.027-.004-.008-.013-.036-.004-.01-.01-.025-.005-.013-.01-.025-.004-.01-.011-.03-.003-.006-.013-.036-.004-.008-.01-.028-.004-.011-.01-.027-.004-.009-.013-.032v-.004l-.015-.038-.014-.034-.004-.011-.01-.026-.004-.01-.011-.032-.002-.003-.014-.038v-.001l-.014-.035-.003-.008-.011-.03-.003-.006-.012-.034-.001-.003-.028-.074-.003-.008-.011-.029-.003-.008-.012-.032-.001-.004-.029-.075v-.002l-.014-.036v-.003l-.014-.036v-.002l-.029-.076v-.002l-.014-.035-.001-.004-.055-.151-.001-.002-.014-.038-.028-.077-.014-.038v-.001a87.072 87.072 0 0 1-.178-.498v-.002a51.316 51.316 0 0 1-1.999-7.284 3.557 3.557 0 0 0-1.912-2.507 3.571 3.571 0 0 0-3.152-.01Z" fill="#F4920B"/><path d="M159.335 101.638c-2.239-28.674-18.46-50.794-36.23-49.406-17.77 1.387-30.361 25.757-28.122 54.43 2.238 28.674 18.459 50.794 36.229 49.407 17.77-1.388 30.361-25.757 28.123-54.431Z" fill="#FFD432"/><path d="m118.665 60.72-.025.013-.009.004-.014.007-.013.007-.01.005-.016.007-.003.002a15.07 15.07 0 0 0-.259.132l-.002.001-.253.135a7.034 7.034 0 0 0-2.789 9.412 7.212 7.212 0 0 0 9.648 3.076l.009-.005.028-.014.011-.003a7.026 7.026 0 0 0 1.184-.451 6.419 6.419 0 0 0 3.172-8.153 7.904 7.904 0 0 0-8.629-4.902 6.876 6.876 0 0 0-.191.088 7.043 7.043 0 0 0-1.839.64Zm-10.798 17.085a7.103 7.103 0 0 0-3.74 4.514c-1.677 6.113-2.548 13.253-2.199 21.171l.01.186.006.167.003.058.001.024.001.013.004.09.001.01.001.028.014.261a7.123 7.123 0 0 0 14.224-.82l-.017-.319-.009-.155-.006-.17c-.266-6.036.308-11.68 1.706-16.775a7.125 7.125 0 0 0-10-8.283Z" fill="#FFEF7D"/><path d="M123.757 52.54a3.519 3.519 0 0 0-1.971 3.03 3.603 3.603 0 0 0 3.415 3.735l.256.013.116.004c.047.005.093.01.14.013 11.866.926 25.412 19.277 26.663 45.122a72.009 72.009 0 0 1-1.166 17.203 3.56 3.56 0 0 0 5.477 3.639 3.559 3.559 0 0 0 1.512-2.264c.23-1.182.433-2.385.608-3.609l.002-.012.008-.054.002-.014.007-.051.004-.028.006-.047.004-.027.006-.043.004-.026.006-.041.004-.036.005-.031.006-.043.003-.024.006-.046.004-.028.006-.045.004-.028.006-.047.003-.02.007-.051.002-.018.007-.053.003-.02.007-.054.002-.019.007-.053.002-.015.007-.056.002-.014.008-.06.001-.011.008-.062.001-.011.008-.061.001-.009.008-.063.001-.007.009-.068v-.002l.008-.068.001-.006.008-.067.001-.003.025-.214v-.001a81.15 81.15 0 0 0 .489-12.776 31.028 31.028 0 0 1-.013-.311v-.002l-.004-.075v-.003l-.007-.154v-.002l-.003-.074v-.006l-.004-.072v-.005l-.004-.076-.003-.067-.001-.016-.001-.029-.001-.011-.001-.025-.001-.017-.001-.027-.001-.014-.001-.024-.001-.018-.001-.023-.001-.018-.001-.021-.001-.021-.001-.022-.001-.019-.002-.022-.001-.019-.001-.023-.001-.019-.001-.021-.001-.02-.001-.022-.001-.02-.001-.019-.002-.022-.001-.021-.001-.02-.001-.021-.001-.02-.001-.022-.002-.02-.001-.02-.001-.02-.001-.024-.001-.017-.002-.022-.001-.02-.001-.023-.001-.017-.001-.023-.001-.019-.002-.023-.001-.018-.001-.022-.001-.02-.002-.022-.001-.017-.001-.024-.001-.018-.002-.023-.001-.022-.001-.018-.002-.023-.001-.02-.001-.019-.001-.021-.002-.021-.001-.021-.001-.019-.002-.021v-.012l-.005-.07-.004-.068-.001-.014-.002-.029-.001-.012-.001-.025-.002-.017-.001-.024-.001-.016-.002-.024-.001-.018-.002-.028-.001-.011-.002-.028-.001-.014-.001-.026-.001-.015-.002-.025-.001-.016-.002-.026-.001-.014-.002-.026-.001-.016-.002-.025-.001-.015-.002-.025-.001-.018-.002-.025-.001-.012-.002-.029-.001-.013-.002-.028-.001-.012-.002-.029-.001-.012-.002-.03v-.009l-.003-.031v-.011l-.003-.03v-.01l-.003-.03-.001-.012-.002-.03v-.007l-.003-.033-.001-.008-.002-.034v-.004l-.003-.036-.001-.006a74.947 74.947 0 0 0-.037-.472l-.001-.008-.003-.033v-.006l-.003-.036-.001-.004-.003-.037v-.004l-.003-.031-.001-.011-.002-.031-.001-.009-.003-.031v-.01l-.003-.031-.001-.009-.003-.029-.001-.013-.002-.031-.001-.006-.003-.035v-.005l-.004-.037v-.002l-.003-.035-.001-.009-.003-.033v-.006l-.003-.034-.001-.006-.003-.035v-.004l-.003-.035-.001-.008a65.253 65.253 0 0 0-.06-.633v-.002a8.556 8.556 0 0 0-.016-.159l-.004-.04c0-.001 0 .001 0 0l-.004-.038v-.003l-.004-.038v-.002l-.003-.035-.001-.007-.004-.034v-.005l-.004-.036v-.003l-.004-.038v-.001l-.004-.038v-.003l-.008-.076-.001-.005-.004-.036v-.001l-.004-.038v-.006l-.004-.035v-.001l-.004-.04c-.031-.29-.064-.58-.098-.87v-.004l-.01-.078-.009-.079-.019-.157v-.003a86.858 86.858 0 0 0-.115-.904l-.005-.037v-.005l-.011-.076v-.001l-.005-.039-.005-.037v-.004l-.021-.154-.001-.003-.01-.077c-.04-.287-.081-.572-.123-.858v-.003l-.012-.077-.006-.038v-.002l-.005-.035-.001-.005-.005-.035-.001-.004-.005-.035v-.003l-.006-.037v-.002l-.006-.035-.001-.006-.005-.034v-.004l-.006-.035v-.003l-.012-.076v-.001c-.04-.26-.081-.516-.123-.773v-.003l-.007-.037v-.001l-.006-.037v-.002l-.012-.074-.001-.004-.006-.036v-.002l-.006-.036-.001-.004-.006-.034-.001-.005-.005-.034-.001-.005-.006-.033-.001-.006-.005-.034-.001-.004-.006-.036-.006-.037-.001-.005-.006-.034-.001-.003-.006-.036v-.001l-.013-.076v-.001a60.711 60.711 0 0 0-.108-.613v-.002l-.007-.038-.007-.036v-.003l-.006-.035-.001-.004-.006-.034-.001-.005-.007-.035v-.002l-.006-.036-.001-.003-.006-.035-.001-.004-.006-.034-.001-.004-.007-.036-.007-.038v-.001l-.007-.037v-.002l-.007-.036v-.003l-.007-.036-.007-.038-.001-.002-.006-.037-.007-.038-.001-.001a59.286 59.286 0 0 0-.116-.608v-.001l-.015-.074v-.002l-.007-.035-.001-.004-.006-.032-.002-.007-.006-.033-.001-.005-.007-.032-.001-.006-.006-.033-.001-.005-.007-.033-.001-.005-.007-.034v-.003l-.007-.035-.001-.003-.007-.035v-.002l-.007-.035-.002-.006-.006-.032-.001-.005-.007-.034-.001-.004-.006-.033-.002-.006-.006-.031-.002-.009-.006-.03v-.003l-.117-.563-.001-.002-.008-.037-.015-.075-.001-.001-.007-.033-.001-.006-.007-.032-.001-.006-.007-.032-.001-.006-.007-.03-.002-.01-.006-.026-.002-.012-.006-.029-.002-.007-.006-.03-.002-.007-.007-.032-.001-.005-.007-.032-.002-.008-.006-.03-.002-.008-.006-.028-.002-.01-.006-.029-.003-.01-.005-.027-.003-.011-.006-.028-.002-.008-.006-.03-.002-.005-.015-.07v-.002l-.092-.409-.001-.001-.007-.031-.001-.008-.007-.03-.002-.007-.007-.032-.001-.005-.008-.033-.001-.004-.007-.031-.002-.008-.007-.031-.001-.005-.007-.032-.002-.006-.007-.032-.001-.005-.007-.031-.002-.008-.007-.03-.002-.007-.007-.03-.002-.008-.007-.03-.001-.006-.007-.03-.002-.01-.007-.027-.002-.01-.007-.028-.002-.01-.007-.028-.002-.009-.006-.027-.003-.013-.006-.025-.003-.01-.006-.028-.002-.008-.007-.03-.002-.007-.007-.03-.001-.003a32.86 32.86 0 0 0-.105-.438l-.001-.005-.007-.03-.003-.008-.007-.03-.001-.006-.008-.03-.002-.008-.007-.029-.002-.008-.007-.028-.002-.01-.007-.026-.003-.012-.005-.024-.004-.014-.006-.023-.003-.014-.006-.025-.003-.01-.007-.029-.002-.008-.007-.029-.002-.008-.007-.028-.002-.01-.008-.027-.002-.01-.007-.026-.003-.013-.006-.024-.003-.014-.006-.023-.004-.013-.006-.025-.002-.01-.007-.027-.003-.013-.006-.023-.004-.015-.006-.022-.003-.014-.006-.025-.002-.008-.008-.028-.002-.009-.007-.029-.002-.005-.008-.032-.001-.004-.055-.212-.001-.004-.008-.033-.001-.004-.008-.029-.002-.008-.007-.028-.002-.009-.007-.026-.003-.011-.007-.026-.003-.01-.007-.027-.003-.01-.007-.028-.002-.009-.007-.027-.003-.01-.006-.025-.004-.013-.006-.023-.004-.015-.006-.021-.004-.016-.005-.02-.005-.017-.005-.021-.004-.016-.006-.02-.004-.017-.006-.02-.004-.016-.006-.022-.004-.016-.005-.02-.005-.017-.005-.02-.005-.017-.005-.02-.004-.015-.006-.022-.004-.016-.006-.02-.004-.016-.006-.022-.004-.014-.006-.023-.003-.012-.007-.025-.003-.009-.007-.028-.003-.008-.007-.029-.002-.007-.008-.03-.001-.001-.058-.213-.001-.003-.008-.028-.003-.009-.007-.026-.003-.01-.007-.027-.003-.01-.007-.027-.003-.01-.007-.025-.003-.011-.007-.025-.004-.012-.006-.023-.004-.014-.006-.022-.004-.015-.006-.02-.005-.017-.005-.02-.005-.016-.006-.021-.004-.015-.006-.022-.004-.015-.006-.02-.005-.018-.005-.018-.006-.019-.005-.017-.005-.019-.005-.018-.006-.02-.004-.016-.006-.02-.005-.016-.006-.02-.004-.017-.006-.018-.005-.02-.005-.017-.005-.018-.006-.02-.005-.017-.005-.02-.005-.016-.006-.02-.005-.017-.006-.02-.004-.016-.006-.02-.005-.017-.005-.017-.006-.02-.005-.018-.005-.018-.021-.072-.005-.016-.006-.02-.007-.024-.004-.012-.005-.018-.006-.02-.004-.013-.006-.022-.005-.015-.006-.023-.004-.012-.007-.023-.004-.015-.007-.022-.004-.014-.006-.022-.005-.015-.006-.022-.004-.014-.007-.022-.004-.014-.007-.023-.004-.013-.007-.023-.004-.013-.007-.024-.003-.012-.008-.024-.003-.012-.008-.025-.003-.011-.008-.025-.003-.011-.008-.026-.003-.011-.007-.024-.004-.013-.008-.024-.003-.012-.007-.023-.004-.013-.007-.024-.004-.013-.007-.022-.004-.014-.008-.023-.003-.013-.007-.022-.005-.014-.006-.023-.005-.013-.006-.023-.005-.013-.008-.027-.002-.009-.009-.028-.003-.008-.009-.03-.002-.006-.009-.031-.002-.006-.022-.072-.002-.006-.01-.03-.003-.01-.008-.026-.004-.013-.007-.023-.004-.013-.007-.022-.005-.015-.006-.022-.005-.014-.007-.021-.004-.015-.007-.022-.004-.012-.007-.023-.005-.015-.007-.022-.004-.012-.007-.023-.005-.015-.006-.02-.005-.015-.007-.022-.004-.014-.007-.022-.004-.013-.008-.023-.004-.013-.007-.023-.004-.013-.008-.023-.004-.013-.007-.024-.004-.01-.008-.025-.003-.012-.008-.025-.004-.01-.008-.026-.003-.01-.009-.026-.003-.01-.008-.025-.004-.011-.008-.025-.003-.01-.009-.028-.002-.008-.01-.03-.002-.005-.009-.03-.003-.007-.093-.286-.001-.003a1.882 1.882 0 0 1-.023-.07h-.001l-.023-.07-.001-.005-.011-.03-.001-.005-.011-.031-.001-.006-.011-.03-.001-.004-.01-.031-.003-.007-.009-.03-.002-.005-.01-.03-.002-.005-.01-.03-.002-.006-.01-.03-.002-.006-.011-.031-.001-.003-.01-.032-.002-.004-.011-.033-.001-.002-.01-.03-.002-.008-.011-.03-.001-.004-.011-.033-.001-.002-.011-.034-.001-.002-.011-.032-.001-.004-.049-.141a57.78 57.78 0 0 0-.148-.427 4.401 4.401 0 0 0-.037-.105l-.001-.002-.011-.033-.002-.004-.011-.032-.012-.035-.001-.002-.012-.033-.001-.003-.011-.031-.002-.005-.024-.068-.012-.034-.001-.003-.011-.03-.002-.006-.011-.032-.001-.002-.012-.034-.025-.07h-.001c-5.872-16.31-16.689-27.717-28.712-28.643a3.576 3.576 0 0 0-.155-.008 3.746 3.746 0 0 0-.137-.012l-.077-.005h-.004a13.31 13.31 0 0 0-.119-.007l-.017-.001h-.003l-.339-.015a3.514 3.514 0 0 0-1.641.357Z" fill="#F4AC03"/><path d="M115.972 34.93a3.564 3.564 0 0 0-1.333 5.267c.402.563.959.997 1.603 1.248a95.755 95.755 0 0 1 4.643 1.954h.001l.25.114h.001l.06.028h.003c.04.02.08.038.12.056l.01.005.022.01.005.002.025.012.006.002.025.012.005.002.025.012.006.002.06.028.002.001.027.013.009.004.019.009.013.006.018.008.009.004.021.01.01.005.019.009.01.004.016.008.016.007.054.026.017.007.012.006.019.009.009.004.017.008.014.006.015.007.012.006.017.008.01.005.019.009.006.002.068.032.009.005.019.009.009.004.017.008.011.005.019.01.009.003.018.009.01.005.02.01h.003l.024.012h.002l.102.05.005.001c5.672 2.697 9.699 5.444 10.846 7.482h.001l.005.01.036.066.005.01h.001l.033.066.005.009v.001l.004.008.005.01.027.056.004.009v.001l.004.008.001.002.004.008.02.046.004.009v.001l.004.008v.002l.004.007v.002l.004.008.014.036h.001l.002.008.001.002.003.007.001.003.003.007.001.002.002.007.001.003.003.007.01.027.003.008v.002l.003.007.001.002.002.007.001.003.002.006.001.003.003.007v.002l.003.007v.002c.123.32.134.674.032 1.003-.148.328-.402.599-.72.769a27.581 27.581 0 0 1 6.379 3.635 35.775 35.775 0 0 1 4.267 3.804c.045.048.092.093.139.138.041.048.084.096.128.143.4.424.795.862 1.185 1.312l.136.158.001.001.067.079.002.001.065.077.004.005.063.075.006.006.062.074.007.008.061.072.007.01.039.046.002.003.019.023.009.01.034.041.006.008.019.022.009.01.031.039.01.011.017.021.01.012.031.038.009.011.018.021.01.013.03.036.01.013.017.02.012.015.027.033.012.015.016.02.012.015.027.032.013.016.015.02.014.016.025.031.013.017.015.019.015.018.024.03.013.016.016.02.015.019.023.028.013.017.015.019.017.021.021.026.015.019.014.018.021.027.017.02.014.019.015.018.023.03.015.018.014.019.014.017.025.031.012.017.017.02.012.016.025.032.013.016.017.023.011.014.026.033.012.015.018.023.01.014.026.033.012.016.018.023.011.014.025.033.012.015.02.026.008.011.026.034.011.014.021.028.008.01.026.035.011.014.021.027.009.011.025.034.011.015.021.027.01.013.024.033.01.013.025.032.006.009.025.033.01.012.027.036.004.006.025.033.009.012.028.037.003.006.025.032.009.013.027.036.006.008.023.032.009.011.027.037.007.009.022.03.009.012.027.037.007.01.022.03.009.012.027.037.008.01.021.029.009.012.027.037.007.01.023.031.007.01.027.038.008.01.022.031.008.01.027.038.007.01.023.032.007.01.028.038.006.01.024.032.006.009.028.038.007.01.024.034.005.007.028.04.007.009.025.036.004.005.028.04.007.01.025.035.004.005.028.04.007.01.026.036.002.004.029.04.006.01.058.082.005.008.059.084.004.007.059.084.005.007.029.042.002.003.027.039.005.008.029.042.002.002.027.04.005.008.029.042.002.003.027.039.005.008.028.041.005.006.025.037.005.008.028.042.004.006.026.038.004.006.029.042.004.006.026.039.004.006.029.043.003.005.026.04.004.005.029.043.004.005.027.04.002.005.029.043.004.006.028.042.001.002.029.044.004.005.028.043.001.001.029.045.004.005.058.088.004.007.057.087.006.008.055.086.006.009.056.086.005.009.057.087.004.006.057.089.004.007.057.09.004.005.057.09.004.005.057.092.003.004.029.046.001.001.028.044.003.006.029.046.029.046.002.004.029.046.002.002.027.044.003.005.028.045.003.004.027.044.002.003.028.046.003.005.026.042.003.004.028.046.003.006.027.042.002.003.028.046.003.005.027.045.001.002.028.046.004.006.028.045.028.046.004.007.055.092.004.005.055.092.004.008.055.091.004.007.056.092.003.006.056.093.003.006.028.047.027.047.004.005.027.047.001.001.027.046.003.006.028.047.001.001.025.044.005.008.026.045.004.007.024.04.004.008.027.046.003.005.024.043.004.006.026.045.005.008.023.04.004.007.027.046.003.006.024.042.004.007.026.045.004.008.025.043.002.003.027.048.003.006.054.094.004.008.025.044.002.002.026.047.005.009.025.044.001.002.026.046.005.01.025.044.001.002.026.045.006.01.051.092.006.011.05.091.006.011.025.046h.001l.024.044.007.013.025.044.002.005.023.04.007.014.024.044.002.005.023.04.007.013.024.045.004.007.021.039.007.012.024.044.005.01.02.036.007.013.023.044.006.01.02.037.006.013.024.044.006.01.019.037.007.012.023.044.007.011.019.036.006.013.023.043.008.014.018.034.007.013.023.043.006.013.02.037.005.01.024.045.006.011.02.038.006.011.023.044.007.013.019.037.006.01a.93.93 0 0 0 .023.045l.006.013.02.037.005.01.023.044.007.014.019.037.006.011.022.043.008.015.02.039.004.007.023.046.006.011.023.045.002.004.023.045.007.013.022.043.005.01.02.038.007.015.021.042.007.013.019.036.007.016.022.043.006.012.018.035.008.015.022.043.007.015.016.033.009.016.021.043.008.015.015.032.009.017.021.042.008.016.016.032.008.016.021.043.008.016.016.032.008.016.021.043.008.016.016.032.008.016.021.043.008.017.016.032.037.075.016.033.007.015.021.043.009.018.015.03.008.017.02.041.01.02.014.03.008.017.02.042.01.02.014.029.01.022.018.036.01.02.015.032.01.021.017.035.01.022.015.03.01.023.016.034.01.02.015.032.012.026.015.03.01.023.014.03.014.028.013.028.01.021.017.036.011.023.014.03.009.02.019.04.009.02.014.03.009.02.018.038.01.022.013.028.011.023.018.039.01.021.012.027.01.022.019.04.01.022.011.025.011.023.018.04.01.022.012.025.01.023.018.04.011.023.011.025.01.023.019.04.01.022.012.026.009.021.019.042.009.02.013.029.009.02.019.041.01.023.011.025.011.025.017.038.01.022.011.026.016.034.013.029.01.023.012.027.012.028.015.033.01.022.013.03.012.027.015.034.009.02.013.032.012.027.014.032.01.022.013.03.013.03.014.03.009.021.015.036.01.023.014.032.009.022.014.032.013.03.013.028.009.023.015.034.012.027.012.029.009.022.015.035.013.029.011.026.01.023.017.042.009.02.012.028.009.022.018.043.009.02.013.03.008.02.018.043.008.02.014.031.007.019.019.044.008.019.013.032.008.018.017.04a3.555 3.555 0 0 0 1.932 1.924 3.564 3.564 0 0 0 4.689-2.04 3.563 3.563 0 0 0-.046-2.625c-3.025-7.254-6.912-13.429-11.554-18.354a4.03 4.03 0 0 0-.163-.162 3.837 3.837 0 0 0-.155-.172 40.503 40.503 0 0 0-8.401-6.772c-1.955-5.086-8.971-9.944-21.2-14.724a3.549 3.549 0 0 0-2.863.119Z" fill="#F47B00"/><path d="M134.945 161.974c4.789-8.878-7.795-24.955-28.106-35.91-20.311-10.955-40.658-12.639-45.446-3.761-4.788 8.877 7.795 24.954 28.106 35.909 20.311 10.955 40.658 12.639 45.446 3.762Z" fill="#FFE754"/><path d="m68.77 124.806-.016.008-.002.001a5.28 5.28 0 0 0-.326.175c.047-.026.095-.05.142-.074l.06-.028a3.58 3.58 0 0 1 .142-.082Zm12.993.335a3.563 3.563 0 0 0 .779 6.674 68.409 68.409 0 0 1 14.405 5.188 85.82 85.82 0 0 1 3.617 1.858 3.563 3.563 0 0 0 5.117-4.136 3.567 3.567 0 0 0-1.71-2.121l-.215-.116-.007-.004-.021-.011a84.999 84.999 0 0 0-1.315-.696l-.001-.001-.029-.015-.001-.001-.023-.012-.009-.004-.022-.011-.008-.004-.012-.007a94.748 94.748 0 0 0-2.255-1.129l-.038-.019-.012-.006-.026-.012-.016-.008-.024-.011-.013-.007-.026-.012-.022-.011-.027-.013-.018-.008-.02-.01-.018-.008-.02-.011-.019-.008-.017-.008-.074-.036-.019-.009-.02-.01-.016-.008-.021-.01-.017-.008-.02-.01-.036-.016-.013-.007-.023-.011-.02-.009-.018-.008-.021-.011-.013-.006-.025-.012-.006-.002-.053-.025-.01-.005-.024-.011-.013-.007-.023-.01-.014-.007-.024-.012-.007-.003a3.3 3.3 0 0 0-.088-.041l-.01-.005-.027-.013-.007-.003-.03-.014-.003-.001-.088-.042-.012-.005-.026-.012-.008-.004-.197-.092h-.001l-.131-.061-.003-.001-.365-.168h-.001l-.032-.015-.002-.001-.13-.059-.003-.001-.163-.074-.003-.001-.03-.014-.005-.002a74.642 74.642 0 0 0-.856-.38l-.003-.001-.127-.056-.004-.002-.032-.013v-.001l-.328-.141-.001-.001-.032-.013-.003-.002-.123-.052-.01-.004-.026-.012-.007-.002-.028-.013h-.002l-.095-.041-.003-.001-.029-.012-.005-.003a6.462 6.462 0 0 1-.123-.052l-.007-.003-.027-.011-.008-.003-.026-.011-.01-.004-.08-.034-.013-.006-.02-.008-.017-.007-.021-.009-.014-.006-.022-.009-.015-.006-.037-.016-.017-.007-.022-.009-.013-.005-.022-.01-.015-.006-.021-.008-.016-.007-.046-.019-.006-.003-.023-.009-.013-.005-.024-.011-.01-.004-.024-.009-.015-.007-.042-.017-.012-.005-.02-.008-.015-.006-.02-.009-.02-.007-.016-.007-.02-.008-.017-.007-.017-.007-.038-.016-.014-.006-.022-.009-.014-.006-.02-.008-.017-.007-.02-.008-.02-.008-.037-.015-.01-.004-.023-.009-.015-.006-.02-.008-.016-.007-.02-.008-.02-.008-.026-.011-.022-.009-.021-.008-.016-.007-.017-.006-.022-.009-.015-.006-.023-.01-.013-.005-.035-.014-.012-.005-.027-.01-.011-.005-.025-.01-.013-.005-.027-.011-.01-.004-.037-.015-.003-.001-.034-.013-.01-.005-.028-.01-.01-.005-.03-.011-.007-.003-.036-.015-.003-.001-.037-.014-.007-.003-.03-.012-.009-.003-.03-.012-.008-.004-.033-.013-.004-.001-.038-.015-.005-.002-.033-.013-.008-.003-.03-.012-.008-.003-.037-.014-.078-.031-.003-.001-.036-.014-.003-.001a60.957 60.957 0 0 0-.354-.137v-.001l-.158-.06a73.088 73.088 0 0 0-5.456-1.845l-.003-.001-.032-.009-.004-.001-.107-.031-.005-.002-.03-.009-.007-.002-.03-.008-.005-.002-.07-.02-.006-.002-.028-.008-.01-.002-.024-.008-.01-.003-.027-.007-.007-.002-.033-.01-.013-.004-.02-.005-.016-.005-.017-.004-.016-.005-.015-.004-.069-.02-.011-.003-.021-.006-.01-.003-.023-.007-.008-.002-.081-.022-.002-.001-.026-.007-.005-.002-.026-.007-.004-.001a60.517 60.517 0 0 0-3.004-.761 3.546 3.546 0 0 0-2.35.274Z" fill="#FFEF7D"/><path d="M62.94 126.53a3.559 3.559 0 0 0-1.815 4.302l.002.007.006.02.004.011.005.014.004.012.006.018.003.01.006.018.004.011.005.016.003.009.007.021.004.009.005.016.003.009.007.021.003.01.006.017.004.01.006.018.003.009.007.021.003.009.006.016.003.009.008.022.002.007.007.019.002.007.008.022.003.007.008.023.002.006.007.019.002.008.008.023.003.007.007.019.002.006.008.022.003.008.008.023.002.004.008.021.002.007.009.024.002.005.007.02.003.006.008.024.002.006.009.022.001.004.009.023.002.007.01.024.001.005.008.021.002.005.01.024.002.006.008.021.001.005.01.023.002.008.01.024v.002l.01.023.001.006.01.024.001.004.01.023.001.004.01.025.002.005.02.05.002.007.01.024.001.004.01.023v.004l.01.025.003.005.01.025.01.026.002.005.01.025.001.002.01.025.002.004.01.025.002.005.01.022.001.004.01.025.002.005.022.052.001.004.011.026.001.002.011.027.012.027.001.004.023.053.001.003.023.055.001.001.012.028v.001l.024.055.001.003.024.054v.003l.012.026.002.003.023.054.001.002.024.055.002.003.025.056.012.028v.001c.01.019.017.037.026.056v.002l.026.056v.001l.04.084v.003l.026.054.001.003.026.056v.001l.013.028.001.001.026.056v.001l.028.057v.001l.013.028v.001l.028.057v.001l.07.143v.001l.028.057v.001l.072.144v.001l.029.057v.001l.073.145.045.086v.001c.06.117.12.232.183.349v.001a37.932 37.932 0 0 0 4.761 6.791l.132.152c.21.243.425.485.644.728v.001l.137.151.001.001.054.059.001.001.083.091.054.059.003.003.054.059v.001l.14.151.029.031.056.06.001.001.054.058.004.004.026.028.028.03.001.001.028.029.001.002.056.059.001.002.056.059.001.001.028.029v.002l.057.058.002.003.054.057.004.004.143.149v.002l.058.059v.001l.029.03.001.001.057.059.002.001.056.059.003.003.056.058.002.002.028.028.002.003.056.057.003.004.028.028v.001l.028.028.003.003.027.027.004.005.055.056.004.003.056.057.003.003.028.029.001.001.028.029.002.001.028.029.003.003.056.056.004.005.028.027.002.003.027.027.002.002.028.027.005.006.054.054.006.006.055.055.004.005.028.027.003.003.027.027.002.002.027.027.006.005.027.028v.001l.029.027.003.003.029.029.001.002.03.029.03.029.002.003.058.056.004.004.028.028.002.002.027.027.004.003.028.028.003.004.027.025.003.003.028.028.004.004.058.056.003.003.029.029.002.002.028.027.003.002.027.027.006.006.056.055.005.004.029.028.002.002.026.025.006.006.026.025.007.007.025.024.003.003.028.027.005.005.028.027.004.003.025.025.005.005.028.026.005.005.027.025.002.003.028.026.007.007.027.026.003.003.025.024.008.007.026.025.006.006.023.022.007.006.027.026.006.006.027.026.001.001.028.026.007.007.027.025.006.006.023.021.008.008.026.025.007.006.024.023.005.004.026.025.01.009.025.024.007.006.022.021.008.008.027.025.007.006.023.022.006.006.027.025.008.007.025.024.005.004.026.024.008.008.026.024.007.007.022.021.009.007.025.024.01.009.02.02.009.007.025.023.01.009.026.024.007.007.022.02.009.008.025.024.01.009.02.018.009.008.026.024.009.009.026.024.005.005.025.023.008.006.027.026.007.006.024.022.006.005.027.026.009.007.024.022.006.006.026.023.01.009.026.024.007.007.023.02.008.007.026.025.01.008.021.02.008.007.027.025.008.006.028.026.005.005.024.021.009.008.026.024.01.009.022.019.007.007.027.024.01.009.023.021.009.008.024.021.009.008.028.025.006.006.024.021.007.007.028.025.009.008.022.02.008.007.027.024.01.008.025.024.01.007.022.021.007.006.029.025.008.008.022.019.009.008.025.023.012.01.023.02.01.01.022.019.012.01.026.023.01.008.019.018.01.009.027.023.01.01.022.018.012.011.023.021.01.008.027.024.01.008.02.018.01.009.026.023.011.01.022.019.008.006.027.025.01.008.027.024.008.006.022.02.01.009.027.023.01.009.02.018.011.009.027.023.01.009.023.02.012.009.022.02.012.01.026.022.011.01.019.016.012.011.025.021.013.012.019.016.012.01.023.021.014.011.021.018.016.014.017.015.014.012.025.021.012.01.019.016.011.01.026.022.012.011.021.017.016.014.02.017.012.01.026.022.012.011.018.015.012.011.026.021.014.012.018.015.017.014.02.018.013.01.026.023.01.008.021.018.01.009.028.023.01.009.023.018.01.009.026.022.012.01.023.019.014.012.021.018.01.009.028.023.011.009.021.018.01.008.028.023.011.01.022.018.015.012.02.018.013.01.027.022.012.011.017.014.015.012.025.021.013.011.019.015.017.015.02.016.015.012.019.016.02.018.015.012.016.013.025.02.015.013.015.012.02.017.02.016.014.012.018.014.022.018.016.014.014.011.026.022.014.011.016.013.015.013.025.02.015.012.017.014.022.018.016.013.017.014.016.013.023.019.015.012.016.013.024.019.016.014.015.012.024.019.016.013.016.014.016.013.024.019.014.011.017.014.024.02.016.012.015.013.023.018.018.014.016.013.015.013.024.019.016.013.016.012.02.016.02.016.017.014.014.011.026.022.014.011.018.014.022.018.016.013.017.013.017.014.023.018.016.013.015.012.026.02.016.013.014.012.024.018.017.014.017.013.015.013.025.019.016.013.016.013.022.017.02.015.013.012.02.015.022.017.016.014.015.011.026.021.015.011.017.014.016.012.027.021.011.01.018.014.025.019.017.014.014.011.026.02.016.012.017.013.017.014.024.019.014.011.018.014.017.013.025.019.013.011.03.023.012.009.018.015.012.009.031.024.012.009.018.014.014.011.027.021.016.012.015.012.027.021.016.012.015.012.026.02.016.012.016.012.019.015.022.018.017.013.016.012.026.02.016.012.016.013.02.015.021.016.017.013.017.013.024.018.017.013.016.013.026.02.016.012.016.012.018.014.023.018.018.013.016.012.024.018.018.014.016.012.02.016.022.016.016.012.016.013.026.019.017.013.016.012.025.019.017.013.017.013.016.012.026.02.015.011.018.013.023.018.02.015.014.011.026.019.017.013.018.014.014.01.028.021.015.012.018.013.018.013.024.019.016.011.024.018.018.014.019.014.014.01.026.02.016.012.019.014.016.012.026.019.015.012.018.013.026.019.017.013.016.012.024.017.018.014.019.014.012.008.031.024.014.01.017.013.022.016.021.016.018.013.015.011.027.02.017.012.016.012.025.018.019.014.016.012.023.017.02.014.017.013.016.012.027.02.017.012.016.012.026.019.017.012.02.014.011.009.03.022.017.012.015.011.028.02.017.013.016.011.029.021.014.011.02.014.012.009.031.023.013.009.019.013.021.016.024.017.013.01.03.021.016.012.017.012.016.011.028.021.016.011.017.012.018.014.027.019.016.011.016.012.029.02.016.012.017.012.02.015.023.016.017.012.02.015.022.016.02.013.017.013.027.019.019.013.011.009.026.018.022.016.014.01.023.016.02.013.023.017.013.01.025.017.02.015.018.012.016.012.028.019.016.012.02.014.022.016.02.014.018.012.023.016.018.013.02.015.017.011.028.02.014.01.021.015.021.014.023.017.015.01.024.016.018.013.021.015.018.013.015.01.03.021.016.011.019.013.026.019.017.012.019.013.024.017.018.012.019.013.022.015.019.013.023.016.014.01.03.021.016.011.016.011.026.018.02.014.017.012.02.014.023.015.02.014.017.012.02.014.026.018.015.01.018.013.028.019.019.013.015.01.03.02.015.011.02.014.013.009.033.022.013.009.02.014.026.018.021.014.013.008.03.021.018.012.018.012.016.012.03.02.015.01.019.013.015.01.033.022.013.009.025.018.022.014.019.013.014.01.035.024.01.006.023.015.002.002.046.031.007.005.073.049.006.004.046.031.004.002.023.016.007.005.041.027.01.007.022.015.01.006.037.025.012.008.038.025.01.007.02.014.014.009.036.024.01.006.022.015.027.018.017.012.017.011.023.015.023.016.018.012.019.012.028.019.017.011.018.012.03.02.013.008.022.015.017.011.028.018.019.013.017.011.027.018.02.013.017.011.026.017.018.012.02.013.018.012.03.019.016.011.019.013.025.016.021.014.018.012.018.011.03.019.016.011.019.012.018.012.03.02.015.01.035.023.01.007.024.014.011.008.034.022.014.009.023.015.006.004.042.027.01.007.04.026.01.006.02.012.017.011.018.012.03.019.016.011.02.013.027.017.02.013.016.011.03.019.017.011.02.012.015.01.03.019.02.013.018.011.025.016.021.014.019.012.03.019.013.009.022.014.016.01.03.02.018.01.02.013.026.016.02.013.02.013.013.008.037.024.012.007.02.013.03.019.016.01.021.014.018.011.029.018.017.011.023.014.019.012.025.016.015.01.033.02.015.01.02.012.021.014.028.017.016.01.02.012.026.017.02.013.018.011.02.012.031.02.014.009.025.015.024.015.02.013.016.01.031.019.017.01.02.013.018.011.032.02.014.008.022.014.028.018.019.011.016.01.027.017.022.014.018.011.02.013.027.016.021.013.018.011.022.013.026.016.02.012.016.01.032.02.014.009.028.017.01.006.033.02.017.011.029.017.015.01.024.014.017.011.03.019.017.009.022.014.022.013.026.016.017.01.023.015.02.012.026.016.015.009.033.02.013.008.027.016.013.008.033.02.016.009.024.015.016.01.028.017.018.011.028.017.017.01.026.015.015.009.032.02.015.009.025.015.013.007.033.021.015.009.028.016.017.01.028.017.014.009.032.019.018.01.021.013.015.009.033.02.016.009.028.017.012.007.032.019.014.009.034.02.014.008.024.014.015.009.033.02.016.009.024.015.016.009.033.02.012.007.031.018.018.01.025.015.014.009.033.019.017.01.024.014.014.008.034.02.015.009.027.016.018.011.025.014.018.011.029.017.02.011.022.014.015.008.035.021.013.007.025.015.022.013.026.015.016.009.027.016.022.013.022.013.017.009.032.019.018.01.021.012.02.012.028.016.019.011.022.013.027.016.02.011.02.012.03.018.016.009.022.012.018.01.031.018.019.011.019.011.033.019.016.009.02.012.028.016.021.012.02.011.02.011.03.017.019.011.022.013.02.012.029.016.016.009.035.02.008.005.03.016.015.009.034.02.014.008.027.015.014.008.034.019.015.009.027.015.02.011.026.015.016.009.03.017.02.011.023.013.017.01.032.018.019.01.023.014.016.008.031.018.017.009.032.018.015.009.026.015.016.009.035.019.013.007.028.016.012.007.034.019.017.009.024.014.025.013.025.015.015.008.035.019.014.008.028.015.011.007.036.019.016.009.025.014.022.012.026.015.018.01.026.014.025.014.019.01.019.011.032.018.018.01.022.012.025.013.026.015.017.009.027.015.02.011.028.015.013.007.036.02.014.007.027.015.014.008.034.019.018.009.025.014.02.011.028.015.015.008.036.02.012.007.029.015.014.008.036.02.012.006.033.018.008.004.038.021.011.006.038.02.013.007.028.015.014.008.037.02.012.006.03.016.011.006.037.02.013.007.037.02.008.004.034.018.013.008.038.02.01.005.03.016.013.007.037.02.01.006.036.019.01.005.036.019.012.006.037.02.014.007.027.015.014.007.036.019.014.008.029.015.017.009.03.016.019.01.03.017.016.007.027.015.016.008.037.02.01.005.032.017.012.006.038.02.011.006.036.019.01.005.034.018.014.007.035.019.015.007.029.016.012.006.037.019.014.008.031.016.01.004.037.02.014.007.04.021.004.002.036.019.012.006.038.02.013.007.028.014.014.007.037.019.013.007.037.02.008.003.037.019.01.005.039.021.01.005.037.019.005.002.041.022.01.004.039.021.003.002.042.021.01.005.04.021.005.002.037.019.01.005.04.02.01.006.033.017.011.005.04.021.01.004.04.021.009.004.033.017.012.006.036.019.017.008.03.015.01.005.04.02.01.006.039.019.006.003.036.019.014.006.038.02.01.005.034.017.01.005.04.02.01.005.036.018.008.004.04.02.01.005.041.02.008.004.035.018.01.005.042.021.007.004.04.019.004.002.041.021.011.005.036.018.016.008.029.014.016.008.037.019.012.005.03.015.013.007.037.018.015.007.031.016.016.008.034.016.012.006.041.02.006.004.035.017.013.006.037.018.015.008.03.014.012.006.039.019.013.006.04.02.005.002.035.018.015.007.037.018.013.006.035.017.007.004.042.02.01.004.042.021c15.491 7.507 30.037 9.441 37.525 5.775 2.511-1.229 4.229-3.09 4.922-5.58l.018-.066.002-.007.002-.007.002-.007.002-.007.002-.008.001-.005.002-.009.002-.007.002-.008.002-.005.002-.01.002-.006.002-.008.002-.008.002-.007.002-.008.001-.007.002-.007.002-.007.002-.008.002-.007.002-.008.001-.007.003-.009.001-.005.002-.009.002-.006.002-.009.001-.006.003-.009.001-.005.002-.01.001-.005.003-.009.001-.006.002-.009.001-.006.003-.009.001-.005.002-.01.001-.005.002-.008.002-.007.002-.009.001-.006.002-.009.001-.006.002-.008.002-.007.002-.008.001-.007.002-.009.001-.005.002-.009.002-.006.002-.009.001-.006.002-.008.001-.007.002-.008.001-.007.002-.008.002-.007.002-.009.001-.005.002-.009.001-.006.002-.009.001-.006.002-.009.001-.006.002-.01.001-.005.002-.009.001-.006.002-.009.001-.006.002-.008.001-.007.002-.009.001-.006.002-.008.001-.007.002-.008.001-.007.001-.008.002-.007.002-.009.001-.006.001-.009.001-.006.002-.009.001-.006.002-.009.001-.006.002-.009.001-.006.001-.008.002-.007.001-.009.001-.006.002-.008.001-.007.001-.009.002-.006.001-.009.001-.006.002-.008.001-.008.001-.007.001-.008.002-.008.001-.007.001-.008.002-.006.001-.009.001-.007.001-.008.002-.007.001-.008.001-.007.001-.008.001-.007.002-.009.001-.006.001-.009.001-.006.002-.009.001-.007.001-.008.001-.007.001-.008.001-.007.001-.008.002-.007.001-.009.001-.006.001-.009.001-.006.001-.009.001-.007.001-.008.002-.007.001-.008.001-.007.001-.009.001-.006.001-.009.001-.007.001-.008.001-.007.001-.009.001-.006.001-.009.001-.007.001-.008.001-.007.001-.008.001-.007.001-.009.001-.006.001-.009.001-.006.001-.01.001-.005.001-.01.001-.006.001-.009.001-.006.001-.009.001-.007.001-.009v-.006l.002-.009v-.007l.001-.008.001-.007.001-.008.001-.008.001-.008.001-.007.001-.008v-.007l.001-.009.001-.007.001-.008.001-.007.001-.009v-.006l.001-.009.001-.007.001-.008.001-.008v-.007l.001-.008.001-.008.001-.007v-.008l.001-.008.001-.008.001-.007v-.008l.001-.008.001-.008.001-.008v-.007l.001-.008.001-.008v-.008l.001-.007.001-.008v-.008l.001-.008.001-.007.001-.008v-.008l.001-.007v-.008l.001-.008.001-.008v-.008l.001-.007v-.008l.001-.008.001-.007v-.008l.001-.008v-.008l.001-.008.001-.008v-.007l.001-.008v-.008l.001-.008v-.008l.001-.007v-.009l.001-.007v-.008l.001-.008.001-.009v-.006l.001-.01v-.006l.001-.01v-.015l.001-.006v-.009l.001-.007v-.009l.001-.006v-.01l.001-.006v-.016l.001-.009v-.006l.001-.011v-.005l.001-.012V158.219l.001-.011v-.004l.001-.012v-.004l.001-.015v-.016l.001-.015V158.125l.001-.015v-.011l.001-.006V158.065l.001-.003v-.032l.002-.061v-.002l.002-.127v-.001l.001-.063v-.066l-.001-.062v-.067l-.001-.014v-.048l-.001-.002v-.032l-.001-.03v-.017l-.001-.016v-.016l-.001-.016V157.372l-.001-.014V157.34l-.001-.014v-.016l-.001-.004v-.016l-.001-.013v-.016l-.001-.004v-.015l-.001-.013v-.004l-.001-.013v-.015l-.001-.005v-.015l-.001-.013v-.003l-.001-.014v-.003l-.001-.013v-.003l-.001-.013v-.003l-.001-.013v-.017l-.001-.003v-.012l-.001-.005v-.012l-.001-.004v-.012l-.001-.004v-.012l-.001-.005v-.011l-.001-.006-.001-.011v-.005l-.001-.011v-.005l-.001-.012v-.004l-.001-.012v-.004l-.001-.013v-.003l-.001-.013-.001-.004-.001-.012v-.004l-.001-.012v-.005l-.001-.012v-.003l-.001-.014-.001-.003-.001-.013v-.003l-.001-.013v-.004l-.001-.013-.001-.003-.001-.013v-.003l-.001-.014v-.003l-.002-.013v-.003l-.001-.014v-.002l-.002-.015v-.002l-.001-.014v-.002l-.001-.013-.001-.005-.001-.012v-.004l-.002-.013v-.003l-.001-.014-.001-.002-.001-.014v-.003l-.001-.013-.001-.004-.001-.013v-.003l-.002-.013v-.004l-.001-.012-.001-.005-.001-.012-.001-.003-.001-.014v-.003l-.002-.014v-.002l-.002-.014v-.003l-.001-.014-.001-.002-.001-.015v-.002l-.002-.014v-.003l-.002-.013v-.003l-.002-.014v-.003l-.002-.014v-.002l-.002-.015v-.002l-.002-.013v-.004l-.002-.013v-.003l-.002-.014v-.003l-.002-.014v-.002l-.002-.013v-.005l-.002-.012v-.004l-.002-.013-.001-.004-.001-.012-.001-.004-.001-.013-.001-.004-.002-.014v-.002l-.002-.015v-.002l-.002-.015v-.001l-.002-.014-.001-.004-.002-.013v-.003l-.002-.014v-.003l-.002-.015-.001-.001-.002-.015v-.002l-.002-.015v-.002l-.002-.015-.001-.001-.002-.015v-.002l-.002-.013-.001-.005-.002-.012v-.004l-.002-.013v-.004l-.003-.013v-.003l-.002-.013-.001-.004-.002-.014v-.003l-.002-.015-.001-.001-.002-.015v-.002l-.002-.014-.001-.003-.002-.014-.001-.003-.002-.015v-.001l-.003-.015v-.002l-.002-.015-.001-.002-.002-.016v-.001l-.003-.016v-.001l-.003-.015v-.002l-.002-.012-.001-.005-.002-.012-.001-.005-.002-.012v-.005l-.002-.011-.001-.006-.002-.01-.001-.007-.002-.012-.001-.004-.003-.015v-.002l-.003-.015v-.002l-.002-.011-.001-.006-.002-.013-.001-.003-.006-.034-.003-.014v-.003l-.003-.017-.006-.032-.001-.002-.001-.01-.002-.007-.002-.012-.001-.005-.008-.045-.002-.006-.009-.051a.819.819 0 0 1-.01-.048l-.001-.002-.006-.033v-.001l-.006-.028-.001-.007-.003-.013-.001-.003-.014-.066v-.002l-.01-.05-.001-.001-.014-.067-.001-.001-.007-.033v-.001l-.004-.015v-.002l-.003-.014-.001-.003-.003-.017h-.001a.928.928 0 0 0-.011-.051l-.016-.067v-.002l-.004-.016v-.001l-.029-.119v-.001a18.679 18.679 0 0 0-.976-2.884 5.005 5.005 0 0 0-.068-.147l-.055-.134-.029-.064v-.001l-.029-.065-.001-.002-.009-.019c-.05-.111-.101-.223-.154-.334a3.527 3.527 0 0 0-4.678-1.666l-.059.029a3.6 3.6 0 0 0-1.686 4.718l.113.248c.018.037.035.075.054.111.017.046.035.091.054.135.668 1.566.935 2.976.714 3.771-.049.175-.164.587-1.191 1.09-4.782 2.341-17.064 1.105-31.286-5.787-15.747-7.631-26.2-18.385-28.386-25.064a3.561 3.561 0 0 0-4.956-2.089Z" fill="#FFD432"/><path d="M103.317 117.862a3.57 3.57 0 0 0-1.455 1.315 3.57 3.57 0 0 0 .003 3.771c.354.565.858 1.02 1.457 1.312.546.266 1.087.536 1.624.81l.003.002.085.043h.001l.085.044.004.002.037.019.006.003.041.021.001.001.036.018.011.006.037.019.006.003.032.016.014.008.028.014.02.011.021.011.02.01.02.01.025.013.024.013.018.009.023.012.013.006.033.017.02.011.016.008.076.04.007.003.082.043.006.003a88.052 88.052 0 0 1 17.133 11.605c.049.044.099.085.15.125.046.046.094.091.143.134 3.975 3.528 7.176 7.169 9.374 10.668a3.561 3.561 0 1 0 6.032-3.789c-2.572-4.094-6.164-8.2-10.677-12.206a3.698 3.698 0 0 0-.166-.139 3.115 3.115 0 0 0-.157-.146c-6.004-5.271-13.329-10.078-21.184-13.903a3.55 3.55 0 0 0-3.128.004ZM90.92 82.093a3.544 3.544 0 0 0-1.935 2.556l-.077.423a3.535 3.535 0 0 0-.032.218c-.016.068-.03.137-.043.207a86.98 86.98 0 0 0-1.122 19.035c.11 2.25.306 4.508.588 6.756-10.441-2.521-19.59-2.295-25.831.76l-.003.002c-.376.184-.741.377-1.094.579a3.563 3.563 0 0 0 3.538 6.183c.095-.054.19-.107.288-.159l.002-.001.012-.007.007-.004.016-.008.01-.006.008-.004.018-.009.002-.002.02-.009v-.001c.094-.049.189-.097.285-.144l.001-.001.022-.011.018-.009.006-.003.013-.006.007-.003.011-.006.007-.003.012-.006.007-.003.012-.006.007-.003.012-.006.007-.003.012-.006.006-.003.014-.007.005-.002.016-.008.003-.001.038-.018h.001l.018-.009.005-.002.014-.007.005-.002.014-.006.006-.003.013-.006.006-.003.013-.006.007-.003.013-.006.006-.002.015-.007.004-.002.017-.008.002-.001.04-.017v-.001l.019-.008.003-.001.016-.007.005-.003.014-.006.006-.003.014-.006.005-.002.015-.006.005-.003.015-.006.004-.002.017-.007.002-.001.08-.035.002-.001.018-.007.003-.001.017-.008.004-.001.016-.007.004-.002.016-.006.003-.002.017-.007.003-.001.018-.008.002-.001.082-.033.02-.008.002-.001.018-.007.003-.002.017-.007.003-.001.017-.007.004-.001.017-.007.003-.001.019-.007.001-.001.124-.049h.002l.02-.008.02-.008h.002a5.04 5.04 0 0 1 .167-.063l.002-.001.02-.007v-.001l.021-.007c2.131-.779 4.71-1.184 7.63-1.216h.032l.027-.001h.001l.234-.001h.267l.029.001h.061l.207.002.03.001h.061l.028.001h.001l.15.003h.031l.028.001h.003l.026.001h.034l.21.006h.002l.026.001h.005l.026.001h.004l.026.001h.003l.212.007h.002l.027.001h.005l.025.001.005.001.025.001h.005l.027.001h.002l.03.001.122.005.002.001.028.001h.004l.026.001h.005l.026.002h.004l.026.001h.005l.025.001.005.001.028.001h.002l.123.006h.001l.028.002h.006l.024.001.007.001.023.001h.007l.024.002h.007l.024.001.006.001.027.001h.002l.124.008h.002l.028.001.005.001.025.001.007.001.023.001.008.001.023.001h.007l.024.002h.007l.024.002h.006l.028.002h.002l.093.006.003.001.028.001.004.001.026.002h.007l.023.002h.008l.023.002h.007l.026.002h.004l.028.002.003.001.124.009h.006l.025.002.007.001.022.001.01.001.022.002h.008l.022.002.01.001.021.001.01.001.023.002.006.001.027.002h.004l.093.007.007.001.023.002.01.001.022.002h.009l.021.002.01.001.022.002.009.001.021.001.01.001.023.002.007.001.028.002h.003l.094.009h.005l.026.003h.007l.023.002.01.001.02.002.012.001.02.002.01.001.022.002.01.001.022.002.008.001.025.002h.006l.063.006.031.003.007.001.024.002.008.001.023.002.01.001.022.003h.009l.022.003.01.001.022.002.008.001.023.002.01.001.022.002.008.001.03.003h.001l.032.003.004.001.027.003h.008l.024.003.008.001.023.002.01.001.021.002.01.002.022.002.01.001.022.002.009.001.023.003.009.001.025.002.006.001.095.01.005.001.027.003.007.001.024.002.009.001.023.003.009.001.022.002.01.002.022.002.01.001.024.003.007.001.028.003h.003l.097.012h.003l.028.003.008.001.024.003.009.001.023.003.009.001.022.002.01.002.022.002.01.002.021.002.011.001.023.003.008.001.03.004h.002l.033.004.031.004.01.001.022.003.01.001.022.003.01.001.022.003.01.001.022.003.01.001.023.003.008.001.025.004h.008l.028.004.003.001.099.012.031.005h.006l.026.004.01.001.022.003.01.001.022.003.01.002.022.002.01.002.023.003.01.001.025.004h.006l.032.005.033.004h.001l.032.005.006.001.026.003.008.001.023.004.011.001.022.003.01.002.021.003.013.001.02.003.012.002.02.003.012.001.022.003.01.002.023.003.01.002.064.009.008.001.024.003.01.002.022.003.011.002.022.003.01.001.023.004.01.001.024.004.008.001.025.004.007.001.029.004h.004l.1.015.001.001.031.004.005.001.027.004.008.002.025.003.01.002.022.003.01.002.024.003.008.002.025.003.008.002.027.004.006.001.032.005.067.01.004.001.028.004.01.002.023.004.01.001.023.004.01.001.023.004.01.002.023.003.01.002.024.004.009.001.028.005h.004l.1.017h.002l.031.005.007.001.026.005.008.001.025.004.01.002.023.004.01.001.024.004.008.002.026.004.008.001.028.005.004.001.102.017h.001l.031.005.007.002.026.004.008.001.026.005.008.001.025.004.01.002.024.004.008.002.026.004.007.002.029.004.004.001.136.024.003.001.03.005.005.001.029.005.006.001.027.005.007.001.027.005.007.001.028.005.005.001.032.006h.001l.137.025.003.001.03.005.006.001.028.006.006.001.028.005.007.001.027.005.007.001.029.006.004.001.033.006.138.026h.001l.033.006.004.001.03.006.005.001.028.005.007.002.027.005.007.001.03.006h.004l.207.041.034.007h.002l.033.006.002.001.032.006.003.001.032.006.002.001.21.042.034.007h.001l.034.007.352.073c1.677.352 3.403.788 5.179 1.308 1.415.416 2.854.885 4.317 1.406l.005-.002.039.012c.058.025.118.048.178.07l.18.065.01.004.015.005.164.06a3.553 3.553 0 0 0 2.553-.046 83.541 83.541 0 0 1-1.503-7.142 83.407 83.407 0 0 1-.916-8.017v-.001l-.009-.142v-.004a64.774 64.774 0 0 1-.009-.139v-.006l-.008-.138v-.008l-.009-.137v-.007l-.004-.067v-.002l-.004-.068v-.01l-.004-.061v-.008l-.004-.067v-.008l-.004-.061v-.01l-.004-.067v-.007l-.003-.058v-.015l-.004-.065v-.006l-.003-.06-.001-.016-.003-.065-.004-.071v-.002l-.003-.069v-.005l-.003-.067v-.004a10.116 10.116 0 0 1-.004-.066v-.007l-.003-.065v-.006l-.003-.064v-.009l-.003-.063v-.007l-.003-.064v-.008l-.003-.064v-.007l-.003-.065v-.006l-.003-.067v-.004l-.003-.068v-.003l-.002-.07v-.003l-.003-.067v-.006l-.003-.065v-.007l-.002-.063v-.01l-.002-.061v-.009l-.003-.062v-.01l-.002-.061v-.01l-.003-.06v-.011l-.002-.061v-.01l-.002-.061v-.01l-.002-.065v-.004l-.002-.065v-.008l-.002-.068v-.001l-.002-.068v-.007l-.002-.064v-.007l-.002-.062v-.011l-.001-.062v-.008l-.002-.061v-.011l-.002-.061v-.009l-.001-.057v-.017l-.002-.055v-.014l-.001-.057v-.013l-.001-.06v-.01l-.002-.06v-.012l-.001-.061v-.01l-.001-.064v-.008l-.002-.061v-.085l-.001-.054v-.016l-.002-.055v-.085l-.001-.055v-.015l-.001-.056v-.084l-.001-.055v-.016l-.001-.053v-.092l-.001-.054v-.162l-.001-.048V99.591l.001-.039V99.444l.001-.032v-.069l.001-.037v-.069l.001-.046v-.022l.001-.05V99.048l.001-.015v-.068l.002-.052V98.829l.002-.055v-.068l.001-.01.01-.493v-.004l.003-.132c.076-3.21.348-6.41.816-9.584l.001-.01.007-.044.003-.02.006-.038.004-.028.005-.037.004-.026.006-.04.004-.026.006-.036.004-.029.005-.033.006-.036.004-.027.006-.038.004-.027.007-.043.003-.02.007-.045.002-.017.008-.048.003-.016.007-.048.003-.015.008-.05.002-.013.008-.054.002-.008.009-.057v-.007l.01-.06.001-.002c.042-.259.085-.518.13-.774.011-.065.02-.13.028-.196.015-.061.028-.124.04-.187v-.005l.008-.041v-.003l.007-.04.004-.018.003-.016.047-.262a3.573 3.573 0 0 0-2.865-4.151 3.537 3.537 0 0 0-2.205.3Z" fill="#F4AC03"/><path d="M132.601 163.866c-15.336-31.323-2.375-69.149 28.949-84.485l1.092-.534a13.993 13.993 0 0 1 18.721 6.415l.534 1.091c15.336 31.324 2.376 69.149-28.948 84.485l-1.092.535a13.993 13.993 0 0 1-18.721-6.415l-.535-1.092Z" fill="#4DA900"/><path d="m158.682 144.237 19.194-9.397a3.562 3.562 0 1 0-3.133-6.398l-19.193 9.397a3.561 3.561 0 1 0 3.132 6.398Z" fill="#378900"/><path d="m143.231 166.022 22.182-64.738 2.589-7.556a5.04 5.04 0 0 1 6.398-3.133 5.035 5.035 0 0 1 3.132 6.398l-2.589 7.557-22.182 64.738a5.04 5.04 0 0 1-6.398 3.132v-.001a5.034 5.034 0 0 1-3.132-6.397Z" fill="#378900"/><path d="M138.857 113.95a3.547 3.547 0 0 0-1.754 1.912l-.001.002-.019.048-.001.004a56.533 56.533 0 0 0-2.282 7.374l-.001.005a1.147 1.147 0 0 1-.011.05l-.001.002-.024.105-.002.007-.01.044-.002.009-.024.101-.002.011a.611.611 0 0 1-.01.041l-.002.011-.023.1-.002.011-.009.038-.003.016-.009.04-.003.009a.787.787 0 0 1-.01.047l-.004.018-.007.032-.004.018-.008.035-.003.014a.966.966 0 0 0-.01.046l-.005.02-.006.028-.005.023-.005.026-.006.027a2.205 2.205 0 0 1-.009.038l-.005.026-.005.021-.006.028-.004.017-.021.101-.004.016-.006.031-.003.015-.023.108-.002.009-.007.034-.003.01-.024.116v.002l-.008.039-.001.005-.033.162a56.348 56.348 0 0 0-.747 4.669 3.56 3.56 0 0 0 5.75 3.191 3.558 3.558 0 0 0 1.327-2.377 49.29 49.29 0 0 1 2.991-12.051 3.566 3.566 0 0 0-2.813-4.811 3.566 3.566 0 0 0-2.076.327Zm26.689-28.594-.912.447a.917.917 0 0 1-.028.014l-.039.019-.016.008-.022.01-.018.01-.022.01-.016.008-.022.011-.017.009-.023.011-.016.008-.023.011-.016.008-.025.013-.013.006-.034.017-.006.003-.038.02-.01.004-.029.014-.014.008-.025.012-.014.007-.024.013-.016.007-.023.012-.017.008-.021.011-.018.009-.022.011-.016.008-.023.012-.015.008-.026.013-.013.007-.031.016-.007.003a1.408 1.408 0 0 0-.039.02l-.008.004-.031.016-.013.006-.025.013-.016.008-.022.012-.018.009-.02.01-.017.01-.023.01-.016.009-.023.012-.015.008-.024.012-.014.008-.03.015-.008.004-.038.02h-.001a1.17 1.17 0 0 1-.039.02l-.01.006-.027.014-.016.008-.023.012-.016.009-.022.011-.017.009-.021.011-.017.009-.021.011-.017.01-.023.01-.015.01-.022.01-.017.01-.023.012-.015.007-.025.014-.013.007-.037.02-.012.006-.027.014-.014.007-.024.013-.014.008-.024.013-.015.008-.023.012-.016.008-.021.012-.018.01-.021.01-.016.01-.021.01-.018.01-.022.012-.015.008-.027.014-.011.006-.038.021-.003.002-.034.018-.015.008-.023.013-.016.008-.022.012-.016.01-.021.01-.018.01-.02.01-.017.01-.021.012-.017.009-.022.012-.015.008-.025.014-.013.007-.026.014-.012.007-.037.02-.013.008-.024.013-.018.01-.019.01-.02.012-.017.009-.021.011-.017.01-.019.01-.018.01-.02.012-.017.01-.02.01-.017.01-.021.012-.017.009-.019.01-.019.011-.019.011-.016.01-.039.02-.018.01-.018.011-.019.01-.019.011-.018.01-.019.011-.019.01-.018.011-.018.01-.019.011-.019.011-.019.01-.017.01-.02.012-.018.01-.019.01-.018.011-.019.01-.022.013-.032.019-.018.01-.02.011-.017.01-.019.011-.018.011-.019.01-.019.011-.017.01-.02.012-.018.01-.019.011-.017.01-.021.012-.016.01-.022.012-.015.009-.025.014-.012.007-.035.02-.009.006-.028.017-.017.01-.021.012-.016.009-.021.012-.016.01-.021.012-.017.01-.019.01-.018.011-.019.012-.017.01-.021.012-.015.01-.023.013-.014.008-.024.014-.013.008-.033.02-.004.001-.037.023-.01.006-.026.015-.015.01-.021.012-.017.01-.019.011-.017.01-.02.012-.017.01-.02.012-.017.01-.019.012-.018.01-.02.013-.015.009-.023.014-.014.008-.027.016-.01.006-.035.021-.016.01-.021.013-.016.01-.02.012-.016.01-.021.012-.016.01-.02.012-.016.01-.022.013-.014.009-.021.013-.016.01-.021.012-.015.01-.021.012-.016.01-.02.013-.029.017-.022.014-.016.01-.02.012-.016.01-.02.013-.018.01-.018.012-.019.011-.017.01-.019.012-.017.011-.019.012-.017.01-.019.012-.017.011-.018.011-.021.013-.015.01-.027.016-.009.006-.035.022-.013.008-.023.015-.016.01-.019.012-.018.01-.019.013-.016.01-.019.012-.018.011-.019.012-.016.01-.02.013-.016.01-.021.014-.014.009-.022.014-.014.009-.027.017-.009.005-.035.023-.013.008-.023.015-.015.01-.021.012-.016.01-.019.013-.016.01-.02.013-.016.01-.02.013-.016.01-.019.013-.017.01-.02.014-.015.01-.022.014-.014.008-.025.017-.01.006-.035.023-.01.006-.026.018-.012.007-.023.016-.015.009-.021.014-.015.01-.02.013-.015.01-.022.014-.013.009-.022.014-.014.01-.022.013-.014.01-.022.014-.013.009-.026.016-.01.007-.034.023-.013.008-.023.015-.014.01-.021.014-.015.01-.021.013-.014.01-.021.014-.015.01-.02.013-.015.01-.02.014-.016.01-.02.014-.014.009-.023.015-.013.009-.026.017-.009.006-.035.024-.004.003-.032.02-.007.006-.027.018-.012.008-.024.016-.012.009-.022.014-.015.01-.021.014-.013.01-.022.014-.014.01-.022.014-.012.01-.022.014-.014.01-.026.017-.008.006-.07.048-.012.007-.023.016-.014.01-.021.014-.013.01-.022.015-.013.008-.023.016-.012.008-.022.016-.013.009-.023.016-.011.007-.025.017-.011.008-.026.018-.009.006-.03.021-.007.005-.032.023-.009.006-.026.017-.012.01-.023.015-.012.008-.023.016-.012.009-.023.016-.011.008-.024.016-.011.008-.024.017-.011.008-.024.017-.011.007-.027.02-.007.005-.071.05h-.001l-.033.024-.007.005-.027.019-.01.007-.025.018-.01.007-.025.017-.01.008-.024.017-.012.008-.023.017-.011.007-.026.02-.008.005-.031.022-.003.002-.105.076-.005.004-.029.02-.009.007-.026.019-.009.006-.025.019-.01.007-.025.017-.009.008-.026.018-.009.006-.026.02-.008.006-.029.02-.005.004-.104.076-.008.006-.026.02-.009.006-.025.018-.01.008-.024.018-.011.007-.023.017-.011.009-.024.017-.01.007-.026.02-.008.005-.03.023-.003.002-.104.078-.004.002-.03.023-.007.005-.027.02-.007.006-.028.02-.007.006-.026.02-.009.006-.027.02-.006.005-.028.02-.007.006-.032.024h-.001l-.104.08-.002.001-.031.024-.006.004-.029.022-.006.004-.027.022-.007.005-.027.02-.008.006-.026.02-.008.006-.027.02-.006.006-.032.023-.001.002-.104.08-.034.025-.003.003-.029.022-.008.007-.026.02-.008.006-.026.02-.008.006a.562.562 0 0 1-.027.02l-.006.005a.733.733 0 0 1-.029.023l-.004.003-.17.133-.002.002-.031.024-.005.004-.028.022-.006.005-.028.021-.006.006-.029.022-.004.003-.029.023-.005.004-.169.134-.033.027-.003.002-.031.025-.002.002-.031.024-.004.003-.03.024-.003.003-.031.025-.003.002-.201.162-.003.002-.031.025-.002.002-.03.025-.004.003-.031.025-.002.001-.267.22h-.001l-.033.027a55.449 55.449 0 0 0-5.261 4.958 3.564 3.564 0 0 0 .18 5.034 3.562 3.562 0 0 0 5.034-.181 48.561 48.561 0 0 1 14.234-10.536l.862-.422a.39.39 0 0 1 .132-.045 3.56 3.56 0 0 0-.433-7.11c-.079.004-.157.01-.235.018h-.001l-.021.002h-.001l-.021.002h-.001l-.02.002h-.002l-.02.002h-.001l-.02.003h-.002l-.02.002h-.002l-.02.003h-.002l-.019.002h-.004l-.018.003h-.003l-.019.002h-.003l-.019.003h-.003l-.018.003h-.004l-.018.003h-.003l-.019.003h-.003l-.018.003h-.004l-.017.003h-.005l-.016.003h-.005l-.017.003h-.004l-.018.003-.004.001-.017.003h-.005l-.016.003h-.005l-.017.003-.005.001-.017.003-.006.001-.015.002-.007.002-.015.002-.006.001-.016.003-.006.001-.015.003h-.007l-.015.004h-.007l-.015.004h-.007l-.015.004-.007.001-.015.003-.007.001-.015.003-.007.001-.015.003-.007.002-.015.003h-.007l-.014.004-.008.001-.014.003-.008.002-.013.003-.009.001-.013.003-.008.002-.014.003-.008.002-.012.002-.01.002-.012.003-.01.002-.012.003-.009.002-.013.003-.009.002-.012.003-.01.002-.012.003-.009.002-.013.003-.009.002-.013.003-.008.002-.013.003-.009.002-.013.004-.008.002-.014.003-.008.002-.014.004-.007.001-.015.004-.007.002-.015.004-.007.002-.015.004-.007.001-.015.004-.007.002-.014.004-.008.002-.014.004-.008.002-.014.004-.007.002-.015.004-.007.002-.015.004-.007.002-.015.005-.007.001-.015.005-.006.002-.016.004-.006.002-.014.004-.008.002-.014.005-.007.002-.015.004-.007.002-.015.005-.006.002-.015.004-.007.002-.015.005-.006.002-.016.005-.005.002-.016.005-.005.001-.017.006-.005.001-.017.006-.004.001-.017.006-.005.001-.017.006-.005.001-.017.006-.005.002-.016.005-.005.002-.017.006-.005.001-.017.006-.005.002-.016.006-.006.002-.016.005-.005.002-.017.006-.005.002-.017.006-.004.001-.018.007-.004.001-.017.006-.005.002-.017.006-.004.002-.018.007h-.003l-.018.008-.005.001-.017.007-.004.001-.018.007-.003.001-.018.007-.004.002-.018.007-.004.001-.018.007-.002.001-.019.007-.003.002-.018.007-.003.001-.018.007-.003.002-.019.007-.003.001-.018.008-.003.001-.019.008-.003.001-.018.008-.003.001-.019.008-.003.001-.018.008-.003.001-.019.008-.003.001-.018.008-.003.002-.019.008h-.003l-.018.009-.003.001-.019.008-.002.002-.019.008-.003.001-.019.009h-.002l-.019.01h-.003l-.019.009-.002.001-.019.009-.003.001-.018.009h-.003l-.019.01h-.002l-.019.01h-.003l-.019.01h-.002l-.019.01h-.002l-.02.01h-.001l-.02.01-.022.011Z" fill="#9FE27C"/><path d="M171.426 78.667a3.556 3.556 0 0 0-1.993 3.273 3.56 3.56 0 0 0 2.129 3.186 6.777 6.777 0 0 1 3.402 3.268l.535 1.092c13.584 27.746 2.063 61.37-25.683 74.954l-1.092.535a6.983 6.983 0 0 1-1.162.446 3.56 3.56 0 0 0-2.455 4.398 3.56 3.56 0 0 0 4.398 2.455 14.03 14.03 0 0 0 1.607-.563h.001l.016-.007.003-.001.016-.007.002-.001.017-.007.001-.001.087-.037.004-.002.014-.006.006-.002.013-.006.006-.003.012-.005.007-.003.013-.005.006-.003.013-.006.006-.002.043-.02.007-.003.011-.005.009-.003.01-.005.009-.004.01-.005.009-.004.011-.005.008-.003.011-.005.009-.004.01-.005.009-.004.018-.008.011-.005.008-.004.011-.005.009-.004.01-.005.01-.004.01-.005.009-.005.01-.004.009-.004.011-.006.009-.004.011-.005.008-.004.013-.006.007-.003.018-.009.006-.003.013-.006.009-.004.011-.005.008-.004.011-.006.008-.003.012-.006.008-.004.019-.009.013-.007 1.118-.547c31.323-15.336 44.284-53.161 28.948-84.484l-.557-1.139-.006-.011-.014-.028-.005-.011-.004-.008-.006-.012-.004-.007-.006-.013-.004-.006-.007-.015-.004-.007-.008-.017-.003-.006-.007-.013-.004-.007-.006-.012-.003-.008-.006-.01-.004-.01-.006-.01-.004-.008-.006-.011-.004-.008-.006-.012-.004-.007-.007-.013-.003-.007-.01-.018-.003-.006-.006-.013-.005-.008-.005-.01-.005-.01-.005-.01-.005-.008-.006-.011-.004-.008-.006-.011-.004-.008-.006-.012-.004-.006-.007-.014-.003-.006-.01-.018-.002-.004-.008-.015-.004-.007-.007-.012-.003-.007-.007-.011-.004-.008-.006-.011-.004-.008-.006-.011-.004-.008-.007-.011-.004-.007-.006-.012-.004-.007-.01-.018-.005-.008-.005-.01-.005-.01-.006-.01-.005-.008-.005-.01-.005-.009-.005-.009-.006-.01-.005-.008-.005-.01-.006-.009-.005-.009-.005-.01-.005-.008-.008-.014-.007-.011-.006-.011-.004-.008-.006-.01-.005-.009-.006-.01-.005-.008-.006-.01-.005-.009-.005-.01-.005-.008-.006-.01-.005-.009-.004-.007-.007-.011-.001-.001-.015-.026-.005-.008-.005-.01-.005-.008-.006-.01-.005-.008-.006-.01-.005-.008-.006-.01-.004-.008-.007-.01-.004-.008-.006-.01-.005-.007-.006-.011-.004-.007-.012-.019-.005-.008-.006-.01-.005-.009-.007-.01-.004-.007-.007-.01-.004-.008-.007-.011-.003-.006-.008-.012-.003-.005-.007-.012-.003-.005-.008-.013-.001-.001-.029-.045-.002-.005-.008-.011-.003-.007-.008-.011-.004-.006-.006-.011-.005-.007-.007-.01-.004-.007-.007-.011-.004-.006-.007-.012-.001-.001-.028-.045-.004-.005-.008-.012-.002-.004-.008-.012-.004-.006-.008-.012-.003-.005-.008-.012-.003-.005-.008-.012-.002-.003-.042-.063a.755.755 0 0 0-.009-.014l-.003-.004-.008-.013-.003-.004-.008-.012-.004-.005-.008-.012-.002-.004-.009-.014-.002-.002a4.906 4.906 0 0 0-.064-.094l-.001-.002-.01-.015-.001-.001-.011-.015v-.001a26.967 26.967 0 0 0-.078-.112l-.011-.015-.001-.001-.011-.016a13.939 13.939 0 0 0-5.774-4.7 3.558 3.558 0 0 0-3 .064h.001Z" fill="#378900"/><path d="m136.833 169.154 25.448-74.268 2.589-7.556a5.027 5.027 0 0 1 2.55-2.894 5.035 5.035 0 0 1 6.98 6.16l-2.589 7.556-25.448 74.268a5.034 5.034 0 0 1-6.398 3.132 5.04 5.04 0 0 1-3.132-6.398Z" fill="#6EC030"/><path d="M160.581 107.615a3.562 3.562 0 1 0 6.398-3.132l-6.264-12.796a3.563 3.563 0 0 0-6.398 3.133l6.264 12.795ZM144.254 155.267a3.562 3.562 0 0 0 6.398-3.133l-9.398-19.193a3.561 3.561 0 1 0-6.397 3.132l9.397 19.194ZM154.05 126.676a3.562 3.562 0 1 0 6.398-3.132l-9.397-19.194a3.562 3.562 0 1 0-6.398 3.132l9.397 19.194Z" fill="#6EC030"/><path d="m162.081 118.778 19.194-9.397a3.562 3.562 0 0 0-3.133-6.397l-19.193 9.397a3.561 3.561 0 1 0 3.132 6.397ZM155.55 137.839l19.193-9.397a3.562 3.562 0 1 0-3.132-6.398l-19.193 9.397a3.561 3.561 0 1 0 3.132 6.398Z" fill="#6EC030"/></svg>