<svg width="129" height="100" fill="none" xmlns="http://www.w3.org/2000/svg"><path d="m-2.096 119.565-7.433-10.995a4.456 4.456 0 0 1-.05-4.875l.815-1.267.083-.21a11.028 11.028 0 0 0 7.9.08l.394-.246a14.804 14.804 0 0 0 4.108 5.564l-.114.137-3.642 5.661a13.258 13.258 0 0 0-2.06 6.151Z" fill="#fff"/><path d="M31.614 80.093a13.358 13.358 0 0 0-7.472 4.25 17.13 17.13 0 0 0-1.903-1.462A15.499 15.499 0 0 0-.387 102.053l-.395.246c-2.553.95-5.366.921-7.9-.08a9.992 9.992 0 0 1-1.944-.987 11.072 11.072 0 0 1-4.815-11.628 9.252 9.252 0 0 1-2.764-1.146 8.857 8.857 0 0 1-2.657-12.24c.167-.26.379-.467.553-.697A11.07 11.07 0 0 1-9.289 58.39c.138-.254.237-.532.405-.793a10.984 10.984 0 0 1 18.844.46 8.87 8.87 0 0 1 10.024-.319l.161.078a15.455 15.455 0 0 0 5.687 19.48 15.654 15.654 0 0 0 5.558 2.206c.06.203.135.4.224.592Z" fill="#2F5224"/><path d="M93.544 86.627a15.445 15.445 0 0 1-11.328 7.01 15.203 15.203 0 0 0-3.972-3.688 15.499 15.499 0 0 0-21.42 4.65 16.499 16.499 0 0 0-1.102 2.081 17.519 17.519 0 0 0-8.487-1.826 13.246 13.246 0 0 0-15.62-14.76 4.31 4.31 0 0 1-.225-.593 15.658 15.658 0 0 1-5.558-2.206 15.455 15.455 0 0 1-5.687-19.48c.285-.677.632-1.327 1.037-1.94.408-.628.862-1.224 1.36-1.785-.057-.036-.106-.04-.162-.077A11.07 11.07 0 0 1 34.36 35.392c.074.048.118.102.174.138a12.35 12.35 0 0 1 1.023-2 11.07 11.07 0 0 1 15.3-3.322 10.831 10.831 0 0 1 3.203 3.166 15.468 15.468 0 0 1 20.439 6.33 15.468 15.468 0 0 1 15.594 23.641 14.457 14.457 0 0 1-1.347 1.767l.149.095a15.5 15.5 0 0 1 4.65 21.42Z" fill="#F4AB3E"/><path d="M17.12 123.58a15.64 15.64 0 0 1-3.59-12.181c-.555-.01-1.11-.05-1.66-.12a15.55 15.55 0 0 1-6.401-2.328 11.885 11.885 0 0 1-1.748-1.335 14.804 14.804 0 0 1-4.108-5.564 15.5 15.5 0 0 1 22.626-19.17c.668.441 1.303.93 1.903 1.46a13.358 13.358 0 0 1 7.472-4.249 13.244 13.244 0 0 1 15.62 14.76 17.518 17.518 0 0 1 8.488 1.827c.317-.719.685-1.415 1.102-2.081a15.499 15.499 0 0 1 21.42-4.65c1.534.981 2.88 2.23 3.972 3.687.253.32.486.654.699 1.002a12.178 12.178 0 0 1 9.224 18.729 12.276 12.276 0 0 1-5.69 4.711 15.504 15.504 0 0 1 1.43 13.562 15.508 15.508 0 0 1-9.839 9.442 15.51 15.51 0 0 1-13.49-1.986 15.507 15.507 0 0 1-6.7-11.877 17.935 17.935 0 0 1-5.096 2.356 17.592 17.592 0 0 1-10.562-.239 18.039 18.039 0 0 1-3.87-1.884c-.428-.275-.813-.576-1.211-.858a15.5 15.5 0 0 1-19.991-3.014Z" fill="#F4AB3E"/><path d="M70.915 129.99a15.506 15.506 0 0 1-7.076-12.082 17.937 17.937 0 0 1-5.096 2.356 17.584 17.584 0 0 1-10.562-.239 18.033 18.033 0 0 1-3.87-1.883c-.427-.276-.813-.576-1.21-.859a15.492 15.492 0 0 1-22.307-6.618 15.458 15.458 0 0 1-1.275-8.577c-.555-.01-1.11-.05-1.66-.12a15.542 15.542 0 0 1-6.401-2.328 11.874 11.874 0 0 1-1.748-1.334 14.81 14.81 0 0 1-4.107-5.565 15.514 15.514 0 0 1-.938-9.29 15.47 15.47 0 0 0-5.052 18.601 14.804 14.804 0 0 0 4.108 5.564c.54.498 1.125.945 1.748 1.335a15.535 15.535 0 0 0 8.06 2.448 15.455 15.455 0 0 0 6.967 15.117 15.5 15.5 0 0 0 16.615.078c.398.282.783.583 1.212.858 1.21.78 2.509 1.413 3.87 1.884a17.592 17.592 0 0 0 10.56.239 17.935 17.935 0 0 0 5.096-2.356 15.464 15.464 0 0 0 30.591 2.239 15.476 15.476 0 0 1-17.525.532Z" fill="#B2BD2E"/><path d="m86.478 118.131-.092-.041a12.512 12.512 0 0 1-16.652 1.925 13.586 13.586 0 0 1-6.263-9.675 13.396 13.396 0 0 1-4.053 1.618c-2.87.63-5.86.414-8.61-.621a17.028 17.028 0 0 1-3.228-1.623c-.361-.233-.688-.482-1.023-.719a11.463 11.463 0 0 1-3.953 1.366 13.737 13.737 0 0 1-9.57-2.107 14.467 14.467 0 0 1-2.87-2.419 12.826 12.826 0 0 1-3.428-9.609c-.45-.026-.898-.085-1.357-.162a14.421 14.421 0 0 1-5.309-2.072 11.16 11.16 0 0 1-1.477-1.109 13.404 13.404 0 0 1-3.576-4.493 11.825 11.825 0 0 1-.985-7.955 15.513 15.513 0 0 0-9.354 3.016c-.649 3.12-.322 6.363.937 9.29a14.81 14.81 0 0 0 4.108 5.565c.536.497 1.117.944 1.735 1.335a15.544 15.544 0 0 0 6.4 2.327c.552.07 1.106.11 1.661.12a15.458 15.458 0 0 0 6.967 15.117 15.498 15.498 0 0 0 16.614.078c.398.283.784.583 1.212.859a18.03 18.03 0 0 0 3.87 1.883 17.576 17.576 0 0 0 10.56.239 17.935 17.935 0 0 0 5.097-2.356 15.478 15.478 0 0 0 24.583 11.562 15.433 15.433 0 0 0-1.944-11.339Z" fill="#F4AB3E"/><path d="M88.485 96.537a12.128 12.128 0 0 0-5.57-1.899 10.082 10.082 0 0 0-.699-1.002 15.203 15.203 0 0 0-3.972-3.687 15.499 15.499 0 0 0-21.42 4.65 16.497 16.497 0 0 0-1.102 2.081 17.518 17.518 0 0 0-8.487-1.826 13.265 13.265 0 0 0-23.093-10.511l-.137-.115-3.594 5.587.137.114a13.358 13.358 0 0 1 7.473-4.25 13.245 13.245 0 0 1 15.62 14.761 17.509 17.509 0 0 1 8.487 1.827c.318-.72.686-1.415 1.102-2.082a15.498 15.498 0 0 1 21.42-4.65c1.534.981 2.88 2.23 3.973 3.688.253.32.486.654.698 1.002a12.179 12.179 0 0 1 11.014 10.282 12.18 12.18 0 0 1-.374 5.358 12.093 12.093 0 0 0 4.116-10.035 12.081 12.081 0 0 0-5.592-9.293Z" fill="#8EE05B"/><path d="M75.924 81.612a20.551 20.551 0 0 0-31.35-9.558c1.682-2.46-.04-5.817-2.116-7.958a24.522 24.522 0 0 0-12.086-6.722 15.162 15.162 0 0 1-3.06-.712c-1.044-.48-1.957-1.233-3.035-1.69a16.519 16.519 0 0 0-1.905-.659c-.431.494-.828 1.016-1.19 1.562a11.874 11.874 0 0 0-1.037 1.94 15.454 15.454 0 0 0 5.687 19.48 15.658 15.658 0 0 0 5.558 2.206c.06.203.135.4.224.592a13.244 13.244 0 0 1 15.62 14.76 17.518 17.518 0 0 1 8.488 1.827c.317-.72.685-1.415 1.102-2.082a15.499 15.499 0 0 1 21.42-4.65c1.534.982 2.88 2.23 3.972 3.688a15.443 15.443 0 0 0 9.678-4.91 17.414 17.414 0 0 0-15.97-7.114Z" fill="#E69D30"/><path d="M95.733 75.399c-.615-.395-1.211-.819-1.854-1.174a18.778 18.778 0 0 0-13.817-2.196 16.492 16.492 0 0 0-20.833-12.256 15.14 15.14 0 0 0-21.036-9.088 12.433 12.433 0 0 0-6.03-7.378 18.612 18.612 0 0 0-9.417-2.14 24.8 24.8 0 0 0-5.01.668 11.04 11.04 0 0 0 4.644 12.178c.056.036.105.041.161.077-.06.07-.1.155-.167.22.648.18 1.284.4 1.905.659 1.078.456 1.992 1.21 3.036 1.69.993.342 2.018.58 3.06.712a24.521 24.521 0 0 1 12.085 6.721c2.084 2.13 3.799 5.497 2.115 7.958a20.551 20.551 0 0 1 31.35 9.562 17.415 17.415 0 0 1 15.962 7.108 15.19 15.19 0 0 0 3.835-13.328l.011.007Z" fill="#B2BD2E"/><path d="M-17.991 80.27a47.726 47.726 0 0 1 4.718-3.983 5.165 5.165 0 0 1-1.417-3.281 8.469 8.469 0 0 1 3.161-7.513 7.59 7.59 0 0 1 3.98-1.48 7.386 7.386 0 0 1 2.133.139c.462.1 1.652.779 1.995.533.303-.218.228-2.107.295-2.506.132-.95.332-1.888.596-2.81a14.203 14.203 0 0 1 2.56-5.035 11.451 11.451 0 0 1 1.745-1.697 11.04 11.04 0 0 0-10.659 4.959c-.168.26-.267.539-.405.793a11.07 11.07 0 0 0-11.02 17.131c-.174.23-.386.437-.553.697a8.821 8.821 0 0 0-.522 8.616 20.898 20.898 0 0 1 3.393-4.563Z" fill="#39632C"/><path d="M31.39 79.501a15.658 15.658 0 0 1-5.558-2.206 15.454 15.454 0 0 1-5.687-19.48l-.16-.078a8.856 8.856 0 0 0-9.841.204c-.648 2.288-1.09 4.638-1.521 6.978-.143.761-.283 1.524-.36 2.295a12.82 12.82 0 0 0 .06 3.87c-1.047.001-2.093.093-3.125.275a13.314 13.314 0 0 0-2.997 1.066A15.498 15.498 0 0 0-2.76 76.34a24.355 24.355 0 0 0-4.931 11.55 12.514 12.514 0 0 0-7.889 2.78 11.028 11.028 0 0 0 4.955 10.559c.61.399 1.262.731 1.945.988a11.033 11.033 0 0 0 7.9.08l.394-.246a15.5 15.5 0 0 1 22.626-19.17c.667.441 1.303.93 1.903 1.46a13.358 13.358 0 0 1 7.472-4.249 4.32 4.32 0 0 1-.224-.592Z" fill="#A7E02E"/><path d="M-7.697 87.898a24.355 24.355 0 0 1 4.931-11.55 15.499 15.499 0 0 1 4.963-3.916 13.315 13.315 0 0 1 2.997-1.065 18.072 18.072 0 0 1 3.125-.275 12.82 12.82 0 0 1-.062-3.87c.078-.771.218-1.534.36-2.296.432-2.34.88-4.699 1.522-6.977-.06.04-.125.072-.184.114a10.665 10.665 0 0 0-8.192-5.42A11.456 11.456 0 0 0 .02 54.34a14.204 14.204 0 0 0-2.56 5.035c-.265.922-.464 1.86-.597 2.81-.057.405.018 2.294-.295 2.506-.342.245-1.533-.433-1.995-.533a7.393 7.393 0 0 0-2.132-.14 7.591 7.591 0 0 0-3.98 1.481 8.47 8.47 0 0 0-3.161 7.513 5.165 5.165 0 0 0 1.417 3.28 47.73 47.73 0 0 0-4.722 3.982 20.899 20.899 0 0 0-3.378 4.559 8.781 8.781 0 0 0 3.179 3.624 9.25 9.25 0 0 0 2.764 1.146c-.075.358-.106.722-.145 1.076a12.514 12.514 0 0 1 7.89-2.78Z" fill="#F4AB3E"/><path d="M22.746 41.167a19.927 19.927 0 0 1 7.238 1.152 11.042 11.042 0 0 1 14.883-2.8 10.835 10.835 0 0 1 3.203 3.166 15.468 15.468 0 0 1 20.438 6.329 15.453 15.453 0 0 1 18.006 16.619 47.355 47.355 0 0 0 2.38-.426l-.15-.095c.494-.554.945-1.144 1.348-1.767a15.467 15.467 0 0 0-15.594-23.642 15.468 15.468 0 0 0-20.44-6.329 10.831 10.831 0 0 0-3.202-3.166 11.07 11.07 0 0 0-15.3 3.322 12.35 12.35 0 0 0-1.023 2c-.056-.036-.1-.09-.174-.138a11.07 11.07 0 0 0-15.3 3.321 10.76 10.76 0 0 0-1.615 4.656c.06-.519.155-1.032.286-1.538a24.795 24.795 0 0 1 5.016-.664Z" fill="#B2BD2E"/></svg>