<svg width="76" height="132" fill="none" xmlns="http://www.w3.org/2000/svg"><path d="M66.934 65.59c3.34 18.248-23.347 18.419-23.347 18.419 2.89-16.843 13.53-22.249 23.347-18.419Z" fill="#9DCC6B"/><path d="M62.964 64.683c-1.023 9.177-11.231 12.224-17.847 13.262 4.26-12.708 12.823-13.836 17.847-13.262Z" fill="#B5E08C"/><path d="M81.285 40.96s9.295 25.017-8.954 28.357a17.602 17.602 0 0 1-3.266-5.736c-3.304-9.721 3.419-17.301 12.22-22.621Z" fill="#9DCC6B"/><path d="M78.95 42.456c1.273 7.468 1.195 18.547-9.885 21.125-1.77-5.208-1.675-13.273 9.885-21.125Z" fill="#B5E08C"/><path d="M61.467 7.135c18.204 39.433-8.537 43.684-16.65 33.538-7.845-9.801 6.545-26.407 16.65-33.538Z" fill="#9DCC6B"/><path d="M58.605 9.356C68.878 36.11 55.73 44.569 44.83 40.655c-7.305-9.083 4.4-23.532 13.775-31.3Z" fill="#B5E08C"/><path d="M37.174 61.938c-.57 8.214-9.435 15.856-34.271 14.116 2.08-8.208 7.691-20.142 15.091-25.395 10.076-7.203 19.886 2.6 19.18 11.279Z" fill="#9DCC6B"/><path d="M36.575 57.38C34.11 63.913 25.23 69.231 5.533 68.358c2.387-5.764 6.537-13.314 12.424-17.645 8.652-6.22 16.414-.223 18.618 6.666Z" fill="#B5E08C"/><path d="M54.897 59.935c-6.692-4.621-7.843-23.27-.041-34.569a2.187 2.187 0 0 1 3.598 2.485c-7.056 10.218-5.012 25.765-1.072 28.486a2.186 2.186 0 1 1-2.485 3.598Z" fill="#BE927C"/><path d="M86.724 79.256a2.187 2.187 0 0 1-3.041.556l-36.234-25.02c-3.922-2.708-19.202.875-26.259 11.093a2.186 2.186 0 0 1-3.041.557c-6.135-4.236 20.99-22.702 31.785-15.248 36.78 25.77 38.778 25.183 36.79 28.062Z" fill="#BE927C"/><path d="m128.876 60.538 1.799 1.242-44.724 64.767-1.8-1.242a13.12 13.12 0 0 1 .951-22.193 21.865 21.865 0 0 1 23.357-33.823 13.121 13.121 0 0 1 7.79-10.017 13.12 13.12 0 0 1 12.627 1.266Z" fill="#A87E6B"/><path d="m128.876 60.538 1.799 1.242L88.87 122.32a13.12 13.12 0 0 1 4.115-19.079 21.862 21.862 0 0 1 14.229-34.226c1.578.292 1.139.467 1.349-.184a13.114 13.114 0 0 1 20.313-8.292Z" fill="#BE927C"/></svg>