<svg width="105" height="92" fill="none" xmlns="http://www.w3.org/2000/svg"><path d="M.822 51.243c-7.081-17.953-4.214-35.902 6.405-40.09 10.619-4.19 24.968 6.969 32.05 24.922 7.081 17.953 4.214 35.902-6.405 40.09-10.619 4.19-24.968-6.969-32.05-24.922Z" fill="#F4920B"/><path d="M48.3 91.76c0-25.147 20.385-45.533 45.533-45.533h.877a10.09 10.09 0 0 1 10.089 10.09v.877c0 25.147-20.386 45.533-45.533 45.533h-.877a10.09 10.09 0 0 1-10.09-10.09v-.876Z" fill="#378900"/><path d="M81.686 71.91h15.409a2.568 2.568 0 1 1 0 5.135h-15.41a2.568 2.568 0 0 1 0-5.136ZM71.413 82.182h15.409a2.568 2.568 0 0 1 0 5.136h-15.41a2.568 2.568 0 1 1 0-5.136Z" fill="#216600"/><path d="m54.5 96.527 34.89-34.89 4.073-4.074a3.632 3.632 0 0 1 5.136 5.137l-4.072 4.072-34.891 34.891a3.633 3.633 0 0 1-5.137 0 3.632 3.632 0 0 1 0-5.136Z" fill="#216600"/><path d="M68.177 61.419a2.569 2.569 0 0 1 1.744 4.454 35.58 35.58 0 0 0-5.758 6.855 2.568 2.568 0 0 1-4.324-2.77 40.373 40.373 0 0 1 1.963-2.787l.073-.095.002-.003.018-.022v-.002l.053-.067.005-.006.015-.02.004-.005.05-.063.006-.008.014-.018.007-.01.047-.058.007-.01.013-.016.01-.012.012-.015.017-.022.013-.016a.396.396 0 0 1 .011-.015l.011-.013.013-.016.009-.012.021-.026.007-.009.016-.02.008-.01.015-.018.008-.011.022-.027.004-.005.019-.024.007-.008.017-.022.005-.007.047-.058.005-.006.02-.023.004-.006.047-.058.005-.006.02-.025.004-.004.049-.06v-.001l.024-.03.002-.002a40.763 40.763 0 0 1 3.816-4.052l.002-.002.027-.025.001-.001a2.56 2.56 0 0 1 1.743-.682Zm26.35-10.055H94.646l.015.001H94.68l.015.001H94.714l.015.001H94.748l.015.002H94.782l.015.001H94.816l.014.002h.02l.014.002H94.883l.014.002h.017l.003.001.014.001h.002l.015.001h.002l.014.001h.002l.014.002h.002l.014.001H95l.014.002h.003l.014.001h.002l.014.002h.003l.013.001h.004l.013.002h.003l.014.001h.003l.013.002h.004l.013.002h.003l.013.002h.004l.013.001h.003l.013.002h.004l.012.002h.004l.013.002h.004l.012.002h.004l.013.002h.004l.012.003h.004l.013.002h.003l.013.002h.004l.012.002h.004l.012.003h.004l.013.002h.003l.012.002h.004l.012.003h.005l.01.002.006.001.011.002h.004l.012.002.005.001.011.002h.005l.01.003h.007l.01.002.005.001.01.002.006.001.01.002h.006l.01.003h.006l.011.003h.005l.011.003h.005l.011.003h.005l.011.003h.006l.01.003.006.001.01.002.006.001.01.003h.005l.011.003h.006l.01.003.005.001.011.002.006.002.01.002.005.001.01.002.006.002.01.002h.006l.009.003.007.002.009.002.006.001.01.002.006.002.009.002.007.001.008.002.007.002.009.002.007.002.008.002.008.002.008.002.006.001.01.003.006.001.01.003.005.001.01.003.005.001.01.003.006.001.01.003.005.001.01.003.006.001.01.003.006.002.01.002.005.002.01.003h.005l.01.004.006.001.01.003.005.002.01.003.006.001.01.003.005.002.01.003.005.001.01.003.006.002.01.003.005.001.011.003.004.002.011.003.004.001.011.004h.004l.011.004.004.002.012.003.002.001.012.004h.004l.011.005h.003l.012.005h.003l.013.005h.002l.013.005h.002l.012.005h.003l.013.005h.002l.013.005h.002l.012.005h.003l.012.005.003.001.012.005h.002l.014.005h.001l.014.005.014.006h.002l.013.005h.001l.014.006.015.005.015.006c.053.02.106.04.158.063a2.568 2.568 0 0 1-1.974 4.742.281.281 0 0 0-.1-.013h-.692a35.014 35.014 0 0 0-12.558 2.31 2.568 2.568 0 1 1-1.838-4.796 40.035 40.035 0 0 1 4.979-1.542l.03-.008h.001l.243-.057h.002l.027-.007h.004l.027-.007h.002l.028-.007h.003c.06-.015.12-.028.182-.042h.002l.028-.007h.002l.028-.006.004-.001.027-.006h.002l.028-.007h.002l.03-.007.152-.033.005-.001.026-.006h.004l.025-.006.006-.001.025-.006h.005l.026-.006.004-.001.028-.006h.002l.152-.032.004-.001.026-.006h.005l.024-.006.007-.001.023-.005.007-.002.023-.004.007-.002.026-.005h.003l.03-.007.093-.019h.001l.028-.005.006-.002.024-.004.007-.002.023-.004.007-.002.024-.005h.006l.025-.006h.005l.025-.006h.005l.028-.006h.002l.092-.018h.002l.028-.006.006-.001.024-.005h.006l.024-.005.008-.002.023-.004.006-.002.024-.004.007-.001.024-.005.006-.001.027-.005h.003l.092-.018h.003l.026-.005.007-.001.023-.005.009-.001.02-.004.01-.002.021-.004.01-.001.02-.004.01-.002.022-.004.008-.001.023-.004.007-.002.09-.016h.005l.026-.005.007-.001.023-.004.008-.002.022-.004.009-.001.022-.004.008-.001.022-.004.008-.002.023-.004h.007l.026-.005.004-.001.093-.016h.002l.027-.005h.007l.023-.005.01-.001.02-.004.01-.001.02-.004.01-.001.022-.004.008-.001.022-.004.009-.001.023-.004.006-.001.03-.005.062-.01h.006l.024-.005.009-.001.021-.004.01-.001.02-.003.01-.002.02-.003.01-.002.021-.003.01-.002.02-.003.01-.001.02-.003.011-.002.022-.003.008-.002.028-.004h.006l.027-.005.007-.001.023-.003.01-.002.02-.003.01-.002.02-.002.011-.002.02-.003.01-.002.02-.002.01-.002.02-.003.011-.002.019-.002.012-.002.02-.003.01-.002.06-.008.008-.001.022-.004.012-.001.019-.003.01-.002.02-.002.012-.002.018-.003.012-.001.018-.003.013-.002.018-.002.011-.002.02-.002.01-.002.024-.003.006-.001.027-.004h.004l.03-.004.008-.001.023-.004h.01l.02-.004.012-.001.018-.003.013-.001.017-.003.013-.001.018-.003.013-.001.017-.003.013-.001.017-.003.013-.001.018-.003.013-.001.02-.003.01-.001.03-.004.008-.001.022-.003.011-.001.02-.003.011-.001.019-.003.012-.001.018-.002.012-.002.018-.002.013-.002.018-.002.013-.002.017-.002.013-.001.02-.003.01-.001.023-.003h.008l.03-.004.008-.001.022-.003.012-.001.018-.003.013-.001.017-.002.014-.002.017-.002.014-.001.016-.002.014-.002.017-.002.013-.001.017-.002.014-.002.017-.002.013-.001.02-.003h.01l.03-.004.008-.001.023-.003h.011l.019-.003.012-.001.018-.002.014-.002.017-.002.013-.001.017-.002.015-.002.015-.001.014-.002.017-.002.014-.001.017-.002.013-.001.02-.002.01-.001.03-.004h.008l.023-.003.013-.001.017-.002.015-.001.015-.002.016-.002.015-.001.015-.002.015-.001.016-.002.014-.001.016-.002.015-.001.015-.002.017-.001.013-.002.018-.001.013-.002.019-.001.024-.003.017-.001.013-.002.018-.001.013-.002.017-.001.014-.002.017-.001.013-.001.018-.002.013-.001.017-.002.014-.001.017-.001.014-.002.016-.001.014-.002.017-.001.014-.001.03-.003h.008l.022-.003h.012l.02-.002.012-.001.017-.002.015-.001.016-.002h.014l.016-.002.015-.001.016-.002h.015l.016-.002.014-.001.018-.002h.013c.006-.002.014-.002.021-.003h.009l.03-.003h.003l.028-.002.01-.001.02-.002h.013l.019-.002.012-.001.018-.002h.014l.016-.002.015-.001.016-.001.014-.001.017-.002h.014l.018-.002h.013l.017-.002.014-.001.024-.002h.007l.03-.002.01-.001.02-.002h.013l.018-.002h.013l.018-.002.014-.001.016-.001.015-.001.016-.001.014-.001.016-.001.015-.001.016-.001.015-.001.015-.001.016-.001.015-.001.027-.002.018-.001.015-.001.015-.001.016-.001.015-.001.016-.001.015-.001h.015l.016-.002h.016l.014-.002h.016l.016-.002h.015l.015-.001.016-.001.015-.001.016-.001h.014l.032-.003h.013l.016-.001.015-.001.017-.001h.013l.018-.002h.014l.016-.001.014-.001h.016l.016-.002h.015l.015-.001.016-.001h.015l.016-.002h.016l.014-.001.02-.001h.011l.03-.002h.01l.022-.002h.01l.02-.001h.013l.018-.001.014-.001h.017l.015-.002h.03l.017-.002h.032l.013-.001.02-.001h.01l.029-.002h.002l.032-.001h.009l.022-.001h.012l.018-.002h.031l.014-.001.017-.001h.015l.017-.001h.013l.019-.001h.012l.02-.001h.011l.02-.001h.011l.022-.002h.04l.01-.001h.021l.012-.001h.019l.014-.001h.018l.012-.001h.019l.013-.001h.031l.018-.001h.014l.018-.001h.012l.019-.001H92.818l.008-.001h.032l.032-.002H92.93l.02-.001h.044l.019-.001h.013l.017-.001h.045l.02-.001h.042l.032-.001h.031l.01-.001H93.277l.012-.001h.063l.019-.001h.098l.008-.001h.106l.02-.001H94.526Z" fill="#9FE27C"/><path d="M100.455 48.896a2.561 2.561 0 0 1 1.963.91 10.047 10.047 0 0 1 2.249 4.874l.002.014h.001l.002.014.015.097.002.014v.001l.002.013v.001l.012.082v.002l.002.011v.004l.002.01v.005l.002.01v.004l.002.01v.004l.002.011v.001l.007.054v.002l.001.01.001.005.001.01.001.005.001.01v.005l.002.01v.004l.001.01.001.005.004.037v.001l.002.01v.006l.001.009.001.005.001.01v.005l.001.01.001.005.001.01.001.005.001.01v.003l.004.038v.002l.001.01.001.004.001.01v.005l.001.01.001.005.001.01v.005l.001.01.001.005v.01l.001.006.001.008.001.008.001.015v.006l.001.01.001.005.001.01v.005l.001.009v.007l.001.008.001.007v.008l.001.007v.008l.001.007.001.008v.007l.002.021v.001l.001.01v.006l.001.008v.007l.001.008v.007l.001.008.001.008v.007l.001.008v.007l.001.009v.006l.001.01v.01l.001.01.001.007v.009l.001.007v.015l.001.008v.008l.001.007v.008l.001.008v.007l.001.008v.016l.001.006.001.015v.016l.001.005v.016l.001.01v.005l.001.01v.016l.001.005v.016l.001.012v.018l.001.005v.017l.001.01v.03l.001.007v.025l.001.006v.015l.001.015v.038l.001.009v.047l.001.006v.083l.001.01V57.194c-.001 25.147-20.387 45.533-45.534 45.533H58.275l-.015-.001h-.054l-.008-.001h-.038l-.01-.001H58.122l-.007-.001h-.03l-.008-.001h-.023l-.008-.001H58.024l-.034-.002h-.02l-.01-.001h-.015l-.005-.001h-.014l-.01-.001h-.004l-.068-.003-.001-.001h-.015l-.013-.001h-.002l-.013-.001a9.992 9.992 0 0 1-1.22-.145 2.561 2.561 0 0 1-2.055-1.982 2.568 2.568 0 0 1 2.97-3.072c.295.053.595.08.894.08h.877c22.275 0 40.397-18.122 40.397-40.397v-.877a4.89 4.89 0 0 0-1.167-3.195 2.568 2.568 0 0 1 1.959-4.226Z" fill="#216600"/><path d="M44.227 101.663 89.39 56.5l4.073-4.073a3.632 3.632 0 0 1 5.136 5.137l-4.072 4.072L49.363 106.8a3.633 3.633 0 0 1-5.136 0 3.634 3.634 0 0 1 0-5.137Z" fill="#4DA900"/><path d="M86.822 51.364a2.568 2.568 0 0 1 2.568 2.568v10.272a2.568 2.568 0 1 1-5.136 0V53.932a2.568 2.568 0 0 1 2.568-2.569ZM61.14 71.91a2.568 2.568 0 0 1 2.569 2.567v15.41a2.568 2.568 0 1 1-5.137 0v-15.41a2.568 2.568 0 0 1 2.568-2.568ZM76.55 56.5a2.568 2.568 0 0 1 2.568 2.568v15.41a2.568 2.568 0 0 1-5.137 0v-15.41A2.568 2.568 0 0 1 76.55 56.5Z" fill="#4DA900"/><path d="M81.686 66.773h15.409a2.568 2.568 0 1 1 0 5.136h-15.41a2.568 2.568 0 0 1 0-5.136ZM71.413 77.045h15.409a2.568 2.568 0 0 1 0 5.137h-15.41a2.568 2.568 0 1 1 0-5.137Z" fill="#4DA900"/><path d="M48.3 87.318c2.836 0 5.136 2.3 5.136 5.136v15.41a5.136 5.136 0 0 1-10.273 0v-15.41c0-2.836 2.3-5.136 5.137-5.136Z" fill="#216600"/><path d="M57.614 92.083c-6.859-2.942-5.091-22.409 3.948-43.479 9.04-21.07 21.927-35.766 28.786-32.824 6.859 2.943 5.091 22.409-3.948 43.48-9.039 21.07-21.927 35.766-28.786 32.823Z" fill="#F4920B"/><path d="M56.004 56.5c-9.928 0-17.977-12.648-17.977-28.25S46.076 0 56.004 0c9.929 0 17.977 12.648 17.977 28.25S65.933 56.5 56.004 56.5Z" fill="#F47B00"/><path d="M48.3 92.454c-19.857 0-35.955-16.097-35.955-35.954V41.09c0-19.856 16.098-35.954 35.955-35.954s35.954 16.098 35.954 35.955V56.5c0 19.857-16.097 35.954-35.954 35.954Z" fill="#F4AC03"/><path d="M48.3 5.136h.121l.212.002a5.136 5.136 0 0 1-.11 10.272H48.3a5.137 5.137 0 0 1-.047-10.274h.047Zm-12.445 2.61a5.142 5.142 0 0 1 2.068 9.843l-.184.082a5.765 5.765 0 0 1-.085.037 25.97 25.97 0 0 0-11.771 10.838 5.137 5.137 0 0 1-8.965-5.016A36.107 36.107 0 0 1 33.766 8.195l.003-.001.039-.018a5.103 5.103 0 0 1 2.047-.43Z" fill="#F4920B"/><path d="M82.002 19.07a2.567 2.567 0 0 1 2.238 1.306 39.783 39.783 0 0 1 4.205 10.973c.012.053.022.106.03.16.015.051.028.104.039.157.583 2.75.877 5.553.876 8.363v11.144a2.568 2.568 0 1 1-5.136 0V39.814l-.001-.014V39.685l-.001-.015v-.071l-.001-.015V39.526l-.001-.012V39.456l-.001-.016V39.4l-.001-.016v-.038l-.001-.02-.003-.134v-.027l-.001-.008V39.127l-.001-.019V39.08l-.001-.009v-.018l-.001-.01V39.014l-.001-.02v-.009l-.001-.019v-.01l-.001-.018V38.91l-.001-.01v-.02l-.001-.008v-.02l-.001-.008v-.02l-.001-.008v-.02l-.001-.009v-.02l-.001-.007v-.022l-.001-.006v-.022l-.001-.005v-.023l-.001-.005-.014-.33v-.002l-.001-.026v-.002l-.002-.026v-.002l-.001-.026v-.002l-.002-.024v-.005l-.001-.024v-.003l-.001-.026v-.002l-.002-.026v-.001l-.001-.026v-.003l-.002-.026v-.001l-.002-.027a34.97 34.97 0 0 0-.47-4.103l-.001-.005-.004-.02-.001-.007-.004-.019-.001-.009-.003-.018-.002-.01-.003-.015-.002-.012-.002-.014-.003-.014-.002-.013-.003-.015-.002-.012-.003-.016-.002-.01-.003-.017-.002-.011-.003-.017-.002-.01-.003-.017-.002-.011-.003-.018-.002-.009-.003-.018-.002-.01-.004-.02-.001-.006-.004-.022-.001-.005-.005-.025v-.002l-.005-.027c-.05-.261-.102-.521-.157-.78a2.558 2.558 0 0 1-.025-.134 2.558 2.558 0 0 1-.034-.137 34.48 34.48 0 0 0-.72-2.728l-.001-.001-.023-.075-.001-.003-.024-.075-.024-.077-.024-.076v-.001l-.025-.075v-.002l-.024-.074v-.003l-.025-.073v-.004l-.025-.072-.001-.004-.024-.072-.001-.005-.024-.071-.002-.006a14.19 14.19 0 0 0-.023-.07l-.003-.006-.023-.069-.002-.008a18.432 18.432 0 0 0-.024-.068l-.002-.007-.024-.07-.002-.006-.024-.069-.003-.008a17.872 17.872 0 0 0-.023-.067l-.003-.01-.023-.065-.004-.01-.015-.043-.001-.002-.007-.02-.004-.012-.013-.035-.003-.01-.007-.018-.004-.013-.01-.03-.006-.014-.007-.019-.004-.012-.01-.03-.006-.015-.007-.018-.005-.013-.01-.03-.006-.014-.006-.018-.005-.014-.008-.021-.008-.023-.007-.017-.005-.015-.009-.024-.007-.02-.006-.016-.006-.016-.008-.02-.008-.022-.006-.017-.006-.016-.008-.021-.008-.022-.006-.015-.007-.018-.006-.016-.01-.026-.005-.015-.007-.018-.007-.02-.01-.022-.005-.015-.007-.018-.007-.019-.008-.023-.006-.015-.007-.018-.008-.02-.008-.021-.006-.015-.008-.02-.005-.014-.01-.027-.006-.013-.008-.021-.005-.015-.01-.026-.005-.012-.01-.024-.003-.008-.012-.03-.004-.012-.01-.024-.004-.012-.011-.027-.005-.012-.01-.025-.003-.008-.012-.03-.004-.01-.01-.026-.004-.01-.012-.028-.004-.01-.011-.028-.003-.006-.012-.03-.004-.01-.01-.027-.005-.01-.01-.028-.005-.01-.013-.03v-.002l-.013-.032-.004-.01-.012-.029-.002-.005-.013-.03-.003-.009-.014-.032v-.002l-.014-.032-.003-.007-.013-.033-.001-.002-.013-.031-.003-.008-.028-.067-.003-.006-.029-.068-.002-.006-.015-.034-.014-.033-.003-.006-.014-.034v-.001l-.014-.032-.003-.007-.029-.067-.002-.006-.015-.034-.015-.034-.002-.005-.015-.034-.015-.034-.002-.005-.015-.034v-.002l-.015-.032-.002-.005-.03-.068-.002-.005-.015-.034v-.001l-.016-.034-.001-.003-.016-.035-.015-.035-.002-.003-.015-.035v-.001l-.016-.033-.001-.004-.032-.07-.001-.002-.032-.07-.001-.002-.032-.071-.001-.002-.033-.07v-.002l-.034-.072a37.336 37.336 0 0 0-.067-.143v-.002l-.017-.035v-.001l-.017-.034v-.002l-.034-.071a38.27 38.27 0 0 0-.156-.323l-.07-.142v-.002a22.58 22.58 0 0 0-.035-.07l-.036-.07v-.003a22.392 22.392 0 0 0-.035-.069l-.001-.002-.035-.068-.001-.003-.035-.069-.001-.001-.035-.07-.001-.001a22.402 22.402 0 0 0-.035-.069l-.002-.002a8.629 8.629 0 0 0-.035-.068l-.001-.004-.035-.067-.002-.003-.035-.067-.002-.004a41.404 41.404 0 0 0-.035-.067l-.001-.002-.036-.068-.002-.003-.035-.067-.002-.003-.035-.066-.002-.005-.036-.066-.002-.004-.035-.065-.003-.005-.035-.065-.002-.004L80 23.32l-.003-.005-.035-.065-.003-.005-.035-.063-.004-.008-.035-.062-.003-.007a19.283 19.283 0 0 0-.035-.062l-.004-.007-.034-.062-.005-.008-.017-.03-.001-.002-.016-.028-.002-.005a2.568 2.568 0 0 1 2.234-3.831Z" fill="#F47B00"/><path d="M12.659 30.505c-1.55-1.55 2.8-8.417 9.72-15.335C29.297 8.25 36.163 3.9 37.714 5.45c1.55 1.55-2.802 8.416-9.72 15.335-6.92 6.918-13.785 11.27-15.335 9.72Z" fill="#FFE754"/><path d="M53.436 41.09c-11.347 0-20.545-5.748-20.545-12.84s9.198-12.84 20.545-12.84c11.347 0 20.545 5.748 20.545 12.84s-9.198 12.84-20.545 12.84Z" fill="#F4920B"/><path d="M50.868 35.955c-7.092 0-12.841-4.6-12.841-10.273 0-5.674 5.749-10.273 12.84-10.273 7.092 0 12.842 4.6 12.842 10.273s-5.75 10.273-12.841 10.273Z" fill="#F47B00"/><path d="M50.868 15.41c7.091 0 12.84 4.598 12.84 10.272V25.835l-.001.01v.039l-.001.01v.021l-.001.012v.024l-.001.011v.016l-.001.006V26l-.001.01v.021l-.001.011v.005l-.001.013v.003l-.001.016v.019l-.002.012v.021l-.001.01v.006l-.001.01v.006l-.001.01v.006l-.001.012v.003l-.001.016v.004l-.001.012v.005l-.001.01v.006l-.001.01v.006l-.002.01v.016l-.001.005v.011l-.001.005-.001.015-.002.016v.016l-.001.005-.001.01v.006l-.002.01v.015l-.001.007-.001.01v.005l-.002.01v.006l-.001.014v.001l-.002.016v.004l-.002.011v.005l-.001.011v.005l-.002.01v.006l-.001.01v.006l-.002.01v.005l-.002.012v.003l-.003.032v.002l-.002.014v.003l-.002.012v.005l-.002.01v.006l-.002.01v.005l-.001.011-.001.005-.002.012v.003l-.004.032v.003l-.002.012v.005l-.002.01v.006l-.002.01v.005l-.002.01v.006l-.002.011v.004l-.002.013v.002l-.005.032v.003l-.002.012-.001.005-.002.01v.005l-.002.011v.005l-.002.01-.001.005-.002.012v.004l-.003.015-.005.032v.003l-.002.012v.004l-.003.012v.004l-.002.011v.004l-.003.012v.004l-.003.013v.002l-.008.047v.002l-.003.014v.002l-.003.013v.004l-.002.011-.001.004-.002.012v.003l-.003.014v.002l-.01.047v.002l-.002.013v.003l-.003.013-.001.003-.003.012v.003l-.003.013v.003l-.013.062v.002l-.003.014v.002l-.003.013v.003l-.004.013v.002l-.003.014v.002l-.014.062-.004.016-.003.015v.002l-.004.014v.001l-.003.014v.002l-.015.062v.001l-.004.015v.001l-.004.014v.002l-.003.013-.001.002-.003.014v.002l-.016.062-.004.015v.002l-.004.013v.003l-.004.013v.002l-.005.014v.001l-.016.062-.005.015v.002l-.004.014v.001l-.004.015a6.848 6.848 0 0 1-.022.078l-.005.015-.004.015v.001l-.005.015c-.01.037-.022.072-.033.109a9.056 9.056 0 0 1-1.03 2.201 9.365 9.365 0 0 1-.126.193l-.009.013v.001l-.009.012v.002l-.01.013-.046.068-.01.013v.001l-.009.012-.001.002-.008.012h-.001l-.047.068h-.001l-.009.013v.002l-.009.01-.002.003-.008.012-.049.067-.001.002-.008.01-.002.003-.008.01-.002.004-.008.01-.001.002-.01.012v.001l-.02.026v.001l-.009.012-.002.003-.007.01-.004.003-.006.01-.003.003-.006.009-.004.004-.006.009-.003.004-.008.01-.002.002-.02.026-.002.003-.007.01-.003.003-.007.009-.004.005-.005.007-.005.006-.005.006-.005.006-.005.007-.004.005-.006.009-.004.004-.01.012-.003.004-.006.008-.005.006-.005.007-.005.006-.005.006-.005.006-.004.006-.006.007-.004.005-.006.007-.004.005-.005.007-.005.006-.005.007-.001.001-.016.02-.002.002-.007.008-.003.004-.007.008-.003.004-.006.008-.004.004-.006.008-.003.004-.007.008-.003.003-.007.01-.002.001-.036.044-.009.01-.002.002-.008.01-.001.002-.009.01v.001l-.077.09c-.234.271-.483.532-.748.784a2.568 2.568 0 0 1-3.539-3.723c.645-.613 1.414-1.612 1.414-2.887 0-2.736-3.6-5.137-7.705-5.137a10.42 10.42 0 0 0-3.947.761c-2.282.95-3.757 2.668-3.757 4.376 0 .222.023.443.069.66a2.568 2.568 0 1 1-5.027 1.058 8.343 8.343 0 0 1-.162-1.2l-.001-.013v-.001l-.001-.013-.002-.04v-.011l-.001-.006v-.014l-.001-.01v-.003l-.002-.035v-.019l-.001-.01v-.015l-.001-.004v-.02l-.001-.004v-.023l-.001-.007v-.023l-.001-.013v-.023l-.001-.009v-.037l-.001-.015v-.053l-.001-.011V25.532l.001-.015v-.033l.001-.004v-.03l.001-.015v-.019l.001-.015v-.018l.002-.015v-.034l.001-.015v-.003l.001-.014v-.001l.001-.015v-.019l.002-.015v-.018l.001-.015.001-.015v-.003l.001-.014v-.001l.001-.015v-.004l.001-.011v-.004l.001-.014v-.003l.002-.013v-.018l.002-.015v-.003l.001-.015.001-.015v-.003l.001-.013v-.002l.002-.015v-.015l.001-.003.001-.015v-.002l.002-.013v-.003l.002-.03v-.003l.002-.014v-.002l.002-.014v-.003l.001-.012v-.004l.002-.014v-.003l.001-.012v-.004l.004-.03v-.003l.001-.013v-.001l.002-.015v-.004l.002-.012v-.003l.002-.014v-.003l.001-.012v-.004l.002-.014.002-.015v-.004l.002-.011v-.004l.002-.014v-.003l.002-.012v-.003l.002-.015v-.002l.002-.012v-.005l.002-.013v-.002l.002-.013v-.004l.002-.013v-.001l.002-.015v-.003l.002-.013v-.002l.003-.015v-.002l.002-.013v-.003l.002-.015.002-.014.001-.004.002-.013v-.001l.002-.015v-.003l.003-.012v-.003l.002-.015v-.002l.003-.013v-.003l.002-.014v-.001l.003-.014v-.004l.002-.013.003-.015v-.003l.002-.013v-.002l.003-.015v-.002l.003-.013v-.003l.003-.015.002-.015v-.002l.006-.03v-.002l.003-.014v-.001l.003-.015v-.002l.003-.014v-.002l.006-.03v-.002l.006-.03v-.002l.003-.013V24.1l.003-.015v-.002l.003-.013v-.002l.006-.03v-.002l.007-.03v-.002l.003-.014v-.001l.003-.015v-.002l.003-.014v-.001l.007-.03v-.002l.007-.03v-.002l.004-.015.003-.015v-.002l.004-.014.003-.016.004-.015v-.002l.007-.03v-.001l.004-.015.004-.015v-.002l.003-.014v-.002l.004-.014v-.001l.004-.014v-.002l.008-.03v-.002l.004-.014.003-.015.001-.002.003-.014v-.001l.005-.015v-.002l.003-.013v-.002l.009-.03v-.001l.008-.03v-.001l.012-.046v-.001l.01-.03v-.001l.008-.03v-.001l.013-.046.009-.032.01-.03.013-.047.01-.03v-.002l.009-.03c.643-2.08 2.077-3.909 4.033-5.273l.029-.02h.001l.028-.02h.001l.014-.01.014-.01h.001l.014-.01.029-.02.002-.001.012-.008.002-.001.013-.01.003-.001.011-.008.002-.001.014-.01.002-.001.011-.007.004-.003.026-.017.005-.003.009-.006.004-.003.012-.008.005-.003.008-.006.005-.003.012-.008.005-.003.008-.006.006-.003.01-.006.006-.005.009-.006.004-.003.01-.006.004-.003.012-.007.006-.004.007-.004.006-.004.011-.008.007-.004.006-.004.007-.004.009-.006.008-.005.007-.004.007-.005.006-.004.012-.008.005-.003.009-.005.004-.003.027-.017.004-.002.008-.006.003-.002.017-.01.003-.002.009-.005.003-.002.019-.012.01-.006.002-.001.03-.02c.605-.37 1.236-.692 1.89-.963.044-.018.088-.035.133-.051.042-.02.085-.038.13-.055a15.071 15.071 0 0 1 3.336-.882l.023-.003.113-.016.022-.003h.002l.02-.003h.003c.037-.006.075-.01.112-.015l.022-.003h.002l.02-.003h.003l.112-.014H49l.02-.002h.003l.02-.003h.002l.021-.003h.001l.068-.007h.002l.02-.003h.004l.018-.002h.005l.018-.002h.004l.02-.003h.002l.068-.007h.003l.02-.002h.004l.017-.002h.005l.018-.002h.005l.02-.002h.002l.068-.007h.003l.02-.002h.003l.018-.002h.005l.018-.002h.004l.02-.002h.003l.045-.003h.002l.02-.002h.005l.017-.002h.007l.016-.001h.006l.017-.002h.005l.02-.002h.002l.046-.003h.004l.018-.002h.006l.016-.001h.007l.015-.002h.007l.016-.001h.007l.018-.002h.003l.046-.003H49.945l.007-.001.015-.001h.007l.016-.001h.007l.015-.002h.026l.003-.001.023-.001h.003l.019-.001h.008l.014-.001h.009l.013-.001h.01l.013-.001h.008l.015-.001h.007l.02-.001h.002l.023-.001h.003l.02-.001h.006l.016-.001h.022l.009-.001h.022l.015-.001h.007l.02-.001h.002l.023-.001h.029l.016-.001h.022l.008-.001h.038l.007-.001h.022l.023-.001h.053l.015-.001h.053l.045-.001h.144Z" fill="#E45E00"/><path d="M46.668 96.195c-10.727-3.189-14.764-21.451-9.015-40.79C43.4 36.064 56.758 22.97 67.485 26.16 78.212 29.349 82.25 47.611 76.5 66.951c-5.748 19.34-19.105 32.433-29.832 29.244Z" fill="#FFD432"/><path d="M64.162 30.818c.634 0 1.266.09 1.874.271l.01.003.01.003.01.003.01.003h.002l.007.003.003.001.007.002.004.001.006.002.003.001.007.002.003.001.007.003h.003l.007.003h.003l.007.003h.002l.008.003h.002l.008.003.002.001.008.003h.002l.008.003h.002l.008.003h.002l.008.003.002.001.008.003h.001l.01.003.009.004h.001l.01.003c1.732.59 3.272 1.99 4.514 4.045l.007.011v.002l.007.01v.001l.007.012.014.023v.001l.029.047.084.145.014.024.007.012.001.001.006.01.001.003.006.01.001.002.006.01.001.002.006.01.001.002.005.01.002.003.005.009.002.003.005.008.002.004.004.008.004.005.003.006.003.006.004.007.003.005.004.008.002.004.006.009.001.003.006.01.001.002.006.01v.002l.007.01v.002l.006.01.001.003.006.01.001.002.007.012.034.062.003.006.004.006.004.007.002.005.005.008.002.004.004.008.003.005.003.006.004.007.002.005.004.007.003.006.004.006.003.006.003.006.004.007.003.005.004.007.002.006.005.008.002.004.004.008.003.005.003.007.004.005.003.007.003.006.004.007.002.004.005.008.002.005.004.008.002.004.005.008.002.004.005.01v.001l.006.01.001.003.006.01v.002l.006.01.002.004.005.009v.002l.006.01.002.003.011.023.018.035.001.002.003.005.004.008.004.008.002.004.005.01.002.003.005.01.001.002.005.01.002.003.011.023.001.002.005.01.002.003.004.008.003.005.004.01.002.002.005.01.001.003.005.01.001.002.006.01.001.003.005.01v.002l.007.011v.002l.006.01v.003l.006.01.002.004.005.01.006.012v.001c.046.093.092.187.137.282l.006.013.006.013.012.026.025.052c.304.656.573 1.328.807 2.012v.001l.005.014.04.12c.036.105.07.21.105.316l.004.015v.001l.005.013v.003l.005.013v.002l.005.013v.003l.005.013v.002l.004.012.002.004.004.013v.001l.004.013.001.004.004.011.001.005.004.01.001.005.004.012v.002l.005.013v.003l.01.028.018.062.002.004.006.022.002.005.004.014v.001l.004.01.002.007.004.014.003.011.002.006.003.01.002.005.002.01.003.006.002.01.002.005.003.01.002.007.003.008.002.007.002.009.003.008.002.008.002.007.003.009.002.007.002.008.003.009.002.006.003.011.001.004.004.011.001.006.003.01.002.006.003.009.002.007.003.01.002.006.002.008.002.008.003.009.002.007.003.01.002.006.002.01.002.006.003.009.002.007.003.01.001.006.004.011.001.005.003.01.002.006.001.004.005.016.017.06v.004l.004.013.001.003.004.013.001.004.004.012v.005l.004.011.002.005.003.012v.004l.004.012.001.004.004.012.001.005.003.011.002.006.003.01.001.005.004.013v.003l.004.012.001.005.003.01.002.007.003.011.001.004.004.013v.004l.004.013.001.003.004.013v.003l.005.016.004.015v.002l.005.015v.001l.004.015v.002c.13.479.249.972.357 1.48a2.568 2.568 0 0 1-5.023 1.069c-.973-4.547-2.714-6.613-3.636-6.89a1.446 1.446 0 0 0-.41-.057 2.568 2.568 0 0 1 0-5.137Z" fill="#FFEF7D"/><path d="M64.162 25.682h.001c1.133-.002 2.26.161 3.346.485l.015.005h.004l.011.004.004.001.012.004h.002c.544.166 1.075.372 1.588.616a2.568 2.568 0 0 1-2.212 4.636 6.346 6.346 0 0 0-2.77-.615c-6.796 0-16.723 9.73-21.574 26.01a56.025 56.025 0 0 0-2.407 14.832 2.568 2.568 0 0 1-5.136-.092c.036-1.795.165-3.644.39-5.531v-.006l.004-.022v-.006l.003-.022v-.005l.013-.102v-.004l.003-.021v-.008l.003-.02.001-.009.003-.02v-.007l.003-.022v-.001l.014-.104v-.005l.003-.02.001-.01.002-.019.002-.01.002-.02.001-.007.01-.071v-.004l.002-.02.002-.01.002-.019.001-.01.003-.019.001-.01.002-.017.002-.014.002-.016.002-.014.005-.034v-.007l.003-.017.002-.014.002-.015.001-.014.002-.014.003-.016.001-.014.002-.015.002-.015.002-.015.004-.026.002-.016.002-.016.002-.013.002-.015.002-.015.002-.015.002-.014.002-.015.002-.015.002-.015.002-.015.002-.014.003-.018.003-.024.002-.015.002-.015.002-.015.002-.014.002-.016.002-.014.002-.014.003-.015.002-.016.002-.014.004-.028v-.004l.004-.026.001-.011.003-.018.002-.014.002-.016.002-.013.003-.017.001-.013.003-.018.002-.011.003-.024v-.006l.005-.03.001-.006.003-.023.002-.011.003-.02.002-.01.002-.02.002-.01.003-.021.001-.009.004-.025v-.005l.005-.03v-.004l.005-.027v-.006l.004-.024.002-.008.003-.023.001-.008.004-.023v-.007l.004-.024.001-.007.01-.06v-.007l.004-.023.001-.01.004-.02.001-.01.003-.02.002-.01.003-.023.001-.007.005-.029v-.002l.005-.03v-.006l.005-.024v-.008l.004-.023.002-.008.003-.022.001-.009.004-.022.001-.009.015-.09v-.008l.004-.022.002-.01.003-.021.002-.009.003-.022.002-.008.004-.026v-.004l.01-.063.001-.002.005-.028v-.006l.005-.025v-.006l.005-.025v-.006l.005-.029.016-.094.001-.006.004-.025.001-.006.005-.026v-.005l.005-.03.016-.095v-.002l.005-.029.001-.004.005-.027v-.004l.006-.03.016-.095v-.003l.005-.029.001-.004.005-.026v-.005l.006-.03.022-.127v-.003l.005-.027.001-.005.005-.03.023-.128.006-.03v-.003l.005-.029.001-.003.005-.03v-.001l.018-.095v-.002l.006-.03v-.004l.005-.026.001-.005.005-.028.001-.003.023-.126.001-.004.005-.027.001-.005.005-.026v-.005l.006-.03.018-.096.001-.004.005-.026.002-.006.004-.026.001-.005.006-.028v-.003l.018-.095v-.001l.007-.03v-.004l.005-.026.002-.007.005-.026v-.005l.025-.126v-.002l.006-.028.001-.005.006-.028v-.003l.006-.028v-.004l.013-.063v-.003l.006-.029.001-.003.006-.027v-.006l.006-.026.001-.005.006-.028v-.003l.013-.063v-.003l.006-.027.002-.009.005-.023.001-.008.005-.025.001-.004.006-.027v-.005l.02-.095v-.002l.006-.028.002-.007.005-.025.001-.005.006-.029v-.002l.02-.096.007-.03v-.006l.006-.026.002-.006.005-.023.002-.01.005-.027v-.002l.02-.094.002-.007.006-.025v-.006l.006-.024.002-.008.005-.026.001-.005.02-.094.002-.004.006-.028v-.004l.006-.026.002-.008.005-.024.001-.006.006-.026.001-.006.014-.061.002-.01.005-.021.002-.01.004-.02.003-.011.004-.022.002-.009.005-.022.002-.009.021-.093.002-.007.005-.023.002-.01.005-.02.002-.01.004-.021.003-.012.005-.022.002-.007.007-.03.001-.008.006-.024.002-.008.004-.022.003-.012.004-.018.003-.014.004-.015.003-.015.005-.018.002-.012.006-.028.002-.008.006-.025.002-.008.005-.023.003-.01.004-.02.003-.01.005-.021.002-.012.005-.02.002-.01.005-.022.003-.013.006-.026.002-.009.005-.022.003-.009.005-.023.002-.008.005-.022.002-.01.006-.022.002-.009.007-.03.007-.032.001-.003.006-.027.003-.01.005-.022.002-.008.005-.024.003-.008.005-.023.002-.008.006-.024.001-.007.015-.062.002-.009.006-.022.002-.01.005-.02.003-.012.005-.02.002-.01.005-.021.002-.01.007-.027v-.004l.008-.03.002-.01.006-.021.002-.01.005-.02.003-.013.005-.02.003-.01.004-.02.004-.013.004-.018.003-.011.007-.03.002-.008.006-.024.002-.009.005-.02.004-.013.004-.018.003-.013.005-.018.003-.013.005-.019.002-.011.006-.022.005-.021.004-.017.004-.013.004-.018.004-.014.004-.016.003-.014.005-.018.003-.013.005-.022.002-.007.007-.028.002-.007.007-.027.003-.014.004-.015.005-.016.003-.015.004-.015.004-.016.004-.014.004-.018.004-.013.005-.02.002-.01.008-.03.003-.012.005-.018.004-.016.003-.014.005-.016.003-.014.005-.017.003-.014.004-.015.005-.018.003-.013.008-.03.002-.008.006-.021.004-.015.004-.016.004-.016.003-.013.005-.017.003-.014.005-.018.002-.008.017-.064.004-.016.004-.015.004-.015.004-.016.004-.014.005-.017.004-.015.003-.014.005-.017.004-.015.004-.016.004-.015.007-.028.004-.012.005-.02.003-.011.005-.018.004-.015.004-.016.004-.015.004-.014.004-.016.004-.015.017-.063.003-.011.005-.017.004-.014.005-.018.003-.011.005-.019.003-.01.005-.02.003-.01.005-.02.003-.012.01-.034.003-.013.005-.015.004-.015.004-.014.004-.018.004-.014.004-.014.005-.018.004-.013.004-.016.006-.02.003-.013.008-.027.004-.015.004-.015.005-.017.003-.013.005-.016.004-.015.005-.017.003-.012.005-.018.003-.01.02-.07.002-.008.005-.02.004-.011.004-.017.005-.015.004-.014.005-.018.003-.013.005-.017.004-.014.007-.024.005-.02.005-.015.005-.017.004-.014.004-.015.005-.016.004-.015.004-.016.005-.014.004-.017.005-.015.004-.015.007-.023.006-.021.003-.012.006-.02.003-.013.005-.016.005-.016.004-.015.004-.014.006-.02.003-.01.007-.024.002-.008.009-.03.003-.011.006-.02.003-.011.006-.02.004-.012.005-.019.004-.012.005-.018.004-.014.006-.022.003-.007.009-.031.002-.007.007-.025.003-.01.006-.02.004-.012.005-.02.004-.011.005-.02.004-.012.006-.02.003-.01.01-.031.111-.372.005-.014c5.225-17.158 16.434-29.288 26.374-29.293h.005Z" fill="#F4AC03"/><path d="M80.275 35.724a2.57 2.57 0 0 1 2.477 1.898c1.359 5.014 1.806 10.914 1.293 17.062-.004.052-.01.103-.017.153-.002.051-.005.102-.01.153a67.633 67.633 0 0 1-1.905 10.943 2.568 2.568 0 0 1-4.973-1.286 62.43 62.43 0 0 0 1.762-10.109c.004-.047.01-.093.016-.14a2.6 2.6 0 0 1 .008-.138c.028-.333.052-.661.074-.99l.002-.033.007-.098v-.001l.002-.03v-.004l.002-.03v-.002l.004-.064v-.001l.002-.031v-.003l.002-.03v-.002l.004-.064v-.002l.001-.029v-.005l.002-.027v-.004l.004-.063v-.005l.002-.025v-.007l.001-.024v-.008l.002-.028v-.002l.002-.03v-.008l.002-.023v-.01l.001-.02.001-.01.001-.026v-.004l.002-.03v-.009l.002-.02v-.012l.001-.017v-.014l.002-.018v-.011l.002-.028v-.012l.001-.018v-.013l.001-.016.001-.014.001-.017v-.013l.002-.026v-.018l.001-.011.001-.017v-.012l.001-.018v-.01l.002-.019v-.012l.002-.028v-.031l.001-.012.001-.018v-.012l.001-.017v-.003l.002-.042v-.009l.001-.019v-.009l.002-.02v-.03l.003-.044v-.035l.002-.02v-.008l.003-.069v-.033l.002-.02v-.006l.002-.072v-.003l.001-.021v-.007l.001-.021v-.006l.003-.097v-.004l.001-.023v-.004l.003-.1v-.002l.001-.023v-.005l.007-.255c.02-.876.02-1.738-.004-2.587v-.002a50.31 50.31 0 0 0-.011-.372l-.001-.024v-.003l-.004-.095v-.005a30.406 30.406 0 0 0-.004-.095v-.028l-.002-.022v-.003a32.009 32.009 0 0 0-.004-.096V47.626a30.12 30.12 0 0 0-.005-.097v-.002l-.001-.023V47.5l-.005-.094v-.004l-.001-.023v-.002a29.247 29.247 0 0 1-.005-.093v-.006l-.001-.02v-.006l-.001-.02v-.001l-.004-.07v-.005l-.001-.021v-.005l-.002-.021v-.003l-.004-.068v-.005l-.001-.019v-.008l-.002-.02v-.003l-.004-.065v-.008l-.001-.018v-.008l-.002-.019v-.007l-.003-.043v-.018l-.001-.009-.001-.017-.001-.01-.001-.018v-.008l-.004-.06v-.009l-.002-.017v-.01l-.002-.017v-.01l-.002-.017v-.008l-.002-.03v-.013l-.002-.015v-.012l-.002-.015v-.014l-.001-.013-.002-.02-.001-.017-.001-.016-.001-.013v-.013l-.002-.015v-.013L79 46.354 79 46.34l-.002-.022v-.014l-.002-.014v-.014l-.002-.014v-.013l-.001-.014-.002-.017-.001-.02-.001-.016-.001-.014-.001-.012-.002-.015v-.012l-.002-.015v-.014l-.002-.019-.002-.02v-.01l-.002-.017v-.012l-.002-.015v-.012l-.002-.02-.001-.01-.002-.024v-.011l-.002-.015-.001-.014-.001-.014-.001-.013-.002-.02v-.006l-.003-.027v-.01l-.002-.017v-.012l-.002-.016-.001-.01-.002-.022v-.006l-.003-.027v-.008l-.002-.02v-.01l-.003-.018v-.009l-.002-.023v-.004l-.003-.028v-.006l-.003-.022v-.008l-.002-.02v-.007l-.003-.026v-.002l-.003-.03-.002-.026-.001-.008-.002-.02v-.008l-.003-.024v-.003l-.003-.03-.002-.027v-.006l-.003-.023v-.005l-.003-.026v-.002a5.13 5.13 0 0 0-.006-.056v-.007l-.002-.022-.001-.006-.003-.025v-.002l-.005-.058v-.002l-.003-.027v-.002l-.003-.028v-.001l-.006-.058v-.002l-.003-.027v-.003l-.013-.115v-.002l-.003-.028-.006-.06-.003-.028v-.001a36.999 36.999 0 0 0-1.059-5.731 2.57 2.57 0 0 1 2.482-3.236Z" fill="#F4920B"/><path d="M11.257 70.211c-7.642-19.279-4.15-38.746 7.797-43.482 11.948-4.736 27.828 7.054 35.47 26.332 7.641 19.28 4.15 38.747-7.798 43.483-11.947 4.735-27.828-7.054-35.47-26.333Z" fill="#FFD432"/><path d="M24.621 30.818H24.694l.21.004a5.071 5.071 0 0 1 4.997 5.218 5.201 5.201 0 0 1-5.272 5.051h-.038c-.3.056-.605.084-.91.084a4.626 4.626 0 0 1-4.639-4.274 5.697 5.697 0 0 1 4.034-5.91c.05-.002.101-.004.151-.004a5.08 5.08 0 0 1 1.394-.169Zm12.41 7.64a5.125 5.125 0 0 1 3.853 1.738c3.024 3.427 5.852 7.775 8.136 13.013l.053.124.049.11.016.038.007.016.004.009.026.06.003.006.007.018.074.174a5.137 5.137 0 0 1-9.47 3.979l-.092-.212a5.353 5.353 0 0 1-.042-.104 5.126 5.126 0 0 1-.05-.111c-1.742-3.994-3.903-7.467-6.424-10.323a5.137 5.137 0 0 1 3.85-8.535Z" fill="#FFEF7D"/><path d="M18.73 27.135a2.54 2.54 0 0 1 2.237 1.338 2.598 2.598 0 0 1-1.027 3.501l-.162.09-.074.039a2.552 2.552 0 0 1-.087.053c-7.39 4.361-10.344 20.54-2.96 37.675a51.923 51.923 0 0 0 6.21 10.77 2.569 2.569 0 0 1-4.09 3.107 52.663 52.663 0 0 1-1.539-2.145l-.005-.007-.022-.032-.005-.009-.021-.03-.012-.018-.019-.028-.011-.016-.018-.026-.01-.016-.017-.025-.014-.021-.013-.02-.017-.025-.01-.015-.019-.028-.011-.017-.018-.026-.011-.017-.02-.03-.008-.011-.02-.03-.008-.012-.02-.032-.009-.012-.022-.033-.007-.011-.022-.033-.005-.008-.023-.034-.005-.009-.025-.037-.004-.006-.025-.038-.004-.006-.024-.037-.004-.006-.025-.038-.003-.004-.027-.042v-.001l-.028-.042-.002-.003-.027-.04-.001-.003a58.547 58.547 0 0 1-4.452-8.25l-.09-.205v-.001l-.022-.05-.001-.002-.045-.102v-.001l-.021-.05-.002-.003-.02-.048-.002-.003-.022-.05-.019-.045-.005-.01-.008-.02-.003-.007-.007-.017-.005-.011-.008-.018-.003-.009-.007-.016-.005-.012-.007-.015-.005-.012-.006-.014-.006-.014-.006-.015-.006-.012-.006-.015-.005-.013-.007-.015-.005-.012-.006-.014-.006-.014-.006-.015-.005-.013-.006-.013-.006-.014-.006-.014-.006-.013-.005-.014-.006-.014-.006-.015-.006-.012-.005-.014-.006-.013-.007-.016-.004-.011-.007-.015-.005-.013-.007-.016-.005-.011-.006-.015-.005-.013-.006-.015-.006-.013-.006-.014-.005-.013-.006-.015-.005-.011-.007-.017-.005-.011-.006-.016-.006-.014-.005-.012-.007-.016-.005-.013-.005-.013-.006-.014-.006-.014-.006-.014-.005-.012-.006-.015-.003-.007-.02-.047-.018-.046-.004-.01-.008-.019-.003-.007-.007-.017-.005-.011-.006-.017-.005-.01-.006-.017-.005-.011-.008-.02-.003-.006-.008-.02-.003-.009-.007-.017-.004-.01-.007-.017-.005-.01-.007-.018-.004-.01-.007-.017-.004-.01-.007-.017-.004-.01-.007-.017-.004-.012-.007-.017-.003-.008-.008-.02-.004-.008-.007-.019-.004-.008-.007-.02-.004-.008-.008-.02-.002-.005-.009-.022-.002-.007-.008-.02-.003-.007-.008-.02-.004-.008-.008-.02-.001-.005-.01-.022-.002-.005-.008-.023-.002-.003-.01-.024v-.004a59.515 59.515 0 0 1-.126-.317l-.002-.006-.009-.022-.002-.005-.009-.023-.001-.003-.01-.025v-.003l-.009-.021-.003-.007-.008-.021-.002-.006-.008-.021-.003-.006-.008-.022-.002-.006-.008-.02-.003-.008-.008-.021-.002-.004-.01-.024v-.003l-.01-.025v-.002l-.01-.023-.002-.006-.008-.022-.002-.004-.009-.023-.002-.005-.008-.023-.002-.003-.008-.023-.003-.006a64.572 64.572 0 0 1-.162-.429v-.001a75.24 75.24 0 0 1-.04-.108l-.01-.027c0-.001 0 0 0 0l-.01-.026v-.002l-.01-.026v-.001l-.01-.024-.001-.005-.009-.023-.001-.003-.01-.025v-.002l-.01-.026-.01-.026v-.002a17.189 17.189 0 0 1-.019-.052l-.001-.004-.01-.024v-.001l-.009-.025-.001-.005-.01-.024s.001 0 0 0l-.009-.027a61.348 61.348 0 0 1-.213-.594l-.001-.004-.019-.053a11.524 11.524 0 0 1-.018-.054l-.038-.108v-.002a59.329 59.329 0 0 1-.213-.622l-.009-.025-.001-.003a16.067 16.067 0 0 1-.018-.053c0-.001 0 0 0 0l-.009-.028-.008-.026-.001-.002-.036-.106v-.002l-.018-.053a60.44 60.44 0 0 1-.192-.595l-.001-.002a27.648 27.648 0 0 1-.017-.054l-.008-.026v-.001l-.009-.025v-.003l-.008-.024-.001-.003-.008-.025v-.002l-.009-.025v-.002l-.008-.024-.001-.005-.007-.023-.001-.003-.008-.025v-.001l-.017-.053v-.001c-.057-.18-.112-.36-.166-.54v-.001l-.008-.026v-.001l-.008-.026v-.001l-.016-.053-.001-.003-.008-.024v-.002l-.007-.025-.001-.003-.008-.024v-.003l-.008-.024v-.004l-.008-.023v-.004l-.008-.023v-.003l-.008-.025v-.001l-.008-.026v-.003l-.008-.024v-.002l-.008-.026-.016-.054a57.166 57.166 0 0 1-.125-.431v-.002l-.008-.026-.007-.026v-.002l-.007-.025-.001-.002-.007-.024-.001-.004-.007-.025v-.001l-.008-.025v-.002l-.007-.025v-.003l-.008-.024v-.003l-.008-.025-.007-.027v-.001l-.008-.026v-.001l-.007-.026v-.002l-.008-.025-.007-.027v-.002l-.008-.025-.007-.027v-.001a58.13 58.13 0 0 1-.118-.43v-.002l-.014-.052v-.002l-.007-.025v-.002l-.007-.023-.001-.005-.006-.023-.001-.004-.007-.023v-.004l-.007-.024v-.003l-.007-.023-.001-.004-.006-.024v-.002L9 63.363 9 63.36l-.007-.025v-.002l-.006-.024-.002-.005-.006-.023v-.003l-.007-.024v-.003l-.007-.024v-.004l-.007-.022-.001-.006-.006-.022v-.002a58.58 58.58 0 0 1-.103-.402v-.001l-.007-.026-.013-.054-.007-.025v-.004l-.006-.023-.002-.004-.005-.023-.001-.004-.006-.022-.001-.006-.005-.02-.002-.008-.005-.02-.002-.006-.005-.022-.001-.004-.006-.023v-.004l-.006-.022-.002-.006-.005-.021-.001-.006-.005-.02-.002-.008-.005-.02-.002-.007-.005-.02-.002-.008-.004-.02-.002-.006-.005-.021v-.004l-.013-.05v-.002a56.901 56.901 0 0 1-.07-.293v-.001l-.006-.023-.001-.005-.006-.023v-.004l-.006-.023-.001-.004-.006-.024v-.002l-.006-.023V61.8l-.006-.023v-.004L8.6 61.75l-.001-.004-.006-.023v-.003l-.006-.023-.001-.005-.005-.022-.001-.005-.005-.022-.001-.005-.005-.022-.001-.005-.006-.022-.001-.006-.005-.02-.001-.008-.005-.02-.001-.006-.005-.02-.001-.007-.005-.02-.002-.009-.004-.018-.002-.008-.004-.02-.002-.005-.005-.022v-.005l-.006-.022v-.002a52.498 52.498 0 0 1-.07-.317l-.002-.004-.004-.021-.002-.006L8.432 61l-.001-.005-.005-.022-.001-.005-.005-.021-.001-.006-.005-.02-.001-.007-.004-.02-.002-.008-.004-.017-.002-.01-.004-.017-.002-.01-.004-.019-.001-.007-.005-.02-.001-.006-.005-.022v-.006l-.005-.02-.002-.007-.004-.02-.002-.007-.004-.02-.002-.009-.003-.017-.002-.01-.004-.017-.002-.01-.004-.018-.001-.007-.004-.02-.002-.009-.004-.017-.002-.01-.004-.017-.002-.01-.003-.018-.002-.006-.004-.02-.001-.007-.005-.02v-.005l-.005-.023v-.003c-.012-.05-.022-.103-.033-.155v-.002l-.005-.024v-.003l-.005-.021-.001-.007-.004-.02-.002-.006-.004-.02-.001-.008-.004-.018-.002-.008-.004-.02-.001-.007-.004-.02-.002-.007-.003-.02-.002-.007-.004-.018-.002-.01-.003-.016-.002-.011-.003-.016-.002-.011-.003-.016-.003-.012-.003-.015-.002-.011-.003-.016-.003-.012-.002-.015-.003-.01-.003-.017-.002-.012-.003-.014-.002-.013-.003-.014-.003-.014-.003-.014-.002-.01-.003-.017-.002-.011-.003-.016-.002-.011-.003-.016-.002-.01-.004-.017-.001-.009-.004-.019-.001-.006-.004-.02-.001-.007-.004-.02-.001-.006-.004-.022v-.001a53.51 53.51 0 0 1-.03-.156v-.002l-.004-.021-.002-.007-.003-.019-.002-.008-.003-.02-.002-.006-.003-.02-.002-.007-.003-.019-.002-.008-.003-.018-.002-.01-.003-.016-.002-.01-.003-.017-.002-.01-.002-.016-.003-.012-.002-.015-.002-.012-.003-.015-.002-.011-.003-.017-.002-.01-.003-.015-.002-.013-.003-.014-.002-.014-.003-.012-.002-.014-.002-.014-.003-.014-.002-.012-.003-.016-.002-.011-.003-.015-.002-.012-.002-.014-.003-.014-.002-.013L8 58.816l-.003-.014-.002-.014-.003-.014-.002-.012-.002-.014-.003-.014-.002-.014-.002-.012-.003-.015-.002-.012-.002-.013-.003-.014-.002-.014-.002-.013a17.406 17.406 0 0 1-.01-.054l-.002-.011-.002-.015-.003-.018-.002-.009-.002-.013-.003-.015-.001-.01-.003-.016-.002-.011-.003-.017-.001-.01-.003-.016-.002-.011-.003-.017-.002-.01-.002-.016-.002-.012-.003-.015-.002-.01-.002-.017-.002-.01-.003-.018-.002-.01-.002-.016-.002-.01-.003-.018-.001-.009-.004-.018-.001-.009-.003-.018-.001-.008-.003-.02-.002-.008-.003-.018-.001-.009-.003-.017-.002-.01-.003-.018-.001-.009-.003-.017-.001-.01-.003-.017-.002-.01-.003-.017-.001-.01-.003-.018-.001-.009-.003-.016-.002-.011-.002-.016-.002-.01-.003-.018-.001-.01-.004-.02v-.006l-.004-.02v-.007l-.004-.022-.001-.005-.004-.023v-.004l-.009-.054v-.005l-.004-.022v-.007l-.004-.02-.002-.01-.002-.017-.002-.01-.002-.016-.002-.011-.002-.016-.002-.01-.002-.017-.002-.01-.003-.017-.001-.01-.003-.017-.001-.01-.003-.017-.001-.01-.003-.016-.001-.011-.003-.016-.001-.01-.003-.017-.001-.01-.003-.017-.001-.01-.003-.017-.001-.01-.003-.017-.001-.01-.003-.017-.001-.01-.003-.017v-.008l-.004-.02-.001-.008-.003-.018v-.008l-.004-.02v-.007l-.003-.02-.002-.007-.002-.019-.001-.008-.003-.019-.001-.008-.003-.02-.001-.006-.003-.023v-.003l-.004-.023v-.005l-.03-.215-.001-.002-.007-.053a23.791 23.791 0 0 1-.007-.053l-.001-.004-.003-.023v-.003l-.004-.023v-.005l-.003-.023v-.002l-.004-.024v-.005l-.004-.022v-.005l-.003-.022v-.004l-.004-.023v-.004l-.003-.023v-.004l-.004-.024v-.002l-.003-.024v-.003l-.004-.025v-.002l-.003-.022v-.006l-.004-.023v-.003l-.003-.025v-.001l-.004-.026v-.001l-.003-.025v-.003a119.215 119.215 0 0 1-.062-.51v-.001l-.004-.025v-.003l-.003-.025-.003-.026v-.001l-.003-.026v-.002l-.003-.024v-.003l-.006-.052-.003-.026v-.002l-.003-.023v-.005l-.003-.023v-.002l-.003-.026-.006-.054c-1.369-12.424 2.02-23.24 9.512-27.652.033-.02.065-.037.098-.054l.085-.052.049-.028h.002l.075-.043.01-.006h.002c.071-.04.143-.08.215-.118.363-.19.766-.29 1.176-.29Z" fill="#F4AC03"/><path d="M18.188 13.262a2.568 2.568 0 0 1 1.89 4.306 69.025 69.025 0 0 0-2.387 2.737l-.126.153-.031.038-.001.001-.06.074-.006.006-.01.014-.003.003-.013.015-.003.004-.012.015-.003.004-.012.015-.003.003-.03.038h-.001l-.014.017-.004.006-.01.012-.006.008-.01.011-.004.005-.01.014-.005.005-.01.012-.005.007-.008.01-.008.009-.027.034-.009.01-.006.008-.01.012-.003.005-.009.01-.007.009-.007.01-.006.007-.01.01-.004.007-.01.012-.002.003-.034.043-.005.005-.01.012-.003.005-.01.011-.005.007-.01.012-.003.005-.01.012-.004.006-.01.012-.002.002-.012.015v.001l-.052.064-.002.003c-2.818 3.545-4.555 6.6-4.652 8.284v.008a2.549 2.549 0 0 0-.003.055v.008l-.001.053V29.654l.002.035v.015l.001.001v.014l.003.028V29.76l.001.002v.008l.001.005v.007l.003.02v.008l.001.006v.002l.001.005v.002l.001.005v.002l.001.005v.007h.001c.022.248.127.48.297.66.2.166.45.261.71.27a19.887 19.887 0 0 0-2.978 4.377 25.787 25.787 0 0 0-1.557 3.817c-.014.045-.03.089-.047.133a2.54 2.54 0 0 1-.037.133 30.1 30.1 0 0 0-.351 1.225l-.038.146v.001l-.02.072v.002l-.017.07-.002.005-.017.068-.001.006-.017.068-.002.007-.016.066-.003.008-.01.043v.002l-.006.02-.002.01-.009.038-.002.007-.005.02-.002.01-.008.034-.003.01-.004.02-.003.011-.008.034-.003.01-.004.02-.003.011-.008.033-.002.011-.005.02-.003.012-.007.03-.003.014-.004.018-.003.013-.007.03-.003.014-.004.018-.004.015-.006.028-.003.014-.004.018-.004.016-.006.027-.003.015-.004.017-.004.018-.006.025-.003.016-.004.016-.004.02-.005.023-.004.017-.004.016-.005.024-.004.02-.004.015-.003.017-.006.026-.003.017-.004.017-.003.015-.006.028-.003.015-.005.018-.003.015-.005.028-.004.015-.004.02-.003.013-.006.029-.002.014-.005.02-.002.012-.006.03-.003.014-.004.02-.003.013-.006.03-.003.013-.004.023-.002.01-.007.03-.002.013-.005.025-.002.009-.006.03-.003.013-.004.025-.002.01-.006.029-.003.013-.005.025-.002.011-.005.029-.003.011-.005.029-.002.008-.005.029-.002.011-.006.032-.001.005-.006.03-.002.01-.006.033-.001.005-.005.028-.003.012-.006.032v.007l-.006.028-.002.01-.006.032-.001.008-.005.027-.002.01-.006.033-.002.009-.004.026-.002.01-.006.033-.002.009-.004.025-.002.011-.006.032-.001.01-.005.027-.002.009-.005.033-.002.009-.005.027-.001.009-.006.033-.001.009-.005.028-.002.008-.005.034-.002.008-.005.028v.008l-.007.034-.001.008-.005.03-.001.006-.006.034-.001.009-.005.03v.005l-.006.035-.002.009-.005.03v.005l-.006.035-.002.008-.005.032v.004l-.006.035v.007l-.012.072-.001.008-.012.072v.006l-.012.073v.006l-.006.037v.002l-.005.034-.001.007-.006.036v.002l-.005.035-.001.006-.006.037v.003l-.005.033v.007l-.006.036v.005l-.005.032-.001.007-.005.035-.001.006-.005.032v.006l-.005.036-.001.006-.005.033v.005l-.005.036-.001.005-.005.034v.005l-.005.037-.001.004-.005.035v.004l-.005.037v.005l-.005.036v.001l-.006.038v.005l-.005.037-.005.039v.005l-.01.075v.005l-.01.075-.001.007-.009.073v.008l-.01.073v.008l-.01.074v.006l-.009.075v.006l-.01.076v.004l-.008.077v.005l-.01.077v.004l-.004.039-.004.038v.005l-.004.038v.001l-.005.038v.004l-.004.039v.002l-.004.037v.004l-.004.038v.004l-.004.037v.002l-.004.039v.004l-.004.036v.003l-.004.039v.005l-.004.036v.002l-.004.039v.004l-.004.037v.002l-.004.039v.005l-.004.038-.003.039v.005l-.008.078v.004a18.22 18.22 0 0 0-.007.077v.006a51.75 51.75 0 0 0-.007.077v.006a28.9 28.9 0 0 0-.007.077v.005l-.007.078v.005l-.003.04-.003.038v.005l-.004.039-.003.039v.005l-.003.039v.001l-.003.037v.006l-.003.038v.005l-.003.035v.005l-.003.038v.005l-.003.035v.005l-.003.038v.007l-.002.033v.006l-.003.038v.005l-.003.035v.005l-.003.038v.006l-.003.036v.003l-.002.039v.005l-.005.078v.006l-.003.037v.002l-.002.039v.007l-.003.036v.002l-.002.038v.008l-.003.036v.002l-.002.038v.008l-.004.075v.01l-.005.075v.009l-.002.037v.001l-.002.036v.01l-.002.037v.004l-.002.033v.01l-.002.037v.004l-.002.034v.01l-.002.036v.006l-.001.032v.01l-.002.037v.007l-.002.03v.01l-.002.037v.008l-.001.03v.01l-.002.036v.009l-.001.03v.01l-.002.036v.01l-.001.029v.01l-.002.035v.011l-.001.028v.01l-.002.036v.01l-.001.03v.009l-.001.037v.009l-.002.03V48.904l-.001.01-.001.03v.01l-.001.035V49l-.001.03v.009l-.001.035v.012l-.001.03v.008l-.001.035v.012l-.001.032v.006l-.001.037v.01l-.001.036v.049l-.001.035v.008l-.001.032v.045l-.001.011V49.514l-.001.035v.05l-.001.035v.052l-.001.034V49.818l-.001.026V50.535l.001.018V50.64l.001.027v.042l.001.02v.066l.001.023v.04l.001.028v.018l.001.024v.049l.001.014v.041l.002.03V51.12l.001.03v.018l.001.02v.018l.001.032v.018l.001.02v.018l.002.032V51.363l.001.018.001.031v.019l.001.02v.017l.002.032v.038l.001.017.001.033v.016l.001.023.001.016.001.032v.018l.001.02.001.02.001.03v.018l.001.02.001.026.001.023v.018l.002.022v.022l.002.026v.017l.001.023.001.022.001.027v.016l.002.024v.022l.002.025v.017l.002.024v.023l.002.025v.016l.002.028v.018l.002.025v.017l.002.026v.023l.002.022v.018l.002.027.001.021.001.023.001.017.001.027.002.023v.02l.002.018.001.033.001.016.001.022.001.017.002.033v.016l.002.024.001.015.002.034v.015l.002.025.001.014.002.035v.015l.002.024.001.015.002.031a2.568 2.568 0 0 1-5.127.31c-.34-5.657.219-10.888 1.663-15.55.017-.053.035-.105.054-.157.014-.053.029-.106.046-.16a29.204 29.204 0 0 1 3.294-7.05c-.347-3.913 2.656-9.283 9.06-16.256a2.563 2.563 0 0 1 1.892-.83Z" fill="#F47B00"/><path d="M46.182 101.551c-5.916-4.23-2.864-18.632 6.816-32.166C62.678 55.85 75.32 48.309 81.236 52.54c5.915 4.23 2.864 18.632-6.816 32.166-9.68 13.534-22.323 21.076-28.238 16.845Z" fill="#FFE754"/><path d="M77.252 56.5h.015a3.798 3.798 0 0 1 .267.01 2.651 2.651 0 0 0-.163-.002 2.58 2.58 0 0 0-.119-.008Zm-8.308 4.336a2.568 2.568 0 0 1 1.612 4.57 49.3 49.3 0 0 0-7.684 7.926 61.769 61.769 0 0 0-1.754 2.35 2.568 2.568 0 0 1-4.189-2.971l.102-.143.004-.006.01-.014c.206-.288.416-.577.63-.867l.015-.02.012-.016.004-.005.01-.014.004-.006.006-.008c.356-.48.723-.962 1.102-1.446l.02-.024.005-.008.013-.016.008-.01.011-.015.007-.009.013-.016.01-.014.014-.017.009-.01.01-.013.009-.011.01-.014.009-.011.008-.01.037-.047.01-.012.01-.013.008-.01.01-.013.008-.01.01-.014.018-.022.007-.008.011-.014.01-.013.009-.01.01-.014.007-.008.012-.016.003-.004.026-.032.006-.007.011-.015.007-.008.011-.014.008-.01.012-.014.003-.005.044-.054.005-.006.013-.017.004-.005.014-.018.002-.002.044-.055.006-.007.013-.016.004-.005.099-.122.066-.082h.001l.183-.225v-.001l.017-.02h.001l.066-.08.001-.002.082-.1.002-.001.015-.019.002-.003.434-.517.002-.002.064-.076.003-.003.016-.019.167-.196.017-.019.002-.002.062-.073.006-.006.013-.015.003-.004.015-.017v-.001l.05-.056.001-.002.015-.017.003-.003c.02-.025.042-.049.063-.073l.004-.004.013-.016.004-.005.014-.015.005-.006.041-.047.007-.008.01-.011.009-.01.01-.013.008-.009.01-.012.009-.01.019-.02.009-.01.01-.013.008-.008.011-.014.008-.008.01-.012.009-.01.024-.026.003-.004.012-.014.006-.007.013-.014.005-.007.012-.013.008-.009.022-.024.006-.007.01-.012.008-.009.01-.011.01-.012.01-.01.009-.01.01-.011.008-.01.02-.022.007-.008.011-.013.008-.008.01-.012.009-.01.01-.011.01-.012.02-.021.005-.006.012-.013.008-.01.01-.01.008-.01.01-.011.01-.012.014-.015.012-.013.01-.012.01-.01.008-.01.012-.012.007-.009.012-.013.007-.008.018-.02.006-.007.014-.015.006-.007.013-.014.007-.007.014-.016.005-.006.02-.021.001-.002.018-.019.005-.006.014-.016.006-.006.015-.017.004-.004.02-.02v-.002l.02-.022.003-.003.016-.018.005-.005.016-.017.004-.005.017-.019.002-.002.02-.022.003-.003.017-.018.004-.005.016-.017.004-.004.019-.022.04-.044.003-.002.018-.02.002-.002.186-.201.083-.09a52.809 52.809 0 0 1 2.948-2.924l.002-.002.018-.016.002-.002.06-.054.002-.003.017-.015.004-.003.016-.015.003-.003.039-.035.003-.003.016-.014.005-.005.014-.012.006-.006.015-.013.004-.004.017-.016.008-.007.01-.01.01-.008.01-.008.009-.009.008-.007.038-.034.006-.006.012-.01.006-.006.013-.011.004-.004.045-.04.001-.002.015-.012.003-.003.014-.013.002-.002a43.752 43.752 0 0 1 1.704-1.445 2.557 2.557 0 0 1 1.609-.568Z" fill="#FFEF7D"/><path d="M81.573 55.768a2.569 2.569 0 0 1 2.54 2.21l.001.006.002.014.001.009.002.01.001.01.002.013v.007l.003.014v.008l.002.013.001.006.002.016.001.007.002.012v.007l.003.016v.007l.002.013.001.008.002.013v.007l.003.016v.007l.002.012v.007l.003.017v.005l.002.014v.005l.003.017v.006l.002.017v.005l.002.014.001.006.002.017v.006l.002.014v.005l.003.017v.006l.002.017v.004l.002.016v.005l.003.018v.004l.002.016v.004l.002.019v.004l.002.017v.003l.002.018v.005l.002.018v.004l.002.016v.004l.002.019v.004l.002.016v.004l.002.018v.006l.002.018v.002l.002.017v.005l.002.019v.003l.002.017v.004l.002.019v.004l.003.038v.005l.002.019v.004l.002.017v.003l.001.02v.003l.002.02.001.02v.004l.002.02.002.02v.003l.001.02v.003l.002.018v.003l.001.02v.003l.003.041v.003l.001.02v.002l.002.02v.024l.003.042v.003l.003.042v.024c.002.014.002.029.003.043v.002l.002.043v.002l.001.02v.003l.002.043v.002l.002.043v.002l.001.044.001.022v.001l.002.044v.002l.001.044.002.068v.047l.002.045v.069l.002.046V60.287l-.001.118-.002.07c-.001.095-.004.19-.007.285a27.342 27.342 0 0 1-.93 5.908l-.037.14c-.06.224-.122.449-.187.675v.001l-.04.141v.001l-.017.056-.025.086-.016.056-.001.002-.017.055v.001a25.59 25.59 0 0 1-.042.142l-.009.03-.017.056v.001a11.31 11.31 0 0 1-.017.055l-.001.003-.009.027-.008.028v.002l-.009.027v.002l-.018.055v.002l-.017.056v.001l-.01.028v.001l-.017.056-.001.002-.017.055-.001.003-.045.142v.001l-.019.057-.009.029v.001l-.018.056-.001.002-.018.055v.003l-.019.055v.003l-.01.027v.002l-.018.055-.001.003-.01.028-.008.027-.001.003-.009.026-.001.005-.018.053-.001.004-.019.055v.002l-.01.028v.001l-.01.027v.002l-.009.027v.003l-.02.054v.005l-.01.026v.003l-.01.025v.003l-.009.026-.002.005-.018.053-.001.005-.019.053-.001.005-.01.026v.004l-.01.025v.002l-.009.026-.002.006-.009.026-.01.028v.002l-.01.028v.002l-.01.028-.01.028-.001.003-.02.055v.004l-.01.027v.001l-.01.026-.001.004-.01.026-.001.004-.009.025v.003l-.01.027-.002.003-.02.056v.003l-.01.027v.002l-.01.026-.001.003-.01.026-.002.006-.019.053-.001.005-.01.026v.003l-.01.024-.002.005-.009.025-.002.007-.008.023-.002.003-.01.026-.001.006-.01.026v.003l-.01.024-.001.005-.01.026-.001.005-.01.025v.002l-.01.026-.002.006-.01.025v.004l-.01.023-.002.007-.01.025-.001.005-.008.022-.002.006-.01.025-.002.006-.01.025v.001l-.01.026-.002.007-.01.025-.001.005-.008.022-.003.007-.01.025-.002.006-.008.022-.002.005-.009.024-.003.009-.01.023-.001.006-.008.021-.003.007-.01.025-.002.006-.008.022-.002.006-.01.025-.002.007-.01.023v.004l-.01.024-.003.008-.01.024-.002.007-.007.02-.003.008-.01.023-.003.009-.007.02-.003.007-.009.022-.003.01-.01.023-.002.007-.008.02-.003.008-.01.023-.003.01-.007.017-.003.009-.009.023-.003.009-.01.023-.001.005-.01.023-.002.007-.01.025-.002.006-.009.022-.002.005-.01.025-.003.008-.008.022-.003.006-.009.023-.003.009-.01.023-.002.007-.009.02-.002.008-.01.024-.003.008-.008.02-.003.007-.01.025-.002.007-.01.025-.002.005-.01.021-.002.008-.01.024-.003.008-.008.02-.003.007-.01.024-.003.009-.009.021-.003.007-.008.022-.004.008-.01.025-.002.006-.009.021-.003.007-.01.025-.003.008-.008.02-.003.007-.01.024-.003.008-.01.024-.003.008-.008.02-.003.007-.01.025-.003.007-.008.02-.003.008-.01.023-.004.01-.008.02-.004.01-.008.019-.005.01-.01.023-.003.009-.007.017-.004.01-.01.023-.003.01-.008.018-.005.011-.008.02-.004.01-.01.023-.003.008-.008.019-.004.009-.01.023-.004.01-.008.019-.002.007-.01.024-.004.008-.01.025-.003.006-.008.02-.004.01-.01.023-.004.009-.008.017-.003.01-.01.023-.004.01-.009.02-.004.01-.008.019-.005.01-.01.023-.004.01-.007.016-.004.01-.01.023-.005.011-.007.017-.004.01-.009.021-.005.012-.008.018-.006.014-.006.015-.006.012-.01.022-.004.01-.007.017-.004.01-.01.023-.004.01-.008.018-.006.014-.007.017-.005.01-.01.023-.005.01-.006.017-.005.01-.01.022-.005.012-.007.016-.006.014-.008.018-.005.011-.01.023-.003.008-.008.019-.004.009-.01.024-.005.008-.008.02-.004.008-.01.023-.005.01-.008.02-.006.012-.008.018-.004.01-.01.023-.004.01-.008.017-.004.01-.01.023-.005.01-.008.018-.006.013-.008.018-.005.01-.01.023-.005.01-.007.016-.005.012-.01.022-.005.01-.007.017-.007.015-.007.017-.006.012-.007.016-.008.018-.006.013-.006.013-.01.021-.005.013-.006.013-.008.018-.008.016-.005.012-.007.015-.008.019-.007.014-.005.012-.01.022-.006.012-.006.013-.006.013-.01.02-.005.014-.007.014-.008.019-.007.013-.006.014-.006.014-.01.02-.005.012-.006.013-.01.02-.006.015-.006.012-.009.02-.006.014-.007.014-.006.013-.01.02-.005.012-.006.014-.01.02-.006.014-.006.013-.009.019-.007.015-.006.013-.006.013-.01.02-.006.013-.006.013-.008.017-.008.017-.006.014-.006.012-.01.022-.006.012-.007.014-.009.02-.006.013-.006.014-.007.014-.01.019-.005.013-.007.013-.01.021-.006.014-.006.012-.009.02-.007.014-.006.014-.007.012-.01.021-.005.013-.007.014-.009.018-.007.016-.006.012-.007.016-.01.018-.006.014-.006.012-.01.022-.006.012-.007.014-.006.013-.01.022-.005.01-.008.015-.01.02-.006.014-.006.012-.01.021-.007.013-.006.014-.007.014-.01.02-.005.012-.008.014-.006.015-.01.02-.006.01-.011.025-.005.01-.008.015-.005.01-.012.025-.005.01-.007.015-.006.012-.01.022-.007.013-.006.012-.01.022-.007.013-.006.012-.01.021-.007.014-.006.012-.008.016-.01.019-.006.013-.006.013-.01.021-.007.013-.007.014-.008.016-.008.017-.007.013-.007.015-.01.019-.006.013-.007.014-.01.021-.007.013-.006.013-.008.014-.01.02-.006.014-.007.013-.01.02-.007.014-.007.013-.008.017-.009.017-.006.013-.007.013-.01.02-.007.014-.007.013-.01.02-.007.014-.007.014-.006.013-.011.021-.006.012-.007.014-.01.019-.008.016-.006.012-.01.02-.007.014-.008.014-.005.012-.012.022-.006.013-.007.013-.008.015-.01.02-.006.012-.01.02-.007.014-.008.015-.006.011-.01.021-.007.013-.008.015-.007.013-.01.02-.007.013-.007.014-.01.02-.008.014-.006.013-.01.02-.007.014-.008.015-.005.009-.013.025-.006.011-.007.014-.009.017-.009.017-.007.014-.006.012-.011.021-.008.014-.006.013-.01.02-.008.014-.007.013-.01.018-.008.016-.007.014-.007.013-.01.021-.008.013-.007.013-.01.02-.008.014-.007.015-.005.01-.013.024-.007.013-.006.011-.012.023-.007.013-.006.012-.012.023-.006.011-.009.016-.005.01-.013.024-.005.01-.008.015-.009.017-.01.018-.005.01-.013.024-.007.013-.007.013-.006.013-.012.022-.007.012-.007.013-.008.015-.01.02-.007.013-.007.013-.012.022-.007.013-.007.013-.01.016-.008.017-.008.014-.008.016-.01.017-.007.015-.008.014-.011.02-.008.015-.005.01-.01.019-.01.018-.006.01-.01.018-.008.015-.01.018-.005.01-.01.02-.01.016-.007.014-.007.012-.012.022-.006.012-.01.016-.008.017-.009.015-.007.014-.01.017-.008.014-.008.017-.007.012-.013.022-.006.011-.008.016-.01.017-.01.017-.005.011-.01.019-.008.014-.01.016-.007.014-.006.011-.013.024-.007.012-.008.014-.011.02-.007.014-.008.014-.01.019-.008.013-.008.015-.01.017-.008.014-.01.018-.005.01-.013.023-.007.013-.007.012-.011.02-.009.015-.007.013-.009.016-.01.017-.008.016-.008.013-.008.015-.011.02-.007.011-.007.014-.012.021-.008.014-.007.012-.013.022-.007.013-.008.015-.006.01-.014.025-.006.01-.008.014-.011.02-.01.016-.005.01-.013.023-.007.013-.008.014-.007.013-.013.022-.007.012-.008.014-.006.011-.014.025-.006.01-.011.02-.01.016-.008.014-.006.01-.015.027-.004.007-.01.018-.001.001-.02.035-.003.006-.032.054-.002.005-.02.034-.002.003-.01.018-.003.005-.018.031-.004.007-.01.017-.004.007-.017.028-.005.009-.016.028-.004.007-.01.016-.005.01-.016.027-.004.007-.01.017-.012.02-.007.014-.008.012-.01.018-.01.017-.008.013-.008.014-.012.021-.008.013-.008.013-.013.023-.006.01-.01.016-.006.012-.013.02-.008.015-.008.013-.011.02-.009.014-.008.013-.011.02-.008.013-.009.015-.008.013-.013.022-.007.012-.008.014-.011.019-.01.016-.008.013-.007.013-.013.022-.007.012-.009.014-.008.014-.013.021-.007.012-.015.026-.005.008-.01.017-.005.008-.015.025-.006.01-.01.017-.003.004-.019.031-.005.009-.017.029-.004.007-.009.014-.008.013-.007.013-.014.022-.007.012-.009.014-.012.02-.008.015-.008.012-.013.022-.008.013-.008.014-.007.011-.013.021-.01.015-.007.013-.011.019-.01.015-.008.014-.013.022-.007.01-.01.016-.007.012-.013.022-.008.013-.008.014-.012.019-.01.015-.008.014-.006.01-.016.026-.006.009-.008.014-.014.022-.007.012-.01.016-.008.013-.013.02-.007.013-.01.016-.009.014-.012.019-.006.01-.015.024-.007.011-.008.014-.01.016-.012.02-.008.012-.008.014-.013.02-.009.014-.008.013-.008.013-.014.023-.007.01-.01.018-.012.018-.009.015-.007.01-.014.023-.007.012-.01.015-.008.013-.014.022-.006.01-.01.017-.013.02-.008.013-.008.012-.012.019-.01.016-.008.013-.01.015-.011.019-.01.015-.008.013-.01.015-.012.019-.008.014-.008.011-.014.023-.007.01-.012.02-.005.008-.015.023-.007.012-.013.02-.007.012-.011.017-.008.012-.014.022-.007.011-.01.016-.01.016-.012.018-.008.012-.01.017-.01.014-.011.018-.007.011-.015.024-.006.009-.012.019-.006.01-.015.022-.007.012-.011.017-.008.011-.013.02-.008.013-.013.02-.007.012-.012.018-.007.01-.015.023-.007.011-.01.018-.007.009-.015.023-.007.011-.013.02-.007.011-.013.02-.007.01-.014.023-.008.012-.01.015-.007.01-.015.024-.007.011-.013.02-.006.008-.014.023-.007.01-.015.024-.007.01-.011.016-.007.01-.015.024-.007.01-.011.018-.008.011-.015.023-.005.009-.015.022-.008.012-.011.017-.007.01-.015.023-.008.012-.01.017-.007.01-.016.023-.007.01-.013.02-.008.012-.011.017-.009.013-.013.02-.009.014-.01.016-.007.01-.017.024-.006.01-.011.017-.01.015-.012.018-.008.01-.012.02-.01.015-.01.016-.009.011-.015.023-.008.012-.01.014-.009.014-.013.02-.008.013-.01.015-.013.019-.01.013-.009.014-.014.022-.007.01-.01.016-.009.012-.014.021-.01.013-.008.013-.016.023-.007.011-.01.014-.012.02-.01.014-.01.013-.008.014-.014.02-.01.014-.01.015-.009.014-.013.02-.008.01-.016.025-.004.005-.014.02-.007.011-.016.023-.007.01-.012.018-.007.01-.016.023-.007.01-.012.019-.01.013-.012.018-.007.011-.014.02-.01.015-.01.015-.008.012-.015.021-.01.013-.01.016-.008.01-.014.022-.008.011-.015.022-.007.01-.013.018-.007.011-.016.024-.007.009-.013.019-.005.008-.017.023-.008.012-.01.016-.012.017-.013.017-.006.01-.017.023-.007.01-.013.019-.005.007-.017.024-.007.012-.012.017-.01.014-.013.018-.008.012-.013.017-.011.017-.01.013-.008.013-.016.022-.008.012-.01.015-.012.016-.013.018-.008.012-.012.017-.01.014-.013.019-.006.008-.017.025-.007.009-.013.018-.007.01-.016.023-.008.012-.012.017-.01.013-.013.018-.007.01-.017.025-.006.008-.013.019-.007.01-.017.024-.006.008-.016.021-.004.006-.018.025-.005.008-.018.025-.006.009-.013.018-.007.01-.018.024-.005.008-.015.02-.005.008-.018.024-.006.009-.018.025-.003.004-.016.023-.007.009-.018.025-.004.007-.015.02-.006.008-.018.025-.005.007-.017.023-.005.007-.017.024-.006.008-.018.024-.006.01-.013.017-.007.01-.017.023-.007.01-.013.019-.009.01-.014.02-.01.013-.014.02-.007.01-.013.018-.008.011-.018.024-.005.007-.015.021-.006.008-.018.025-.005.007-.018.024-.004.006-.017.022-.006.01-.018.023-.007.01-.014.019-.006.008-.018.024-.006.01-.015.02-.005.005-.018.025-.006.009-.02.026-.002.003-.017.024-.006.007-.018.025-.007.008-.013.019-.007.009-.017.024-.007.008-.018.025-.004.004-.018.025-.004.006-.02.026-.004.006-.018.024-.002.003-.02.028-.005.005-.019.026-.002.002-.02.027-.004.006-.02.027-.003.003-.018.024-.005.007-.019.025-.005.007-.016.022-.005.007-.02.025-.004.006-.02.026-.004.006-.017.022-.005.007-.018.024-.008.01-.014.02-.005.006-.02.026-.005.007-.019.025-.003.003-.017.024-.007.009-.019.024-.005.007-.016.021-.005.007-.02.026-.005.006-.017.023-.004.005-.02.026-.004.006-.02.026-.004.006-.018.022-.005.007-.02.026-.004.005-.019.025-.002.003-.02.026-.006.007-.017.023-.008.01-.014.019-.008.01-.018.024-.006.007-.015.02-.006.008-.019.024-.007.009-.015.02-.008.01-.017.021-.005.008-.02.026-.004.004-.017.022-.006.008-.018.024-.008.01-.015.019-.006.007-.018.024-.007.009-.02.025-.002.004-.018.022-.007.009-.018.024-.006.008-.018.022-.003.004-.02.027-.006.005-.02.028c-7.652 9.773-16.46 15.637-22.47 15.637-2.017 0-3.72-.66-4.957-2.053l-.033-.037-.003-.004-.004-.004-.003-.004-.004-.004-.004-.004-.002-.003-.005-.005-.003-.004-.004-.005-.002-.002-.005-.006-.003-.004-.004-.004-.004-.005-.003-.003-.004-.005-.003-.004-.004-.004-.003-.004-.004-.004-.003-.005-.004-.004-.003-.004-.005-.005-.002-.003-.004-.005-.003-.004-.004-.005-.003-.003-.005-.005-.002-.003-.005-.006-.002-.003-.005-.005-.002-.003-.005-.006-.002-.003-.004-.005-.003-.003-.004-.005-.003-.004-.004-.004-.003-.004-.004-.005-.003-.004-.004-.005-.003-.003-.004-.005-.002-.004-.004-.004-.003-.004-.005-.006-.002-.003-.004-.005-.003-.003-.004-.006-.003-.003-.004-.005-.003-.004-.003-.005-.003-.003-.004-.005-.003-.004-.004-.005-.003-.003-.004-.006-.003-.003-.003-.005-.003-.004-.004-.005-.003-.003-.005-.006-.002-.003-.004-.006-.002-.003-.005-.005-.002-.004-.004-.005-.003-.003-.004-.006-.002-.003-.004-.005-.003-.004-.004-.005-.003-.004-.003-.004-.003-.004-.005-.006-.002-.003-.004-.006-.002-.003-.005-.006-.002-.003-.004-.005-.003-.004-.004-.005-.002-.004-.004-.005-.003-.004-.004-.005-.002-.003-.004-.005-.003-.004-.004-.005-.002-.004-.004-.005-.003-.004-.003-.005-.004-.004-.003-.005-.003-.004-.003-.005-.003-.004-.004-.005-.003-.004-.003-.005-.003-.004-.004-.005-.002-.004-.004-.005-.003-.004-.003-.005-.003-.004-.004-.005-.003-.004-.003-.005-.003-.004-.004-.005-.002-.004-.004-.005-.003-.004-.003-.005-.003-.005-.003-.004-.003-.005-.004-.005-.003-.004-.003-.005-.003-.004-.003-.005-.003-.004-.003-.005-.004-.004-.003-.005-.003-.004-.003-.005-.003-.004-.003-.005-.003-.005-.003-.005-.003-.004-.004-.005-.002-.004-.004-.005-.003-.004-.003-.005-.003-.005-.003-.005-.003-.004-.003-.005-.003-.004-.003-.005-.003-.004-.004-.006-.002-.003-.004-.006-.002-.004-.004-.005-.002-.004-.004-.006-.002-.003-.004-.006-.002-.004-.004-.005-.002-.004-.004-.006-.003-.004-.003-.005-.003-.004-.003-.005-.003-.005-.003-.005-.003-.004-.003-.005-.003-.005-.003-.004-.003-.005-.003-.005-.002-.004-.004-.006-.002-.004-.004-.005-.002-.005-.003-.004-.004-.005-.002-.005-.003-.005-.003-.004-.003-.005-.003-.005-.003-.005-.003-.004-.003-.005-.003-.005-.003-.005-.003-.004-.003-.006-.002-.004-.004-.005-.002-.005-.003-.005-.003-.004-.003-.005-.003-.005-.003-.005-.003-.005-.002-.004-.004-.005-.002-.005-.003-.005-.003-.005-.003-.005-.003-.005-.003-.005-.002-.004-.003-.005-.003-.005-.003-.005-.003-.005-.003-.004-.002-.005-.003-.005-.003-.005-.003-.005-.003-.005-.003-.005-.003-.005-.002-.004-.003-.006-.003-.004-.003-.006-.002-.004-.004-.006-.002-.004-.004-.006-.002-.003-.003-.006-.002-.005-.003-.005-.003-.004-.003-.006-.002-.004-.004-.007-.002-.003-.003-.006-.002-.004-.004-.006-.002-.004-.004-.007-.001-.003-.005-.007v-.002l-.004-.007-.002-.004-.004-.007-.002-.002-.004-.008-.001-.002-.005-.01-.005-.009v-.001l-.006-.01-.005-.009v-.002l-.006-.01-.004-.006-.002-.004-.004-.007v-.003l-.005-.008-.001-.002-.01-.019v-.001c-.008-.013-.015-.026-.021-.04h-.001a54572861150.674 54572861150.674 0 0 1-.062-.123v-.001l-.02-.04v-.002a5.258 5.258 0 0 1-.04-.082l-.001-.002-.005-.009-.004-.01v-.001l-.01-.02v-.001l-.005-.01-.005-.01v-.001l-.01-.02v-.002l-.005-.01-.004-.01-.005-.01-.005-.01V98.9l-.005-.008v-.002l-.005-.009v-.002l-.004-.009-.005-.01-.001-.003-.004-.008v-.003l-.004-.007-.001-.003-.004-.008v-.002l-.005-.009v-.002l-.005-.009v-.002l-.004-.008-.001-.003-.004-.008v-.002l-.004-.009-.002-.003-.003-.008-.001-.002-.004-.008v-.003l-.004-.008-.001-.002L44 98.73 44 98.73l-.004-.009v-.002l-.004-.009v-.002l-.005-.009v-.001l-.004-.009-.001-.003-.004-.008v-.003l-.004-.008-.001-.002-.004-.009v-.003l-.004-.007-.002-.004-.002-.007-.002-.004-.003-.007-.001-.003-.004-.009v-.002l-.004-.008-.001-.003-.003-.008-.001-.003-.004-.008v-.003l-.004-.008-.001-.003-.004-.008v-.003l-.004-.009v-.002l-.004-.009-.001-.002-.004-.009v-.002l-.004-.008-.001-.003-.003-.009-.001-.002-.004-.009v-.002l-.004-.009v-.002l-.004-.009-.001-.002-.004-.01-.004-.01v-.002l-.004-.01v-.001l-.004-.01-.001-.002-.004-.008v-.003l-.004-.009V98.4l-.004-.01v-.001l-.004-.009-.001-.002-.003-.01-.001-.002-.004-.008v-.003l-.004-.009v-.002l-.004-.008v-.003l-.004-.01v-.001l-.004-.01v-.001l-.004-.01v-.002l-.004-.01v-.001l-.004-.01v-.001l-.004-.01-.001-.002-.004-.01-.003-.01-.001-.002-.004-.01v-.002l-.004-.01-.004-.01v-.002l-.003-.01-.001-.002-.003-.01-.001-.001-.003-.01-.001-.001-.003-.01-.001-.002-.003-.009-.001-.003-.003-.009v-.002l-.004-.009v-.003l-.004-.008v-.003l-.004-.009v-.002l-.004-.01v-.002l-.004-.01-.004-.011v-.002l-.003-.009v-.003l-.004-.009v-.002l-.004-.01v-.001l-.004-.01v-.002l-.004-.01v-.001l-.003-.01V98l-.004-.01v-.001l-.004-.01v-.002l-.003-.009-.001-.003-.003-.01v-.002l-.004-.009v-.002l-.003-.01-.001-.002-.003-.009v-.003l-.004-.01v-.001l-.004-.01v-.002l-.003-.01v-.001l-.004-.01v-.002l-.003-.01-.001-.002-.003-.01v-.001l-.004-.01v-.002l-.003-.01v-.002l-.004-.01v-.002l-.004-.01v-.001l-.003-.01v-.002l-.003-.009-.001-.004-.002-.008-.002-.003-.002-.009-.001-.003-.002-.008-.002-.004-.002-.007-.001-.005-.002-.008-.001-.003-.004-.011v-.001l-.003-.01v-.002l-.003-.008v-.004l-.003-.01-.001-.002-.007-.023-.002-.01-.001-.003-.003-.011-.007-.023V97.6l-.002-.007-.002-.005-.002-.008v-.003l-.01-.032v-.005a3.78 3.78 0 0 1-.02-.07v-.002l-.006-.023-.005-.02-.002-.005-.002-.01v-.002l-.013-.047v-.001l-.009-.036-.012-.049-.006-.025-.003-.011v-.001l-.002-.01-.001-.003-.003-.011-.008-.037-.012-.049v-.001l-.003-.012a13.389 13.389 0 0 1-.311-2.485l-.002-.051-.001-.052v-.002l-.001-.015a19.196 19.196 0 0 1-.006-.265 2.543 2.543 0 0 1 2.549-2.562 2.594 2.594 0 0 1 2.587 2.521l.005.197c.001.03.002.059.001.089.004.034.006.07.008.104.064 1.226.338 2.223.733 2.668.088.099.292.329 1.117.329 3.84 0 11.401-4.695 18.426-13.668 7.778-9.934 11.137-20.212 10.436-25.231a2.57 2.57 0 0 1 2.546-2.924Z" fill="#FFD432"/><path d="M52.677 62.957a2.569 2.569 0 0 1 2.026 4.145c-.27.345-.534.691-.795 1.039l-.002.002-.04.055h-.001l-.042.056-.001.002-.018.024-.003.004-.02.027-.018.024-.005.007-.019.024-.002.004-.016.02-.007.01-.013.018-.01.013-.01.014-.01.013-.01.013-.011.016-.012.016-.009.012-.01.015-.007.008-.016.022-.01.013-.008.01-.036.05-.003.005-.04.053-.003.004a63.44 63.44 0 0 0-7.415 12.948 2.58 2.58 0 0 1-.058.129 2.608 2.608 0 0 1-.05.131c-1.456 3.545-2.374 6.918-2.689 9.881a2.569 2.569 0 0 1-5.107-.541c.367-3.467 1.392-7.265 3.044-11.29.02-.049.041-.096.064-.142a2.64 2.64 0 0 1 .055-.145c2.217-5.317 5.436-10.753 9.31-15.72a2.564 2.564 0 0 1 2.027-.99ZM49.365 35.862a2.555 2.555 0 0 1 2.063 1.042l.184.25c.032.043.062.086.09.13.033.04.064.08.094.121a62.72 62.72 0 0 1 6.762 11.971 64.099 64.099 0 0 1 1.761 4.562c5.962-4.944 11.96-7.698 16.97-7.698h.002c.302 0 .599.01.892.029a2.568 2.568 0 0 1-.331 5.125 8.69 8.69 0 0 0-.237-.012h-.03l-.01-.001h-.022l-.015-.001h-.001a8.73 8.73 0 0 0-.23-.004h-.114l-.01.001h-.034l-.031.001h-.045l-.005.001h-.031l-.01.001h-.02l-.014.001-.032.001h-.018l-.012.001h-.016l-.004.001h-.015l-.012.001h-.019l-.013.002h-.002l-.063.003h-.017l-.013.001h-.004l-.012.001h-.003l-.013.001h-.003l-.013.001h-.002l-.014.001h-.002l-.063.004-.016.002h-.018l-.013.002h-.016l-.002.001-.014.001h-.002l-.014.001h-.002l-.096.008-.016.002-.016.001a9.767 9.767 0 0 0-.13.013l-.016.001-.016.002c-1.627.171-3.425.727-5.327 1.632h-.002l-.017.009h-.001l-.018.01-.153.073-.02.01-.018.008a27.4 27.4 0 0 0-.134.066l-.019.01h-.001l-.018.01h-.001l-.017.008-.002.001-.134.067-.019.01h-.001l-.018.01h-.001l-.017.01H70.3l-.017.01h-.001a29.27 29.27 0 0 0-.096.049l-.02.01-.018.01h-.002l-.017.01h-.002l-.017.01h-.002l-.134.07-.002.001-.016.01h-.004l-.016.01h-.003l-.017.01h-.001l-.135.072-.001.001-.017.01-.004.001-.016.009-.003.001-.016.01h-.003l-.017.01h-.002l-.018.011-.078.042-.001.001-.018.01h-.002l-.017.01-.003.002-.016.009-.003.001-.016.009-.004.002-.016.009-.003.001-.017.01h-.001l-.078.044h-.001l-.018.01-.003.002-.016.008-.004.003-.015.008-.004.003-.015.008-.004.002-.015.009-.004.002-.017.01h-.002l-.077.044-.002.001-.017.01-.003.002-.016.008-.004.003-.015.008-.005.003-.015.008-.004.003-.015.008-.004.003-.015.008-.004.003-.018.01-.06.034-.001.001-.017.01-.003.002-.016.009-.004.002-.015.009-.005.003-.015.008-.004.003-.016.009-.003.002-.017.01H68.9l-.077.046-.004.002-.016.01-.004.002-.014.008-.006.004-.014.008-.005.003-.014.008-.005.003-.014.008-.005.003-.015.01-.004.002-.017.01h-.003l-.057.035-.005.003-.014.008-.006.004-.013.008-.006.003-.014.008-.005.004-.014.008-.006.004-.013.007-.006.004-.014.009-.005.002-.017.01-.002.002-.058.035-.004.002-.015.01-.005.002-.014.009-.006.004-.013.008-.007.003-.013.008-.006.004-.013.008-.006.004-.014.008-.005.003-.015.01-.004.002-.04.024-.018.012-.004.002-.015.01-.005.003-.014.008-.006.004-.014.008-.005.004-.014.008-.006.004-.014.008-.005.004-.014.008-.006.004-.013.008-.006.004-.018.011-.02.013-.002.001-.018.01-.004.003-.015.01-.005.003-.014.009-.006.004-.013.008-.007.004-.012.008-.007.004-.014.009-.005.003-.014.009-.005.003-.016.01-.003.002-.059.037-.003.002-.016.01-.005.003-.015.01-.005.003-.014.009-.005.004-.014.008-.006.004-.014.009-.005.003-.015.01-.004.003-.018.01-.001.002-.06.038-.002.001-.017.011-.004.003-.015.01-.005.003-.014.01-.006.003-.014.008-.006.005-.013.008-.007.004-.012.008-.007.005-.014.01-.005.002-.018.012h-.001l-.02.014-.02.012-.005.004-.013.009-.007.004-.013.009-.006.004-.013.008-.006.004-.014.01-.006.003-.014.01-.005.003-.015.01-.004.003-.018.01-.002.002-.06.04-.019.013-.003.002-.016.01-.005.004-.014.009-.006.004-.013.009-.007.004-.013.009-.006.004-.014.01-.005.003-.016.01-.004.003-.019.013-.02.013-.02.013-.003.003-.016.01-.005.004-.014.01-.007.004-.013.009-.006.004-.013.008-.007.005-.012.009-.007.005-.013.008-.007.005-.013.009-.006.004-.014.01-.006.003-.038.026-.006.004-.014.01-.006.004-.013.01-.007.003-.013.01-.006.004-.014.01-.006.003-.014.01-.005.003-.015.01-.005.004-.017.012-.002.001-.06.041v.001l-.02.013-.002.002-.016.011-.006.004-.014.01-.006.004-.014.01-.005.003-.015.01-.005.004-.015.01-.005.004-.016.01-.003.003-.02.014-.04.028-.002.002-.017.011-.005.004-.014.01-.006.004-.014.01-.006.004-.013.01-.007.004-.013.01-.006.004-.014.01-.006.004-.016.011-.003.002-.06.043h-.001l-.018.014-.004.002-.016.012-.005.003-.015.01-.005.004-.014.01-.006.005-.015.01-.004.003-.016.011-.004.003-.017.013-.002.002-.06.043h-.002l-.018.014-.004.003-.016.01-.004.004-.015.011-.005.004-.015.01-.006.004-.014.01-.005.004-.015.011-.005.004-.017.012-.002.002-.08.058-.002.002-.018.013-.003.002-.017.012-.004.003-.016.012-.004.003-.016.011-.004.003-.017.013-.002.002-.02.014-.08.06-.003.001-.018.013-.003.003-.016.012-.004.003-.016.012-.004.003-.016.011-.004.004-.017.012-.003.002-.019.014-.082.061-.02.015-.001.002-.018.013-.003.002-.017.013-.004.003-.016.012-.004.003-.017.013-.002.002-.122.091-.02.016-.02.015-.001.001-.02.015-.02.015-.001.001-.122.093-.02.016-.02.016h-.001l-.204.158c-.975.76-1.954 1.59-2.94 2.49a57.457 57.457 0 0 0-2.35 2.28h-.003a3.937 3.937 0 0 1-.022.02c-.03.034-.06.068-.093.102l-.096.099-.005.005-.008.008-.087.091a2.564 2.564 0 0 1-1.668.78 60.304 60.304 0 0 0-1.291-5.102 60.17 60.17 0 0 0-1.95-5.482l-.038-.095-.002-.003-.038-.093-.002-.004-.038-.092-.002-.005-.039-.092-.002-.004-.018-.045-.001-.001-.02-.046-.002-.006-.017-.04-.002-.006-.02-.044-.001-.006-.018-.04-.003-.007-.018-.044-.003-.005-.016-.039-.004-.01-.019-.043-.002-.004-.016-.04-.005-.01-.019-.043-.02-.047v-.002l-.02-.045-.002-.003-.019-.045v-.002a8.382 8.382 0 0 0-.02-.044l-.002-.005-.019-.043-.002-.004-.018-.042-.003-.006-.018-.042-.002-.005a5.32 5.32 0 0 0-.018-.042l-.003-.005-.018-.042-.002-.005-.02-.043-.001-.004-.02-.044v-.002l-.02-.046-.001-.001-.02-.047-.002-.001-.02-.045-.001-.004-.02-.043-.001-.004-.019-.042-.003-.006-.018-.04-.002-.007-.019-.04-.003-.007-.018-.04-.003-.007-.017-.04-.004-.007-.018-.04-.003-.006-.018-.04-.003-.006-.02-.043v-.003l-.02-.042-.002-.006a8.765 8.765 0 0 0-.02-.044l-.001-.002-.02-.044-.002-.004-.02-.043-.002-.004-.018-.04-.004-.008-.018-.04-.003-.006-.018-.04-.003-.007-.019-.04-.003-.006-.017-.037-.005-.011-.017-.036-.004-.01-.017-.037-.004-.008-.018-.039-.003-.007-.019-.04-.003-.007-.02-.04-.002-.006-.02-.042-.002-.005-.019-.04-.004-.008-.017-.037-.005-.01a5.647 5.647 0 0 0-.017-.036l-.005-.01-.017-.036-.004-.01-.017-.036-.005-.01-.017-.035-.005-.01-.017-.036-.004-.01-.018-.036-.004-.01-.017-.035-.005-.01-.017-.035-.006-.014-.016-.033-.006-.013-.017-.034-.006-.012-.016-.034-.006-.013-.016-.033-.007-.014-.015-.031-.007-.014-.015-.032-.007-.014-.015-.03-.007-.015-.015-.03-.007-.016-.015-.03-.007-.014-.015-.03-.007-.016-.015-.03-.008-.017-.014-.026-.011-.024-.011-.022-.01-.02-.013-.026-.01-.022-.011-.022-.012-.024-.01-.02-.013-.026-.01-.019-.012-.025-.011-.023-.012-.022-.012-.024-.01-.02-.012-.025-.01-.02-.012-.024-.01-.021-.012-.024-.015-.03-.007-.013-.017-.033-.005-.01-.018-.035-.005-.01-.017-.034-.005-.01-.017-.033-.006-.012-.017-.033-.004-.01-.018-.035-.005-.008-.018-.036-.003-.006a71.982 71.982 0 0 0-.163-.316l-.001-.003-.044-.084a56.574 56.574 0 0 0-3.567-5.948l-.004-.005-.018-.028-.008-.011-.016-.023-.012-.017-.015-.022-.01-.016-.017-.023-.011-.016-.015-.022-.012-.017-.014-.02-.015-.022-.011-.016-.016-.022-.011-.017-.019-.026-.007-.01-.02-.028-.007-.01-.02-.029-.006-.01-.02-.028-.007-.01-.021-.03-.005-.007-.023-.032-.004-.005-.024-.034-.002-.004-.026-.036v-.001l-.33-.46a2.631 2.631 0 0 1-.08-.118 2.622 2.622 0 0 1-.085-.109l-.003-.003-.017-.024-.002-.002-.017-.023-.008-.01-.007-.01a47.654 47.654 0 0 0-.114-.155 2.577 2.577 0 0 1 .54-3.597c.44-.328.974-.504 1.523-.504Z" fill="#F4AC03"/><path d="M48.3 102.033C48.3 76.886 27.912 56.5 2.765 56.5h-.877A10.09 10.09 0 0 0-8.2 66.59v.876C-8.2 92.614 12.185 113 37.333 113h.877a10.09 10.09 0 0 0 10.09-10.09v-.877Z" fill="#4DA900"/><path d="M14.913 87.318H-.496a2.568 2.568 0 1 1 0-5.136h15.41a2.568 2.568 0 1 1 0 5.136Z" fill="#378900"/><path d="M42.1 106.8 7.208 71.909l-4.073-4.073A3.632 3.632 0 1 0-2 72.973l4.072 4.072 34.891 34.891a3.633 3.633 0 0 0 5.136 0 3.632 3.632 0 0 0 0-5.136Z" fill="#378900"/><path d="M28.422 71.691a2.56 2.56 0 0 1 1.742.683h.001l.028.026.002.002a40.763 40.763 0 0 1 3.815 4.052l.002.002.024.03.05.06.003.004.02.026.005.005.047.058.005.007.02.023.004.006.047.058.005.007.018.021.007.009.018.023.005.006.021.026.009.011.014.018.009.01a2.8 2.8 0 0 0 .016.02l.007.01.02.026.01.011.012.016.011.014a.832.832 0 0 1 .024.03l.018.022.012.015.01.013.012.016.008.01.046.058.007.01.015.018.006.008.05.063.003.005.016.02.005.006.052.067v.001l.018.023.002.003.073.094c.693.9 1.348 1.83 1.964 2.787A2.568 2.568 0 0 1 32.435 83a35.58 35.58 0 0 0-5.757-6.855 2.569 2.569 0 0 1 1.744-4.454ZM2.072 61.636H2.997l.018.001H3.13l.024.001h.075l.019.001h.062l.013.001h.053l.01.001h.031l.031.001h.042l.02.001h.046l.016.001h.032l.013.001h.031l.02.001h.011l.025.001h.037l.032.002h.044l.018.001h.013l.018.001h.014l.017.001h.031l.014.001h.018l.013.001h.018l.014.001h.018l.012.001h.021l.01.001.031.001h.01l.021.001h.012l.02.001h.011l.02.001h.012l.019.001h.012l.018.001h.014l.017.002h.031l.015.001h.018l.012.001.022.001h.01l.03.002h.003l.028.001h.011l.02.001.012.001h.018l.014.001.018.001h.014l.016.001.015.001h.017l.013.001.019.001h.012l.02.002h.01l.022.001h.01l.03.002h.011l.02.002h.015l.016.001.016.001h.014l.017.002h.014l.016.001h.015l.016.002h.015l.016.001.014.001.017.001h.014l.016.002h.016l.015.002h.014l.032.002h.014l.016.002h.015l.016.002h.015l.015.001.016.001.015.001.015.001.016.001h.015l.016.002h.014l.016.002h.015l.016.002h.015l.016.002h.018l.027.002.015.002h.016l.014.002h.016l.015.002h.016l.015.002h.015l.016.002h.015l.016.002h.014l.017.002.014.001.018.001.012.001.021.002h.01l.03.002.007.001.024.002h.014l.017.002h.013l.017.002.014.001.017.002h.015l.015.002.015.001.017.001.014.001.017.002h.013l.019.002.012.001.02.002h.01l.028.003h.003l.031.002.008.001a.74.74 0 0 1 .022.002l.013.001.018.001.014.002h.016l.014.002.017.002h.014l.017.002.014.001.016.002h.015l.017.002.013.002.019.001.011.001.023.002h.008l.03.004h.014l.016.002.014.002.017.001.014.001.017.002.014.001.016.002h.014l.018.003h.012l.018.002.013.002.018.001.013.002.017.001.014.001.017.002.024.002.019.002.013.002.017.001.014.002.017.001.015.002.015.001.015.002.015.001.016.002.014.001.016.002.014.001.017.002.014.001.015.002.018.002.013.001.022.002.008.001.03.003.01.002.02.002.014.001.016.002.015.001.016.002.014.002.016.001.015.002.016.002.014.001.017.002.013.002.018.002h.013l.018.003.012.001.023.003h.007l.03.004.011.001.02.002.013.002.017.002.014.001.016.002.014.002.017.002.013.002.017.002.014.001.016.002.014.002.018.002.012.001.02.002.01.002.023.002.008.001.03.004.008.001.023.003.01.001.02.002.012.002.018.002.013.002.017.002.013.002.019.002.011.001.019.003.012.001.018.002.012.002.02.002.01.002.022.003h.009l.03.005h.01l.02.004.013.001.017.002.013.002.018.002.012.002.018.002.013.002.018.002.012.002.018.002.013.002.018.003.012.001.019.003.011.001.023.003.007.001.03.005h.004l.027.004h.006l.024.004.01.001.02.003.011.002.02.002.012.002.018.003.012.001.018.003.012.002.02.002.01.002.019.003.012.001.022.003.007.002.06.008.01.002c.007 0 .014.002.02.003l.013.002.018.002.011.002.02.003.01.001.02.003.01.002.02.003.012.001.02.003.01.002.02.003.01.002.022.003.008.001.027.004.006.001.028.004.008.002.021.003.011.002.02.003.01.001.02.003.01.002.021.003.01.002.02.003.01.002.02.003.01.001.022.004.009.001.024.004.006.001.061.01h.001l.03.005h.005l.024.005.009.001.022.004.008.001.022.004.009.001.02.004.01.001.021.004.01.001.023.004.006.001.028.005h.002l.092.016H9.6l.025.005.008.001.022.004.009.002.022.004h.008l.022.005.008.001.023.004.008.001.023.005h.007l.025.005.005.001.09.016.008.002.023.004.008.001.022.004.01.002.02.004.01.001.02.004.01.002.02.004.01.001.023.005h.006l.027.005.003.001.092.017h.003l.027.006h.005l.025.005.006.002.024.004.007.002.023.004.008.001.023.005.006.001.025.005h.006l.028.006h.001l.092.018h.003l.027.006.005.001.025.005.006.001a.972.972 0 0 1 .025.005l.006.001.023.005.008.002.023.004.006.002.025.004.005.002.028.005h.002l.092.019.03.006h.004l.025.006.007.002.024.004.007.002a.94.94 0 0 1 .023.005l.007.001.024.005.005.001.026.005.004.001.152.032h.002l.028.007h.004l.026.006.005.001.024.005.007.002.025.005.004.001.026.006h.004l.152.034.03.006.002.001.029.006h.002l.027.007h.004l.027.007h.003l.028.007h.002l.182.041.003.001.027.007h.002l.028.006.004.001.027.006.002.001.243.057.03.007c1.692.406 3.355.921 4.98 1.543a2.568 2.568 0 0 1-1.839 4.796 35.014 35.014 0 0 0-12.558-2.31h-.692a.281.281 0 0 0-.1.012 2.568 2.568 0 0 1-1.974-4.742l.158-.062h.001l.014-.006.015-.005.014-.006h.001l.014-.005h.001l.014-.006H.23l.014-.005h.001l.013-.005h.002l.013-.005.002-.001.013-.004.002-.001.013-.005h.002l.013-.005h.002l.013-.005h.002l.013-.005H.35l.013-.005h.002l.013-.005H.38l.012-.005h.004l.011-.004.003-.001.012-.004.003-.001.012-.004H.44l.012-.004.003-.001.012-.004.003-.001.012-.004h.004l.01-.004.005-.001.01-.004.006-.001.01-.003.005-.002.01-.003.005-.001.01-.003.006-.002.01-.002.005-.002.01-.003.006-.001.01-.003.005-.002.01-.003h.006l.01-.004.005-.001.01-.003.006-.001.01-.003.005-.001.01-.003.006-.002.01-.002.006-.002.01-.002.005-.002.01-.002.005-.001.01-.003.006-.001.009-.002.007-.002.009-.002.007-.002.008-.002.007-.002.009-.002.007-.001.008-.002.008-.002.008-.002.007-.002.009-.002.007-.001.009-.002.006-.002.01-.002.006-.001.01-.002.005-.002.01-.002h.006l.01-.003.005-.001.011-.002.005-.002.011-.002H.97l.011-.003.005-.001.011-.002.005-.001.01-.002.006-.001.011-.002.005-.001.011-.002.005-.002.011-.002h.006l.01-.002.006-.001.01-.002.006-.001.01-.002.006-.001.011-.002h.004l.011-.003h.006l.01-.002.006-.001.01-.002h.006l.011-.003h.004l.012-.002.005-.001.011-.002h.004l.012-.002h.004l.012-.003h.004l.012-.002h.004l.013-.002h.003l.013-.003h.004l.012-.002h.004l.013-.002h.003l.013-.002h.004l.013-.002h.003l.013-.002h.004l.012-.003h.004l.013-.002h.004l.012-.001h.004l.013-.002h.004l.013-.002h.003l.013-.002h.003l.014-.002h.003l.014-.001h.002l.014-.002h.003l.014-.002h.003l.013-.001h.003l.014-.002H1.6l.002-.001.014-.001h.002l.015-.002h.016l.002-.001.014-.001h.003l.014-.001h.002l.015-.001H1.7l.015-.002h.019l.014-.002H1.768l.015-.001h.002l.015-.001h.002l.015-.001H1.835l.015-.001h.002l.015-.001H1.886l.015-.001H1.92l.015-.001H1.971l.015-.001H2.072Z" fill="#9FE27C"/><path d="M-3.856 59.169a2.569 2.569 0 0 1 1.96 4.226 4.89 4.89 0 0 0-1.168 3.195v.876c0 22.276 18.122 40.398 40.397 40.398h.877c.3 0 .599-.027.894-.08a2.57 2.57 0 0 1 2.568 3.991 2.57 2.57 0 0 1-1.653 1.063c-.404.073-.81.121-1.22.145l-.013.001h-.002l-.013.001h-.016l-.068.004H38.674l-.005.001h-.015l-.01.001h-.016l-.004.001h-.015l-.034.001-.006.001h-.023l-.007.001h-.024l-.007.001h-.03l-.014.001h-.024l-.008.001h-.039l-.007.001h-.066l-.01.001h-.977C12.186 113-8.2 92.614-8.2 67.467V66.439l.001-.01v-.047l.001-.007v-.04l.001-.006v-.03l.001-.007v-.024l.001-.007v-.025l.001-.006v-.015l.001-.011v-.023l.001-.012v-.006l.001-.01v-.015l.001-.006v-.016l.001-.01v-.015l.001-.006v-.009l.001-.006v-.015l.001-.007v-.015l.001-.008v-.008l.001-.008v-.007l.001-.008v-.007l.001-.008v-.008l.001-.008v-.015l.001-.007.001-.011v-.01l.001-.009v-.006l.001-.01v-.006l.001-.008.001-.008v-.008l.001-.007v-.008l.001-.007v-.008l.001-.008v-.005l.001-.01.002-.022v-.007l.001-.008.001-.007v-.008l.001-.007v-.009l.001-.006.001-.008v-.007l.001-.009v-.006l.002-.009v-.006l.001-.009v-.006l.002-.015v-.008l.001-.008.001-.007.001-.009v-.006l.001-.009v-.006l.002-.01v-.004l.001-.01v-.005l.002-.01v-.004l.001-.01v-.002l.004-.038v-.004l.002-.01v-.005l.001-.01.001-.005.001-.009v-.006l.002-.009v-.005l.001-.01v-.005l.002-.01v-.001l.005-.038v-.004l.001-.01v-.004l.002-.01v-.005l.002-.01v-.005l.002-.01v-.004l.001-.011v-.003l.008-.053.001-.012v-.004l.002-.01v-.004l.002-.01v-.005l.002-.01v-.004l.002-.011v-.002l.012-.082v-.001l.002-.013v-.002l.002-.012v-.001l.016-.097.002-.014.002-.014a10.052 10.052 0 0 1 2.25-4.874 2.562 2.562 0 0 1 1.962-.91Z" fill="#378900"/><path d="M47.236 106.8 7.208 66.773 3.136 62.7a3.632 3.632 0 1 0-5.137 5.136l4.073 4.073L42.1 111.936a3.633 3.633 0 0 0 5.137 0 3.632 3.632 0 0 0 0-5.136Z" fill="#6EC030"/><path d="M12.345 74.477a2.568 2.568 0 1 1-5.137 0V64.204a2.568 2.568 0 0 1 5.137 0v10.273ZM38.027 100.159a2.568 2.568 0 0 1-5.136 0v-15.41a2.568 2.568 0 1 1 5.136 0v15.41ZM22.618 84.75a2.568 2.568 0 1 1-5.137 0V69.34a2.568 2.568 0 0 1 5.137 0v15.41Z" fill="#6EC030"/><path d="M14.913 82.182H-.496a2.568 2.568 0 1 1 0-5.137h15.41a2.568 2.568 0 1 1 0 5.137ZM25.186 92.454H9.776a2.568 2.568 0 0 1 0-5.136h15.41a2.568 2.568 0 1 1 0 5.136Z" fill="#6EC030"/></svg>