<svg width="86" height="80" fill="none" xmlns="http://www.w3.org/2000/svg"><path fill-rule="evenodd" clip-rule="evenodd" d="M57.66 1.19a20.01 20.01 0 0 0-7.287 39.343l.59.11 38.874 6.601a4.12 4.12 0 0 0 1.708-8.053l-.331-.07-38.874-6.602a11.774 11.774 0 0 1-9.8-13.6 11.77 11.77 0 0 1 13.74-9.607c6.551 1.112 10.786 6.79 9.722 13.057a4.12 4.12 0 0 0 8.124 1.38c1.84-10.839-5.512-20.7-16.465-22.56Z" fill="#63C1DF"/><path d="M18.455 23.188C9.916 21.738 1.834 27.602.368 36.236c-1.465 8.634 4.23 16.836 12.768 18.285.14.024.28.04.417.05l.403.09 3.63.616a13.67 13.67 0 0 0-2.305 5.602c-1.318 7.766 3.678 14.975 11.565 16.314 7.318 1.242 11.944-1.184 14.975-5.956a4.12 4.12 0 0 0-6.956-4.42c-1.352 2.13-2.82 2.901-6.638 2.253-3.36-.57-5.386-3.493-4.823-6.812.516-3.04 3.53-5.182 6.882-4.814l.404.057 55.8 9.472a4.12 4.12 0 0 0 1.711-8.053l-.331-.07-72.535-12.313c-.14-.024-.28-.04-.417-.05l-.07-.018-.333-.071c-4.015-.682-6.734-4.598-6.023-8.783.71-4.185 4.571-6.985 8.584-6.303 3.106.527 5.373 2.767 5.758 5.705l.043.425a4.12 4.12 0 0 0 8.22-.558c-.48-7.049-5.73-12.522-12.642-13.696ZM21.664 2.243a5.885 5.885 0 1 0-1.97 11.604 5.885 5.885 0 0 0 1.97-11.604ZM92.081 9.42a5.886 5.886 0 1 0-1.97 11.605 5.886 5.886 0 0 0 1.97-11.605ZM57.048 75.108a5.886 5.886 0 1 0-1.97 11.606 5.886 5.886 0 0 0 1.97-11.606Z" fill="#63C1DF"/></svg>