<svg width="133" height="116" fill="none" xmlns="http://www.w3.org/2000/svg"><path fill-rule="evenodd" clip-rule="evenodd" d="M43.702 22.533a25.518 25.518 0 0 1 5.825 50.692l-.76.088-50.034 4.992A5.253 5.253 0 0 1-2.735 67.91l.429-.06 50.033-4.993a15.01 15.01 0 1 0-2.98-29.87c-8.432.842-14.317 7.695-13.512 15.76a5.254 5.254 0 0 1-10.456 1.043c-1.39-13.95 8.825-25.85 22.923-27.257Z" fill="#B8EEFF"/><path d="M91.652 53.954c10.99-1.096 20.759 7.071 21.867 18.184 1.108 11.112-6.855 21.048-17.845 22.144-.18.018-.36.027-.535.026l-.52.079-4.672.466a17.431 17.431 0 0 1 2.442 7.329c.997 9.995-5.991 18.729-16.142 19.741-9.419.94-15.092-2.552-18.53-8.889a5.253 5.253 0 1 1 9.236-5.012c1.534 2.828 3.334 3.937 8.248 3.446 4.326-.431 7.159-3.972 6.733-8.243-.39-3.914-4.037-6.902-8.334-6.727l-.518.037-71.82 7.162a5.254 5.254 0 0 1-1.47-10.395l.428-.06 93.357-9.31c.179-.018.36-.027.534-.026l.092-.019.428-.06c5.168-.516 8.97-5.26 8.433-10.647-.537-5.386-5.204-9.286-10.37-8.77-3.996.398-7.077 3.05-7.824 6.753l-.092.538a5.254 5.254 0 0 1-10.409-1.43c1.228-8.926 8.387-15.43 17.283-16.317ZM89.404 27.026a7.505 7.505 0 1 1 1.49 14.937 7.505 7.505 0 0 1-1.49-14.937ZM-.808 29.988A7.505 7.505 0 1 1 .68 44.925 7.505 7.505 0 0 1-.81 29.99ZM38.007 116.626a7.503 7.503 0 0 1 8.213 6.723 7.505 7.505 0 1 1-8.213-6.723Z" fill="#B8EEFF"/></svg>