<svg width="125" height="192" fill="none" xmlns="http://www.w3.org/2000/svg"><path d="M31.527 124.251c-1.467 1.275-3.111 2.422-4.993 2.909-1.882.487-4.043.22-5.498-1.069-1.475-1.308-1.989-3.406-2.015-5.378-.043-3.322 1.383-6.952 4.416-8.306-2.8-.581-5.738-1.229-7.88-3.123-2.142-1.894-3.083-5.47-1.215-7.635 2.169-2.514 6.198-1.593 9.32-.463-2.487-2.976-3.156-7.36-1.67-10.942.29-.699.678-1.394 1.308-1.813.874-.58 2.017-.513 3.053-.348 2.49.398 4.99 1.286 6.785 3.056 1.796 1.77 2.736 4.55 1.839 6.907a33.88 33.88 0 0 1 10.038.348c2.477.46 5.13 1.367 6.419 3.533 1.05 1.767.891 4.175-.383 5.788-1.275 1.613-3.58 2.326-5.542 1.712.661 2.467 3.608 3.577 4.859 5.804 1.435 2.555.278 5.729-.893 8.415-.813 1.866-1.85 3.939-3.804 4.514-2.068.608-4.2-.781-5.626-2.397-.93-1.054-2.286-4.83-3.39-5.273-1.762-.706-3.995 2.776-5.128 3.761ZM59.017 120.151c-2.332-3.119-1.088-8.241 2.415-9.943-3.071 1.028-6.87-.409-8.201-3.361-1.331-2.953.363-6.968 3.496-7.79 2.773-.727 5.6.913 7.783 2.769-1.926-2.7-.507-6.456 1.203-9.297.66-1.098 1.387-2.203 2.447-2.923 1.058-.721 2.532-.974 3.619-.295 1.107.69 1.503 2.084 1.813 3.352.503 2.065 1.011 4.18.788 6.294 1.752-3.141 6.96-3.422 9.04-.487 2.08 2.934.087 7.755-3.457 8.366 1.632.812 3.297 1.647 4.58 2.944 1.281 1.297 2.135 3.161 1.758 4.946-1.656 7.842-10.769.836-14.607 3.317-2.111 1.365-2.829 3.693-5.543 4.397-2.531.656-5.536-.15-7.134-2.289ZM51.661 78.237c-1.61.212-3.323.182-4.76-.573-1.727-.906-2.84-2.867-2.735-4.813.105-1.947 1.424-3.776 3.238-4.49-3.627.266-7.502-.906-9.83-3.699-2.329-2.792-2.642-7.311-.182-9.99 2.46-2.678 7.604-2.385 9.258.853-.816-3.131-1.535-6.409-.88-9.577.655-3.169 3.046-6.2 6.259-6.587 2.674-.321 5.226 1.197 7.267 2.955 1.785 1.539 3.414 3.385 4.107 5.637.693 2.252.256 4.97-1.542 6.493 4.025-2.499 9.234-2.985 13.652-1.275.635.246 1.279.553 1.699 1.09.37.475.528 1.08.644 1.671.566 2.89.176 6.298-2.146 8.11-1.472 1.149-3.418 1.43-5.26 1.735-.443.074-.913.165-1.238.475-.75.718-.206 2.018.572 2.707.779.688 1.803 1.219 2.15 2.199.306.864-.02 1.812-.364 2.662-1.123 2.768-3.305 5.904-6.251 5.405-1.64-.278-2.46-1.499-3.337-2.754-1.348-1.93-.47-1.946-2.558-1.255-2.722.902-4.738 2.623-7.763 3.021ZM62.662 43.267c-.817-.97-1.135-2.289-1.083-3.556.059-1.431.737-3.012 2.107-3.432a9.084 9.084 0 0 1-5.108 1.022c-.815-.078-1.637-.275-2.324-.72-1.704-1.106-2.13-3.653-1.111-5.41 1.019-1.758 3.196-2.662 5.217-2.453 2.02.209 3.853 1.4 5.15 2.965.292-1.26.596-2.548 1.287-3.642.691-1.094 1.854-1.978 3.148-1.982 1.504-.003 2.83 1.235 3.22 2.688.39 1.453-.027 3.031-.82 4.308 1.41.275 2.883.167 4.274.53 1.39.364 2.775 1.417 2.836 2.853.059 1.36-1.128 2.517-2.434 2.896-1.306.378-2.702.162-4.044-.057.983.866 1.986 1.756 2.617 2.904.632 1.148.828 2.625.159 3.752-.942 1.586-3.267 1.861-4.92 1.043-1.416-.701-2.133-2.262-3.64-2.654-1.77-.461-3.018.74-4.531-1.055ZM105.967 63.944c-1.976-.782-3.181-2.936-3.281-5.058-.099-2.122.746-4.192 1.898-5.977-1.774.916-4.006.641-5.723-.376-1.717-1.017-2.969-2.684-3.85-4.476-.908-1.847-1.412-4.21-.176-5.857 1.156-1.541 3.408-1.813 5.281-1.363 1.873.45 3.562 1.466 5.397 2.05a12.1 12.1 0 0 1-2.295-8.865c.167-1.189.546-2.405 1.399-3.25 1.346-1.33 3.492-1.397 5.355-1.061 2.451.442 4.918 1.53 6.34 3.575 1.422 2.044 1.434 5.173-.449 6.803a19.512 19.512 0 0 1 9.589-2.722c2.966-.051 6.57 1.21 6.982 4.149.408 2.916-2.592 5.074-5.264 6.313-1.551.72-3.278 1.394-4.931.957 1.592 1.003 3.519 1.294 5.265 1.995 1.747.7 3.474 2.089 3.573 3.968.08 1.51-.96 2.9-2.256 3.68-1.296.779-2.82 1.064-4.307 1.335-1.992.364-3.892.614-5.911.383-1.302-.149-2.587-.783-3.88-.255-3.182 1.301-4.339 5.797-8.756 4.052ZM106.513 75.457c.559-1.896 1.606-3.771 3.348-4.705 1.742-.934 4.26-.564 5.221 1.163-.445-1.439.059-3.007.795-4.32 1.045-1.863 2.694-3.525 4.785-3.962 2.09-.436 4.57.737 5.048 2.818.433 1.886-.777 3.718-1.924 5.277 1.455-2.4 4.584-3.693 7.27-2.88 2.686.812 4.593 3.748 4.104 6.51-.49 2.764-3.424 4.89-6.18 4.362 2.029-.18 4.185.747 5.23 2.494 1.046 1.748.751 4.26-.834 5.538-1.516 1.222-3.71 1.125-5.587.609-2.443-.672-4.591-2.083-5.621-4.45-.645 1.648-.98 5.847-3.74 5.566-1.584-.162-1.926-1.987-2.399-3.243-1.936-5.143-4.559-8.168-9.516-10.777Z" fill="#F68F8D"/><path d="M127.509 121.651c-11.36 5.293-25.013 8.005-36.252 2.46a640.008 640.008 0 0 1 33.969-7.015l-20.745-11.876c-2.793-1.599-5.632-3.234-7.816-5.597-1.904-2.06-3.228-4.588-5.033-6.736-5.316-6.328-14.373-8.61-22.548-7.391-8.175 1.218-15.595 5.462-22.254 10.358a22.526 22.526 0 0 1 4.037-8.982c-9.383.543-18.93-2.919-25.785-9.348l48.156 3.853c2.018.162 4.784-.278 4.905-2.3.083-1.38-1.243-2.358-2.18-3.376-1.521-1.65-2.22-4.023-1.834-6.233a152.138 152.138 0 0 1 27.321 19.87 32.75 32.75 0 0 0-3.494-14.968c-2.05-4.062-4.937-7.67-6.84-11.803-1.591-3.455-2.473-7.233-4.378-10.526-2.858-4.94-7.906-8.596-9.657-14.028-.951-2.95-.798-6.242.423-9.09.18-.421.424-.87.856-1.02.33-.114.694-.023 1.021.1 2.222.83 3.651 2.951 4.931 4.949l17.297 26.999c1.26 1.966 2.535 3.966 3.197 6.206.997 3.374.526 7.034 1.393 10.444.724 2.848 2.369 5.472 2.566 8.404.244 3.636-1.782 7.29-.877 10.82 1.161 4.533 6.351 6.506 10.804 7.945a210.422 210.422 0 0 1 46.27 21.454c1.164.722 2.365 1.502 3.052 2.688 1.542 2.662-.125 6.018-2.053 8.416-1.855 2.308-3.542 7.329-6.509 5.965-3.657-1.679-7.094-5.064-10.725-7.053-3.8-2.08-7.699-3.983-11.425-6.198-1.02-.606-9.689-7.439-9.793-7.391Z" fill="#4E3B31"/><path d="M114.56 125.335a11.968 11.968 0 0 0-2.986 3.3c-1.09 1.782-3.605 6.89-2.369 8.731 1.961-1.16 3.446-3.346 4.339-5.414.394-.913.767-6.428 1.016-6.617ZM99.028 103.992c.506-.384 1.001-.902 1.005-1.537.002-.347-.144-.674-.248-1.005-.321-1.026-.231-2.134-.429-3.19-.373-1.997-1.845-3.752-3.747-4.465 1.126.422-3.94 9.51-3.797 10.358.496 2.947 5.663 1.017 7.216-.161ZM86.25 66.739c-2.882-.169-7.442 9.755-2.062 9.172 3.788-.41 7.17-8.873 2.062-9.172Z" fill="#BED665"/><path d="M124.304 62.518c1.46.82 2.368 1.974 2.574 3.29.11.696-.135 1.572-.504 2.408 3.299-.63 8.065-.42 9.526 2.265 1.08 1.982-.293 5.37-2.244 7.499-.645.704-1.313 1.225-1.974 1.55 1.043 1.01 1.94 2.114 2.078 2.573.778 2.599-1.989 5.403-4.236 6.19-1.623.569-4.748.824-6.306-.427-.635-.51-.85-1.52-1.04-2.412-.029-.136-.064-.3-.101-.456-.446.551-.666 1.214-.896 1.908-.532 1.607-1.135 3.428-4.491 3.792-1.248.135-2.141-.1-2.729-.72-1.026-1.08-.729-2.918-.416-4.864.288-1.784.585-3.629-.195-4.546-.973-1.143-2.237-1.901-3.46-2.634-2.151-1.288-4.375-2.621-3.283-5.766 1.438-4.138 5.219-3.346 7.25-2.921.424.088.975.204 1.271.212a5.618 5.618 0 0 0-.306-.592c-.329-.581-.701-1.24-.557-1.953.476-2.344 2.519-5.01 5.116-5.418 1.298-.203 2.994.09 4.427.767.172.08.337.166.496.255Zm.199 6.204c.564-.977 1.045-2.131.957-2.691-.206-1.316-1.507-2.111-2.264-2.47-1.168-.552-2.578-.805-3.592-.646-1.953.306-3.561 2.462-3.931 4.285-.038.187.225.653.4.96.357.632.954 1.687.063 2.431-.574.48-1.412.304-2.572.061-2.593-.543-4.652-.74-5.599 1.987-.679 1.956.385 2.699 2.664 4.064 1.261.755 2.69 1.611 3.816 2.935 1.209 1.421.843 3.697.519 5.704-.244 1.516-.497 3.082.04 3.647.255.27.771.364 1.533.281 2.437-.264 2.792-1.334 3.282-2.815.325-.98.693-2.092 1.735-2.963.434-.363.829-.303 1.025-.235.648.223.804.962 1.004 1.897.112.525.299 1.403.536 1.593 1.03.832 3.566.67 4.931.191 1.659-.582 3.838-2.743 3.335-4.423-.179-.432-1.364-1.683-2.392-2.582a2.729 2.729 0 0 1-1.004-.227c-.74-.272-1.127-.548-1.285-.919a.864.864 0 0 1 .001-.692c.166-.382.539-.603.973-.577.449.027 1.096.405 1.779.937.651-.14 1.402-.639 2.141-1.445 1.715-1.872 2.688-4.657 2.042-5.843-.982-1.805-5.023-2.188-8.202-1.509-.37.079-.697.165-.983.254a9.323 9.323 0 0 1-.701.972c-.48.558-1.186 1.19-1.829 1.032a.873.873 0 0 1-.642-.666c-.136-.575-.035-1.665 2.169-2.509l.051-.019ZM31.95 112.5c.205.116.35.327.37.572.046.562-.35.735-1.308 1.154-.291.127-1.013.434-1.437.543-.702.18-.963-.215-1.043-.392-.276-.616.313-1.011.665-1.248.46-.309 1.393-.814 2.465-.718a.728.728 0 0 1 .288.089Zm-2.353 1.225-.002-.001.002.001ZM38.33 104.31a.72.72 0 0 1 .337.83c-.08.271-.13.453-.165.583-.11.409-.142.48-.378.847-.064.102-.151.237-.27.43a.718.718 0 0 1-1.222-.754c.125-.203.216-.345.284-.451.137-.214.137-.214.2-.445.037-.138.088-.329.173-.616a.718.718 0 0 1 1.04-.424ZM52.148 63.104a.718.718 0 0 1-.186 1.325l-.598.141a.718.718 0 0 1-.716-.238L50.372 64l-.64-.394a.718.718 0 0 1-.233-.988.725.725 0 0 1 .988-.234l.738.455c.066.04.125.091.174.151l.068.08.165-.039a.713.713 0 0 1 .516.072ZM114.982 124.8c.615.346.87 1.348 1.105 2.513.027.13.045.231.061.285 1.329 4.071-.59 6.074-3.445 8.46-.45.375-1.556 1.007-2.44 1.473-2.054 1.082-2.274 1.002-2.553.9a.77.77 0 0 1-.478-.57c-.081-.465.284-.77.479-.933.778-.65 1.312-2.784 1.829-4.847.902-3.602 1.923-7.683 5.036-7.404.151.013.285.056.406.123Zm-5.127 11.321c.814-.438 1.63-.917 1.927-1.165 2.872-2.399 4.024-3.779 2.999-6.92-.031-.093-.054-.207-.101-.438-.155-.767-.293-1.27-.411-1.497-1.767.058-2.599 3.383-3.337 6.328-.346 1.385-.666 2.664-1.077 3.692ZM54.963 68.613c.239.134.39.4.364.69l-.07.773a.72.72 0 0 1-.254.488l-1.473 1.23a.716.716 0 0 1-.295.148l-1.194.282a.717.717 0 1 1-.331-1.397l1.029-.243 1.115-.931.042-.477a.718.718 0 0 1 1.067-.563Z" fill="#231F20"/><path d="M130.097 36.98c.111.062.22.128.324.196 1.265.83 2.575 2.485 1.639 5.66-.545 1.846-2.942 4.376-5.262 5.599.851.495 1.468.924 1.482.937 1.989 1.79 1.33 6.77.433 8.826-.507 1.163-1.684 2.061-3.404 2.6-2.581.807-5.82.608-7.53-.438-.32-.197-.764-.669-1.522-1.486-.486-.524-1.273-1.372-1.611-1.617-.903.163-1.734 1.439-2.539 2.675-.765 1.173-1.556 2.387-2.594 2.952-2.571 1.4-4.28.622-5.262-.276-2.471-2.264-2.768-7.406-1.801-10.038-.39-.24-1.306-.577-2.07-.86-3.129-1.159-7.858-2.912-7.502-6.882.347-3.876 3.503-6.698 8.038-7.19a5.69 5.69 0 0 1 2.11.204c-.373-1.162-.47-2.34-.272-3.476.38-2.188 1.803-4.063 4.115-5.42 1.428-.838 3.197-.96 4.981-.343 2.235.772 4.262 2.63 5.045 4.622.287.73.916 2.556.845 4.35 3.602-1.588 9.208-2.363 12.357-.595Zm-4.928 10.6c2.085-.647 5.012-3.446 5.514-5.15.56-1.897.216-3.223-1.049-4.053-3.19-2.102-10.733-.47-13.291 1.666-.572.478-.974.136-1.083.02-.175-.184-.392-.574.116-1.117.761-.816.895-1.106.917-1.193.095-1.08-.178-2.587-.735-4.004-.627-1.598-2.345-3.157-4.177-3.79-.977-.338-2.426-.573-3.785.225-1.937 1.137-3.122 2.668-3.427 4.427-.269 1.546.155 3.212 1.199 4.776.076.09.155.187.238.29.568.708.721.898.637 1.272a.717.717 0 0 1-.531.542c-.44.107-.698-.2-.807-.332a11.59 11.59 0 0 1-.682-.901 4.117 4.117 0 0 0-.448-.473c-.727-.587-1.911-.805-2.704-.72-3.044.33-6.419 2.052-6.763 5.891-.258 2.877 3.852 4.4 6.571 5.408 1.832.678 2.724 1.034 3.005 1.695.11.258.109.541-.002.798-.994 2.28-.514 6.994 1.339 8.692.939.86 2.118.884 3.606.074.72-.391 1.41-1.45 2.078-2.475 1.042-1.6 2.119-3.253 3.804-3.342.581-.03 1.112.487 2.601 2.092.441.474 1.044 1.125 1.224 1.241 1.354.835 4.195.962 6.347.289 1.292-.405 2.186-1.045 2.517-1.804.839-1.925 1.15-6.08-.078-7.185-.299-.245-1.321-.847-2.328-1.343a3.565 3.565 0 0 1-.549.057c-.134.003-.297.018-.47.033-.78.069-1.586.14-2.069-.343a1.058 1.058 0 0 1-.299-.856c.041-.455.303-.81.718-.974.664-.261 1.768.075 2.846.568Zm-22.605 4.705.001-.002-.001.002ZM35.63 106.867c.31.174.602.42.866.737.506.605.554 1.318.13 1.906-.826 1.143-3.651 1.695-4.26 1.456-.533-.211-.844-.715-.832-1.349.018-1.022.924-2.472 2.192-2.919a2.26 2.26 0 0 1 1.904.169Zm-.151 1.775c-.006-.003-.025-.047-.085-.118-.587-.703-1.07-.557-1.383-.385-.64.352-1.015 1.115-1.044 1.458.745-.054 2.365-.571 2.512-.955Zm-2.849 1.656-.002-.002.002.002Z" fill="#231F20"/><path d="M45.81 96.205c.668.375 1.397.915 2.2 1.663.183.171.387.349.6.534 1.005.876 2.258 1.968 2.598 3.404.783 3.31-1.107 6.78-4.395 8.072-.232.091-.552.12-1.146.168-.109.009-.251.02-.403.035.163.12.257.199.33.285l.14.168c1.847 2.207 5.285 6.314 3.214 9.365-.86 1.266-6.718 6.95-9.283 6.346-2.035-.479-4.038-3.428-4.58-4.424-.25-.458-.296-1.108-.335-1.744-.5.525-.956 1.114-1.43 1.727-1.381 1.786-2.947 3.81-6.02 4.292-4.068.637-5.696-1.521-6.306-2.864-1.51-3.329-.117-8.517 2.979-11.104.298-.249.373-.398.39-.442-.242-.475-2.528-1.105-3.9-1.482-3.4-.937-7.253-1.997-7.007-4.739.276-3.076 3.834-5.33 5.35-6.156.424-.23 1.048-.155 2.307.023.354.05.846.12 1.25.154a16.32 16.32 0 0 0-.403-.456c-.457-.506-.93-1.029-1.108-1.574-1.005-3.078 1.35-7.466 3.982-8.9 4.723-2.57 9.961 2.47 12.664 5.704.969 1.16.763 1.876.392 2.691-.114.252-.232.511-.311.849a1.27 1.27 0 0 1-.062.19c.897-.179 1.65-.669 2.437-1.179 1.526-.992 3.215-2.089 5.856-.606Zm-1.294 15.11a7.87 7.87 0 0 0-.318-.234c-.79-.568-1.361-.978-1.079-1.628.276-.633 1.104-.731 2.433-.838.277-.023.656-.054.76-.082 2.561-1.007 4.108-3.821 3.499-6.397-.234-.988-1.249-1.872-2.144-2.652a25.526 25.526 0 0 1-.636-.566c-3.156-2.942-4.473-2.088-6.295-.904-1.177.763-2.51 1.63-4.41 1.46a.826.826 0 0 1-.698-.476c-.214-.476.093-.892.34-1.227.07-.095.185-.252.218-.322.111-.464.27-.813.397-1.093.248-.547.28-.617-.187-1.177-1.949-2.332-6.91-7.523-10.876-5.363-2.095 1.14-4.073 4.833-3.303 7.193.084.254.486.7.809 1.057.542.6 1.055 1.167 1.122 1.79a.903.903 0 0 1-.27.75c-.486.47-1.35.373-2.965.146-.495-.07-1.232-.174-1.48-.151-1.089.601-4.33 2.583-4.547 4.99-.138 1.549 3.386 2.518 5.958 3.227 2.698.743 4.648 1.279 4.928 2.573.135.62-.16 1.238-.878 1.838l-.46-.551.46.551c-2.557 2.136-3.816 6.708-2.591 9.408.772 1.703 2.423 2.408 4.774 2.039 2.51-.394 3.772-2.025 5.108-3.752.697-.902 1.418-1.833 2.33-2.596.435-.363.832-.251.982-.187.589.252.63.931.683 1.788.023.379.062 1.012.167 1.205.728 1.337 2.447 3.428 3.647 3.712 1.364.322 6.64-4.094 7.766-5.755 1.463-2.154-1.637-5.857-3.127-7.636l-.117-.14ZM36.18 97.47v-.003.003Zm8.315 13.822-.004-.005.004.005Zm-20.129.38-.002-.002.002.002ZM52 58.224c.17.095.3.257.348.461l.102.432 1.65 1.974a.718.718 0 0 1-1.102.92l-1.76-2.104a.72.72 0 0 1-.147-.296l-.14-.596a.718.718 0 0 1 1.05-.791Z" fill="#231F20"/><path d="M34.16 111.724a.72.72 0 0 1 .2.166l.351.421a.72.72 0 0 1 .138.664l-.28.948a.717.717 0 0 1-.228.347l-.631.528a.718.718 0 1 1-.921-1.102l.465-.388.11-.371-.106-.126a.718.718 0 0 1 .902-1.087ZM52.995 66.685a.714.714 0 0 1 .2.166l.351.421a.718.718 0 0 1-.09 1.011l-.422.352a.717.717 0 0 1-.423.166l-1.304.068-1.131.267a.717.717 0 1 1-.33-1.396l1.193-.283a.685.685 0 0 1 .128-.018l.763-.04a.717.717 0 0 1 1.065-.714ZM30.358 104.179c.169.095.3.258.347.462l.103.432.52.622.638.394a.718.718 0 0 1 .234.988.71.71 0 0 1-.988.234l-.738-.456a.706.706 0 0 1-.174-.15l-.703-.842a.712.712 0 0 1-.148-.295l-.14-.597a.717.717 0 0 1 1.049-.792ZM58.826 68.96c.17.095.3.258.348.462l.14.596a.717.717 0 0 1-.01.368l-.279.948a.716.716 0 0 1-.228.349l-.421.35a.717.717 0 1 1-.92-1.101l.253-.212.165-.558-.097-.411a.718.718 0 0 1 1.05-.79ZM63.906 60.07a.717.717 0 0 1-.274 1.34c-.3.032-.48.063-.61.085-.428.073-.577.051-1-.144-.075-.035-.172-.08-.3-.135a.717.717 0 1 1 .574-1.316c.14.06.246.11.33.148l.091.043.064-.01c.14-.025.353-.06.697-.098a.708.708 0 0 1 .428.087ZM68.698 24.377c.145.082.289.178.43.29 1.231.972 2.091 2.96 2.093 4.136.001.801-.055 1.52-.171 2.188.933-.177 2.01-.32 3.035-.277 2.842.117 3.785 1.604 4.075 2.832.44 1.859-.638 3.895-3.205 6.053.64.88 1.127 1.902 1.128 2.295.003 2.784.006 4.983-3.994 5.286-2.076.157-3.654-.149-4.691-.903-.557-.406-.714-1.186-.822-1.922l-.075.126c-.286.484-.61 1.033-1.279 1.198-.548.135-1.152-.027-1.959-.525-1.25-.772-2.933-2.513-1.504-5.927-.94-.004-2.019-.393-3.063-1.155-1.826-1.331-3.16-3.62-2.023-5.73.494-.917 1.115-1.471 1.844-1.647 1.14-.274 2.185.445 2.95.972-.187-1.097-.214-1.413-.159-1.648.497-2.112 3.345-5.358 5.688-5.913.568-.133 1.148-.04 1.702.27Zm.906 6.539c.123-.632.182-1.323.18-2.11 0-.722-.65-2.305-1.546-3.013-.493-.389-.807-.313-.911-.289-1.638.388-4.153 3.012-4.608 4.793.008.244.148 1.043.224 1.482.183 1.05.216 1.238-.122 1.52-.687.574-1.47.032-2.163-.445-.572-.395-1.285-.888-1.806-.762-.314.076-.622.39-.915.932-.726 1.349.283 2.925 1.605 3.89 1.223.89 2.554 1.134 3.099.567.5-.521.917-.298 1.072-.179.343.265.367.645.072 1.13-1.575 2.582-1.496 4.434.233 5.501.644.399.852.355.86.353.084-.021.274-.342.388-.534.222-.377.499-.846.967-1.237.407-.34.777-.271.961-.2.574.22.667.865.771 1.61.048.34.147 1.05.29 1.202.733.534 2.025.75 3.726.622 2.654-.201 2.67-1.038 2.667-3.796-.098-.338-.575-1.14-1.02-1.727-.48.138-.996.18-1.355-.091-.142-.107-.579-.515-.238-1.297.233-.533.707-.796 1.239-.685.228.047.47.184.712.38l.026-.016c2.132-1.786 3.058-3.347 2.751-4.64-.165-.7-.63-1.642-2.737-1.728-1.496-.062-3.208.344-4.231.586-.449.105-.753-.128-.879-.359-.278-.515.126-.898.367-1.127.085-.082.255-.244.321-.333Zm-.013.064Zm4.398 7.556.005-.004-.005.004ZM58.2 61.334c1.731.972 1.981 2.793 1.326 4.106-.641 1.286-2.246 2.25-4.253 1.325-.912-.418-1.45-1.186-1.52-2.162-.085-1.196.586-2.503 1.63-3.178.863-.558 1.868-.604 2.755-.125l.062.034Zm-2.326 4.127c1.223.563 2.04-.005 2.368-.662.355-.711.254-1.672-.785-2.235-.43-.232-.866-.21-1.294.067-.605.391-1.025 1.196-.977 1.87.032.448.257.764.688.96Z" fill="#231F20"/><path d="M79.406 29.8c.699.392 1.74 1.267 3.442 2.882.09.085.151.144.176.166 3.833 3.293 6.983 7.382 9.816 11.31 5.94 8.239 12.483 17.896 14.934 28.257.903 3.813.788 7.67.676 11.4-.159 5.33-.309 10.365 2.31 15.174 1.992 3.659 9.951 7.043 14.227 8.86.546.232 1.047.445 1.488.637 2.73 1.19 5.593 2.332 8.623 3.541 9.013 3.595 18.333 7.313 25.504 12.833.402.311 1.081.715 1.866 1.185 2.932 1.749 6.946 4.146 6.672 7.198-.123 1.375-1.427 3.456-2.99 5.835-.469.714-.874 1.33-1.044 1.664-.045.089-.19.416-.345.762-1.689 3.789-1.872 4.001-2.529 3.911a4.142 4.142 0 0 1-2.154-1.016c-3.18-2.834-6.353-5.04-9.711-7.376-1.422-.989-2.892-2.011-4.38-3.096-1.384-1.009-2.709-2.059-3.991-3.074-3.26-2.584-6.339-5.025-10.177-6.697-1.418-.618-4.81.138-7.054.639-.946.211-1.763.393-2.391.48-5.302.733-11.11.775-18.281.132l-1.054-.092c-2.557-.221-5.454-.471-7.913-1.111-.152-.04-1.496-.412-1.68-1.235a.888.888 0 0 1 .311-.887c1.151-.962 4.079-.88 6.979-.714.389.022.714.041.942.046 4.644.106 22.123-1.204 24.344-3.06.064-.054.14-.13.131-.181-.025-.144-.325-.944-3.754-2.53-2.181-1.011-4.765-1.949-6.652-2.633-.958-.348-1.716-.623-2.131-.804-4.114-1.793-7.519-5.881-10.816-9.835-2.164-2.596-4.21-5.048-6.364-6.781-10.829-8.712-22.787-11.842-34.58-9.052-1.615.383-4.612 2.49-7.51 4.529-4.525 3.183-7.383 5.115-9.03 4.727a.77.77 0 0 1-.538-.494c-.165-.502.047-.75 1.425-2.365.932-1.092 3.76-4.406 3.614-5.245l-.003-.006a3.394 3.394 0 0 1-.677.083c-6.259.133-11.197-.926-16.011-3.432-1.467-.764-4.2-2.374-6.054-4.594-.08-.095-.218-.23-.364-.375-.565-.556-1.1-1.08-.97-1.716a.941.941 0 0 1 .602-.687c.32-.125.325-.127 5.67 1.283 3.595.95 8.518 2.25 9.514 2.339 3.368.302 6.552.019 9.922-.28 2.019-.18 4.106-.365 6.22-.41 1.946-.042 3.953 0 6.078.044 4.87.1 9.9.204 14.304-.732-.546-1.698-3.264-6.909-3.882-7.686-.02-.016-.042-.03-.064-.047-.182-.133-.489-.356-.503-.772a.79.79 0 0 1 .288-.634c.67-.558 1.544-.168 5.708 3.351.248.21.425.36.498.416 5.177 3.986 10.662 8.3 15.812 13.344l.201.2c.597.595 2.414 2.407 3.399 2.329.108-.009.238-.043.377-.233 1.901-2.608.42-8.247-1.6-12.654-1.789-3.904-3.227-7.898-4.617-11.76-2.49-6.92-4.844-13.456-9.054-19.54-1.872-2.705-3.131-5.742-4.349-8.68-.612-1.476-1.246-3.004-1.939-4.435l-.054-.107c-.336-.663-.96-1.898-.183-2.547.316-.263.67-.317 1.32.048Zm36.653 75.426c-2.876-1.614-5.439-3.491-6.56-5.55-2.805-5.15-2.642-10.617-2.484-15.904.109-3.636.221-7.397-.638-11.026-2.391-10.105-8.842-19.621-14.701-27.748-2.78-3.856-5.867-7.866-9.591-11.064a10.144 10.144 0 0 1-.224-.21c-1.073-1.017-1.806-1.658-2.306-2.062l.06.12c.711 1.468 1.353 3.016 1.973 4.512 1.189 2.867 2.418 5.832 4.203 8.412 4.318 6.239 6.812 13.169 9.225 19.87 1.38 3.835 2.807 7.8 4.571 11.648 1.063 2.318 4.306 10.185 1.454 14.099-.357.49-.849.773-1.424.818-1.444.113-3.028-1.252-4.525-2.744l-.192-.19c-5.094-4.99-10.54-9.273-15.683-13.233-.08-.061-.276-.227-.55-.457a86.71 86.71 0 0 0-2.085-1.716c.393.722.81 1.523 1.18 2.263 2.035 4.067 1.867 4.573 1.767 4.875a.807.807 0 0 1-.58.539c-4.714 1.115-10.063 1.005-15.235.898-2.11-.044-4.102-.086-6.018-.045-2.065.044-4.128.227-6.123.404-3.285.292-6.682.594-10.178.28-1.034-.092-4.86-1.088-9.753-2.38-1.29-.34-2.604-.687-3.576-.936.038.042.074.082.107.122 1.237 1.482 3.284 3.028 5.615 4.24 4.589 2.39 9.313 3.398 15.318 3.27a2.16 2.16 0 0 0 .479-.066c.707-.162 1.113.043 1.502.755.68 1.249-.681 3.203-3.793 6.847l-.072.086c1.71-.833 4.27-2.633 6.298-4.06 3.148-2.214 6.12-4.306 8.005-4.751 12.24-2.896 24.623.33 35.81 9.33 2.266 1.822 4.356 4.328 6.567 6.98 3.19 3.826 6.488 7.781 10.287 9.438.374.163 1.112.431 2.047.771 6.92 2.512 10.993 4.342 11.331 6.264.057.329.053.965-.625 1.532-2.959 2.472-22.056 3.467-25.298 3.393-.239-.005-.581-.025-.991-.048-1.093-.063-3.585-.205-5.033.047 2.315.585 5.089.824 7.542 1.036l1.058.093c7.06.633 12.765.594 17.956-.124.57-.079 1.36-.255 2.276-.459 2.714-.606 6.093-1.359 7.94-.554 4.008 1.747 7.159 4.245 10.495 6.888 1.27 1.006 2.584 2.047 3.944 3.039 1.476 1.076 2.939 2.093 4.355 3.078 3.395 2.361 6.602 4.591 9.846 7.482h.001c.295.263.649.465 1.011.579.378-.681 1.103-2.309 1.406-2.986.207-.464.317-.712.376-.828.206-.405.61-1.021 1.123-1.802.995-1.514 2.66-4.047 2.761-5.175.193-2.154-3.521-4.37-5.978-5.837-.824-.493-1.536-.918-2.006-1.28-7.013-5.398-16.238-9.079-25.16-12.637-3.041-1.213-5.914-2.359-8.665-3.558-.438-.191-.934-.403-1.476-.633-2.362-1.005-5.517-2.346-8.366-3.945ZM38.652 109.401a.725.725 0 0 1 .2.166l1.933 2.315a.718.718 0 0 1-.09 1.011l-.42.352a.718.718 0 0 1-1.039-.978l-1.486-1.779a.72.72 0 0 1 .902-1.087Z" fill="#231F20"/><path d="M58.144 57.022c.169.095.3.258.347.461l.142.597a.716.716 0 0 1-.041.452l-.49 1.124a.718.718 0 1 1-1.316-.573l.394-.905-.086-.364a.718.718 0 0 1 1.05-.792ZM27.412 106.641a.722.722 0 0 1 .2.166c.331.398.51.644.615.791.03.041.051.073.072.099.04.019.115.051.187.081l.303.129a.717.717 0 1 1-.574 1.316l-.286-.122c-.466-.196-.582-.269-.866-.663-.101-.14-.254-.352-.553-.71a.718.718 0 0 1 .902-1.087ZM61.773 66.498a.72.72 0 0 1 .2.166l.294.353.78.568.49.214a.717.717 0 0 1 .264.197l.35.42a.718.718 0 0 1-1.101.921l-.243-.29-.407-.178a.693.693 0 0 1-.135-.078l-.914-.666a.718.718 0 0 1-.129-.12l-.351-.42a.718.718 0 0 1 .902-1.087ZM98.582 95.926c.259.145.485.418.723.77.664.975 2.964 5.384 2.678 6.352-1.119 3.794-11.41 2.306-11.511 2.283-.37-.083-.637-.447-.578-.82.048-.308.258-.66.985-.595 1.009.091 1.802-1.661 2.57-3.355 1.055-2.331 2.252-4.974 4.776-4.748.128.011.245.05.357.113Zm1.994 6.801c-.151-.871-1.961-4.726-2.648-5.49-1.303.018-2.143 1.644-3.172 3.916-.494 1.091-.996 2.201-1.636 3.006 2.776.134 6.883-.022 7.456-1.432Zm-9.76 1.904-.003-.001.002.001Z" fill="#231F20"/><path d="M58.075 41.198c2.446 1.372 4.492 3.396 5.59 5.265.921 1.57.496 3.758-.263 5.457.32-.234.58-.419.782-.529 2.394-1.303 6.427-.615 9.172.739 2.467 1.218 3.989 2.917 4.282 4.786.397 2.529-4.264 8.498-6.22 9.563-.404.22-.94.296-1.486.297 1.759 1.608 2.633 3.53 2.463 5.421-.336 3.754-2.892 6.194-7.197 6.868-3.01.472-4.03-1.288-4.773-2.574-.44-.76-.823-1.42-1.504-1.66-.48.189-1.696 1.575-2.36 2.332-.964 1.1-1.58 1.786-2.081 2.029-2.958 1.433-6.12.033-8.66-1.091l-.579-.256c-2.575-1.119-3.593-4.665-3.066-7.307.222-1.11.693-2 1.356-2.614a48.99 48.99 0 0 1-3.485-1.043c-4.526-1.57-6.914-7.146-6.532-11.409.345-3.854 5.864-6.036 8.742-6.348.813-.089 1.682.307 2.477.871-.633-3.102-.042-5.664 1.787-7.794 1.677-1.952 3.97-2.857 6.633-2.619 1.706.153 3.393.757 4.922 1.616Zm2.91 13.286a.806.806 0 0 1-.364-.418c-.213-.559.2-1.002.68-1.514.155-.166.366-.392.425-.495.842-1.485 1.42-3.64.7-4.867-1.602-2.73-5.442-5.823-9.402-6.178-2.213-.198-4.035.517-5.416 2.124-1.833 2.135-2.165 4.728-1.045 8.16.1.304.501.901.804 1.301.042.053.077.098.105.136a.718.718 0 0 1-1.133.881l-.11-.141c-1.038-1.319-2.84-3.028-3.82-2.922-2.541.276-7.21 2.2-7.465 5.05-.336 3.741 1.825 8.622 5.573 9.924 1.637.57 3.36 1.012 5.028 1.44l.096.025a4.233 4.233 0 0 1 .337-.019c.378-.006.902.304 1.057.625a.734.734 0 0 1-.092.778.738.738 0 0 1-.767.237l-.618-.16c-1.347.258-1.815 1.563-1.976 2.37-.41 2.06.402 4.911 2.232 5.709l.587.258c2.388 1.057 5.094 2.256 7.453 1.112.267-.13 1.053-1.028 1.628-1.683 1.684-1.92 2.767-3.084 3.763-2.79 1.283.38 1.889 1.424 2.422 2.346.738 1.274 1.27 2.195 3.309 1.875 2.54-.398 5.641-1.69 5.99-5.578.175-1.958-1.212-3.522-2.054-4.28-.549-.494-1.587-1.48-1.631-1.521a.718.718 0 0 1 .68-1.215c.83.223 2.287.429 2.772.165 1.808-.985 5.74-6.467 5.487-8.08-.216-1.373-1.49-2.73-3.499-3.72-2.769-1.366-6.144-1.695-7.85-.766-.155.084-.484.325-.801.559-1.235.905-2.033 1.45-2.694 1.39a.986.986 0 0 1-.391-.118ZM46.538 67.221h.002-.002Zm-.549.467-.002-.002.002.002ZM80.71 94.921c1.076.603 2.174 1.842 3.378 3.787 1.016 1.642-.35 4.912-1.644 6.71-.316.439-.64.821-.967 1.141 1.766 1.267 2.859 3.256 2.793 5.298-.074 2.265-1.546 3.992-4.041 4.74-2.816.843-5.119 1.034-7.042.581-.462-.11-.79-.463-1.037-.95-.705 1.673-1.965 2.976-3.688 3.775-2.841 1.317-6.632 1.056-9.016-.62-1.49-1.048-2.23-2.519-2.085-4.142.158-1.772 1.419-3.864 2.68-5.554-1.329.003-3.44-.084-5.03-1.243-1.047-.762-1.72-2.021-1.897-3.544-.197-1.695.278-3.443 1.238-4.561 2.706-3.15 5.507-2.603 8.236-1.818-.021-.185-.05-.374-.067-.49-.047-.32-.07-.481-.056-.635.033-.368.051-.723.068-1.066.053-1.033.103-2.008.53-3.158.732-1.97 1.854-3.323 3.245-3.914 1.17-.498 2.468-.443 3.856.162 1.768.768 5.015 3.853 4.79 6.37a5.422 5.422 0 0 1-.625 2.07c.397-.328.792-.738 1.196-1.156 1.076-1.115 2.296-2.38 3.92-2.205.421.045.841.184 1.265.422Zm-.55 10.888c.367-.301.751-.719 1.12-1.23 1.439-2 2.035-4.392 1.587-5.116-1.387-2.241-2.59-3.432-3.575-3.536-.925-.1-1.803.81-2.733 1.774-1.104 1.144-2.356 2.442-4.065 2.289a.774.774 0 0 1-.664-.475c-.19-.463.105-.809.39-1.144.414-.487 1.186-1.395 1.304-2.709.14-1.563-2.386-4.252-3.933-4.926-1.012-.441-1.927-.494-2.72-.157-1.287.547-2.049 1.984-2.46 3.093-.351.944-.394 1.772-.443 2.732-.018.348-.036.707-.07 1.092.005.062.027.212.044.324.12.807.246 1.641-.263 2.084a.914.914 0 0 1-.875.176c-3.228-.952-5.162-1.366-7.361 1.194-.709.825-1.054 2.151-.902 3.461.13 1.12.598 2.026 1.316 2.549 1.364.993 3.352.976 4.54.965.866-.007 1.388-.013 1.637.501.136.284.09.611-.125.876-1.887 2.323-2.994 4.363-3.117 5.743-.126 1.398.736 2.316 1.48 2.84 1.96 1.38 5.22 1.589 7.586.491 1.436-.666 3.204-2.096 3.476-5.127.063-.699.475-.825.716-.839.65-.035.77.556.876 1.078.281 1.394.499 1.85.636 1.979 1.663.38 3.71.193 6.255-.57 1.893-.567 2.965-1.778 3.018-3.411.054-1.675-.992-3.37-2.588-4.34-.591.297-1.177.387-1.734.255-.016-.003-1.079-.296-1.385-.912a.863.863 0 0 1-.022-.74c.242-.554.9-1.078 2.664-.422.132.049.263.102.39.158Zm-16.265-8.284Zm-3.101 11.196v-.001.001Zm.557.452-.002-.002.002.002ZM89.864 66.884a.721.721 0 0 1 .365.666c-.007.126-.187 3.107-1.74 5.123-.105.136-.31.454-.549.822-1.657 2.562-2.678 3.882-3.658 3.988-1.009.11-1.599-.343-1.916-.74-1.473-1.852-.057-6.309-.042-6.352 1.127-3.242 6.904-3.585 7.15-3.597a.718.718 0 0 1 .39.09ZM83.65 75.99c.103.058.25.091.477.067.562-.18 2.101-2.559 2.608-3.34.276-.428.475-.736.617-.919.831-1.08 1.19-2.566 1.341-3.485-1.705.23-4.45.93-5.013 2.55-.428 1.234-.885 4.114-.19 4.986.04.051.09.102.16.141Z" fill="#231F20"/></svg>