<svg width="136" height="168" fill="none" xmlns="http://www.w3.org/2000/svg"><path d="M75.785 13.913c.275-2.007.777-4.034 1.919-5.707 1.141-1.674 3.019-2.947 5.044-2.934 2.054.012 3.897 1.305 5.27 2.833 2.314 2.575 3.686 6.4 2.237 9.544 2.594-1.466 5.342-2.974 8.322-2.959 2.979.015 6.17 2.173 6.191 5.153.025 3.46-3.766 5.502-6.99 6.758 3.992.627 7.525 3.605 8.818 7.433.252.747.425 1.559.218 2.32-.286 1.055-1.229 1.786-2.155 2.367-2.225 1.397-4.795 2.415-7.417 2.26-2.622-.155-5.268-1.69-6.18-4.154a35.302 35.302 0 0 1-8.11 6.615c-2.26 1.34-4.962 2.448-7.458 1.634-2.037-.665-3.564-2.662-3.671-4.801-.108-2.14 1.211-4.28 3.17-5.146-2.211-1.48-5.283-.328-7.792-1.216-2.878-1.019-4.149-4.301-5.074-7.21-.643-2.022-1.252-4.36-.114-6.15 1.203-1.896 3.83-2.27 6.056-1.981 1.451.188 5.106 2.218 6.276 1.808 1.866-.655 1.227-4.918 1.44-6.467ZM57.043 35.99c3.969.845 6.508 5.715 4.929 9.453 1.703-2.913 5.668-4.393 8.737-2.991 3.07 1.401 4.496 5.713 2.603 8.506-1.675 2.473-5.016 3.127-8.002 3.17 3.362.795 4.828 4.714 5.437 8.115.235 1.314.423 2.679.087 3.97-.336 1.293-1.318 2.502-2.636 2.716-1.342.217-2.609-.603-3.721-1.385-1.812-1.274-3.662-2.584-4.938-4.395.782 3.665-3.109 7.46-6.753 6.586-3.644-.875-5.39-6.022-3.03-8.933-1.837.484-3.716.971-5.61.834-1.896-.137-3.845-1.013-4.773-2.67-4.084-7.287 7.87-8.045 9.176-12.625.72-2.518-.316-4.837 1.33-7.25 1.534-2.252 4.444-3.681 7.164-3.102ZM91.57 63.807c1.118-1.271 2.481-2.423 4.127-2.817 1.975-.474 4.194.3 5.447 1.898 1.253 1.598 1.474 3.938.542 5.742 2.66-2.697 6.503-4.437 10.245-3.845 3.742.592 7.089 3.92 6.998 7.708-.091 3.788-4.325 7.088-7.844 5.684 2.788 1.895 5.6 3.972 7.261 6.906 1.661 2.934 1.865 6.951-.388 9.459-1.876 2.087-4.919 2.648-7.726 2.67-2.455.018-5-.312-7.088-1.603-2.089-1.29-3.61-3.72-3.246-6.148-1.441 4.72-5.192 8.677-9.83 10.367-.666.243-1.382.443-2.08.311-.617-.118-1.154-.485-1.651-.869-2.428-1.877-4.46-4.817-3.883-7.831.367-1.91 1.7-3.466 2.934-4.97.297-.361.603-.755.645-1.22.096-1.08-1.223-1.725-2.306-1.73-1.083-.007-2.25.28-3.194-.25-.833-.468-1.229-1.435-1.541-2.338-1.02-2.94-1.46-6.897 1.192-8.527 1.477-.907 2.957-.512 4.506-.13 2.381.588 1.704 1.204 2.867-.771 1.516-2.576 1.915-5.308 4.014-7.696ZM106.94 98.775c1.307.2 2.461 1.016 3.29 2.046.936 1.162 1.488 2.867.703 4.136a9.456 9.456 0 0 1 3.303-4.306c.693-.498 1.472-.908 2.317-1.03 2.095-.302 4.177 1.403 4.584 3.48.407 2.077-.68 4.28-2.408 5.503-1.728 1.223-3.982 1.546-6.072 1.208.635 1.19 1.28 2.408 1.489 3.739.209 1.333-.096 2.824-1.109 3.714-1.177 1.035-3.067.974-4.369.103-1.303-.872-2.058-2.396-2.313-3.942-1.294.753-2.375 1.848-3.715 2.518-1.34.669-3.148.793-4.181-.291-.978-1.025-.843-2.748-.078-3.941.764-1.193 2.007-1.981 3.209-2.73-1.365-.004-2.762-.014-4.045-.481-1.282-.467-2.45-1.491-2.698-2.833-.35-1.89 1.285-3.701 3.142-4.194 1.592-.422 3.225.31 4.675-.416 1.705-.854 1.859-2.652 4.276-2.283ZM58.798 112.278c2.085-.743 4.508.118 6.042 1.714 1.534 1.596 2.292 3.799 2.614 5.989.762-1.935 2.7-3.251 4.745-3.632 2.044-.381 4.17.067 6.09.868 1.98.825 3.996 2.333 4.158 4.471.15 2.002-1.429 3.761-3.207 4.693-1.777.932-3.798 1.294-5.638 2.096a12.603 12.603 0 0 1 7.882 5.376c.685 1.047 1.223 2.26 1.133 3.508-.142 1.967-1.779 3.491-3.47 4.507-2.225 1.335-4.906 2.174-7.424 1.547-2.518-.627-4.674-3.073-4.317-5.643a20.326 20.326 0 0 1-5.65 8.714c-2.291 2.076-5.983 3.56-8.322 1.538-2.321-2.007-1.449-5.757-.204-8.562.723-1.629 1.614-3.342 3.21-4.135-1.937.307-3.647 1.401-5.497 2.05-1.85.649-4.158.746-5.525-.66-1.098-1.129-1.238-2.933-.756-4.433s1.481-2.77 2.461-4.003c1.313-1.652 2.63-3.151 4.372-4.356 1.124-.777 2.566-1.161 3.217-2.463 1.603-3.203-.575-7.523 4.086-9.184ZM50.47 103.625c.862 1.87 1.327 4.059.602 5.986-.725 1.928-2.953 3.366-4.892 2.671 1.336.823 2.017 2.398 2.341 3.933.46 2.177.307 4.613-1.033 6.389-1.34 1.777-4.09 2.559-5.892 1.254-1.633-1.181-1.942-3.448-2.112-5.457.505 2.88-1.06 6.042-3.724 7.247-2.663 1.206-6.173.212-7.685-2.29-1.513-2.502-.671-6.183 1.852-7.659-1.467 1.533-3.793 2.285-5.812 1.633-2.019-.653-3.512-2.825-3.145-4.915.35-1.998 2.137-3.428 3.963-4.311 2.376-1.149 5.028-1.517 7.46-.367-.625-1.735-3.244-5.258-.887-6.931 1.353-.96 2.874.236 4.106.896 5.047 2.704 9.18 3.276 14.857 1.921Z" fill="#F68F8D"/><path d="M2.31 81.81c5.276-11.945 14.12-23.44 26.737-26.803a666.055 666.055 0 0 1-21.822 28.81l24.416-4.924c3.287-.662 6.635-1.328 9.97-.974 2.905.309 5.678 1.382 8.567 1.828 8.51 1.314 17.178-3.112 22.752-9.676 5.573-6.565 8.48-14.984 10.341-23.392a23.469 23.469 0 0 1 2.998 9.812c6.985-6.863 16.846-10.7 26.632-10.362L72.499 76.15c-1.694 1.258-3.56 3.502-2.269 5.169.883 1.14 2.593.997 4.027 1.151 2.324.25 4.5 1.633 5.714 3.63a158.505 158.505 0 0 1-35.055 3.167 34.117 34.117 0 0 0 13.01 9.338c4.394 1.778 9.133 2.627 13.461 4.562 3.619 1.617 6.902 3.975 10.655 5.249 5.631 1.912 12.099 1.316 17.199 4.373a13.655 13.655 0 0 1 5.905 7.419c.147.453.265.972.028 1.386-.18.316-.528.495-.868.623-2.312.874-4.889.191-7.263-.497l-32.088-9.302c-2.337-.677-4.71-1.37-6.765-2.673-3.097-1.961-5.239-5.154-8.259-7.232-2.522-1.736-5.612-2.666-7.778-4.83-2.687-2.683-3.605-6.938-6.737-9.085-4.021-2.758-9.444-.744-13.923 1.184a219.3 219.3 0 0 1-51.001 14.927c-1.409.231-2.886.444-4.238-.014-3.036-1.029-4.031-4.805-4.165-8.008-.129-3.083-2.251-8.176 1.01-9.143 4.02-1.192 9.038-.897 13.25-1.83 4.407-.976 8.77-2.159 13.211-2.979 1.215-.224 12.702-.815 12.75-.925Z" fill="#4E3B31"/><path d="M9.935 70.037c.315-1.523.342-3.104.078-4.636-.369-2.145-1.9-7.876-4.134-8.472-.742 2.256-.406 4.988.313 7.223.317.985 3.81 5.566 3.743 5.885ZM36.759 76.115c-.134.647-.166 1.394.266 1.894.236.274.576.43.885.618.955.584 1.645 1.514 2.525 2.208 1.662 1.309 4.02 1.674 6.001.929-1.172.44-3.436-10.16-4.13-10.728-2.41-1.97-5.137 3.089-5.547 5.079ZM72.34 96.557c2.375-1.845-.859-12.755-4.677-8.607-2.689 2.92.466 11.878 4.677 8.607Z" fill="#BED665"/><path d="M45.398 125.977c-1.708.36-3.211.078-4.277-.813-.563-.47-.971-1.325-1.257-2.234-2.153 2.758-6.034 5.863-9.023 4.761-2.206-.814-3.454-4.412-3.385-7.42.022-.995.189-1.862.483-2.57-1.51-.076-2.971-.326-3.394-.591-2.394-1.504-2.148-5.601-.926-7.761.882-1.559 3.158-3.904 5.238-3.992.847-.035 1.71.609 2.47 1.177.116.087.256.192.392.289-.028-.738-.31-1.409-.607-2.111-.685-1.625-1.462-3.467.92-6.054.886-.963 1.748-1.39 2.633-1.308 1.546.143 2.575 1.787 3.664 3.528.999 1.596 2.031 3.246 3.273 3.43 1.547.229 3.058-.044 4.52-.309 2.57-.465 5.229-.946 6.53 2.269 1.712 4.231-1.795 6.205-3.68 7.265-.393.221-.905.509-1.142.706.17.088.456.188.646.254.657.23 1.401.491 1.777 1.149 1.235 2.164 1.463 5.658-.294 7.759-.878 1.05-2.41 1.984-3.997 2.437-.19.054-.379.1-.564.139Zm-4.413-4.727c.228 1.152.643 2.388 1.096 2.767 1.065.89 2.63.62 3.47.382 1.295-.369 2.574-1.137 3.26-1.957 1.321-1.581 1.103-4.375.142-6.058-.099-.173-.625-.357-.973-.479-.712-.25-1.905-.668-1.717-1.863.12-.769.898-1.206 1.975-1.812 2.405-1.353 4.155-2.611 3.027-5.4-.81-1.999-2.154-1.851-4.878-1.358-1.507.273-3.214.582-5.005.317-1.924-.285-3.198-2.32-4.322-4.116-.848-1.356-1.725-2.758-2.533-2.833-.386-.036-.855.245-1.396.832-1.73 1.879-1.273 2.962-.641 4.46.418.991.892 2.115.672 3.513-.091.582-.441.806-.642.888-.661.269-1.29-.203-2.089-.799-.448-.335-1.197-.895-1.513-.882-1.379.055-3.256 1.922-3.998 3.234-.901 1.595-1.127 4.785.42 5.757.437.216 2.225.384 3.648.383.28-.228.595-.4.942-.51.767-.295 1.26-.344 1.638-.162.23.111.399.304.475.543.132.414-.01.843-.368 1.12-.37.287-1.137.435-2.037.487-.414.557-.661 1.462-.687 2.602-.06 2.644 1.087 5.495 2.408 5.983 2.008.74 5.44-1.732 7.466-4.446.237-.316.433-.607.597-.873a9.75 9.75 0 0 1-.117-1.243c-.007-.767.114-1.747.725-2.065a.911.911 0 0 1 .962.082c.5.358 1.17 1.282.02 3.456l-.027.05ZM83.516 23.416a.757.757 0 0 1-.682-.194c-.422-.409-.23-.817.234-1.802.141-.3.496-1.036.754-1.412.427-.623.902-.493 1.087-.409.639.294.448 1.008.335 1.435-.149.559-.534 1.595-1.44 2.255a.75.75 0 0 1-.288.127Zm1.005-2.574.003-.001h-.003ZM84.134 34.216a.748.748 0 0 1-.833-.42c-.124-.267-.21-.444-.272-.57-.194-.396-.218-.474-.285-.923-.019-.124-.043-.29-.082-.523a.748.748 0 0 1 1.476-.247c.04.245.067.419.086.549.039.261.039.261.149.486.065.133.156.319.286.602a.748.748 0 0 1-.525 1.046ZM101.573 76.007a.747.747 0 0 1-.763-1.166l.371-.521a.748.748 0 0 1 .726-.305l.444.07.771-.13a.748.748 0 1 1 .247 1.476l-.891.15a.738.738 0 0 1-.24.001l-.108-.017-.103.144a.744.744 0 0 1-.454.297ZM9.97 70.746c-.719.151-1.606-.46-2.59-1.212-.11-.084-.194-.15-.243-.182-3.836-2.28-3.706-5.168-3.104-8.997.095-.603.529-1.857.902-2.83.869-2.257 1.096-2.345 1.385-2.456a.798.798 0 0 1 .765.118c.383.31.306.798.265 1.06-.164 1.044.882 3.083 1.892 5.056 1.764 3.443 3.764 7.344 1.132 9.261a1.045 1.045 0 0 1-.403.182ZM6.224 58.352c-.338.902-.65 1.837-.712 2.235-.606 3.852-.562 5.724 2.397 7.484.087.052.185.125.38.274.648.495 1.1.794 1.35.891 1.345-1.257-.284-4.436-1.727-7.25-.678-1.324-1.305-2.547-1.688-3.634ZM95.586 73.619a.748.748 0 0 1-.759-.292l-.476-.653a.75.75 0 0 1-.135-.557l.311-1.976a.746.746 0 0 1 .13-.318l.743-1.041a.747.747 0 1 1 1.218.869l-.64.896-.235 1.496.294.403a.748.748 0 0 1-.45 1.173Z" fill="#231F20"/><path d="M58.379 149.978c-.13.027-.26.05-.389.068-1.56.217-3.724-.182-5.168-3.313-.84-1.822-.696-5.451.284-8.001a23.014 23.014 0 0 1-1.805.282c-2.789-.04-5.688-4.396-6.396-6.623-.4-1.26-.094-2.773.886-4.375 1.47-2.404 4.145-4.47 6.204-4.824.386-.064 1.058.001 2.213.121.74.078 1.94.203 2.373.163.595-.747.372-2.318.155-3.839-.205-1.446-.418-2.94.008-4.096 1.056-2.861 2.93-3.424 4.316-3.393 3.491.079 7.252 3.907 8.299 6.634.471-.08 1.42-.443 2.213-.745 3.25-1.239 8.16-3.11 10.605.248 2.387 3.277 1.85 7.655-1.37 11.153a5.93 5.93 0 0 1-1.793 1.288c1.09.655 1.973 1.512 2.598 2.538 1.204 1.978 1.374 4.423.493 7.074-.545 1.637-1.848 2.947-3.67 3.687-2.283.928-5.147.862-7.127-.162-.727-.376-2.472-1.376-3.648-2.831-1.735 3.717-5.599 8.171-9.281 8.946Zm-3.41-11.694c-1.19 1.938-1.564 6.141-.789 7.823.863 1.87 2.042 2.674 3.604 2.457 3.943-.541 8.739-6.996 9.278-10.426.12-.767.67-.776.835-.76.263.025.701.182.676.956-.038 1.162.057 1.482.1 1.565.666.913 1.913 1.906 3.323 2.636 1.589.822 4.005.865 5.876.105.997-.406 2.295-1.216 2.813-2.774.738-2.22.617-4.234-.35-5.823-.85-1.396-2.326-2.411-4.218-2.922-.121-.018-.25-.039-.386-.063-.93-.166-1.181-.21-1.372-.561a.748.748 0 0 1 .045-.789c.272-.386.685-.322.86-.294.397.063.782.143 1.154.239.276.041.531.07.675.064.973-.04 2.052-.68 2.614-1.292 2.16-2.347 3.626-6.012 1.261-9.259-1.772-2.433-6.04-.807-8.863.269-1.901.724-2.845 1.058-3.52.733a1.044 1.044 0 0 1-.545-.628c-.785-2.47-4.396-5.837-7.014-5.897-1.328-.03-2.268.761-2.879 2.416-.295.801-.11 2.106.07 3.367.28 1.969.57 4.005-.69 5.23-.435.424-1.206.382-3.475.146-.671-.07-1.59-.167-1.812-.134-1.634.274-3.949 2.125-5.174 4.129-.736 1.204-.997 2.319-.736 3.141.663 2.085 3.27 5.556 4.991 5.58.403-.013 1.617-.242 2.747-.544.125-.156.255-.297.392-.422.103-.094.22-.217.345-.348.565-.589 1.149-1.198 1.858-1.15.327.022.619.187.821.465.281.386.32.843.106 1.257-.341.661-1.438 1.155-2.621 1.508Zm14.497-19.199v.001-.001ZM84.496 30.359a3.28 3.28 0 0 1-1.184.016c-.812-.128-1.34-.653-1.41-1.405-.137-1.464 1.7-3.835 2.34-4.064.563-.202 1.153-.02 1.58.486.686.814.97 2.572.283 3.793a2.355 2.355 0 0 1-1.61 1.174Zm-1.1-1.496c.007-.002.052.02.148.035.942.148 1.222-.299 1.348-.647.261-.716.032-1.572-.18-1.86-.548.553-1.464 2.07-1.316 2.472Zm1.098-3.253h.003-.003Z" fill="#231F20"/><path d="M83.83 45.704c-.781.165-1.723.242-2.867.205-.26-.008-.542-.007-.836-.007-1.39.003-3.12.007-4.373-.885-2.885-2.059-3.784-6.076-2.093-9.345.12-.23.35-.473.783-.918.08-.082.183-.189.293-.305-.21.018-.338.02-.454.003l-.225-.036c-2.963-.462-8.478-1.323-8.947-5.137-.195-1.583.498-10.06 2.925-11.346 1.924-1.02 5.518-.082 6.626.326.51.188.992.666 1.46 1.138.032-.755-.015-1.53-.064-2.335-.143-2.348-.304-5.01 1.776-7.497 2.751-3.29 5.509-2.715 6.908-2.08 3.468 1.574 5.937 6.597 5.284 10.75-.063.4-.02.568-.002.614.515.207 2.74-.868 4.075-1.514 3.308-1.598 7.057-3.41 8.745-1.092 1.895 2.602.651 6.81.029 8.498-.174.47-.715.84-1.825 1.565-.311.204-.745.487-1.085.736.218.034.449.061.628.082.706.083 1.436.169 1.95.474 2.9 1.724 4.065 6.78 2.984 9.71-1.939 5.257-9.505 4.899-13.843 4.217-1.556-.244-1.886-.947-2.155-1.84-.083-.276-.168-.56-.337-.88a1.326 1.326 0 0 1-.082-.19c-.581.755-.836 1.656-1.103 2.596-.515 1.825-1.087 3.843-4.175 4.493Zm-9.354-12.736c.078-.002.269-.02.41-.034 1.01-.097 1.739-.167 1.963.536.218.686-.364 1.331-1.332 2.327-.202.208-.478.492-.54.585-1.317 2.547-.6 5.815 1.646 7.417.86.614 2.263.61 3.501.608.312 0 .61-.001.887.008 4.493.141 4.94-1.432 5.556-3.61.399-1.407.85-3.001 2.457-4.171a.86.86 0 0 1 .873-.106c.495.226.54.763.576 1.194.01.123.027.326.049.402.231.442.346.823.439 1.13.18.6.203.677.954.795 3.128.49 10.579 1.158 12.208-3.258.86-2.331-.123-6.584-2.346-7.905-.24-.143-.861-.216-1.359-.275-.838-.098-1.628-.191-2.108-.633a.94.94 0 0 1-.304-.773c.058-.703.803-1.22 2.225-2.15.437-.285 1.086-.709 1.264-.896.442-1.22 1.623-4.998.141-7.033-.954-1.31-4.382.348-6.885 1.558-2.626 1.268-4.522 2.186-5.63 1.364-.53-.394-.723-1.082-.572-2.044l.739.116-.74-.116c.54-3.43-1.61-7.879-4.423-9.155-1.774-.805-3.553-.226-5.143 1.677-1.698 2.031-1.568 4.176-1.43 6.447.072 1.185.145 2.41-.047 3.634-.091.584-.479.768-.641.82-.634.207-1.133-.296-1.762-.933-.278-.28-.743-.751-.957-.83-1.49-.549-4.271-1.009-5.408-.408-1.29.684-2.396 7.766-2.14 9.841.33 2.693 5.302 3.47 7.692 3.842l.187.03Zm16.036 5.137.001.003-.001-.003Zm-16.004-5.132.007.001-.007-.001Zm15.522-14.11h.003-.003ZM105.037 79.733a.744.744 0 0 1-.589-.124l-.376-.268-2.649-.417a.748.748 0 0 1 .233-1.478l2.823.444a.753.753 0 0 1 .319.13l.519.372a.747.747 0 0 1-.28 1.34Z" fill="#231F20"/><path d="M82.316 25.541a.745.745 0 0 1-.27.007l-.565-.089a.75.75 0 0 1-.564-.426l-.43-.935a.749.749 0 0 1-.06-.429l.133-.847a.748.748 0 0 1 1.478.232l-.098.624.169.366.169.027a.748.748 0 0 1 .038 1.47ZM98.452 73.78a.744.744 0 0 1-.271.007l-.564-.089a.748.748 0 0 1-.623-.855l.089-.565a.747.747 0 0 1 .218-.42l.976-.949.703-.985a.747.747 0 1 1 1.218.868l-.743 1.04a.725.725 0 0 1-.087.103l-.571.555a.747.747 0 0 1-.345 1.29ZM90.474 28.849a.745.745 0 0 1-.589-.124l-.376-.268-.835-.132-.771.13a.748.748 0 0 1-.862-.615.74.74 0 0 1 .615-.861l.89-.15a.749.749 0 0 1 .24 0l1.13.177a.747.747 0 0 1 .318.13l.52.371a.748.748 0 0 1-.28 1.341ZM92.318 75.998a.746.746 0 0 1-.589-.124l-.52-.371a.746.746 0 0 1-.244-.295l-.432-.935a.745.745 0 0 1-.06-.43l.09-.565a.747.747 0 1 1 1.477.233l-.053.34.253.55.359.257a.748.748 0 0 1-.28 1.34ZM94.435 86.454a.747.747 0 0 1-.705-1.238c.214-.232.334-.38.421-.486.285-.35.417-.436.882-.573.084-.024.19-.055.328-.1a.748.748 0 1 1 .453 1.425c-.152.05-.268.084-.36.11l-.101.03-.042.052c-.094.115-.236.289-.48.554a.737.737 0 0 1-.396.226ZM115.17 117.729c-.17.035-.349.058-.536.068-1.633.082-3.671-.887-4.479-1.808a13.096 13.096 0 0 1-1.368-1.832c-.61.778-1.356 1.629-2.189 2.299-2.309 1.859-4.069 1.339-5.139.576-1.62-1.156-2.172-3.492-1.64-6.945-1.106-.251-2.19-.719-2.46-1.026-1.912-2.18-3.423-3.902-.495-6.885 1.52-1.548 2.967-2.39 4.298-2.511.715-.064 1.373.44 1.963.943l-.028-.15c-.108-.576-.23-1.228.181-1.817.337-.482.922-.77 1.896-.933 1.511-.252 4.025-.042 5.246 3.615.741-.642 1.854-1.076 3.195-1.196 2.345-.209 4.961.67 5.518 3.105.242 1.059.135 1.919-.316 2.556-.706.998-2.019 1.152-2.979 1.263.899.732 1.136.961 1.255 1.184 1.059 1.996 1.053 6.496-.403 8.538-.354.495-.873.819-1.52.956Zm-5.198-4.506c.337.58.765 1.162 1.307 1.779.495.565 2.091 1.36 3.28 1.301.653-.034.847-.308.912-.399 1.018-1.427 1.19-5.211.325-6.92-.174-.185-.832-.717-1.193-1.008-.863-.697-1.019-.823-.947-1.275.145-.922 1.131-1.035 2.001-1.135.72-.083 1.617-.186 1.939-.642.194-.276.221-.733.077-1.359-.355-1.556-2.228-2.1-3.926-1.948-1.57.141-2.782.862-2.82 1.68-.035.753-.514.864-.718.876-.45.029-.73-.253-.831-.836-.537-3.105-1.869-4.503-3.958-4.153-.779.129-.911.306-.916.314-.052.073.02.455.063.684.084.448.188 1.006.09 1.634-.086.545-.423.745-.617.816-.6.221-1.116-.221-1.709-.734-.272-.234-.836-.722-1.053-.743-.94.084-2.102.801-3.348 2.069-1.942 1.978-1.381 2.645.514 4.806.309.197 1.233.499 1.985.654.282-.438.657-.824 1.125-.858.184-.014.807.006 1.076.854.184.577-.008 1.109-.501 1.387-.211.119-.495.177-.819.191l-.01.03c-.445 2.863-.1 4.723 1.027 5.526.61.436 1.62.855 3.332-.523 1.215-.978 2.28-2.471 2.916-3.363.279-.39.678-.417.935-.321.571.212.518.79.486 1.135-.011.123-.033.366-.024.481Zm-.034-.059.001.001-.001-.001Zm-8.632-2.907-.001.007.001-.007ZM98.043 81.547c-2.025.427-3.47-.83-3.858-2.308-.38-1.45.218-3.306 2.425-3.958 1.003-.297 1.952-.065 2.675.652.888.88 1.259 2.364.904 3.61-.294 1.03-1.05 1.755-2.075 1.99l-.072.014Zm-1.009-4.832c-1.345.398-1.596 1.404-1.402 2.145.21.8.948 1.485 2.149 1.213.497-.113.823-.43.969-.94.206-.722-.017-1.641-.518-2.137-.332-.33-.725-.422-1.198-.28Z" fill="#231F20"/><path d="M103.052 120.824c-.817.172-2.233.2-4.677.102-.128-.005-.216-.009-.25-.009-5.266.049-10.542-.996-15.458-2.133-10.31-2.384-22.067-5.467-31.1-11.908-3.323-2.371-5.88-5.475-8.352-8.476-3.532-4.288-6.869-8.339-12.222-10.313-4.073-1.502-12.635 1.306-17.236 2.816-.586.192-1.125.369-1.604.521-2.956.94-5.984 2.009-9.19 3.14-9.534 3.366-19.393 6.846-28.803 7.437-.529.034-1.339.182-2.276.353-3.5.639-8.291 1.514-10.17-1.066-.848-1.163-1.253-3.69-1.66-6.628-.122-.881-.227-1.642-.324-2.02-.025-.1-.135-.457-.252-.834-1.275-4.131-1.277-4.423-.7-4.803a4.302 4.302 0 0 1 2.386-.68c4.438.039 8.44-.408 12.675-.881 1.794-.2 3.648-.407 5.56-.578 1.777-.159 3.536-.244 5.238-.328 4.329-.211 8.418-.41 12.574-1.732 1.537-.488 3.677-3.408 5.093-5.34.598-.816 1.113-1.52 1.546-2.018 3.654-4.213 8.18-8.231 14.243-12.647l.89-.652c2.156-1.58 4.6-3.372 6.966-4.558.147-.073 1.455-.704 2.166-.185.284.208.42.548.364.91-.242 1.544-2.594 3.489-4.982 5.348-.32.25-.588.458-.77.61-3.715 3.104-16.52 16.124-16.989 19.104-.013.087-.02.198.022.232.118.095.902.517 4.68-.592 2.403-.705 5.072-1.743 7.021-2.5.991-.385 1.773-.69 2.224-.832 4.456-1.417 9.93-.548 15.229.29 3.478.55 6.764 1.07 9.642.95 14.469-.6 25.993-6.35 33.325-16.63 1.004-1.408 1.908-5.117 2.781-8.704 1.364-5.602 2.28-9.077 3.838-9.903a.803.803 0 0 1 .76.018c.474.28.478.62.505 2.832.019 1.496.075 6.036.766 6.593l.006.002c.103-.139.25-.324.474-.529 4.817-4.399 9.415-6.957 14.91-8.295 1.674-.408 4.922-1.02 7.899-.553.127.02.329.032.542.045.825.048 1.604.093 1.938.68.164.288.163.635-.001.952-.164.317-.167.323-5.325 2.884-3.471 1.722-8.223 4.082-9.065 4.695-2.848 2.074-5.15 4.48-7.588 7.028-1.46 1.526-2.97 3.103-4.596 4.59-1.497 1.366-3.1 2.711-4.796 4.135-3.888 3.263-7.903 6.633-10.713 10.388 1.593.957 7.3 3.178 8.317 3.364l.082-.008c.235-.02.629-.055.925.261.173.185.25.438.21.694-.142.897-1.096 1.191-6.776 1.29-.338.005-.58.009-.676.015-6.794.427-14.054.808-21.555.387l-.294-.019c-.877-.057-3.544-.231-4.263.506-.079.081-.157.197-.136.44.3 3.35 5.33 6.756 9.937 8.826 4.082 1.833 7.95 3.978 11.69 6.052 6.7 3.717 13.03 7.227 20.507 9.109 3.324.837 6.395 2.354 9.365 3.821 1.494.738 3.039 1.502 4.564 2.148l.116.047c.718.29 2.056.828 1.892 1.871-.068.423-.309.708-1.069.868Zm-80.494-33.99c3.363-.708 6.66-.996 8.952-.15 5.734 2.114 9.356 6.512 12.86 10.765 2.41 2.926 4.903 5.952 8.066 8.209 8.808 6.282 20.397 9.317 30.567 11.669 4.827 1.115 9.998 2.141 15.112 2.094.035-.001.148.004.32.01 1.539.062 2.554.061 3.222.036l-.129-.054c-1.565-.663-3.13-1.436-4.643-2.183-2.9-1.433-5.898-2.914-9.067-3.712-7.666-1.929-14.378-5.652-20.868-9.251-3.713-2.059-7.552-4.188-11.577-5.996C52.95 97.182 45.01 93.24 44.56 88.214c-.056-.63.136-1.189.556-1.619 1.054-1.08 3.233-1.096 5.43-.953l.282.018c7.418.417 14.627.037 21.377-.387.105-.006.372-.011.744-.018 1.153-.02 2.076-.05 2.813-.085a79.625 79.625 0 0 1-2.479-.965c-4.386-1.793-4.601-2.305-4.73-2.61a.84.84 0 0 1 .085-.82c2.931-4.11 7.201-7.693 11.33-11.158 1.684-1.413 3.275-2.748 4.749-4.095 1.59-1.451 3.081-3.01 4.524-4.518 2.375-2.483 4.832-5.05 7.788-7.203.874-.637 4.557-2.482 9.28-4.826a517.511 517.511 0 0 0 3.447-1.72 3.422 3.422 0 0 1-.168-.023c-1.986-.312-4.652-.12-7.312.528-5.238 1.276-9.634 3.727-14.255 7.947a2.243 2.243 0 0 0-.33.381c-.442.612-.902.73-1.695.439-1.39-.513-1.663-2.98-1.725-7.971l-.002-.117c-.769 1.825-1.54 4.994-2.152 7.504-.95 3.896-1.845 7.576-3.017 9.219-7.61 10.669-19.533 16.636-34.48 17.256-3.028.126-6.385-.405-9.94-.967-5.125-.812-10.425-1.65-14.54-.342-.406.129-1.17.425-2.135.8-7.15 2.779-11.599 4.139-13.183 2.863-.27-.218-.704-.72-.56-1.63.623-3.969 14.914-17.853 17.507-20.019.19-.16.473-.38.81-.642.9-.701 2.951-2.3 3.914-3.491-2.217 1.13-4.556 2.846-6.625 4.363-.303.222-.6.44-.893.653C13.004 68.354 8.557 72.3 4.98 76.424c-.393.453-.892 1.134-1.47 1.922-1.712 2.337-3.844 5.246-5.846 5.882-4.34 1.38-8.525 1.584-12.955 1.801-1.686.082-3.43.168-5.178.324-1.895.169-3.74.375-5.526.574-4.282.478-8.327.93-12.855.89a2.932 2.932 0 0 0-1.19.24c.17.793.719 2.567.947 3.306.156.506.24.776.272.906.117.46.223 1.22.356 2.185.259 1.869.692 4.998 1.387 5.952 1.326 1.821 5.759 1.011 8.692.475.985-.179 1.834-.335 2.451-.373 9.203-.58 18.962-4.023 28.399-7.355 3.217-1.136 6.256-2.209 9.236-3.156.474-.15 1.009-.326 1.59-.517 2.543-.832 5.937-1.946 9.268-2.647ZM80.387 30.445a.75.75 0 0 1-.27.007l-3.105-.488a.748.748 0 0 1-.623-.855l.089-.565a.748.748 0 0 1 1.485.055l2.387.375a.749.749 0 0 1 .037 1.471Z" fill="#231F20"/><path d="M101.045 84.89a.747.747 0 0 1-.589-.123l-.52-.37a.746.746 0 0 1-.278-.383l-.388-1.218a.748.748 0 1 1 1.426-.454l.312.98.317.227a.748.748 0 0 1-.28 1.34ZM91.094 24.897a.742.742 0 0 1-.27.006 13.315 13.315 0 0 1-1.025-.197l-.124-.029c-.045.013-.125.04-.203.066l-.326.106a.747.747 0 1 1-.453-1.425l.308-.1c.5-.168.641-.19 1.135-.076.175.041.44.102.92.178a.748.748 0 0 1 .038 1.47ZM91.697 79.95a.749.749 0 0 1-.27.007l-.474-.075-1 .09-.531.169a.747.747 0 0 1-.343.026l-.564-.09a.748.748 0 0 1 .233-1.477l.39.061.44-.14a.72.72 0 0 1 .16-.032l1.174-.105a.747.747 0 0 1 .182.007l.565.088a.748.748 0 0 1 .038 1.47ZM42.643 82.133c-.303.064-.667.004-1.095-.107-1.19-.31-6.018-2.189-6.459-3.144-1.726-3.743 7.364-9.636 7.46-9.688.346-.19.805-.087 1.016.246.173.274.25.694-.365 1.142-.853.621-.273 2.539.288 4.394.772 2.552 1.646 5.445-.488 7a.911.911 0 0 1-.357.157Zm-6.23-3.965c.716.58 4.78 2.36 5.843 2.488 1.01-.907.552-2.76-.2-5.247-.361-1.194-.729-2.41-.78-3.48-2.268 1.8-5.381 4.74-4.864 6.24Zm6.347-8.19h.002-.002Z" fill="#231F20"/><path d="M111.957 97.251c-2.86.602-5.853.42-7.997-.293-1.798-.598-2.967-2.606-3.537-4.46-.09.403-.168.727-.251.952-.983 2.665-4.617 4.892-7.698 5.714-2.77.738-5.13.45-6.642-.814-2.046-1.711-2.488-9.59-1.685-11.766.166-.45.535-.879.961-1.253-2.482-.055-4.486-.962-5.65-2.56-2.313-3.175-1.982-6.842.93-10.324 2.036-2.436 4.043-1.755 5.51-1.258.865.294 1.618.55 2.317.27.248-.477.25-2.398.25-3.447.002-1.524.014-2.484.24-3.02 1.336-3.153 4.776-4.224 7.54-5.085.212-.067.423-.132.629-.198 2.786-.89 6.018 1.193 7.418 3.626.588 1.023.829 2.044.73 2.98a50.89 50.89 0 0 1 3.448-1.573c4.627-1.874 10.325.858 12.95 4.463 2.374 3.259-.456 8.757-2.498 10.976-.577.627-1.53.914-2.54 1.017 2.625 1.998 3.919 4.412 3.946 7.338.025 2.68-1.152 4.964-3.403 6.604-1.443 1.051-3.18 1.735-4.968 2.111Zm-11.398-8.422a.838.838 0 0 1 .571.079c.551.292.531.923.506 1.654-.007.236-.018.558.007.68.358 1.741 1.384 3.829 2.789 4.296 3.13 1.04 8.264.831 11.613-1.608 1.871-1.362 2.809-3.173 2.788-5.381-.027-2.932-1.546-5.193-4.779-7.115-.287-.17-1.011-.363-1.523-.469a23.094 23.094 0 0 1-.176-.034.748.748 0 0 1 .284-1.469l.183.036c1.719.321 4.304.425 5-.33 1.803-1.96 4.145-6.672 2.389-9.083-2.304-3.164-7.347-5.507-11.18-3.957-1.674.677-3.33 1.513-4.93 2.32l-.093.048a4.754 4.754 0 0 1-.25.245h-.001c-.292.265-.916.381-1.257.235a.765.765 0 0 1-.462-.673.77.77 0 0 1 .438-.712l.595-.298c.879-1.127.351-2.47-.077-3.213-1.091-1.899-3.685-3.577-5.667-2.946l-.638.2c-2.597.81-5.541 1.727-6.606 4.242-.12.286-.121 1.529-.122 2.437-.002 2.661-.054 4.316-1.037 4.77-1.266.583-2.457.18-3.508-.177-1.453-.494-2.502-.85-3.88.8-1.72 2.055-3.265 5.195-.87 8.483 1.206 1.656 3.367 1.93 4.547 1.947.77.01 2.26.07 2.323.073a.748.748 0 0 1 .3 1.42c-.805.395-2.088 1.232-2.286 1.772-.743 2.013-.064 9.01 1.24 10.1 1.112.93 3.043 1.12 5.297.517 3.108-.829 5.98-2.886 6.681-4.786.064-.173.156-.587.245-.988.347-1.557.598-2.532 1.158-2.939.123-.089.254-.147.388-.175Zm2.588-19.9-.002.001h.002Zm.11-.742h.002-.002ZM57.346 70.658c-1.257.264-2.969.048-5.247-.651-1.923-.59-3.097-4.092-3.315-6.39a9.168 9.168 0 0 1-.026-1.558c-2.253.218-4.475-.592-5.824-2.238-1.497-1.826-1.527-4.191-.084-6.49 1.629-2.593 3.304-4.322 5.122-5.287.438-.231.937-.179 1.465.034-.594-1.797-.5-3.682.303-5.491 1.323-2.983 4.475-5.378 7.494-5.701 1.887-.2 3.477.445 4.477 1.818 1.092 1.498 1.54 4.003 1.71 6.193 1.04-.914 2.755-2.294 4.797-2.477 1.343-.12 2.734.405 3.918 1.478 1.318 1.194 2.145 2.89 2.16 4.426.04 4.326-2.532 5.82-5.21 7.076.143.13.294.26.387.338.258.219.386.33.48.46.228.311.457.602.678.883.668.846 1.297 1.645 1.752 2.84.778 2.046.826 3.877.141 5.295-.576 1.194-1.63 2.04-3.134 2.519-1.914.61-6.577.42-8.126-1.709a5.651 5.651 0 0 1-.931-2.05c-.087.529-.115 1.12-.145 1.727-.078 1.612-.167 3.44-1.56 4.418a3.426 3.426 0 0 1-1.282.537Zm-7.04-8.915c-.081.488-.095 1.08-.033 1.733.243 2.555 1.417 4.84 2.265 5.1 2.625.806 4.385.915 5.23.32.794-.557.858-1.873.925-3.266.08-1.655.172-3.532 1.617-4.584a.806.806 0 0 1 .847-.084c.466.233.472.706.479 1.164.01.667.027 1.909.836 3.02.963 1.322 4.789 1.696 6.464 1.163 1.096-.348 1.85-.934 2.24-1.743.635-1.312.246-2.961-.192-4.113-.373-.98-.908-1.66-1.528-2.446-.225-.285-.457-.58-.695-.904-.045-.045-.166-.148-.256-.224-.649-.55-1.32-1.118-1.224-1.815a.95.95 0 0 1 .565-.738c3.185-1.468 4.985-2.471 4.953-5.988-.01-1.132-.65-2.409-1.668-3.331-.871-.79-1.859-1.179-2.78-1.097-1.752.158-3.3 1.535-4.223 2.359-.674.6-1.08.963-1.627.73-.302-.13-.49-.417-.503-.772-.115-3.116-.646-5.475-1.496-6.642-.862-1.183-2.167-1.311-3.11-1.211-2.484.262-5.183 2.336-6.286 4.82-.669 1.507-1.074 3.842.793 6.406.43.59.194.973.014 1.148-.485.475-.984.093-1.426-.244-1.177-.9-1.66-1.108-1.857-1.115-1.564.843-3.041 2.394-4.513 4.739-1.095 1.744-1.105 3.429-.026 4.745 1.107 1.351 3.09 1.962 5.007 1.627.26-.638.658-1.11 1.185-1.39.015-.007 1.049-.508 1.712-.234a.897.897 0 0 1 .524.565c.191.6.034 1.463-1.798 2.158-.137.052-.276.1-.415.144Zm18.438-4.664.002.003-.002-.003Zm-5.25-10.908v.001Zm-.748.029.003-.001h-.003ZM69.406 98.922a.744.744 0 0 1-.743-.27c-.08-.104-1.985-2.565-2.151-5.212-.011-.178-.068-.569-.134-1.021-.458-3.146-.563-4.881.132-5.637.716-.778 1.489-.828 2.01-.734 2.427.44 4.374 4.907 4.392 4.952 1.34 3.314-2.954 7.547-3.138 7.726a.746.746 0 0 1-.368.196ZM68.03 87.52c-.12.025-.258.1-.42.275-.317.527.109 3.448.248 4.409.076.524.132.903.146 1.143.09 1.418.827 2.83 1.34 3.653 1.179-1.35 2.85-3.783 2.18-5.439-.51-1.262-2.128-3.833-3.272-4.04a.56.56 0 0 0-.222-.001Z" fill="#231F20"/></svg>