<svg width="79" height="81" fill="none" xmlns="http://www.w3.org/2000/svg"><path d="M46.266 28.198c3.323-2.599 7.016-6.311 9.656-8.632 4.848-4.268 7.95.677 8.573 3.17.62 2.484-4.088-1.15-9.414.81-2.483.916-5.084 3.75-7.144 6.505-.472-.326-.73-.567-.73-.567s-.458-.442-.94-1.286Z" fill="#DE2A2A"/><path d="M23.745 23.7s4.567.77 5.212-3.634c4.748 1.827 4.756-4.551 4.756-4.551s7.961 4.874 11.868 1.758c.46 2.119 3.747 4.696 5.033 4.074-1.875 4.388-.837 7.527.094 9.158.483.844.94 1.286.94 1.286s-1.852 2.049-4.658 5.114c-8.188 8.95-24.508 26.597-26.67 27.462-.294.12-.327-.072-.05-.629 3.043-6.108-.785-11.885-.785-11.885s4.04-4.63 1.6-8.996c4.462-3.06 4.696-3.153-1.226-7.773 0 0 4.833 1.47-3.2-8.474 4.762 2.173 7.086-2.91 7.086-2.91Z" fill="#EE5252"/><path d="M42.694 33.73c2.944-2.894 4.909-4.805 4.909-4.805s.256.24.73.568c1.523 1.044 5.288 2.956 10.316.684-.592 1.297 2.059 4.523 4.186 4.94-3.024 3.976 2.018 11.826 2.018 11.826s-6.382.15-4.444 4.857c-4.387.74-3.52 5.292-3.52 5.292s-5.034 2.435-2.753 7.142c-10.116-7.807-8.545-3.007-8.545-3.007-4.754-5.82-4.836-5.585-7.79-1.058-4.424-2.343-8.965 1.799-8.965 1.799s-5.862-3.698-11.898-.522c-.476.25-.685.26-.666.056.156-1.724 17.651-19.135 26.422-27.773Z" fill="#DE2A2A"/></svg>