<svg width="61" height="61" fill="none" xmlns="http://www.w3.org/2000/svg"><path d="M32.194 46.743V14.259l8.181-8.183s1.198-1.198 0-2.397c-1.198-1.198-2.396 0-2.396 0l-5.785 5.786v-7.77S32.194 0 30.5 0c-1.695 0-1.695 1.694-1.695 1.694v7.771L23.021 3.68s-1.198-1.198-2.396 0c-1.198 1.2 0 2.397 0 2.397l8.18 8.183v32.484l-8.18 8.18s-1.198 1.199 0 2.397c1.198 1.198 2.396 0 2.396 0l5.784-5.785v7.77S28.805 61 30.5 61c1.694 0 1.694-1.694 1.694-1.694v-7.771l5.785 5.785s1.198 1.198 2.396 0 0-2.396 0-2.396l-8.18-8.181Z" fill="#88C9F9"/><path d="M58.665 35.356c-.439-1.637-2.076-1.198-2.076-1.198l-11.175 2.994L17.282 20.91 14.288 9.735s-.44-1.637-2.076-1.198c-1.639.438-1.198 2.075-1.198 2.075l2.118 7.903-6.73-3.887s-1.468-.847-2.315.62c-.847 1.468.62 2.315.62 2.315l6.729 3.885-7.903 2.117s-1.639.438-1.198 2.075c.439 1.639 2.076 1.2 2.076 1.2l11.176-2.994L43.72 40.089l2.994 11.176s.439 1.637 2.076 1.198c1.637-.44 1.198-2.075 1.198-2.075l-2.118-7.903 6.73 3.885s1.47.847 2.316-.618c.848-1.47-.621-2.317-.621-2.317l-6.73-3.885 7.902-2.116c0-.002 1.637-.44 1.198-2.078Z" fill="#88C9F9"/><path d="m57.467 23.565-7.903-2.118 6.73-3.886s1.47-.849.622-2.316c-.849-1.47-2.316-.62-2.316-.62l-6.729 3.883 2.117-7.9s.438-1.638-1.198-2.076c-1.637-.44-2.076 1.197-2.076 1.197L43.72 20.904 15.585 37.152 4.412 34.157s-1.637-.44-2.076 1.198c-.44 1.638 1.198 2.075 1.198 2.075l7.902 2.117-6.729 3.885s-1.466.849-.619 2.316c.848 1.466 2.313.619 2.313.619l6.73-3.886-2.117 7.902s-.44 1.638 1.198 2.075c1.638.44 2.077-1.196 2.077-1.196l2.996-11.178 28.134-16.242 11.175 2.996s1.637.44 2.076-1.198c.432-1.638-1.203-2.075-1.203-2.075Z" fill="#88C9F9"/></svg>