<svg width="85" height="163" fill="none" xmlns="http://www.w3.org/2000/svg"><path d="m157.641 77.388-38.453 11.574-25.406-9.211 20.699-17.374 40.09-2.331a5.534 5.534 0 0 0 5.206-5.84 5.53 5.53 0 0 0-5.845-5.198l-25.273 1.47 13.848-11.624a5.524 5.524 0 0 0 .679-7.789 5.538 5.538 0 0 0-7.798-.675l-13.849 11.624 5.803-24.614a5.525 5.525 0 0 0-4.118-6.647 5.539 5.539 0 0 0-6.657 4.117l-9.206 39.044-20.276 17.02-4.707-26.586 18.037-35.842a5.522 5.522 0 0 0-2.458-7.421 5.54 5.54 0 0 0-7.431 2.46L79.154 26.14 76.33 10.184a5.532 5.532 0 0 0-6.414-4.479 5.532 5.532 0 0 0-4.486 6.409l2.825 15.956-18.439-17.318a5.54 5.54 0 0 0-7.823.241 5.523 5.523 0 0 0 .238 7.815l29.247 27.47 4.803 27.127-25.924-9.399-22.051-33.51a5.538 5.538 0 0 0-7.665-1.58 5.525 5.525 0 0 0-1.587 7.656l13.902 21.126-15.248-5.529a5.54 5.54 0 0 0-7.093 3.31 5.524 5.524 0 0 0 3.312 7.084l15.248 5.528-24.242 7.297a5.53 5.53 0 0 0-3.705 6.888 5.533 5.533 0 0 0 6.895 3.698L46.575 74.4l25.406 9.21-20.7 17.374-40.088 2.332a5.534 5.534 0 0 0-5.207 5.841 5.529 5.529 0 0 0 5.845 5.197l25.274-1.47-12.424 10.427a5.524 5.524 0 0 0-.678 7.789 5.532 5.532 0 0 0 7.798.675l12.423-10.428-5.804 24.615a5.525 5.525 0 0 0 4.119 6.646 5.537 5.537 0 0 0 6.657-4.116l9.206-39.044 21.12-17.728 4.707 26.584-18.037 35.843a5.523 5.523 0 0 0 2.459 7.421 5.51 5.51 0 0 0 3.445.504 5.53 5.53 0 0 0 3.986-2.963l11.372-22.596 3.149 17.787a5.531 5.531 0 0 0 6.414 4.478 5.53 5.53 0 0 0 4.486-6.408l-3.149-17.787 18.438 17.318a5.539 5.539 0 0 0 7.824-.242 5.522 5.522 0 0 0-.239-7.814l-29.246-27.47-4.611-26.043 24.887 9.023 22.052 33.51a5.536 5.536 0 0 0 7.665 1.58 5.526 5.526 0 0 0 1.586-7.656l-13.902-21.126 16.998 6.163a5.535 5.535 0 0 0 7.092-3.311 5.522 5.522 0 0 0-3.311-7.082L136.59 95.27l24.241-7.296a5.53 5.53 0 0 0 3.705-6.888 5.533 5.533 0 0 0-6.895-3.698Z" fill="#59CAFC"/></svg>