<svg width="117" height="219" fill="none" xmlns="http://www.w3.org/2000/svg"><path d="M42.212 61.483c-3.303 6.143-7.706 10.374-11.72 12.297-6.493 3.112-13.14 3.443-18.538 2.823-1.275 1.84-2.49 3.897-3.662 6.124 40.294 5.322 58.557 10.908 59.652 11.265L6.967 90.506s.144.873.515 2.32c8.326 2.222 18.078 6.594 25.897 15.141 3.366 3.692 6.322 9.21 8.17 16.041 12.953.166 30.603-6.213 54.535-24.998-14.214-18.203-34.84-35.514-53.872-37.527Z" fill="#90B74B"/><path d="M28.616 112.167c3.366 3.693 6.321 9.21 8.17 16.042 5.136 18.996 1.634 48.012-25.774 75.163-1.79-26.973-36.963-23.735-46.125-52.656-9.188-28.914 13.056-51.043 13.056-51.043s18.183 25.812 32.636 49.647c-1.484-10.148-26.048-54.564-26.048-54.564s8.057-.442 18.19 2.271c8.324 2.222 18.076 6.593 25.895 15.14ZM38 56.722c-3.303 6.143-7.706 10.375-11.72 12.298-6.493 3.111-13.14 3.443-18.539 2.823-6.839-.782-11.65-3.057-11.65-3.057S21.2 48.409 24.507 42.776c-14.24 10.632-31.121 21.54-31.121 21.54s-7.882-18.383 4.456-33.27c12.323-14.898 32.314-4.595 39.802-20.087 8.328 19.336 5.97 35.313.356 45.763Z" fill="#A9DA52"/></svg>