<svg width="110" height="180" fill="none" xmlns="http://www.w3.org/2000/svg"><path d="M58.533.046c-.276 10.842 9.378 35.101 21.853 59.59 5.908 25.886 28.258 51.2 43.145 66.768a231.362 231.362 0 0 1-7.123-1.263 158.65 158.65 0 0 1-7.427-1.598c-17.265-4.123-27.102-9.716-34.281-17.163-4.72-4.9-8.308-10.615-12.125-17.227C51.198 69.42 48.897 17.543 58.533.046Z" fill="#E69D30"/><path d="M58.533.046c12.705 44.315 87.617 35.411 68.078 122.31-13.737-16.376-31.403-36.888-46.138-62.571-.033-.052-.051-.098-.085-.148C67.91 35.147 58.257 10.888 58.533.046Z" fill="#E69D30"/><path d="M58.533.046c12.705 44.315 87.617 35.411 68.078 122.31-13.737-16.376-31.403-36.888-46.138-62.571-.033-.052-.051-.098-.085-.148C67.91 35.147 58.257 10.888 58.533.046Z" fill="#F4AB3E"/><path d="M72.671 111.09c7.18 7.447 17.015 13.042 34.282 17.164 2.329.555 4.809 1.103 7.426 1.597-13.24 21.974-23.206 25.146-38.216 27.801-16.556 2.919-53.13-8.532-62.853-19.623 22.324 1.538 36.515-21.255 59.361-26.939Z" fill="#E69D30"/><path d="M106.953 128.254c-25.159 8.502-79.787 15.202-93.641 9.776 22.324 1.538 36.513-21.256 59.361-26.939 7.177 7.446 17.014 13.039 34.28 17.163Z" fill="#F4AB3E"/></svg>