<svg width="68" height="60" fill="none" xmlns="http://www.w3.org/2000/svg"><path d="M10.322 22.321c.555-3.118 2.141-5.397 4.773-7.158a11.954 11.954 0 0 1 9.086-1.72c1.89.413 3.713 1.33 4.966 2.805 1.252 1.475 1.867 3.546 1.357 5.413 2.96-1.656 6.646-1.956 9.836-.8.882.32 1.761.773 2.306 1.537.487.683.655 1.538.771 2.369.268 1.924.32 3.878.156 5.813-.066.767-.17 1.549-.52 2.233-1.02 1.99-3.611 2.445-5.837 2.662 2.262 1.682 4.593 3.441 5.948 5.913 1.355 2.471 1.45 5.871-.55 7.858-1.02 1.015-2.423 1.528-3.779 2.013-.703.25-1.437.506-2.18.424-.7-.078-1.33-.449-1.935-.81-2.152-1.287-4.391-2.66-5.677-4.812a15.03 15.03 0 0 1-2.264 7.923c-.413.662-.886 1.3-1.494 1.79-.907.73-2.061 1.088-3.211 1.272-3.042.486-6.588-.418-8.109-3.096-.28-.493-.485-1.046-.466-1.612.033-.987.717-1.815 1.366-2.558-2.824.702-5.848.964-8.613.06-2.766-.903-5.215-3.153-5.74-6.014a6.653 6.653 0 0 1 1.342-5.298 6.653 6.653 0 0 1 4.889-2.443c-3.01-1.627-4.965-5.036-4.848-8.456.116-3.42 2.299-6.687 5.413-8.105.628-.286 1.343-.503 2-.294.659.208 1.34 2.483 1.014 3.091ZM54.992 28.39c1.213.077 2.224 1.137 2.462 2.328.237 1.191-.197 2.445-.941 3.405 2.63-.87 5.614-.603 8.048.72.9.488 1.746 1.137 2.255 2.025.51.888.626 2.047.106 2.928-.496.84-1.457 1.288-2.399 1.539-.942.25-1.93.357-2.822.75 1.2.499 2.46 1.047 3.218 2.102.633.881.824 2 .913 3.08.152 1.856-.076 3.987-1.556 5.115-.832.634-1.908.824-2.939.996-.32.053-.66.105-.958-.024-.25-.109-.432-.33-.588-.553a5.821 5.821 0 0 1-.986-2.518c-.224 2.653-2.523 4.978-5.173 5.233-.447.043-.914.03-1.321-.158-.957-.444-1.247-1.643-1.39-2.688-.162-1.185-.244-2.514.501-3.45a6.496 6.496 0 0 1-5.025-.464c-.39-.21-.772-.478-.977-.87-.218-.42-.203-.917-.169-1.387.067-.9.198-1.822.65-2.602.452-.78 1.293-1.393 2.193-1.338-.877.063-1.726-.44-2.26-1.139-.534-.698-.795-1.567-.953-2.432-.492-2.707.476-6.16 3.785-5.825 1.81.184 1.77-.766 2.719-2.23.788-1.217 2.003-2.646 3.608-2.543Z" fill="#F68F8D"/><path d="M15.843 30.902a10.158 10.158 0 0 0-.828 4.414c.029.74.145 1.495.515 2.135.362.625.939 1.096 1.545 1.488 1.007.65 2.156 1.127 3.354 1.176 2.446.098 4.781-1.795 5.322-4.183.751-3.318-1.453-5.118-3.725-6.937-.991-.794-1.428-1.616-2.849-1.314-1.625.346-2.708 1.776-3.334 3.221ZM52.06 42.505c-.053.378-.091.772.024 1.136.117.367.378.667.633.957.349.397.722.81 1.222.983.432.148.904.097 1.353.016 1.12-.202 2.225-.59 3.128-1.28.903-.692 1.588-1.712 1.721-2.841.301-2.551-2.197-3.752-4.402-3.818-2.835-.084-3.35 2.51-3.679 4.847Z" fill="#F6C11E"/><path d="M41.892 6.707c-.124 2.426.35 4.838.502 7.262.063 1.026.032 2.16-.65 2.928.748.483 1.676.983 2.48.601.339-.16.592-.456.818-.755 2.188-2.896 2.707-6.97 1.313-10.323-.454-1.091-1.096-2.118-1.337-3.275C44.777 1.988 45.062.6 46.08 0c-.545.322-1.158.227-1.694.61-.57.41-1.024 1.144-1.356 1.747-.729 1.322-1.062 2.852-1.139 4.35ZM50.564 16.942c1.033-.989 2.082-1.99 3.338-2.674 1.04-.567 2.189-.897 3.312-1.272a40.403 40.403 0 0 0 7.165-3.2c-.732 3.388-1.494 6.855-3.342 9.788-1.849 2.932-5.035 5.27-8.498 5.126-1.431-.06-4.929-.516-5.474-2.22-.616-1.925 2.31-4.41 3.499-5.547Z" fill="#BED665"/><path d="M53.904 45.998c-1.174 0-1.839-.556-2.203-1.066-.784-1.098-.786-2.903-.005-4.388 1.044-1.985 2.441-2.106 3.92-2.235.386-.034.785-.069 1.187-.138.821-.142 1.296.195 1.549.503.611.743.634 2.197.059 3.705-.583 1.526-1.903 3.265-3.857 3.567a4.254 4.254 0 0 1-.65.052Zm3.272-7.246c-.084 0-.174.009-.27.025-.427.074-.838.11-1.236.144-1.42.124-2.543.222-3.43 1.91-.666 1.267-.683 2.842-.038 3.745.467.654 1.247.918 2.258.762 1.695-.261 2.855-1.813 3.377-3.178.483-1.264.5-2.537.04-3.095-.172-.21-.403-.313-.7-.313Zm-.321-.278Z" fill="#231F20"/><path d="M53.959 55.831a4.817 4.817 0 0 1-1.56-.278c-1.513-.518-2.672-2.597-2.66-4.038.006-.66.367-1.669.57-2.198-.365-.017-.836.178-1.327.381-.975.404-2.188.906-3.133-.167-.943-1.073-2.511-4.756-1.54-6.142.28-.402.907-.657 1.571-.927.65-.264 1.46-.593 1.374-.917-.173-.657-.887-1.132-1.642-1.636-.744-.496-1.514-1.01-1.871-1.772-.387-.827-.372-1.733.043-2.62.541-1.157 1.75-2.157 3.006-2.488 1.11-.293 2.095.554 2.746 1.114.096.083.212.183.31.26.134-.384.337-1.163.47-1.67.205-.79.326-1.245.413-1.41.544-1.036 1.575-1.813 2.826-2.133 1.256-.32 2.547-.126 3.541.535 1.12.743 1.024 2.354.947 3.649-.04.678-.086 1.447.114 1.651.016.017.054.058.181.051.49-.02 1.029-.074 1.599-.132 2.632-.267 5.91-.599 6.952 2.401.605 1.74-.075 3.516-1.654 4.316-.33.167-.691.311-1.094.438 1.454.822 2.713 2.527 3.046 4.29.31 1.644-.224 3.011-1.506 3.85-1.906 1.248-4.945 1.623-6.918.855-.281-.109-.535-.47-.807-.912-.104.348-.262 1.02-.489 2.316-.02.113-.033.191-.04.22-.259 1.241-.872 2.169-1.774 2.682a3.386 3.386 0 0 1-1.694.431Zm-3.689-7.13c.203 0 .398.038.584.128.258.124.156.384.113.495-.403 1.023-.61 1.762-.613 2.196-.011 1.325 1.121 3.067 2.244 3.452 1.047.358 1.998.322 2.751-.107.744-.423 1.255-1.209 1.477-2.272l.036-.202c.453-2.583.656-2.906.857-3.043a.363.363 0 0 1 .28-.057c.157.032.216.132.394.427.11.182.444.737.593.804 1.778.691 4.63.334 6.358-.797 1.431-.936 1.39-2.42 1.24-3.222-.371-1.959-2.071-3.903-3.712-4.246-.313-.065-.29-.322-.287-.351.035-.286.316-.275.467-.269.101.004.408.017.49-.005a7.132 7.132 0 0 0 1.415-.52c1.318-.667 1.86-2.1 1.351-3.565-.883-2.541-3.766-2.25-6.31-1.992-.579.06-1.126.115-1.634.136-.265.01-.482-.069-.646-.235-.391-.398-.346-1.158-.289-2.119.071-1.196.152-2.553-.673-3.1-.85-.565-1.961-.73-3.049-.451-1.083.276-1.97.941-2.435 1.823-.059.115-.227.76-.362 1.279-.127.486-.259.99-.377 1.383-.157.518-.281.926-.637.852-.217-.045-.433-.231-.761-.514-.587-.504-1.39-1.196-2.188-.986-1.09.288-2.138 1.153-2.606 2.154-.234.5-.432 1.27-.043 2.1.284.607.98 1.072 1.654 1.52.818.546 1.663 1.11 1.896 1.992.223.846-.818 1.27-1.736 1.643-.527.214-1.123.457-1.3.71-.714 1.02.577 4.335 1.498 5.383.61.694 1.328.465 2.437.006.512-.213 1.036-.43 1.523-.43ZM41.491 18.698c-.07 0-.141-.003-.213-.01-.29-.032-.347-.233-.357-.294-.053-.31.254-.455.864-.746.143-.069.278-.133.36-.18.228-.127.475-.12.72-.06-.198-.14-.377-.291-.473-.472-.593-1.113-1.129-2.227-1.183-3.605-.103-2.623.437-4.97 1.009-7.454.15-.658.307-1.337.449-2.017.033-.16.372-1.054.53-1.462.098-.251.239-.608.358-.884.167-.386.266-.62.543-.562.854.178.756 1.14.678 1.91-.042.412-.085.838-.01 1.126.217.821.643 1.788 1.094 2.812 1.018 2.313 2.172 4.935 1.327 6.914-.09.21-.18.43-.272.659-.604 1.48-1.288 3.157-2.566 3.877-.278.157-.587.11-.884.015a5.852 5.852 0 0 1-.859.247l-.158.037c-.309.074-.626.15-.957.15Zm1.046-.486h.001-.001ZM44.148 1.69c-.267.61-.833 2.109-.88 2.3-.142.682-.3 1.365-.451 2.025-.562 2.444-1.093 4.752-.993 7.293.048 1.248.553 2.293 1.11 3.341.059.11.322.284.496.4.333.22.597.395.6.674a.187.187 0 0 0 .018-.008c1.091-.614 1.732-2.186 2.298-3.573.094-.231.185-.456.276-.668.74-1.735-.357-4.226-1.325-6.425-.46-1.047-.896-2.035-1.124-2.904-.105-.396-.056-.877-.008-1.343.059-.585.073-.935-.017-1.112ZM22.225 41.449c-1.233 0-2.491-.368-3.808-.82-.339-.116-.755-.159-1.195-.205-.63-.065-1.281-.133-1.795-.432-.717-.418-1.046-1.435-1.264-2.108-.677-2.088-.513-4.197.473-6.1.914-1.762 2.504-3.241 4.477-4.164.944-.442 2.578.052 4.997 1.508 1.993 1.201 3.49 3.453 3.815 5.737.244 1.718-.205 3.296-1.266 4.443-1.477 1.597-2.936 2.14-4.434 2.14Zm-2.322-13.373c-.23 0-.401.04-.53.1-3.332 1.56-6.055 5.107-4.626 9.518.178.549.476 1.467.99 1.767.4.232.984.293 1.549.352.455.047.925.096 1.33.235 2.806.962 5.146 1.487 7.592-1.157 1.195-1.293 1.263-2.856 1.109-3.94-.3-2.108-1.683-4.187-3.524-5.296-2.043-1.23-3.216-1.58-3.89-1.58ZM47.9 24.396c-.636 0-1.182-.113-1.537-.423-.317-.278-.456-.675-.414-1.18.291-3.512 2.38-5.316 5.297-7.48 1.342-.995 2.809-1.806 4.227-2.59.354-.195.708-.39 1.06-.588.446-.252 2.235-.828 3.987-1.284 3.507-.913 3.885-.614 4.046-.487.219.173.584.463-1.228 4.572-.896 2.032-1.927 4.075-2.216 4.477-2.066 2.868-5.656 3.765-8.895 4.265-.341.052-.778.148-1.24.25-.998.218-2.141.468-3.088.468Zm-1.645-1.578.306.025c-.025.305.042.523.207.667.65.57 2.636.134 4.087-.183.472-.104.918-.201 1.278-.257 3.27-.504 6.562-1.34 8.49-4.016.25-.348 1.198-2.225 2.045-4.123 1.18-2.645 1.478-3.783 1.472-4.094-.875-.196-6.397 1.321-7.306 1.833-.353.2-.708.395-1.064.591-1.4.774-2.85 1.575-4.158 2.546-2.875 2.133-4.78 3.775-5.05 7.036l-.307-.025Z" fill="#231F20"/><path d="M21.86 59.102a8.916 8.916 0 0 1-2.774-.464c-2.259-.74-5.681-3.673-5.78-6.208-.007-.178.143-.92.597-2.94l.075-.333c-.164-.03-.517-.022-1.248.218-.737.24-1.545.61-2.134.88-.323.147-.556.253-.69.298-2.235.756-3.983.392-5.843-1.216-2.617-2.263-5.13-6.136-3.595-9.6.459-1.036 1.433-2.318 2.423-3.19.13-.113.36-.227.724-.404.33-.16 1.089-.527 1.189-.729-.156-.36-.522-.661-.91-.98-.447-.368-.91-.749-1.147-1.29-1.342-3.05-2.095-8.78.433-11.974 1.054-1.332 4.046-2.414 5.603-1.183.162.129.35.441.693 1.029.225.385.614 1.051.846 1.305.184-.349.26-.897.333-1.43.078-.57.159-1.16.382-1.596 1.928-3.778 5.964-7.833 10.63-8.376 1.918-.223 4.923.04 6.632.867 2.37 1.148 3.572 5.32 2.856 7.802a3.785 3.785 0 0 1-.048.157 38.3 38.3 0 0 1 3.19-.548c2.198-.281 5.007-.443 5.903.385 2.862 2.647 4.757 8.498 3.008 12.367-.628 1.39-2.056 2.53-3.144 3.241-.456.299-1.324.793-1.971 1.053.47.496 1.15.994 1.86 1.513 1.106.809 2.25 1.645 2.93 2.684 1.37 2.096 1.3 5.291-.175 7.771-1.243 2.091-3.185 3.19-5.324 3.015-.401-.032-.861-.031-1.348-.03-1.155.003-2.46.006-3.43-.464-.232-.112-.624-.475-1.245-1.057-.37-.349-.947-.89-1.252-1.106-.209.602-.568 2.398-.772 3.419-.164.822-.26 1.296-.314 1.467-.697 2.212-2.077 3.941-3.885 4.87a7.11 7.11 0 0 1-3.277.777Zm-8.043-10.571c.31 0 .56.074.73.247.12.12.12.12-.044.847-.158.7-.575 2.561-.583 2.789.088 2.242 3.31 4.97 5.357 5.64 2.015.66 3.944.564 5.58-.276 1.661-.853 2.933-2.454 3.58-4.508.047-.147.169-.757.298-1.402.757-3.789.876-3.956 1.213-3.995.306-.035.665.257 1.834 1.354.415.39.932.875 1.093.953.841.407 2.073.404 3.16.401.5 0 .972-.002 1.399.033 1.897.155 3.628-.835 4.746-2.717 1.359-2.286 1.436-5.214.188-7.12-.619-.946-1.716-1.748-2.778-2.525-.972-.711-1.891-1.383-2.377-2.126a.32.32 0 0 1 .015-.39c.155-.183.372-.088.453-.052l.073.03c.55-.203 1.44-.688 1.974-1.038 1.019-.667 2.353-1.726 2.92-2.98 1.618-3.58-.212-9.209-2.865-11.663-.559-.516-2.73-.59-5.666-.192a35.99 35.99 0 0 0-3.345.61c-.418.635-1.04.942-1.785.86-.157-.018-.525-.058-.586-.36-.039-.19.062-.353.3-.486.29-.164.895-.358 1.675-.551.072-.146.135-.311.189-.496.646-2.242-.466-6.077-2.534-7.078-1.587-.768-4.502-1.019-6.292-.81-4.442.517-8.3 4.413-10.155 8.044-.176.344-.25.881-.32 1.4-.096.7-.196 1.422-.557 1.878a.422.422 0 0 1-.365.165c-.385-.027-.722-.536-1.397-1.691-.192-.329-.456-.779-.546-.858-1.229-.973-3.853-.034-4.738 1.084-2.368 2.993-1.631 8.436-.352 11.345.18.407.566.725.975 1.062.44.361.893.735 1.1 1.251.256.636-.678 1.088-1.501 1.486-.229.111-.513.25-.586.313-.93.818-1.841 2.015-2.268 2.977-1.398 3.157.977 6.76 3.436 8.886 1.696 1.466 3.215 1.785 5.245 1.099.103-.035.347-.146.63-.276 1.356-.62 2.638-1.164 3.477-1.164Z" fill="#231F20"/></svg>