<svg width="81" height="87" fill="none" xmlns="http://www.w3.org/2000/svg"><path d="M-3.333 8.195s-19.608 7.78-27.978 35.272C-12.488 39.432-.947 9.552-.947 9.552s-4.26 15.605-4.281 23.96c-.019 8.353 9.276 29.075 8.967 35.845-.311 6.77 8.442-9.74 7.657-24.249-.785-14.51-9.574-33.36-9.574-33.36S18.115 37.57 32.999 44.165c14.885 6.594 21.833 14.923 21.833 14.923s-4.538-27.273-21.518-37.248C16.334 11.863.124 8.297.124 8.297" fill="#AAD15D"/><path d="M-1.95 6.85s.766-21.08 23.867-38.173C24.417-12.234.127 8.646.127 8.646S13.405-.594 21.271-3.411c7.865-2.816 30.502-.993 36.778-3.553C64.325-9.525 51.7 4.252 37.764 8.368c-13.935 4.117-34.64 2.15-34.64 2.15" fill="#90B74B"/><path d="M-3.15 9.185-23.305-4.71l2.588-1.95 20.3 13.787-2.731 2.057Z" fill="#90B74B"/></svg>