<svg width="77" height="87" fill="none" xmlns="http://www.w3.org/2000/svg"><path d="M20.97 4.377c-.698-1.02-1.525-1.988-2.605-2.589-1.08-.6-2.452-.782-3.553-.222-1.117.568-1.77 1.777-2.1 2.985-.56 2.037-.263 4.498 1.386 5.817-1.815-.09-3.726-.162-5.347.66-1.622.822-2.773 2.871-1.97 4.502.932 1.894 3.558 1.973 5.66 1.777-2.007 1.432-3.12 4.022-2.78 6.464.066.476.194.966.515 1.324.444.498 1.158.639 1.822.703 1.595.154 3.275.008 4.663-.793 1.388-.802 2.412-2.362 2.237-3.955 1.992.77 4.1 1.241 6.23 1.393 1.599.113 3.376-.02 4.515-1.147.93-.918 1.217-2.425.691-3.622-.526-1.196-1.83-2.003-3.135-1.94.802-1.412 2.792-1.622 3.918-2.792 1.292-1.342 1.088-3.48.798-5.32-.201-1.278-.508-2.72-1.618-3.386-1.174-.705-2.709-.191-3.845.575-.74.499-2.179 2.605-2.93 2.7-1.196.153-2.012-2.347-2.551-3.134ZM37.225 11.3c-1.934 1.545-1.988 4.895-.105 6.503-1.725-1.124-4.293-.848-5.584.755-1.291 1.603-.891 4.345.904 5.352 1.59.89 3.59.334 5.232-.458-1.617 1.353-1.346 3.89-.75 5.912.232.78.502 1.577 1.038 2.19s1.402 1.004 2.18.76c.79-.247 1.258-1.041 1.651-1.771.64-1.19 1.292-2.41 1.493-3.746.575 2.212 3.734 3.22 5.483 1.747 1.749-1.473 1.295-4.757-.788-5.7 1.135-.239 2.292-.486 3.289-1.078.996-.593 1.82-1.603 1.873-2.761.237-5.09-6.49-2.238-8.454-4.38-1.08-1.177-1.15-2.724-2.706-3.592-1.453-.808-3.43-.793-4.756.267ZM25.991 35.906c-.956-.388-2.014-.644-3.02-.41-1.207.282-2.206 1.31-2.453 2.524-.246 1.214.272 2.55 1.273 3.28-2.188-.744-4.759-.643-6.638.702-1.88 1.345-2.796 4.075-1.712 6.117 1.085 2.04 4.296 2.684 5.832.957-1.003 1.796-1.97 3.697-2.074 5.75-.105 2.055.881 4.302 2.795 5.054 1.594.626 3.407.101 4.944-.654 1.344-.66 2.642-1.536 3.429-2.81.787-1.275.953-3.016.09-4.241 2.077 2.181 5.203 3.314 8.195 2.97.43-.05.875-.136 1.22-.4.304-.232.497-.579.663-.924.811-1.688 1.117-3.846-.022-5.333-.721-.942-1.874-1.426-2.958-1.91-.26-.115-.535-.246-.685-.489-.347-.562.196-1.274.785-1.573.59-.3 1.304-.462 1.675-1.01.326-.482.278-1.118.201-1.695-.247-1.883-1.088-4.161-2.98-4.326-1.053-.092-1.753.528-2.493 1.16-1.138.972-.6 1.122-1.774.362-1.53-.99-2.496-2.371-4.293-3.1ZM27.161 59.18c-.658.465-1.065 1.226-1.235 2.014-.193.89-.029 1.97.746 2.448a5.774 5.774 0 0 0-2.978-1.446c-.514-.082-1.051-.093-1.545.071-1.225.408-1.895 1.907-1.55 3.15.346 1.245 1.54 2.15 2.817 2.345 1.276.195 2.595-.245 3.642-1-.021.822-.04 1.663.21 2.446.25.784.823 1.514 1.619 1.723.924.243 1.94-.306 2.411-1.138.473-.83.469-1.869.185-2.781.912.056 1.8.359 2.714.358.914-.001 1.934-.428 2.202-1.301.253-.827-.291-1.73-1.034-2.171-.743-.442-1.636-.532-2.497-.613.743-.375 1.503-.762 2.075-1.367.572-.605.929-1.483.698-2.283-.325-1.126-1.712-1.668-2.86-1.429-.983.205-1.674 1.05-2.664 1.05-1.163 0-1.738-.938-2.956-.077ZM57.11 53.392c-1.34.165-2.426 1.297-2.827 2.586-.4 1.29-.212 2.698.21 3.981-.944-.847-2.36-1.036-3.58-.685-1.22.35-2.256 1.176-3.085 2.137-.854.992-1.543 2.365-1.046 3.576.464 1.133 1.806 1.66 3.03 1.683 1.225.023 2.426-.331 3.649-.396a7.688 7.688 0 0 0-2.831 5.085c-.088.758-.05 1.567.34 2.223.616 1.035 1.925 1.419 3.125 1.51 1.578.121 3.27-.154 4.472-1.184 1.202-1.03 1.71-2.953.813-4.257a12.404 12.404 0 0 0 5.463 3.21c1.817.506 4.236.307 4.96-1.435.717-1.729-.783-3.536-2.228-4.726-.84-.691-1.794-1.382-2.88-1.379 1.14-.362 2.371-.232 3.558-.383 1.186-.152 2.471-.73 2.833-1.87.29-.916-.126-1.938-.799-2.625-.672-.686-1.564-1.105-2.436-1.51-1.167-.543-2.295-1.001-3.575-1.182-.825-.117-1.717.067-2.428-.465-1.749-1.31-1.74-4.26-4.737-3.894ZM59.29 46.397c.04 1.256.383 2.577 1.306 3.43.922.854 2.53 1.03 3.398.12-.504.814-.445 1.86-.203 2.786.345 1.313 1.093 2.6 2.31 3.203 1.216.602 2.929.278 3.556-.926.568-1.09.117-2.411-.339-3.554.511 1.709 2.23 3.006 4.011 2.936 1.783-.07 3.426-1.571 3.567-3.349.141-1.778-1.323-3.556-3.103-3.672 1.219.436 2.694.21 3.616-.697.923-.908 1.144-2.5.373-3.54-.736-.995-2.102-1.286-3.34-1.269-1.61.022-3.156.546-4.169 1.838-.133-1.118.333-3.755-1.41-4.023-1-.154-1.503.914-1.995 1.61-2.014 2.854-4.112 4.296-7.579 5.107Z" fill="#F68F8D"/><path d="M79.6 21.34c-6.141-5.074-14.106-8.928-21.908-7.316a406.29 406.29 0 0 0 19.774 9.753l-14.663 3.985c-1.973.537-3.982 1.088-5.704 2.193-1.5.962-2.72 2.305-4.174 3.337-4.283 3.042-10.22 2.996-15.054.938s-8.72-5.857-12.032-9.934c-.112 2.1.248 4.224 1.045 6.171-5.684-1.835-12.112-1.234-17.358 1.624l30.241 5.338c1.267.223 2.898.937 2.65 2.2-.17.862-1.143 1.252-1.883 1.727a4.739 4.739 0 0 0-2.125 3.541 96.709 96.709 0 0 0 19.987-7.85 20.815 20.815 0 0 1-4.545 8.649c-1.911 2.17-4.265 3.928-6.097 6.166-1.532 1.87-2.679 4.054-4.378 5.774-2.55 2.581-6.24 4.023-8.187 7.084a8.33 8.33 0 0 0-1.194 5.66c.043.288.121.603.363.764.185.123.424.126.644.103 1.5-.155 2.719-1.232 3.826-2.256l14.962-13.84c1.09-1.008 2.195-2.034 2.96-3.306 1.154-1.916 1.45-4.243 2.53-6.202.9-1.636 2.332-2.987 2.923-4.759.732-2.198.07-4.77 1.192-6.797 1.44-2.603 4.949-2.985 7.919-3.158a133.791 133.791 0 0 0 31.898-5.79c.831-.26 1.695-.546 2.308-1.166 1.374-1.39.886-3.722.084-5.506-.772-1.717-1.006-5.075-3.049-4.711-2.519.447-5.175 1.98-7.727 2.622-2.671.671-5.374 1.218-8.021 1.984-.724.21-7.151 3.025-7.207 2.979Z" fill="#4E3B31"/><path d="M72.224 17.002a7.617 7.617 0 0 1-1.31-2.508c-.384-1.271-1.114-4.816-.059-5.75 1.021 1.027 1.584 2.609 1.803 4.024.096.625-.558 4.078-.434 4.233ZM59.253 27.645c.25.317.471.715.372 1.107-.054.213-.197.39-.314.578-.362.58-.484 1.276-.774 1.894a3.844 3.844 0 0 1-3.02 2.146c.76-.08-.901-6.48-.678-6.98.777-1.733 3.647.282 4.414 1.255ZM45.429 48.517c-1.8-.358-3.017-7.193.2-5.973 2.264.859 2.99 6.607-.2 5.973Z" fill="#BED665"/><path d="M68.162 57.205c1.03-.27 1.772-.835 2.11-1.612.179-.41.168-.989.076-1.562 1.928.916 4.893 1.55 6.222.132.981-1.047.68-3.35-.18-4.973-.284-.536-.612-.964-.966-1.27.803-.454 1.532-.99 1.69-1.25.895-1.474-.359-3.642-1.615-4.486-.907-.61-2.79-1.267-3.948-.746-.472.212-.766.799-1.026 1.317-.04.079-.087.174-.135.264-.186-.41-.215-.853-.245-1.317-.07-1.074-.15-2.29-2.156-3.051-.746-.283-1.334-.281-1.794.006-.804.5-.916 1.678-1.035 2.925-.108 1.144-.22 2.326-.847 2.765-.782.548-1.681.812-2.55 1.067-1.53.448-3.111.912-2.943 3.022.222 2.775 2.675 2.893 3.992 2.957.275.013.633.03.816.073a3.554 3.554 0 0 1-.283.315c-.295.305-.63.65-.655 1.113-.083 1.517.747 3.485 2.28 4.151.766.333 1.856.424 2.846.237a4.93 4.93 0 0 0 .346-.077Zm1.115-3.785c.19.691.302 1.478.158 1.809-.337.776-1.265 1.057-1.788 1.157-.807.152-1.715.082-2.313-.178-1.153-.5-1.797-2.085-1.732-3.265.006-.121.243-.365.4-.527.32-.331.856-.885.427-1.485-.276-.387-.82-.413-1.572-.45-1.682-.08-2.98-.288-3.127-2.118-.104-1.312.67-1.598 2.29-2.073.896-.263 1.912-.561 2.817-1.195.972-.68 1.11-2.14 1.233-3.426.092-.971.187-1.975.608-2.237.2-.126.533-.1.988.072 1.457.553 1.504 1.268 1.569 2.258.042.655.09 1.397.593 2.1.209.293.46.32.593.309.434-.034.648-.463.92-1.007.154-.305.41-.815.585-.894.767-.347 2.301.159 3.064.672.928.623 1.923 2.302 1.344 3.255-.18.237-1.109.817-1.885 1.206a1.735 1.735 0 0 0-.654-.022c-.499.049-.78.157-.937.36a.55.55 0 0 0-.11.426.614.614 0 0 0 .506.51c.28.056.739-.073 1.244-.291.378.19.76.617 1.086 1.232.755 1.425.908 3.294.32 3.92-.892.954-3.44.543-5.287-.384a7.063 7.063 0 0 1-.564-.314 5.928 5.928 0 0 0-.275-.71c-.206-.42-.54-.921-.96-.928a.555.555 0 0 0-.502.308c-.176.332-.288 1.018.933 1.89l.028.02ZM19.35 11.674a.462.462 0 0 0 .319-.293c.118-.338-.098-.508-.62-.919-.159-.125-.554-.43-.797-.564-.403-.223-.627-.022-.704.074-.269.335.03.672.209.874.233.264.726.724 1.401.836a.46.46 0 0 0 .192-.008Zm-1.252-1.13h-.002.002ZM21.963 17.733a.457.457 0 0 0 .34-.456c-.005-.18-.006-.3-.007-.386a1.404 1.404 0 0 0-.097-.581c-.024-.073-.056-.17-.098-.308a.457.457 0 0 0-.872.269c.044.145.077.246.102.322.05.154.05.154.052.306 0 .09.002.217.008.407a.456.456 0 0 0 .573.427ZM23.868 45.293a.456.456 0 0 0 .098-.845l-.345-.182a.456.456 0 0 0-.48.032l-.222.16-.456.14a.456.456 0 1 0 .268.872l.527-.161a.451.451 0 0 0 .131-.066l.055-.038.095.05a.453.453 0 0 0 .329.038ZM72.397 17.398c.434-.113.751-.69 1.083-1.369.036-.075.064-.134.082-.165 1.47-2.292.61-3.831-.765-5.756-.216-.303-.795-.868-1.265-1.297-1.09-.994-1.239-.98-1.426-.962a.487.487 0 0 0-.385.274c-.125.274.05.52.145.651.374.524.361 1.922.349 3.274-.022 2.36-.047 5.035 1.913 5.361a.635.635 0 0 0 .27-.01Zm-1.342-7.784c.431.4.857.825 1 1.024 1.382 1.937 1.87 2.97.737 4.738a2.653 2.653 0 0 0-.133.253c-.218.447-.383.734-.492.855-1.078-.318-1.057-2.497-1.04-4.427.009-.907.017-1.746-.072-2.443ZM26.481 42.355a.457.457 0 0 0 .334-.366l.081-.487a.459.459 0 0 0-.078-.34l-.71-.993a.454.454 0 0 0-.157-.138l-.69-.365a.456.456 0 1 0-.427.806l.594.315.537.751-.05.3a.456.456 0 0 0 .566.517Z" fill="#231F20"/><path d="M67.638 73.843c.079-.021.156-.044.231-.07.91-.308 1.982-1.116 1.914-3.219-.04-1.223-1.11-3.163-2.34-4.286a14.007 14.007 0 0 0 1.061-.34c1.51-.783 1.902-3.952 1.68-5.36-.126-.796-.707-1.538-1.679-2.144-1.458-.91-3.482-1.306-4.702-.937-.228.07-.577.29-1.174.671-.383.245-1.003.64-1.25.737-.529-.245-.836-1.163-1.134-2.052-.282-.844-.575-1.718-1.123-2.231-1.357-1.273-2.533-1.068-3.281-.672-1.883.997-2.888 4.112-2.714 5.886-.28.085-.897.146-1.412.198-2.11.212-5.3.533-5.717 3.032-.406 2.44 1.083 4.681 3.794 5.71.363.137.84.225 1.331.213a4.612 4.612 0 0 0-.724 2.094c-.116 1.407.46 2.788 1.664 3.993.744.744 1.813 1.103 3.01 1.009 1.498-.118 3.042-.936 3.843-2.036.293-.404.972-1.426 1.216-2.54 1.962 1.553 5.286 2.927 7.506 2.344Zm-1.334-7.31c1.179.731 2.53 2.922 2.567 4.05.04 1.257-.382 2.017-1.294 2.326-2.299.782-6.678-1.429-7.91-3.153-.275-.385-.577-.24-.663-.186-.136.086-.332.29-.107.706.338.624.373.824.373.88-.114.681-.523 1.564-1.093 2.347-.642.882-1.948 1.566-3.176 1.662-.655.052-1.584-.036-2.292-.744-1.01-1.01-1.494-2.14-1.4-3.272.082-.994.61-1.95 1.502-2.746.061-.043.126-.09.193-.14.463-.345.587-.438.596-.68a.457.457 0 0 0-.24-.42c-.254-.136-.462.012-.55.076-.2.142-.387.29-.564.445-.14.098-.27.183-.351.22-.542.244-1.305.189-1.779.009-1.82-.69-3.62-2.29-3.217-4.706.302-1.812 3.073-2.09 4.908-2.275 1.235-.124 1.84-.2 2.12-.562a.637.637 0 0 0 .126-.491c-.246-1.562.803-4.385 2.215-5.133.716-.38 1.445-.205 2.23.532.38.356.636 1.118.882 1.855.385 1.15.783 2.34 1.805 2.664.353.112.763-.12 1.936-.87.347-.221.822-.525.951-.567.967-.297 2.735.08 3.95.838.731.456 1.178.993 1.26 1.512.209 1.319-.265 3.925-1.197 4.408-.224.103-.949.31-1.647.454-.11-.051-.22-.093-.33-.123-.081-.024-.179-.059-.283-.096-.469-.167-.954-.34-1.328-.12a.67.67 0 0 0-.32.478.71.71 0 0 0 .285.715c.367.267 1.1.237 1.842.106ZM53.15 60.02v.001-.001ZM20.712 15.728c.218-.057.437-.162.65-.314.408-.292.552-.723.385-1.152-.325-.836-1.975-1.628-2.387-1.578-.362.044-.634.305-.728.697-.152.631.172 1.668.881 2.146.363.245.78.311 1.199.201Zm.19-1.116c-.004 0-.022.025-.07.059-.474.338-.748.171-.913.016-.338-.32-.446-.85-.409-1.065.45.153 1.364.73 1.393.99Zm-1.487-1.475h-.002.002Z" fill="#231F20"/><path d="M25.268 23.917c.471-.124 1.006-.34 1.62-.672.14-.075.294-.152.454-.232.76-.378 1.704-.849 2.144-1.678 1.011-1.91.404-4.348-1.412-5.669-.128-.093-.32-.162-.678-.287l-.242-.086c.12-.048.19-.081.248-.123l.113-.08c1.49-1.062 4.262-3.038 3.477-5.247-.326-.916-3.02-5.35-4.695-5.39-1.329-.03-3.033 1.463-3.526 1.988-.226.242-.36.635-.485 1.02a13.86 13.86 0 0 1-.603-1.292c-.564-1.32-1.203-2.815-3.017-3.603-2.4-1.044-3.747.023-4.337.752-1.461 1.806-1.436 5.22.055 7.308.143.2.166.304.169.334-.225.254-1.732.275-2.637.288-2.24.031-4.78.067-5.068 1.793-.323 1.937 1.505 3.893 2.306 4.643.223.21.62.263 1.422.356.226.026.54.062.793.105a10.6 10.6 0 0 1-.32.216c-.362.238-.737.484-.933.791-1.111 1.733-.366 4.809 1.024 6.112 2.494 2.338 6.523.075 8.704-1.482.782-.558.77-1.032.672-1.592-.03-.173-.061-.352-.056-.572a.816.816 0 0 0-.008-.127c.524.254.91.676 1.311 1.115.78.855 1.643 1.8 3.505 1.31Zm1.623-9.503c-.043.02-.152.062-.233.093-.577.223-.994.384-.924.829.068.434.562.627 1.362.905.167.058.395.138.454.172 1.415 1.03 1.916 3.008 1.13 4.496-.303.57-1.069.951-1.744 1.288-.17.084-.334.166-.482.246-2.412 1.305-3.086.568-4.017-.451-.602-.659-1.284-1.405-2.48-1.604a.525.525 0 0 0-.505.18c-.208.26-.086.564.012.81.028.07.074.184.083.232-.006.304.036.544.07.737.065.376.073.424-.304.694-1.572 1.122-5.454 3.521-7.549 1.558-1.106-1.037-1.732-3.625-.88-4.953.092-.144.41-.353.666-.521.43-.283.836-.55.977-.922a.573.573 0 0 0-.046-.504c-.223-.368-.77-.446-1.8-.565-.317-.036-.786-.09-.935-.144-.574-.544-2.25-2.282-1.998-3.798.162-.974 2.485-1.007 4.181-1.03 1.779-.026 3.064-.044 3.444-.795.182-.36.099-.788-.246-1.271l-.372.265.372-.265c-1.231-1.723-1.274-4.738-.088-6.203.747-.923 1.876-1.093 3.263-.49 1.481.644 1.996 1.85 2.542 3.126.284.666.579 1.355 1.018 1.97.21.293.471.288.574.272.402-.06.537-.471.706-.99.075-.23.2-.613.295-.715.663-.706 2.054-1.717 2.838-1.7.891.021 3.43 3.582 3.857 4.784.555 1.56-1.945 3.34-3.147 4.197l-.094.067Zm-7.344 7.183v.002-.002Zm7.328-7.172-.003.003.003-.003ZM14.553 10.97h-.001.001ZM22.996 48.272a.454.454 0 0 0 .288-.228l.132-.249 1.33-.95a.457.457 0 0 0-.53-.743l-1.42 1.013a.458.458 0 0 0-.137.158l-.182.345a.456.456 0 0 0 .52.654Z" fill="#231F20"/><path d="M20.585 12.505a.455.455 0 0 0 .15-.07l.283-.203a.457.457 0 0 0 .191-.387l-.02-.628a.457.457 0 0 0-.085-.25l-.304-.425a.457.457 0 0 0-.743.53l.224.313.008.246-.085.06a.457.457 0 0 0 .381.813ZM24.962 43.227a.454.454 0 0 0 .15-.07l.283-.204a.456.456 0 0 0 .106-.636l-.202-.284a.456.456 0 0 0-.234-.17l-.792-.25-.652-.346a.456.456 0 1 0-.427.806l.689.365c.024.013.05.024.075.032l.464.147a.455.455 0 0 0 .54.61ZM17.039 16.538a.455.455 0 0 0 .287-.229l.132-.249.42-.3.456-.14a.457.457 0 0 0-.269-.872l-.527.162a.458.458 0 0 0-.13.065l-.568.405a.455.455 0 0 0-.138.158l-.182.344a.456.456 0 0 0 .519.656ZM28.913 42.76a.455.455 0 0 0 .288-.228l.182-.344a.454.454 0 0 0 .053-.228l-.02-.628a.454.454 0 0 0-.085-.251l-.203-.284a.456.456 0 1 0-.742.531l.122.171.012.37-.126.237a.456.456 0 0 0 .52.654ZM30.615 49.042a.455.455 0 0 0 .046-.867c-.18-.069-.285-.116-.362-.15-.251-.114-.346-.125-.637-.072-.053.01-.12.021-.207.035a.456.456 0 1 0 .142.901c.097-.015.17-.028.227-.038l.063-.012.037.017c.083.037.208.093.414.171a.45.45 0 0 0 .277.015ZM27.85 71.767a2.1 2.1 0 0 0 .31-.11c.913-.4 1.76-1.486 1.95-2.21.129-.492.21-.943.245-1.372.545.258 1.185.518 1.822.656 1.767.383 2.586-.381 2.96-1.09.569-1.073.232-2.498-1.002-4.237.535-.438.998-.99 1.061-1.23.448-1.713.802-3.065-1.61-3.892-1.252-.43-2.272-.493-3.031-.195-.407.16-.629.615-.813 1.05l-.026-.09c-.098-.343-.21-.732-.595-.94-.315-.172-.713-.169-1.289.008-.893.275-2.207 1.077-1.874 3.405-.58-.147-1.305-.08-2.07.22-1.336.527-2.523 1.722-2.16 3.202.156.644.45 1.083.87 1.308.657.352 1.415.077 1.97-.125-.29.645-.358.834-.361.988-.033 1.379 1.2 3.832 2.552 4.548.328.173.7.208 1.09.106Zm1.604-3.878c-.026.409-.1.843-.227 1.328-.116.443-.77 1.313-1.434 1.605-.366.16-.547.064-.607.032-.945-.5-2.073-2.517-2.067-3.686.044-.149.258-.618.375-.876.28-.616.331-.727.168-.954-.33-.463-.9-.255-1.402-.073-.415.152-.932.34-1.232.18-.182-.097-.321-.34-.414-.72-.231-.946.642-1.754 1.61-2.136.895-.352 1.752-.289 1.997.147.224.4.516.33.63.282.254-.108.33-.338.226-.684-.556-1.84-.21-2.967 1.024-3.347.46-.142.58-.081.585-.079.049.026.114.254.153.39.077.268.172.6.398.916.195.275.434.291.559.277.388-.043.548-.425.732-.867.084-.202.258-.622.37-.693.537-.21 1.366-.137 2.392.214 1.6.548 1.477 1.066 1.033 2.762-.114.192-.536.61-.904.9-.273-.163-.583-.271-.848-.162-.104.043-.438.224-.354.76.058.365.308.603.652.62.148.007.319-.039.5-.12l.013.014c1.025 1.44 1.345 2.549.95 3.295-.214.404-.65.909-1.96.625-.93-.202-1.92-.725-2.51-1.038a.485.485 0 0 0-.598.08c-.253.272-.067.573.045.752.04.064.118.191.145.256Zm.002-.041Zm3.915-3.944.002.003-.002-.003ZM27.307 47.351c1.221-.32 1.666-1.4 1.474-2.313-.19-.894-1.022-1.743-2.405-1.496-.628.111-1.082.498-1.28 1.086-.244.723-.041 1.634.493 2.216.442.482 1.052.67 1.675.519l.043-.012Zm-.77-2.91c.842-.151 1.254.329 1.35.786.105.494-.11 1.069-.84 1.249-.302.074-.566-.01-.785-.249-.31-.337-.44-.9-.302-1.307.091-.27.28-.428.577-.48Z" fill="#231F20"/><path d="M35.306 70.145c.492-.13 1.272-.501 2.579-1.222l.134-.074c2.885-1.412 5.478-3.423 7.85-5.386 4.972-4.118 10.543-9.011 13.71-14.993 1.165-2.2 1.712-4.592 2.24-6.905.755-3.304 1.469-6.425 3.85-8.965 1.81-1.931 7.249-2.739 10.17-3.172.373-.056.715-.106 1.018-.154 1.87-.295 3.813-.54 5.871-.798 6.12-.769 12.449-1.564 17.743-3.812.298-.127.78-.267 1.338-.43 2.084-.607 4.937-1.439 5.257-3.36.144-.866-.325-2.355-.906-4.069-.174-.514-.324-.957-.375-1.19-.014-.062-.051-.286-.091-.524-.432-2.602-.511-2.761-.93-2.81a2.624 2.624 0 0 0-1.487.28c-2.41 1.233-4.715 2.083-7.155 2.982-1.033.381-2.1.775-3.19 1.204-1.013.399-1.996.833-2.947 1.252-2.42 1.068-4.704 2.077-7.333 2.49-.971.154-2.936-.854-4.237-1.521-.548-.282-1.022-.524-1.394-.679-3.144-1.299-6.71-2.255-11.225-3.007l-.663-.112c-1.608-.274-3.43-.583-5.045-.583-.1 0-.986.013-1.232.49a.564.564 0 0 0 .05.596c.554.776 2.368 1.194 4.179 1.557.243.048.446.088.587.122 2.874.678 13.416 4.282 14.485 5.779.032.044.066.102.052.133-.038.084-.35.528-2.714.955-1.504.272-3.244.436-4.514.555-.645.06-1.155.108-1.44.153-2.817.445-5.566 2.414-8.227 4.32-1.747 1.25-3.398 2.431-5 3.152-8.057 3.626-15.914 3.637-22.722.033-.932-.494-2.439-2.27-3.895-3.988-2.274-2.683-3.723-4.328-4.799-4.354a.49.49 0 0 0-.41.218c-.181.282-.091.469.498 1.683.4.82 1.608 3.313 1.384 3.805l-.003.003a2.162 2.162 0 0 0-.403-.159c-3.829-1.084-7.036-1.223-10.4-.452-1.024.235-2.963.788-4.459 1.857-.064.046-.17.107-.283.172-.437.252-.85.49-.871.901-.011.202.084.39.26.519.176.128.18.13 3.692.118 2.364-.008 5.601-.02 6.228.085 2.12.353 4.034 1.036 6.059 1.76 1.213.434 2.468.882 3.76 1.248 1.19.337 2.432.633 3.747.946 3.012.718 6.123 1.459 8.682 2.74-.608.957-3.114 3.727-3.618 4.106l-.047.019c-.134.053-.358.141-.433.395a.503.503 0 0 0 .075.436c.323.45.923.35 4.048-1.148.186-.09.32-.154.373-.176 3.823-1.624 7.887-3.4 11.863-5.678l.156-.09c.462-.271 1.87-1.095 2.463-.89.066.023.14.065.195.204.752 1.909-1.061 5.14-3.01 7.529-1.725 2.115-3.249 4.341-4.722 6.495-2.64 3.858-5.134 7.502-8.698 10.57-1.585 1.365-2.845 3.032-4.065 4.644-.613.81-1.247 1.649-1.902 2.418l-.05.058c-.313.354-.896 1.013-.521 1.537.152.213.361.302.82.182Zm34.621-40.533c-2.027.533-3.905 1.277-4.924 2.364-2.55 2.72-3.324 6.109-4.074 9.386-.515 2.255-1.048 4.586-2.157 6.681-3.088 5.833-8.58 10.655-13.486 14.717-2.328 1.927-4.868 3.899-7.67 5.27l-.172.093c-.823.454-1.377.731-1.748.9l.056-.064c.672-.79 1.314-1.639 1.935-2.46 1.19-1.573 2.422-3.2 3.933-4.502 3.654-3.147 6.298-7.01 8.855-10.747 1.463-2.138 2.975-4.348 4.677-6.434 1.024-1.256 4.28-5.576 3.151-8.44a1.215 1.215 0 0 0-.745-.731c-.87-.301-2.063.285-3.223.963l-.148.087c-3.933 2.254-7.97 4.017-11.767 5.63-.059.025-.206.095-.41.193-.635.304-1.146.54-1.558.722a48.44 48.44 0 0 0 1.088-1.203c1.903-2.177 1.88-2.515 1.867-2.717a.513.513 0 0 0-.27-.424c-2.722-1.44-6.03-2.229-9.229-2.99-1.305-.312-2.537-.605-3.709-.937-1.264-.357-2.503-.8-3.702-1.229-1.974-.705-4.015-1.434-6.216-1.801-.651-.109-3.164-.109-6.38-.097-.849.003-1.713.006-2.351.003.03-.02.059-.038.085-.058.999-.713 2.505-1.336 4.133-1.71 3.206-.735 6.274-.599 9.947.44.125.036.206.078.284.119.409.212.692.151 1.045-.224.618-.66.093-2.08-1.237-4.82l-.03-.064c.918.786 2.204 2.303 3.223 3.506 1.582 1.866 3.077 3.628 4.165 4.204 7.065 3.74 15.2 3.738 23.523-.007 1.685-.759 3.371-1.966 5.156-3.243 2.575-1.843 5.237-3.748 7.84-4.16.256-.04.753-.087 1.382-.146 4.66-.437 7.458-.911 7.973-2.04.088-.193.187-.585-.14-1.042-1.424-1.995-13.012-5.664-15.018-6.137a20.737 20.737 0 0 0-.618-.13c-.682-.136-2.238-.447-3.088-.834 1.517.011 3.262.308 4.805.57l.666.112c4.444.741 7.948 1.679 11.026 2.951.338.14.796.375 1.326.647 1.573.807 3.531 1.811 4.796 1.611 2.745-.433 5.084-1.465 7.56-2.557a78.42 78.42 0 0 1 2.912-1.238c1.08-.425 2.143-.817 3.171-1.196 2.467-.91 4.797-1.768 7.256-3.027.223-.115.474-.182.714-.194.124.48.31 1.597.387 2.062.053.319.082.489.099.569.062.282.212.726.403 1.289.369 1.09.988 2.915.87 3.625-.226 1.356-2.866 2.125-4.612 2.634-.586.171-1.092.319-1.439.466-5.178 2.198-11.442 2.986-17.5 3.747-2.066.26-4.016.504-5.9.802-.3.047-.64.097-1.01.152-1.614.24-3.77.56-5.778 1.088ZM22.977 14.653a.456.456 0 0 0 .149-.07l1.56-1.115a.456.456 0 0 0 .106-.636l-.202-.284a.457.457 0 0 0-.795.435l-1.2.857a.457.457 0 0 0 .382.813Z" fill="#231F20"/><path d="M26.583 49.995a.455.455 0 0 0 .287-.228l.183-.344a.454.454 0 0 0 .047-.285l-.121-.77a.456.456 0 1 0-.902.142l.098.62-.111.21a.457.457 0 0 0 .519.655ZM15.62 14.552a.455.455 0 0 0 .15-.07c.267-.192.416-.315.505-.389l.06-.05a13.036 13.036 0 0 0 .335-.05.457.457 0 0 0-.143-.901l-.195.03c-.318.045-.401.071-.64.268-.084.07-.212.176-.453.348a.456.456 0 0 0 .381.814ZM30.332 44.746a.459.459 0 0 0 .15-.07l.237-.17.57-.224.336-.053a.457.457 0 0 0 .194-.08l.283-.202a.456.456 0 0 0-.53-.743l-.196.14-.279.044a.439.439 0 0 0-.096.026l-.668.264a.455.455 0 0 0-.098.053l-.284.203a.457.457 0 0 0 .38.812ZM57.686 32.536c.183-.048.365-.18.568-.358.565-.494 2.685-2.838 2.665-3.48-.082-2.512-6.65-3.244-6.716-3.246a.474.474 0 0 0-.487.412c-.02.197.053.447.51.523.636.106.843 1.31 1.044 2.475.276 1.604.59 3.42 2.179 3.686.08.013.159.008.237-.012Zm2.316-3.865c-.233.512-1.963 2.593-2.508 2.954-.799-.22-1.055-1.355-1.325-2.917-.129-.75-.26-1.514-.525-2.111 1.73.362 4.23 1.115 4.358 2.074Zm-5.7-2.734H54.3h.002Z" fill="#231F20"/><path d="M24.007 59.719c1.725-.453 3.307-1.37 4.282-2.345.818-.818.907-2.232.711-3.399.16.195.29.35.397.45 1.264 1.186 3.855 1.408 5.76 1.014 1.713-.354 2.922-1.156 3.401-2.258.649-1.493-1.263-5.91-2.295-6.878-.214-.201-.532-.334-.867-.421 1.34-.708 2.185-1.75 2.383-2.94.394-2.364-.788-4.274-3.328-5.378-1.776-.772-2.685.147-3.349.82-.392.396-.733.74-1.19.78-.266-.193-.792-1.24-1.079-1.813-.417-.83-.686-1.35-.955-1.58-1.59-1.356-3.76-1-5.502-.716a68.12 68.12 0 0 1-.398.065c-1.763.276-2.957 2.294-3.055 4.004-.042.719.106 1.342.416 1.825-.766.004-1.542.022-2.311.084-3.036.242-5.398 3.29-5.845 5.973-.404 2.426 2.641 4.652 4.362 5.304.486.185 1.084.08 1.663-.14-.886 1.808-.933 3.478-.148 5.082.719 1.469 1.985 2.393 3.66 2.672 1.075.18 2.21.078 3.287-.205Zm3.917-7.708c-.118.03-.22.1-.29.199-.221.31-.038.648.175 1.04.07.127.163.3.183.373.28 1.048.29 2.467-.348 3.106-1.423 1.422-4.281 2.71-6.774 2.295-1.393-.232-2.399-.963-2.991-2.174-.786-1.606-.575-3.254.663-5.186.11-.172.452-.475.703-.672l.086-.066a.456.456 0 0 0-.556-.724l-.09.07c-.85.644-2.231 1.407-2.817 1.185-1.52-.577-4.084-2.507-3.785-4.302.393-2.355 2.503-5.011 5.018-5.213 1.098-.088 2.229-.084 3.323-.08h.063c.066.024.134.045.204.065.232.065.604-.042.75-.215a.467.467 0 0 0 .068-.493.47.47 0 0 0-.433-.27h-.406c-.788-.374-.866-1.251-.836-1.773.077-1.334 1.033-2.958 2.287-3.155l.402-.066c1.638-.267 3.494-.571 4.763.51.143.123.483.8.732 1.295.728 1.452 1.208 2.34 1.868 2.32.85-.029 1.39-.574 1.866-1.056.657-.666 1.132-1.147 2.335-.624 1.5.652 3.2 1.942 2.792 4.39-.205 1.233-1.309 1.973-1.948 2.305-.417.215-1.214.656-1.247.674a.456.456 0 0 0 .224.856c.546-.004 1.475.103 1.731.343.955.895 2.496 4.896 2.082 5.848-.352.81-1.353 1.442-2.748 1.73-1.922.396-4.05.058-4.951-.786a6.782 6.782 0 0 1-.404-.472c-.615-.755-1.018-1.218-1.434-1.287a.628.628 0 0 0-.26.01Zm-6.849-10.148h.002-.002Zm-.262-.375h-.002.002ZM46.531 30.293c.758-.199 1.633-.785 2.684-1.789.888-.847.572-3.077.063-4.39a5.589 5.589 0 0 0-.412-.858c1.289-.496 2.28-1.545 2.566-2.811.317-1.405-.312-2.704-1.727-3.563-1.597-.97-2.984-1.456-4.239-1.485-.302-.007-.56.158-.79.418-.166-1.142-.733-2.145-1.665-2.912-1.537-1.265-3.91-1.711-5.645-1.062-1.084.406-1.775 1.193-1.946 2.215-.186 1.115.254 2.604.76 3.845-.817-.215-2.13-.499-3.294-.04-.765.3-1.38.967-1.734 1.876-.392 1.011-.38 2.162.032 3.004 1.16 2.37 2.97 2.483 4.775 2.437-.042.11-.09.222-.119.29-.08.19-.12.285-.137.382-.038.232-.084.453-.128.667-.133.643-.258 1.252-.18 2.027.135 1.33.61 2.341 1.37 2.928.64.493 1.447.667 2.398.517 1.21-.19 3.702-1.568 3.966-3.152.086-.514.04-.98-.053-1.373.192.265.37.58.551.902.483.859 1.031 1.831 2.058 1.984.267.04.547.021.846-.057Zm1.405-6.786c.177.244.347.563.491.936.566 1.46.55 3.028.158 3.401-1.212 1.157-2.142 1.697-2.765 1.604-.585-.088-.98-.788-1.397-1.53-.497-.88-1.059-1.88-2.135-2.058a.492.492 0 0 0-.484.186c-.19.254-.065.514.056.765.178.367.507 1.049.37 1.876-.165.984-2.15 2.233-3.21 2.4-.692.11-1.264-.004-1.697-.338-.705-.543-.943-1.549-1.019-2.297-.064-.636.042-1.153.165-1.751.045-.217.091-.44.132-.683.013-.037.05-.126.079-.192.203-.477.414-.97.172-1.325a.58.58 0 0 0-.51-.248c-2.139.07-3.395.014-4.338-1.913-.303-.62-.304-1.492 0-2.273.26-.669.692-1.15 1.217-1.358.998-.392 2.219-.064 2.948.133.531.144.852.23 1.087-.046a.515.515 0 0 0 .063-.558c-.789-1.732-1.143-3.164-.998-4.032.147-.88.824-1.308 1.365-1.51 1.426-.536 3.466-.142 4.746.912.776.639 1.635 1.802 1.317 3.71-.073.44.16.584.306.63.395.127.563-.218.711-.522.397-.813.604-1.058.709-1.116 1.084.033 2.313.475 3.756 1.352 1.074.652 1.54 1.569 1.31 2.582-.234 1.039-1.149 1.914-2.286 2.255-.316-.277-.662-.426-1.026-.434-.01 0-.71.009-.998.34a.547.547 0 0 0-.132.45c.06.38.382.808 1.571.687.09-.01.178-.02.266-.035ZM36.604 26v.003V26Zm-.116-7.384Zm.416-.189h-.002.002ZM47.675 49.006a.453.453 0 0 0 .33-.351c.017-.079.383-1.942-.25-3.43-.042-.101-.118-.33-.206-.594-.61-1.841-1.026-2.817-1.612-3.04-.603-.228-1.038-.044-1.297.15-1.203.903-1.045 3.871-1.042 3.9.174 2.175 3.673 3.31 3.822 3.358a.456.456 0 0 0 .255.007ZM45.31 42.41a.495.495 0 0 1 .304.035c.317.2.883 1.91 1.07 2.472.101.308.175.53.232.664.339.798.322 1.77.267 2.36-1.011-.416-2.588-1.286-2.675-2.372-.066-.828.114-2.672.68-3.098a.342.342 0 0 1 .122-.061Z" fill="#231F20"/></svg>