<svg width="81" height="85" fill="none" xmlns="http://www.w3.org/2000/svg"><path d="M-3.333 6.195s-19.608 7.78-27.979 35.272C-12.488 37.432-.946 7.552-.946 7.552s-4.26 15.605-4.281 23.96c-.02 8.353 9.276 29.075 8.967 35.845-.311 6.77 8.442-9.74 7.657-24.249-.785-14.51-9.574-33.36-9.574-33.36S18.115 35.57 32.999 42.165c14.885 6.594 21.832 14.923 21.832 14.923s-4.538-27.273-21.518-37.248C16.333 9.863.124 6.297.124 6.297" fill="#EE5252"/><path d="M-1.95 4.85s.766-21.08 23.867-38.173C24.417-14.234.127 6.646.127 6.646s13.278-9.24 21.144-12.057c7.865-2.816 30.502-.993 36.778-3.553 6.276-2.561-6.35 11.216-20.285 15.332-13.935 4.117-34.64 2.15-34.64 2.15" fill="#DE2A2A"/><path d="M-3.15 7.185-23.306-6.71l2.588-1.95 20.3 13.787-2.732 2.057Z" fill="#DE2A2A"/></svg>