<svg width="136" height="135" fill="none" xmlns="http://www.w3.org/2000/svg"><path d="M77.672 90.251s20.16 4.742 42.334-12.697C102.582 70.236 76.512 87.82 76.512 87.82s12.192-10.175 16.9-16.892c4.704-6.716 8.852-28.622 12.901-33.9 4.052-5.277-12.266 3.103-19.78 15.229-7.513 12.125-11.017 32.24-11.017 32.24s1.376-29.94-6.909-43.607c-8.285-13.667-9.204-24.275-9.204-24.275s-11.656 24.51-3.582 42.076C63.894 76.257 74.946 88.23 74.946 88.23" fill="#AAD15D"/><path d="M75.805 90.559S63.352 107.105 35.153 107.9C43.856 91.124 75.14 87.946 75.14 87.946s-15.88-.013-23.796-2.16C43.428 83.637 26.222 69.46 19.73 67.998c-6.491-1.461 11.411-5.467 24.944-.96 13.533 4.51 29.103 17.717 29.103 17.717" fill="#90B74B"/><path d="m78.08 89.352 8.433 22.504-3.18.117-8.607-22.498 3.355-.123Z" fill="#90B74B"/></svg>