<svg width="78" height="74" fill="none" xmlns="http://www.w3.org/2000/svg"><path d="M60.355 5.96c.655-.79 1.414-1.526 2.352-1.94.938-.413 2.086-.457 2.953.09.88.555 1.325 1.604 1.506 2.629.305 1.725-.13 3.736-1.593 4.7 1.507.064 3.091.151 4.368.956 1.276.804 2.07 2.585 1.28 3.871-.915 1.493-3.09 1.356-4.812 1.033 1.548 1.338 2.269 3.563 1.8 5.555-.092.388-.235.783-.528 1.055-.405.376-1.006.438-1.56.44-1.33.005-2.706-.245-3.791-1.014-1.086-.769-1.812-2.137-1.545-3.44-1.705.484-3.483.711-5.255.672-1.33-.029-2.787-.276-3.642-1.294-.697-.83-.819-2.098-.292-3.046.526-.948 1.666-1.515 2.74-1.362-.555-1.228-2.183-1.556-3.024-2.609-.964-1.208-.631-2.958-.25-4.456.265-1.041.629-2.209 1.597-2.674 1.025-.492 2.253.05 3.133.77.573.47 1.6 2.32 2.213 2.457.977.218 1.844-1.785 2.35-2.393ZM46.392 10.43c1.479 1.426 1.266 4.198-.413 5.381 1.511-.796 3.612-.37 4.555 1.054.944 1.424.403 3.658-1.158 4.352-1.382.614-2.993 0-4.288-.78 1.233 1.242.813 3.318.165 4.942-.251.628-.536 1.265-1.026 1.73-.49.465-1.236.722-1.86.461-.634-.266-.959-.957-1.228-1.591-.437-1.032-.882-2.09-.945-3.21-.645 1.784-3.333 2.373-4.665 1.022-1.332-1.351-.704-4.03 1.09-4.65-.92-.284-1.858-.577-2.635-1.143-.778-.566-1.38-1.464-1.336-2.425.196-4.224 5.535-1.35 7.323-2.969.983-.89 1.159-2.163 2.512-2.76 1.262-.556 2.895-.392 3.909.586ZM53.782 31.625c.82-.247 1.715-.377 2.528-.106a2.767 2.767 0 0 1 1.832 2.274 2.767 2.767 0 0 1-1.304 2.613c1.865-.447 3.982-.166 5.432 1.09 1.45 1.256 1.996 3.582.944 5.185-1.053 1.603-3.756 1.888-4.893.343.691 1.56 1.344 3.206 1.272 4.911-.071 1.705-1.059 3.487-2.699 3.96-1.365.396-2.822-.178-4.034-.92-1.06-.65-2.065-1.472-2.617-2.586-.552-1.113-.556-2.565.25-3.51-1.882 1.642-4.553 2.338-6.998 1.823-.352-.074-.713-.18-.977-.423-.234-.216-.367-.517-.477-.815-.54-1.457-.627-3.264.428-4.405.669-.723 1.658-1.034 2.59-1.35.225-.076.462-.163.605-.352.33-.438-.065-1.069-.528-1.36-.464-.293-1.043-.482-1.306-.963-.233-.424-.144-.946-.037-1.417.35-1.537 1.22-3.355 2.795-3.345.878.005 1.408.571 1.971 1.15.866.89.41.973 1.439.436 1.34-.7 2.244-1.768 3.785-2.232ZM51.027 50.766c.508.436.785 1.096.866 1.76.09.75-.128 1.63-.805 1.965a4.792 4.792 0 0 1 2.572-.966c.431-.028.875.004 1.27.178.982.43 1.42 1.72 1.04 2.722-.382 1.002-1.438 1.658-2.508 1.72-1.07.063-2.126-.401-2.933-1.106-.045.681-.094 1.377-.361 2.006-.267.628-.797 1.187-1.47 1.299-.783.13-1.58-.403-1.906-1.126-.326-.723-.243-1.58.062-2.313-.758-.023-1.516.159-2.27.088-.755-.071-1.566-.502-1.72-1.245-.145-.702.374-1.406 1.022-1.714.647-.308 1.392-.314 2.11-.314-.586-.367-1.184-.745-1.61-1.29-.426-.544-.653-1.296-.4-1.94.355-.905 1.542-1.246 2.472-.96.797.245 1.303.996 2.12 1.072.961.09 1.509-.641 2.449.164ZM26.724 43.681c1.095.24 1.906 1.258 2.138 2.355.232 1.096-.032 2.245-.48 3.273.845-.628 2.03-.675 3.011-.291.98.383 1.774 1.145 2.384 2.003.63.885 1.093 2.072.59 3.035-.47.9-1.62 1.233-2.634 1.158-1.013-.075-1.978-.46-2.984-.608a6.38 6.38 0 0 1 1.949 4.42c.014.632-.08 1.298-.453 1.81-.587.807-1.699 1.024-2.697 1.008-1.314-.022-2.69-.38-3.605-1.323-.914-.943-1.186-2.571-.344-3.58a10.294 10.294 0 0 1-4.76 2.232c-1.54.279-3.524-.072-3.988-1.567-.46-1.483.918-2.861 2.204-3.733.746-.507 1.588-1.005 2.486-.918-.914-.387-1.942-.374-2.911-.59-.969-.217-1.986-.793-2.197-1.763-.17-.78.253-1.592.861-2.108.609-.515 1.378-.793 2.13-1.06 1.006-.36 1.973-.651 3.044-.702.69-.033 1.414.187 2.042-.197 1.546-.948 1.766-3.387 4.214-2.854ZM25.462 37.734c-.13 1.035-.516 2.1-1.343 2.734-.828.634-2.17.655-2.817-.162.354.711.224 1.57-.047 2.317-.386 1.058-1.103 2.064-2.154 2.469-1.052.404-2.443.004-2.868-1.039-.386-.945.088-2.001.553-2.91-.554 1.373-2.073 2.312-3.54 2.117-1.467-.195-2.71-1.561-2.69-3.041.02-1.48 1.368-2.837 2.847-2.796-1.04.267-2.242-.033-2.935-.854-.693-.82-.753-2.154-.036-2.954.685-.765 1.836-.9 2.857-.791 1.329.142 2.567.694 3.304 1.84.196-.914.014-3.129 1.474-3.217.839-.05 1.172.871 1.525 1.485 1.445 2.512 3.068 3.865 5.87 4.802Z" fill="#F68F8D"/><path d="M10.606 15.469c5.464-3.721 12.342-6.293 18.664-4.361a337.242 337.242 0 0 1-17.089 6.538l11.81 4.42c1.59.595 3.207 1.206 4.544 2.25 1.166.91 2.07 2.114 3.193 3.08 3.305 2.842 8.214 3.26 12.367 1.931 4.152-1.329 7.654-4.169 10.705-7.283a11.883 11.883 0 0 1-1.338 5.019c4.838-1.08 10.103-.09 14.218 2.676l-25.398 2.085c-1.064.088-2.467.552-2.358 1.614.074.726.847 1.123 1.422 1.573a3.933 3.933 0 0 1 1.484 3.09 80.25 80.25 0 0 1-15.912-8.023 17.273 17.273 0 0 0 3.091 7.494c1.412 1.941 3.222 3.574 4.564 5.564 1.122 1.664 1.902 3.556 3.173 5.108 1.908 2.329 4.847 3.804 6.22 6.483a6.913 6.913 0 0 1 .552 4.769c-.058.234-.147.488-.36.603-.161.087-.358.07-.54.035-1.227-.243-2.15-1.227-2.987-2.158L29.332 45.39c-.823-.917-1.657-1.85-2.191-2.96-.806-1.672-.872-3.617-1.613-5.318-.62-1.421-1.698-2.648-2.05-4.157-.436-1.873.308-3.947-.463-5.708-.99-2.262-3.86-2.848-6.3-3.218A111.012 111.012 0 0 1-9.196 16.79c-.668-.277-1.36-.581-1.818-1.14-1.029-1.255-.446-3.144.354-4.556.77-1.36 1.221-4.116 2.882-3.659 2.046.564 4.123 2.034 6.183 2.76 2.155.761 4.347 1.42 6.475 2.257.582.229 5.676 3.05 5.726 3.016Z" fill="#4E3B31"/><path d="M17.034 12.45a6.322 6.322 0 0 0 1.275-1.971c.415-1.02 1.291-3.893.491-4.747-.922.77-1.51 2.035-1.799 3.187-.127.509.147 3.412.033 3.531ZM26.934 22.242c-.23.243-.444.555-.392.886.028.18.132.338.214.502.255.507.302 1.091.495 1.625a3.19 3.19 0 0 0 2.33 2.005c-.622-.124 1.243-5.286 1.097-5.715-.509-1.492-3.035-.048-3.744.697ZM36.752 40.55c1.515-.156 3.045-5.71.294-4.95-1.937.536-2.979 5.23-.294 4.95Z" fill="#BED665"/><path d="M17.3 45.981c-.83-.302-1.4-.826-1.62-1.494-.116-.352-.063-.83.058-1.296-1.664.609-4.163.904-5.152-.37-.73-.94-.303-2.82.531-4.094.276-.422.58-.75.896-.975-.629-.438-1.19-.936-1.3-1.163-.626-1.287.576-2.982 1.68-3.583.796-.434 2.401-.832 3.318-.313.374.212.572.72.747 1.167l.091.229c.186-.325.244-.689.304-1.07.141-.881.3-1.88 2.016-2.355.639-.176 1.124-.13 1.482.143.626.475.628 1.457.63 2.497.002.953.004 1.939.488 2.35.604.512 1.326.8 2.025 1.077 1.23.488 2.5.993 2.199 2.723-.397 2.276-2.432 2.185-3.526 2.137-.228-.01-.525-.024-.68-.003.05.084.146.203.21.283.22.274.47.586.456.969-.049 1.26-.886 2.823-2.203 3.255-.659.217-1.567.208-2.37-.023a4.109 4.109 0 0 1-.28-.09Zm-.63-3.212c-.211.556-.364 1.198-.27 1.482.219.668.964.971 1.388 1.093.655.188 1.41.2 1.925.032.99-.326 1.645-1.585 1.683-2.565.003-.1-.173-.32-.29-.466-.24-.299-.64-.797-.24-1.26.258-.299.71-.279 1.334-.25 1.396.062 2.485-.01 2.746-1.51.188-1.077-.43-1.373-1.732-1.89-.72-.286-1.537-.61-2.236-1.204-.75-.637-.753-1.853-.755-2.925-.002-.81-.003-1.647-.33-1.896-.157-.119-.433-.123-.823-.016-1.246.345-1.34.932-1.47 1.745-.085.538-.182 1.148-.65 1.69-.196.225-.406.228-.514.21-.357-.062-.5-.433-.684-.903-.103-.264-.275-.705-.414-.784-.607-.346-1.914-.046-2.584.32-.814.443-1.765 1.754-1.36 2.586.13.21.853.76 1.464 1.14.182-.023.363-.012.542.033.409.079.633.19.747.37.07.109.09.237.059.36a.51.51 0 0 1-.458.383c-.236.024-.605-.117-1.006-.336-.327.128-.675.451-.991.934-.734 1.12-1.004 2.652-.567 3.215.665.856 2.8.712 4.398.089a5.9 5.9 0 0 0 .49-.216c.107-.246.21-.446.283-.565.202-.332.516-.72.864-.694a.46.46 0 0 1 .391.293c.12.288.16.864-.916 1.49l-.025.015ZM61.133 12.113a.383.383 0 0 1-.241-.266c-.072-.289.12-.413.583-.712.14-.091.49-.312.702-.405.35-.153.52.03.576.115.196.298-.077.553-.24.707-.213.2-.656.542-1.222.583a.383.383 0 0 1-.158-.022Zm1.121-.838h.002-.002ZM58.507 16.919a.379.379 0 0 1-.246-.404c.018-.148.029-.247.036-.317.023-.223.033-.262.125-.473.025-.059.059-.136.104-.247a.379.379 0 0 1 .7.289c-.048.116-.083.198-.11.259-.053.122-.053.122-.066.248-.007.075-.018.18-.037.336a.378.378 0 0 1-.506.309ZM54.815 39.545a.379.379 0 0 1-.016-.706l.299-.124a.38.38 0 0 1 .393.064l.172.148.366.151a.379.379 0 1 1-.289.7l-.422-.174a.372.372 0 0 1-.104-.064l-.042-.036-.083.035a.376.376 0 0 1-.274.006ZM16.86 12.765c-.35-.128-.567-.628-.789-1.215-.025-.065-.043-.116-.056-.143-1.037-2.006-.209-3.212 1.075-4.697.202-.234.724-.657 1.145-.974.978-.738 1.099-.715 1.253-.685a.404.404 0 0 1 .297.255c.081.236-.082.425-.17.527-.35.404-.446 1.56-.54 2.679-.164 1.951-.349 4.163-1.993 4.282a.527.527 0 0 1-.222-.03Zm1.707-6.33c-.386.298-.77.616-.904.77-1.291 1.494-1.774 2.31-.973 3.858.023.046.046.103.09.22.145.386.26.635.34.744.916-.18 1.066-1.982 1.2-3.578.063-.75.12-1.444.247-2.013ZM52.882 36.916a.379.379 0 0 1-.248-.328l-.03-.409a.38.38 0 0 1 .091-.275l.662-.766a.377.377 0 0 1 .142-.102l.597-.248a.378.378 0 1 1 .291.7l-.515.213-.501.58.018.252a.379.379 0 0 1-.508.383Z" fill="#231F20"/><path d="M16.453 59.77a2.936 2.936 0 0 1-.185-.076c-.729-.324-1.552-1.074-1.334-2.807.127-1.007 1.16-2.528 2.264-3.362a11.678 11.678 0 0 1-.851-.362c-1.188-.763-1.268-3.411-.976-4.558.165-.648.702-1.216 1.552-1.642 1.275-.64 2.978-.812 3.957-.413.183.076.455.284.919.645.297.231.779.606.976.705.456-.162.78-.897 1.094-1.608.299-.677.607-1.376 1.1-1.758 1.22-.947 2.175-.688 2.763-.303 1.479.969 2.07 3.62 1.79 5.072.224.092.73.19 1.15.272 1.728.338 4.34.848 4.492 2.946.148 2.047-1.255 3.784-3.574 4.426-.31.085-.711.121-1.116.073.293.573.443 1.178.437 1.786-.012 1.172-.594 2.269-1.682 3.172-.672.557-1.583.771-2.564.602-1.23-.212-2.442-1.007-3.02-1.978-.21-.356-.693-1.252-.809-2.192-1.74 1.132-4.593 2.012-6.383 1.36Zm1.665-5.939c-1.03.515-2.316 2.22-2.433 3.151-.13 1.035.162 1.696.891 2.02 1.84.824 5.628-.666 6.778-1.996.257-.297.496-.154.562-.103.107.081.253.266.035.592-.328.489-.372.652-.376.699.042.57.312 1.331.722 2.022.463.779 1.49 1.444 2.497 1.618.537.093 1.312.092 1.951-.439.912-.756 1.399-1.654 1.409-2.596.008-.827-.354-1.659-1.03-2.385a8.652 8.652 0 0 1-.15-.13c-.355-.32-.451-.406-.44-.608a.379.379 0 0 1 .232-.327c.22-.093.38.045.448.104.154.133.297.27.431.411.108.092.21.172.274.208.428.244 1.063.257 1.469.145 1.556-.43 3.167-1.613 3.02-3.641-.11-1.52-2.379-1.964-3.88-2.257-1.012-.198-1.506-.307-1.709-.627a.528.528 0 0 1-.066-.416c.323-1.272-.327-3.685-1.436-4.412-.562-.368-1.178-.28-1.884.268-.341.265-.61.876-.871 1.466-.407.92-.827 1.873-1.697 2.062-.3.066-.62-.158-1.532-.867-.27-.21-.639-.498-.742-.543-.776-.32-2.266-.144-3.329.39-.639.32-1.05.729-1.157 1.152-.274 1.073-.082 3.263.65 3.734.177.102.76.329 1.327.502.095-.034.189-.06.281-.077.07-.013.153-.034.242-.057.4-.102.814-.207 1.106.003a.556.556 0 0 1 .228.42.589.589 0 0 1-.29.568c-.324.193-.928.111-1.53-.053Zm11.37-4.37-.001.002v-.001ZM59.695 15.358a1.658 1.658 0 0 1-.513-.31c-.315-.272-.4-.639-.23-.98.333-.666 1.757-1.194 2.094-1.12.296.063.5.3.548.63.078.534-.27 1.366-.893 1.707a1.192 1.192 0 0 1-1.006.073Zm-.072-.937c.004.002.017.023.054.055.366.316.605.199.753.083.304-.238.434-.667.42-.848-.383.091-1.183.498-1.227.71Zm1.343-1.104h.001-.001Z" fill="#231F20"/><path d="M55.301 21.774a6.127 6.127 0 0 1-1.286-.68c-.11-.072-.232-.147-.358-.226-.598-.37-1.343-.832-1.642-1.551-.689-1.657 0-3.624 1.602-4.576.113-.067.278-.11.582-.185l.208-.052a.966.966 0 0 1-.196-.121l-.087-.075c-1.15-.992-3.289-2.838-2.47-4.603.34-.732 2.907-4.189 4.294-4.092 1.1.076 2.393 1.441 2.76 1.913.169.218.248.552.323.88.216-.316.403-.661.598-1.02.567-1.048 1.21-2.234 2.77-2.746 2.062-.678 3.094.307 3.525.955 1.069 1.604.785 4.424-.607 6.034-.134.155-.16.239-.165.263.166.227 1.41.36 2.156.44 1.85.199 3.945.424 4.05 1.872.118 1.625-1.543 3.1-2.262 3.66-.2.155-.532.17-1.203.183-.189.005-.45.01-.663.026.084.073.176.147.248.204.28.224.571.456.71.725.785 1.517-.068 4.002-1.316 4.971-2.24 1.74-5.396-.439-7.078-1.893-.603-.522-.557-.912-.433-1.367.038-.141.077-.286.09-.469a.67.67 0 0 1 .016-.104c-.452.17-.803.488-1.169.82-.71.647-1.496 1.361-2.997.814Zm-.61-7.977c.034.02.121.063.185.096.46.228.792.393.7.755-.09.353-.512.475-1.195.643a4.095 4.095 0 0 0-.388.107c-1.248.743-1.815 2.339-1.279 3.628.206.494.81.869 1.342 1.199.134.083.263.162.38.24 1.892 1.264 2.505.707 3.353-.064.548-.497 1.168-1.062 2.172-1.134a.436.436 0 0 1 .404.188c.152.23.027.472-.073.667-.028.056-.075.147-.086.186-.019.252-.072.447-.114.603-.083.306-.094.345.197.597 1.213 1.049 4.237 3.33 6.118 1.868.994-.772 1.71-2.862 1.109-4.025-.066-.126-.313-.323-.511-.482-.334-.266-.649-.518-.736-.836a.475.475 0 0 1 .076-.414c.213-.286.672-.309 1.531-.328.264-.005.657-.014.783-.047.517-.405 2.036-1.713 1.944-2.984-.06-.818-1.976-1.023-3.376-1.174-1.468-.157-2.528-.27-2.784-.92-.123-.312-.022-.659.3-1.032l.287.248-.286-.248c1.15-1.33 1.416-3.817.55-5.118-.547-.821-1.467-1.048-2.66-.656-1.273.418-1.791 1.374-2.34 2.387-.286.529-.582 1.075-.992 1.55-.196.226-.412.201-.496.18-.328-.08-.407-.43-.507-.872-.044-.195-.118-.522-.19-.613-.492-.635-1.565-1.577-2.214-1.623-.737-.051-3.108 2.696-3.554 3.656-.578 1.246 1.35 2.91 2.277 3.71l.073.063Zm5.516 6.5v.002-.002Zm-5.504-6.49.003.003-.003-.002ZM65.15 11.9h.002-.002ZM55.306 42.074a.377.377 0 0 1-.22-.211l-.09-.216-1.026-.888a.379.379 0 0 1 .495-.573l1.095.947c.044.038.08.087.102.141l.124.299a.379.379 0 0 1-.48.5Z" fill="#231F20"/><path d="M60.048 12.704a.376.376 0 0 1-.117-.069l-.22-.19a.38.38 0 0 1-.127-.333l.065-.517a.38.38 0 0 1 .089-.2l.284-.329a.379.379 0 0 1 .573.495l-.21.242-.025.203.066.056a.379.379 0 0 1-.378.643ZM54.07 37.753a.379.379 0 0 1-.118-.07l-.22-.189a.379.379 0 0 1-.038-.534l.19-.219a.379.379 0 0 1 .206-.122l.673-.147.566-.235a.378.378 0 1 1 .29.7l-.597.248a.367.367 0 0 1-.064.02l-.395.086a.378.378 0 0 1-.493.462ZM62.669 16.31a.377.377 0 0 1-.22-.211l-.09-.216-.324-.28-.366-.151a.38.38 0 0 1 .289-.7l.423.174a.378.378 0 0 1 .103.064l.438.378c.044.039.08.087.102.141l.124.299a.379.379 0 0 1-.48.501ZM50.84 37.064a.377.377 0 0 1-.22-.21l-.124-.3a.377.377 0 0 1-.026-.192l.065-.517a.378.378 0 0 1 .09-.2l.189-.22a.378.378 0 1 1 .572.496l-.114.132-.038.304.085.206a.379.379 0 0 1-.479.5ZM48.952 42.124a.377.377 0 0 1 .029-.72c.153-.043.244-.074.31-.097.217-.074.296-.076.532-.01l.168.045a.378.378 0 1 1-.187.734c-.078-.02-.137-.036-.183-.05l-.052-.014-.032.011a5.463 5.463 0 0 1-.355.11.373.373 0 0 1-.23-.009ZM49.49 61.113a1.728 1.728 0 0 1-.25-.114c-.723-.402-1.34-1.364-1.44-1.976a6.642 6.642 0 0 1-.097-1.153c-.471.171-1.02.337-1.557.402-1.49.18-2.107-.514-2.362-1.128-.387-.93.001-2.082 1.154-3.424-.408-.403-.748-.894-.782-1.099-.238-1.449-.427-2.593 1.63-3.091 1.067-.258 1.915-.233 2.52.072.324.163.471.556.59.93.01-.024.02-.048.028-.072.108-.276.23-.59.565-.732.273-.117.602-.084 1.064.107.717.295 1.74 1.059 1.287 2.957.49-.077 1.084.034 1.693.341 1.063.538 1.952 1.616 1.54 2.812-.18.52-.456.86-.82 1.014-.571.24-1.176-.046-1.619-.255.19.555.232.717.223.844-.08 1.142-1.286 3.074-2.46 3.562a1.226 1.226 0 0 1-.908.003Zm-1.028-3.327c-.01.34.017.704.085 1.114.062.376.535 1.145 1.061 1.437.29.16.447.095.499.073.82-.34 1.906-1.92 1.992-2.887-.025-.126-.166-.53-.243-.752-.184-.53-.218-.627-.065-.802.309-.357.763-.141 1.163.048.332.157.745.353 1.005.243.158-.066.291-.255.397-.563.264-.764-.395-1.499-1.166-1.888-.712-.36-1.426-.374-1.661-.033-.216.314-.452.234-.543.185-.201-.109-.246-.305-.133-.582.6-1.479.402-2.436-.59-2.844-.368-.153-.473-.113-.477-.11-.042.017-.114.2-.156.31-.084.215-.188.483-.399.726-.183.212-.381.207-.483.186-.318-.066-.421-.394-.539-.773-.053-.173-.165-.534-.253-.601-.427-.216-1.118-.219-1.992-.007-1.364.33-1.302.767-1.066 2.203.08.167.396.544.678.812.238-.113.503-.178.713-.068.083.044.345.219.234.655-.076.298-.3.475-.587.462a.933.933 0 0 1-.403-.137l-.012.01c-.958 1.111-1.307 2.003-1.038 2.65.146.35.467.801 1.572.667.784-.095 1.64-.452 2.153-.665a.402.402 0 0 1 .488.113c.188.244.01.478-.095.618-.038.05-.113.148-.14.2Zm0-.034Zm-2.93-3.56-.003.002.002-.002ZM51.814 40.981c-.984-.359-1.269-1.286-1.04-2.025.226-.724.98-1.362 2.102-1.051.51.14.856.494.975.996.146.615-.092 1.353-.578 1.793a1.393 1.393 0 0 1-1.424.3l-.035-.013Zm.86-2.346c-.684-.19-1.061.176-1.176.546-.124.4.01.892.598 1.096a.632.632 0 0 0 .669-.144c.281-.256.432-.71.35-1.057-.055-.23-.2-.376-.44-.441Z" fill="#231F20"/><path d="M43.453 59.2c-.397-.145-1.013-.512-2.037-1.208l-.105-.072c-2.276-1.388-4.263-3.25-6.072-5.053-3.792-3.785-8.019-8.257-10.176-13.442-.793-1.909-1.061-3.927-1.32-5.878-.37-2.789-.72-5.422-2.492-7.704-1.348-1.735-5.779-2.82-8.16-3.403a94.47 94.47 0 0 1-.829-.206c-1.522-.387-3.11-.739-4.79-1.11-4.997-1.106-10.165-2.25-14.367-4.514-.236-.128-.624-.28-1.073-.458-1.675-.662-3.968-1.569-4.085-3.18-.052-.727.45-1.922 1.061-3.293.184-.412.342-.767.402-.955.016-.05.064-.232.115-.426.557-2.116.635-2.242.985-2.25.41-.011.84.112 1.207.345C-6.386 7.598-4.547 8.477-2.6 9.408c.824.394 1.676.801 2.543 1.24.806.407 1.585.841 2.339 1.261 1.917 1.068 3.727 2.077 5.867 2.622.79.201 2.492-.48 3.618-.932.475-.19.885-.355 1.204-.454 2.698-.832 5.718-1.347 9.506-1.621l.557-.042c1.35-.102 2.88-.218 4.214-.094.082.008.813.087.98.5a.468.468 0 0 1-.087.488c-.518.599-2.049.805-3.573.965-.205.022-.375.04-.494.056-2.427.34-11.415 2.507-12.414 3.662-.029.033-.062.08-.053.105.026.073.25.464 2.17.998 1.22.341 2.646.61 3.686.806.529.1.947.178 1.178.237 2.294.584 4.414 2.423 6.467 4.202 1.347 1.167 2.62 2.27 3.889 2.99 6.378 3.614 12.87 4.228 18.772 1.773.808-.336 2.19-1.688 3.525-2.996 2.085-2.042 3.409-3.29 4.3-3.228.132.01.26.094.322.211.128.248.039.395-.541 1.353-.393.647-1.584 2.613-1.436 3.037 0 .001 0 .002.002.003.081-.032.194-.072.345-.1 3.247-.601 5.908-.47 8.627.426.829.273 2.389.88 3.543 1.877.049.043.132.102.22.164.342.242.665.47.651.811a.497.497 0 0 1-.255.409c-.155.092-.158.094-3.06-.186-1.952-.189-4.626-.447-5.152-.41-1.78.13-3.413.548-5.142.99-1.036.265-2.107.539-3.203.742-1.01.187-2.058.335-3.168.493-2.545.362-5.172.735-7.385 1.597.428.837 2.286 3.319 2.674 3.671l.037.019c.107.054.285.144.328.36a.417.417 0 0 1-.096.354c-.301.347-.79.219-3.256-1.26-.147-.088-.252-.151-.295-.174-3.034-1.635-6.256-3.415-9.366-5.603l-.122-.087c-.361-.26-1.46-1.048-1.967-.924-.056.014-.12.043-.176.153-.768 1.52.482 4.33 1.908 6.452 1.263 1.88 2.35 3.837 3.402 5.73 1.885 3.391 3.666 6.594 6.375 9.404 1.204 1.249 2.118 2.723 3.001 4.148.445.718.904 1.459 1.386 2.145l.038.051c.23.317.661.907.312 1.31-.143.165-.322.222-.692.088Zm-25.49-36.153c1.634.596 3.128 1.355 3.886 2.332 1.898 2.443 2.277 5.303 2.645 8.068.252 1.903.513 3.87 1.269 5.687 2.103 5.057 6.27 9.463 10.011 13.196 1.775 1.772 3.723 3.597 5.933 4.945l.135.09c.645.439 1.081.71 1.375.878l-.041-.058c-.495-.703-.96-1.454-1.41-2.18-.863-1.392-1.755-2.832-2.904-4.023-2.777-2.88-4.665-6.277-6.49-9.561-1.045-1.879-2.125-3.821-3.37-5.675-.75-1.117-3.107-4.937-1.955-7.217.144-.285.377-.474.672-.546.742-.182 1.683.394 2.589 1.043l.116.083c3.076 2.165 6.276 3.932 9.29 5.556.046.026.162.095.324.192.5.3.905.534 1.232.716a40.136 40.136 0 0 1-.807-1.078c-1.405-1.944-1.36-2.222-1.334-2.388a.426.426 0 0 1 .256-.33c2.36-.98 5.154-1.378 7.855-1.761 1.102-.157 2.143-.304 3.137-.488 1.072-.199 2.13-.47 3.153-.731 1.686-.431 3.428-.877 5.275-1.01.547-.04 2.623.153 5.28.41.7.067 1.414.136 1.942.183a1.587 1.587 0 0 1-.067-.054c-.77-.667-1.967-1.297-3.283-1.73-2.592-.855-5.138-.979-8.253-.402-.106.02-.176.048-.243.076-.355.144-.584.072-.846-.266-.46-.592.082-1.725 1.392-3.887l.03-.05c-.819.578-1.998 1.733-2.933 2.648-1.45 1.42-2.821 2.762-3.764 3.154-6.126 2.548-12.847 1.92-19.436-1.814-1.335-.757-2.635-1.883-4.012-3.076-1.985-1.721-4.039-3.5-6.157-4.04-.209-.053-.616-.13-1.132-.227-3.816-.72-6.092-1.327-6.43-2.299-.059-.166-.11-.498.195-.85 1.33-1.539 11.187-3.68 12.881-3.916.125-.018.305-.037.52-.06.575-.06 1.884-.197 2.617-.452-1.255-.107-2.72.004-4.015.101l-.559.042c-3.729.27-6.696.776-9.337 1.59-.29.09-.687.249-1.146.433-1.361.546-3.056 1.225-4.087.963-2.234-.569-4.087-1.602-6.049-2.694a65.184 65.184 0 0 0-2.311-1.247c-.86-.435-1.708-.84-2.529-1.233-1.968-.94-3.827-1.83-5.762-3.058a1.485 1.485 0 0 0-.575-.216c-.14.387-.379 1.296-.479 1.674-.068.26-.105.398-.125.463-.073.228-.231.584-.432 1.034-.39.872-1.04 2.333-.997 2.929.082 1.137 2.204 1.976 3.607 2.53.472.187.878.348 1.154.496 4.11 2.215 9.225 3.347 14.172 4.442 1.687.373 3.28.725 4.813 1.116.245.062.521.13.822.203 1.316.323 3.072.753 4.691 1.344ZM57.906 14.296a.38.38 0 0 1-.118-.07l-1.203-1.04a.38.38 0 0 1-.039-.535l.19-.219a.379.379 0 0 1 .623.421l.925.8a.379.379 0 0 1-.378.643Z" fill="#231F20"/><path d="M52.21 43.221a.378.378 0 0 1-.22-.21l-.124-.299a.377.377 0 0 1-.017-.239l.159-.627a.379.379 0 1 1 .734.187l-.128.505.075.182a.379.379 0 0 1-.479.501ZM63.993 14.778a.375.375 0 0 1-.118-.07 6.683 6.683 0 0 1-.387-.36c-.02-.018-.033-.033-.046-.045a11.121 11.121 0 0 1-.273-.068.38.38 0 0 1 .187-.733l.159.04c.26.061.326.09.507.27.065.065.162.162.349.323a.379.379 0 0 1-.378.643ZM49.516 38.596a.38.38 0 0 1-.118-.07l-.183-.158-.454-.23-.274-.07a.379.379 0 0 1-.154-.08l-.218-.189a.379.379 0 0 1 .495-.573l.151.131.227.058a.367.367 0 0 1 .077.029l.533.27a.372.372 0 0 1 .077.05l.218.19a.379.379 0 0 1-.377.642ZM27.852 26.403c-.147-.053-.288-.176-.442-.339-.429-.452-2-2.551-1.934-3.08.26-2.07 5.744-2.17 5.799-2.166.2.011.37.178.37.378.002.164-.078.365-.462.393-.533.038-.797 1.018-1.052 1.965-.352 1.303-.75 2.78-2.084 2.878a.46.46 0 0 1-.195-.029Zm-1.616-3.371c.153.44 1.422 2.294 1.845 2.633.677-.12.976-1.038 1.318-2.308.165-.61.332-1.23.597-1.704-1.457.166-3.582.596-3.76 1.379Zm4.92-1.82Z" fill="#231F20"/><path d="M53.59 51.454c-1.39-.507-2.627-1.387-3.358-2.267-.612-.738-.577-1.914-.326-2.863a4.183 4.183 0 0 1-.362.342c-1.136.882-3.294.866-4.838.395-1.388-.425-2.325-1.18-2.636-2.128-.422-1.283 1.497-4.787 2.425-5.507.192-.15.465-.235.749-.281-1.052-.688-1.67-1.614-1.743-2.613-.144-1.983.98-3.47 3.163-4.187 1.527-.502 2.207.328 2.704.934.293.358.549.67.924.737.234-.14.749-.965 1.03-1.415.409-.654.671-1.064.911-1.233 1.419-.997 3.183-.537 4.601-.168l.324.084c1.435.364 2.267 2.123 2.217 3.544-.021.597-.191 1.1-.484 1.476a25.86 25.86 0 0 1 1.903.247c2.49.433 4.207 3.133 4.37 5.384.148 2.036-2.54 3.641-4.012 4.048-.416.115-.902-.017-1.363-.243.593 1.561.503 2.945-.269 4.21-.706 1.158-1.824 1.824-3.23 1.926-.901.066-1.83-.105-2.7-.422Zm-2.644-6.67a.425.425 0 0 1 .225.186c.159.273-.02.54-.225.847-.067.099-.158.235-.18.294-.312.844-.43 2.015.05 2.593 1.066 1.285 3.328 2.569 5.42 2.417 1.168-.085 2.056-.612 2.638-1.566.773-1.267.726-2.645-.149-4.337-.077-.15-.337-.427-.529-.609a10.954 10.954 0 0 1-.066-.061.379.379 0 0 1 .515-.556l.07.065c.652.598 1.735 1.334 2.236 1.196 1.3-.36 3.567-1.758 3.458-3.263-.143-1.977-1.683-4.334-3.745-4.694-.9-.157-1.836-.24-2.74-.322l-.053-.005a2.235 2.235 0 0 1-.172.039c-.197.035-.496-.082-.604-.236a.387.387 0 0 1-.018-.413.39.39 0 0 1 .378-.188l.336.03c.68-.248.812-.967.827-1.4.039-1.108-.626-2.524-1.647-2.783a72.238 72.238 0 0 1-.328-.085c-1.332-.348-2.843-.741-3.974.054-.128.091-.461.625-.704 1.015-.714 1.143-1.179 1.84-1.723 1.772-.7-.088-1.104-.58-1.46-1.015-.492-.6-.847-1.035-1.882-.695-1.288.423-2.793 1.358-2.644 3.413.075 1.034.93 1.73 1.433 2.054.328.21.952.635.978.653a.379.379 0 0 1-.25.69c-.452-.046-1.228-.03-1.458.15-.857.666-2.439 3.854-2.17 4.672.229.697 1.008 1.295 2.138 1.64 1.557.476 3.342.36 4.152-.269a5.62 5.62 0 0 0 .37-.358c.566-.577.934-.928 1.284-.954a.52.52 0 0 1 .213.029Zm6.44-7.859h-.002.002Zm.245-.29.002.001h-.002ZM37.241 25.408c-.61-.223-1.288-.774-2.08-1.684-.669-.769-.236-2.587.286-3.633.127-.256.263-.482.406-.677-1.027-.51-1.765-1.452-1.904-2.52-.154-1.186.466-2.21 1.701-2.811 1.394-.679 2.577-.974 3.617-.902.25.018.45.174.62.407.225-.931.77-1.716 1.6-2.278 1.367-.928 3.362-1.114 4.746-.444.865.419 1.375 1.122 1.438 1.98.068.935-.41 2.131-.923 3.118.69-.114 1.797-.248 2.724.22.61.308 1.067.906 1.288 1.684.247.866.148 1.816-.257 2.48-1.14 1.87-2.646 1.823-4.133 1.646.027.095.058.19.076.25a1.5 1.5 0 0 1 .084.325c.014.195.035.381.055.561.06.542.117 1.054-.008 1.69-.214 1.087-.683 1.887-1.357 2.313-.567.358-1.247.44-2.02.243-.987-.25-2.939-1.58-3.035-2.91a2.86 2.86 0 0 1 .149-1.13c-.18.204-.35.451-.525.703-.465.672-.993 1.434-1.853 1.481a1.734 1.734 0 0 1-.695-.112Zm-.639-5.715a3.46 3.46 0 0 0-.478.736c-.58 1.163-.686 2.46-.392 2.798.913 1.049 1.64 1.566 2.162 1.537.49-.027.87-.575 1.272-1.156.478-.69 1.02-1.472 1.922-1.537a.408.408 0 0 1 .386.19c.138.226.014.43-.105.63-.175.288-.5.827-.45 1.52.06.826 1.604 2.011 2.467 2.23.564.145 1.045.094 1.43-.148.623-.395.897-1.207 1.017-1.82.103-.52.054-.956-.002-1.46-.02-.182-.04-.37-.056-.574a3.43 3.43 0 0 0-.05-.165c-.132-.41-.268-.834-.04-1.107a.481.481 0 0 1 .44-.166c1.762.221 2.804.272 3.731-1.248.299-.49.366-1.209.175-1.878-.163-.572-.483-1.004-.901-1.215-.795-.401-1.829-.223-2.446-.117-.45.078-.721.125-.895-.122a.427.427 0 0 1-.01-.466c.786-1.37 1.189-2.526 1.136-3.255-.054-.739-.58-1.143-1.012-1.353-1.137-.552-2.853-.383-3.991.39-.691.468-1.49 1.363-1.374 2.964.027.37-.178.47-.302.498-.335.073-.448-.224-.547-.487-.265-.702-.417-.92-.5-.977-.898-.056-1.947.215-3.208.829-.937.456-1.392 1.177-1.28 2.032.113.877.802 1.67 1.715 2.04.283-.205.58-.302.881-.28.009 0 .587.062.799.357.082.114.108.25.074.383-.079.31-.377.638-1.35.446a4.108 4.108 0 0 1-.218-.05Zm9.172 2.93v.003-.002Zm.663-6.092Zm-.328-.188.001.001h-.001ZM34.857 40.782a.383.383 0 0 1-.246-.315c-.007-.067-.167-1.634.47-2.816.043-.08.123-.262.216-.474.645-1.475 1.065-2.248 1.566-2.387.516-.143.861.042 1.06.223.925.839.566 3.279.562 3.303-.311 1.783-3.29 2.452-3.417 2.48a.378.378 0 0 1-.21-.014Zm2.461-5.268a.41.41 0 0 0-.253.006c-.278.141-.877 1.51-1.074 1.96-.108.246-.186.424-.244.53-.34.634-.402 1.438-.402 1.93.868-.265 2.238-.863 2.393-1.754.118-.68.111-2.217-.324-2.612a.284.284 0 0 0-.096-.06Z" fill="#231F20"/></svg>