<svg width="64" height="28" fill="none" xmlns="http://www.w3.org/2000/svg"><path d="M61.543 34.386 45.7 36.248l-9.301-5.357 9.3-5.358 15.845 1.863a2.197 2.197 0 0 0 2.441-1.922 2.195 2.195 0 0 0-1.926-2.436l-9.989-1.174 6.223-3.585a2.191 2.191 0 0 0 .805-2.997 2.202 2.202 0 0 0-3.004-.803l-6.223 3.584 3.975-9.218a2.192 2.192 0 0 0-1.15-2.883 2.201 2.201 0 0 0-2.89 1.149L43.5 21.733l-9.111 5.248V16.266l9.538-12.76a2.19 2.19 0 0 0-.447-3.07 2.202 2.202 0 0 0-3.078.446l-6.013 8.044V2.495a2.197 2.197 0 0 0-2.2-2.194 2.197 2.197 0 0 0-2.198 2.194v6.431L23.977.882A2.202 2.202 0 0 0 20.9.435a2.19 2.19 0 0 0-.448 3.071l9.539 12.76V27.2L20.5 21.733 14.194 7.11a2.201 2.201 0 0 0-2.889-1.149 2.192 2.192 0 0 0-1.15 2.883l3.975 9.218-5.583-3.216a2.202 2.202 0 0 0-3.004.804 2.191 2.191 0 0 0 .805 2.997l5.583 3.216-9.99 1.174a2.195 2.195 0 0 0-1.926 2.435 2.197 2.197 0 0 0 2.441 1.923l15.845-1.863 9.3 5.358-9.3 5.358-15.844-1.863a2.195 2.195 0 1 0-.515 4.358l9.989 1.174-5.582 3.216a2.191 2.191 0 0 0-.805 2.997 2.199 2.199 0 0 0 3.003.803l5.583-3.216-3.976 9.219a2.192 2.192 0 0 0 2.02 3.061 2.2 2.2 0 0 0 2.02-1.327L20.5 40.05l9.49-5.467v10.715l-9.538 12.76a2.19 2.19 0 0 0 .448 3.07 2.198 2.198 0 0 0 3.078-.447l6.013-8.043v7.169c0 1.212.984 2.194 2.199 2.194 1.214 0 2.199-.982 2.199-2.194v-7.17l6.013 8.045a2.202 2.202 0 0 0 3.078.446 2.19 2.19 0 0 0 .448-3.07l-9.54-12.76V34.8l9.112 5.248 6.306 14.623a2.2 2.2 0 0 0 4.04-1.735l-3.976-9.218 6.223 3.585a2.2 2.2 0 0 0 3.004-.803 2.191 2.191 0 0 0-.805-2.998l-6.223-3.584 9.99-1.174a2.195 2.195 0 0 0 1.926-2.436 2.198 2.198 0 0 0-2.442-1.922Z" fill="#59CAFC"/></svg>