<svg width="49" height="54" fill="none" xmlns="http://www.w3.org/2000/svg"><path d="M24.133 26.962c-7.036 7.036-15.244-4.69-15.244-4.69 8.314-3.858 13.942-.81 15.244 4.69Z" fill="#9DCC6B"/><path d="M23.323 24.934c-4.362 2.345-8.818-1.232-11.292-3.835 6.906-1.993 10.014 1.442 11.292 3.835Z" fill="#B5E08C"/><path d="M39.377 25.79s-8.209 11.726-15.244 4.69a9.438 9.438 0 0 1 1.536-3.19c3.283-4.42 8.677-3.764 13.708-1.5Z" fill="#9DCC6B"/><path d="M38.004 25.215c-2.908 2.838-7.821 6.18-12.335 2.076 1.758-2.37 5.347-4.785 12.335-2.076Z" fill="#B5E08C"/><path d="M48.264 6.735C36.41 26.786 26.384 16.28 28.39 9.608c1.934-6.45 13.649-5.16 19.875-2.873Z" fill="#9DCC6B"/><path d="M46.412 6.148c-8.678 12.688-16.417 9.463-18.012 3.46 1.783-5.993 11.727-5.23 18.012-3.46Z" fill="#B5E08C"/><path d="M16.674 12.715C12.875 14.966 6.801 13.383 0 1.892 4.257.309 11.234-.852 15.807.813c6.25 2.251 4.913 9.569.867 11.902Z" fill="#9DCC6B"/><path d="M18.504 11.062C14.87 11.964 9.815 9.666 4.198.707 7.47.004 12.066-.465 15.772.813c5.382 1.923 5.1 7.176 2.732 10.249Z" fill="#B5E08C"/><path d="M22.96 19.927c0-4.363 7.88-10.554 15.244-10.554a1.172 1.172 0 1 1 0 2.345c-6.66 0-12.899 5.64-12.899 8.209a1.173 1.173 0 0 1-2.345 0Z" fill="#BE927C"/><path d="M24.133 39.86a1.173 1.173 0 0 1-1.173-1.172V15.072c0-2.556-6.238-8.208-12.899-8.208A1.173 1.173 0 0 1 8.89 5.69c0-3.999 16.416 2.345 16.416 9.381-.164 24.085.704 24.789-1.172 24.789Z" fill="#BE927C"/><path d="M45.24 52.76v1.172H3.024V52.76a7.036 7.036 0 0 1 10.085-6.344 11.726 11.726 0 0 1 22.045 0 7.036 7.036 0 0 1 10.084 6.344Z" fill="#A87E6B"/><path d="M45.24 52.76v1.172H5.78a7.036 7.036 0 0 1 9.674-3.998 11.725 11.725 0 0 1 19.442-4.151c.352.785.14.645.493.539a7.036 7.036 0 0 1 9.85 6.438Z" fill="#BE927C"/></svg>