<svg width="68" height="53" fill="none" xmlns="http://www.w3.org/2000/svg"><path d="M.098 1.145C-.552-1.01 2.103-3 5.618-3h78.76c3.761 0 6.469 2.264 5.379 4.506l-15.313 29.9c-.44.787-2.232.787-2.654 0l-6.4-13.572-7.77 20.484c-.334.908-2.408.908-2.742 0l-8.175-21.534-5.995 14.59c-.404.83-2.285.83-2.69 0l-8.051-18.866L18.24 52.295c-.299.94-2.461.94-2.76 0L.098 1.145Z" fill="url('#paint0_linear_198_1169')"/><defs><linearGradient id="paint0_linear_198_1169" x1="45" y1="-3" x2="45" y2="53" gradientUnits="userSpaceOnUse"><stop stop-color="#5FCEFF"/><stop offset="1" stop-color="#B8E9FF" stop-opacity=".3"/></linearGradient></defs></svg>