<svg width="64" height="64" fill="none" xmlns="http://www.w3.org/2000/svg"><path d="M70.834 19.667s15.669-10.704 17.58-36.483c-15.72 7.261-19.943 35.764-19.943 35.764s.654-14.536-.98-21.872c-1.634-7.334-13.887-23.681-14.954-29.683-1.065-6.002-5.483 10.216-1.926 22.793 3.557 12.578 14.996 27.382 14.996 27.382S46.207-1.871 31.841-4.715c-14.366-2.844-22.109-8.78-22.109-8.78s9.373 23.036 26.246 28.433c16.873 5.398 31.802 5.323 31.802 5.323" fill="#AAD15D"/><path d="M69.887 21.12s3.495 18.652-13.398 38.217c-5.968-16.257 11.22-39.382 11.22-39.382s-9.825 10.734-16.171 14.76c-6.346 4.027-26.571 6.902-31.572 10.39-5.002 3.487 3.355-11.099 14.77-17.466 11.415-6.367 29.973-8.734 29.973-8.734" fill="#90B74B"/></svg>