<svg width="63" height="61" fill="none" xmlns="http://www.w3.org/2000/svg"><path d="M62.926-1.967C63.417-4.583 61.41-7 58.755-7H-.752C-3.594-7-5.64-4.251-4.816-1.529L6.754 34.78c.331.956 1.686.956 2.005 0l4.835-16.48 5.87 24.873c.253 1.102 1.82 1.102 2.073 0l6.176-26.149 4.53 17.716c.305 1.01 1.726 1.01 2.032 0l6.083-22.908 8.86 48.312c.226 1.142 1.86 1.142 2.085 0l11.623-62.11Z" fill="url('#paint0_linear_198_1168')"/><defs><linearGradient id="paint0_linear_198_1168" x1="29" y1="-7" x2="29" y2="61" gradientUnits="userSpaceOnUse"><stop stop-color="#5FCEFF"/><stop offset="1" stop-color="#B8E9FF" stop-opacity=".3"/></linearGradient></defs></svg>