<svg aria-hidden="true" style="width:0;height:0;position:absolute;overflow:hidden" xmlns="http://www.w3.org/2000/svg"><defs><symbol id="icon-degress" viewBox="0 0 32 32"><path fill="#fff" style="fill:var(--color1,#fff)" d="M16 0C7.198 0 0 7.198 0 16s7.198 16 16 16 16-7.198 16-16S24.802 0 16 0zm0 5.818c5.658 0 10.182 4.524 10.182 10.182S21.658 26.182 16 26.182 5.818 21.658 5.818 16 10.342 5.818 16 5.818z"/></symbol><symbol id="icon-logo-arrow-down" viewBox="0 0 265 32"><path d="M264.283.96 129.886 28.217 2.077.963l-.39 1.838 128.191 27.335L264.657 2.805z"/></symbol><symbol id="icon-btn-arrow-down" viewBox="0 0 100 32"><path d="M.975.392.128 1.814l50.511 30.047L100.291 1.81 99.433.394 50.631 29.93z"/></symbol><symbol id="icon-facebook-icon" viewBox="0 0 32 32"><path d="M0 16.089C0 24.044 5.777 30.658 13.333 32V20.444h-4V16h4v-3.556c0-4 2.577-6.221 6.223-6.221 1.155 0 2.4.177 3.555.355v4.089h-2.044c-1.956 0-2.4.977-2.4 2.223v3.111h4.267l-.711 4.444h-3.556v11.556C26.223 30.66 32 24.046 32 16.09 32 7.241 24.8.001 16 .001S0 7.241 0 16.09z"/></symbol><symbol id="icon-vk-icon" viewBox="0 0 32 32"><path d="M16 0C7.163 0 0 7.163 0 16s7.163 16 16 16 16-7.163 16-16S24.837 0 16 0zm6.153 18.052s1.415 1.397 1.763 2.045c.01.013.015.027.018.033.142.238.175.423.105.562-.117.23-.517.343-.653.353h-2.5c-.173 0-.537-.045-.977-.348-.338-.237-.672-.625-.997-1.003-.485-.563-.905-1.05-1.328-1.05a.497.497 0 0 0-.158.025c-.32.103-.73.56-.73 1.777 0 .38-.3.598-.512.598h-1.145c-.39 0-2.422-.137-4.222-2.035-2.203-2.325-4.187-6.988-4.203-7.032-.125-.302.133-.463.415-.463h2.525c.337 0 .447.205.523.387.09.212.42 1.053.962 2 .878 1.543 1.417 2.17 1.848 2.17a.51.51 0 0 0 .232-.06c.563-.313.458-2.322.433-2.738 0-.078-.002-.898-.29-1.292-.207-.285-.558-.393-.772-.433a.914.914 0 0 1 .332-.282c.387-.193 1.083-.222 1.775-.222h.385c.75.01.943.058 1.215.127.55.132.562.487.513 1.702-.015.345-.03.735-.03 1.195 0 .1-.005.207-.005.32-.017.618-.037 1.32.4 1.608a.356.356 0 0 0 .19.055c.152 0 .608 0 1.845-2.122a16.32 16.32 0 0 0 .992-2.123c.025-.043.098-.177.185-.228a.437.437 0 0 1 .207-.048h2.968c.323 0 .545.048.587.173.073.198-.013.803-1.368 2.638l-.605.798c-1.228 1.61-1.228 1.692.077 2.913z"/></symbol><symbol id="icon-instagram-icon" viewBox="0 0 32 32"><path d="M9.404.096C11.11.017 11.654 0 16 0s4.89.019 6.595.096 2.868.349 3.887.743a7.88 7.88 0 0 1 2.833 1.847 7.803 7.803 0 0 1 1.844 2.832c.396 1.018.666 2.182.745 3.884.078 1.709.096 2.253.096 6.598 0 4.346-.019 4.89-.096 6.596-.077 1.702-.349 2.866-.745 3.884a7.85 7.85 0 0 1-1.844 2.835 7.832 7.832 0 0 1-2.833 1.844c-1.018.396-2.182.666-3.884.745C20.89 31.982 20.346 32 16 32s-4.89-.019-6.596-.096c-1.702-.077-2.865-.349-3.884-.745a7.85 7.85 0 0 1-2.835-1.844 7.846 7.846 0 0 1-1.846-2.833C.445 25.464.174 24.3.096 22.598.017 20.889 0 20.345 0 16c0-4.346.019-4.89.096-6.595s.349-2.868.743-3.887a7.854 7.854 0 0 1 1.847-2.833A7.843 7.843 0 0 1 5.518.839C6.536.445 7.7.174 9.402.096h.001zm13.061 2.88c-1.687-.077-2.194-.093-6.465-.093s-4.778.016-6.465.093c-1.561.071-2.407.332-2.972.551a4.972 4.972 0 0 0-1.84 1.196 4.966 4.966 0 0 0-1.196 1.84c-.22.564-.48 1.411-.551 2.972-.077 1.687-.093 2.193-.093 6.465s.016 4.778.093 6.466c.071 1.561.332 2.407.551 2.972a4.962 4.962 0 0 0 1.196 1.84c.516.531 1.146.94 1.84 1.196.564.22 1.411.48 2.972.551 1.687.077 2.192.093 6.465.093s4.778-.016 6.465-.093c1.561-.071 2.407-.332 2.972-.551a4.972 4.972 0 0 0 1.84-1.196 4.962 4.962 0 0 0 1.196-1.84c.22-.564.48-1.411.551-2.972.077-1.687.093-2.194.093-6.465s-.016-4.778-.093-6.465c-.071-1.561-.332-2.407-.551-2.972a4.972 4.972 0 0 0-1.196-1.84 4.966 4.966 0 0 0-1.84-1.196c-.564-.22-1.411-.48-2.972-.551zm-8.509 17.956a5.337 5.337 0 0 0 5.819-8.707 5.34 5.34 0 0 0-8.882 5.324 5.327 5.327 0 0 0 3.064 3.382zm-3.771-10.747A8.232 8.232 0 0 1 16 7.776a8.23 8.23 0 0 1 7.598 5.077 8.21 8.21 0 0 1 0 6.294 8.225 8.225 0 1 1-13.413-8.962zm15.863-1.184a1.926 1.926 0 0 0 .61-1.386 1.953 1.953 0 0 0-.569-1.403 1.948 1.948 0 0 0-1.403-.569 1.945 1.945 0 1 0 1.363 3.36z"/></symbol><symbol id="icon-telegram-icon" viewBox="0 0 32 32"><path d="M32 16c0 8.836-7.164 16-16 16S0 24.836 0 16 7.164 0 16 0s16 7.164 16 16zm-15.427-4.188c-1.556.647-4.667 1.987-9.331 4.019-.757.301-1.155.596-1.191.884-.061.488.549.68 1.379.94.113.036.231.072.351.112.817.265 1.916.576 2.487.588.519.011 1.097-.203 1.736-.64 4.357-2.943 6.607-4.429 6.748-4.461.1-.023.239-.052.332.032.093.083.084.24.075.283-.061.257-2.453 2.483-3.693 3.635-.387.359-.66.613-.716.672-.125.129-.253.253-.376.372-.76.731-1.328 1.28.032 2.176.653.431 1.176.787 1.697 1.141.569.388 1.137.775 1.873 1.257.187.123.365.249.54.373.663.473 1.259.897 1.995.831.427-.04.869-.441 1.093-1.64.529-2.835 1.572-8.973 1.813-11.504a2.76 2.76 0 0 0-.027-.629.67.67 0 0 0-.229-.433c-.191-.156-.487-.189-.62-.187-.601.011-1.524.332-5.968 2.18z"/></symbol><symbol id="icon-geo-location-icon" viewBox="0 0 24 32"><path d="M10.406 31.281C7.179 27.258 0 17.508 0 12.031 0 5.386 5.315 0 11.871 0c6.554 0 11.871 5.386 11.871 12.031 0 5.477-7.234 15.227-10.406 19.25-.76.959-2.17.959-2.931 0zm1.465-15.24c2.183 0 3.957-1.798 3.957-4.01s-1.774-4.01-3.957-4.01-3.957 1.798-3.957 4.01c0 2.212 1.774 4.01 3.957 4.01z"/></symbol><symbol id="icon-sun" viewBox="0 0 32 32"><path d="m9.808 30.791 3.736-3.819c-1.323-.312-2.568-.779-3.658-1.559l-.078 5.378zM21.95 1.328l-3.736 3.819c1.323.312 2.568.779 3.658 1.559l.078-5.378zM1.169 22.139l5.37-.078a11.853 11.853 0 0 1-1.557-3.663l-3.814 3.741zM30.589 9.98l-5.37.078a11.83 11.83 0 0 1 1.557 3.663L30.59 9.98zm-29.42 0 3.814 3.741c.311-1.325.778-2.572 1.557-3.663L1.17 9.98zm29.42 12.159-3.814-3.741c-.311 1.325-.778 2.572-1.557 3.663l5.37.078zM9.808 1.328l.078 5.378a11.816 11.816 0 0 1 3.658-1.559L9.808 1.328zM21.95 30.791l-.078-5.378a11.816 11.816 0 0 1-3.658 1.559l3.736 3.819zm-15.255-8.34-2.101 4.91 4.903-2.104a11.962 11.962 0 0 1-2.802-2.806zM25.063 9.668l2.101-4.91-4.903 2.104a11.962 11.962 0 0 1 2.802 2.806zM4.905 14.033-.076 16.06l4.981 2.027c-.078-.624-.156-1.325-.156-2.027-.078-.701 0-1.325.156-2.027zm21.948 4.053 4.981-2.027-4.981-2.027c.156.623.156 1.325.156 2.027s0 1.325-.156 2.027zM9.497 6.862 4.594 4.758l2.101 4.91a11.962 11.962 0 0 1 2.802-2.806zm12.764 18.395 4.903 2.104-2.101-4.91a11.962 11.962 0 0 1-2.802 2.806zM17.902 5.069 15.878.081l-2.024 4.988c.623-.078 1.323-.156 2.024-.156.701-.078 1.323 0 2.024.156zm-4.047 21.98 2.024 4.988 2.024-4.988c-.623.078-1.323.156-2.024.156s-1.323 0-2.024-.156z"/><path d="M15.879 26.192c5.588 0 10.118-4.537 10.118-10.133S21.467 5.926 15.879 5.926 5.761 10.463 5.761 16.059s4.53 10.133 10.118 10.133z"/></symbol><symbol id="icon-phone-tube" viewBox="0 0 32 32"><path d="M30.604 5.067 26.344.812a2.752 2.752 0 0 0-3.904 0l-4.588 4.579a2.76 2.76 0 0 0 0 3.912l3.584 3.588a16.215 16.215 0 0 1-3.456 5.091 16.249 16.249 0 0 1-5.088 3.464l-3.584-3.588a2.752 2.752 0 0 0-3.01-.603 2.715 2.715 0 0 0-.894.603L.812 22.437a2.76 2.76 0 0 0 0 3.912l4.256 4.256a4.79 4.79 0 0 0 3.368 1.396c.26 0 .512-.02.768-.064C14.5 31.065 19.756 28.245 24 24.006c4.24-4.248 7.056-9.503 7.936-14.802a4.765 4.765 0 0 0-1.332-4.135zM29.1 8.727c-.78 4.715-3.316 9.419-7.136 13.238S13.444 28.32 8.728 29.1c-.592.1-1.2-.1-1.632-.528l-4.18-4.18 4.432-4.435 4.828 4.835.864-.32a19.243 19.243 0 0 0 11.428-11.431l.32-.864-4.832-4.827 4.432-4.435 4.18 4.179c.432.432.632 1.04.532 1.632z"/></symbol><symbol id="icon-pointer_right_icon_2" viewBox="0 0 32 32"><path d="M30.72 15.168c-.608.672-1.472 1.024-2.4 1.024h-4.736a3.31 3.31 0 0 1 .384 1.536c0 1.248-.736 2.432-1.824 3.008.256.384.512.928.512 1.632 0 1.184-.736 2.304-1.792 2.816.256.416.384.896.384 1.44a3.061 3.061 0 0 1-.896 2.272c-.608.64-1.44.992-2.304.992h-8.032C1.344 29.248.224 23.712.224 18.944c0-4.192 2.048-7.936 5.344-9.792.352-.224 1.216-.736 2.304-1.408l.928-.608c1.856-1.184 3.296-2.112 4.416-2.784l.128-.064c.64-.32 1.216-.736 1.6-1.184.544-.704 1.152-1.056 1.664-1.312.64-.352 1.92-.384 2.848.16.8.48 1.184 1.184 1.184 2.144 0 1.184-.416 2.464-1.152 3.552-.352.64-.896 1.248-1.504 1.824h10.208c1.856 0 3.424 1.472 3.456 3.296v.096c0 .896-.32 1.696-.928 2.304zM15.968 8.992l.224-.16c.768-.576 1.472-1.312 1.888-2.016l.032-.032c.544-.8.864-1.824.864-2.656 0-.384-.128-.576-.416-.768-.416-.256-1.088-.224-1.28-.128-.416.224-.8.416-1.152.896l-.032.032a6.843 6.843 0 0 1-2.144 1.6l-.032.032c-1.088.64-2.496 1.568-4.32 2.72l-.928.608c-1.12.672-1.984 1.216-2.368 1.44-2.784 1.568-4.544 4.8-4.544 8.384 0 4.544.992 8.8 8.288 9.344h7.936c.416 0 .832-.16 1.152-.48a1.6 1.6 0 0 0 .448-1.12v-.032c0-.32-.064-.544-.256-.768l-.128-.16c-.256-.32-.352-.736-.224-1.088s.416-.64.832-.768l.128-.032c.608-.192 1.088-.8 1.088-1.472 0-.448-.224-.8-.384-.96l-.096-.16c-.224-.256-.32-.608-.224-.96.096-.384.384-.704.736-.832l.096-.032c.672-.224 1.216-.992 1.216-1.696 0-.384-.16-.8-.448-1.152l-.128-.16c-.256-.384-.288-.832-.096-1.216s.576-.608 1.024-.608h5.568c.512 0 .96-.192 1.28-.544s.48-.768.48-1.248c-.032-.928-.864-1.728-1.856-1.728H16.704c-.48 0-.928-.288-1.088-.768a1.15 1.15 0 0 1-.064-.352c0-.352.16-.704.416-.96z"/></symbol><symbol id="icon-image" viewBox="0 0 24 24"><path d="M5 2a2.997 2.997 0 0 0-3 3v14a2.997 2.997 0 0 0 3 3h14a2.997 2.997 0 0 0 3-3V5a2.997 2.997 0 0 0-3-3zm6 6.5a2.498 2.498 0 0 0-4.268-1.768 2.498 2.498 0 1 0 3.536 3.536A2.492 2.492 0 0 0 11 8.5zm-2 0a.5.5 0 1 1-1 .002.5.5 0 0 1 1-.002zM7.414 20 16 11.414l4 4V19c0 .276-.111.525-.293.707S19.276 20 19 20zM20 12.586l-3.293-3.293a.999.999 0 0 0-1.414 0L4.649 19.937A.994.994 0 0 1 4 19V5c0-.276.111-.525.293-.707S4.724 4 5 4h14c.276 0 .525.111.707.293S20 4.724 20 5z"/></symbol></defs></svg>