<svg aria-hidden="true" style="width:0;height:0;position:absolute;overflow:hidden" xmlns="http://www.w3.org/2000/svg"><defs><symbol id="icon-summer" viewBox="0 0 30 32"><path d="M13.054 20.804s-3.889 3.45-7.725 1.78S0 20.294 0 20.294s3.753-2.129 4.903-3.031 8.798 2.076 8.841 1.697c.043-.379-8.811-3.469-9.701-4.842s.213-6.745-.398-8.709c-.611-1.964-.779-2.579-.779-2.579s2.251 1.515 4.751 1.787c2.5.272 5.859 4.496 6.885 13.622.657-2.972-1.103-12.631 5.522-15.545C23.131.889 22.273.169 23.404.006s-.638 3.04-.022 3.68 4.566 4.336.323 8.435c-4.243 4.099-8.586 6.756-8.586 6.756s9.402-4.849 12.406-2.732c3.004 2.117 4.592 6.313.422 8.261s-12.019-3.914-12.019-3.914 3.571 4.461 3.102 9.732c0 0-7.826-.137-5.104-9.259-6.029 9.659-5.835 10.634-5.835 10.634l-.958-1.354 5.923-9.444z"/></symbol><symbol id="icon-autumn" viewBox="0 0 29 32"><path fill="#5f0707" style="fill:var(--color2,#5f0707)" d="M13.914 22.798c-.618 2.064-1.062 4.701-1.478 6.447-.761 3.209-3.513 2.064-4.509 1.208-.992-.852 2.043-.727 3.684-3.115.765-1.114 1.013-3.063 1.058-4.82.293-.003.472.021.472.021s.321.049.772.258z"/><path fill="#841919" style="fill:var(--color3,#841919)" d="M26.995 18.028s-2.13 1.027-1.1 3.053c-2.518.639-.639 3.3-.639 3.3s-4.757.318-5.465 2.769c-.817-.747-2.948-.852-3.3-.213-.513-2.382-1.872-3.384-2.741-3.789-.451-.209-.772-.258-.772-.258s.168-1.401.433-3.507c.772-6.146 2.367-18.317 3.013-19.316.087-.136.157-.066.206.248.534 3.443 3.835 4.722 3.835 4.722s-.318 3.122 1.987 4.222c-.957 2.591-1.027 2.7 2.805 2.878 0 0-2.448.814 3.835 2.588-2.626.5-2.095 3.304-2.095 3.304z"/><path fill="#de2a2a" style="fill:var(--color4,#de2a2a)" d="M13.77 19.439c-.374 2.075-.628 3.451-.628 3.451s-.178-.025-.472-.021c-.943.014-3.077.328-4.502 2.759-.136-.716-2.193-1.278-3.203-.824.087-2.55-4.331-4.334-4.331-4.334s2.616-1.945.419-3.335c1.61-1.603-.094-3.244-.094-3.244s1.379-2.501-.96-3.789c6.52.269 4.449-1.268 4.449-1.268 3.699 1.023 3.663.901 3.559-1.858 2.535-.328 3.206-3.395 3.206-3.395s3.534-.189 5.113-3.293c.125-.245.209-.311.261-.22.444.765-1.711 13.184-2.818 19.373z"/></symbol><symbol id="icon-spring" viewBox="0 0 29 32"><path fill="#f68f8d" style="fill:var(--color5,#f68f8d)" d="M6.8 7.563c.366-2.054 1.411-3.556 3.145-4.716s3.948-1.579 5.986-1.134c1.246.272 2.447.877 3.272 1.848s1.23 2.336.894 3.566a7.93 7.93 0 0 1 6.481-.527c.581.211 1.161.51 1.52 1.013.321.45.432 1.013.508 1.561.176 1.268.211 2.555.102 3.83-.043.505-.112 1.02-.343 1.471-.671 1.312-2.379 1.611-3.846 1.754 1.49 1.108 3.026 2.267 3.919 3.896s.955 3.869-.362 5.178c-.673.669-1.597 1.007-2.49 1.326-.463.166-.947.334-1.436.279-.462-.051-.876-.295-1.275-.534-1.418-.848-2.893-1.752-3.741-3.17a9.899 9.899 0 0 1-1.492 5.22c-.272.436-.584.857-.984 1.179-.598.481-1.358.717-2.116.838-2.004.32-4.34-.275-5.343-2.04-.184-.325-.319-.689-.307-1.062.021-.65.472-1.195.9-1.685-1.86.462-3.853.635-5.675.04S.681 23.617.335 21.731c-.224-1.218.108-2.526.884-3.491s1.984-1.568 3.221-1.609c-1.983-1.072-3.271-3.318-3.194-5.571s1.515-4.406 3.567-5.341c.414-.188.885-.331 1.318-.194s.882 1.636.668 2.037z"/><path fill="#f6c11e" style="fill:var(--color6,#f6c11e)" d="M10.438 13.216a6.677 6.677 0 0 0-.545 2.908c.019.487.096.985.339 1.407.238.412.618.722 1.018.98.663.429 1.42.743 2.21.775 1.612.065 3.15-1.182 3.507-2.756.495-2.187-.957-3.372-2.454-4.571-.653-.523-.941-1.065-1.877-.866-1.07.228-1.784 1.17-2.197 2.122z"/><path fill="#231f20" style="fill:var(--color7,#231f20)" d="M14.643 20.165c-.812 0-1.641-.242-2.508-.54-.224-.077-.497-.105-.787-.135-.415-.043-.844-.088-1.183-.285-.472-.275-.69-.945-.833-1.389-.446-1.376-.338-2.765.312-4.018.602-1.161 1.65-2.136 2.95-2.744.622-.291 1.699.034 3.292.994 1.313.791 2.3 2.275 2.514 3.78.161 1.132-.135 2.172-.834 2.927-.973 1.052-1.935 1.41-2.922 1.41zm-1.53-8.811a.825.825 0 0 0-.349.066c-2.196 1.027-3.989 3.365-3.048 6.271.117.361.313.966.652 1.164.263.153.648.193 1.021.232.3.031.61.063.877.155 1.848.633 3.39.979 5.002-.763.788-.852.832-1.881.731-2.595-.198-1.389-1.109-2.759-2.322-3.49-1.346-.811-2.119-1.04-2.563-1.04z"/><path fill="#231f20" style="fill:var(--color7,#231f20)" d="M14.403 31.797a5.877 5.877 0 0 1-1.828-.306c-1.488-.488-3.743-2.42-3.809-4.09-.005-.117.095-.606.394-1.937l.049-.22c-.108-.02-.34-.014-.822.143-.485.159-1.018.402-1.406.58a6.442 6.442 0 0 1-.454.197c-1.473.498-2.625.258-3.85-.801-1.725-1.491-3.38-4.042-2.369-6.325.302-.683.944-1.528 1.597-2.102.085-.075.237-.15.477-.266.217-.105.717-.347.783-.48-.102-.237-.344-.436-.6-.646-.295-.242-.599-.493-.756-.85-.884-2.009-1.38-5.786.285-7.889.695-.878 2.666-1.591 3.692-.779.107.085.23.291.456.678.148.254.405.693.558.86.122-.23.171-.591.219-.942.052-.375.105-.764.252-1.052C8.542 3.081 11.201.41 14.276.051c1.263-.147 3.243.026 4.369.572 1.562.756 2.354 3.504 1.882 5.14l-.032.103a25.365 25.365 0 0 1 2.102-.361c1.449-.186 3.3-.292 3.89.253 1.886 1.744 3.134 5.599 1.982 8.148-.414.915-1.355 1.666-2.071 2.136a8.778 8.778 0 0 1-1.299.693c.31.327.758.655 1.226.997.729.533 1.482 1.084 1.93 1.768.904 1.381.857 3.487-.115 5.12-.819 1.378-2.098 2.102-3.508 1.987-.264-.022-.567-.021-.888-.02-.761.002-1.621.004-2.26-.305-.153-.074-.412-.313-.82-.697-.244-.23-.624-.586-.825-.728-.138.396-.374 1.58-.509 2.253-.108.542-.171.854-.207.966-.46 1.457-1.369 2.597-2.56 3.209a4.685 4.685 0 0 1-2.159.512zm-5.299-6.966c.204 0 .369.049.481.163.079.079.079.079-.029.558-.104.461-.379 1.687-.384 1.837.058 1.477 2.181 3.274 3.53 3.716 1.327.435 2.599.372 3.677-.182 1.094-.562 1.932-1.617 2.359-2.97.031-.097.111-.499.196-.924.499-2.496.577-2.606.799-2.632.202-.023.439.169 1.209.892.274.257.614.577.72.628.554.268 1.366.266 2.082.265.329-.001.64-.002.922.021 1.25.102 2.39-.55 3.127-1.79.895-1.506.946-3.435.124-4.692-.407-.623-1.131-1.151-1.83-1.663-.641-.469-1.246-.911-1.567-1.401a.211.211 0 0 1 .01-.257c.102-.121.245-.058.299-.035a.584.584 0 0 0 .048.02c.363-.134.948-.454 1.3-.684.671-.44 1.55-1.137 1.924-1.964 1.066-2.359-.139-6.067-1.888-7.684-.368-.34-1.799-.389-3.733-.127a23.55 23.55 0 0 0-2.204.402c-.275.419-.684.621-1.176.567-.103-.011-.345-.038-.386-.237-.025-.124.041-.232.198-.32.192-.108.59-.236 1.104-.363.048-.096.089-.205.124-.327.426-1.477-.307-4.004-1.67-4.663-1.046-.506-2.966-.671-4.146-.534-2.926.341-5.469 2.908-6.691 5.3-.116.227-.164.58-.211.923-.063.461-.129.937-.366 1.237a.276.276 0 0 1-.241.108c-.254-.018-.476-.353-.921-1.114-.127-.217-.3-.513-.359-.565-.81-.641-2.539-.022-3.122.714-1.561 1.972-1.075 5.558-.232 7.475.118.268.373.478.643.7.289.238.588.484.725.824.168.418-.447.716-.989.979-.151.073-.338.164-.386.206C1.561 17.777.961 18.565.68 19.2c-.921 2.08.644 4.454 2.264 5.854 1.117.966 2.119 1.176 3.455.724.068-.023.229-.097.415-.182.893-.408 1.738-.767 2.291-.767z"/></symbol><symbol id="icon-winter" viewBox="0 0 32 32"><path fill="#59cafc" style="fill:var(--color8,#59cafc)" d="m30.772 16.941-7.922.918-4.65-2.64 4.65-2.64 7.922.918a1.094 1.094 0 0 0 1.221-.947 1.085 1.085 0 0 0-.963-1.2l-4.994-.578 3.111-1.766c.526-.299.706-.96.402-1.477s-.976-.694-1.502-.396l-3.111 1.766 1.988-4.542c.24-.548-.018-1.184-.575-1.42s-1.205.017-1.445.566l-3.153 7.204-4.556 2.586V8.014l4.769-6.286c.363-.479.263-1.156-.224-1.513s-1.176-.258-1.539.22l-3.007 3.963V1.23c0-.597-.492-1.081-1.1-1.081s-1.099.484-1.099 1.081v3.169L11.988.436c-.363-.479-1.052-.577-1.539-.22s-.587 1.034-.224 1.513l4.769 6.286v5.387l-4.745-2.694-3.153-7.204c-.24-.548-.887-.802-1.445-.566s-.815.872-.575 1.42L7.064 8.9 4.273 7.316c-.526-.298-1.198-.121-1.502.396s-.123 1.178.402 1.477l2.791 1.584-4.994.578a1.085 1.085 0 0 0-.963 1.2 1.094 1.094 0 0 0 1.221.947l7.922-.918 4.65 2.639-4.65 2.64-7.922-.918c-.603-.07-1.15.354-1.221.947s.36 1.13.963 1.2l4.994.578-2.791 1.584a1.07 1.07 0 0 0-.402 1.476 1.111 1.111 0 0 0 1.502.396l2.791-1.584-1.988 4.542c-.24.548.018 1.184.575 1.42.137.058.285.088.434.088.426 0 .832-.245 1.011-.654l3.153-7.204 4.745-2.693v5.279l-4.769 6.286a1.07 1.07 0 0 0 .224 1.513 1.113 1.113 0 0 0 1.539-.22l3.007-3.963v3.532c0 .597.492 1.081 1.099 1.081s1.1-.484 1.1-1.081v-3.532l3.007 3.963c.363.479 1.052.577 1.539.22s.587-1.034.224-1.513l-4.769-6.286v-5.172l4.556 2.586 3.153 7.204a1.1 1.1 0 0 0 1.011.654c.149 0 .297-.03.434-.088.558-.236.815-.872.575-1.42l-1.988-4.542 3.112 1.766a1.11 1.11 0 0 0 1.502-.396 1.072 1.072 0 0 0-.402-1.477l-3.111-1.766 4.994-.579c.603-.07 1.034-.607.963-1.2s-.617-1.017-1.221-.947z"/></symbol><symbol id="icon-burger-menu-btn" viewBox="0 0 41 32"><path fill="#000749" style="fill:var(--color9,#000749)" d="M38.949.194 1.812.4l.021 3.556 37.137-.208zm.076 13.628-37.137.208.019 3.556 37.139-.208zm.077 13.629-37.139.208c-.977.007-1.766.8-1.766 1.778v.01a1.778 1.778 0 0 0 1.778 1.769h.01l37.137-.208a1.778 1.778 0 0 0 1.769-1.778v-.01a1.778 1.778 0 0 0-1.778-1.769h-.01.001z"/></symbol><symbol id="icon-modal-close-btn" viewBox="0 0 32 32"><path d="M1.455 0A1.45 1.45 0 0 0 .427 2.482l13.517 13.517L.427 29.516a1.45 1.45 0 0 0 0 2.056 1.45 1.45 0 0 0 2.056 0L16 18.055l13.517 13.517a1.45 1.45 0 0 0 2.056 0 1.45 1.45 0 0 0 0-2.056L18.056 15.999 31.573 2.482a1.45 1.45 0 0 0 0-2.056 1.45 1.45 0 0 0-2.056 0L16 13.943 2.483.426A1.45 1.45 0 0 0 1.455 0z"/></symbol><symbol id="icon-logo-arrow-down" viewBox="0 0 265 32"><path d="M264.283.96 129.886 28.217 2.077.963l-.39 1.838 128.191 27.335L264.657 2.805z"/></symbol><symbol id="icon-btn-arrow-down" viewBox="0 0 100 32"><path d="M.975.392.128 1.814l50.511 30.047L100.291 1.81 99.433.394 50.631 29.93z"/></symbol><symbol id="icon-facebook-icon" viewBox="0 0 32 32"><path d="M0 16.089C0 24.044 5.777 30.658 13.333 32V20.444h-4V16h4v-3.556c0-4 2.577-6.221 6.223-6.221 1.155 0 2.4.177 3.555.355v4.089h-2.044c-1.956 0-2.4.977-2.4 2.223v3.111h4.267l-.711 4.444h-3.556v11.556C26.223 30.66 32 24.046 32 16.09 32 7.241 24.8.001 16 .001S0 7.241 0 16.09z"/></symbol><symbol id="icon-vk-icon" viewBox="0 0 32 32"><path d="M16 0C7.163 0 0 7.163 0 16s7.163 16 16 16 16-7.163 16-16S24.837 0 16 0zm6.153 18.052s1.415 1.397 1.763 2.045c.01.013.015.027.018.033.142.238.175.423.105.562-.117.23-.517.343-.653.353h-2.5c-.173 0-.537-.045-.977-.348-.338-.237-.672-.625-.997-1.003-.485-.563-.905-1.05-1.328-1.05a.497.497 0 0 0-.158.025c-.32.103-.73.56-.73 1.777 0 .38-.3.598-.512.598h-1.145c-.39 0-2.422-.137-4.222-2.035-2.203-2.325-4.187-6.988-4.203-7.032-.125-.302.133-.463.415-.463h2.525c.337 0 .447.205.523.387.09.212.42 1.053.962 2 .878 1.543 1.417 2.17 1.848 2.17a.51.51 0 0 0 .232-.06c.563-.313.458-2.322.433-2.738 0-.078-.002-.898-.29-1.292-.207-.285-.558-.393-.772-.433a.914.914 0 0 1 .332-.282c.387-.193 1.083-.222 1.775-.222h.385c.75.01.943.058 1.215.127.55.132.562.487.513 1.702-.015.345-.03.735-.03 1.195 0 .1-.005.207-.005.32-.017.618-.037 1.32.4 1.608a.356.356 0 0 0 .19.055c.152 0 .608 0 1.845-2.122a16.32 16.32 0 0 0 .992-2.123c.025-.043.098-.177.185-.228a.437.437 0 0 1 .207-.048h2.968c.323 0 .545.048.587.173.073.198-.013.803-1.368 2.638l-.605.798c-1.228 1.61-1.228 1.692.077 2.913z"/></symbol><symbol id="icon-instagram-icon" viewBox="0 0 32 32"><path d="M9.404.096C11.11.017 11.654 0 16 0s4.89.019 6.595.096 2.868.349 3.887.743a7.88 7.88 0 0 1 2.833 1.847 7.803 7.803 0 0 1 1.844 2.832c.396 1.018.666 2.182.745 3.884.078 1.709.096 2.253.096 6.598 0 4.346-.019 4.89-.096 6.596-.077 1.702-.349 2.866-.745 3.884a7.85 7.85 0 0 1-1.844 2.835 7.832 7.832 0 0 1-2.833 1.844c-1.018.396-2.182.666-3.884.745C20.89 31.982 20.346 32 16 32s-4.89-.019-6.596-.096c-1.702-.077-2.865-.349-3.884-.745a7.85 7.85 0 0 1-2.835-1.844 7.846 7.846 0 0 1-1.846-2.833C.445 25.464.174 24.3.096 22.598.017 20.889 0 20.345 0 16c0-4.346.019-4.89.096-6.595s.349-2.868.743-3.887a7.854 7.854 0 0 1 1.847-2.833A7.843 7.843 0 0 1 5.518.839C6.536.445 7.7.174 9.402.096h.001zm13.061 2.88c-1.687-.077-2.194-.093-6.465-.093s-4.778.016-6.465.093c-1.561.071-2.407.332-2.972.551a4.972 4.972 0 0 0-1.84 1.196 4.966 4.966 0 0 0-1.196 1.84c-.22.564-.48 1.411-.551 2.972-.077 1.687-.093 2.193-.093 6.465s.016 4.778.093 6.466c.071 1.561.332 2.407.551 2.972a4.962 4.962 0 0 0 1.196 1.84c.516.531 1.146.94 1.84 1.196.564.22 1.411.48 2.972.551 1.687.077 2.192.093 6.465.093s4.778-.016 6.465-.093c1.561-.071 2.407-.332 2.972-.551a4.972 4.972 0 0 0 1.84-1.196 4.962 4.962 0 0 0 1.196-1.84c.22-.564.48-1.411.551-2.972.077-1.687.093-2.194.093-6.465s-.016-4.778-.093-6.465c-.071-1.561-.332-2.407-.551-2.972a4.972 4.972 0 0 0-1.196-1.84 4.966 4.966 0 0 0-1.84-1.196c-.564-.22-1.411-.48-2.972-.551zm-8.509 17.956a5.337 5.337 0 0 0 5.819-8.707 5.34 5.34 0 0 0-8.882 5.324 5.327 5.327 0 0 0 3.064 3.382zm-3.771-10.747A8.232 8.232 0 0 1 16 7.776a8.23 8.23 0 0 1 7.598 5.077 8.21 8.21 0 0 1 0 6.294 8.225 8.225 0 1 1-13.413-8.962zm15.863-1.184a1.926 1.926 0 0 0 .61-1.386 1.953 1.953 0 0 0-.569-1.403 1.948 1.948 0 0 0-1.403-.569 1.945 1.945 0 1 0 1.363 3.36z"/></symbol><symbol id="icon-telegram-icon" viewBox="0 0 32 32"><path d="M32 16c0 8.836-7.164 16-16 16S0 24.836 0 16 7.164 0 16 0s16 7.164 16 16zm-15.427-4.188c-1.556.647-4.667 1.987-9.331 4.019-.757.301-1.155.596-1.191.884-.061.488.549.68 1.379.94.113.036.231.072.351.112.817.265 1.916.576 2.487.588.519.011 1.097-.203 1.736-.64 4.357-2.943 6.607-4.429 6.748-4.461.1-.023.239-.052.332.032.093.083.084.24.075.283-.061.257-2.453 2.483-3.693 3.635-.387.359-.66.613-.716.672-.125.129-.253.253-.376.372-.76.731-1.328 1.28.032 2.176.653.431 1.176.787 1.697 1.141.569.388 1.137.775 1.873 1.257.187.123.365.249.54.373.663.473 1.259.897 1.995.831.427-.04.869-.441 1.093-1.64.529-2.835 1.572-8.973 1.813-11.504a2.76 2.76 0 0 0-.027-.629.67.67 0 0 0-.229-.433c-.191-.156-.487-.189-.62-.187-.601.011-1.524.332-5.968 2.18z"/></symbol><symbol id="icon-phone-tube" viewBox="0 0 32 32"><path d="M30.604 5.067 26.344.812a2.752 2.752 0 0 0-3.904 0l-4.588 4.579a2.76 2.76 0 0 0 0 3.912l3.584 3.588a16.215 16.215 0 0 1-3.456 5.091 16.249 16.249 0 0 1-5.088 3.464l-3.584-3.588a2.752 2.752 0 0 0-3.01-.603 2.715 2.715 0 0 0-.894.603L.812 22.437a2.76 2.76 0 0 0 0 3.912l4.256 4.256a4.79 4.79 0 0 0 3.368 1.396c.26 0 .512-.02.768-.064C14.5 31.065 19.756 28.245 24 24.006c4.24-4.248 7.056-9.503 7.936-14.802a4.765 4.765 0 0 0-1.332-4.135zM29.1 8.727c-.78 4.715-3.316 9.419-7.136 13.238S13.444 28.32 8.728 29.1c-.592.1-1.2-.1-1.632-.528l-4.18-4.18 4.432-4.435 4.828 4.835.864-.32a19.243 19.243 0 0 0 11.428-11.431l.32-.864-4.832-4.827 4.432-4.435 4.18 4.179c.432.432.632 1.04.532 1.632z"/></symbol></defs></svg>