<svg width="68" height="68" fill="none" xmlns="http://www.w3.org/2000/svg"><path d="M25.075 48.237c-.637 1.7-.106 3.507 1.169 4.038 1.275.425 2.869-.531 3.506-2.337.744-2.02.744-4.888.319-8.076-2.444 2.125-4.25 4.25-4.994 6.375Zm14.45 1.7c.744-2.018.744-4.887.319-8.075-2.444 2.125-4.25 4.357-4.994 6.375-.638 1.7-.106 3.507 1.169 4.038 1.275.425 2.869-.637 3.506-2.337Zm9.988-8.075c-2.444 2.125-4.25 4.357-4.994 6.375-.638 1.7-.106 3.507 1.169 4.038 1.274.425 2.868-.531 3.506-2.337.85-2.02.85-4.888.319-8.076ZM15.3 48.237c-.638 1.7-.106 3.507 1.169 4.038 1.275.425 2.868-.531 3.506-2.337.744-2.02.744-4.888.319-8.076-2.444 2.125-4.25 4.25-4.994 6.375Zm2.125 13.494c-.637 1.7-.106 3.506 1.169 4.038 1.275.425 2.868-.532 3.506-2.338.744-2.018.744-4.887.319-8.075-2.444 2.125-4.25 4.356-4.994 6.375Zm14.45 1.7c.744-2.018.744-4.887.319-8.075-2.444 2.125-4.25 4.356-4.994 6.375-.637 1.7-.106 3.506 1.169 4.038 1.275.425 2.869-.532 3.506-2.338Zm9.987-8.075c-2.443 2.125-4.25 4.356-4.993 6.375-.638 1.7-.106 3.506 1.169 4.038 1.275.425 2.868-.532 3.506-2.338.85-2.018.85-4.781.319-8.075ZM7.65 61.731c-.637 1.7-.106 3.506 1.169 4.038 1.275.425 2.868-.532 3.506-2.338.744-2.018.744-4.887.319-8.075-2.444 2.125-4.25 4.356-4.994 6.375Z" fill="#75D6FF"/><path d="M20.081 35.806c-.85 0-1.806-.106-2.656-.425-3.506-1.169-5.738-4.356-5.738-7.968a8.536 8.536 0 0 1 2.87-6.375c.424-.425.955-.744 1.593-1.063l.531-1.913c1.381-4.887 5.95-8.287 10.944-8.287.531 0 1.063 0 1.594.106.425.107.956.213 1.381.319l.212-.425c2.02-3.719 5.95-5.95 10.094-5.95 6.375 0 11.581 5.206 11.581 11.581v1.169c.532.213.957.425 1.488.637 3.081 1.807 4.994 5.1 4.994 8.607 0 4.675-3.188 8.712-7.757 9.668-.743.213-1.487.213-2.23.213l-28.9.106Z" fill="#fff"/><path d="M40.906 5.525c5.419 0 9.881 4.463 9.881 9.881v.744c-2.337.213-4.356 1.063-5.95 2.55 1.17-.744 2.657-1.063 4.144-1.063.531 0 1.063.107 1.594.107.85.212 1.7.531 2.55.956 2.444 1.381 4.144 4.144 4.144 7.225 0 3.931-2.763 7.225-6.482 8.075-.637.106-1.168.212-1.912.212H20.08c-.744 0-1.487-.106-2.125-.318-2.656-.85-4.675-3.4-4.675-6.375 0-2.019.85-3.825 2.338-5.1a7.643 7.643 0 0 1 2.23-1.275c.745-.213 1.488-.425 2.232-.425 2.125 0 4.144 1.062 5.313 2.656h.106c-1.381-2.656-4.144-4.462-7.225-4.781a9.72 9.72 0 0 1 9.35-7.013c.425 0 .956 0 1.381.107.85.106 1.806.425 2.55.743 2.975 1.382 5.206 4.144 5.631 7.438v-.107c0-3.825-1.912-7.225-4.887-9.137 1.594-3.081 4.887-5.1 8.606-5.1Zm0-3.4c-4.569 0-8.819 2.338-11.156 6.162h-.319c-.744-.106-1.275-.106-1.912-.106-5.844 0-10.944 3.932-12.644 9.457l-.425 1.38c-.425.213-.85.532-1.169.85a10.016 10.016 0 0 0-3.506 7.65c0 4.357 2.762 8.182 6.906 9.563 1.063.319 2.125.531 3.188.531h29.006c.85 0 1.806-.106 2.656-.318 5.313-1.169 9.031-5.844 9.031-11.369 0-4.144-2.23-7.969-5.843-10.094-.213-.106-.32-.212-.532-.319v-.106c0-7.331-5.95-13.281-13.28-13.281Z" fill="#B6C1D1"/></svg>