<svg width="240" height="231" fill="none" xmlns="http://www.w3.org/2000/svg"><g clip-path="url('#clip0_197_381')"><path d="M206.854 79.427s3.425-64.354-47.569-77.097c-58.957-14.735-70.566 41.654-70.566 41.654s-22.998-4.36-37.314 11.19C39.398 68.218 40.533 80.98 40.533 80.98s-15.85-3.425-28.294 7.467C-.206 99.338 1.666 109.573 1.666 109.573l36.996 14.296s186.829.936 187.765.319c.936-.617 12.445-18.657 12.445-18.657S237 89.98 226.128 83.768c-10.891-6.213-19.274-4.341-19.274-4.341Z" fill="#E2EBEE"/><path d="M20.94 133.506c9.319.319 70.268 1.553 107.244 1.235 36.975-.319 93.205.279 101.011-3.405 6.113-2.887 9.756-7.666 10.334-14.356.557-6.392-.677-11.449-.677-11.449s-8.701 6.292-25.188 6.531c-10.255.139-31.082-1.553-27.04-5.277 1.135-1.055 17.243-13.26 16.467-24.55-.179-2.669-14.615 10.572-28.294 16.167-13.68 5.596-26.662 9.916-44.742 8.761-15.232-.995-21.842-7.188-21.842-7.188s-7.348 8.622-29.43 10.474c-22.081 1.872-26.84-6.432-26.84-6.432s-10.693 8.085-28.653 7.846c-17.92-.279-21.445-6.73-21.445-6.73s-1.692 11.488 2.051 18.199c3.823 6.829 10.772 9.975 17.044 10.174Z" fill="#B9CED2"/><path d="M131.927 149.674c-3.405-1.194-15.551 8.423-21.027 17.921-5.495 9.537-1.911 16.506 3.963 19.374 6.61 3.225 16.128 1.234 18.836-8.164 2.668-9.299 1.892-27.836-1.772-29.131Zm-64.374-4.739c-3.086-1.095-13.102 8.204-17.602 13.222-6.033 6.75-10.692 19.334.757 24.431 11.529 5.117 19.015-3.265 19.593-14.854.557-10.792-.2-21.883-2.748-22.799Zm24.312 44.722c-3.285-1.772-17.084 10.473-21.485 17.781-4.38 7.307-4.101 16.686 4.859 20.528 8.96 3.843 16.865-1.075 18.517-13.878 1.155-9.08 1.275-22.719-1.891-24.431Zm66.723 1.055c-2.369-1.334-18.776 11.33-22.46 20.549-7.307 18.298 17.662 26.462 23.336 9.259 3.306-10.036 2.051-28.155-.876-29.808Zm40.799-39.445c-3.246-1.991-16.885 9.239-21.425 17.682-5.734 10.672-1.274 18.717 4.978 21.265 6.491 2.629 14.834.1 17.662-9.517 4.081-13.859 1.931-27.478-1.215-29.43Z" fill="#4FC4F8"/><path d="M184.513 168.63c-2.15.259-4.819 3.325-5.237 8.562-.418 5.237 2.887 7.885 6.233 6.551 3.146-1.254 3.663-5.734 3.663-8.562 0-2.827-1.334-6.969-4.659-6.551Zm-66.504-1.652c-2.27-.638-6.492 2.867-7.228 8.542-.578 4.38 1.115 7.028 4.52 7.287 4.739.359 6.232-5.475 6.112-9.04-.079-2.031-.438-5.953-3.404-6.789Zm-40.918 38.887c-2.111-.16-5.655 3.385-5.655 8.9 0 5.516 2.867 7.905 6.252 7.168 3.385-.756 4.062-7.228 3.843-9.796-.22-2.569-1.314-6.033-4.44-6.272Zm-22.978-42.511c-2.848-.817-6.492 2.787-6.93 6.849-.458 4.062 1.434 7.009 4.44 7.467 3.007.458 5.576-3.166 5.875-7.387.318-4.221-.737-6.193-3.385-6.929Zm90.577 44.86c-2.628-.219-6.392 3.664-6.292 9.538.1 5.874 3.146 6.869 5.157 6.989 2.887.179 4.898-3.226 5.157-8.562.219-4.48-.796-7.706-4.022-7.965Z" fill="#AEE6FD"/></g><defs><clipPath id="clip0_197_381"><path fill="#fff" d="M0 0h240v230.442H0z"/></clipPath></defs></svg>