<svg width="241" height="238" fill="none" xmlns="http://www.w3.org/2000/svg"><path d="M67.38 77.79c-18.83 24.184-18.514 67.199 5.565 88.483 27.323 24.185 65.749 23.947 89.934 1.688 28.985-26.664 27.323-71.077 1.688-96.211C138.8 46.458 92.752 45.139 67.38 77.79Z" fill="#FCC11A"/><path d="M97.605 69.482c-7.438-3.297-15.587 5.67-19.148 11.815-3.56 6.145-6.857 18.198.713 21.257 7.569 3.06 13.002-2.136 18.435-11.103 5.433-8.967 8.492-18.171 0-21.97Z" fill="#FEE269"/><path d="M116.989 35.75c-1.793 3.376-1.187 5.96 2.374 6.83 3.587.845 25.899 4.484 27.771 4.59 2.717.158 3.745-1.873 3.402-4.273-.343-2.374-5.802-35.789-6.303-38.875-.501-3.06-3.745-6.145-6.831-2.057-3.033 4.14-19.068 31.226-20.413 33.785Zm57.785 23.182c-3.508 1.081-3.403 3.244-1.53 5.96 1.873 2.717 14.822 22.497 16.035 23.869 1.213 1.371 3.244 1.714 4.932-.343 1.688-2.057 22.998-31.886 24.554-33.758 2.558-3.06 1.028-6.304-2.901-5.275-3.007.791-38.875 8.888-41.09 9.547Zm-132.95 90.699c2.374-3.93 5.46-2.901 7.675.844 1.53 2.558 14.32 19.78 15.508 21.653 1.186 1.872 1.714 5.459-2.058 6.303-3.745.844-34.259 8.862-39.032 9.706-4.774.844-7.49-2.902-4.431-6.989 1.793-2.374 20.967-29.302 22.338-31.517Zm-6.488-29.67c4.352 1.951 6.41 1.239 7.332-1.873 1.187-4.088 4.774-22.84 4.932-27.112.105-2.77-1.029-5.46-5.275-4.773-4.272.685-34.945 4.931-38.874 6.303-4.563 1.582-4.22 6.593-1.187 8.176 3.587 1.899 30.013 17.907 33.072 19.279Zm53.011-71.578c2.453-1.952 1.715-4.774-.5-6.304-2.216-1.53-29.592-21.336-33.073-24.026-3.06-2.374-6.831-1.53-5.803 3.93.739 3.903 9.469 38.189 10.049 40.562.685 2.717 2.716 4.088 5.116 2.374 2.4-1.714 21.653-14.505 24.211-16.536ZM123.281 201.341c1.794-3.376 1.187-5.961-2.373-6.831-3.587-.844-25.9-4.484-27.772-4.589-2.716-.158-3.745 1.872-3.402 4.272.343 2.374 5.802 35.789 6.303 38.875.502 3.059 3.745 6.145 6.831 2.057 3.033-4.14 19.068-31.226 20.413-33.784Zm81.653-84.211c-4.351-1.952-6.409-1.24-7.332 1.872-1.186 4.088-4.773 22.84-4.932 27.112-.105 2.769 1.029 5.46 5.275 4.774 4.273-.686 34.945-4.932 38.875-6.303 4.563-1.583 4.22-6.594 1.187-8.176-3.587-1.899-30.013-17.908-33.073-19.279Zm-53.011 71.578c-2.453 1.951-1.714 4.773.501 6.303 2.216 1.53 29.592 21.336 33.073 24.026 3.059 2.374 6.831 1.53 5.802-3.929-.738-3.904-9.468-38.189-10.048-40.563-.686-2.717-2.717-4.088-5.117-2.374-2.4 1.715-21.653 14.506-24.211 16.537Z" fill="#FFA722"/></svg>