<svg width="240" height="231" fill="none" xmlns="http://www.w3.org/2000/svg"><g clip-path="url('#clip0_187_491')"><path d="M206.854 79.427s3.425-64.354-47.569-77.097c-58.957-14.735-70.566 41.654-70.566 41.654s-22.998-4.36-37.314 11.19C39.398 68.218 40.533 80.98 40.533 80.98s-15.85-3.425-28.294 7.467C-.206 99.338 1.666 109.573 1.666 109.573l36.996 14.296s186.829.936 187.765.319c.936-.617 12.445-18.657 12.445-18.657S237 89.98 226.128 83.768c-10.891-6.213-19.274-4.341-19.274-4.341Z" fill="#E2EBEE"/><path d="M20.94 133.507c9.319.318 70.268 1.553 107.244 1.234 36.975-.318 93.205.279 101.011-3.405 6.112-2.887 9.756-7.666 10.334-14.356.557-6.391-.677-11.449-.677-11.449s-8.702 6.292-25.188 6.531c-10.255.139-31.082-1.553-27.04-5.277 1.135-1.055 17.243-13.26 16.467-24.55-.18-2.669-14.615 10.573-28.295 16.168-13.679 5.595-26.661 9.916-44.741 8.761-15.232-.996-21.843-7.188-21.843-7.188s-7.347 8.621-29.429 10.473c-22.082 1.872-26.84-6.431-26.84-6.431s-10.693 8.084-28.653 7.845c-17.92-.279-21.445-6.73-21.445-6.73s-1.692 11.489 2.05 18.199c3.824 6.83 10.773 9.976 17.045 10.175Z" fill="#B9CED2"/><path d="M115.927 149.675c-3.405-1.195-15.551 8.422-21.027 17.92-5.495 9.538-1.911 16.507 3.963 19.374 6.61 3.226 16.128 1.234 18.836-8.164 2.668-9.298 1.892-27.836-1.772-29.13Zm-40.062 39.982c-3.285-1.772-17.084 10.473-21.485 17.781-4.38 7.307-4.101 16.686 4.859 20.529s16.865-1.076 18.518-13.879c1.154-9.079 1.274-22.719-1.892-24.431Zm107.522-38.389c-3.245-1.992-16.885 9.239-21.425 17.681-5.734 10.673-1.274 18.717 4.978 21.265 6.491 2.629 14.834.1 17.662-9.517 4.082-13.859 1.931-27.478-1.215-29.429Z" fill="#4FC4F8"/><path d="M168.513 168.63c-2.15.259-4.819 3.326-5.237 8.562-.418 5.237 2.887 7.885 6.233 6.551 3.146-1.254 3.663-5.734 3.663-8.562 0-2.827-1.334-6.969-4.659-6.551Zm-66.504-1.652c-2.27-.637-6.492 2.867-7.228 8.542-.578 4.38 1.115 7.029 4.52 7.287 4.739.359 6.232-5.475 6.112-9.039-.079-2.031-.438-5.954-3.404-6.79ZM61.09 205.865c-2.11-.159-5.655 3.385-5.655 8.9 0 5.516 2.868 7.905 6.253 7.169 3.385-.757 4.062-7.228 3.843-9.797-.22-2.569-1.315-6.033-4.44-6.272Z" fill="#AEE6FD"/></g><defs><clipPath id="clip0_187_491"><path fill="#fff" d="M0 0h240v230.442H0z"/></clipPath></defs></svg>