<svg width="90" height="68" fill="none" xmlns="http://www.w3.org/2000/svg"><path d="M17.224 32.808c.5-.505-.885-6.515 5.29-11.157 6.174-4.642 10.386-1.872 10.977-2.076.585-.196 3.334-12.342 14.897-15.497C59.95.922 72.006 6.84 74.846 16.714c2.596 9.025.585 15.105.884 15.498.292.392 5.882.196 9.112 5.427 3.23 5.232 2.06 8.493 2.06 8.493l-20.576 6.416H33.4s-29.007-7.7-29.299-9.081c-.292-1.382.369-5.87 5.095-8.59 4.107-2.364 7.142-1.178 8.027-2.07Z" fill="#E4EAEE"/><path d="M25.375 54.224S14.39 56.538 6.963 50.746c-4.47-3.492-2.84-9.152-2.84-9.152s3.202 3.261 9.668 4.145c6.467.89 13.72.589 13.72.589s1.81 3.113 8.625 4.544c8.541 1.788 13.045-2.616 13.045-2.616s2.339 2.82 10.574 3.016c8.234.196 12.85-5.596 13.622-5.73.39-.063 2.66 2.013 7.156 1.284 4.281-.694 6.536-2.567 6.536-2.567s.62 4.643-3.689 7.504c-3.362 2.23-9.21 2.468-9.21 2.468s-.89 3.443-4.907 5.947C65.533 62.513 59.1 63.29 54.34 61.86c-5.98-1.795-7.462-4.537-7.462-4.537s-4.455 2.63-11.416 1.739c-6.578-.828-10.086-4.839-10.086-4.839Z" fill="#BACDD2"/></svg>