<svg width="230" height="231" fill="none" xmlns="http://www.w3.org/2000/svg"><g clip-path="url('#clip0_7_80')" fill="#FFCA22"><path d="m70.801 222.269 26.969-27.57c-9.552-2.251-18.541-5.627-26.407-11.253l-.562 38.823ZM158.45 9.587l-26.969 27.57c9.552 2.25 18.541 5.626 26.407 11.253l.562-38.823ZM8.437 159.814l38.767-.562c-5.057-7.877-8.99-16.88-11.237-26.445l-27.53 27.007Zm212.376-87.773-38.767.563c5.057 7.877 8.99 16.88 11.237 26.444l27.53-27.007Zm-212.376 0 27.53 27.007c2.248-9.565 5.619-18.567 11.237-26.445l-38.767-.562Zm212.376 87.773-27.53-27.007c-2.247 9.565-5.619 18.568-11.237 26.445l38.767.562ZM70.801 9.587l.562 38.823c7.866-5.064 16.855-9.003 26.407-11.253L70.8 9.587Zm87.648 212.682-.562-38.823c-7.866 5.064-16.855 9.002-26.407 11.253l26.969 27.57ZM48.328 162.065l-15.17 35.447 35.396-15.191a86.487 86.487 0 0 1-20.226-20.256ZM180.922 69.79l15.17-35.447-35.396 15.192a86.458 86.458 0 0 1 20.226 20.255ZM35.405 101.3-.553 115.928l35.958 14.629c-.562-4.502-1.123-9.565-1.123-14.629-.562-5.064 0-9.565 1.123-14.629Zm158.44 29.258 35.958-14.629-35.958-14.629c1.123 4.501 1.123 9.565 1.123 14.629s0 9.565-1.123 14.629ZM68.554 49.535 33.158 34.343l15.17 35.447a86.473 86.473 0 0 1 20.226-20.255Zm92.142 132.786 35.396 15.191-15.17-35.447a86.472 86.472 0 0 1-20.226 20.256ZM129.233 36.594 114.625.584l-14.608 36.01c4.495-.563 9.551-1.126 14.608-1.126 5.057-.562 9.551 0 14.608 1.126ZM100.017 195.26l14.608 36.01 14.608-36.01c-4.495.563-9.551 1.126-14.608 1.126s-9.551 0-14.608-1.126Z"/><path d="M114.625 189.072c40.339 0 73.04-32.748 73.04-73.144 0-40.397-32.701-73.145-73.04-73.145-40.338 0-73.04 32.748-73.04 73.145 0 40.396 32.702 73.144 73.04 73.144Z"/></g><defs><clipPath id="clip0_7_80"><path fill="#fff" d="M0 0h230v231H0z"/></clipPath></defs></svg>