<svg width="240" height="178" fill="none" xmlns="http://www.w3.org/2000/svg"><g clip-path="url('#clip0_198_387')"><path d="M51.06 58.5c-14.28 18.34-14.04 50.96 4.22 67.1 20.72 18.34 49.86 18.16 68.2 1.28 21.98-20.22 20.72-53.9 1.28-72.96-19.54-19.18-54.46-20.18-73.7 4.58Z" fill="#FCC11A"/><path d="M73.98 52.2c-5.64-2.5-11.82 4.3-14.52 8.96-2.7 4.66-5.2 13.8.54 16.12 5.74 2.32 9.86-1.62 13.98-8.42 4.12-6.8 6.44-13.78 0-16.66Z" fill="#FEE269"/><path d="M88.68 26.62c-1.36 2.56-.9 4.52 1.8 5.18 2.72.64 19.64 3.4 21.06 3.48 2.06.12 2.84-1.42 2.58-3.24-.26-1.8-4.4-27.14-4.78-29.48-.38-2.32-2.84-4.66-5.18-1.56-2.3 3.14-14.46 23.68-15.48 25.62ZM132.5 44.2c-2.66.82-2.58 2.46-1.16 4.52 1.42 2.06 11.24 17.06 12.16 18.1.92 1.04 2.46 1.3 3.74-.26 1.28-1.56 17.44-24.18 18.62-25.6 1.94-2.32.78-4.78-2.2-4-2.28.6-29.48 6.74-31.16 7.24ZM31.68 112.98c1.8-2.98 4.14-2.2 5.82.64 1.16 1.94 10.86 15 11.76 16.42.9 1.42 1.3 4.14-1.56 4.78-2.84.64-25.98 6.72-29.6 7.36-3.62.64-5.68-2.2-3.36-5.3 1.36-1.8 15.9-22.22 16.94-23.9Zm-4.92-22.5c3.3 1.48 4.86.94 5.56-1.42.9-3.1 3.62-17.32 3.74-20.56.08-2.1-.78-4.14-4-3.62-3.24.52-26.5 3.74-29.48 4.78-3.46 1.2-3.2 5-.9 6.2C4.4 77.3 24.44 89.44 26.76 90.48Zm40.2-54.28c1.86-1.48 1.3-3.62-.38-4.78C64.9 30.26 44.14 15.24 41.5 13.2c-2.32-1.8-5.18-1.16-4.4 2.98.56 2.96 7.18 28.96 7.62 30.76.52 2.06 2.06 3.1 3.88 1.8 1.82-1.3 16.42-11 18.36-12.54Z" fill="#FFA722"/><path d="M210.26 130.36s2.9-56.9-43.16-68c-46.06-11.1-59.48 33.58-59.48 33.58s-15.36-3.58-29.6 8.26c-11.18 9.3-12.76 23.26-12.76 23.26s-14.7-2.24-26.94 9.64c-8.86 8.6-8 19.64-8 19.64l17.84 15.68 181.3-4.9 9.54-10.24s1.52-11.36-9.08-19.9c-10.6-8.56-19.66-7.02-19.66-7.02Z" fill="#E2EBEE"/><path d="M73.28 152.46s7.22 8.16 30.12 7.62c22.9-.54 28.92-6.54 28.92-6.54s10.04 10.54 39.06 8.3c29.02-2.24 37.36-8.36 37.36-8.36s7.08 5.06 16.04 5.2c8.94.14 14.22-1.42 14.22-1.42s-.94 7.12-4.06 11.68c-3.12 4.56-8.32 8.04-16.54 7.98-8.24-.06-33.28.16-58.7.12-25.42-.04-98.06.38-108.8-.08-8.18-.34-14.12-5.16-16.86-9.24-4.38-6.52-3.66-13.4-3.66-13.4s8.24 6.46 19.36 5.98c15.2-.64 23.54-7.84 23.54-7.84Z" fill="#B9CED3"/></g><defs><clipPath id="clip0_198_387"><path fill="#fff" d="M0 0h240v178H0z"/></clipPath></defs></svg>