<svg width="150" height="152" viewBox="0 0 150 152" fill="none" xmlns="http://www.w3.org/2000/svg">
<path d="M59.6894 37.3263C64.4109 34.7597 69.1116 34.4477 74.2343 36.0716C79.357 37.6956 83.7585 41.4746 86.1389 46.2925C87.5935 49.2369 88.3087 52.6238 87.6802 55.8471C87.0516 59.0703 84.9576 62.0786 81.9424 63.3799C87.274 65.5504 91.5757 70.1183 93.4224 75.5704C93.9332 77.0787 94.263 78.7247 93.8276 80.2565C93.4386 81.6255 92.483 82.7538 91.5044 83.7871C89.2375 86.1803 86.7027 88.3195 83.9626 90.1516C82.8775 90.8772 81.7304 91.5669 80.4516 91.8276C76.7337 92.5854 73.3862 89.6302 70.7405 86.9101C70.9072 91.6899 71.0443 96.6434 69.2034 101.058C67.3623 105.472 62.9558 109.2 58.2043 108.654C55.7777 108.376 53.6114 107.06 51.5333 105.776C50.4551 105.11 49.3395 104.407 48.6625 103.336C48.0233 102.324 47.8475 101.097 47.6861 99.9118C47.1124 95.6956 46.559 91.2745 48.0503 87.2895C44.3649 90.2411 39.8396 92.1324 35.1499 92.6805C33.834 92.8344 32.4885 92.8833 31.1953 92.5961C29.2662 92.1677 27.5692 91.0166 26.1075 89.6869C22.2413 86.1695 19.6827 80.5128 21.622 75.6591C21.9787 74.7663 22.495 73.9085 23.2655 73.3333C24.6075 72.3317 26.4293 72.3612 28.1023 72.4341C24.1812 69.4347 20.6307 65.7035 18.8987 61.0806C17.1668 56.4577 17.555 50.829 20.792 47.1014C22.8825 44.694 26.0481 43.2573 29.2363 43.2687C32.4246 43.2801 35.5797 44.7396 37.6528 47.1619C36.6207 41.4481 39.0692 35.2459 43.7259 31.7781C48.3827 28.3103 55.0264 27.7413 60.2048 30.3675C61.249 30.8971 62.2943 31.6155 62.7145 32.7084C63.1347 33.8016 60.8409 37.1137 59.6894 37.3263Z" fill="#F68F8D"/>
<path d="M98.9636 102.97C100.145 104.658 99.8117 107.122 98.4844 108.699C97.1572 110.275 95.0345 111.029 92.9739 111.058C96.9125 113.623 99.7205 117.862 100.546 122.489C100.851 124.199 100.887 126.009 100.249 127.624C99.611 129.24 98.1988 130.622 96.4791 130.866C94.8414 131.097 93.2293 130.298 91.8992 129.315C90.5692 128.332 89.382 127.136 87.9166 126.369C88.524 128.487 89.1335 130.74 88.5374 132.862C88.0396 134.633 86.7601 136.072 85.4211 137.335C83.1227 139.501 80.0564 141.457 76.9927 140.689C75.2724 140.258 73.8797 139.034 72.5599 137.85C72.1505 137.482 71.722 137.085 71.5778 136.554C71.4563 136.108 71.5562 135.633 71.6875 135.189C72.1255 133.709 72.918 132.335 73.9802 131.214C70.2261 133.727 64.7086 133.143 61.5637 129.9C61.0334 129.354 60.5558 128.721 60.3746 127.981C59.9489 126.243 61.2316 124.587 62.4653 123.292C63.8644 121.822 65.5391 120.305 67.568 120.302C65.1214 118.684 63.3794 116.037 62.8606 113.149C62.7277 112.41 62.6774 111.619 62.9811 110.932C63.3046 110.199 63.9793 109.692 64.6399 109.239C65.9026 108.375 67.2637 107.571 68.7769 107.344C70.2902 107.117 71.9932 107.582 72.8726 108.834C71.8605 107.738 71.6293 106.08 71.9893 104.632C72.3493 103.184 73.225 101.918 74.2045 100.793C77.2711 97.2717 82.8747 94.8976 85.934 99.6389C87.6075 102.232 88.8265 101.175 91.7698 100.882C94.2183 100.638 97.3991 100.734 98.9636 102.97Z" fill="#F68F8D"/>
<path d="M54.1631 53.7348C51.691 54.4057 49.3732 55.6387 47.4351 57.3137C46.4858 58.1342 45.6073 59.0893 45.1507 60.2581C44.705 61.3987 44.6923 62.6632 44.8152 63.8815C45.0194 65.9056 45.604 67.9335 46.8089 69.5726C49.2693 72.9197 54.2525 74.0099 57.9904 72.1972C63.1858 69.678 63.2368 64.85 63.2414 59.9117C63.2435 57.7562 63.8706 56.3059 61.9647 54.7432C59.785 52.956 56.7418 53.0348 54.1631 53.7348Z" fill="#F6C11E"/>
<path d="M77.146 114.035C76.5881 114.364 76.0265 114.731 75.6665 115.27C75.3033 115.813 75.1812 116.478 75.0673 117.121C74.9107 118.006 74.7576 118.938 75.0597 119.784C75.3201 120.512 75.8885 121.085 76.4713 121.594C77.9244 122.864 79.6088 123.918 81.4817 124.383C83.3544 124.848 85.4319 124.676 87.07 123.657C90.7707 121.354 89.7161 116.77 87.4679 113.778C84.5772 109.93 80.5922 111.997 77.146 114.035Z" fill="#F6C11E"/>
<path d="M113.828 62.6362C110.482 65.0419 107.787 68.2263 104.734 70.9939C103.442 72.1645 101.906 73.3248 100.165 73.234C100.317 74.7382 100.637 76.4964 101.996 77.1591C102.567 77.4377 103.226 77.46 103.862 77.4428C110.02 77.2757 115.969 73.647 118.938 68.2486C119.904 66.491 120.584 64.5517 121.862 63.0064C123.141 61.4611 125.282 60.3706 127.156 61.0835C126.153 60.7019 125.629 59.7888 124.553 59.4849C123.406 59.1611 121.951 59.3381 120.801 59.5367C118.276 59.9722 115.895 61.1502 113.828 62.6362Z" fill="#BED665"/>
<path d="M109.447 84.9735C111.853 85.2945 114.291 85.6242 116.528 86.5649C118.381 87.3441 120.035 88.5174 121.723 89.6086C125.456 92.0217 129.425 94.0705 133.554 95.716C128.288 98.336 122.885 100.998 117.04 101.654C111.194 102.31 104.72 100.563 101.242 95.82C99.8051 93.86 96.7059 88.7394 98.3872 86.2117C100.287 83.3559 106.679 84.6041 109.447 84.9735Z" fill="#BED665"/>
<path d="M74.4691 120.178C73.2262 118.622 73.2581 117.152 73.5483 116.13C74.1743 113.927 76.5642 112.012 79.36 111.475C83.0962 110.756 84.7378 112.479 86.476 114.304C86.9287 114.779 87.3968 115.271 87.9144 115.73L87.9142 115.73C88.9727 116.669 89.0289 117.655 88.8891 118.316C88.5514 119.914 86.6481 121.485 84.0404 122.319C81.3991 123.163 77.6967 123.256 75.227 120.984C74.9335 120.714 74.6825 120.445 74.4691 120.178ZM87.5397 116.841C87.4503 116.729 87.3445 116.619 87.2218 116.51C87.2216 116.51 87.2216 116.51 87.2216 116.51C86.6714 116.022 86.1882 115.514 85.7207 115.023C84.0518 113.271 82.7337 111.887 79.5569 112.499C77.1709 112.958 75.0657 114.605 74.5513 116.415C74.1784 117.728 74.6556 119.042 75.933 120.217C78.0738 122.186 81.3606 122.081 83.7228 121.326C85.9102 120.627 87.6149 119.301 87.8685 118.101C87.9636 117.652 87.8558 117.237 87.5397 116.841ZM87.5679 116.12L87.5692 116.122L87.5679 116.12Z" fill="#231F20"/>
<path d="M61.4918 130.667C60.9681 130.012 60.5362 129.22 60.2085 128.304C59.2934 125.75 60.8208 122.013 62.7452 120.502C63.6251 119.811 65.3445 119.221 66.262 118.93C65.8968 118.427 65.14 118.009 64.3508 117.574C62.7826 116.709 60.831 115.633 61.2541 113.243C61.6765 110.857 64.8978 104.877 67.7639 104.695C68.5932 104.642 69.5953 105.204 70.6562 105.797C71.695 106.379 72.9883 107.103 73.3275 106.646C74.0146 105.721 73.8892 104.272 73.7568 102.737C73.6262 101.225 73.4912 99.6615 74.1247 98.3794C74.8111 96.9907 76.0279 96.0506 77.6436 95.6611C79.7501 95.1535 82.3548 95.6959 84.1252 97.0109C85.69 98.1726 85.6094 100.374 85.5564 101.831C85.5485 102.046 85.5392 102.305 85.541 102.517C86.1909 102.288 87.4391 101.732 88.2521 101.37C89.5168 100.806 90.2474 100.485 90.5583 100.425C92.5086 100.05 94.6305 100.592 96.3803 101.912C98.1358 103.237 99.2444 105.154 99.4224 107.173C99.6222 109.443 97.3852 111.023 95.5878 112.292C94.6454 112.958 93.5776 113.712 93.5193 114.193C93.5145 114.233 93.5001 114.325 93.6437 114.488C93.6438 114.488 93.6438 114.488 93.6438 114.488C94.1895 115.116 94.8323 115.772 95.5128 116.467C98.6548 119.673 102.566 123.665 99.6936 128.226C98.0274 130.872 94.9544 131.85 92.2206 130.604C91.6495 130.343 91.0758 130.019 90.4814 129.619C90.9321 132.416 90.0054 135.891 88.0214 138.2C86.1713 140.354 83.7919 141.094 81.3219 140.283C77.6497 139.078 73.933 135.447 72.8597 132.018C72.7071 131.53 72.9157 130.811 73.2145 129.983C72.6433 130.214 71.5857 130.715 69.6273 131.787C69.4559 131.881 69.3377 131.945 69.2927 131.968C67.3731 132.939 65.494 133.108 63.8588 132.456C62.9424 132.09 62.1455 131.485 61.4918 130.667ZM67.0363 118.226C67.2504 118.494 67.4083 118.793 67.4861 119.135C67.5952 119.608 67.1422 119.748 66.9489 119.808C65.1658 120.358 63.9679 120.867 63.3891 121.322C61.6206 122.711 60.5109 126.057 61.19 127.953C61.8233 129.721 62.8797 130.943 64.245 131.487C65.5943 132.025 67.177 131.869 68.8221 131.037C68.8633 131.016 68.9706 130.957 69.1268 130.872C73.0316 128.735 73.675 128.662 74.0687 128.785C74.2344 128.836 74.3668 128.945 74.4427 129.095C74.5648 129.337 74.4962 129.521 74.2931 130.069C74.1679 130.408 73.786 131.438 73.8552 131.707C74.8216 134.796 78.3172 138.199 81.6468 139.292C84.4037 140.196 86.3284 138.571 87.2303 137.521C89.4344 134.955 90.2113 130.642 88.9271 128.103C88.6823 127.62 89.0472 127.378 89.0896 127.351C89.5058 127.095 89.788 127.479 89.9398 127.686C90.0414 127.825 90.3502 128.245 90.4655 128.33C91.2328 128.9 91.9483 129.333 92.6531 129.655C94.9342 130.694 97.4089 129.897 98.8109 127.67C101.244 123.807 97.8035 120.295 94.7677 117.197C94.0758 116.49 93.4225 115.824 92.8561 115.172L92.8562 115.172C92.5616 114.832 92.4362 114.461 92.4837 114.068C92.5974 113.127 93.6515 112.383 94.9857 111.44C96.6471 110.267 98.5304 108.937 98.3831 107.264C98.2312 105.539 97.272 103.891 95.7517 102.745C94.2372 101.602 92.4159 101.13 90.7549 101.449C90.5409 101.492 89.5068 101.952 88.6761 102.322C87.8965 102.669 87.09 103.028 86.4433 103.288C85.591 103.629 84.9176 103.897 84.6394 103.347C84.4694 103.011 84.4872 102.527 84.5137 101.793C84.5615 100.481 84.6269 98.683 83.5029 97.8484C81.9668 96.7073 79.7101 96.2358 77.8876 96.6751C76.9773 96.8945 75.7476 97.4483 75.0592 98.8415C74.5546 99.8623 74.6769 101.278 74.7953 102.647C74.9387 104.308 75.0871 106.026 74.1642 107.268C73.2784 108.461 71.6145 107.53 70.1462 106.708C69.3051 106.237 68.3516 105.703 67.8295 105.736C65.7202 105.87 62.6933 111.093 62.2805 113.425C62.0076 114.969 63.0706 115.677 64.8539 116.661C65.6771 117.114 66.5195 117.579 67.0363 118.226Z" fill="#231F20"/>
<path d="M97.5099 74.8074C97.435 74.7137 97.3642 74.6157 97.2981 74.5123C97.0321 74.0952 97.2391 73.807 97.309 73.7287C97.6631 73.3308 98.1814 73.5825 99.2134 74.0831C99.4557 74.2006 99.6845 74.3117 99.8317 74.3711C100.243 74.5374 100.495 74.8741 100.677 75.2612C100.652 74.8499 100.662 74.4526 100.799 74.1346C101.648 72.1696 102.556 70.2789 104.325 68.7484C107.694 65.8334 111.377 64.063 115.276 62.1884C116.307 61.6926 117.373 61.1799 118.424 60.648C118.672 60.5231 120.216 60.024 120.925 59.8019C121.36 59.6656 121.983 59.4747 122.476 59.3399C123.164 59.1518 123.578 59.0362 123.795 59.4653C124.463 60.7856 123.086 61.6737 121.98 62.3871C121.39 62.7674 120.78 63.161 120.479 63.5666C119.62 64.7236 118.789 66.3127 117.909 67.9949C115.922 71.7943 113.669 76.1006 110.15 77.0782C109.778 77.1815 109.389 77.2964 108.989 77.4145C106.388 78.1822 103.44 79.0523 101.132 78.1203C100.629 77.9172 100.364 77.4589 100.175 76.9648C99.7172 76.7043 99.3095 76.3815 98.9378 76.0872C98.9377 76.087 98.9377 76.087 98.9377 76.087C98.8658 76.0301 98.7935 75.9737 98.7206 75.9169C98.2963 75.586 97.8601 75.2457 97.5099 74.8074ZM99.2613 75.6783L99.2626 75.68L99.2613 75.6783ZM122.871 60.3122C121.778 60.6042 119.194 61.442 118.89 61.5817C117.835 62.1155 116.763 62.6303 115.728 63.1286C111.893 64.972 108.271 66.7133 105.008 69.5373C103.405 70.9238 102.555 72.6988 101.756 74.5484C101.673 74.7416 101.72 75.275 101.752 75.6282C101.812 76.3026 101.86 76.8389 101.493 77.1398C101.503 77.145 101.512 77.1496 101.522 77.1535C103.493 77.9497 106.256 77.134 108.693 76.4145C109.099 76.2948 109.493 76.1783 109.871 76.0735C112.954 75.2169 115.095 71.1235 116.985 67.5118C117.884 65.7922 118.734 64.1679 119.642 62.9451C120.057 62.3871 120.747 61.9417 121.415 61.5111C122.253 60.9705 122.732 60.6177 122.871 60.3122Z" fill="#231F20"/>
<path d="M46.943 73.3656C45.6373 71.7317 44.7919 69.6743 43.9954 67.4513C43.7903 66.8783 43.4074 66.2815 43.0019 65.6497C42.4214 64.7452 41.8214 63.8099 41.674 62.8116C41.4681 61.4188 42.4672 59.9045 43.1284 58.9026C45.1793 55.7947 48.1484 53.7777 51.7144 53.0697C55.0189 52.4137 58.664 52.9543 61.9778 54.5921C63.5633 55.376 64.6405 58.0649 65.2711 62.8141C65.7907 66.7284 64.392 71.0989 61.7081 73.9486C59.6894 76.092 57.1216 77.1672 54.478 76.9763C50.7964 76.7103 48.5297 75.3513 46.943 73.3656ZM62.2109 56.123C61.9674 55.8183 61.7317 55.6336 61.5162 55.527C55.9195 52.7612 48.3329 52.91 43.9992 59.4771C43.4604 60.2937 42.5584 61.6606 42.7058 62.6593C42.8204 63.4358 43.3589 64.2751 43.8797 65.0866C44.2987 65.7396 44.7322 66.415 44.9772 67.0998C46.6745 71.8369 48.4575 75.4958 54.5532 75.9364C57.5329 76.1516 59.6757 74.5854 60.949 73.2339C63.4264 70.6032 64.7174 66.5674 64.2376 62.9518C63.705 58.9414 62.9248 57.0164 62.2109 56.123Z" fill="#231F20"/>
<path d="M96.744 89.3363C96.0712 88.4944 95.6417 87.6508 95.6775 86.8513C95.7097 86.1375 96.0886 85.532 96.8038 85.0518C101.767 81.7192 106.369 82.5762 112.33 84.1513C115.07 84.8754 117.698 85.9618 120.24 87.0122C120.874 87.2741 121.507 87.5358 122.142 87.7921C122.948 88.1176 125.607 89.8793 128.068 91.7191C132.993 95.4005 132.997 96.2182 132.999 96.5667C133.001 97.0392 133.005 97.8305 125.637 99.7815C121.994 100.746 118.194 101.543 117.356 101.585C111.365 101.886 106.373 98.0773 102.28 94.3122C101.849 93.9159 101.259 93.4379 100.635 92.9321C99.2896 91.8413 97.7466 90.591 96.744 89.3363ZM97.0944 85.4847L97.385 85.9175C96.9538 86.2071 96.736 86.528 96.7194 86.8982C96.6538 88.3631 99.3344 90.5355 101.292 92.1215C101.929 92.6382 102.531 93.126 102.986 93.5444C107.118 97.3454 111.712 100.824 117.303 100.544C118.03 100.507 121.522 99.7757 124.935 98.8875C129.69 97.65 131.514 96.8398 131.921 96.5015C131.254 95.1344 123.393 89.4215 121.751 88.759C121.114 88.5017 120.478 88.2388 119.841 87.9759C117.332 86.9386 114.736 85.8658 112.063 85.1594C106.19 83.6078 101.995 82.8221 97.3849 85.9177L97.0944 85.4847Z" fill="#231F20"/>
<path d="M23.1559 91.5833C22.2055 90.3939 21.4241 88.9961 20.8323 87.4129C19.4206 83.6347 19.6827 75.9915 22.9382 73.1748C23.1662 72.9774 24.3094 72.3915 27.4684 70.8534C27.6568 70.7617 27.8406 70.6722 27.9889 70.5996C27.8553 70.3502 27.4706 69.8916 26.3786 69.1756C25.2786 68.4542 23.9338 67.7746 22.9519 67.2782C22.415 67.0069 22.0271 66.8109 21.8255 66.6815C18.4559 64.518 17.0866 61.8163 17.2484 57.6471C17.4759 51.7799 19.9476 44.3481 26.1646 42.7126C28.0251 42.2228 30.7562 42.1559 32.9608 42.5459C33.2475 42.5966 33.6425 42.7808 34.263 43.0772C34.8234 43.3449 36.1151 43.9617 36.4881 43.8815C36.8004 43.2942 36.8122 42.4884 36.8245 41.6361C36.8388 40.6536 36.8537 39.6378 37.3187 38.7496C39.9403 33.7407 46.7403 26.672 53.6501 26.6395C56.5332 26.6262 61.1373 29.4466 61.1531 32.8144C61.1547 33.1658 60.9384 33.7445 60.5236 34.8219C60.2518 35.5282 59.7813 36.7507 59.6897 37.3263C60.3473 37.2013 61.1542 36.7199 61.938 36.2524C62.7763 35.7524 63.6433 35.2353 64.4586 35.0684C71.5088 33.6238 81.1585 34.6779 86.8226 40.289C89.1498 42.5945 91.9831 46.8562 92.6966 49.9978C93.6868 54.3566 89.4305 60.3674 85.381 62.0481C85.294 62.0842 85.2075 62.1181 85.1216 62.1496C86.4197 63.204 87.8735 64.4887 89.2256 65.7979C91.9282 68.4141 95.1181 71.9667 94.9692 74.0313C94.493 80.6288 88.7437 89.338 81.7622 91.1186C79.2553 91.7577 76.2311 91.0721 74.1356 90.3847C73.2556 90.0957 71.6828 89.4686 70.6518 88.8857C70.4915 90.035 70.5526 91.4637 70.6165 92.9557C70.7157 95.278 70.8186 97.6795 70.1619 99.6804C68.8366 103.719 64.5248 107.009 59.6761 107.682C55.5872 108.249 52.0733 106.84 50.0388 103.818C49.6573 103.251 49.1685 102.643 48.6522 101.999C47.4249 100.472 46.0381 98.7437 45.6336 96.9625C45.5361 96.5341 45.6018 95.6302 45.7165 94.191C45.7851 93.3304 45.892 91.9922 45.8558 91.3606C44.8367 91.7208 42.0755 93.1473 40.5062 93.9584C39.242 94.6116 38.5129 94.9865 38.2292 95.096C34.5585 96.5143 30.8041 96.5171 27.6585 95.104C25.9043 94.3164 24.3881 93.1253 23.1559 91.5833ZM28.6486 69.7224C28.9772 70.1337 29.1425 70.5431 29.0933 70.9519C29.0614 71.2378 29.0614 71.2378 27.9247 71.7913C26.8296 72.3243 23.9204 73.741 23.6102 73.972C20.731 76.4634 20.5297 83.6244 21.8091 87.0478C23.0684 90.4173 25.2387 92.8743 28.0853 94.1528C30.9751 95.451 34.4441 95.4406 37.8531 94.1235C38.0977 94.029 39.035 93.5449 40.027 93.0322C45.8512 90.0229 46.1985 90.0046 46.6069 90.409C46.9782 90.7774 46.9721 91.563 46.7558 94.2741C46.6789 95.2378 46.5833 96.4369 46.6503 96.7318C47.0017 98.2786 48.3104 99.9087 49.465 101.347C49.9952 102.007 50.4975 102.632 50.9035 103.235C52.7081 105.915 55.8534 107.16 59.5326 106.649C64.0018 106.029 67.9651 103.03 69.1708 99.3553C69.7683 97.5346 69.6697 95.2296 69.5743 93.0003C69.4871 90.9573 69.4045 89.0275 69.874 87.596C69.9714 87.2982 70.2216 87.1984 70.4064 87.2034C70.814 87.2147 70.9179 87.6029 70.9571 87.7492C70.9661 87.7831 70.9803 87.8361 70.9935 87.8779C71.8467 88.392 73.4311 89.0557 74.4606 89.3937C76.4245 90.0381 79.2407 90.6851 81.5044 90.1079C87.9638 88.4607 93.4873 80.0729 93.9289 73.9561C94.022 72.6685 91.8199 69.7127 88.1826 66.2418C86.5963 64.7281 85.0661 63.4213 83.8312 62.4529C82.5454 62.5726 81.4804 62.0748 80.7997 60.9981C80.6567 60.7716 80.3217 60.2415 80.6569 59.8397C80.8662 59.5888 81.1897 59.5495 81.6182 59.7226C82.1434 59.9347 83.0418 60.5312 84.1235 61.3606C84.3931 61.302 84.6788 61.2101 84.981 61.0848C88.6378 59.5668 92.5429 54.0297 91.6795 50.2285C91.0169 47.3113 88.2612 43.1826 86.0884 41.0298C80.6982 35.6899 71.4461 34.7011 64.6677 36.0899C64.0254 36.2214 63.2357 36.6925 62.4722 37.1481C61.4439 37.7615 60.3807 38.3956 59.3937 38.4004C59.1456 38.4016 58.9249 38.2888 58.7885 38.0905C58.4164 37.5508 58.7347 36.566 59.5501 34.4472C59.7822 33.8442 60.0998 33.0185 60.1101 32.8151C60.0969 30.1554 56.0735 27.6711 53.6546 27.6822C47.178 27.7129 40.7433 34.4554 38.2424 39.2332C37.8925 39.9013 37.8802 40.7514 37.867 41.6513C37.853 42.6154 37.8384 43.6126 37.3737 44.4346C36.802 45.4457 35.214 44.6874 33.813 44.0183C33.4241 43.8327 32.94 43.6014 32.7786 43.5729C30.7089 43.2067 28.1575 43.2662 26.4296 43.7211C20.7636 45.2116 18.5037 52.1761 18.29 57.6873C18.1424 61.4884 19.3297 63.8403 22.3886 65.8035C22.5451 65.9041 22.9514 66.1095 23.4218 66.3471C25.6796 67.4885 27.7604 68.611 28.6486 69.7224Z" fill="#231F20"/>
</svg>
