<svg width="153" height="157" viewBox="0 0 153 157" fill="none" xmlns="http://www.w3.org/2000/svg">
<path d="M63.5646 119.256C68.6329 121.575 73.5192 121.563 78.7042 119.518C83.8892 117.472 88.1743 113.248 90.2942 108.094C91.5896 104.943 92.0884 101.388 91.2083 98.0974C90.3283 94.8069 87.9473 91.8433 84.7346 90.7115C90.0968 88.0859 94.2225 83.0528 95.7449 77.2797C96.166 75.6826 96.39 73.9559 95.8304 72.4019C95.3304 71.0132 94.2612 69.9137 93.1749 68.9142C90.6588 66.5994 87.8836 64.5664 84.9177 62.8658C83.7432 62.1923 82.5072 61.5605 81.1653 61.3818C77.2643 60.8625 74.011 64.1589 71.4672 67.162C71.2992 62.2042 71.0881 57.0689 68.8688 52.6325C66.6492 48.196 61.8241 44.6526 56.9464 45.5556C54.4553 46.0167 52.3075 47.5324 50.2487 49.0092C49.1805 49.7754 48.0762 50.5817 47.452 51.7386C46.8627 52.8307 46.7681 54.1126 46.6856 55.351C46.3923 59.7545 46.1346 64.3686 47.9616 68.3858C43.9379 65.5942 39.1207 63.9596 34.2291 63.7266C32.8565 63.6611 31.4607 63.7064 30.143 64.0957C28.1774 64.6764 26.5035 65.9883 25.0857 67.4683C21.3358 71.3834 19.0913 77.4189 21.4438 82.3031C21.8765 83.2014 22.4718 84.0523 23.31 84.5925C24.77 85.5333 26.653 85.373 28.3789 85.1784C24.5353 88.5614 21.1273 92.6751 19.6645 97.582C18.2017 102.489 19.0043 108.286 22.6194 111.912C24.9541 114.254 28.3319 115.515 31.6301 115.276C34.9284 115.037 38.0891 113.302 40.0617 110.648C39.4008 116.634 42.3762 122.877 47.4418 126.134C52.5074 129.39 59.4224 129.506 64.5936 126.42C65.6364 125.797 66.6668 124.979 67.0238 123.819C67.3807 122.657 64.7712 119.394 63.5646 119.256Z" fill="#F68F8D"/>
<path d="M99.5261 48.5344C100.628 46.7031 100.108 44.1774 98.6221 42.6405C97.1364 41.1036 94.8864 40.4755 92.752 40.5915C96.6447 37.6573 99.2484 33.0712 99.773 28.2245C99.967 26.4334 99.8752 24.5581 99.0999 22.9319C98.3245 21.3057 96.7647 19.9754 94.9679 19.8462C93.2568 19.7232 91.6456 20.6647 90.3394 21.7768C89.0332 22.8889 87.89 24.2114 86.4283 25.1093C86.9059 22.8738 87.3761 20.4998 86.6082 18.3467C85.9669 16.5489 84.5404 15.1511 83.0649 13.9403C80.5323 11.8625 77.2202 10.0567 74.1047 11.0694C72.3554 11.638 71.0014 13.0041 69.7202 14.3237C69.3228 14.7329 68.9077 15.1749 68.7962 15.7343C68.7024 16.2047 68.8395 16.6893 69.007 17.1388C69.5657 18.6393 70.4837 20.0048 71.6625 21.0883C67.5991 18.7559 61.9314 19.7531 58.9083 23.3324C58.3985 23.9359 57.9494 24.6246 57.8146 25.4033C57.4979 27.2319 58.9431 28.8536 60.312 30.1066C61.8644 31.5273 63.7053 32.9776 65.8049 32.8361C63.3886 34.6854 61.7747 37.5485 61.4436 40.5732C61.3588 41.3481 61.363 42.1692 61.7262 42.8589C62.1132 43.5938 62.8475 44.0713 63.5633 44.4923C64.9314 45.2966 66.3971 46.0312 67.979 46.1584C69.561 46.2857 71.2901 45.6834 72.1108 44.325C71.1417 45.5309 71.0206 47.2636 71.4962 48.736C71.9719 50.2082 72.9682 51.4566 74.0619 52.5507C77.4859 55.9757 83.4533 58.0331 86.2811 52.9091C87.828 50.1064 89.1647 51.1136 92.2311 51.2075C94.7821 51.2856 98.0665 50.9595 99.5261 48.5344Z" fill="#F68F8D"/>
<path d="M56.6762 102.672C54.0704 102.154 51.5843 101.043 49.4595 99.4477C48.4188 98.6663 47.4417 97.7406 46.886 96.5638C46.3436 95.4153 46.2404 94.1078 46.2808 92.8384C46.3479 90.7294 46.8083 88.5894 47.9382 86.8075C50.2457 83.1688 55.3243 81.6858 59.3212 83.2952C64.8766 85.5317 65.2733 90.5238 65.6299 95.6334C65.7856 97.8636 66.5378 99.3196 64.6771 101.072C62.549 103.077 59.3944 103.212 56.6762 102.672Z" fill="#F6C11E"/>
<path d="M76.1628 38.6394C75.562 38.3377 74.9547 37.9987 74.5438 37.4668C74.1293 36.9302 73.9556 36.2514 73.7919 35.5934C73.5669 34.6896 73.3421 33.736 73.5944 32.8393C73.8119 32.0666 74.3593 31.4339 74.926 30.8653C76.3392 29.4478 78.0069 28.2368 79.9118 27.6222C81.8165 27.0078 83.9784 27.0376 85.7461 27.9759C89.7394 30.0953 88.9747 34.9132 86.8615 38.1699C84.1445 42.3576 79.8738 40.5021 76.1628 38.6394Z" fill="#F6C11E"/>
<path d="M117.78 89.2103C114.146 86.9594 111.131 83.8563 107.774 81.2101C106.354 80.0909 104.682 78.9996 102.887 79.2176C102.937 77.6504 103.143 75.8083 104.502 75.0257C105.073 74.6968 105.754 74.6268 106.412 74.5993C112.796 74.3335 119.211 77.6644 122.667 83.0389C123.792 84.7887 124.634 86.747 126.067 88.2548C127.5 89.7628 129.793 90.7386 131.682 89.8674C130.671 90.3338 130.193 91.3159 129.101 91.707C127.938 92.1237 126.42 92.0442 125.216 91.9207C122.572 91.6499 120.024 90.6006 117.78 89.2103Z" fill="#BED665"/>
<path d="M111.655 66.4088C114.122 65.9052 116.621 65.3903 118.869 64.2576C120.731 63.3194 122.359 61.9875 124.028 60.738C127.719 57.9752 131.679 55.5725 135.834 53.5757C130.199 51.2397 124.418 48.8702 118.323 48.6079C112.228 48.3456 105.653 50.6141 102.393 55.7699C101.045 57.9005 98.2033 63.4198 100.123 65.9154C102.292 68.7351 108.818 66.9882 111.655 66.4088Z" fill="#BED665"/>
<path d="M72.9546 32.4732C71.7794 34.1711 71.9171 35.6907 72.2903 36.7272C73.095 38.9625 75.7042 40.773 78.6355 41.1304C82.5527 41.608 84.1285 39.7077 85.7972 37.6957C86.2317 37.1716 86.6811 36.6299 87.1839 36.1176L87.1838 36.1177C88.2121 35.0704 88.2 34.0459 88.0082 33.3719C87.545 31.7426 85.4636 30.2528 82.7059 29.5759C79.9128 28.8905 76.0751 29.0581 73.6814 31.5847C73.3969 31.8848 73.1564 32.1817 72.9546 32.4732ZM86.717 34.9948C86.6326 35.1169 86.5309 35.2383 86.4116 35.3597C86.4115 35.3598 86.4115 35.3598 86.4115 35.3598C85.877 35.9044 85.4131 36.464 84.9644 37.0051C83.3623 38.9369 82.097 40.4627 78.7663 40.0565C76.2647 39.7515 73.9691 38.1973 73.3078 36.3606C72.8284 35.029 73.2286 33.6355 74.4666 32.3281C76.5415 30.1382 79.95 30.0129 82.448 30.6258C84.7612 31.1934 86.6197 32.4442 86.9675 33.6672C87.098 34.1256 87.016 34.5629 86.717 34.9948ZM86.7976 35.7386L86.7989 35.7369L86.7976 35.7386Z" fill="#231F20"/>
<path d="M58.7795 22.5437C58.2843 23.2591 57.8937 24.1096 57.6199 25.0804C56.855 27.7885 58.7017 31.5468 60.8006 32.9732C61.7604 33.6257 63.5815 34.1135 64.5516 34.3495C64.2095 34.8951 63.4562 35.3817 62.6706 35.8883C61.1095 36.895 59.1668 38.1477 59.7748 40.5905C60.3818 43.029 64.1411 48.9874 67.1198 48.9717C67.9816 48.967 68.9786 48.315 70.034 47.6249C71.0675 46.949 72.3541 46.1078 72.7376 46.5561C73.5145 47.4643 73.488 48.9733 73.4604 50.5709C73.4329 52.1448 73.4046 53.772 74.1515 55.0535C74.9606 56.4416 76.2867 57.3276 77.9863 57.6155C80.2021 57.9907 82.8587 57.2439 84.5969 55.757C86.1333 54.4435 85.8931 52.1711 85.7344 50.6671C85.711 50.4454 85.6828 50.1778 85.6697 49.9592C86.3584 50.1497 87.6896 50.6362 88.5567 50.953C89.9054 51.4455 90.6843 51.7263 91.0103 51.7662C93.055 52.0154 95.2121 51.3033 96.9286 49.8124C98.6507 48.3165 99.6613 46.2536 99.7016 44.1522C99.7466 41.7889 97.3193 40.3135 95.3691 39.128C94.3466 38.5066 93.1879 37.8022 93.0933 37.3089C93.0856 37.2681 93.064 37.1734 93.201 36.9949C93.2011 36.9947 93.2011 36.9947 93.2011 36.9947C93.7211 36.3058 94.3395 35.5812 94.9941 34.814C98.0168 31.2723 101.779 26.8628 98.4824 22.3482C96.5698 19.7289 93.3204 18.936 90.5804 20.4204C90.008 20.7307 89.4375 21.1072 88.8509 21.5632C89.118 18.6365 87.9115 15.1072 85.6941 12.8591C83.6263 10.7625 81.1116 10.1667 78.6135 11.1815C74.8995 12.6901 71.3124 16.7118 70.4461 20.3368C70.3229 20.8523 70.5901 21.5813 70.9582 22.4171C70.3508 22.2189 69.2207 21.7751 67.1179 20.8058C66.9339 20.7208 66.8069 20.6624 66.7588 20.6423C64.7033 19.7742 62.7469 19.7334 61.1013 20.5243C60.1791 20.9679 59.3976 21.6507 58.7795 22.5437ZM65.403 35.0224C65.6054 34.73 65.7475 34.4095 65.8036 34.0497C65.8828 33.5522 65.4041 33.4398 65.1998 33.3918C63.3155 32.9495 62.0398 32.5077 61.4084 32.0784C59.4796 30.7678 58.093 27.3843 58.6605 25.3742C59.1899 23.4997 60.1959 22.1596 61.5699 21.4993C62.9278 20.8466 64.5765 20.8951 66.3381 21.639C66.3822 21.6577 66.4975 21.7109 66.6652 21.7883C70.8579 23.721 71.5287 23.7504 71.9274 23.596C72.0952 23.5311 72.2245 23.4082 72.2923 23.2478C72.4014 22.9895 72.3173 22.8034 72.0682 22.2507C71.9144 21.9091 71.4459 20.8705 71.4983 20.5868C72.2782 17.3219 75.6528 13.5514 79.0203 12.1838C81.8085 11.0514 83.9159 12.5966 84.9239 13.6187C87.3874 16.1165 88.4985 20.5236 87.3506 23.2423C87.1317 23.7599 87.5265 23.9848 87.5723 24.0088C88.0212 24.244 88.2858 23.8271 88.4282 23.6017C88.5235 23.4514 88.8131 22.9946 88.9263 22.898C89.6796 22.2536 90.3891 21.7546 91.0955 21.3716C93.3818 20.1333 95.9992 20.782 97.6087 22.9864C100.402 26.8107 97.0917 30.6896 94.1711 34.112C93.5055 34.8919 92.877 35.6285 92.3373 36.3431L92.3375 36.343C92.0568 36.7154 91.9535 37.1083 92.0307 37.5122C92.2153 38.4772 93.3591 39.1723 94.8068 40.0525C96.6095 41.1482 98.6529 42.3903 98.6197 44.1317C98.5854 45.9276 97.7103 47.7008 96.2189 48.9957C94.7332 50.2862 92.8822 50.9046 91.1407 50.6925C90.9162 50.6637 89.8135 50.2608 88.9276 49.937C88.0961 49.6333 87.2361 49.3193 86.5484 49.0972C85.6422 48.8049 84.9263 48.5757 84.6776 49.1642C84.5256 49.5241 84.5786 50.0239 84.6582 50.7807C84.8011 52.1355 84.9969 53.9912 83.8933 54.9348C82.3852 56.225 80.0837 56.8736 78.1665 56.5489C77.2089 56.3867 75.8971 55.9013 75.0856 54.5087C74.4907 53.4884 74.5164 52.0149 74.5413 50.5898C74.5714 48.8609 74.6026 47.0729 73.5591 45.8531C72.5576 44.6818 70.9022 45.7643 69.4415 46.7194C68.6047 47.2666 67.6561 47.8871 67.1135 47.8899C64.9214 47.9015 61.4172 42.713 60.8239 40.3292C60.4315 38.7511 61.481 37.9422 63.2563 36.7972C64.0757 36.2694 64.9143 35.7284 65.403 35.0224Z" fill="#231F20"/>
<path d="M100.028 77.7788C99.9569 77.8811 99.8905 77.9876 99.8295 78.0993C99.584 78.5497 99.8188 78.8333 99.8967 78.9093C100.291 79.2958 100.81 78.9985 101.842 78.4069C102.084 78.2681 102.313 78.1368 102.461 78.0649C102.875 77.8635 103.112 77.4971 103.272 77.0836C103.276 77.511 103.314 77.9214 103.479 78.2406C104.497 80.2135 105.572 82.1051 107.512 83.5627C111.205 86.3391 115.142 87.9086 119.31 89.5706C120.412 90.0102 121.552 90.4646 122.678 90.9401C122.942 91.0518 124.576 91.4582 125.325 91.6375C125.785 91.7475 126.443 91.9008 126.963 92.0051C127.688 92.1507 128.125 92.2408 128.319 91.7813C128.916 90.3675 127.428 89.5467 126.233 88.8873C125.595 88.5359 124.936 88.172 124.596 87.7738C123.624 86.6378 122.651 85.0527 121.62 83.3748C119.294 79.5849 116.656 75.2894 112.945 74.5286C112.553 74.4483 112.142 74.3571 111.719 74.2634C108.974 73.6543 105.861 72.964 103.539 74.0928C103.033 74.3388 102.792 74.8319 102.631 75.3566C102.177 75.6588 101.778 76.0218 101.414 76.3529C101.414 76.353 101.414 76.353 101.414 76.353C101.344 76.417 101.273 76.4806 101.201 76.5446C100.786 76.9171 100.359 77.3003 100.028 77.7788ZM101.778 76.7528L101.779 76.751L101.778 76.7528ZM127.303 90.9708C126.151 90.7465 123.417 90.0638 123.092 89.9409C121.963 89.4637 120.818 89.0073 119.71 88.5655C115.611 86.9312 111.739 85.3875 108.161 82.6978C106.405 81.3774 105.399 79.6013 104.44 77.7443C104.34 77.5504 104.351 76.995 104.358 76.6273C104.373 75.9252 104.384 75.3668 103.983 75.0816C103.993 75.0755 104.002 75.07 104.012 75.0653C105.995 74.1011 108.912 74.7483 111.485 75.3192C111.913 75.4141 112.33 75.5066 112.728 75.5882C115.979 76.2548 118.487 80.3379 120.699 83.9405C121.752 85.6557 122.747 87.2759 123.774 88.4765C124.242 89.0244 124.989 89.4361 125.711 89.834C126.616 90.3337 127.137 90.6646 127.303 90.9708Z" fill="#231F20"/>
<path d="M47.8071 82.8731C46.5725 84.6568 45.8442 86.8459 45.1784 89.2029C45.0071 89.8105 44.6534 90.4552 44.2788 91.1379C43.7426 92.1151 43.1883 93.1257 43.107 94.1692C42.9931 95.6251 44.1348 97.1207 44.8903 98.1104C47.2339 101.18 50.4499 103.056 54.1902 103.534C57.6563 103.978 61.3894 103.158 64.7017 101.228C66.2864 100.304 67.2095 97.4446 67.5237 92.4855C67.7824 88.3982 66.0238 83.9755 63.0437 81.218C60.8021 79.1439 58.0685 78.2143 55.3467 78.6002C51.5561 79.1377 49.3075 80.7054 47.8071 82.8731ZM64.8338 99.6271C64.6035 99.9598 64.3728 100.168 64.1575 100.293C58.5634 103.554 50.7025 103.94 45.7504 97.4539C45.1347 96.6473 44.1041 95.2972 44.1855 94.2532C44.2487 93.4416 44.7461 92.5348 45.2272 91.658C45.6142 90.9524 46.0146 90.2227 46.2193 89.4966C47.6382 84.4741 49.2224 80.5611 55.4985 79.6709C58.5664 79.2359 60.8952 80.7039 62.3091 82.0116C65.06 84.5572 66.6833 88.6413 66.4444 92.4167C66.1791 96.6043 65.5089 98.6518 64.8338 99.6271Z" fill="#231F20"/>
<path d="M98.2008 62.7992C97.5646 63.7184 97.1803 64.6219 97.2743 65.4465C97.3585 66.1828 97.7936 66.7824 98.5679 67.2283C103.941 70.3231 108.642 69.1084 114.697 67.0541C117.481 66.1096 120.123 64.7982 122.679 63.5302C123.316 63.2141 123.953 62.8981 124.591 62.5877C125.402 62.1934 128.028 60.1811 130.443 58.1021C135.277 53.942 135.223 53.0955 135.2 52.7348C135.169 52.2458 135.116 51.4267 127.353 49.9328C123.516 49.1941 119.527 48.6403 118.656 48.6563C112.436 48.7722 107.542 53.0686 103.575 57.2561C103.157 57.6969 102.581 58.2334 101.971 58.8014C100.656 60.0258 99.1489 61.4295 98.2008 62.7992ZM98.8378 66.7597L99.1077 66.2911C98.6408 66.0222 98.3926 65.7057 98.3491 65.3238C98.1768 63.8127 100.796 61.3739 102.708 59.5934C103.331 59.0133 103.919 58.4656 104.36 58.0003C108.365 53.7728 112.871 49.846 118.676 49.7379C119.43 49.7239 123.096 50.232 126.691 50.9079C131.699 51.8496 133.645 52.558 134.089 52.8791C133.497 54.3412 125.769 60.8126 124.118 61.6151C123.477 61.9268 122.837 62.2441 122.198 62.5614C119.674 63.8135 117.065 65.1086 114.35 66.0299C108.383 68.0538 104.099 69.1656 99.1075 66.291L98.8378 66.7597Z" fill="#231F20"/>
<path d="M21.896 65.717C20.9973 67.0154 20.2883 68.5174 19.7888 70.1979C18.5971 74.2079 19.4129 82.0979 22.9821 84.7805C23.2322 84.9686 24.4568 85.4934 27.8351 86.8598C28.0365 86.9413 28.2331 87.0208 28.3918 87.0854C28.2713 87.353 27.9059 87.8549 26.827 88.6736C25.7401 89.4984 24.397 90.2974 23.4164 90.881C22.8801 91.2 22.4927 91.4304 22.2933 91.5786C18.9608 94.0574 17.7364 96.9505 18.2008 101.253C18.8542 107.308 21.9413 114.822 28.4908 116.071C30.4508 116.445 33.2815 116.32 35.535 115.759C35.828 115.687 36.2236 115.468 36.8445 115.117C37.4054 114.8 38.698 114.07 39.0897 114.126C39.4546 114.712 39.5242 115.545 39.5977 116.426C39.6825 117.441 39.7703 118.491 40.3147 119.377C43.3843 124.373 50.9241 131.203 58.0762 130.745C61.0604 130.553 65.6236 127.307 65.4 123.821C65.3766 123.457 65.1116 122.874 64.6057 121.788C64.2741 121.077 63.7001 119.845 63.5643 119.256C64.2536 119.339 65.1229 119.779 65.9673 120.207C66.8703 120.665 67.8042 121.138 68.6597 121.253C76.0578 122.245 85.9676 120.467 91.4288 114.258C93.6726 111.706 96.3007 107.095 96.8152 103.793C97.5293 99.2123 92.6969 93.2959 88.3869 91.8453C88.2943 91.8141 88.2025 91.7853 88.1114 91.7588C89.3794 90.5753 90.7922 89.1423 92.098 87.6914C94.7081 84.7917 97.7558 80.8885 97.4546 78.7627C96.4918 71.9699 89.9223 63.3677 82.5714 62.0227C79.9319 61.54 76.8515 62.4649 74.7322 63.3254C73.8422 63.6871 72.2594 64.448 71.2341 65.1247C70.9864 63.9468 70.9479 62.4641 70.9077 60.9158C70.8449 58.5057 70.7802 56.0135 69.9582 53.9898C68.2991 49.9052 63.6031 46.8077 58.538 46.4573C54.2667 46.1616 50.7312 47.8705 48.8412 51.1423C48.4868 51.7558 48.0244 52.4197 47.536 53.1227C46.3749 54.791 45.063 56.6777 44.7714 58.5496C44.701 58.9998 44.8333 59.9304 45.0545 61.4114C45.1869 62.2971 45.3928 63.6741 45.4004 64.3303C44.3202 64.0302 41.3615 62.7508 39.6799 62.0234C38.3252 61.4375 37.544 61.1015 37.2427 61.0084C33.3434 59.8024 29.4584 60.0669 26.3042 61.7532C24.5451 62.6932 23.0611 64.0337 21.896 65.717ZM29.1368 87.946C29.4476 87.497 29.5895 87.0617 29.5095 86.6421C29.4561 86.3486 29.4561 86.3486 28.2404 85.8569C27.0693 85.3833 23.9581 84.1247 23.6207 83.9078C20.464 81.5349 19.7455 74.1395 20.8255 70.506C21.8885 66.9297 23.9592 64.2327 26.8135 62.707C29.7112 61.1578 33.3015 60.9216 36.9228 62.0415C37.1826 62.1219 38.1869 62.556 39.25 63.0158C45.4908 65.7147 45.8516 65.709 46.2453 65.2614C46.6033 64.8537 46.541 64.0413 46.1241 61.2514C45.9759 60.2598 45.7915 59.0258 45.8398 58.7158C46.0932 57.0903 47.3313 55.3104 48.4235 53.7403C48.9251 53.0187 49.4003 52.3362 49.7774 51.6835C51.4539 48.7825 54.6198 47.2701 58.4631 47.5363C63.1318 47.8593 67.4464 50.6803 68.9558 54.3969C69.7038 56.2383 69.7659 58.6303 69.8261 60.9439C69.8814 63.0641 69.9333 65.0668 70.5212 66.5146C70.6432 66.8158 70.9092 66.9013 71.1001 66.8829C71.521 66.8422 71.6009 66.4331 71.631 66.2789C71.6378 66.2432 71.6488 66.1874 71.6594 66.1431C72.5057 65.5504 74.0979 64.7508 75.139 64.3277C77.1252 63.521 79.9932 62.6508 82.3766 63.0869C89.1779 64.3311 95.4908 72.6168 96.3835 78.9146C96.5715 80.2403 94.5036 83.4557 90.9872 87.3063C89.4536 88.9856 87.9633 90.4468 86.7545 91.5369C85.4155 91.5046 84.3489 92.0956 83.7213 93.2582C83.5894 93.5027 83.2806 94.0751 83.656 94.467C83.8905 94.7117 84.228 94.7293 84.6591 94.5196C85.1874 94.2628 86.0746 93.5816 87.1348 92.6463C87.4179 92.6877 87.72 92.7624 88.0417 92.8706C91.9336 94.1808 96.3689 99.6321 95.7463 103.627C95.2685 106.693 92.7113 111.161 90.6163 113.543C85.4192 119.453 75.9161 121.135 68.8034 120.181C68.1294 120.091 67.2786 119.659 66.4561 119.242C65.3485 118.681 64.2032 118.101 63.1815 118.166C62.9247 118.182 62.7044 118.315 62.5774 118.53C62.2307 119.115 62.6303 120.111 63.625 122.245C63.9081 122.853 64.2956 123.685 64.3207 123.894C64.4965 126.647 60.5103 129.504 58.0066 129.665C51.3028 130.095 44.1642 123.577 41.2361 118.811C40.8264 118.145 40.7532 117.266 40.6754 116.336C40.5922 115.339 40.506 114.308 39.9666 113.491C39.303 112.485 37.7139 113.383 36.3118 114.175C35.9227 114.395 35.4382 114.669 35.2733 114.71C33.1577 115.236 30.5135 115.356 28.6931 115.009C22.7241 113.87 19.8895 106.825 19.2758 101.137C18.8523 97.2146 19.9133 94.6964 22.9386 92.447C23.0933 92.3318 23.4991 92.0904 23.969 91.811C26.2238 90.4691 28.297 89.1594 29.1368 87.946Z" fill="#231F20"/>
</svg>
