<svg width="150" height="277" viewBox="0 0 150 277" fill="none" xmlns="http://www.w3.org/2000/svg">
<path d="M33.3589 28.0642C33.2597 25.0775 33.4857 22.0044 34.7294 19.2871C35.9731 16.5699 38.3872 14.2515 41.3356 13.7654C44.3259 13.2722 47.3274 14.6944 49.7043 16.575C53.7095 19.7438 56.6566 24.9654 55.332 29.8975C58.7395 27.1205 62.3609 24.2431 66.6978 23.5241C71.0348 22.8051 76.2124 25.1496 76.9843 29.4775C77.8807 34.5024 72.8754 38.4159 68.4995 41.0445C74.4615 40.9627 80.3394 44.4144 83.1729 49.6606C83.7254 50.6838 84.1781 51.8215 84.0671 52.9792C83.9131 54.5849 82.7244 55.8828 81.5223 56.9586C78.6344 59.5433 75.1502 61.6637 71.2982 62.0907C67.446 62.5172 63.2163 60.9425 61.2761 57.5874C58.4966 61.9417 55.0642 65.8784 51.1284 69.2243C48.1767 71.7341 44.5222 74.0193 40.689 73.4561C37.5623 72.9963 34.8442 70.4717 34.1557 67.3874C33.4672 64.3031 34.8527 60.8622 37.4865 59.1158C33.9022 57.5131 29.7209 59.9532 25.8518 59.286C21.4129 58.5205 18.7483 54.063 16.6789 50.0625C15.2406 47.2825 13.7738 44.0343 14.9823 41.1468C16.2614 38.0908 19.987 36.8935 23.297 36.7595C25.4547 36.6722 31.2747 38.7155 32.8742 37.8271C35.4244 36.4104 33.4353 30.3696 33.3589 28.0642Z" fill="#F68F8D"/>
<path d="M11.5967 64.8329C17.5789 65.0755 22.483 71.5259 21.1164 77.3548C22.868 72.6942 28.2662 69.5552 33.0786 70.8303C37.8914 72.1054 41.0384 78.0202 38.9808 82.5541C37.1596 86.5662 32.4634 88.3483 28.1317 89.1549C33.2196 89.4746 36.3256 94.8085 38.057 99.6031C38.7259 101.455 39.3389 103.394 39.1717 105.356C39.005 107.318 37.8777 109.322 36.0144 109.96C34.1168 110.61 32.0698 109.732 30.2578 108.872C27.3058 107.471 24.2898 106.025 21.9839 103.71C24.0334 108.845 19.3184 115.331 13.8017 114.967C8.2843 114.602 4.46472 107.551 7.17226 102.731C4.62057 103.891 2.01036 105.067 -0.779574 105.34C-3.56951 105.612 -6.62147 104.822 -8.38486 102.643C-16.1355 93.0629 1.05864 88.9854 1.81985 81.9999C2.2385 78.1589 0.156791 75.0449 1.94839 71.1247C3.62033 67.4684 7.4961 64.6665 11.5967 64.8329Z" fill="#F68F8D"/>
<path d="M68.7302 96.6969C70.0386 94.5703 71.7349 92.5564 74.0303 91.573C76.7847 90.3927 80.2038 90.965 82.4237 92.978C84.6436 94.991 85.547 98.3378 84.641 101.194C87.8385 96.6092 92.9935 93.123 98.5829 93.0533C104.173 92.9831 109.867 96.9911 110.677 102.522C111.488 108.053 106.151 113.906 100.684 112.74C105.21 114.802 109.817 117.123 112.962 120.976C116.108 124.829 117.405 130.621 114.751 134.828C112.542 138.331 108.257 139.904 104.18 140.633C100.615 141.27 96.8318 141.423 93.4735 140.067C90.1152 138.71 87.2968 135.554 87.2231 131.932C86.3019 139.156 81.8317 145.842 75.5078 149.454C74.5983 149.974 73.6074 150.444 72.5601 150.424C71.6336 150.407 70.7601 150.007 69.9423 149.572C65.9445 147.445 62.2583 143.676 62.3479 139.149C62.4046 136.279 63.9569 133.686 65.3777 131.192C65.7192 130.592 66.0667 129.943 66.0114 129.256C65.8825 127.663 63.8043 127.053 62.2279 127.314C60.6515 127.574 59.0252 128.282 57.5202 127.746C56.1925 127.273 55.3768 125.965 54.6977 124.73C52.4838 120.706 50.859 115.063 54.3104 112.032C56.2316 110.345 58.4831 110.551 60.8304 110.722C64.4399 110.985 63.6075 112.049 64.8073 108.887C66.3712 104.765 66.2729 100.691 68.7302 96.6969Z" fill="#F68F8D"/>
<path d="M99.7811 143.726C101.73 143.691 103.613 144.592 105.074 145.882C106.724 147.34 107.952 149.682 107.125 151.723C107.642 149.065 108.958 146.567 110.858 144.638C111.742 143.742 112.773 142.952 113.971 142.565C116.942 141.604 120.395 143.565 121.503 146.485C122.611 149.404 121.579 152.878 119.371 155.086C117.162 157.294 113.964 158.326 110.841 158.354C112.06 159.926 113.302 161.537 113.937 163.422C114.572 165.307 114.499 167.552 113.248 169.099C111.794 170.896 109.03 171.278 106.919 170.335C104.808 169.391 103.33 167.363 102.576 165.178C100.88 166.594 99.5814 168.457 97.7994 169.763C96.0173 171.07 93.4183 171.7 91.6455 170.381C89.9681 169.133 89.7372 166.594 90.5519 164.669C91.3666 162.744 92.9778 161.289 94.5402 159.9C92.554 160.234 90.5193 160.567 88.538 160.207C86.5563 159.847 84.6043 158.649 83.9088 156.758C82.9298 154.097 84.8562 151.056 87.4348 149.878C89.6447 148.868 92.2021 149.527 94.1302 148.109C96.3967 146.444 96.1737 143.79 99.7811 143.726Z" fill="#F68F8D"/>
<path d="M33.1282 175.341C35.9758 173.741 39.7147 174.391 42.3427 176.33C44.9707 178.269 46.6199 181.284 47.6336 184.389C48.2598 181.385 50.7518 178.989 53.6301 177.926C56.5085 176.863 59.7115 176.987 62.702 177.674C65.7863 178.381 69.0948 180.072 69.8618 183.142C70.5792 186.015 68.7197 188.966 66.3664 190.764C64.013 192.562 61.1647 193.591 58.6887 195.216C63.5007 195.389 68.2117 197.544 71.4888 201.072C72.7451 202.424 73.829 204.054 74.0088 205.892C74.2916 208.788 72.2903 211.412 70.0835 213.309C67.1802 215.804 63.4894 217.692 59.6721 217.406C55.8547 217.121 52.1102 214.101 51.9906 210.274C51.2388 215.385 49.1316 220.29 45.9421 224.353C43.126 227.941 38.127 231.017 34.2224 228.659C30.3471 226.319 30.6824 220.648 31.7947 216.259C32.4406 213.71 33.3103 210.997 35.4339 209.448C32.6936 210.374 30.4788 212.392 27.9497 213.796C25.4206 215.2 22.089 215.915 19.7516 214.211C17.8732 212.841 17.2214 210.253 17.5487 207.951C17.876 205.65 19.0139 203.556 20.1321 201.518C21.6298 198.789 23.1727 196.281 25.4064 194.096C26.8468 192.686 28.849 191.768 29.4724 189.713C31.0054 184.657 26.7635 178.916 33.1282 175.341Z" fill="#F68F8D"/>
<path d="M18.8639 164.829C20.5841 167.334 21.8054 170.4 21.2303 173.384C20.6548 176.368 17.7735 179.013 14.7804 178.485C16.9282 179.349 18.3103 181.47 19.1635 183.623C20.3732 186.675 20.757 190.255 19.2505 193.171C17.744 196.088 13.9401 197.909 10.9939 196.461C8.32457 195.149 7.31196 191.93 6.56542 189.05C8.01594 193.112 6.52578 198.1 2.95249 200.516C-0.620791 202.932 -5.97272 202.36 -8.79432 199.098C-11.6159 195.836 -11.3078 190.272 -8.00549 187.498C-9.75741 190.092 -12.9538 191.765 -16.0521 191.319C-19.1504 190.872 -21.8615 188.084 -21.8491 184.954C-21.8373 181.961 -19.594 179.437 -17.158 177.699C-13.9884 175.436 -10.223 174.242 -6.39949 175.308C-7.74145 172.941 -12.4257 168.469 -9.41436 165.45C-7.68543 163.716 -5.17542 165.078 -3.21963 165.732C4.79288 168.408 10.9449 168.212 18.8639 164.829Z" fill="#F68F8D"/>
<path d="M-56.6007 145.087C-51.9008 126.403 -41.899 107.486 -24.387 99.4545C-32.1457 115.448 -40.3392 131.231 -48.9542 146.781C-37.5266 142.37 -26.0993 137.958 -14.6717 133.547C-10.0569 131.766 -5.35285 129.964 -0.416056 129.65C3.88671 129.376 8.18695 130.247 12.4981 130.177C25.2019 129.97 36.7058 121.378 43.1784 110.444C49.6505 99.5108 51.7819 86.5436 52.3977 73.853C55.6251 77.7854 57.966 82.4408 59.1988 87.3767C67.6485 75.6584 81.0356 67.6244 95.351 65.6811C78.2555 83.5851 61.1593 101.489 44.0638 119.393C41.9143 121.643 39.7575 125.37 42.0508 127.474C43.6183 128.912 46.0699 128.279 48.1931 128.146C51.6355 127.932 55.1434 129.4 57.4064 132.003C41.2398 138.29 24.3703 142.77 7.21448 145.331C13.3407 150.398 20.6896 153.976 28.457 155.673C35.2906 157.166 42.394 157.221 49.1695 158.958C54.8344 160.41 60.1959 163.021 65.9708 163.941C74.6352 165.321 83.8921 162.844 92.0699 166.022C96.5109 167.748 100.289 171.122 102.504 175.341C102.831 175.964 103.13 176.69 102.89 177.35C102.706 177.855 102.244 178.201 101.781 178.472C98.6366 180.318 94.7197 179.966 91.0961 179.556C74.7699 177.708 58.4433 175.86 42.1171 174.012C38.5498 173.609 34.927 173.191 31.6137 171.809C26.6214 169.726 22.7126 165.617 17.8035 163.345C13.7039 161.448 8.97905 160.866 5.29003 158.258C0.715321 155.024 -1.67862 149.065 -6.76734 146.721C-13.3017 143.711 -20.6871 147.989 -26.7211 151.906C-48.6956 166.172 -72.4128 177.75 -97.176 186.303C-99.1669 186.991 -101.262 187.668 -103.342 187.338C-108.014 186.596 -110.4 181.353 -111.392 176.729C-112.347 172.277 -116.7 165.398 -112.197 163.18C-106.648 160.446 -99.2773 159.628 -93.3846 157.224C-87.2178 154.707 -81.1674 151.902 -74.9127 149.604C-73.2014 148.975 -56.6438 145.259 -56.6007 145.087Z" fill="#4E3B31"/>
<path d="M-7.92 128.233C-7.95275 129.208 -7.81427 130.301 -7.06078 130.922C-6.64955 131.26 -6.11662 131.403 -5.62134 131.6C-4.08615 132.211 -2.85142 133.393 -1.39926 134.182C1.34406 135.672 4.86454 135.617 7.55932 134.04C5.96422 134.973 0.0340889 120.119 -1.11553 119.467C-5.11155 117.202 -7.81905 125.237 -7.92 128.233Z" fill="#BED665"/>
<path d="M48.9109 149.108C51.9058 145.834 44.4889 130.772 39.9685 137.755C36.7851 142.672 43.6016 154.913 48.9109 149.108Z" fill="#BED665"/>
<path d="M17.0503 198.597C14.6558 199.544 12.3999 199.508 10.6287 198.478C9.69281 197.934 8.88581 196.792 8.24479 195.542C5.79965 200.089 0.927255 205.57 -3.69261 204.71C-7.10408 204.076 -9.81396 199.154 -10.4626 194.762C-10.6769 193.31 -10.6506 192.008 -10.3987 190.904C-12.6146 191.169 -14.8012 191.169 -15.4815 190.889C-19.3372 189.297 -19.9985 183.278 -18.7597 179.833C-17.8649 177.346 -15.1385 173.37 -12.1359 172.724C-10.9123 172.462 -9.49795 173.185 -8.25016 173.822C-8.05969 173.92 -7.82995 174.037 -7.60861 174.144C-7.83284 173.078 -8.41094 172.172 -9.01577 171.226C-10.4167 169.033 -12.0048 166.547 -9.18521 162.192C-8.1359 160.572 -6.98886 159.735 -5.68042 159.634C-3.397 159.458 -1.49172 161.594 0.525729 163.854C2.37509 165.927 4.28723 168.07 6.13785 168.028C8.44532 167.976 10.575 167.203 12.6345 166.455C16.2574 165.138 20.0038 163.777 22.6961 168.129C26.2386 173.856 21.6286 177.599 19.1522 179.61C18.6356 180.03 17.9625 180.576 17.6664 180.92C17.9363 181.006 18.3761 181.081 18.6694 181.13C19.6814 181.301 20.8288 181.495 21.5394 182.359C23.8742 185.198 25.0744 190.222 23.042 193.715C22.0267 195.461 20.0318 197.2 17.8353 198.253C17.5717 198.38 17.3101 198.494 17.0503 198.597ZM9.45585 192.819C10.0749 194.438 10.985 196.132 11.7385 196.571C13.5084 197.6 15.7186 196.819 16.8795 196.264C18.6711 195.405 20.3407 193.969 21.1334 192.606C22.6621 189.978 21.649 185.969 19.8339 183.761C19.6471 183.534 18.8361 183.397 18.2995 183.307C17.2009 183.121 15.3625 182.809 15.3385 181.025C15.3229 179.876 16.3451 179.046 17.76 177.898C20.9214 175.331 23.1536 173.067 20.8181 169.292C19.1438 166.586 17.2251 167.136 13.3872 168.53C11.2637 169.301 8.85689 170.176 6.18667 170.236C3.31749 170.301 0.959055 167.658 -1.12191 165.325C-2.69322 163.565 -4.31703 161.744 -5.51159 161.836C-6.08168 161.88 -6.6933 162.405 -7.33373 163.393C-9.38151 166.557 -8.44829 168.017 -7.15704 170.039C-6.3019 171.376 -5.33331 172.893 -5.30496 174.981C-5.29281 175.85 -5.74647 176.263 -6.01775 176.432C-6.91284 176.988 -7.94569 176.458 -9.25476 175.789C-9.98898 175.414 -11.2182 174.787 -11.6743 174.884C-13.6657 175.307 -15.9311 178.489 -16.6838 180.581C-17.5981 183.125 -17.1323 187.821 -14.6406 188.85C-13.9518 189.055 -11.3098 188.854 -9.24032 188.499C-8.89007 188.097 -8.47451 187.768 -7.99687 187.522C-6.95515 186.902 -6.25016 186.709 -5.65512 186.88C-5.29262 186.983 -4.9997 187.222 -4.82959 187.551C-4.53543 188.119 -4.63342 188.779 -5.08589 189.271C-5.55187 189.781 -6.63109 190.187 -7.92763 190.485C-8.39131 191.399 -8.52495 192.777 -8.27914 194.441C-7.70906 198.301 -5.33097 202.162 -3.28934 202.542C-0.183983 203.12 4.19036 198.671 6.4635 194.22C6.72836 193.702 6.94206 193.229 7.11347 192.801C6.86928 192.059 6.70611 191.423 6.63388 191.023C6.43377 189.909 6.36541 188.454 7.17481 187.84C7.58078 187.533 8.11153 187.486 8.59373 187.72C9.41125 188.115 10.6136 189.292 9.48253 192.74C9.47399 192.766 9.46513 192.792 9.45585 192.819Z" fill="#231F20"/>
<path d="M46.9661 39.9618C46.63 40.0949 46.2365 40.0626 45.9257 39.8495C45.2108 39.3591 45.3887 38.7181 45.8183 37.1694C45.9484 36.6992 46.2819 35.5399 46.5633 34.9291C47.0291 33.9169 47.7527 33.988 48.0413 34.0646C49.044 34.3324 48.9449 35.4183 48.8861 36.0673C48.8088 36.9168 48.5067 38.519 47.3529 39.7048C47.2411 39.8193 47.1086 39.9055 46.9661 39.9618ZM47.7869 35.9673L47.791 35.9657L47.7869 35.9673Z" fill="#231F20"/>
<path d="M50.5516 55.5135C50.0833 55.6988 49.533 55.5439 49.236 55.1113C48.9894 54.7522 48.82 54.5173 48.6989 54.3492C48.3185 53.8209 48.2639 53.7143 48.0546 53.0775C47.9966 52.902 47.9197 52.6671 47.8048 52.337C47.605 51.7615 47.8997 51.1411 48.4843 50.9316C49.0597 50.7314 49.6889 51.0354 49.8897 51.6111C50.0102 51.9575 50.0914 52.2035 50.1515 52.3877C50.2734 52.7581 50.2734 52.7581 50.4891 53.0573C50.6167 53.2346 50.7955 53.4824 51.0558 53.8618C51.4008 54.3642 51.2731 55.0514 50.7701 55.3962C50.7006 55.445 50.6271 55.4836 50.5516 55.5135Z" fill="#231F20"/>
<path d="M86.3117 111.949C86.0346 112.059 85.7144 112.057 85.4248 111.917C84.876 111.651 84.6461 110.991 84.9114 110.443L85.322 109.594C85.5046 109.217 85.884 108.976 86.3012 108.971L86.9642 108.962L88.0532 108.582C88.6289 108.381 89.2579 108.684 89.4587 109.26C89.6591 109.836 89.3435 110.464 88.7804 110.666L87.5215 111.105C87.4089 111.145 87.2914 111.166 87.1722 111.167L87.0113 111.169L86.8973 111.404C86.7731 111.663 86.5596 111.851 86.3117 111.949Z" fill="#231F20"/>
<path d="M77.0096 109.967C76.6184 110.122 76.1553 110.044 75.8336 109.732L74.9784 108.9C74.7689 108.695 74.6484 108.416 74.6441 108.123L74.6044 105.173C74.6021 105.002 74.6394 104.832 74.7145 104.678L75.5354 102.979C75.801 102.429 76.4601 102.201 77.0089 102.466C77.5577 102.731 77.7876 103.391 77.5223 103.939L76.815 105.403L76.8452 107.636L77.3729 108.149C77.8098 108.574 77.8194 109.272 77.3948 109.709C77.2816 109.825 77.1499 109.911 77.0096 109.967Z" fill="#231F20"/>
<path d="M41.8984 230.27C41.7166 230.342 41.5331 230.408 41.3497 230.466C39.1341 231.17 35.8886 231.129 33.0094 226.934C31.3349 224.494 30.6415 219.18 31.4327 215.227C30.0155 215.762 28.9058 216.082 28.8774 216.087C24.8118 216.724 19.5112 211.109 17.9278 208.046C17.0327 206.314 17.1019 204.038 18.1276 201.464C19.6667 197.602 23.044 193.932 25.9499 192.905C26.4948 192.715 27.4886 192.643 29.1985 192.531C30.2953 192.459 32.0698 192.343 32.6906 192.177C33.3701 190.942 32.6543 188.713 31.9606 186.555C31.3018 184.504 30.6206 182.384 30.9534 180.597C31.7759 176.173 34.3612 174.888 36.3858 174.588C41.4822 173.835 47.9032 178.466 50.1048 182.172C50.77 181.938 52.0603 181.173 53.1382 180.537C57.555 177.928 64.2315 173.985 68.6224 178.259C72.9094 182.431 73.2164 188.932 69.4057 194.819C68.8963 195.606 68.0922 196.46 67.1176 197.14C68.8645 197.821 70.363 198.847 71.5275 200.184C73.7694 202.76 74.6257 206.275 74.0034 210.348C73.6187 212.865 72.0494 215.094 69.584 216.624C66.495 218.541 62.3139 219.158 59.1785 218.161C58.029 217.794 55.2415 216.775 53.1698 214.952C51.5712 220.788 47.0606 228.227 41.8984 230.27ZM34.0298 214.113C32.7812 217.228 33.283 223.433 34.8291 225.685C36.549 228.191 38.4633 229.067 40.6815 228.362C46.2812 226.595 51.6492 216.015 51.58 210.892C51.5647 209.746 52.3618 209.597 52.6053 209.579C52.9944 209.55 53.6702 209.669 53.8268 210.801C54.0607 212.501 54.2778 212.941 54.3599 213.052C55.5571 214.214 57.6181 215.348 59.849 216.058C62.3642 216.859 65.8891 216.32 68.4206 214.75C69.7701 213.912 71.4564 212.41 71.8217 210.015C72.3432 206.603 71.6662 203.705 69.8631 201.634C68.2799 199.816 65.8811 198.707 63.0026 198.435C62.822 198.438 62.6297 198.439 62.4261 198.438C61.0307 198.429 60.6557 198.427 60.2909 197.965C60.0303 197.635 59.9795 197.185 60.1602 196.805C60.459 196.176 61.0755 196.167 61.3383 196.164C61.9305 196.157 62.5097 196.177 63.0748 196.225C63.4865 196.216 63.8651 196.194 64.0733 196.149C65.4783 195.85 66.887 194.65 67.5532 193.621C70.1106 189.67 71.3298 183.975 67.0834 179.841C63.9007 176.744 58.0996 180.17 54.2606 182.437C51.6758 183.965 50.3868 184.684 49.3253 184.379C48.9105 184.259 48.573 183.984 48.3754 183.602C48.3754 183.602 48.3754 183.602 48.3752 183.602C46.6191 180.205 40.5297 176.207 36.7079 176.772C34.7699 177.058 33.599 178.442 33.1229 181.002C32.8923 182.24 33.4867 184.091 34.0616 185.881C34.9593 188.674 35.8864 191.563 34.3592 193.658C33.8319 194.382 32.7002 194.514 29.3422 194.734C28.3487 194.799 26.9872 194.888 26.6741 194.991C24.3661 195.796 21.4601 199.063 20.1767 202.282C19.406 204.216 19.3032 205.903 19.8873 207.033C21.37 209.901 26.0255 214.3 28.5346 213.907C29.1175 213.788 30.826 213.152 32.3934 212.432C32.5361 212.175 32.6911 211.937 32.8589 211.721C32.985 211.559 33.1246 211.35 33.2744 211.129C33.9484 210.132 34.6466 209.101 35.6893 208.994C36.1711 208.945 36.6363 209.112 37.0001 209.467C37.5042 209.957 37.6742 210.613 37.4663 211.267C37.1345 212.313 35.6626 213.305 34.0298 214.113ZM50.3356 182.585C50.336 182.586 50.3363 182.587 50.3366 182.588L50.3364 182.587C50.3363 182.587 50.336 182.586 50.3356 182.585Z" fill="#231F20"/>
<path d="M50.1186 49.8142C49.6117 50.0148 49.0344 50.1241 48.4008 50.1328C47.1885 50.1487 46.291 49.516 46.0013 48.4396C45.4378 46.3454 47.5185 42.4396 48.394 41.9468C49.1622 41.5141 50.0657 41.6318 50.8109 42.2612C52.0115 43.2738 52.8633 45.7594 52.1666 47.7067C51.8097 48.7039 51.0938 49.4282 50.1186 49.8142ZM48.1482 47.9123C48.158 47.9084 48.2276 47.9283 48.3711 47.9261C49.7788 47.9073 50.0738 47.1881 50.1712 46.6497C50.3723 45.5433 49.8256 44.3563 49.445 43.9895C48.7867 44.9303 47.8324 47.365 48.1473 47.9126C48.1478 47.9124 48.1482 47.9123 48.1482 47.9123ZM48.9351 42.9086L48.9392 42.907L48.9351 42.9086Z" fill="#231F20"/>
<path d="M52.9683 72.2956C51.873 72.7296 50.5222 73.0757 48.8506 73.3072C48.4691 73.3604 48.0597 73.4318 47.633 73.5052C45.6117 73.8556 43.0958 74.2916 41.0529 73.3051C36.345 71.0297 34.0373 65.4111 35.6841 60.2362C35.8007 59.871 36.0764 59.4605 36.5942 58.7058C36.6893 58.567 36.8138 58.3862 36.9444 58.1907C36.6424 58.2685 36.4577 58.3045 36.284 58.3068L35.9483 58.3115C31.5246 58.376 23.2908 58.4957 21.6596 53.0667C20.9824 50.8134 19.8809 38.3139 23.09 35.839C25.634 33.8765 31.0941 34.3461 32.8068 34.6647C33.5953 34.8112 34.4162 35.386 35.2124 35.9558C35.0718 34.8497 34.811 33.7348 34.5391 32.5753C33.7478 29.1965 32.8514 25.3661 35.2567 21.232C38.4394 15.7625 42.5926 15.9119 44.7862 16.4874C50.2205 17.9138 55.0604 24.6047 55.1445 30.8065C55.1527 31.4043 55.2579 31.6375 55.294 31.7001C56.0954 31.8729 59.0634 29.7559 60.8443 28.4847C65.2568 25.337 70.258 21.7693 73.2899 24.7209C76.6925 28.0332 75.9313 34.4623 75.446 37.0722C75.3106 37.7999 74.6157 38.4718 73.1824 39.8019C72.7797 40.1759 72.2201 40.6955 71.7873 41.1421C72.1119 41.1371 72.4551 41.119 72.7211 41.1049C73.7679 41.0499 74.8506 40.9931 75.6738 41.3097C80.3203 43.0953 83.2725 50.1578 82.4299 54.6874C80.9182 62.8149 69.8253 64.1768 63.3469 64.265C61.0232 64.2964 60.3693 63.3565 59.7562 62.1242C59.5671 61.7447 59.3718 61.352 59.0463 60.9301C58.984 60.8494 58.9294 60.7632 58.8798 60.6727C58.2228 61.9154 58.0761 63.2899 57.9223 64.7223C57.6269 67.5048 57.2973 70.5824 52.9683 72.2956ZM36.1969 56.1015C36.3098 56.0787 36.582 56.0047 36.7847 55.9496C38.2281 55.5578 39.2713 55.2741 39.7725 56.2407C40.2601 57.1837 39.5742 58.267 38.4139 59.9557C38.1718 60.3084 37.8409 60.7906 37.7747 60.9412C36.4929 64.9739 38.3489 69.5473 42.0132 71.3186C43.4177 71.997 45.4568 71.6434 47.256 71.3315C47.7091 71.2529 48.1432 71.1779 48.5478 71.1217C55.1165 70.2097 55.3746 67.8104 55.7298 64.4891C55.9594 62.3451 56.2188 59.9143 58.2645 57.8129C58.6047 57.4633 59.0693 57.3249 59.5081 57.4418C60.2841 57.6474 60.4824 58.4173 60.6426 59.0356C60.6881 59.2117 60.7629 59.5016 60.8145 59.608C61.2607 60.1919 61.5226 60.7182 61.7336 61.1422C62.1452 61.9686 62.1978 62.0751 63.3191 62.0595C67.9904 61.9957 78.9921 61.1114 80.2618 54.2855C80.9324 50.6804 78.4448 44.7405 74.8838 43.3717C74.4988 43.224 73.5783 43.2722 72.8384 43.311C71.5963 43.3763 70.4232 43.4375 69.6155 42.9141C69.2505 42.6778 69.0194 42.2955 68.9819 41.866C68.8917 40.8297 69.846 39.8919 71.6828 38.1865C72.2466 37.6629 73.0849 36.8853 73.2972 36.5677C73.6369 34.6853 74.4148 28.8958 71.7529 26.3047C70.04 24.6384 65.4672 27.9018 62.1278 30.2835C58.6251 32.782 56.095 34.5876 54.2802 33.668C53.4094 33.2274 52.9585 32.275 52.9386 30.8383L54.0423 30.8236L52.9386 30.8383C52.8693 25.7173 48.6358 19.7814 44.2273 18.6246C41.4477 17.8951 39.0051 19.1808 37.1655 22.3437C35.2017 25.7196 35.9243 28.8061 36.6895 32.0747C37.0889 33.7808 37.5011 35.5446 37.5264 37.3718C37.5384 38.243 37.0206 38.6079 36.7974 38.7242C35.9269 39.1827 35.0761 38.5742 34.0026 37.8051C33.5286 37.4662 32.7353 36.8976 32.4044 36.8364C30.1022 36.4087 25.9423 36.432 24.4388 37.5882C22.7327 38.9043 22.886 49.478 23.7744 52.4329C24.9256 56.2665 32.3493 56.1583 35.9171 56.1059L36.1969 56.1015ZM60.7948 59.5821C60.7958 59.5836 60.7967 59.5846 60.7978 59.5861C60.7966 59.5842 60.7958 59.5836 60.7948 59.5821ZM36.2435 56.1006L36.254 56.1008C36.2502 56.1008 36.2473 56.1006 36.2435 56.1006ZM55.3068 31.7193L55.3109 31.7176L55.3068 31.7193Z" fill="#231F20"/>
<path d="M92.276 116.506C91.9985 116.616 91.6783 116.614 91.3885 116.473L90.7751 116.177L86.8198 116.23C86.2106 116.238 85.7101 115.751 85.7015 115.141C85.6933 114.532 86.1809 114.031 86.7904 114.023L91.0071 113.966C91.1783 113.964 91.3478 114.001 91.5024 114.076L92.3502 114.487C92.899 114.752 93.1281 115.412 92.8628 115.961C92.7376 116.22 92.5239 116.408 92.276 116.506Z" fill="#231F20"/>
<path d="M45.7494 43.3508C45.6279 43.3989 45.4962 43.4258 45.3583 43.4277L44.5149 43.4391C44.1457 43.4443 43.7986 43.2641 43.5894 42.9599L42.7299 41.7069C42.6072 41.5276 42.54 41.3159 42.537 41.0982L42.5196 39.8333C42.5109 39.2234 43.0007 38.7229 43.6079 38.7147C44.2174 38.7061 44.7179 39.1935 44.7265 39.803L44.7394 40.7341L45.076 41.2246L45.3281 41.2212C45.9376 41.2126 46.4383 41.7005 46.4467 42.3095C46.4533 42.7807 46.1631 43.187 45.7494 43.3508Z" fill="#231F20"/>
<path d="M81.2184 109.489C81.0969 109.537 80.9648 109.564 80.8263 109.566L79.9832 109.576C79.3742 109.585 78.8735 109.097 78.8655 108.488L78.8542 107.645C78.8508 107.406 78.9252 107.173 79.0661 106.979L80.2496 105.357L81.027 103.749C81.2926 103.199 81.9517 102.97 82.5005 103.235C83.0493 103.5 83.2792 104.16 83.0139 104.709L82.1933 106.406C82.1647 106.466 82.1306 106.523 82.0915 106.576L81.3989 107.526C81.7053 107.719 81.9108 108.058 81.9156 108.447C81.9219 108.919 81.6318 109.325 81.2184 109.489Z" fill="#231F20"/>
<path d="M58.4374 46.1302C58.1603 46.2399 57.8401 46.2379 57.5505 46.0976L56.9359 45.8006L55.6889 45.8175L54.5997 46.1973C54.0242 46.3975 53.395 46.0935 53.1942 45.5178C52.9935 44.9422 53.2793 44.3244 53.8737 44.1124L55.1325 43.674C55.2449 43.6353 55.3618 43.6141 55.4804 43.6128L57.1666 43.5897C57.3376 43.5875 57.5071 43.6248 57.6617 43.6999L58.5105 44.1103C59.0593 44.3754 59.2892 45.0354 59.0239 45.5838C58.899 45.844 58.6857 46.0319 58.4374 46.1302Z" fill="#231F20"/>
<path d="M72.8499 114.239C72.5725 114.349 72.2521 114.347 71.9625 114.206L71.1145 113.796C70.942 113.712 70.7943 113.585 70.6856 113.427L69.8249 112.174C69.7016 111.995 69.6337 111.783 69.6313 111.564L69.6204 110.721C69.612 110.112 70.1003 109.61 70.7096 109.604C71.3188 109.596 71.8195 110.083 71.8271 110.693L71.8341 111.201L72.3397 111.937L72.9245 112.22C73.4735 112.486 73.7026 113.146 73.4371 113.694C73.3112 113.953 73.0979 114.141 72.8499 114.239Z" fill="#231F20"/>
<path d="M78.5299 128.919C78.2097 129.046 77.8346 129.021 77.5234 128.819C77.0117 128.488 76.8652 127.805 77.1969 127.294C77.4496 126.903 77.5871 126.659 77.6874 126.482C78.0147 125.902 78.1851 125.745 78.8273 125.43C78.9432 125.374 79.0894 125.302 79.2798 125.204C79.8258 124.921 80.4877 125.136 80.7666 125.677C81.0464 126.219 80.8347 126.884 80.293 127.164C80.0846 127.272 79.9239 127.35 79.7978 127.412C79.7421 127.439 79.6961 127.461 79.6567 127.48C79.6425 127.505 79.6271 127.534 79.6086 127.566C79.501 127.757 79.3379 128.046 79.0488 128.492C78.9201 128.693 78.7359 128.837 78.5299 128.919Z" fill="#231F20"/>
<path d="M116.465 169.242C116.226 169.336 115.972 169.414 115.702 169.474C113.348 170 110.143 169.098 108.738 167.96C107.781 167.185 106.978 166.421 106.294 165.636C105.601 166.919 104.727 168.342 103.683 169.524C100.787 172.802 98.0985 172.484 96.3523 171.64C93.7079 170.362 92.3245 167.102 92.2384 161.948C90.5684 161.859 88.8763 161.448 88.4074 161.068C85.083 158.373 82.4571 156.245 85.9732 151.179C87.7983 148.55 89.6942 146.963 91.5998 146.457C92.6233 146.186 93.7059 146.755 94.6891 147.341C94.6634 147.27 94.6374 147.199 94.611 147.129C94.3107 146.319 93.9706 145.401 94.4225 144.442C94.7921 143.657 95.5718 143.094 96.9476 142.614C99.0816 141.871 102.79 141.551 105.476 146.566C106.393 145.448 107.903 144.539 109.824 144.031C113.183 143.144 117.206 143.771 118.621 147.174C119.236 148.653 119.296 149.93 118.799 150.97C118.02 152.597 116.149 153.147 114.779 153.548C116.269 154.388 116.672 154.662 116.899 154.957C118.936 157.597 120.048 164.141 118.437 167.475C118.046 168.281 117.372 168.882 116.465 169.242ZM107.785 163.983C108.419 164.742 109.186 165.483 110.128 166.245C110.989 166.943 113.508 167.703 115.221 167.32C116.163 167.109 116.378 166.661 116.449 166.514C117.575 164.184 116.883 158.639 115.199 156.369C114.901 156.143 113.811 155.534 113.214 155.2C111.785 154.401 111.527 154.257 111.52 153.581C111.501 152.205 112.907 151.795 114.147 151.432C115.174 151.132 116.452 150.759 116.807 150.017C117.021 149.567 116.946 148.896 116.582 148.021C115.678 145.846 112.819 145.522 110.387 146.165C108.139 146.76 106.556 148.111 106.705 149.31C106.841 150.413 106.171 150.695 105.878 150.763C105.23 150.916 104.754 150.576 104.462 149.754C102.907 145.371 100.623 143.67 97.6726 144.698C96.5719 145.08 96.4234 145.37 96.4178 145.382C96.3609 145.503 96.5604 146.04 96.6791 146.362C96.913 146.992 97.2039 147.778 97.2168 148.716C97.228 149.53 96.7871 149.905 96.5233 150.056C95.7053 150.528 94.8444 150.012 93.8545 149.415C93.4017 149.142 92.4595 148.572 92.1394 148.596C90.7927 148.952 89.2809 150.283 87.785 152.437C85.4528 155.798 86.4343 156.628 89.7286 159.299C90.2262 159.509 91.6454 159.718 92.7775 159.756C93.0779 159.05 93.5273 158.394 94.1996 158.229C94.4643 158.162 95.3749 158.037 95.9773 159.202C96.3879 159.996 96.2408 160.817 95.5938 161.344C95.3159 161.57 94.9186 161.725 94.4504 161.825C94.4474 161.842 94.4454 161.857 94.4432 161.872C94.5077 166.147 95.4726 168.765 97.3114 169.653C98.3075 170.134 99.8807 170.493 102.027 168.063C103.55 166.338 104.727 163.902 105.43 162.447C105.74 161.81 106.313 161.672 106.71 161.747C107.594 161.914 107.66 162.767 107.7 163.277C107.715 163.458 107.743 163.818 107.785 163.983ZM107.721 163.906C107.721 163.906 107.722 163.906 107.722 163.907C107.722 163.906 107.721 163.906 107.721 163.906ZM94.4436 161.826C94.4439 161.829 94.4436 161.832 94.4439 161.835C94.4436 161.832 94.4437 161.829 94.4436 161.826Z" fill="#231F20"/>
<path d="M82.5553 120.886C79.7171 122.009 77.3021 120.542 76.3709 118.488C75.459 116.475 75.8656 113.627 78.9134 112.128C80.2971 111.447 81.7356 111.549 82.9657 112.412C84.4753 113.47 85.3849 115.536 85.1777 117.437C85.0062 119.008 84.087 120.251 82.6557 120.845C82.6216 120.859 82.5886 120.873 82.5553 120.886ZM79.8871 114.109C78.0296 115.022 77.9147 116.548 78.3812 117.577C78.8856 118.689 80.1296 119.501 81.8076 118.807C82.5027 118.518 82.898 117.977 82.9832 117.198C83.103 116.097 82.5506 114.816 81.6984 114.219C81.134 113.823 80.5388 113.786 79.8871 114.109Z" fill="#231F20"/>
<path d="M99.6125 176.759C98.4674 177.212 96.4148 177.605 92.8368 178.07C92.6486 178.095 92.5198 178.111 92.4693 178.119C84.8243 179.5 76.8918 179.293 69.4595 178.864C53.8718 177.962 36.0075 176.403 21.2704 169.283C15.8463 166.662 11.3567 162.785 7.01482 159.035C0.81036 153.678 -5.0496 148.617 -13.3261 147.078C-19.6226 145.907 -31.3759 152.122 -37.6904 155.461C-38.4959 155.887 -39.2355 156.278 -39.8933 156.618C-43.9594 158.721 -48.0972 161.029 -52.478 163.472C-65.5053 170.738 -78.9764 178.253 -92.5146 181.454C-93.2751 181.633 -94.4161 182.05 -95.7373 182.532C-100.667 184.333 -107.418 186.798 -110.793 183.512C-112.314 182.032 -113.533 178.458 -114.855 174.287C-115.252 173.035 -115.594 171.955 -115.829 171.429C-115.891 171.289 -116.139 170.799 -116.402 170.279C-119.285 164.589 -119.36 164.165 -118.615 163.469C-117.739 162.65 -116.565 162.087 -115.315 161.886C-108.852 160.838 -103.143 159.193 -97.1004 157.451C-94.5427 156.714 -91.8978 155.952 -89.1602 155.228C-86.6148 154.555 -84.0774 153.992 -81.6238 153.448C-75.3804 152.063 -69.4828 150.757 -63.7676 147.8C-61.6548 146.708 -59.2686 141.928 -57.6899 138.766C-57.0242 137.432 -56.4493 136.281 -55.9446 135.447C-51.6782 128.412 -46.0965 121.442 -38.3777 113.512C-38.006 113.13 -37.6289 112.74 -37.2456 112.343C-34.5035 109.507 -31.3958 106.294 -28.2486 103.981C-28.0532 103.837 -26.3074 102.595 -25.145 103.173C-24.6797 103.405 -24.3969 103.865 -24.3898 104.405C-24.3578 106.711 -27.2941 110.124 -30.3039 113.423C-30.7083 113.866 -31.0458 114.235 -31.2722 114.502C-35.9021 119.94 -51.2858 142.061 -51.2251 146.51C-51.2231 146.64 -51.2063 146.803 -51.1363 146.842C-50.9402 146.952 -49.6952 147.369 -44.4783 144.817C-41.1579 143.194 -37.5338 141.021 -34.8881 139.434C-33.5432 138.628 -32.4812 137.991 -31.8616 137.671C-25.7342 134.502 -17.5563 134.403 -9.64275 134.304C-4.44743 134.239 0.460653 134.177 4.6169 133.287C25.5086 128.815 40.8376 117.584 48.9422 100.811C50.0525 98.5134 50.4435 92.8945 50.8214 87.4608C51.4116 78.9754 51.8782 73.694 53.9382 72.105C54.2447 71.8693 54.6901 71.8036 55.0489 71.9412C55.8072 72.2321 55.8983 72.7249 56.4883 75.9346C56.887 78.1054 58.0985 84.6933 59.2413 85.3319C59.2445 85.3325 59.2476 85.3332 59.2511 85.3337C59.3663 85.1054 59.534 84.7997 59.8094 84.4462C65.7189 76.8508 71.7695 71.9861 79.4278 68.6728C81.7603 67.6633 86.3317 65.9642 90.7772 65.9044C90.9674 65.9017 91.264 65.8688 91.5773 65.8341C92.7885 65.6989 93.9327 65.5708 94.5643 66.3415C94.8742 66.7192 94.9599 67.2236 94.8 67.7251C94.6404 68.2274 94.6374 68.2367 87.7735 73.2442C83.1551 76.613 76.8302 81.2263 75.7587 82.3273C72.1327 86.053 69.3829 90.1249 66.4729 94.4364C64.7294 97.0182 62.9263 99.6882 60.9304 102.254C59.0938 104.614 57.0982 106.968 54.9854 109.461C50.1425 115.175 45.1418 121.074 41.9895 127.235C44.5439 128.23 53.3959 130.039 54.9222 130.056C54.9598 130.048 54.9997 130.036 55.0396 130.025C55.3763 129.937 55.9397 129.788 56.4492 130.174C56.7466 130.4 56.9207 130.749 56.9265 131.132C56.9434 132.471 55.6301 133.137 47.3944 134.692C46.9044 134.784 46.5525 134.85 46.415 134.883C36.6408 137.194 26.1769 139.555 15.1649 140.808L14.7317 140.854C13.443 140.989 9.52091 141.4 8.65852 142.65C8.56367 142.789 8.47857 142.976 8.57065 143.326C9.83971 148.123 18.0016 151.824 25.2173 153.688C31.61 155.338 37.7676 157.495 43.7223 159.581C54.3928 163.319 64.4713 166.849 75.8123 167.725C80.8544 168.115 85.698 169.558 90.3825 170.952C92.7385 171.654 95.1749 172.38 97.5539 172.94L97.7343 172.98C98.8508 173.222 100.93 173.673 100.951 175.23C100.958 175.862 100.678 176.337 99.6125 176.759ZM-25.9047 147.354C-21.1904 145.488 -16.466 144.249 -12.9229 144.908C-4.05885 146.556 2.30389 152.051 8.45727 157.365C12.6906 161.02 17.0681 164.801 22.2304 167.295C36.6026 174.24 54.2109 175.771 69.5863 176.66C76.8827 177.082 84.658 177.288 92.0844 175.946C92.134 175.937 92.2994 175.915 92.5513 175.882C94.8051 175.588 96.2808 175.335 97.2465 175.131L97.0449 175.086C94.6051 174.511 92.1371 173.776 89.7505 173.066C85.1772 171.703 80.4479 170.295 75.64 169.924C64.0118 169.025 53.3253 165.282 42.9907 161.662C37.0787 159.591 30.9661 157.45 24.6636 155.822C20.8684 154.842 8.33859 151.084 6.43516 143.888C6.19656 142.986 6.33694 142.125 6.84052 141.395C8.10513 139.562 11.2699 138.996 14.5002 138.657L14.9138 138.613C25.8051 137.374 36.1958 135.029 45.9055 132.733C46.057 132.697 46.4441 132.623 46.9829 132.521C48.6552 132.205 49.9901 131.933 51.0527 131.697C49.8098 131.466 48.4498 131.187 47.2084 130.911C40.3835 129.395 39.9435 128.704 39.6804 128.291C39.4432 127.918 39.4127 127.465 39.5999 127.078C42.8399 120.372 48.1579 114.099 53.3004 108.032C55.3979 105.558 57.3793 103.221 59.1876 100.897C61.1384 98.39 62.9196 95.7511 64.6424 93.1997C67.4796 88.9983 70.413 84.6538 74.1764 80.7869C75.2898 79.6432 80.1863 76.0447 86.472 71.4597C88.1291 70.2513 89.8176 69.0191 91.0565 68.1C90.9699 68.1054 90.8869 68.1093 90.807 68.11C87.8399 68.1497 84.0114 69.0929 80.3044 70.6971C73.0043 73.855 67.2208 78.5132 61.5511 85.8002C61.3585 86.0478 61.2611 86.2454 61.1669 86.4369C60.6743 87.4365 60.0357 87.723 58.8095 87.4962C56.6614 87.0959 55.6494 83.578 54.3179 76.3331C54.3072 76.2771 54.297 76.2203 54.2865 76.1637C53.6219 79.0102 53.2879 83.81 53.0235 87.6127C52.6126 93.5149 52.225 99.0897 50.9293 101.77C42.5175 119.179 26.6619 130.824 5.07894 135.444C0.708099 136.38 -4.30671 136.443 -9.61531 136.51C-17.2716 136.605 -25.1877 136.705 -30.8479 139.63C-31.4055 139.919 -32.441 140.54 -33.7526 141.326C-43.4585 147.146 -49.5905 150.23 -52.2111 148.769C-52.6594 148.519 -53.4141 147.896 -53.4324 146.538C-53.5131 140.611 -36.1848 116.865 -32.9529 113.069C-32.7148 112.789 -32.3597 112.399 -31.9345 111.933C-30.8005 110.69 -28.2142 107.856 -27.1108 105.883C-30.0531 108.078 -33.0286 111.155 -35.6596 113.876C-36.0446 114.274 -36.4241 114.666 -36.7966 115.049C-44.3961 122.856 -49.881 129.701 -54.0579 136.59C-54.516 137.345 -55.072 138.459 -55.7161 139.749C-57.6259 143.575 -60.0023 148.336 -62.7548 149.758C-68.724 152.846 -74.7592 154.184 -81.147 155.601C-83.5792 156.14 -86.0946 156.698 -88.5968 157.359C-91.3107 158.077 -93.9438 158.836 -96.4904 159.57C-102.599 161.33 -108.369 162.994 -114.964 164.062C-114.964 164.062 -114.964 164.062 -114.964 164.062C-115.564 164.159 -116.148 164.387 -116.634 164.707C-116.189 165.818 -114.95 168.262 -114.435 169.28C-114.082 169.976 -113.894 170.349 -113.813 170.53C-113.53 171.169 -113.186 172.25 -112.752 173.618C-111.911 176.272 -110.503 180.715 -109.255 181.929C-106.873 184.247 -100.628 181.967 -96.4957 180.458C-95.1085 179.952 -93.9111 179.514 -93.0237 179.305C-79.7848 176.173 -66.4499 168.736 -53.5543 161.543C-49.1579 159.091 -45.0058 156.775 -40.9081 154.656C-40.2559 154.319 -39.5221 153.931 -38.7229 153.508C-35.2329 151.665 -30.5739 149.201 -25.9047 147.354Z" fill="#231F20"/>
<path d="M44.1657 50.9619C44.0442 51.0099 43.9125 51.0369 43.7742 51.0389L39.1381 51.1016C38.8454 51.1059 38.563 50.9931 38.3531 50.789C38.1432 50.5848 38.0232 50.3057 38.0189 50.013L38.0077 49.1701C37.9995 48.5605 38.4879 48.06 39.0965 48.0518C39.6165 48.0449 40.0564 48.3982 40.1805 48.8798L43.7447 48.8317C44.354 48.8237 44.8545 49.3111 44.8631 49.9206C44.8692 50.392 44.5795 50.7981 44.1657 50.9619Z" fill="#231F20"/>
<path d="M87.7534 125C87.4764 125.109 87.1561 125.107 86.8667 124.968L86.018 124.558C85.8032 124.454 85.6274 124.283 85.5181 124.07L84.652 122.397C84.3717 121.855 84.5833 121.189 85.1244 120.909C85.6706 120.628 86.332 120.841 86.6116 121.382L87.3095 122.73L87.8271 122.98C88.3761 123.246 88.6058 123.905 88.3411 124.454C88.2153 124.713 88.0018 124.901 87.7534 125Z" fill="#231F20"/>
<path d="M58.3563 40.2292C58.2348 40.2773 58.1031 40.3043 57.9652 40.3061C57.1691 40.3169 56.7028 40.2902 56.4248 40.2739C56.3475 40.2694 56.2881 40.2644 56.2373 40.2632C56.1748 40.2936 56.0649 40.3518 55.9587 40.4085C55.8388 40.4726 55.6929 40.5503 55.5112 40.6441C54.9734 40.9224 54.3039 40.7122 54.0244 40.1705C53.7444 39.6295 53.9563 38.9632 54.498 38.6837C54.6698 38.5948 54.807 38.5216 54.9204 38.4615C55.6064 38.0946 55.8059 38.0275 56.5521 38.0706C56.8169 38.086 57.2177 38.1091 57.9345 38.0994C58.544 38.0908 59.0447 38.5786 59.0531 39.1877C59.0598 39.6593 58.7701 40.0655 58.3563 40.2292Z" fill="#231F20"/>
<path d="M72.9297 120.141C72.8083 120.189 72.6765 120.216 72.5382 120.218L71.8314 120.228L70.399 120.607L69.6689 120.985C69.5173 121.063 69.3482 121.105 69.177 121.108L68.3345 121.119C67.7248 121.127 67.2246 120.639 67.2161 120.03C67.2079 119.421 67.6973 118.92 68.305 118.912L68.8869 118.904L69.4931 118.591C69.5643 118.554 69.6397 118.525 69.7176 118.505L71.3984 118.06C71.4856 118.037 71.5752 118.025 71.6659 118.024L72.5088 118.012C73.1181 118.004 73.6186 118.492 73.6272 119.101C73.6332 119.571 73.3435 119.977 72.9297 120.141Z" fill="#231F20"/>
<path d="M2.13578 135.52C1.71097 135.688 1.16684 135.693 0.516203 135.637C-1.2914 135.483 -8.77997 133.952 -9.65827 132.673C-13.0992 127.659 -1.3463 116.826 -1.22077 116.727C-0.763128 116.366 -0.0706168 116.4 0.318389 116.833C0.638411 117.188 0.855022 117.78 0.071646 118.584C-1.01377 119.699 0.306431 122.344 1.58351 124.902C3.34119 128.422 5.33322 132.412 2.61588 135.204C2.47872 135.346 2.31843 135.448 2.13578 135.52ZM-7.91141 131.305C-6.72462 131.97 -0.371997 133.548 1.20637 133.469C2.44781 131.898 1.32204 129.319 -0.39072 125.888C-1.213 124.241 -2.04985 122.566 -2.38955 121.022C-5.24118 124.204 -9.03723 129.255 -7.91141 131.305ZM-0.718837 117.815L-0.714741 117.814L-0.718837 117.815Z" fill="#231F20"/>
<path d="M106.698 140.261C102.689 141.848 98.2912 142.328 94.9963 141.824C92.232 141.402 90.0326 138.773 88.7425 136.219C88.7113 136.828 88.6794 137.317 88.6145 137.665C87.8483 141.786 83.1174 145.928 78.8405 147.891C74.9956 149.653 71.4926 149.821 68.979 148.359C65.5777 146.38 62.9751 135.033 63.6011 131.668C63.7305 130.971 64.1602 130.257 64.6874 129.606C61.0641 130.145 57.9236 129.324 55.8326 127.289C51.6799 123.247 51.2486 117.833 54.6171 112.043C56.9723 107.995 60.0609 108.486 62.3163 108.844C63.6487 109.056 64.807 109.24 65.7548 108.661C65.9956 107.904 65.5201 105.11 65.2605 103.584C64.8834 101.368 64.6625 99.9679 64.8585 99.1341C66.0166 94.2156 70.7515 91.802 74.5563 89.8618C74.8499 89.7124 75.1398 89.5644 75.4228 89.4182C79.254 87.431 84.4717 89.6548 87.1123 92.8447C88.2223 94.1861 88.8269 95.6118 88.9156 96.997C90.4145 95.9082 91.9524 94.8329 93.539 93.8518C99.8011 89.9749 108.768 92.5314 113.482 97.1207C117.745 101.269 114.998 109.969 112.58 113.705C111.897 114.76 110.582 115.414 109.139 115.815C113.454 118.067 115.937 121.255 116.704 125.504C117.407 129.396 116.264 133.01 113.398 135.955C111.561 137.843 109.205 139.269 106.698 140.261ZM88.0269 130.85C88.3007 130.742 88.5962 130.729 88.8773 130.822C89.7517 131.109 89.8786 132.032 90.0252 133.101C90.0727 133.446 90.1374 133.918 90.2038 134.088C91.1581 136.532 93.169 139.312 95.3295 139.642C100.14 140.377 107.554 138.795 111.817 134.415C114.199 131.968 115.112 129.101 114.533 125.895C113.764 121.639 110.993 118.729 105.812 116.737C105.353 116.56 104.252 116.46 103.481 116.435C103.378 116.433 103.29 116.431 103.218 116.429C102.612 116.41 102.135 115.907 102.148 115.302C102.161 114.696 102.661 114.215 103.265 114.222C103.323 114.223 103.417 114.224 103.54 114.228C106.119 114.268 109.904 113.776 110.728 112.504C112.863 109.204 115.096 101.77 111.943 98.7012C107.806 94.6733 99.8878 92.5198 94.6996 95.7277C92.4334 97.1292 90.2341 98.7558 88.1071 100.329C88.0663 100.359 88.0249 100.39 87.9838 100.421C87.8903 100.562 87.7889 100.702 87.6814 100.839C87.6814 100.839 87.681 100.84 87.6808 100.84C87.3212 101.298 86.4432 101.622 85.91 101.495C85.4912 101.395 85.1568 101.053 85.0716 100.631C84.9844 100.197 85.1603 99.7589 85.5313 99.4872C85.795 99.2936 86.0584 99.0991 86.3219 98.9047C87.3206 97.0477 86.2174 95.2246 85.4115 94.2509C83.3512 91.7621 79.1623 89.9667 76.436 91.3776C76.1487 91.5259 75.8557 91.6756 75.5581 91.8271C71.9825 93.6504 67.9296 95.7168 67.0063 99.6394C66.9032 100.086 67.2108 101.893 67.4356 103.213C68.0944 107.085 68.4318 109.504 67.1147 110.408C65.4188 111.571 63.5859 111.281 61.9682 111.023C59.7339 110.668 58.1191 110.411 56.5239 113.152C54.5358 116.569 53.0692 121.52 57.3703 125.706C59.5358 127.814 62.747 127.676 64.4681 127.406C65.5889 127.23 67.7716 126.947 67.8638 126.935C68.3642 126.87 68.8451 127.153 69.0312 127.622C69.2174 128.092 69.0616 128.628 68.6528 128.924C67.5821 129.699 65.9245 131.236 65.7696 132.071C65.191 135.183 67.918 145.188 70.0871 146.45C71.9353 147.525 74.7901 147.321 77.9187 145.884C82.2327 143.905 85.8975 140.198 86.4436 137.261C86.4929 136.995 86.5244 136.369 86.5541 135.764C86.6714 133.413 86.7941 131.933 87.5063 131.202C87.6634 131.042 87.8402 130.924 88.0269 130.85ZM86.84 101.266C86.8394 101.267 86.8385 101.267 86.8375 101.268C86.839 101.267 86.8398 101.267 86.84 101.266ZM86.8145 100.159L86.8186 100.157L86.8145 100.159Z" fill="#231F20"/>
<path d="M20.6615 115.175C18.8993 115.873 16.3566 115.983 12.8692 115.533C9.92521 115.153 7.34776 110.354 6.45836 107.067C6.24064 106.262 6.09913 105.506 6.03366 104.806C2.81117 105.684 -0.621723 105.059 -2.99329 103.001C-5.62404 100.717 -6.25692 97.2853 -4.72974 93.5847C-3.00655 89.4078 -1.00011 86.4755 1.40379 84.6207C1.9829 84.1755 2.72146 84.1272 3.54223 84.3047C2.23087 81.8405 1.89827 79.0748 2.61593 76.2448C3.79918 71.578 7.78588 67.3099 12.0965 66.0891C14.7914 65.3282 17.2643 65.8716 19.0601 67.619C21.02 69.5256 22.2939 73.0575 23.0874 76.1996C24.372 74.6126 26.5229 72.1786 29.4476 71.4046C31.3706 70.8957 33.5243 71.3127 35.513 72.5784C37.7263 73.9869 39.3512 76.2477 39.7545 78.4784C40.8888 84.7592 37.5202 87.5712 33.9383 90.065C34.1789 90.2195 34.4318 90.3691 34.5862 90.4604C35.0152 90.7145 35.2293 90.8439 35.3996 91.0091C35.8068 91.4058 36.2121 91.7714 36.6044 92.1245C37.7853 93.1891 38.9 94.1945 39.8582 95.8191C41.4983 98.6018 42.0246 101.252 41.3811 103.485C40.8404 105.364 39.5173 106.858 37.4494 107.927C34.8183 109.292 27.9903 110.173 25.2067 107.464C24.3035 106.586 23.725 105.615 23.3433 104.714C23.3489 105.505 23.4545 106.373 23.5621 107.261C23.8494 109.626 24.1748 112.306 22.392 114.075C21.9298 114.534 21.3564 114.9 20.6615 115.175ZM8.2055 103.962C8.20923 104.692 8.33583 105.555 8.58873 106.49C9.57842 110.146 11.8546 113.177 13.1518 113.344C17.1701 113.863 19.7566 113.583 20.8369 112.508C21.8527 111.501 21.6188 109.571 21.3703 107.528C21.0757 105.1 20.7415 102.349 22.5809 100.459C22.9111 100.12 23.3632 99.9969 23.792 100.127C24.5267 100.35 24.6546 101.036 24.778 101.7C24.9573 102.668 25.2918 104.469 26.7449 105.883C28.4742 107.566 34.1314 107.159 36.4354 105.967C37.9428 105.188 38.8931 104.148 39.2597 102.875C39.8552 100.809 38.8792 98.5071 37.956 96.9408C37.1698 95.6079 36.2226 94.7537 35.1252 93.7644C34.7279 93.406 34.3169 93.0356 33.8906 92.6218C33.8127 92.5676 33.6114 92.4489 33.4616 92.3605C32.3819 91.7221 31.2652 91.0621 31.2302 90.0259C31.2142 89.5428 31.4471 89.0998 31.8685 88.8115C36.1345 85.8836 38.5034 83.9776 37.5811 78.8714C37.284 77.2272 36.0372 75.5293 34.3271 74.4411C32.8639 73.5101 31.3309 73.1896 30.0107 73.5388C27.5027 74.2034 25.5949 76.5919 24.4562 78.0196C23.6261 79.0602 23.1264 79.6881 22.2721 79.4859C21.8012 79.3732 21.4559 79.001 21.3487 78.4889C20.4065 73.9849 19.0466 70.6868 17.5202 69.2016C15.9729 67.6958 14.0426 67.8335 12.6958 68.2137C9.14986 69.2126 5.73972 72.9007 4.75474 76.7874C4.15676 79.1461 4.1484 82.642 7.50174 85.9055C8.27467 86.6578 8.0252 87.2725 7.80787 87.5727C7.21956 88.3832 6.39865 87.9524 5.67338 87.5724C3.73719 86.557 2.98268 86.3742 2.69458 86.4128C0.629919 88.0284 -1.13218 90.6508 -2.68931 94.4269C-3.84839 97.2355 -3.443 99.6885 -1.54642 101.334C0.399677 103.024 3.43554 103.418 6.13972 102.455C6.35934 101.462 6.82026 100.676 7.51692 100.139C7.53665 100.124 8.91611 99.139 9.9484 99.3723C10.3482 99.4624 10.669 99.7081 10.8517 100.063C11.2788 100.889 11.2653 102.183 8.77346 103.65C8.58658 103.759 8.39677 103.864 8.2055 103.962ZM33.859 92.5911C33.8605 92.5924 33.8621 92.5941 33.8637 92.5959C33.8621 92.5941 33.8605 92.5924 33.859 92.5911ZM23.5092 78.0355C23.5094 78.0359 23.5094 78.0359 23.5095 78.0363C23.5095 78.0363 23.5095 78.0363 23.5097 78.0367C23.5095 78.0363 23.5094 78.0359 23.5092 78.0355ZM22.4297 78.2624L22.4338 78.2608L22.4297 78.2624Z" fill="#231F20"/>
<path d="M45.2333 153.279C45.1397 153.316 45.041 153.34 44.9393 153.35C44.6272 153.382 44.3171 153.28 44.0851 153.069C43.9417 152.939 40.5604 149.833 39.6603 146.026C39.5995 145.769 39.4198 145.216 39.2114 144.574C37.7631 140.113 37.1781 137.616 38.0014 136.343C38.8491 135.034 39.9599 134.769 40.7425 134.776C44.3803 134.814 48.3233 140.824 48.3606 140.885C51.1351 145.371 45.942 152.596 45.7192 152.902C45.5947 153.073 45.4253 153.203 45.2333 153.279ZM40.395 137.039C40.2267 137.105 40.0447 137.248 39.8534 137.543C39.5224 138.388 40.8682 142.531 41.3097 143.893C41.5515 144.637 41.7261 145.174 41.8072 145.519C42.2898 147.559 43.7136 149.428 44.6643 150.499C46.0425 148.241 47.8687 144.288 46.4825 142.047C45.4256 140.338 42.4332 137.002 40.7186 136.984C40.6188 136.983 40.5103 136.993 40.395 137.039Z" fill="#231F20"/>
</svg>
