<svg width="110" height="180" viewBox="0 0 110 180" fill="none" xmlns="http://www.w3.org/2000/svg">
<path d="M58.5335 0.0457999C58.2567 10.8883 67.9107 35.1474 80.3858 59.6364C86.2938 85.5215 108.644 110.836 123.531 126.404C121.042 126.003 118.674 125.579 116.408 125.141C113.791 124.647 111.31 124.099 108.981 123.543C91.716 119.42 81.8791 113.827 74.6999 106.38C69.9799 101.48 66.392 95.7654 62.5751 89.1534C51.1984 69.4196 48.8973 17.5428 58.5335 0.0457999Z" fill="#E69D30"/>
<path d="M58.5335 0.0459243C71.2381 44.3608 146.15 35.4573 126.611 122.356C112.874 105.98 95.2079 85.468 80.4728 59.7846C80.4399 59.7327 80.4218 59.6872 80.3879 59.6374C67.9107 35.1476 58.2567 10.8884 58.5335 0.0459243Z" fill="#E69D30"/>
<path d="M58.5335 0.0459243C71.2381 44.3608 146.15 35.4573 126.611 122.356C112.874 105.98 95.2079 85.468 80.4728 59.7846C80.4399 59.7327 80.4218 59.6872 80.3879 59.6374C67.9107 35.1476 58.2567 10.8884 58.5335 0.0459243Z" fill="#F4AB3E"/>
<path d="M72.6712 111.09C79.8504 118.537 89.6864 124.132 106.953 128.254C109.282 128.809 111.762 129.357 114.379 129.851C101.139 151.825 91.1733 154.997 76.163 157.652C59.6066 160.571 23.0334 149.12 13.3098 138.029C35.6341 139.567 49.8253 116.774 72.6712 111.09Z" fill="#E69D30"/>
<path d="M106.953 128.254C81.7945 136.756 27.1664 143.456 13.312 138.03C35.6363 139.568 49.8254 116.774 72.6734 111.091C79.8504 118.537 89.6874 124.13 106.953 128.254Z" fill="#F4AB3E"/>
</svg>
