<svg width="120" height="120" viewBox="0 0 120 120" fill="none" xmlns="http://www.w3.org/2000/svg">
<path d="M118.685 55.9306H105.946L115.95 45.9274C116.196 45.6814 116.338 45.3407 116.338 45C116.338 44.6498 116.196 44.3091 115.95 44.0631L112.05 40.164C111.802 39.9184 111.467 39.7806 111.118 39.7806C110.769 39.7806 110.434 39.9184 110.186 40.164L94.429 55.9306H69.8328L87.2271 38.5363H109.514C110.243 38.5363 110.83 37.9495 110.83 37.2208V31.7035C110.83 31.3628 110.697 31.0221 110.442 30.776C110.196 30.5205 109.864 30.388 109.514 30.388H95.3659L104.375 21.388C104.621 21.142 104.763 20.8013 104.763 20.4606C104.763 20.1104 104.621 19.7697 104.375 19.5237L100.476 15.6246C100.228 15.379 99.8933 15.2412 99.5442 15.2412C99.1951 15.2412 98.8601 15.379 98.612 15.6246L89.6025 24.6435V10.4858C89.6025 10.1451 89.47 9.80442 89.2145 9.55836C88.9685 9.30284 88.6372 9.17035 88.2871 9.17035H82.7792C82.0505 9.17035 81.4637 9.7571 81.4637 10.4858V32.7729L64.0694 50.1672V25.571L79.836 9.81388C80.0816 9.5658 80.2194 9.2308 80.2194 8.8817C80.2194 8.5326 80.0816 8.19761 79.836 7.94953L75.9369 4.05047C75.6908 3.80442 75.3596 3.66246 75.0095 3.66246C74.6593 3.66246 74.3186 3.80442 74.082 4.05047L64.0694 14.0536V1.31546C64.0694 0.586751 63.4827 0 62.7539 0H57.2461C56.5173 0 55.9306 0.586751 55.9306 1.31546V14.0536L45.9274 4.05047C45.4353 3.5489 44.5552 3.5489 44.0631 4.05047L40.164 7.94953C39.9184 8.19761 39.7806 8.5326 39.7806 8.8817C39.7806 9.2308 39.9184 9.5658 40.164 9.81388L55.9211 25.571V50.1672L38.5363 32.7729V10.4858C38.5363 9.7571 37.9495 9.17035 37.2208 9.17035H31.7035C31.3533 9.17035 31.0221 9.30284 30.776 9.55836C30.53 9.80442 30.388 10.1356 30.388 10.4858V24.6246L21.388 15.6151C21.1399 15.3695 20.8049 15.2317 20.4558 15.2317C20.1067 15.2317 19.7717 15.3695 19.5237 15.6151L15.6246 19.5142C15.379 19.7623 15.2412 20.0973 15.2412 20.4464C15.2412 20.7955 15.379 21.1305 15.6246 21.3785L24.6341 30.3785H10.4858C9.7571 30.3785 9.17035 30.9653 9.17035 31.694V37.2114C9.17035 37.5615 9.30284 37.8927 9.55836 38.1388C9.80442 38.3943 10.1451 38.5268 10.4858 38.5268H32.7729L50.1672 55.9306H25.571L9.81388 40.164C9.5658 39.9184 9.2308 39.7806 8.8817 39.7806C8.5326 39.7806 8.19761 39.9184 7.94953 40.164L4.05047 44.0631C3.92783 44.1854 3.83053 44.3307 3.76413 44.4906C3.69774 44.6506 3.66357 44.8221 3.66357 44.9953C3.66357 45.1685 3.69774 45.34 3.76413 45.4999C3.83053 45.6599 3.92783 45.8052 4.05047 45.9274L14.0536 55.9306H1.31546C0.586751 55.9306 0 56.5268 0 57.2461V62.7539C0 63.4827 0.586751 64.0694 1.31546 64.0694H14.0536L4.05047 74.0631C3.80442 74.3186 3.66246 74.6404 3.66246 75C3.66246 75.3407 3.79495 75.6814 4.05047 75.9274L7.94953 79.8265C8.20505 80.0915 8.54574 80.2145 8.87697 80.2145C9.2082 80.2145 9.54889 80.0915 9.80442 79.8265L25.571 64.0694H50.1672L32.7729 81.4637H10.4858C9.7571 81.4637 9.17035 82.0505 9.17035 82.7792V88.2871C9.17035 88.6372 9.3123 88.9779 9.55836 89.224C9.80442 89.47 10.1356 89.6025 10.4858 89.6025H24.6341L15.6246 98.6025C15.379 98.8506 15.2412 99.1856 15.2412 99.5347C15.2412 99.8838 15.379 100.219 15.6246 100.467L19.5237 104.366C19.6449 104.489 19.7894 104.586 19.9486 104.653C20.1078 104.719 20.2786 104.753 20.4511 104.753C20.6236 104.753 20.7944 104.719 20.9536 104.653C21.1128 104.586 21.2573 104.489 21.3785 104.366L30.388 95.3565V109.505C30.388 109.855 30.5205 110.186 30.776 110.432C31.0221 110.678 31.3533 110.82 31.7035 110.82L37.2114 110.811C37.9401 110.811 38.5268 110.224 38.5268 109.495V87.2271L55.9117 69.8328V94.429L40.1546 110.186C39.909 110.434 39.7712 110.769 39.7712 111.118C39.7712 111.467 39.909 111.802 40.1546 112.05L44.0536 115.95C44.2997 116.196 44.6309 116.328 44.9811 116.328C45.3312 116.328 45.6719 116.196 45.9085 115.95L55.9117 105.946V118.685C55.9117 119.413 56.4984 120 57.2271 120H62.735C63.4637 120 64.0505 119.404 64.0505 118.685V105.946L74.0536 115.95C74.2997 116.196 74.6309 116.328 74.9811 116.328C75.3312 116.328 75.6625 116.196 75.9085 115.95L79.8076 112.05C80.0532 111.802 80.191 111.467 80.191 111.118C80.191 110.769 80.0532 110.434 79.8076 110.186L64.0694 94.429V69.8233L81.4637 87.2177V109.505C81.4637 110.233 82.0505 110.82 82.7792 110.82H88.2871C88.6372 110.82 88.9779 110.688 89.2145 110.442C89.4606 110.196 89.6025 109.864 89.6025 109.505V95.3659L98.612 104.375C98.7333 104.498 98.8777 104.595 99.0369 104.662C99.1961 104.728 99.3669 104.763 99.5394 104.763C99.712 104.763 99.8828 104.728 100.042 104.662C100.201 104.595 100.346 104.498 100.467 104.375L104.356 100.476C104.48 100.354 104.578 100.209 104.645 100.049C104.711 99.8892 104.746 99.7176 104.746 99.5442C104.746 99.3708 104.711 99.1991 104.645 99.0391C104.578 98.8791 104.48 98.7339 104.356 98.612L95.347 89.612H109.486C110.215 89.612 110.801 89.0158 110.801 88.2965V82.7886C110.801 82.0599 110.215 81.4732 109.486 81.4732H87.2271L69.8328 64.0694H94.429L110.186 79.8265C110.442 80.0915 110.782 80.2145 111.114 80.2145C111.445 80.2145 111.785 80.0915 112.041 79.8265L115.94 75.9274C116.063 75.8055 116.161 75.6604 116.228 75.5004C116.295 75.3404 116.329 75.1687 116.329 74.9953C116.329 74.8219 116.295 74.6502 116.228 74.4902C116.161 74.3302 116.063 74.185 115.94 74.0631L105.946 64.0694H118.685C119.413 64.0694 120 63.4827 120 62.7539V57.2461C120 56.5173 119.413 55.9306 118.685 55.9306Z" fill="#40C0E7" fill-opacity="0.4"/>
</svg>
