<svg width="115" height="116" viewBox="0 0 115 116" fill="none" xmlns="http://www.w3.org/2000/svg">
<path d="M109.395 48.3137L83.7653 60.1305L65.1798 56.1919L77.8843 42.0664L105.559 36.5293C105.711 36.4988 105.86 36.4597 106.005 36.4127C107.854 35.8106 109.001 33.9059 108.61 31.9518C108.189 29.8453 106.139 28.4792 104.033 28.9008L86.586 32.3916L95.0859 22.9409C96.5226 21.3433 96.3923 18.8839 94.7947 17.4473C93.1974 16.0107 90.738 16.1407 89.3011 17.7384L80.8009 27.1891L82.4283 9.47208C82.6249 7.33266 81.0499 5.43925 78.9104 5.24276C76.7716 5.04626 74.8773 6.62123 74.6808 8.76065L72.0993 36.8642L59.6541 50.7017L53.7729 32.637L62.8151 5.90304C63.5036 3.86778 62.4117 1.66015 60.3766 0.971964C58.3414 0.283846 56.1336 1.37553 55.4453 3.41071L49.7448 20.2644L46.2151 9.42241C45.55 7.37955 43.3546 6.26282 41.3119 6.92787C39.2691 7.59292 38.152 9.78808 38.8171 11.8309L42.3469 22.6731L27.8165 12.4057C26.0617 11.1658 23.6342 11.5835 22.3946 13.3376C21.1546 15.0922 21.5719 17.5195 23.3263 18.7592L46.375 35.0457L52.3759 53.4783L33.4111 49.4592L14.7793 28.2624C13.3609 26.649 10.9031 26.4907 9.28925 27.9089C7.6755 29.3273 7.51717 31.7853 8.93553 33.3987L20.6817 46.7618L9.52673 44.3978C7.42505 43.9527 5.3601 45.2951 4.91447 47.3969C4.46907 49.4985 5.81149 51.5633 7.91354 52.0088L19.0686 54.3728L2.91052 61.8225C0.95947 62.722 0.107085 65.0328 1.00655 66.9837C1.84095 68.7935 3.8895 69.658 5.73893 69.0556C5.8833 69.0086 6.0267 68.9525 6.16792 68.8874L31.7982 57.0704L50.3837 61.0087L37.6792 75.1344L10.0047 80.6718C7.89746 81.0938 6.53181 83.1425 6.95339 85.2492C7.37489 87.3558 9.42432 88.7218 11.531 88.3003L28.9776 84.8095L21.3526 93.2874C19.9159 94.8847 20.0461 97.3441 21.6435 98.7808C22.7149 99.7445 24.1742 100.003 25.4527 99.5868C26.0802 99.3825 26.6641 99.0154 27.1371 98.4895L34.7625 90.0112L33.1347 107.729C32.9381 109.868 34.5133 111.761 36.6526 111.958C37.1786 112.007 37.709 111.948 38.2113 111.785C39.6445 111.318 40.7359 110.036 40.8825 108.44L43.4642 80.3366L56.4277 65.923L62.3088 83.9873L53.2662 110.722C52.578 112.757 53.6697 114.965 55.7049 115.653C56.4978 115.922 57.3567 115.928 58.1528 115.668C59.2807 115.3 60.2271 114.424 60.6364 113.214L66.3371 96.3598L70.2719 108.446C70.9369 110.489 73.1322 111.606 75.1751 110.94C77.2181 110.275 78.3349 108.08 77.6699 106.037L73.7352 93.9515L88.2653 104.219C90.0199 105.459 92.4476 105.041 93.6872 103.287C94.9272 101.532 94.5101 99.105 92.7552 97.8652L69.7071 81.5787L63.9458 63.8825L82.1521 67.7408L100.784 88.9379C101.842 90.1417 103.479 90.5354 104.912 90.0688C105.415 89.9051 105.878 89.6405 106.274 89.2912C107.888 87.8728 108.046 85.4151 106.628 83.8014L94.8817 70.4381L107.317 73.0734C107.983 73.2159 108.676 73.1798 109.324 72.9687C110.602 72.5526 111.63 71.4842 111.929 70.0746C112.374 67.9729 111.032 65.9081 108.93 65.4628L96.4956 62.8276L112.653 55.378C114.604 54.4785 115.457 52.1675 114.557 50.2168C113.657 48.2667 111.348 47.4137 109.395 48.3137Z" fill="#59CAFC"/>
</svg>
