<svg width="123" height="221" viewBox="0 0 123 221" fill="none" xmlns="http://www.w3.org/2000/svg">
<g clip-path="url(#clip0_198_1178)">
<path d="M2.49224 156.132L31.3957 67.5347L60.9884 52.497C60.9884 52.497 65.3216 50.2956 63.1217 45.9577C60.9203 41.6245 56.5871 43.8259 56.5871 43.8259L35.6609 54.4608L42.5751 33.2671C42.5751 33.2671 44.0828 28.6457 39.4614 27.138C34.84 25.6303 33.3323 30.2517 33.3323 30.2517L26.4181 51.4455L15.7893 30.5162C15.7893 30.5162 13.5879 26.183 9.25468 28.3844C4.91993 30.5904 7.12134 34.9236 7.12134 34.9236L22.1529 64.5194L-6.75056 153.116L-36.3417 168.149C-36.3417 168.149 -40.6749 170.351 -38.4735 174.684C-36.2721 179.017 -31.9389 176.816 -31.9389 176.816L-11.0142 166.186L-17.9284 187.379C-17.9284 187.379 -19.4361 192.001 -14.8147 193.508C-10.1933 195.016 -8.6856 190.395 -8.6856 190.395L-1.77144 169.201L8.85885 190.126C8.85885 190.126 11.0603 194.459 15.3935 192.257C19.7268 190.056 17.5253 185.723 17.5253 185.723L2.49224 156.132Z" fill="#88C9F9"/>
<path d="M84.8193 148.629C85.0787 143.774 80.224 143.514 80.224 143.514L47.0818 141.737L-15.1948 72.4048L-13.4178 39.2626C-13.4178 39.2626 -13.1583 34.4078 -18.0131 34.1483C-22.8724 33.8874 -23.1273 38.7436 -23.1273 38.7436L-24.3823 62.1824L-39.2799 45.5925C-39.2799 45.5925 -42.5282 41.9762 -46.1445 45.2245C-49.7609 48.4727 -46.5126 52.0891 -46.5126 52.0891L-31.6181 68.6729L-55.0554 67.4133C-55.0554 67.4133 -59.9148 67.1523 -60.1696 72.0086C-60.4306 76.868 -55.5758 77.1274 -55.5758 77.1274L-22.429 78.906L39.8476 148.239L38.0691 181.385C38.0691 181.385 37.8096 186.24 42.6643 186.5C47.5206 186.754 47.7786 181.904 47.7786 181.904L49.0336 158.465L63.9327 175.051C63.9327 175.051 67.1856 178.669 70.8004 175.425C74.4183 172.172 71.1654 168.554 71.1654 168.554L56.2709 151.97L79.7035 153.228C79.705 153.224 84.5598 153.483 84.8193 148.629V148.629Z" fill="#88C9F9"/>
<path d="M92.0437 115.402L72.3741 102.594L94.1873 97.9854C94.1873 97.9854 98.9494 96.9772 97.9444 92.2213C96.9362 87.4592 92.1787 88.4689 92.1787 88.4689L70.3716 93.0742L83.174 73.4077C83.174 73.4077 85.8273 69.3339 81.7535 66.6805C77.6797 64.0272 75.0264 68.101 75.0264 68.101L56.9173 95.9151L-34.2735 115.196L-62.0814 97.0842C-62.0814 97.0842 -66.1552 94.4308 -68.8085 98.5046C-71.468 102.581 -67.3881 105.232 -67.3881 105.232L-47.7216 118.034L-69.5303 122.644C-69.5303 122.644 -74.2831 123.655 -73.278 128.411C-72.2715 133.163 -67.5201 132.156 -67.5201 132.156L-45.7068 127.548L-58.5139 147.213C-58.5139 147.213 -61.1687 151.291 -57.0934 153.94C-53.0165 156.599 -50.3632 152.525 -50.3632 152.525L-32.2465 124.704L58.9383 105.441L86.7509 123.554C86.7509 123.554 90.8246 126.208 93.478 122.134C96.1144 118.05 92.0437 115.402 92.0437 115.402V115.402Z" fill="#88C9F9"/>
</g>
<defs>
<clipPath id="clip0_198_1178">
<rect width="175" height="175" fill="white" transform="translate(-43.7239) rotate(18.0682)"/>
</clipPath>
</defs>
</svg>
