<svg width="94" height="162" viewBox="0 0 94 162" fill="none" xmlns="http://www.w3.org/2000/svg">
<path d="M86.501 72.1238L49.3051 86.1702L23.5923 78.8645L42.8623 60.3392L82.2979 55.2725C82.5151 55.2445 82.7283 55.2043 82.9359 55.1525C85.5947 54.4893 87.3979 51.9367 87.0454 49.1661C86.6654 46.1794 83.9238 44.0708 80.9219 44.4565L56.0609 47.6508L68.9535 35.2563C71.1326 33.1611 71.1973 29.709 69.0976 27.5455C66.9983 25.3819 63.5301 25.3259 61.3507 27.4212L48.4578 39.8157L52.528 15.1962C53.0196 12.2233 50.9977 9.42304 48.0118 8.9413C45.027 8.45964 42.2073 10.479 41.7157 13.4519L35.2593 52.5044L16.3826 70.6521L9.93952 44.8201L25.3343 8.30788C26.5064 5.5282 25.1948 2.33527 22.4052 1.17601C19.6153 0.0168376 16.4038 1.32997 15.232 4.10957L5.52665 27.1277L1.6597 11.624C0.931088 8.70278 -2.04058 6.92872 -4.97726 7.66119C-7.91393 8.39366 -9.70437 11.3555 -8.97576 14.2767L-5.10873 29.7807L-24.4876 14.0165C-26.8278 12.1128 -30.28 12.4621 -32.1982 14.7952C-34.1168 17.1292 -33.775 20.564 -31.4352 22.4674L-0.69586 47.4732L5.87839 73.8312L-20.3592 66.3762L-44.3993 34.9308C-46.2293 32.5373 -49.6662 32.0781 -52.0762 33.9054C-54.486 35.7329 -54.956 39.155 -53.1259 41.5485L-37.9701 61.3727L-53.4029 56.9877C-56.3106 56.1619 -59.3467 57.8396 -60.1843 60.7357C-61.0217 63.6318 -59.3437 66.6492 -56.4356 67.4755L-41.0028 71.8605L-64.4522 80.7159C-67.2836 81.7851 -68.7138 84.9342 -67.6466 87.7495C-66.6567 90.3611 -63.8659 91.7683 -61.2071 91.1048C-60.9995 91.053 -60.7924 90.9884 -60.5875 90.9111L-23.3914 76.8642L2.32131 84.1696L-16.9486 102.695L-56.3841 107.762C-59.3869 108.149 -61.5117 110.882 -61.1316 113.869C-60.7516 116.855 -58.0101 118.964 -55.0081 118.578L-30.1471 115.384L-41.7126 126.503C-43.8919 128.597 -43.9565 132.05 -41.8572 134.213C-40.449 135.665 -38.425 136.167 -36.587 135.709C-35.6849 135.484 -34.8277 135.027 -34.1103 134.337L-22.5442 123.218L-26.615 147.838C-27.1066 150.811 -25.0844 153.611 -22.0988 154.093C-21.3649 154.212 -20.6138 154.181 -19.8917 154.001C-17.8313 153.488 -16.169 151.801 -15.8023 149.583L-9.34557 110.53L10.3173 91.6268L16.7602 117.458L1.36489 153.971C0.19313 156.75 1.5044 159.943 4.29429 161.103C5.38094 161.556 6.58706 161.647 7.73163 161.36C9.35305 160.956 10.7708 159.822 11.4678 158.169L21.1734 135.151L25.4841 152.433C26.2126 155.354 29.184 157.129 32.121 156.396C35.058 155.664 36.8481 152.701 36.1195 149.781L31.8089 132.498L51.1874 148.262C53.5273 150.166 56.9799 149.817 58.8979 147.483C60.8166 145.149 60.4751 141.715 58.1346 139.811L27.396 114.805L21.0844 89.5004L46.2725 96.657L70.3131 128.103C71.6784 129.889 73.938 130.598 75.9984 130.084C76.7204 129.903 77.3981 129.578 77.99 129.128C80.3998 127.301 80.8695 123.879 79.0397 121.485L63.8838 101.66L81.0874 106.549C82.0097 106.812 82.9862 106.829 83.9181 106.596C85.7558 106.138 87.3069 104.743 87.8686 102.801C88.7062 99.9049 87.028 96.8875 84.1202 96.0614L66.9174 91.1734L90.3661 82.3182C93.1976 81.249 94.6276 78.0995 93.5606 75.2845C92.493 72.4703 89.3347 71.054 86.501 72.1238Z" fill="#59CAFC"/>
</svg>
