<svg width="61" height="61" viewBox="0 0 61 61" fill="none" xmlns="http://www.w3.org/2000/svg">
<path d="M32.1944 46.7429V14.2587L40.3752 6.07628C40.3752 6.07628 41.5731 4.87831 40.3752 3.67864C39.1772 2.48067 37.9792 3.67864 37.9792 3.67864L32.1944 9.46517V1.69444C32.1944 1.69444 32.1944 0 30.4999 0C28.8055 0 28.8055 1.69444 28.8055 1.69444V9.46517L23.0207 3.67864C23.0207 3.67864 21.8227 2.48067 20.6247 3.67864C19.4267 4.87831 20.6247 6.07628 20.6247 6.07628L28.8055 14.2587V46.7429L20.6247 54.9237C20.6247 54.9237 19.4267 56.1217 20.6247 57.3197C21.8227 58.5176 23.0207 57.3197 23.0207 57.3197L28.8055 51.5348V59.3056C28.8055 59.3056 28.8055 61 30.4999 61C32.1944 61 32.1944 59.3056 32.1944 59.3056V51.5348L37.9792 57.3197C37.9792 57.3197 39.1772 58.5176 40.3752 57.3197C41.5731 56.1217 40.3752 54.9237 40.3752 54.9237L32.1944 46.7429Z" fill="#88C9F9"/>
<path d="M58.6651 35.3563C58.2262 33.7194 56.5894 34.1583 56.5894 34.1583L45.4145 37.1524L17.2817 20.9094L14.2876 9.73458C14.2876 9.73458 13.8487 8.09775 12.2119 8.53661C10.5734 8.97547 11.0139 10.6123 11.0139 10.6123L13.132 18.5152L6.40165 14.6281C6.40165 14.6281 4.93426 13.7809 4.08704 15.2483C3.23982 16.7157 4.70721 17.5629 4.70721 17.5629L11.4358 21.4483L3.53296 23.5646C3.53296 23.5646 1.89443 24.0035 2.33498 25.6403C2.77385 27.2789 4.41068 26.84 4.41068 26.84L15.5872 23.8459L43.7201 40.0889L46.7142 51.2654C46.7142 51.2654 47.153 52.9023 48.7899 52.4634C50.4267 52.0228 49.9878 50.3877 49.9878 50.3877L47.8698 42.4848L54.6001 46.3702C54.6001 46.3702 56.0692 47.2174 56.9164 45.7517C57.7636 44.2826 56.2946 43.4354 56.2946 43.4354L49.5659 39.55L57.4671 37.4337C57.4671 37.432 59.104 36.9931 58.6651 35.3563Z" fill="#88C9F9"/>
<path d="M57.4669 23.5646L49.564 21.4466L56.2943 17.5612C56.2943 17.5612 57.7634 16.7123 56.9162 15.2449C56.0673 13.7758 54.5999 14.6248 54.5999 14.6248L47.8713 18.5084L49.9876 10.6072C49.9876 10.6072 50.4265 8.97039 48.7896 8.53153C47.1528 8.09267 46.714 9.7295 46.714 9.7295L43.7199 20.9044L15.5853 37.1524L4.41214 34.1566C4.41214 34.1566 2.77531 33.7178 2.33645 35.3546C1.89589 36.9931 3.53442 37.4303 3.53442 37.4303L11.4356 39.5466L4.70698 43.432C4.70698 43.432 3.24128 44.2809 4.0885 45.7483C4.93573 47.214 6.40142 46.3668 6.40142 46.3668L13.1318 42.4814L11.0137 50.3826C11.0137 50.3826 10.5748 52.0211 12.2117 52.4583C13.8502 52.8989 14.2891 51.262 14.2891 51.262L17.2848 40.0838L45.4194 23.8425L56.5943 26.8383C56.5943 26.8383 58.2311 27.2772 58.6699 25.6403C59.102 24.0018 57.4669 23.5646 57.4669 23.5646Z" fill="#88C9F9"/>
</svg>
