<svg width="85" height="163" viewBox="0 0 85 163" fill="none" xmlns="http://www.w3.org/2000/svg">
<path d="M157.641 77.3885L119.188 88.9619L93.7823 79.751L114.481 62.3775L154.571 60.0457C154.791 60.0328 155.009 60.0072 155.222 59.9695C157.947 59.4871 159.94 57.0328 159.777 54.2054C159.6 51.1574 156.983 48.8303 153.932 49.0079L128.659 50.478L142.507 38.8542C144.848 36.8893 145.152 33.4021 143.186 31.065C141.22 28.7278 137.729 28.4255 135.388 30.3905L121.539 42.0144L127.342 17.4C128.043 14.4277 126.199 11.4521 123.224 10.7533C120.249 10.0547 117.268 11.8975 116.567 14.8698L107.361 53.9141L87.0848 70.9335L82.378 44.3481L100.415 8.50638C101.789 5.77775 100.688 2.45521 97.9568 1.08504C95.2255 -0.285072 91.8985 0.815695 90.5256 3.54426L79.1542 26.1397L76.3293 10.1838C75.7971 7.17737 72.9252 5.17243 69.9152 5.70532C66.9053 6.23821 64.8964 9.10729 65.4286 12.1137L68.2536 28.0699L49.8154 10.7518C47.5888 8.6605 44.0858 8.7693 41.9916 10.9934C39.8969 13.2183 40.0039 16.7168 42.2301 18.8078L71.4773 46.2784L76.28 73.4051L50.3559 64.006L28.3047 30.4963C26.626 27.9456 23.1944 27.2378 20.6396 28.9153C18.0848 30.5932 17.3747 34.0213 19.0534 36.572L32.9553 57.6976L17.7069 52.1691C14.8339 51.1279 11.6585 52.6098 10.6142 55.4799C9.57017 58.35 11.0524 61.521 13.9258 62.5627L29.1743 68.0912L4.93224 75.3875C2.00508 76.2685 0.346224 79.3525 1.22694 82.2758C2.04397 84.9875 4.75897 86.6086 7.48409 86.1258C7.69682 86.0881 7.90997 86.0374 8.12183 85.9737L46.5753 74.3999L71.9808 83.6105L51.2819 100.984L11.1926 103.316C8.13999 103.495 5.80989 106.108 5.98642 109.157C6.16289 112.205 8.77975 114.532 11.8314 114.354L37.1046 112.884L24.6814 123.311C22.3406 125.276 22.0368 128.763 24.0027 131.1C25.3214 132.668 27.3262 133.32 29.2101 132.986C30.1346 132.823 31.0301 132.421 31.8006 131.775L44.2244 121.347L38.4203 145.962C37.7194 148.934 39.5636 151.909 42.5388 152.608C43.2701 152.781 44.0291 152.803 44.7693 152.672C46.881 152.298 48.6728 150.709 49.1956 148.492L58.4018 109.448L79.5228 91.7198L84.2295 118.304L66.1915 154.147C64.8186 156.875 65.9192 160.198 68.6505 161.568C69.7141 162.104 70.9232 162.281 72.0964 162.072C73.7583 161.778 75.2654 160.731 76.082 159.109L87.4536 136.513L90.6027 154.3C91.1349 157.306 94.0065 159.311 97.0167 158.778C100.027 158.245 102.036 155.376 101.503 152.37L98.3543 134.583L116.792 151.901C119.018 153.993 122.522 153.884 124.616 151.659C126.711 149.435 126.604 145.936 124.377 143.845L95.1305 116.375L90.5198 90.3315L115.407 99.3545L137.459 132.865C138.711 134.768 140.939 135.645 143.051 135.271C143.791 135.14 144.496 134.859 145.124 134.445C147.678 132.768 148.388 129.34 146.71 126.789L132.808 105.663L149.806 111.826C150.717 112.158 151.7 112.244 152.655 112.075C154.539 111.741 156.198 110.44 156.898 108.515C157.943 105.645 156.46 102.474 153.587 101.433L136.59 95.2701L160.831 87.9739C163.758 87.0929 165.417 84.0086 164.536 81.0856C163.655 78.1634 160.571 76.5071 157.641 77.3885Z" fill="#59CAFC"/>
</svg>
