<svg width="133" height="116" viewBox="0 0 133 116" fill="none" xmlns="http://www.w3.org/2000/svg">
<path fill-rule="evenodd" clip-rule="evenodd" d="M43.7021 22.5327C50.3552 21.8965 56.9923 23.8959 62.1869 28.1011C67.3816 32.3063 70.719 38.3817 71.4819 45.0214C72.2448 51.6612 70.3723 58.3352 66.2669 63.609C62.1614 68.8829 56.1507 72.3355 49.5267 73.2248L48.7661 73.3127L-1.2667 78.3052C-2.61536 78.4384 -3.9633 78.0451 -5.02886 77.2078C-6.09442 76.3704 -6.79516 75.1536 -6.98468 73.8117C-7.17419 72.4698 -6.83781 71.1066 -6.04583 70.0069C-5.25384 68.9072 -4.06752 68.156 -2.73474 67.9105L-2.30637 67.8496L47.7265 62.8571C49.7083 62.6877 51.6367 62.1262 53.3996 61.205C55.1625 60.2839 56.7247 59.0216 57.9955 57.4915C59.2663 55.9613 60.2203 54.1939 60.8021 52.2918C61.3839 50.3898 61.5819 48.3911 61.3845 46.4118C61.1871 44.4326 60.5983 42.5124 59.6524 40.7627C58.7064 39.013 57.4221 37.4688 55.8742 36.2197C54.3262 34.9707 52.5455 34.0417 50.6354 33.4869C48.7253 32.9321 46.724 32.7624 44.7477 32.9878C36.3148 33.8287 30.4303 40.6817 31.2347 48.7473C31.3729 50.1337 30.9548 51.5183 30.0722 52.5965C29.1896 53.6746 27.9148 54.358 26.5283 54.4963C25.1419 54.6345 23.7573 54.2164 22.6791 53.3337C21.601 52.4511 20.9176 51.1764 20.7794 49.7899C19.3883 35.8405 29.6039 23.9402 43.7021 22.5327Z" fill="#B8EEFF"/>
<path d="M91.6522 53.9542C102.642 52.8582 112.411 61.0253 113.519 72.1378C114.627 83.2503 106.664 93.1858 95.6739 94.2818C95.4947 94.2997 95.3145 94.3086 95.1395 94.3079L94.6194 94.387L89.9474 94.8529C91.2621 97.0237 92.1214 99.4994 92.3889 102.182C93.3857 112.177 86.3976 120.911 76.2469 121.923C66.8282 122.863 61.1551 119.371 57.7174 113.034C57.0527 111.809 56.9019 110.371 57.2979 109.035C57.694 107.699 58.6045 106.575 59.8293 105.91C61.054 105.245 62.4927 105.095 63.8286 105.491C65.1646 105.887 66.2886 106.797 66.9532 108.022C68.4872 110.85 70.2873 111.959 75.2013 111.468C79.5268 111.037 82.3596 107.496 81.9336 103.225C81.5433 99.3113 77.8965 96.3232 73.5998 96.4982L73.0815 96.5348L1.26248 103.697C-0.0863608 103.831 -1.43476 103.438 -2.50088 102.601C-3.56699 101.764 -4.26831 100.547 -4.45825 99.2053C-4.64818 97.8632 -4.31203 96.4996 -3.52005 95.3996C-2.72808 94.2995 -1.54158 93.5482 -0.208549 93.3025L0.219825 93.2417L93.5768 83.9317C93.756 83.9138 93.9361 83.9049 94.1112 83.9055L94.2029 83.8873L94.6313 83.8265C99.7992 83.3111 103.601 78.5665 103.064 73.1805C102.527 67.7945 97.8598 63.8944 92.6949 64.4095C88.698 64.8081 85.6166 67.4595 84.8697 71.1634L84.7785 71.7005C84.5811 73.0741 83.8483 74.3138 82.7401 75.149C81.6318 75.9842 80.2382 76.347 78.8634 76.1581C77.4885 75.9693 76.2443 75.2442 75.4023 74.1411C74.5603 73.038 74.1889 71.6466 74.3692 70.2707C75.597 61.3448 82.7563 54.8413 91.6522 53.9542Z" fill="#B8EEFF"/>
<path d="M89.4043 27.0259C91.3849 26.8284 93.3629 27.4258 94.9031 28.6866C96.4434 29.9475 97.4196 31.7686 97.6171 33.7492C97.8146 35.7299 97.2173 37.7079 95.9564 39.2481C94.6955 40.7883 92.8744 41.7645 90.8938 41.9621C88.9131 42.1596 86.9351 41.5622 85.3949 40.3013C83.8547 39.0405 82.8785 37.2194 82.681 35.2387C82.4834 33.2581 83.0808 31.2801 84.3417 29.7399C85.6025 28.1997 87.4236 27.2234 89.4043 27.0259Z" fill="#B8EEFF"/>
<path d="M-0.808463 29.9885C1.1722 29.791 3.15019 30.3884 4.6904 31.6492C6.2306 32.9101 7.20685 34.7312 7.40437 36.7118C7.60189 38.6925 7.00451 40.6705 5.74364 42.2107C4.48277 43.7509 2.66171 44.7271 0.681048 44.9247C-1.29961 45.1222 -3.27761 44.5248 -4.81781 43.2639C-6.35802 42.0031 -7.33426 40.182 -7.53179 38.2013C-7.72931 36.2207 -7.13193 34.2427 -5.87106 32.7025C-4.61019 31.1623 -2.78912 30.186 -0.808463 29.9885Z" fill="#B8EEFF"/>
<path d="M38.0069 116.626C39.9875 116.428 41.9655 117.026 43.5057 118.287C45.046 119.547 46.0222 121.368 46.2197 123.349C46.4172 125.33 45.8199 127.308 44.559 128.848C43.2981 130.388 41.4771 131.364 39.4964 131.562C37.5157 131.759 35.5377 131.162 33.9975 129.901C32.4573 128.64 31.4811 126.819 31.2836 124.839C31.086 122.858 31.6834 120.88 32.9443 119.34C34.2052 117.8 36.0262 116.823 38.0069 116.626Z" fill="#B8EEFF"/>
</svg>
