<svg width="86" height="80" viewBox="0 0 86 80" fill="none" xmlns="http://www.w3.org/2000/svg">
<path fill-rule="evenodd" clip-rule="evenodd" d="M57.6606 1.18915C52.49 0.33302 47.1898 1.53967 42.8993 4.54975C38.6089 7.55983 35.6706 12.133 34.7161 17.2864C33.7616 22.4398 34.867 27.762 37.7948 32.1091C40.7226 36.4561 45.239 39.481 50.3732 40.5335L50.9635 40.6433L89.837 47.2442C90.8849 47.421 91.9606 47.186 92.8394 46.5883C93.7181 45.9905 94.3319 45.0764 94.5524 44.0368C94.773 42.9972 94.5832 41.9126 94.0229 41.0095C93.4625 40.1065 92.5749 39.455 91.5454 39.1911L91.2136 39.1204L52.3401 32.5195C50.7988 32.2802 49.3204 31.737 47.9908 30.9215C46.6613 30.1059 45.5071 29.0342 44.5953 27.7686C43.6835 26.5031 43.0324 25.069 42.6797 23.5496C42.327 22.0302 42.2798 20.4559 42.5408 18.9181C42.8018 17.3803 43.3659 15.9098 44.2002 14.5919C45.0345 13.274 46.1224 12.1351 47.4007 11.2413C48.679 10.3475 50.1222 9.71668 51.6464 9.38551C53.1706 9.05433 54.7455 9.0294 56.2794 9.31215C62.8315 10.4243 67.066 16.1026 66.0022 22.3693C65.8194 23.4465 66.0719 24.5522 66.7044 25.4432C67.3368 26.3343 68.2973 26.9375 69.3745 27.1204C70.4517 27.3033 71.5575 27.0507 72.4485 26.4183C73.3395 25.7859 73.9428 24.8254 74.1256 23.7482C75.9653 12.91 68.6143 3.04968 57.6606 1.18915Z" fill="#63C1DF"/>
<path d="M18.455 23.1883C9.91616 21.7389 1.8338 27.6021 0.368235 36.2361C-1.09733 44.8701 4.59757 53.072 13.1364 54.5214C13.2757 54.545 13.4161 54.5617 13.5531 54.5706L13.9557 54.6605L17.5857 55.2766C16.4403 56.9041 15.6346 58.7946 15.2808 60.8789C13.9626 68.6448 18.9592 75.8542 26.8458 77.1929C34.1639 78.4351 38.7903 76.0087 41.821 71.2365C42.4069 70.3141 42.6025 69.1968 42.3646 68.1303C42.1267 67.0637 41.4749 66.1354 40.5525 65.5495C39.6302 64.9635 38.5128 64.768 37.4463 65.0059C36.3797 65.2438 35.4514 65.8956 34.8655 66.8179C33.513 68.9476 32.0451 69.718 28.2271 69.0699C24.8663 68.4994 22.8408 65.5768 23.4042 62.2578C23.9203 59.2173 26.9343 57.076 30.2864 57.4444L30.6899 57.501L86.4906 66.9728C87.5386 67.1502 88.6147 66.9157 89.4938 66.3183C90.373 65.7208 90.9872 64.8067 91.208 63.7669C91.4289 62.7272 91.2394 61.6423 90.6791 60.7391C90.1187 59.8358 89.231 59.1841 88.2013 58.9201L87.8695 58.8494L15.3346 46.5371C15.1953 46.5134 15.0549 46.4968 14.9179 46.4878L14.8472 46.4687L14.5153 46.398C10.5 45.7164 7.78129 41.7997 8.49162 37.615C9.20195 33.4303 13.0632 30.6305 17.0761 31.3117C20.1816 31.8389 22.4494 34.0792 22.8342 37.017L22.8767 37.4421C22.957 38.5274 23.4636 39.5368 24.2856 40.2499C25.1076 40.9629 26.1784 41.3218 27.2641 41.2482C28.3499 41.1745 29.3624 40.6742 30.0805 39.8566C30.7987 39.039 31.1642 37.9704 31.0972 36.8843C30.6175 29.8351 25.3668 24.3616 18.455 23.1883Z" fill="#63C1DF"/>
<path d="M21.6642 2.2425C20.1253 1.98128 18.5457 2.34209 17.2728 3.24554C15.9999 4.149 15.1381 5.5211 14.8768 7.05999C14.6156 8.59889 14.9764 10.1785 15.8799 11.4514C16.7833 12.7243 18.1554 13.5861 19.6943 13.8473C21.2332 14.1086 22.8129 13.7478 24.0858 12.8443C25.3586 11.9408 26.2205 10.5687 26.4817 9.02985C26.7429 7.49095 26.3821 5.91131 25.4786 4.63844C24.5752 3.36557 23.2031 2.50372 21.6642 2.2425Z" fill="#63C1DF"/>
<path d="M92.0811 9.41968C90.5423 9.15846 88.9626 9.51926 87.6897 10.4227C86.4169 11.3262 85.555 12.6983 85.2938 14.2372C85.0326 15.7761 85.3934 17.3557 86.2968 18.6286C87.2003 19.9015 88.5724 20.7633 90.1113 21.0245C91.6502 21.2857 93.2298 20.9249 94.5027 20.0215C95.7756 19.118 96.6374 17.7459 96.8986 16.207C97.1599 14.6681 96.7991 13.0885 95.8956 11.8156C94.9921 10.5427 93.62 9.68089 92.0811 9.41968Z" fill="#63C1DF"/>
<path d="M57.0477 75.1082C55.5088 74.847 53.9292 75.2078 52.6563 76.1112C51.3834 77.0147 50.5216 78.3868 50.2604 79.9257C49.9992 81.4646 50.36 83.0442 51.2634 84.3171C52.1669 85.59 53.539 86.4518 55.0779 86.713C56.6168 86.9743 58.1964 86.6135 59.4693 85.71C60.7422 84.8065 61.604 83.4344 61.8652 81.8955C62.1264 80.3566 61.7656 78.777 60.8622 77.5041C59.9587 76.2313 58.5866 75.3694 57.0477 75.1082Z" fill="#63C1DF"/>
</svg>
