<svg width="251" height="78" viewBox="0 0 251 78" fill="none" xmlns="http://www.w3.org/2000/svg">
<path opacity="0.9" d="M26.563 23.1222C57.0609 44.5128 186.327 44.4337 219.755 26.2004C249.034 10.23 248.462 2.51921 247.869 0.85132C247.762 0.619592 247.7 0.5 247.7 0.5C247.7 0.5 247.785 0.615 247.869 0.85132C249.383 4.16002 259.816 30.3301 224.994 57.6613C187.734 86.9066 54.273 81.1639 24.1365 57.6613C-2.69652 36.7349 0.125673 7.75702 1.0668 1.65559C0.674371 0.640935 1.27002 0.500004 1.27002 0.500004C1.27002 0.500004 1.18267 0.904434 1.0668 1.65559C1.83441 3.64026 6.38242 8.96779 26.563 23.1222Z" fill="#A5EFFF"/>
</svg>
