<svg width="64" height="28" viewBox="0 0 64 28" fill="none" xmlns="http://www.w3.org/2000/svg">
<path d="M61.5432 34.3861L45.6987 36.2485L36.398 30.8908L45.6987 25.5331L61.5432 27.3957C61.6305 27.4059 61.7174 27.411 61.8033 27.411C62.9028 27.411 63.8526 26.5898 63.9844 25.4734C64.1265 24.27 63.2639 23.1795 62.0578 23.0377L52.0691 21.8636L58.2918 18.279C59.3436 17.673 59.7039 16.3311 59.0966 15.2817C58.4894 14.2323 57.1447 13.8726 56.0927 14.4785L49.8699 18.0631L53.8451 8.84493C54.3251 7.7318 53.8099 6.44128 52.6943 5.96231C51.579 5.48346 50.2852 5.99741 49.8052 7.11054L43.4996 21.7328L34.3886 26.9814V16.2656L43.9273 3.506C44.6535 2.53462 44.4529 1.15992 43.4795 0.435476C42.5059 -0.28897 41.1281 -0.0889761 40.402 0.882405L34.3886 8.92631V2.49499C34.3886 1.28319 33.404 0.300906 32.1896 0.300906C30.9752 0.300906 29.9906 1.28319 29.9906 2.49499V8.92645L23.977 0.882405C23.2508 -0.0889761 21.8729 -0.288837 20.8996 0.435476C19.926 1.16006 19.7256 2.53475 20.4516 3.506L29.9906 16.2657V27.1997L20.5 21.7326L14.1944 7.11054C13.7144 5.99754 12.421 5.48346 11.3053 5.96231C10.1897 6.44128 9.67445 7.73193 10.1545 8.84493L14.1298 18.0631L8.54749 14.8474C7.4957 14.2417 6.15083 14.6011 5.5435 15.6506C4.93631 16.7 5.29655 18.0419 6.34848 18.6478L11.9308 21.8636L1.94192 23.0377C0.735788 23.1795 -0.126759 24.27 0.0153105 25.4734C0.147118 26.5898 1.09696 27.4111 2.19647 27.411C2.2823 27.411 2.36919 27.4059 2.45648 27.3957L18.3011 25.5331L27.6019 30.8907L18.3011 36.2485L2.45662 34.3861C1.25009 34.2444 0.157513 35.1048 0.0154437 36.3083C-0.126626 37.5118 0.735921 38.6023 1.94205 38.744L11.9308 39.9182L6.34861 43.1338C5.29681 43.7396 4.93644 45.0815 5.54364 46.1309C5.95092 46.8349 6.69006 47.2284 7.45012 47.2284C7.82315 47.2284 8.20125 47.1334 8.54749 46.934L14.1299 43.7182L10.1545 52.9366C9.67445 54.0497 10.1898 55.3402 11.3053 55.8192C11.5794 55.9373 11.8749 55.9983 12.1735 55.9984C13.0255 55.9984 13.8365 55.5015 14.1946 54.6711L20.5003 40.0488L29.9907 34.5818V45.2973L20.4518 58.057C19.7257 59.0284 19.9261 60.4031 20.8997 61.1275C21.2787 61.4106 21.7394 61.5634 22.2128 61.563C22.8833 61.563 23.5454 61.2581 23.9773 60.6806L29.9908 52.6366V59.8059C29.9908 61.0176 30.9753 62 32.1898 62C33.4044 62 34.3889 61.0176 34.3889 59.8059V52.6367L40.4023 60.6806C41.1284 61.6521 42.5064 61.852 43.4797 61.1274C44.4533 60.403 44.6539 59.0283 43.9275 58.0569L34.3889 45.2973V34.8001L43.4998 40.0485L49.8056 54.6708C50.1637 55.5013 50.9745 55.9982 51.8265 55.9982C52.1251 55.9981 52.4206 55.9371 52.6947 55.8189C53.8103 55.34 54.3254 54.0494 53.8455 52.9363L49.8702 43.718L56.093 47.3027C56.4264 47.4955 56.805 47.5971 57.1904 47.5971C57.9503 47.5971 58.6896 47.2035 59.0969 46.4997C59.7042 45.4502 59.3438 44.1084 58.292 43.5025L52.0695 39.9179L62.0581 38.7438C63.2642 38.602 64.1268 37.5114 63.9847 36.3081C63.8423 35.1051 62.7503 34.2443 61.5432 34.3861Z" fill="#59CAFC"/>
</svg>
