<svg width="63" height="61" viewBox="0 0 63 61" fill="none" xmlns="http://www.w3.org/2000/svg">
<path d="M62.9256 -1.9669C63.417 -4.58305 61.4114 -7 58.7548 -7H-0.751556C-3.59405 -7 -5.63958 -4.25105 -4.81606 -1.52866L6.75316 34.7787C7.08522 35.7349 8.44005 35.7349 8.75884 34.7787L13.5937 18.2983L19.4647 43.1717C19.717 44.2739 21.2844 44.2739 21.5368 43.1717L27.7132 17.0234L32.2426 34.7389C32.5481 35.7482 33.9694 35.7482 34.2749 34.7389L40.3583 11.831L49.2179 60.1434C49.4437 61.2855 51.0774 61.2855 51.3032 60.1434L62.9256 -1.9669Z" fill="url(#paint0_linear_198_1168)"/>
<defs>
<linearGradient id="paint0_linear_198_1168" x1="29" y1="-7" x2="29" y2="61" gradientUnits="userSpaceOnUse">
<stop stop-color="#5FCEFF"/>
<stop offset="1" stop-color="#B8E9FF" stop-opacity="0.3"/>
</linearGradient>
</defs>
</svg>
