<svg width="68" height="53" viewBox="0 0 68 53" fill="none" xmlns="http://www.w3.org/2000/svg">
<path d="M0.0984802 1.14491C-0.551979 -1.00957 2.1026 -3 5.61861 -3H84.3771C88.1392 -3 90.8465 -0.736158 89.7565 1.50581L74.4444 31.406C74.0049 32.1934 72.2117 32.1934 71.7898 31.406L65.3906 17.8339L57.6203 38.3178C57.2863 39.2256 55.2118 39.2256 54.8778 38.3178L46.7031 16.784L40.7083 31.3732C40.304 32.2044 38.4229 32.2044 38.0186 31.3732L29.9669 12.5079L18.2411 52.2946C17.9422 53.2351 15.7799 53.2351 15.481 52.2946L0.0984802 1.14491Z" fill="url(#paint0_linear_198_1169)"/>
<defs>
<linearGradient id="paint0_linear_198_1169" x1="45" y1="-3" x2="45" y2="53" gradientUnits="userSpaceOnUse">
<stop stop-color="#5FCEFF"/>
<stop offset="1" stop-color="#B8E9FF" stop-opacity="0.3"/>
</linearGradient>
</defs>
</svg>
