<svg width="251" height="78" viewBox="0 0 251 78" fill="none" xmlns="http://www.w3.org/2000/svg">
<path opacity="0.9" d="M26.563 54.8778C57.0609 33.4872 186.327 33.5663 219.755 51.7996C249.034 67.77 248.462 75.4808 247.869 77.1487C247.762 77.3804 247.7 77.5 247.7 77.5C247.7 77.5 247.785 77.385 247.869 77.1487C249.383 73.84 259.816 47.6699 224.994 20.3387C187.734 -8.90656 54.273 -3.16387 24.1365 20.3387C-2.69652 41.2651 0.125673 70.243 1.0668 76.3444C0.674371 77.3591 1.27002 77.5 1.27002 77.5C1.27002 77.5 1.18267 77.0956 1.0668 76.3444C1.83441 74.3597 6.38242 69.0322 26.563 54.8778Z" fill="#A5EFFF"/>
</svg>
