<svg width="129" height="100" viewBox="0 0 129 100" fill="none" xmlns="http://www.w3.org/2000/svg">
<path d="M-2.09606 119.565L-9.52943 108.57C-10.0101 107.85 -10.2707 107.006 -10.2794 106.14C-10.2881 105.274 -10.0446 104.424 -9.57856 103.695L-8.76402 102.428L-8.68148 102.218C-6.14846 103.219 -3.33461 103.248 -0.781959 102.298L-0.386778 102.052C0.524091 104.205 1.93174 106.112 3.72101 107.616L3.60656 107.753L-0.0348967 113.414C-1.22076 115.262 -1.92902 117.376 -2.09606 119.565Z" fill="white"/>
<path d="M31.6143 80.0932C28.7232 80.6477 26.0964 82.1416 24.1418 84.3428C23.5423 83.8118 22.9064 83.3235 22.2386 82.8815C19.4456 81.0817 16.1482 80.2271 12.8327 80.4437C9.5171 80.6603 6.35892 81.9367 3.8239 84.0846C1.28887 86.2325 -0.48879 89.1382 -1.24692 92.3732C-2.00505 95.6081 -1.70351 99.0011 -0.386766 102.052L-0.781948 102.298C-3.3346 103.248 -6.14845 103.219 -8.68147 102.218C-9.3637 101.961 -10.0158 101.63 -10.6261 101.231C-12.5143 100.011 -13.9864 98.2447 -14.8465 96.1677C-15.7066 94.0907 -15.9141 91.8011 -15.4412 89.6033C-16.4187 89.3738 -17.3523 88.9866 -18.2053 88.4571C-20.1808 87.1863 -21.5705 85.1829 -22.0688 82.8875C-22.5671 80.592 -22.1332 78.1927 -20.8624 76.2172C-20.6947 75.9565 -20.4831 75.7504 -20.3088 75.5203C-21.5281 73.7244 -22.1925 71.6097 -22.2195 69.4392C-22.2464 67.2687 -21.6346 65.1382 -20.4603 63.3126C-19.286 61.487 -17.6008 60.0469 -15.6145 59.1715C-13.6282 58.296 -11.4284 58.0238 -9.2886 58.3888C-9.1515 58.1347 -9.05164 57.8567 -8.88394 57.596C-7.86934 55.991 -6.45603 54.6765 -4.78189 53.7806C-3.10775 52.8847 -1.22996 52.4381 0.668244 52.4844C2.56645 52.5306 4.42026 53.0681 6.04878 54.0445C7.6773 55.0208 9.02492 56.4027 9.96015 58.0551C11.4038 56.9969 13.1339 56.4002 14.923 56.3435C16.7121 56.2868 18.4765 56.7727 19.9843 57.7375L20.1453 57.8147C18.583 61.2014 18.2982 65.0388 19.3433 68.6191C20.3885 72.1993 22.6931 75.2808 25.8321 77.2951C27.5257 78.3807 29.4126 79.1296 31.3896 79.5011C31.4499 79.7037 31.525 79.9016 31.6143 80.0932Z" fill="#2F5224"/>
<path d="M93.5435 86.6272C92.298 88.5666 90.6343 90.2027 88.6743 91.4155C86.7143 92.6283 84.5077 93.387 82.2163 93.6361C81.1237 92.1789 79.7781 90.9299 78.2437 89.9486C74.7866 87.7248 70.5877 86.9654 66.5708 87.8374C62.5538 88.7094 59.0477 91.1415 56.8239 94.5985C56.4074 95.2653 56.0391 95.9609 55.7218 96.6802C53.0908 95.369 50.1722 94.7409 47.2347 94.8538C47.5124 92.7733 47.2917 90.6567 46.5908 88.6782C45.8898 86.6998 44.7287 84.9163 43.2031 83.4747C41.6776 82.0331 39.8313 80.9748 37.8164 80.3868C35.8015 79.7989 33.6757 79.6982 31.6143 80.0931C31.525 79.9016 31.4499 79.7037 31.3896 79.5011C29.4126 79.1296 27.5257 78.3806 25.8321 77.2951C22.6931 75.2808 20.3885 72.1993 19.3433 68.619C18.2982 65.0388 18.583 61.2013 20.1453 57.8146C20.4302 57.1375 20.7773 56.4883 21.1822 55.8753C21.5899 55.2472 22.0441 54.6506 22.541 54.0904C22.4851 54.0545 22.4359 54.0491 22.38 54.0132C19.9107 52.4247 18.1735 49.9204 17.5506 47.0511C16.9278 44.1819 17.4702 41.1827 19.0587 38.7133C20.6471 36.244 23.1514 34.5068 26.0207 33.884C28.89 33.2611 31.8892 33.8035 34.3585 35.392C34.433 35.4399 34.4769 35.4944 34.5327 35.5304C34.8124 34.8338 35.1551 34.1642 35.5563 33.5298C37.1448 31.0605 39.6491 29.3233 42.5184 28.7005C45.3877 28.0776 48.3869 28.62 50.8562 30.2085C52.1337 31.0278 53.2247 32.1063 54.0587 33.3743C57.6246 31.5922 61.7409 31.2556 65.549 32.4348C69.357 33.614 72.5627 36.2179 74.4975 39.7033C77.4577 39.1981 80.501 39.5656 83.2559 40.7608C86.0109 41.956 88.3583 43.9273 90.0118 46.4341C91.6652 48.9409 92.5532 51.8749 92.5674 54.8779C92.5815 57.8809 91.7212 60.823 90.0915 63.3453C89.6885 63.9678 89.2382 64.5583 88.7446 65.1116L88.8936 65.2074C92.3507 67.4313 94.7827 70.9373 95.6547 74.9543C96.5268 78.9713 95.7673 83.1702 93.5435 86.6272Z" fill="#5CB34F"/>
<path d="M17.1195 123.58C15.7028 121.914 14.6514 119.968 14.033 117.87C13.4147 115.772 13.2433 113.567 13.5298 111.399C12.9746 111.389 12.4204 111.349 11.8696 111.279C9.59013 110.985 7.40402 110.191 5.46868 108.951C4.8461 108.561 4.26104 108.114 3.72101 107.616C1.93174 106.112 0.52409 104.205 -0.386778 102.052C-1.70352 99.0011 -2.00506 95.6081 -1.24693 92.3732C-0.488799 89.1382 1.28886 86.2325 3.82389 84.0846C6.35891 81.9367 9.51709 80.6603 12.8326 80.4437C16.1482 80.2271 19.4456 81.0817 22.2385 82.8815C22.9063 83.3235 23.5423 83.8118 24.1418 84.3428C26.0963 82.1416 28.7232 80.6477 31.6142 80.0932C33.6757 79.6983 35.8015 79.7989 37.8164 80.3869C39.8313 80.9748 41.6776 82.0332 43.2031 83.4748C44.7287 84.9164 45.8898 86.6999 46.5908 88.6783C47.2917 90.6567 47.5124 92.7734 47.2347 94.8539C50.1722 94.7409 53.0908 95.369 55.7218 96.6802C56.0391 95.961 56.4074 95.2653 56.8239 94.5986C59.0477 91.1415 62.5538 88.7095 66.5707 87.8374C70.5877 86.9654 74.7866 87.7248 78.2437 89.9487C79.7781 90.93 81.1237 92.179 82.2163 93.6362C82.4691 93.9557 82.7022 94.2903 82.9144 94.6381C85.0088 94.8131 87.0222 95.5272 88.7589 96.7108C90.4955 97.8945 91.8963 99.5075 92.8249 101.393C93.7535 103.278 94.1783 105.372 94.0581 107.47C93.9379 109.568 93.2767 111.6 92.1389 113.367C90.7711 115.484 88.7845 117.129 86.449 118.078C87.7055 120.08 88.4876 122.343 88.7355 124.693C88.9833 127.044 88.6903 129.42 87.8788 131.64C87.0674 133.859 85.759 135.864 84.0538 137.501C82.3486 139.137 80.2916 140.362 78.0403 141.082C75.789 141.801 73.403 141.996 71.0647 141.652C68.7264 141.308 66.4978 140.433 64.5494 139.096C62.601 137.758 60.9843 135.992 59.823 133.934C58.6617 131.875 57.9866 129.578 57.8494 127.219C56.2849 128.267 54.5652 129.062 52.7535 129.575C49.2917 130.579 45.6048 130.496 42.192 129.336C40.8318 128.865 39.5327 128.232 38.3226 127.452C37.8943 127.177 37.5086 126.876 37.1109 126.594C34.6197 128.159 31.7344 128.983 28.7923 128.969C25.8502 128.956 22.9727 128.105 20.4964 126.516C19.2348 125.706 18.0974 124.717 17.1195 123.58Z" fill="#7BC24F"/>
<path d="M70.9151 129.99C68.8703 128.672 67.1642 126.892 65.9348 124.793C64.7055 122.695 63.9874 120.336 63.8386 117.908C62.2742 118.956 60.5545 119.751 58.7427 120.264C55.281 121.269 51.5941 121.185 48.1812 120.025C46.821 119.554 45.522 118.922 44.3118 118.142C43.8836 117.866 43.4978 117.566 43.1002 117.283C40.609 118.849 37.7237 119.673 34.7815 119.659C31.8394 119.645 28.962 118.794 26.4856 117.205C24.0031 115.613 22.028 113.343 20.7936 110.665C19.5592 107.986 19.1169 105.01 19.5191 102.088C18.9639 102.078 18.4097 102.038 17.8588 101.968C15.5794 101.675 13.3933 100.88 11.4579 99.6405C10.8353 99.2506 10.2503 98.8037 9.71025 98.3057C7.92098 96.801 6.51333 94.8941 5.60246 92.741C4.34346 89.8139 4.0163 86.57 4.66543 83.4505C1.84269 85.5217 -0.193981 88.4893 -1.11167 91.868C-2.02937 95.2468 -1.77381 98.8369 -0.386773 102.052C0.524097 104.205 1.93175 106.112 3.72102 107.616C4.26105 108.114 4.84611 108.561 5.46869 108.951C7.40402 110.191 9.59014 110.985 11.8696 111.278C12.4204 111.348 12.9746 111.389 13.5298 111.399C13.1277 114.321 13.5699 117.296 14.8044 119.975C16.0388 122.654 18.0138 124.923 20.4964 126.516C22.9728 128.105 25.8502 128.956 28.7923 128.969C31.7344 128.983 34.6197 128.159 37.1109 126.594C37.5086 126.876 37.8943 127.177 38.3226 127.452C39.5327 128.232 40.8318 128.865 42.192 129.336C45.6048 130.496 49.2918 130.579 52.7535 129.575C54.5652 129.062 56.2849 128.267 57.8494 127.219C58.0566 130.972 59.6237 134.52 62.2575 137.202C64.8914 139.883 68.4117 141.514 72.1602 141.788C75.9088 142.062 79.629 140.962 82.6253 138.693C85.6215 136.424 87.6887 133.141 88.4403 129.458C85.9157 131.309 82.8892 132.351 79.7603 132.445C76.6313 132.54 73.5472 131.684 70.9151 129.99Z" fill="#44853B"/>
<path d="M86.4781 118.131L86.3859 118.09C84.3401 120.414 81.5054 121.898 78.4297 122.253C75.3539 122.609 72.2556 121.811 69.7335 120.015C68.0444 118.96 66.608 117.546 65.5257 115.874C64.4435 114.202 63.742 112.313 63.4709 110.34C62.2176 111.097 60.8485 111.644 59.4181 111.958C56.5485 112.588 53.5579 112.372 50.8083 111.337C49.6777 110.912 48.5956 110.368 47.5801 109.714C47.2188 109.481 46.8923 109.232 46.5574 108.995C45.3343 109.689 43.9941 110.152 42.6036 110.361C39.263 110.859 35.8561 110.109 33.0335 108.254C31.9761 107.576 31.0117 106.762 30.1644 105.835C28.9661 104.553 28.0436 103.039 27.4539 101.386C26.8641 99.7333 26.6198 97.9771 26.736 96.2262C26.2866 96.2004 25.8379 96.1408 25.3791 96.0642C23.4892 95.7334 21.6843 95.0288 20.0701 93.9917C19.5478 93.6637 19.0537 93.293 18.5927 92.8834C17.0903 91.6616 15.8704 90.1287 15.0171 88.3903C13.7726 85.9342 13.4242 83.1207 14.0319 80.4351C10.6696 80.4001 7.38697 81.4585 4.67838 83.4509C4.02925 86.5705 4.35642 89.8144 5.61542 92.7415C6.52629 94.8946 7.93393 96.8015 9.7232 98.3062C10.2592 98.8034 10.8399 99.2501 11.458 99.6406C13.3933 100.88 15.5794 101.675 17.8589 101.968C18.4097 102.038 18.9639 102.078 19.5191 102.088C19.117 105.01 19.5592 107.986 20.7936 110.665C22.0281 113.343 24.0031 115.613 26.4856 117.205C28.962 118.794 31.8395 119.645 34.7816 119.659C37.7237 119.673 40.609 118.849 43.1002 117.283C43.4979 117.566 43.8836 117.866 44.3119 118.142C45.522 118.922 46.821 119.554 48.1813 120.025C51.5941 121.186 55.281 121.269 58.7428 120.264C60.5545 119.751 62.2742 118.956 63.8386 117.908C64.0066 120.682 64.9181 123.359 66.4776 125.659C68.037 127.959 70.1869 129.797 72.7015 130.98C75.2161 132.162 78.0027 132.646 80.7688 132.381C83.5349 132.115 86.1786 131.11 88.4222 129.47C89.2598 125.581 88.5634 121.519 86.4781 118.131Z" fill="#5CB34F"/>
<path d="M88.4854 96.5368C86.8125 95.4561 84.8992 94.804 82.9145 94.6381C82.7022 94.2903 82.4691 93.9558 82.2163 93.6362C81.1237 92.179 79.7781 90.93 78.2437 89.9487C74.7866 87.7248 70.5878 86.9654 66.5708 87.8374C62.5538 88.7095 59.0477 91.1415 56.8239 94.5986C56.4074 95.2653 56.0391 95.961 55.7218 96.6802C53.0908 95.369 50.1722 94.7409 47.2348 94.8539C47.6051 92.0367 47.0611 89.175 45.6827 86.6902C44.3043 84.2055 42.1645 82.2291 39.5783 81.0519C36.9922 79.8748 34.0964 79.5592 31.3174 80.1517C28.5384 80.7441 26.0231 82.2133 24.1419 84.3428L24.0049 84.2283L20.4113 89.8147L20.5483 89.9291C22.5028 87.728 25.1297 86.234 28.0207 85.6796C30.0822 85.2847 32.2079 85.3853 34.2228 85.9732C36.2377 86.5612 38.0841 87.6196 39.6096 89.0611C41.1352 90.5027 42.2963 92.2862 42.9972 94.2647C43.6982 96.2431 43.9189 98.3598 43.6412 100.44C46.5787 100.327 49.4973 100.955 52.1282 102.267C52.4456 101.547 52.8139 100.852 53.2304 100.185C55.4542 96.7279 58.9602 94.2958 62.9772 93.4238C66.9942 92.5518 71.1931 93.3112 74.6502 95.535C76.1845 96.5163 77.5301 97.7654 78.6228 99.2226C78.8756 99.5421 79.1087 99.8767 79.3209 100.225C81.1271 100.377 82.8764 100.93 84.4415 101.844C86.0065 102.759 87.3477 104.011 88.3672 105.51C89.3867 107.008 90.0588 108.715 90.3345 110.507C90.6102 112.298 90.4825 114.129 89.9608 115.865C91.3813 114.628 92.4933 113.077 93.2079 111.335C93.9225 109.593 94.2201 107.708 94.0767 105.83C93.9334 103.953 93.3532 102.134 92.3824 100.521C91.4116 98.9073 90.0771 97.543 88.4854 96.5368Z" fill="#8EE05B"/>
<path d="M75.9244 81.6118C74.8299 78.6308 73.0594 75.944 70.752 73.7623C68.4445 71.5805 65.6629 69.9632 62.6253 69.0372C59.5878 68.1111 56.3769 67.9016 53.2448 68.425C50.1127 68.9485 47.1444 70.1906 44.573 72.054C46.2561 69.5931 44.5343 66.2372 42.4577 64.0958C39.1574 60.7423 34.962 58.409 30.372 57.3745C29.3304 57.2437 28.3051 57.005 27.3128 56.6624C26.2682 56.1826 25.3549 55.4293 24.277 54.9728C23.6558 54.7143 23.0195 54.4939 22.3714 54.313C21.941 54.807 21.5437 55.3289 21.1822 55.8753C20.7773 56.4883 20.4302 57.1375 20.1453 57.8146C18.583 61.2014 18.2982 65.0388 19.3433 68.619C20.3885 72.1993 22.6931 75.2808 25.8321 77.2951C27.5257 78.3806 29.4126 79.1296 31.3896 79.5011C31.4499 79.7037 31.525 79.9016 31.6143 80.0932C33.6757 79.6982 35.8015 79.7989 37.8164 80.3868C39.8313 80.9748 41.6776 82.0331 43.2032 83.4747C44.7287 84.9163 45.8898 86.6998 46.5908 88.6782C47.2917 90.6567 47.5125 92.7733 47.2348 94.8538C50.1722 94.7409 53.0908 95.369 55.7218 96.6802C56.0391 95.9609 56.4074 95.2653 56.8239 94.5985C59.0477 91.1415 62.5538 88.7094 66.5708 87.8374C70.5878 86.9654 74.7866 87.7248 78.2437 89.9486C79.7781 90.9299 81.1237 92.1789 82.2163 93.6361C85.93 93.2238 89.3683 91.479 91.8938 88.7252C90.0953 86.2371 87.6709 84.2686 84.8665 83.0194C82.062 81.7701 78.9771 81.2845 75.9244 81.6118Z" fill="#44853B"/>
<path d="M95.7328 75.3987C95.1183 75.0035 94.5218 74.5802 93.8791 74.2247C89.7281 71.7402 84.7785 70.9535 80.0618 72.0287C79.5744 69.813 78.6351 67.7217 77.3027 65.8856C75.9702 64.0495 74.2732 62.508 72.3178 61.3577C70.3625 60.2073 68.1908 59.4728 65.9386 59.2001C63.6864 58.9273 61.4021 59.1222 59.2287 59.7726C58.5768 57.6982 57.4857 55.7886 56.0296 54.1737C54.5735 52.5588 52.7867 51.2765 50.7906 50.4142C48.7945 49.5518 46.636 49.1296 44.4621 49.1763C42.2882 49.223 40.1498 49.7374 38.1926 50.6846C37.722 49.1188 36.9472 47.6612 35.9126 46.3953C34.8779 45.1293 33.6037 44.0799 32.1629 43.3071C29.2668 41.7775 26.0184 41.0392 22.7458 41.1667C21.0572 41.2181 19.3783 41.442 17.7353 41.8347C17.1168 44.0948 17.2335 46.4932 18.0685 48.6826C18.9035 50.872 20.4136 52.7389 22.38 54.0132C22.4359 54.0491 22.4851 54.0544 22.541 54.0904C22.4807 54.1595 22.4416 54.2449 22.3738 54.3093C23.0218 54.4902 23.6582 54.7105 24.2793 54.969C25.3573 55.4255 26.2706 56.1789 27.3152 56.6586C28.3075 57.0013 29.3328 57.2399 30.3744 57.3707C34.9644 58.4053 39.1598 60.7385 42.4601 64.0921C44.5439 66.2223 46.2585 69.5893 44.5754 72.0502C47.147 70.1874 50.1153 68.9458 53.2474 68.4229C56.3794 67.9 59.59 68.11 62.6273 69.0363C65.6646 69.9627 68.4459 71.5803 70.753 73.7622C73.0601 75.944 74.8302 78.6308 75.9244 81.6117C78.9754 81.2853 82.0585 81.7709 84.8615 83.0192C87.6645 84.2675 90.088 86.2343 91.8864 88.7204C93.538 86.9628 94.7473 84.8371 95.4142 82.5193C96.0812 80.2015 96.1865 77.7582 95.7217 75.3916L95.7328 75.3987Z" fill="#52A147"/>
<path d="M-17.9911 80.2704C-16.5059 78.8421 -14.9298 77.5116 -13.2726 76.287C-14.1203 75.3968 -14.6228 74.2335 -14.6897 73.006C-14.8373 71.589 -14.625 70.1576 -14.0725 68.8444C-13.5199 67.5312 -12.6451 66.3786 -11.5288 65.4933C-10.37 64.631 -8.98925 64.1173 -7.54866 64.0125C-6.83492 63.9554 -6.11666 64.0024 -5.41644 64.152C-4.95418 64.2519 -3.76385 64.9307 -3.42149 64.685C-3.11797 64.4669 -3.19312 62.5783 -3.12595 62.1792C-2.99356 61.2298 -2.79426 60.2909 -2.52954 59.3695C-2.02199 57.5367 -1.15155 55.8244 0.0301696 54.3344C0.549799 53.7082 1.13467 53.1393 1.77487 52.6371C-0.288465 52.3759 -2.38361 52.7028 -4.26931 53.5802C-6.15502 54.4575 -7.75461 55.8495 -8.88391 57.596C-9.05161 57.8567 -9.15146 58.1347 -9.28856 58.3888C-11.4283 58.0239 -13.6282 58.296 -15.6145 59.1715C-17.6008 60.0469 -19.2859 61.487 -20.4603 63.3126C-21.6346 65.1382 -22.2464 67.2687 -22.2194 69.4392C-22.1925 71.6097 -21.528 73.7244 -20.3088 75.5203C-20.4831 75.7504 -20.6947 75.9565 -20.8624 76.2172C-21.6801 77.4883 -22.1576 78.9482 -22.2489 80.4568C-22.3403 81.9655 -22.0424 83.4723 -21.384 84.8327C-20.4662 83.1645 -19.3246 81.6295 -17.9911 80.2704Z" fill="#39632C"/>
<path d="M31.3896 79.5011C29.4126 79.1296 27.5257 78.3806 25.8321 77.2951C22.6931 75.2808 20.3885 72.1993 19.3433 68.619C18.2981 65.0388 18.583 61.2013 20.1453 57.8146L19.9843 57.7374C18.5078 56.7943 16.7847 56.3102 15.0331 56.3466C13.2814 56.3829 11.5799 56.938 10.1437 57.9415C9.4964 60.2289 9.05338 62.5792 8.62246 64.9188C8.48016 65.6803 8.33972 66.4429 8.26207 67.2144C8.08659 68.5001 8.10734 69.805 8.3236 71.0845C7.27583 71.0852 6.23012 71.1772 5.19829 71.3592C4.16033 71.5933 3.15419 71.9511 2.20139 72.4247C0.295845 73.3753 -1.39336 74.7084 -2.76084 76.3409C-5.38595 79.6935 -7.08622 83.6758 -7.69205 87.8906C-10.5629 87.8853 -13.3482 88.8673 -15.581 90.6718C-15.8245 92.7189 -15.4894 94.7934 -14.6136 96.6597C-13.7378 98.5261 -12.3564 100.11 -10.6262 101.23C-10.0158 101.629 -9.36372 101.961 -8.68149 102.218C-6.14847 103.219 -3.33462 103.247 -0.781969 102.298L-0.386789 102.052C-1.70353 99.0011 -2.00507 95.6081 -1.24694 92.3731C-0.488811 89.1381 1.28885 86.2324 3.82388 84.0845C6.3589 81.9366 9.51708 80.6602 12.8326 80.4436C16.1482 80.227 19.4456 81.0816 22.2385 82.8814C22.9063 83.3234 23.5423 83.8117 24.1418 84.3427C26.0963 82.1415 28.7232 80.6476 31.6142 80.0931C31.525 79.9015 31.4499 79.7036 31.3896 79.5011Z" fill="#233D1B"/>
<path d="M-7.69685 87.8981C-7.09101 83.6833 -5.39075 79.701 -2.76564 76.3484C-1.39815 74.716 0.29105 73.3829 2.1966 72.4323C3.14939 71.9586 4.15554 71.6009 5.1935 71.3667C6.22532 71.1847 7.27104 71.0928 8.3188 71.092C8.10254 69.8125 8.0818 68.5076 8.25727 67.2219C8.33492 66.4505 8.47537 65.6878 8.61767 64.9264C9.04858 62.5867 9.4976 60.2271 10.139 57.9491C10.0788 57.9894 10.0136 58.0211 9.95533 58.0626C9.12414 56.5688 7.94605 55.2967 6.52036 54.3535C5.09466 53.4103 3.46312 52.8236 1.76324 52.6428C1.12303 53.145 0.538169 53.714 0.0185386 54.3401C-1.16318 55.8302 -2.03363 57.5424 -2.54117 59.3752C-2.8059 60.2966 -3.0052 61.2355 -3.13759 62.185C-3.19544 62.59 -3.1203 64.4786 -3.43312 64.6907C-3.77549 64.9365 -4.96581 64.2576 -5.42807 64.1577C-6.1283 64.0082 -6.84655 63.9612 -7.5603 64.0182C-9.00089 64.1231 -10.3816 64.6368 -11.5404 65.499C-12.6567 66.3843 -13.5316 67.5369 -14.0841 68.8501C-14.6366 70.1633 -14.8489 71.5947 -14.7014 73.0117C-14.6344 74.2392 -14.1319 75.4026 -13.2842 76.2928C-14.9426 77.5164 -16.52 78.8462 -18.0065 80.2737C-19.3344 81.6328 -20.4707 83.1666 -21.3841 84.8328C-20.6834 86.3138 -19.5823 87.5692 -18.2053 88.4571C-17.3523 88.9867 -16.4187 89.3738 -15.4412 89.6033C-15.5158 89.9608 -15.5473 90.3249 -15.5858 90.6793C-13.353 88.8748 -10.5676 87.8929 -7.69685 87.8981Z" fill="#2F5224"/>
<path d="M22.7458 41.1668C25.2091 41.1 27.6634 41.4906 29.9842 42.3189C31.6407 40.0432 34.1037 38.4861 36.87 37.9657C39.6362 37.4453 42.4967 38.0009 44.867 39.5191C46.1444 40.3384 47.2355 41.417 48.0695 42.6849C51.6354 40.9028 55.7517 40.5662 59.5597 41.7454C63.3678 42.9246 66.5735 45.5285 68.5083 49.014C70.8421 48.6131 73.2369 48.754 75.5077 49.4257C77.7784 50.0975 79.8644 51.2822 81.6046 52.8883C83.3447 54.4944 84.6924 56.4789 85.5436 58.6887C86.3949 60.8984 86.7268 63.2743 86.5139 65.6327C87.9413 65.411 88.8936 65.2074 88.8936 65.2074L88.7446 65.1116C89.2382 64.5583 89.6885 63.9678 90.0915 63.3453C91.7212 60.823 92.5815 57.8809 92.5674 54.8779C92.5532 51.8749 91.6652 48.9409 90.0118 46.4341C88.3583 43.9273 86.0109 41.956 83.2559 40.7608C80.501 39.5656 77.4577 39.1981 74.4975 39.7033C72.5627 36.2179 69.357 33.614 65.549 32.4348C61.7409 31.2556 57.6246 31.5922 54.0587 33.3743C53.2247 32.1063 52.1337 31.0278 50.8562 30.2085C48.3869 28.62 45.3877 28.0776 42.5184 28.7005C39.6491 29.3233 37.1448 31.0605 35.5563 33.5298C35.1551 34.1642 34.8124 34.8338 34.5327 35.5304C34.4769 35.4944 34.433 35.4399 34.3585 35.392C31.8892 33.8035 28.89 33.2611 26.0207 33.8839C23.1514 34.5068 20.6471 36.244 19.0587 38.7133C18.1673 40.1193 17.6144 41.7129 17.4435 43.3688C17.5034 42.8502 17.599 42.3365 17.7297 41.8311C19.3747 41.4392 21.0555 41.2166 22.7458 41.1668Z" fill="#7BC24F"/>
</svg>
