<svg width="124" height="154" viewBox="0 0 124 154" fill="none" xmlns="http://www.w3.org/2000/svg">
<path d="M132.452 167.881L117.286 173.094C116.295 173.428 115.228 173.467 114.215 173.204C113.202 172.942 112.288 172.391 111.583 171.617L110.362 170.269L110.143 170.106C112.108 167.466 113.026 164.192 112.721 160.915L112.558 160.377C115.357 159.992 118.024 158.949 120.343 157.335L120.467 157.512L125.925 163.542C127.708 165.506 129.951 166.998 132.452 167.881Z" fill="white"/>
<path d="M143.409 158.179L156.648 153.628L167.796 157.971L180.741 164.296L164.874 178.661L152.305 164.777L143.056 167.954C140.081 168.966 136.875 169.087 133.832 168.304C130.789 167.52 128.041 165.865 125.925 163.542L120.467 157.512L120.343 157.336C121.094 156.862 121.799 156.32 122.45 155.717C124.505 153.849 126.12 151.548 127.179 148.981L135.007 157.629C135.712 158.402 136.627 158.954 137.64 159.216C138.652 159.478 139.72 159.44 140.711 159.106L143.409 158.179Z" fill="#9A6948"/>
<path d="M97.0098 116.134C96.747 119.681 97.6633 123.216 99.6163 126.189C98.8082 126.721 98.0385 127.31 97.3127 127.95C94.3342 130.642 92.2996 134.22 91.5091 138.156C90.7186 142.092 91.214 146.178 92.9222 149.811C94.6303 153.445 97.4609 156.433 100.996 158.335C104.532 160.237 108.585 160.953 112.558 160.377L112.721 160.915C113.026 164.192 112.108 167.466 110.143 170.106C109.628 170.821 109.036 171.478 108.379 172.064C106.361 173.883 103.838 175.045 101.144 175.395C98.4504 175.745 95.714 175.266 93.2988 174.023C92.7235 175.091 91.9781 176.059 91.0919 176.887C88.9878 178.792 86.2132 179.783 83.3785 179.642C80.5438 179.501 77.8812 178.24 75.9764 176.136C75.725 175.858 75.5511 175.546 75.3375 175.271C72.8587 176.128 70.1826 176.238 67.6419 175.586C65.1013 174.935 62.8082 173.551 61.0479 171.606C59.2876 169.662 58.1378 167.243 57.7415 164.65C57.3451 162.057 57.7198 159.405 58.8188 157.024C58.5655 156.784 58.2726 156.58 58.0212 156.302C56.468 154.614 55.3791 152.551 54.8607 150.316C54.3424 148.081 54.4122 145.75 55.0634 143.55C55.7146 141.35 56.925 139.356 58.5764 137.764C60.2279 136.171 62.264 135.034 64.4861 134.463C63.7057 132.445 63.554 130.239 64.0508 128.134C64.5476 126.029 65.6696 124.124 67.2695 122.668L67.4103 122.505C70.8697 125.393 75.257 126.932 79.7627 126.84C84.2684 126.747 88.5885 125.028 91.9261 122C93.7255 120.365 95.193 118.4 96.2484 116.21C96.5037 116.203 96.7582 116.178 97.0098 116.134Z" fill="#2F5224"/>
<path d="M124.119 45.9414C125.989 48.0046 127.374 50.4604 128.173 53.1286C128.971 55.7968 129.162 58.6098 128.731 61.3614C126.687 62.1776 124.807 63.3544 123.179 64.8357C119.497 68.1691 117.29 72.8287 117.043 77.7895C116.797 82.7502 118.531 87.6057 121.864 91.2879C122.511 91.9835 123.207 92.6321 123.946 93.2286C121.589 95.8854 119.938 99.0928 119.145 102.555C116.805 101.577 114.266 101.168 111.738 101.363C109.209 101.559 106.763 102.352 104.601 103.678C102.439 105.004 100.624 106.825 99.3039 108.991C97.984 111.157 97.1977 113.605 97.0098 116.134C96.7582 116.178 96.5037 116.203 96.2484 116.21C95.193 118.4 93.7255 120.365 91.9262 121.999C88.5886 125.028 84.2684 126.747 79.7627 126.84C75.257 126.932 70.8698 125.393 67.4103 122.504C66.71 121.959 66.0618 121.35 65.4741 120.685C64.8696 120.011 64.3164 119.294 63.8193 118.538C63.7598 118.592 63.7381 118.647 63.6786 118.701C61.0485 121.082 57.5802 122.321 54.0369 122.145C50.4935 121.969 47.1652 120.392 44.7842 117.762C42.4032 115.132 41.1645 111.664 41.3406 108.12C41.5168 104.577 43.0933 101.249 45.7234 98.8676C45.8027 98.7958 45.8802 98.7618 45.9397 98.7079C45.2151 98.1624 44.5417 97.552 43.9279 96.8843C41.5469 94.2542 40.3082 90.786 40.4843 87.2426C40.6605 83.6992 42.237 80.3709 44.8671 77.9899C46.2249 76.7574 47.8265 75.8238 49.5681 75.2498C48.611 70.529 49.5135 65.6209 52.0874 61.5493C54.6613 57.4778 58.7078 54.5572 63.3828 53.3967C63.7248 49.7842 65.111 46.3494 67.3722 43.5115C69.6334 40.6736 72.6718 38.5553 76.1166 37.415C79.5614 36.2748 83.2636 36.162 86.7715 37.0903C90.2793 38.0187 93.4411 39.9481 95.8709 42.6431C96.4702 43.3091 97.0174 44.0202 97.5077 44.7701L97.6664 44.6265C101.349 41.2931 106.204 39.5589 111.165 39.8055C116.126 40.0521 120.785 42.2592 124.119 45.9414Z" fill="#5CB34F"/>
<path d="M143.183 146.727C140.792 147.856 138.192 148.47 135.55 148.531C132.907 148.593 130.281 148.099 127.842 147.082C127.655 147.727 127.434 148.361 127.179 148.981C126.12 151.548 124.505 153.849 122.45 155.717C121.799 156.32 121.094 156.862 120.343 157.335C118.024 158.949 115.357 159.992 112.558 160.377C108.585 160.953 104.532 160.237 100.996 158.335C97.4609 156.433 94.6303 153.445 92.9221 149.811C91.214 146.178 90.7186 142.092 91.5091 138.156C92.2996 134.22 94.3342 130.642 97.3127 127.95C98.0385 127.31 98.8082 126.721 99.6163 126.189C97.6633 123.216 96.747 119.681 97.0098 116.134C97.1977 113.605 97.984 111.157 99.3039 108.991C100.624 106.825 102.439 105.004 104.601 103.678C106.763 102.352 109.209 101.559 111.738 101.363C114.266 101.168 116.805 101.577 119.145 102.555C119.937 99.0927 121.589 95.8854 123.946 93.2286C123.207 92.6321 122.511 91.9835 121.864 91.2878C118.531 87.6057 116.797 82.7502 117.043 77.7895C117.29 72.8287 119.497 68.1691 123.179 64.8357C124.807 63.3544 126.687 62.1776 128.731 61.3614C129.184 61.167 129.647 61.0003 130.12 60.8622C130.983 58.4739 132.45 56.3496 134.377 54.696C136.304 53.0424 138.627 51.9158 141.118 51.4257C143.61 50.9355 146.186 51.0986 148.596 51.8991C151.006 52.6995 153.168 54.1101 154.872 55.9935C156.912 58.2554 158.206 61.0908 158.578 64.114C161.309 63.278 164.195 63.0775 167.015 63.5279C169.835 63.9783 172.514 65.0678 174.849 66.7129C177.183 68.358 179.111 70.5152 180.483 73.0195C181.856 75.5238 182.638 78.3089 182.769 81.1617C182.9 84.0146 182.377 86.8596 181.239 89.4792C180.102 92.0988 178.381 94.4236 176.207 96.2758C174.033 98.128 171.465 99.4585 168.698 100.166C165.931 100.873 163.039 100.938 160.243 100.355C160.973 102.51 161.36 104.767 161.388 107.042C161.471 111.396 160.214 115.671 157.786 119.288C156.808 120.726 155.662 122.043 154.371 123.209C153.915 123.622 153.443 123.978 152.989 124.353C154.031 127.752 154.084 131.377 153.143 134.805C152.201 138.233 150.303 141.322 147.67 143.711C146.328 144.928 144.816 145.944 143.183 146.727Z" fill="#7BC24F"/>
<path d="M167.587 85.9842C165.406 87.9553 162.793 89.3857 159.958 90.1595C157.122 90.9333 154.144 91.0289 151.265 90.4385C151.996 92.5934 152.382 94.8498 152.41 97.1248C152.493 101.48 151.236 105.755 148.809 109.371C147.831 110.81 146.684 112.126 145.394 113.293C144.938 113.706 144.466 114.061 144.011 114.436C145.054 117.835 145.107 121.46 144.165 124.888C143.223 128.316 141.325 131.406 138.692 133.795C136.053 136.19 132.784 137.78 129.271 138.377C125.757 138.974 122.146 138.554 118.864 137.166C118.678 137.81 118.456 138.444 118.201 139.065C117.142 141.632 115.527 143.932 113.472 145.8C112.822 146.403 112.116 146.945 111.365 147.419C109.047 149.033 106.379 150.075 103.581 150.46C99.7697 151.008 95.8824 150.369 92.4473 148.63C93.9755 152.575 96.7967 155.885 100.45 158.018C104.103 160.152 108.372 160.984 112.558 160.377C115.357 159.992 118.024 158.949 120.343 157.335C121.094 156.862 121.799 156.32 122.45 155.717C124.505 153.849 126.12 151.548 127.179 148.981C127.434 148.361 127.655 147.727 127.842 147.082C131.124 148.471 134.735 148.891 138.248 148.294C141.762 147.697 145.031 146.107 147.67 143.711C150.303 141.322 152.201 138.233 153.143 134.805C154.084 131.377 154.031 127.752 152.989 124.353C153.443 123.978 153.915 123.622 154.372 123.209C155.662 122.043 156.808 120.727 157.786 119.288C160.214 115.671 161.471 111.396 161.388 107.042C161.36 104.767 160.973 102.51 160.243 100.355C164.686 101.294 169.32 100.583 173.277 98.3538C177.234 96.1248 180.243 92.5308 181.743 88.244C183.242 83.9571 183.129 79.2708 181.425 75.0613C179.72 70.8517 176.541 67.4071 172.481 65.3715C173.846 68.8992 174.109 72.7578 173.235 76.4379C172.361 80.1181 170.391 83.4467 167.587 85.9842Z" fill="#44853B"/>
<path d="M158.649 64.0968L158.572 64.1915C160.64 67.3094 161.478 71.0832 160.925 74.7833C160.372 78.4834 158.467 81.8471 155.578 84.2243C153.816 85.8628 151.714 87.0939 149.423 87.8303C147.132 88.5668 144.707 88.7907 142.32 88.4862C142.809 90.1867 143.016 91.956 142.933 93.7235C142.764 97.2694 141.572 100.69 139.5 103.573C138.648 104.758 137.672 105.849 136.589 106.828C136.205 107.176 135.811 107.479 135.43 107.795C135.854 109.44 135.973 111.149 135.779 112.837C135.309 116.891 133.362 120.63 130.31 123.339C129.186 124.359 127.933 125.229 126.584 125.925C124.712 126.92 122.655 127.52 120.542 127.688C118.428 127.856 116.302 127.588 114.296 126.902C114.125 127.418 113.914 127.922 113.68 128.434C112.7 130.534 111.31 132.418 109.592 133.975C109.045 134.481 108.457 134.941 107.834 135.35C105.936 136.718 103.764 137.659 101.467 138.108C98.2103 138.787 94.8184 138.308 91.8765 136.754C90.7777 140.666 90.9796 144.828 92.4518 148.615C95.887 150.354 99.7743 150.993 103.585 150.445C106.384 150.06 109.051 149.018 111.37 147.404C112.118 146.935 112.822 146.398 113.472 145.8C115.527 143.932 117.142 141.632 118.201 139.065C118.456 138.444 118.678 137.81 118.864 137.165C122.146 138.554 125.757 138.974 129.271 138.377C132.784 137.78 136.053 136.19 138.693 133.795C141.325 131.406 143.223 128.316 144.165 124.888C145.107 121.46 145.054 117.835 144.011 114.436C144.466 114.061 144.938 113.706 145.394 113.293C146.684 112.126 147.831 110.81 148.809 109.371C151.236 105.755 152.493 101.48 152.41 97.1248C152.382 94.8498 151.996 92.5934 151.265 90.4385C154.554 91.1154 157.964 90.8944 161.138 89.7988C164.312 88.7031 167.133 86.7733 169.304 84.2118C171.475 81.6503 172.916 78.5516 173.477 75.241C174.037 71.9303 173.696 68.5299 172.489 65.3965C168.216 63.1957 163.257 62.73 158.649 64.0968Z" fill="#5CB34F"/>
<path d="M172.469 164.567C171.552 165.398 170.375 165.885 169.139 165.946C167.903 166.007 166.685 165.638 165.69 164.901L158.255 159.391L137.421 165.202C136.756 165.388 136.052 165.385 135.388 165.194C134.725 165.002 134.128 164.629 133.664 164.118L132.317 162.63C131.655 161.898 131.31 160.933 131.359 159.948C131.408 158.962 131.847 158.036 132.579 157.374L133.787 156.28L127.179 148.981C126.12 151.548 124.505 153.849 122.45 155.717C121.799 156.32 121.094 156.862 120.343 157.336L120.467 157.512L125.925 163.542C128.041 165.865 130.789 167.52 133.832 168.304C136.875 169.087 140.081 168.966 143.056 167.954L152.305 164.777L164.874 178.661L180.741 164.296L175.563 161.766L172.469 164.567Z" fill="#714226"/>
<path d="M134.088 54.9604C132.3 56.572 130.938 58.599 130.12 60.8622C129.647 61.0004 129.184 61.1671 128.731 61.3614C126.687 62.1777 124.807 63.3545 123.179 64.8358C119.497 68.1692 117.29 72.8288 117.043 77.7895C116.797 82.7502 118.531 87.6058 121.864 91.2879C122.511 91.9836 123.207 92.6321 123.946 93.2287C121.589 95.8855 119.937 99.0928 119.145 102.555C115.975 101.237 112.465 100.971 109.133 101.797C105.8 102.624 102.821 104.498 100.634 107.145C98.4471 109.791 97.1678 113.071 96.9846 116.499C96.8013 119.927 97.7239 123.324 99.6163 126.189L99.4397 126.313L104.826 132.263L105.003 132.139C103.05 129.166 102.134 125.632 102.396 122.084C102.584 119.555 103.371 117.107 104.69 114.941C106.01 112.775 107.826 110.955 109.988 109.628C112.15 108.302 114.596 107.509 117.124 107.313C119.653 107.118 122.192 107.527 124.532 108.505C125.324 105.043 126.975 101.836 129.333 99.1787C128.593 98.5822 127.898 97.9336 127.251 97.238C123.917 93.5558 122.183 88.7003 122.43 83.7396C122.677 78.7789 124.884 74.1193 128.566 70.7858C130.193 69.3045 132.074 68.1277 134.118 67.3115C134.57 67.1172 135.034 66.9505 135.506 66.8123C136.252 64.7531 137.448 62.8863 139.007 61.3482C140.566 59.8101 142.449 58.6394 144.518 57.9215C146.587 57.2037 148.791 56.9568 150.967 57.1988C153.144 57.4408 155.239 58.1657 157.1 59.3205C156.105 57.2743 154.645 55.4891 152.838 54.1072C151.03 52.7253 148.925 51.785 146.689 51.3615C144.453 50.9379 142.15 51.0427 139.962 51.6676C137.774 52.2925 135.762 53.4201 134.088 54.9604Z" fill="#8EE05B"/>
<path d="M112.723 64.9183C108.901 65.2573 105.21 66.4774 101.938 68.4829C98.6671 70.4883 95.9051 73.2246 93.869 76.4769C91.8329 79.7293 90.5782 83.4092 90.2033 87.228C89.8284 91.0467 90.3436 94.9004 91.7084 98.4866C89.367 95.7488 84.9102 96.7016 81.7586 98.4504C76.8078 101.245 72.7657 105.406 70.1145 110.435C69.6342 111.609 69.0332 112.73 68.3212 113.78C67.4328 114.848 66.2666 115.676 65.3948 116.79C64.8978 117.433 64.4405 118.107 64.0256 118.806C64.4664 119.463 64.9502 120.091 65.474 120.685C66.0617 121.35 66.7099 121.959 67.4102 122.504C70.8697 125.393 75.257 126.932 79.7627 126.84C84.2684 126.747 88.5885 125.028 91.9261 121.999C93.7254 120.365 95.1929 118.4 96.2483 116.21C96.5037 116.203 96.7581 116.178 97.0097 116.134C97.1976 113.605 97.9839 111.157 99.3038 108.991C100.624 106.825 102.439 105.004 104.601 103.678C106.763 102.352 109.209 101.559 111.738 101.363C114.266 101.168 116.805 101.577 119.145 102.555C119.937 99.0928 121.589 95.8854 123.946 93.2286C123.207 92.6321 122.511 91.9835 121.864 91.2879C118.531 87.6057 116.797 82.7502 117.043 77.7895C117.29 72.8287 119.497 68.1691 123.179 64.8357C124.807 63.3544 126.687 62.1776 128.731 61.3614C129.419 56.8991 128.465 52.3389 126.047 48.5261C122.578 49.8414 119.519 52.0504 117.179 54.9291C114.839 57.8079 113.302 61.254 112.723 64.9183Z" fill="#44853B"/>
<path d="M111.708 39.8542C111.053 40.4468 110.372 41.0095 109.755 41.6475C105.55 45.7084 103.075 51.2353 102.845 57.0762C100.107 56.9477 97.3718 57.3854 94.8105 58.3622C92.2491 59.339 89.9169 60.8338 87.9596 62.753C86.0023 64.6723 84.4621 66.9747 83.4353 69.5164C82.4084 72.0581 81.9171 74.7843 81.9919 77.5245C79.3667 77.6323 76.7956 78.3043 74.4535 79.4949C72.1113 80.6855 70.0532 82.3667 68.4191 84.4241C66.785 86.4815 65.6132 88.8668 64.9837 91.4176C64.3541 93.9685 64.2815 96.625 64.7707 99.2064C62.7959 99.2627 60.8516 99.708 59.0492 100.517C57.2467 101.326 55.6215 102.482 54.2666 103.92C51.5709 106.817 49.6874 110.374 48.8065 114.232C48.3352 116.219 48.068 118.248 48.0092 120.288C50.4514 121.721 53.2861 122.339 56.1031 122.054C58.92 121.769 61.5732 120.594 63.6785 118.701C63.738 118.647 63.7597 118.592 63.8192 118.538C63.8809 118.63 63.9682 118.702 64.022 118.802C64.437 118.103 64.8942 117.429 65.3913 116.786C66.263 115.672 67.4293 114.844 68.3177 113.776C69.0296 112.726 69.6306 111.605 70.111 110.431C72.7621 105.402 76.8042 101.241 81.755 98.4464C84.8958 96.6857 89.3635 95.7448 91.7049 98.4826C90.3408 94.8964 89.8263 91.0428 90.2017 87.2243C90.5771 83.4058 91.8323 79.7263 93.8687 76.4744C95.9051 73.2224 98.6674 70.4867 101.939 68.4817C105.21 66.4766 108.902 65.257 112.723 64.9183C113.303 61.2562 114.839 57.8121 117.177 54.9348C119.516 52.0575 122.573 49.8491 126.039 48.5332C124.508 46.0534 122.409 43.9737 119.915 42.4664C117.42 40.959 114.603 40.0673 111.696 39.865L111.708 39.8542Z" fill="#52A147"/>
<path d="M81.6084 174.061C80.4095 171.879 79.3531 169.622 78.4459 167.303C77.1407 168.012 75.6253 168.232 74.1723 167.924C72.4727 167.65 70.8696 166.952 69.5114 165.895C68.1533 164.837 67.0839 163.453 66.4023 161.873C65.761 160.249 65.5961 158.477 65.9271 156.763C66.0851 155.913 66.3659 155.09 66.7607 154.32C67.0227 153.812 68.1892 152.637 68.0102 152.16C67.8513 151.737 65.6244 151.231 65.1799 151.027C64.1139 150.574 63.0812 150.046 62.0896 149.447C60.1111 148.278 58.3874 146.724 57.0209 144.876C56.4539 144.073 55.9742 143.212 55.5898 142.307C54.6359 144.632 54.358 147.179 54.7882 149.655C55.2183 152.131 56.3391 154.435 58.0212 156.302C58.2726 156.58 58.5655 156.784 58.8188 157.024C57.7198 159.405 57.3452 162.057 57.7415 164.65C58.1378 167.243 59.2877 169.662 61.0479 171.606C62.8082 173.551 65.1013 174.935 67.642 175.586C70.1826 176.238 72.8588 176.128 75.3375 175.271C75.5511 175.546 75.725 175.858 75.9764 176.136C77.202 177.49 78.7549 178.506 80.4862 179.087C82.2175 179.669 84.0691 179.795 85.8634 179.455C84.206 177.859 82.7744 176.045 81.6084 174.061Z" fill="#39632C"/>
<path d="M96.2484 116.21C95.193 118.4 93.7255 120.365 91.9262 121.999C88.5886 125.028 84.2684 126.747 79.7627 126.84C75.257 126.932 70.8698 125.393 67.4103 122.504L67.2696 122.668C65.7047 124.094 64.5979 125.952 64.0891 128.007C63.5803 130.062 63.6925 132.221 64.4114 134.212C66.8762 135.687 69.4788 136.944 72.0727 138.183C72.9163 138.588 73.7618 138.992 74.6374 139.325C76.0821 139.935 77.611 140.321 79.1717 140.471C78.8429 141.694 78.6211 142.943 78.5089 144.204C78.4554 145.488 78.5562 146.775 78.809 148.035C79.3184 150.558 80.3422 152.948 81.8163 155.057C84.9016 159.174 89.0125 162.411 93.739 164.444C92.8296 167.791 93.0988 171.35 94.5014 174.522C96.8131 175.451 99.3387 175.712 101.792 175.278C104.244 174.843 106.526 173.73 108.379 172.064C109.036 171.478 109.628 170.821 110.143 170.106C112.108 167.466 113.026 164.192 112.721 160.915L112.558 160.377C108.585 160.953 104.532 160.237 100.996 158.335C97.4609 156.433 94.6304 153.445 92.9222 149.811C91.214 146.178 90.7186 142.092 91.5092 138.156C92.2997 134.22 94.3342 130.642 97.3127 127.95C98.0385 127.31 98.8083 126.721 99.6164 126.189C97.6634 123.216 96.747 119.681 97.0098 116.134C96.7582 116.178 96.5037 116.203 96.2484 116.21Z" fill="#233D1B"/>
<path d="M93.7462 164.452C89.0197 162.419 84.9088 159.182 81.8235 155.065C80.3493 152.956 79.3256 150.566 78.8162 148.043C78.5634 146.783 78.4626 145.496 78.516 144.212C78.6283 142.951 78.8501 141.702 79.1789 140.479C77.6182 140.329 76.0893 139.943 74.6445 139.333C73.769 139 72.9235 138.596 72.0799 138.191C69.4859 136.952 66.8744 135.685 64.4186 134.22C64.4467 134.303 64.4632 134.389 64.4933 134.47C62.4891 134.97 60.6343 135.944 59.0853 137.311C57.5363 138.677 56.3385 140.396 55.5928 142.322C55.9772 143.227 56.457 144.088 57.0239 144.892C58.3905 146.739 60.1141 148.293 62.0926 149.462C63.0843 150.061 64.1169 150.589 65.1829 151.042C65.6373 151.237 67.8642 151.744 68.0132 152.175C68.1922 152.652 67.0257 153.827 66.7637 154.335C66.3689 155.105 66.0881 155.928 65.9301 156.779C65.5991 158.492 65.764 160.265 66.4053 161.888C67.0869 163.469 68.1563 164.852 69.5145 165.91C70.8726 166.968 72.4757 167.666 74.1753 167.939C75.6284 168.248 77.1437 168.027 78.449 167.318C79.3547 169.638 80.4097 171.897 81.6075 174.08C82.7752 176.057 84.207 177.865 85.8634 179.455C87.8117 179.104 89.6228 178.214 91.0919 176.887C91.9781 176.059 92.7235 175.091 93.2989 174.023C93.6924 174.223 94.1072 174.374 94.5086 174.53C93.106 171.358 92.8368 167.799 93.7462 164.452Z" fill="#2F5224"/>
<path d="M48.8066 114.232C49.5037 111.338 50.7317 108.597 52.4283 106.15C50.2946 103.502 49.2529 100.138 49.5162 96.7475C49.7794 93.3566 51.3277 90.1942 53.8447 87.9067C55.2025 86.6742 56.804 85.7406 58.5457 85.1666C57.5886 80.4458 58.4911 75.5377 61.065 71.4661C63.6389 67.3946 67.6853 64.474 72.3603 63.3135C72.627 60.4646 73.5449 57.7151 75.0431 55.2773C76.5413 52.8395 78.5797 50.7787 81.0009 49.2539C83.4222 47.7292 86.1615 46.7813 89.0073 46.4835C91.8531 46.1858 94.7293 46.546 97.4138 47.5365C97.6042 45.8015 97.6664 44.6265 97.6664 44.6265L97.5077 44.7701C97.0174 44.0202 96.4702 43.3091 95.8709 42.6431C93.4411 39.9481 90.2793 38.0187 86.7715 37.0903C83.2636 36.162 79.5614 36.2748 76.1166 37.415C72.6718 38.5553 69.6334 40.6736 67.3722 43.5115C65.111 46.3494 63.7248 49.7842 63.3828 53.3967C58.7078 54.5572 54.6613 57.4778 52.0874 61.5493C49.5135 65.6209 48.611 70.529 49.5681 75.2498C47.8265 75.8238 46.2249 76.7574 44.8671 77.9899C42.237 80.3709 40.6605 83.6992 40.4843 87.2426C40.3082 90.786 41.5469 94.2542 43.9279 96.8843C44.5417 97.552 45.2151 98.1624 45.9397 98.7079C45.8802 98.7618 45.8027 98.7958 45.7234 98.8676C43.0933 101.249 41.5168 104.577 41.3406 108.12C41.1645 111.664 42.4032 115.132 44.7842 117.762C46.144 119.244 47.8292 120.391 49.7072 121.111C49.1211 120.878 48.5518 120.605 48.0033 120.293C48.0637 118.251 48.3329 116.22 48.8066 114.232Z" fill="#7BC24F"/>
</svg>
