<svg width="154" height="218" viewBox="0 0 154 218" fill="none" xmlns="http://www.w3.org/2000/svg">
<path d="M116.799 162.484C145.901 178.031 176.305 167.455 177.807 166.636L176.813 144.777C176.47 144.982 147.018 168.542 121.136 154.678C108.77 148.046 98.8467 137.084 93.8547 118.218C89.8754 110.779 88.1533 103.075 88.7374 107.845C89.397 113.227 89.2815 118.965 88.6736 124.354C94.3215 142.732 103.757 155.501 116.799 162.484Z" fill="#90B74B"/>
<path d="M91.801 108.958C87.8217 101.519 84.8722 93.0434 85.1853 85.1066C85.1899 85.0564 85.2019 85.0385 85.2066 84.9883C85.271 84.7645 85.4215 84.5694 85.6055 84.447C100.463 76.4741 127.573 81.3419 135.678 86.5076C142.089 90.5902 144.829 98.9346 140.469 105.777C135.883 112.979 122.946 106.909 120.452 107.121C121.326 109.454 132.46 118.349 127.705 125.811C123.345 132.654 114.625 133.697 108.215 129.614C104.502 127.252 97.1949 119.044 91.801 108.958ZM26.8923 61.5918C31.4787 54.3902 44.4156 60.4599 46.8898 60.2332C46.0483 57.8932 34.9 49.0178 39.6575 41.5538C44.0172 34.7112 52.7369 33.6681 59.1473 37.7507C65.6114 41.8694 82.918 63.6255 82.1566 82.2479C82.1377 82.5266 81.9826 82.7719 81.7363 82.9075C66.8987 90.8909 39.7871 86.0246 31.683 80.8614C25.275 76.7773 22.535 68.4329 26.8923 61.5918Z" fill="#90B74B"/>
<path d="M84.4585 81.7547C76.4751 66.9171 81.3414 39.8055 86.5046 31.7014C90.5872 25.2909 98.9137 22.5389 105.756 26.8987C112.976 31.4971 106.888 44.4219 107.115 46.8962C109.455 46.0546 118.348 34.9184 125.815 39.6743C132.657 44.0341 133.682 52.7416 129.6 59.1521C125.493 65.5983 103.736 82.9026 85.1026 82.1613C84.8215 82.144 84.5965 81.9994 84.4585 81.7547ZM60.247 120.469C57.9071 121.31 49.0137 132.447 41.5474 127.691C34.7048 123.331 33.6796 114.623 37.7622 108.213C41.8689 101.767 63.6265 84.4624 82.2594 85.2036C82.3396 85.2024 82.4077 85.2191 82.4976 85.2486C82.6592 85.3263 82.8006 85.4407 82.9011 85.6118C87.1644 93.5212 87.7673 104.93 86.6207 115.089C85.5973 123.978 83.2687 131.875 80.8534 135.663C76.7709 142.073 68.4443 144.825 61.6017 140.465C54.3838 135.869 60.4714 122.945 60.247 120.469Z" fill="#AAD15D"/>
</svg>
