<svg width="68" height="68" viewBox="0 0 68 68" fill="none" xmlns="http://www.w3.org/2000/svg">
<path d="M25.075 48.2375C24.4375 49.9375 24.9688 51.7438 26.2438 52.275C27.5188 52.7 29.1125 51.7438 29.75 49.9375C30.4938 47.9188 30.4938 45.05 30.0688 41.8625C27.625 43.9875 25.8188 46.1125 25.075 48.2375ZM39.525 49.9375C40.2688 47.9188 40.2688 45.05 39.8438 41.8625C37.4 43.9875 35.5938 46.2188 34.85 48.2375C34.2125 49.9375 34.7438 51.7438 36.0188 52.275C37.2938 52.7 38.8875 51.6375 39.525 49.9375ZM49.5125 41.8625C47.0688 43.9875 45.2625 46.2188 44.5188 48.2375C43.8813 49.9375 44.4125 51.7438 45.6875 52.275C46.9625 52.7 48.5563 51.7438 49.1938 49.9375C50.0438 47.9188 50.0438 45.05 49.5125 41.8625ZM15.3 48.2375C14.6625 49.9375 15.1938 51.7438 16.4688 52.275C17.7438 52.7 19.3375 51.7438 19.975 49.9375C20.7188 47.9188 20.7188 45.05 20.2938 41.8625C17.85 43.9875 16.0438 46.1125 15.3 48.2375ZM17.425 61.7313C16.7875 63.4313 17.3188 65.2375 18.5938 65.7688C19.8688 66.1938 21.4625 65.2375 22.1 63.4313C22.8438 61.4125 22.8438 58.5438 22.4188 55.3563C19.975 57.4813 18.1688 59.7125 17.425 61.7313ZM31.875 63.4313C32.6188 61.4125 32.6188 58.5438 32.1938 55.3563C29.75 57.4813 27.9438 59.7125 27.2 61.7313C26.5625 63.4313 27.0938 65.2375 28.3688 65.7688C29.6438 66.1938 31.2375 65.2375 31.875 63.4313ZM41.8625 55.3563C39.4188 57.4813 37.6125 59.7125 36.8688 61.7313C36.2313 63.4313 36.7625 65.2375 38.0375 65.7688C39.3125 66.1938 40.9063 65.2375 41.5438 63.4313C42.3938 61.4125 42.3938 58.65 41.8625 55.3563ZM7.65001 61.7313C7.01251 63.4313 7.54376 65.2375 8.81876 65.7688C10.0938 66.1938 11.6875 65.2375 12.325 63.4313C13.0688 61.4125 13.0688 58.5438 12.6438 55.3563C10.2 57.4813 8.39376 59.7125 7.65001 61.7313Z" fill="#75D6FF"/>
<path d="M20.0812 35.8063C19.2312 35.8063 18.275 35.7 17.425 35.3813C13.9187 34.2125 11.6875 31.025 11.6875 27.4125C11.6875 24.9688 12.75 22.6313 14.5562 21.0375C14.9812 20.6125 15.5125 20.2937 16.15 19.975L16.6812 18.0625C18.0625 13.175 22.6313 9.775 27.625 9.775C28.1562 9.775 28.6875 9.775 29.2188 9.88125C29.6437 9.9875 30.175 10.0938 30.6 10.2L30.8125 9.775C32.8312 6.05625 36.7625 3.825 40.9062 3.825C47.2812 3.825 52.4875 9.03125 52.4875 15.4062V16.575C53.0188 16.7875 53.4437 17 53.975 17.2125C57.0562 19.0188 58.9688 22.3125 58.9688 25.8188C58.9688 30.4937 55.7812 34.5313 51.2125 35.4875C50.4688 35.7 49.725 35.7 48.9812 35.7L20.0812 35.8063Z" fill="white"/>
<path d="M40.9062 5.525C46.3249 5.525 50.7874 9.9875 50.7874 15.4062V16.15C48.4499 16.3625 46.4312 17.2125 44.8374 18.7C46.0062 17.9563 47.4936 17.6375 48.9812 17.6375C49.5124 17.6375 50.0437 17.7438 50.5749 17.7438C51.4249 17.9563 52.2749 18.275 53.1249 18.7C55.5687 20.0813 57.2687 22.8438 57.2687 25.925C57.2687 29.8562 54.5061 33.15 50.7874 34C50.1499 34.1063 49.6187 34.2125 48.8749 34.2125H20.0812C19.3374 34.2125 18.5937 34.1062 17.9562 33.8937C15.2999 33.0437 13.2812 30.4937 13.2812 27.5187C13.2812 25.5 14.1312 23.6938 15.6187 22.4188C16.2562 21.8875 16.9999 21.4625 17.8499 21.1437C18.5937 20.9312 19.3374 20.7188 20.0812 20.7188C22.2062 20.7188 24.2249 21.7812 25.3937 23.375H25.4999C24.1187 20.7188 21.3562 18.9125 18.2749 18.5938C19.4437 14.5562 23.1624 11.5812 27.6249 11.5812C28.0499 11.5812 28.5812 11.5813 29.0062 11.6875C29.8562 11.7937 30.8124 12.1125 31.5562 12.4312C34.5312 13.8125 36.7624 16.575 37.1874 19.8688V19.7625C37.1874 15.9375 35.2749 12.5375 32.2999 10.625C33.8937 7.54375 37.1874 5.525 40.9062 5.525ZM40.9062 2.125C36.3374 2.125 32.0874 4.4625 29.7499 8.2875H29.4312C28.6874 8.18125 28.1562 8.18125 27.5187 8.18125C21.6749 8.18125 16.5749 12.1125 14.8749 17.6375L14.4499 19.0187C14.0249 19.2312 13.5999 19.55 13.2812 19.8688C11.0499 21.7812 9.7749 24.5437 9.7749 27.5187C9.7749 31.875 12.5374 35.7 16.6812 37.0813C17.7437 37.4 18.8062 37.6125 19.8687 37.6125H48.8749C49.7249 37.6125 50.6812 37.5062 51.5312 37.2937C56.8437 36.125 60.5624 31.45 60.5624 25.925C60.5624 21.7812 58.3312 17.9562 54.7187 15.8312C54.5062 15.725 54.3999 15.6188 54.1874 15.5125V15.4062C54.1874 8.075 48.2374 2.125 40.9062 2.125Z" fill="#B6C1D1"/>
</svg>
