<svg width="128" height="128" viewBox="0 0 128 128" fill="none" xmlns="http://www.w3.org/2000/svg">
<path d="M29.5301 45.25C22.3901 54.42 22.5101 70.73 31.6401 78.8C42.0001 87.97 56.5701 87.88 65.7401 79.44C76.7301 69.33 76.1001 52.49 66.3801 42.96C56.6101 33.37 39.1501 32.87 29.5301 45.25V45.25Z" fill="#FCC11A"/>
<path d="M40.9901 42.1C38.1701 40.85 35.0801 44.25 33.7301 46.58C32.3801 48.91 31.1301 53.48 34.0001 54.64C36.8701 55.8 38.9301 53.83 40.9901 50.43C43.0501 47.03 44.2101 43.54 40.9901 42.1V42.1Z" fill="#FEE269"/>
<path d="M48.34 29.31C47.66 30.59 47.89 31.57 49.24 31.9C50.6 32.22 59.06 33.6 59.77 33.64C60.8 33.7 61.19 32.93 61.06 32.02C60.93 31.12 58.86 18.45 58.67 17.28C58.48 16.12 57.25 14.95 56.08 16.5C54.93 18.07 48.85 28.34 48.34 29.31V29.31ZM70.25 38.1C68.92 38.51 68.96 39.33 69.67 40.36C70.38 41.39 75.29 48.89 75.75 49.41C76.21 49.93 76.98 50.06 77.62 49.28C78.26 48.5 86.34 37.19 86.93 36.48C87.9 35.32 87.32 34.09 85.83 34.48C84.69 34.78 71.09 37.85 70.25 38.1V38.1ZM19.84 72.49C20.74 71 21.91 71.39 22.75 72.81C23.33 73.78 28.18 80.31 28.63 81.02C29.08 81.73 29.28 83.09 27.85 83.41C26.43 83.73 14.86 86.77 13.05 87.09C11.24 87.41 10.21 85.99 11.37 84.44C12.05 83.54 19.32 73.33 19.84 72.49V72.49ZM17.38 61.24C19.03 61.98 19.81 61.71 20.16 60.53C20.61 58.98 21.97 51.87 22.03 50.25C22.07 49.2 21.64 48.18 20.03 48.44C18.41 48.7 6.78004 50.31 5.29004 50.83C3.56004 51.43 3.69004 53.33 4.84004 53.93C6.20004 54.65 16.22 60.72 17.38 61.24ZM37.48 34.1C38.41 33.36 38.13 32.29 37.29 31.71C36.45 31.13 26.07 23.62 24.75 22.6C23.59 21.7 22.16 22.02 22.55 24.09C22.83 25.57 26.14 38.57 26.36 39.47C26.62 40.5 27.39 41.02 28.3 40.37C29.21 39.72 36.51 34.87 37.48 34.1Z" fill="#FFA722"/>
<path d="M109.13 81.18C109.13 81.18 110.58 52.73 87.55 47.18C64.52 41.63 57.81 63.97 57.81 63.97C57.81 63.97 50.13 62.18 43.01 68.1C37.42 72.75 36.63 79.73 36.63 79.73C36.63 79.73 29.28 78.61 23.16 84.55C18.73 88.85 19.16 94.37 19.16 94.37L28.08 102.21L118.73 99.76L123.5 94.64C123.5 94.64 124.26 88.96 118.96 84.69C113.66 80.41 109.13 81.18 109.13 81.18V81.18Z" fill="#E2EBEE"/>
<path d="M40.64 92.23C40.64 92.23 44.25 96.31 55.7 96.04C67.15 95.77 70.16 92.77 70.16 92.77C70.16 92.77 75.18 98.04 89.69 96.92C104.2 95.8 108.37 92.74 108.37 92.74C108.37 92.74 111.91 95.27 116.39 95.34C120.86 95.41 123.5 94.63 123.5 94.63C123.5 94.63 123.03 98.19 121.47 100.47C119.91 102.75 117.31 104.49 113.2 104.46C109.08 104.43 96.56 104.54 83.85 104.52C71.14 104.5 34.82 104.71 29.45 104.48C25.36 104.31 22.39 101.9 21.02 99.86C18.83 96.6 19.19 93.16 19.19 93.16C19.19 93.16 23.31 96.39 28.87 96.15C36.47 95.83 40.64 92.23 40.64 92.23V92.23Z" fill="#B9CED3"/>
</svg>
