<svg width="240" height="231" viewBox="0 0 240 231" fill="none" xmlns="http://www.w3.org/2000/svg">
<g clip-path="url(#clip0_187_491)">
<path d="M206.854 79.4269C206.854 79.4269 210.279 15.0729 159.285 2.32957C100.328 -12.4049 88.7191 43.9844 88.7191 43.9844C88.7191 43.9844 65.7213 39.6238 51.4049 55.1747C39.3983 68.2167 40.5333 80.98 40.5333 80.98C40.5333 80.98 24.6837 77.5552 12.239 88.4468C-0.205679 99.3384 1.666 109.573 1.666 109.573L38.6616 123.869C38.6616 123.869 225.491 124.805 226.427 124.188C227.363 123.571 238.872 105.531 238.872 105.531C238.872 105.531 237 89.98 226.128 83.7676C215.237 77.5552 206.854 79.4269 206.854 79.4269Z" fill="#E2EBEE"/>
<path d="M20.9402 133.507C30.2587 133.825 91.2079 135.06 128.184 134.741C165.159 134.423 221.389 135.02 229.195 131.336C235.307 128.449 238.951 123.67 239.529 116.98C240.086 110.589 238.852 105.531 238.852 105.531C238.852 105.531 230.15 111.823 213.664 112.062C203.409 112.201 182.582 110.509 186.624 106.785C187.759 105.73 203.867 93.5243 203.091 82.2345C202.911 79.5664 188.476 92.8075 174.796 98.4027C161.117 103.998 148.135 108.319 130.055 107.164C114.823 106.168 108.212 99.9757 108.212 99.9757C108.212 99.9757 100.865 108.597 78.7831 110.449C56.7012 112.321 51.9424 104.018 51.9424 104.018C51.9424 104.018 41.2499 112.102 23.2897 111.863C5.36936 111.584 1.84502 105.133 1.84502 105.133C1.84502 105.133 0.152542 116.622 3.8959 123.332C7.71891 130.162 14.668 133.308 20.9402 133.507Z" fill="#B9CED2"/>
<path d="M115.927 149.675C112.522 148.48 100.376 158.097 94.9004 167.595C89.4048 177.133 92.9888 184.102 98.8627 186.969C105.473 190.195 114.991 188.203 117.699 178.805C120.367 169.507 119.591 150.969 115.927 149.675ZM75.865 189.657C72.5796 187.885 58.7809 200.13 54.3804 207.438C49.9999 214.745 50.2787 224.124 59.2389 227.967C68.199 231.81 76.1039 226.891 77.7566 214.088C78.9114 205.009 79.0309 191.369 75.865 189.657ZM183.387 151.268C180.142 149.276 166.502 160.507 161.962 168.949C156.228 179.622 160.688 187.666 166.94 190.214C173.431 192.843 181.774 190.314 184.602 180.697C188.684 166.838 186.533 153.219 183.387 151.268Z" fill="#4FC4F8"/>
<path d="M168.513 168.63C166.363 168.889 163.694 171.956 163.276 177.192C162.858 182.429 166.163 185.077 169.509 183.743C172.655 182.489 173.172 178.009 173.172 175.181C173.172 172.354 171.838 168.212 168.513 168.63ZM102.009 166.978C99.7387 166.341 95.5174 169.845 94.7807 175.52C94.2033 179.9 95.8957 182.549 99.3006 182.807C104.04 183.166 105.533 177.332 105.413 173.768C105.334 171.737 104.975 167.814 102.009 166.978ZM61.0904 205.865C58.9798 205.706 55.4355 209.25 55.4355 214.765C55.4355 220.281 58.3028 222.67 61.6878 221.934C65.0727 221.177 65.7497 214.706 65.5307 212.137C65.3117 209.568 64.2165 206.104 61.0904 205.865Z" fill="#AEE6FD"/>
</g>
<defs>
<clipPath id="clip0_187_491">
<rect width="240" height="230.442" fill="white"/>
</clipPath>
</defs>
</svg>
