<svg width="230" height="231" viewBox="0 0 230 231" fill="none" xmlns="http://www.w3.org/2000/svg">
<g clip-path="url(#clip0_7_80)">
<path d="M70.8013 222.269L97.7698 194.699C88.2184 192.448 79.229 189.072 71.3632 183.446L70.8013 222.269ZM158.449 9.58659L131.48 37.1565C141.032 39.4071 150.021 42.783 157.887 48.4095L158.449 9.58659ZM8.43686 159.814L47.204 159.252C42.1474 151.375 38.2145 142.372 35.9671 132.807L8.43686 159.814ZM220.813 72.0409L182.046 72.6035C187.103 80.4806 191.036 89.4831 193.283 99.0481L220.813 72.0409ZM8.43686 72.0409L35.9671 99.0481C38.2145 89.4831 41.5855 80.4806 47.204 72.6035L8.43686 72.0409ZM220.813 159.814L193.283 132.807C191.036 142.372 187.664 151.375 182.046 159.252L220.813 159.814ZM70.8013 9.58659L71.3632 48.4095C79.229 43.3457 88.2184 39.4071 97.7698 37.1565L70.8013 9.58659ZM158.449 222.269L157.887 183.446C150.021 188.51 141.032 192.448 131.48 194.699L158.449 222.269ZM48.3276 162.065L33.1579 197.512L68.554 182.321C60.6882 176.694 53.9461 169.942 48.3276 162.065ZM180.922 69.7903L196.092 34.3432L160.696 49.5348C168.562 55.1613 175.304 61.9132 180.922 69.7903ZM35.4053 101.299L-0.552612 115.928L35.4053 130.557C34.8434 126.055 34.2816 120.992 34.2816 115.928C33.7198 110.864 34.2816 106.363 35.4053 101.299ZM193.845 130.557L229.803 115.928L193.845 101.299C194.968 105.8 194.968 110.864 194.968 115.928C194.968 120.992 194.968 125.493 193.845 130.557ZM68.554 49.5348L33.1579 34.3432L48.3276 69.7903C53.9461 61.9132 60.6882 55.1613 68.554 49.5348ZM160.696 182.321L196.092 197.512L180.922 162.065C175.304 169.942 168.562 176.694 160.696 182.321ZM129.233 36.5938L114.625 0.584167L100.017 36.5938C104.512 36.0312 109.568 35.4685 114.625 35.4685C119.682 34.9059 124.176 35.4685 129.233 36.5938ZM100.017 195.261L114.625 231.271L129.233 195.261C124.738 195.824 119.682 196.387 114.625 196.387C109.568 196.387 105.074 196.387 100.017 195.261Z" fill="#FFCA22"/>
<path d="M114.625 189.072C154.964 189.072 187.665 156.324 187.665 115.928C187.665 75.531 154.964 42.783 114.625 42.783C74.2865 42.783 41.5856 75.531 41.5856 115.928C41.5856 156.324 74.2865 189.072 114.625 189.072Z" fill="#FFCA22"/>
</g>
<defs>
<clipPath id="clip0_7_80">
<rect width="230" height="231" fill="white"/>
</clipPath>
</defs>
</svg>
