<svg width="240" height="231" viewBox="0 0 240 231" fill="none" xmlns="http://www.w3.org/2000/svg">
<g clip-path="url(#clip0_197_381)">
<path d="M206.854 79.4269C206.854 79.4269 210.279 15.0729 159.285 2.32957C100.328 -12.4049 88.7191 43.9844 88.7191 43.9844C88.7191 43.9844 65.7213 39.6238 51.4049 55.1747C39.3983 68.2167 40.5333 80.98 40.5333 80.98C40.5333 80.98 24.6837 77.5552 12.239 88.4468C-0.205679 99.3384 1.666 109.573 1.666 109.573L38.6616 123.869C38.6616 123.869 225.491 124.805 226.427 124.188C227.363 123.571 238.872 105.531 238.872 105.531C238.872 105.531 237 89.98 226.128 83.7676C215.237 77.5552 206.854 79.4269 206.854 79.4269Z" fill="#E2EBEE"/>
<path d="M20.9404 133.506C30.259 133.825 91.2081 135.059 128.184 134.741C165.159 134.422 221.389 135.02 229.195 131.336C235.308 128.449 238.951 123.67 239.529 116.98C240.086 110.588 238.852 105.531 238.852 105.531C238.852 105.531 230.151 111.823 213.664 112.062C203.409 112.201 182.582 110.509 186.624 106.785C187.759 105.73 203.867 93.5241 203.091 82.2343C202.912 79.5661 188.476 92.8073 174.797 98.4024C161.117 103.998 148.135 108.318 130.055 107.163C114.823 106.168 108.213 99.9754 108.213 99.9754C108.213 99.9754 100.865 108.597 78.7833 110.449C56.7015 112.321 51.9426 104.017 51.9426 104.017C51.9426 104.017 41.2501 112.102 23.29 111.863C5.3696 111.584 1.84526 105.133 1.84526 105.133C1.84526 105.133 0.152786 116.621 3.89615 123.332C7.71916 130.161 14.6683 133.307 20.9404 133.506Z" fill="#B9CED2"/>
<path d="M131.927 149.674C128.522 148.48 116.376 158.097 110.9 167.595C105.405 177.132 108.989 184.101 114.863 186.969C121.473 190.194 130.991 188.203 133.699 178.805C136.367 169.506 135.591 150.969 131.927 149.674ZM67.5529 144.935C64.4666 143.84 54.4512 153.139 49.9512 158.157C43.918 164.907 39.2587 177.491 50.7078 182.588C62.2366 187.705 69.7233 179.323 70.3007 167.734C70.8582 156.942 70.1016 145.851 67.5529 144.935ZM91.8649 189.657C88.5795 187.885 74.7808 200.13 70.3804 207.438C65.9998 214.745 66.2786 224.124 75.2388 227.966C84.199 231.809 92.1038 226.891 93.7565 214.088C94.9113 205.008 95.0308 191.369 91.8649 189.657ZM158.588 190.712C156.219 189.378 139.812 202.042 136.128 211.261C128.821 229.559 153.79 237.723 159.464 220.52C162.77 210.484 161.515 192.365 158.588 190.712ZM199.387 151.267C196.141 149.276 182.502 160.506 177.962 168.949C172.228 179.621 176.688 187.666 182.94 190.214C189.431 192.843 197.774 190.314 200.602 180.697C204.683 166.838 202.533 153.219 199.387 151.267Z" fill="#4FC4F8"/>
<path d="M184.513 168.63C182.363 168.889 179.694 171.955 179.276 177.192C178.858 182.429 182.163 185.077 185.509 183.743C188.655 182.489 189.172 178.009 189.172 175.181C189.172 172.354 187.838 168.212 184.513 168.63ZM118.009 166.978C115.739 166.34 111.517 169.845 110.781 175.52C110.203 179.9 111.896 182.548 115.301 182.807C120.04 183.166 121.533 177.332 121.413 173.767C121.334 171.736 120.975 167.814 118.009 166.978ZM77.0905 205.865C74.9798 205.705 71.4356 209.25 71.4356 214.765C71.4356 220.281 74.3028 222.67 77.6878 221.933C81.0728 221.177 81.7497 214.705 81.5307 212.137C81.3117 209.568 80.2166 206.104 77.0905 205.865ZM54.1126 163.354C51.2652 162.537 47.6214 166.141 47.1834 170.203C46.7254 174.265 48.617 177.212 51.6236 177.67C54.6303 178.128 57.1989 174.504 57.4975 170.283C57.8161 166.062 56.7608 164.09 54.1126 163.354ZM144.69 208.214C142.062 207.995 138.298 211.878 138.398 217.752C138.498 223.626 141.544 224.621 143.555 224.741C146.442 224.92 148.453 221.515 148.712 216.179C148.931 211.699 147.916 208.473 144.69 208.214Z" fill="#AEE6FD"/>
</g>
<defs>
<clipPath id="clip0_197_381">
<rect width="240" height="230.442" fill="white"/>
</clipPath>
</defs>
</svg>
