<svg width="240" height="178" viewBox="0 0 240 178" fill="none" xmlns="http://www.w3.org/2000/svg">
<g clip-path="url(#clip0_198_387)">
<path d="M51.0601 58.5C36.7801 76.84 37.0201 109.46 55.2801 125.6C76.0001 143.94 105.14 143.76 123.48 126.88C145.46 106.66 144.2 72.98 124.76 53.92C105.22 34.74 70.3001 33.74 51.0601 58.5Z" fill="#FCC11A"/>
<path d="M73.9801 52.2C68.3401 49.7 62.1601 56.5 59.4601 61.16C56.7601 65.82 54.2601 74.96 60.0001 77.28C65.7401 79.6 69.8601 75.66 73.9801 68.86C78.1001 62.06 80.4201 55.08 73.9801 52.2Z" fill="#FEE269"/>
<path d="M88.6801 26.62C87.3201 29.18 87.7801 31.14 90.4801 31.8C93.2001 32.44 110.12 35.2 111.54 35.28C113.6 35.4 114.38 33.86 114.12 32.04C113.86 30.24 109.72 4.89999 109.34 2.55999C108.96 0.239989 106.5 -2.10001 104.16 0.999987C101.86 4.13999 89.7001 24.68 88.6801 26.62ZM132.5 44.2C129.84 45.02 129.92 46.66 131.34 48.72C132.76 50.78 142.58 65.78 143.5 66.82C144.42 67.86 145.96 68.12 147.24 66.56C148.52 65 164.68 42.38 165.86 40.96C167.8 38.64 166.64 36.18 163.66 36.96C161.38 37.56 134.18 43.7 132.5 44.2ZM31.6801 112.98C33.4801 110 35.8201 110.78 37.5001 113.62C38.6601 115.56 48.3601 128.62 49.2601 130.04C50.1601 131.46 50.5601 134.18 47.7001 134.82C44.8601 135.46 21.7201 141.54 18.1001 142.18C14.4801 142.82 12.4201 139.98 14.7401 136.88C16.1001 135.08 30.6401 114.66 31.6801 112.98ZM26.7601 90.48C30.0601 91.96 31.6201 91.42 32.3201 89.06C33.2201 85.96 35.9401 71.74 36.0601 68.5C36.1401 66.4 35.2801 64.36 32.0601 64.88C28.8201 65.4 5.56008 68.62 2.58008 69.66C-0.879918 70.86 -0.619918 74.66 1.68008 75.86C4.40008 77.3 24.4401 89.44 26.7601 90.48ZM66.9601 36.2C68.8201 34.72 68.2601 32.58 66.5801 31.42C64.9001 30.26 44.1401 15.24 41.5001 13.2C39.1801 11.4 36.3201 12.04 37.1001 16.18C37.6601 19.14 44.2801 45.14 44.7201 46.94C45.2401 49 46.7801 50.04 48.6001 48.74C50.4201 47.44 65.0201 37.74 66.9601 36.2Z" fill="#FFA722"/>
<path d="M210.26 130.36C210.26 130.36 213.16 73.4601 167.1 62.3601C121.04 51.2601 107.62 95.9401 107.62 95.9401C107.62 95.9401 92.2601 92.3601 78.0201 104.2C66.8401 113.5 65.2601 127.46 65.2601 127.46C65.2601 127.46 50.5601 125.22 38.3201 137.1C29.4601 145.7 30.3201 156.74 30.3201 156.74L48.1601 172.42L229.46 167.52L239 157.28C239 157.28 240.52 145.92 229.92 137.38C219.32 128.82 210.26 130.36 210.26 130.36Z" fill="#E2EBEE"/>
<path d="M73.28 152.46C73.28 152.46 80.5 160.62 103.4 160.08C126.3 159.54 132.32 153.54 132.32 153.54C132.32 153.54 142.36 164.08 171.38 161.84C200.4 159.6 208.74 153.48 208.74 153.48C208.74 153.48 215.82 158.54 224.78 158.68C233.72 158.82 239 157.26 239 157.26C239 157.26 238.06 164.38 234.94 168.94C231.82 173.5 226.62 176.98 218.4 176.92C210.16 176.86 185.12 177.08 159.7 177.04C134.28 177 61.64 177.42 50.9 176.96C42.72 176.62 36.78 171.8 34.04 167.72C29.66 161.2 30.38 154.32 30.38 154.32C30.38 154.32 38.62 160.78 49.74 160.3C64.94 159.66 73.28 152.46 73.28 152.46Z" fill="#B9CED3"/>
</g>
<defs>
<clipPath id="clip0_198_387">
<rect width="240" height="178" fill="white"/>
</clipPath>
</defs>
</svg>
