<svg width="90" height="68" viewBox="0 0 90 68" fill="none" xmlns="http://www.w3.org/2000/svg">
<path d="M17.2235 32.8079C17.7246 32.303 16.3394 26.2933 22.5138 21.651C28.6881 17.0087 32.8995 19.7787 33.4912 19.5753C34.0759 19.379 36.8255 7.23331 48.3876 4.07768C59.9497 0.922058 72.006 6.84061 74.8461 16.7142C77.4425 25.7393 75.4308 31.8191 75.7301 32.2118C76.0225 32.6045 81.6121 32.4082 84.842 37.6395C88.0719 42.8708 86.9024 46.1317 86.9024 46.1317L66.3259 52.5481H33.4007C33.4007 52.5481 4.39444 44.8484 4.10208 43.4669C3.80972 42.0854 4.47101 37.5974 9.19749 34.8766C13.3044 32.5134 16.3394 33.6985 17.2235 32.8079Z" fill="#E4EAEE"/>
<path d="M25.3745 54.2241C25.3745 54.2241 14.3902 56.5382 6.96287 50.7459C2.49395 47.2536 4.12281 41.5945 4.12281 41.5945C4.12281 41.5945 7.32484 44.8554 13.7915 45.7389C20.2583 46.6295 27.5116 46.328 27.5116 46.328C27.5116 46.328 29.3214 49.4415 36.1362 50.8721C44.6772 52.6603 49.181 48.2564 49.181 48.2564C49.181 48.2564 51.5198 51.0754 59.7546 51.2718C67.9894 51.4681 72.6045 45.6758 73.3772 45.5426C73.767 45.4795 76.0362 47.5552 80.533 46.8259C84.814 46.1316 87.0693 44.2593 87.0693 44.2593C87.0693 44.2593 87.6889 48.9016 83.38 51.7627C80.0179 53.9926 74.1707 54.2311 74.1707 54.2311C74.1707 54.2311 73.2797 57.6742 69.2633 60.1777C65.5322 62.5128 59.1003 63.2912 54.339 61.8607C48.3596 60.0655 46.8769 57.3236 46.8769 57.3236C46.8769 57.3236 42.4219 59.9533 35.4609 59.0627C28.8829 58.2352 25.3745 54.2241 25.3745 54.2241Z" fill="#BACDD2"/>
</svg>
