<svg width="241" height="238" viewBox="0 0 241 238" fill="none" xmlns="http://www.w3.org/2000/svg">
<path d="M67.3802 77.7894C48.5494 101.974 48.8659 144.989 72.945 166.273C100.268 190.458 138.694 190.22 162.879 167.961C191.864 141.297 190.202 96.8839 164.567 71.7498C138.8 46.4575 92.7516 45.1388 67.3802 77.7894Z" fill="#FCC11A"/>
<path d="M97.6046 69.4817C90.1673 66.185 82.0178 75.152 78.4574 81.2971C74.8969 87.4421 71.6002 99.4949 79.1695 102.554C86.7387 105.614 92.1717 100.418 97.6046 91.4509C103.038 82.4839 106.097 73.2795 97.6046 69.4817Z" fill="#FEE269"/>
<path d="M116.989 35.7497C115.196 39.1256 115.802 41.7102 119.363 42.5805C122.95 43.4245 145.262 47.064 147.134 47.1695C149.851 47.3278 150.879 45.297 150.536 42.897C150.193 40.5234 144.734 7.10799 144.233 4.02227C143.732 0.962932 140.488 -2.12278 137.402 1.96513C134.369 6.10579 118.334 33.1915 116.989 35.7497ZM174.774 58.9322C171.266 60.0135 171.371 62.1761 173.244 64.8926C175.117 67.6091 188.066 87.3893 189.279 88.7607C190.492 90.1322 192.523 90.475 194.211 88.4179C195.899 86.3607 217.209 56.5322 218.765 54.6596C221.323 51.6003 219.793 48.3563 215.864 49.3849C212.857 50.1761 176.989 58.2728 174.774 58.9322ZM41.8242 149.631C44.1978 145.701 47.2836 146.73 49.4989 150.475C51.0286 153.033 63.8198 170.255 65.0066 172.128C66.1934 174 66.7209 177.587 62.9495 178.431C59.2044 179.275 28.6902 187.293 23.9165 188.137C19.1429 188.981 16.4264 185.235 19.4858 181.148C21.2792 178.774 40.4528 151.846 41.8242 149.631ZM35.3363 119.961C39.688 121.912 41.7451 121.2 42.6682 118.088C43.855 114 47.4418 95.2486 47.6 90.9761C47.7055 88.2069 46.5715 85.5168 42.3253 86.2025C38.0528 86.8882 7.38027 91.1344 3.4506 92.5058C-1.11204 94.0882 -0.769182 99.0992 2.26378 100.682C5.8506 102.581 32.277 118.589 35.3363 119.961ZM88.3473 48.3827C90.8 46.4311 90.0616 43.6091 87.8462 42.0794C85.6308 40.5497 58.255 20.7432 54.7737 18.053C51.7143 15.6794 47.9429 16.5234 48.9715 21.9827C49.7099 25.886 58.4396 60.1717 59.0198 62.5454C59.7055 65.2618 61.7363 66.6333 64.1363 64.919C66.5363 63.2047 85.7891 50.4135 88.3473 48.3827Z" fill="#FFA722"/>
<path d="M123.281 201.341C125.075 197.965 124.468 195.38 120.908 194.51C117.321 193.666 95.0089 190.026 93.1364 189.921C90.4199 189.763 89.3913 191.793 89.7342 194.193C90.077 196.567 95.5364 229.982 96.0375 233.068C96.5386 236.127 99.7825 239.213 102.868 235.125C105.901 230.985 121.936 203.899 123.281 201.341ZM204.934 117.13C200.583 115.178 198.525 115.89 197.602 119.002C196.416 123.09 192.829 141.842 192.67 146.114C192.565 148.883 193.699 151.574 197.945 150.888C202.218 150.202 232.89 145.956 236.82 144.585C241.383 143.002 241.04 137.991 238.007 136.409C234.42 134.51 207.994 118.501 204.934 117.13ZM151.923 188.708C149.47 190.659 150.209 193.481 152.424 195.011C154.64 196.541 182.016 216.347 185.497 219.037C188.556 221.411 192.328 220.567 191.299 215.108C190.561 211.204 181.831 176.919 181.251 174.545C180.565 171.828 178.534 170.457 176.134 172.171C173.734 173.886 154.481 186.677 151.923 188.708Z" fill="#FFA722"/>
</svg>
