<svg width="79" height="81" viewBox="0 0 79 81" fill="none" xmlns="http://www.w3.org/2000/svg">
<path d="M46.2663 28.1981C49.5893 25.5991 53.2817 21.8867 55.9218 19.5663C60.7697 15.2982 63.872 20.2429 64.4946 22.736C65.1156 25.2197 60.4071 21.5854 55.0812 23.5463C52.5983 24.462 49.9972 27.2956 47.9371 30.0513C47.4647 29.7251 47.2072 29.484 47.2072 29.484C47.2072 29.484 46.7495 29.0424 46.2663 28.1981Z" fill="#90B74B"/>
<path d="M23.7454 23.7C23.7454 23.7 28.3123 24.4691 28.9572 20.0659C33.7052 21.8934 33.7127 15.5148 33.7127 15.5148C33.7127 15.5148 41.6742 20.3887 45.5809 17.2725C46.0411 19.3919 49.328 21.9692 50.614 21.3471C48.7393 25.7348 49.7774 28.8737 50.7078 30.505C51.191 31.3492 51.6488 31.7909 51.6488 31.7909C51.6488 31.7909 49.7962 33.8396 46.9896 36.9053C38.8024 45.8556 22.4822 63.5017 20.3192 64.3674C20.0256 64.4865 19.9929 64.2952 20.2708 63.7381C23.3126 57.6303 19.4847 51.8532 19.4847 51.8532C19.4847 51.8532 23.5249 47.2226 21.0856 42.8566C25.5467 39.7978 25.7813 39.7039 19.859 35.0845C19.859 35.0845 24.6924 36.5538 16.6585 26.6101C21.4208 28.783 23.7454 23.7 23.7454 23.7Z" fill="#AAD15D"/>
<path d="M42.6941 33.7293C45.6383 30.8362 47.6026 28.9254 47.6026 28.9254C47.6026 28.9254 47.8593 29.1659 48.3325 29.4927C49.856 30.5371 53.6212 32.4486 58.6487 30.1765C58.0567 31.4745 60.708 34.7004 62.8348 35.1169C59.8107 39.0931 64.8525 46.9433 64.8525 46.9433C64.8525 46.9433 58.471 47.0926 60.4089 51.7999C56.0223 52.5405 56.8887 57.0915 56.8887 57.0915C56.8887 57.0915 51.8548 59.5273 54.1362 64.2343C44.0196 56.4269 45.5911 61.2265 45.5911 61.2265C40.8372 55.4066 40.7555 55.6417 37.8009 60.1692C33.3772 57.8256 28.8361 61.9675 28.8361 61.9675C28.8361 61.9675 22.9737 58.2702 16.9384 61.446C16.4618 61.6956 16.253 61.7065 16.2717 61.5022C16.4279 59.778 33.9233 42.3675 42.6941 33.7293Z" fill="#90B74B"/>
</svg>
