<svg width="110" height="180" viewBox="0 0 110 180" fill="none" xmlns="http://www.w3.org/2000/svg">
<path d="M58.5334 0.0458028C58.2566 10.8883 67.9106 35.1474 80.3857 59.6364C86.2937 85.5215 108.644 110.836 123.531 126.404C121.042 126.003 118.674 125.579 116.408 125.141C113.791 124.647 111.31 124.099 108.981 123.543C91.7159 119.42 81.8789 113.827 74.6998 106.38C69.9797 101.48 66.3919 95.7654 62.5749 89.1534C51.1982 69.4196 48.8972 17.5428 58.5334 0.0458028Z" fill="#AAD15D"/>
<path d="M58.5334 0.045925C71.238 44.3608 146.15 35.4573 126.611 122.356C112.873 105.98 95.2077 85.468 80.4727 59.7846C80.4397 59.7327 80.4216 59.6872 80.3878 59.6374C67.9106 35.1476 58.2566 10.8884 58.5334 0.045925Z" fill="#AAD15D"/>
<path d="M58.5334 0.045925C71.238 44.3608 146.15 35.4573 126.611 122.356C112.873 105.98 95.2077 85.468 80.4727 59.7846C80.4397 59.7327 80.4216 59.6872 80.3878 59.6374C67.9106 35.1476 58.2566 10.8884 58.5334 0.045925Z" fill="#90B74B"/>
<path d="M72.6712 111.09C79.8504 118.537 89.6864 124.132 106.953 128.254C109.282 128.809 111.762 129.357 114.379 129.851C101.139 151.825 91.1733 154.997 76.163 157.652C59.6066 160.571 23.0334 149.12 13.3098 138.029C35.6341 139.567 49.8253 116.774 72.6712 111.09Z" fill="#AAD15D"/>
<path d="M106.953 128.254C81.7945 136.756 27.1664 143.456 13.312 138.03C35.6363 139.568 49.8254 116.774 72.6734 111.091C79.8504 118.537 89.6874 124.13 106.953 128.254Z" fill="#90B74B"/>
</svg>
