<svg width="81" height="85" viewBox="0 0 81 85" fill="none" xmlns="http://www.w3.org/2000/svg">
<path d="M-3.3327 6.19512C-3.3327 6.19512 -22.9409 13.9759 -31.3116 41.4667C-12.4882 37.4324 -0.945589 7.55171 -0.945589 7.55171C-0.945589 7.55171 -5.20664 23.1574 -5.22738 31.5118C-5.24606 39.8653 4.04852 60.5873 3.73961 67.3566C3.42864 74.1268 12.1821 57.6177 11.3969 43.108C10.6118 28.5983 1.82286 9.74872 1.82286 9.74872C1.82286 9.74872 18.1145 35.5698 32.9992 42.1639C47.8838 48.758 54.8315 57.0867 54.8315 57.0867C54.8315 57.0867 50.2935 29.8145 33.3135 19.8389C16.3335 9.86333 0.123975 6.29698 0.123975 6.29698" fill="#EE5252"/>
<path d="M-1.95087 4.85009C-1.95087 4.85009 -1.18417 -16.2309 21.9168 -33.323C24.4173 -14.2344 0.127345 6.64591 0.127345 6.64591C0.127345 6.64591 13.4052 -2.59487 21.2708 -5.41111C29.1364 -8.22734 51.7734 -6.40394 58.0493 -8.96445C64.3252 -11.525 51.6991 2.25195 37.7639 6.36845C23.8287 10.4849 3.12376 8.51761 3.12376 8.51761" fill="#DE2A2A"/>
<path d="M-3.14954 7.18485L-23.3063 -6.70893L-20.718 -8.65869L-0.418085 5.12783L-3.14954 7.18485Z" fill="#DE2A2A"/>
</svg>
