<svg width="136" height="135" viewBox="0 0 136 135" fill="none" xmlns="http://www.w3.org/2000/svg">
<path d="M77.6726 90.2512C77.6726 90.2512 97.8313 94.9934 120.006 77.5543C102.582 70.2356 76.5118 87.8187 76.5118 87.8187C76.5118 87.8187 88.7043 77.6435 93.4112 70.9273C98.116 64.2106 102.264 42.3051 106.313 37.0271C110.365 31.7496 94.0472 40.1302 86.5337 52.2558C79.0202 64.3814 75.5158 84.4952 75.5158 84.4952C75.5158 84.4952 76.892 54.5551 68.6073 40.8885C60.3225 27.2219 59.4033 16.6143 59.4033 16.6143C59.4033 16.6143 47.747 41.1244 55.8208 58.6905C63.8946 76.2565 74.9461 88.2286 74.9461 88.2286" fill="#EC9F2C"/>
<path d="M75.8046 90.5587C75.8046 90.5587 63.3522 107.105 35.1533 107.9C43.856 91.1244 75.1392 87.9458 75.1392 87.9458C75.1392 87.9458 59.2586 87.9332 51.3434 85.7854C43.4281 83.6375 26.222 69.4606 19.7305 67.9993C13.239 66.538 31.1413 62.5317 44.6745 67.0399C58.2076 71.5482 73.7769 84.7563 73.7769 84.7563" fill="#E69D30"/>
<path d="M78.0805 89.3515L86.5129 111.856L83.3339 111.973L74.7261 89.4745L78.0805 89.3515Z" fill="#E69D30"/>
</svg>
