<svg width="64" height="64" viewBox="0 0 64 64" fill="none" xmlns="http://www.w3.org/2000/svg">
<path d="M70.8339 19.6671C70.8339 19.6671 86.5028 8.96298 88.414 -16.8161C72.6932 -9.55479 68.4709 18.9485 68.4709 18.9485C68.4709 18.9485 69.1252 4.41155 67.4919 -2.92388C65.857 -10.2581 53.6043 -26.6052 52.5372 -32.6066C51.4718 -38.6092 47.0537 -22.3914 50.611 -9.81374C54.1684 2.76392 65.6072 17.5678 65.6072 17.5678C65.6072 17.5678 46.2063 -1.87069 31.8408 -4.71489C17.4754 -7.5591 9.73205 -13.4945 9.73205 -13.4945C9.73205 -13.4945 19.1055 9.54097 35.9782 14.9383C52.8508 20.3357 67.7804 20.261 67.7804 20.261" fill="#AAD15D"/>
<path d="M69.8874 21.1205C69.8874 21.1205 73.3819 39.7715 56.4886 59.3372C50.5208 43.0805 67.7087 19.9554 67.7087 19.9554C67.7087 19.9554 57.8836 30.6894 51.5379 34.7156C45.1922 38.7419 24.9668 41.6167 19.9656 45.1042C14.9644 48.5918 23.3209 34.006 34.7359 27.6389C46.1509 21.2718 64.7092 18.9053 64.7092 18.9053" fill="#90B74B"/>
</svg>
