<svg width="64" height="64" viewBox="0 0 64 64" fill="none" xmlns="http://www.w3.org/2000/svg">
<path d="M70.834 19.6671C70.834 19.6671 86.5029 8.96298 88.4142 -16.8161C72.6933 -9.55479 68.471 18.9485 68.471 18.9485C68.471 18.9485 69.1254 4.41155 67.4921 -2.92388C65.8571 -10.2581 53.6044 -26.6052 52.5373 -32.6066C51.4719 -38.6092 47.0538 -22.3914 50.6112 -9.81374C54.1685 2.76392 65.6073 17.5678 65.6073 17.5678C65.6073 17.5678 46.2064 -1.87069 31.8409 -4.71489C17.4755 -7.5591 9.73218 -13.4945 9.73218 -13.4945C9.73218 -13.4945 19.1056 9.54097 35.9783 14.9383C52.8509 20.3357 67.7805 20.261 67.7805 20.261" fill="#AAD15D"/>
<path d="M69.8875 21.1205C69.8875 21.1205 73.382 39.7715 56.4887 59.3372C50.5209 43.0805 67.7087 19.9554 67.7087 19.9554C67.7087 19.9554 57.8836 30.6894 51.5379 34.7156C45.1922 38.7419 24.9668 41.6167 19.9657 45.1042C14.9645 48.5918 23.321 34.006 34.736 27.6389C46.1509 21.2718 64.7093 18.9053 64.7093 18.9053" fill="#90B74B"/>
</svg>
