<svg width="136" height="135" viewBox="0 0 136 135" fill="none" xmlns="http://www.w3.org/2000/svg">
<path d="M77.6724 90.2512C77.6724 90.2512 97.8311 94.9934 120.006 77.5543C102.582 70.2356 76.5116 87.8187 76.5116 87.8187C76.5116 87.8187 88.7042 77.6435 93.4111 70.9273C98.1158 64.2106 102.264 42.3051 106.313 37.0271C110.365 31.7496 94.0471 40.1302 86.5336 52.2558C79.0201 64.3814 75.5156 84.4952 75.5156 84.4952C75.5156 84.4952 76.8919 54.5551 68.6071 40.8885C60.3224 27.2219 59.4031 16.6143 59.4031 16.6143C59.4031 16.6143 47.7469 41.1244 55.8206 58.6905C63.8944 76.2565 74.9459 88.2286 74.9459 88.2286" fill="#AAD15D"/>
<path d="M75.8045 90.5587C75.8045 90.5587 63.3521 107.105 35.1531 107.9C43.8559 91.1244 75.139 87.9458 75.139 87.9458C75.139 87.9458 59.2585 87.9332 51.3432 85.7854C43.4279 83.6375 26.2219 69.4606 19.7304 67.9993C13.2389 66.538 31.1412 62.5317 44.6743 67.0399C58.2074 71.5482 73.7768 84.7563 73.7768 84.7563" fill="#90B74B"/>
<path d="M78.0805 89.3515L86.5128 111.856L83.3338 111.973L74.726 89.4745L78.0805 89.3515Z" fill="#90B74B"/>
</svg>
