<svg width="81" height="87" viewBox="0 0 81 87" fill="none" xmlns="http://www.w3.org/2000/svg">
<path d="M-3.33264 8.19512C-3.33264 8.19512 -22.9408 15.9759 -31.3115 43.4667C-12.4881 39.4324 -0.945528 9.55171 -0.945528 9.55171C-0.945528 9.55171 -5.20658 25.1574 -5.22732 33.5118C-5.246 41.8653 4.04858 62.5873 3.73967 69.3566C3.4287 76.1268 12.1822 59.6177 11.397 45.108C10.6118 30.5983 1.82292 11.7487 1.82292 11.7487C1.82292 11.7487 18.1146 37.5698 32.9992 44.1639C47.8839 50.758 54.8316 59.0867 54.8316 59.0867C54.8316 59.0867 50.2936 31.8145 33.3136 21.8389C16.3336 11.8633 0.124036 8.29698 0.124036 8.29698" fill="#AAD15D"/>
<path d="M-1.95087 6.85009C-1.95087 6.85009 -1.18417 -14.2309 21.9168 -31.323C24.4173 -12.2344 0.127345 8.64591 0.127345 8.64591C0.127345 8.64591 13.4052 -0.594865 21.2708 -3.41111C29.1364 -6.22734 51.7734 -4.40394 58.0493 -6.96445C64.3252 -9.52495 51.6991 4.25195 37.7639 8.36845C23.8287 12.4849 3.12376 10.5176 3.12376 10.5176" fill="#90B74B"/>
<path d="M-3.14948 9.18485L-23.3063 -4.70893L-20.7179 -6.65869L-0.418024 7.12783L-3.14948 9.18485Z" fill="#90B74B"/>
</svg>
