<svg width="49" height="54" viewBox="0 0 49 54" fill="none" xmlns="http://www.w3.org/2000/svg">
<path d="M24.1326 26.9622C17.0969 33.9978 8.88867 22.2717 8.88867 22.2717C17.2025 18.4139 22.831 21.4626 24.1326 26.9622Z" fill="#9DCC6B"/>
<path d="M23.323 24.9337C18.9609 27.2789 14.505 23.7024 12.0308 21.0992C18.9374 19.1058 22.0448 22.5415 23.323 24.9337Z" fill="#B5E08C"/>
<path d="M39.3767 25.7895C39.3767 25.7895 31.1685 37.5156 24.1328 30.48C24.4391 29.3294 24.9603 28.2472 25.6689 27.2905C28.9522 22.8697 34.3462 23.5264 39.3767 25.7895Z" fill="#9DCC6B"/>
<path d="M38.0043 25.2149C35.0962 28.0526 30.183 31.3946 25.6685 27.2905C27.4274 24.9218 31.0156 22.5062 38.0043 25.2149Z" fill="#B5E08C"/>
<path d="M48.2645 6.73476C36.4094 26.7864 26.3836 16.2798 28.3887 9.60766C30.3235 3.1583 42.0379 4.44817 48.2645 6.73476Z" fill="#9DCC6B"/>
<path d="M46.4117 6.14831C37.7344 18.8359 29.9951 15.6113 28.4004 9.60751C30.1828 3.61547 40.1265 4.37767 46.4117 6.14831Z" fill="#B5E08C"/>
<path d="M16.6745 12.715C12.8753 14.9664 6.80114 13.3834 0 1.89181C4.25657 0.308783 11.2336 -0.8521 15.8068 0.813006C22.0568 3.06442 20.72 10.3815 16.6745 12.715Z" fill="#9DCC6B"/>
<path d="M18.5041 11.0616C14.869 11.9645 9.81504 9.66621 4.19824 0.707473C7.46982 0.00390687 12.0665 -0.465137 15.7719 0.813007C21.1542 2.73609 20.8727 7.98938 18.5041 11.0616Z" fill="#B5E08C"/>
<path d="M22.96 19.9265C22.96 15.5644 30.8399 9.37305 38.2039 9.37305C38.5149 9.37305 38.8131 9.49659 39.033 9.7165C39.253 9.9364 39.3765 10.2347 39.3765 10.5457C39.3765 10.8567 39.253 11.1549 39.033 11.3748C38.8131 11.5947 38.5149 11.7183 38.2039 11.7183C31.5435 11.7183 25.3052 17.3585 25.3052 19.9265C25.3052 20.2375 25.1816 20.5358 24.9617 20.7557C24.7418 20.9756 24.4436 21.0991 24.1326 21.0991C23.8216 21.0991 23.5233 20.9756 23.3034 20.7557C23.0835 20.5358 22.96 20.2375 22.96 19.9265Z" fill="#BE927C"/>
<path d="M24.1326 39.8609C23.8216 39.8609 23.5233 39.7374 23.3034 39.5175C23.0835 39.2976 22.96 38.9993 22.96 38.6883V15.072C22.96 12.5157 16.7217 6.8637 10.0613 6.8637C9.75029 6.8637 9.45203 6.74016 9.23212 6.52025C9.01221 6.30034 8.88867 6.00209 8.88867 5.69109C8.88867 1.69249 25.3052 8.03631 25.3052 15.072C25.141 39.1574 26.0088 39.8609 24.1326 39.8609Z" fill="#BE927C"/>
<path d="M45.2393 52.7596V53.9322H3.02539V52.7596C3.02488 51.5693 3.32637 50.3983 3.90165 49.3562C4.47694 48.3141 5.3072 47.435 6.31474 46.8012C7.32229 46.1674 8.47417 45.7996 9.66258 45.7322C10.851 45.6648 12.0371 45.9 13.1098 46.4158C13.9315 44.152 15.4301 42.1962 17.4022 40.814C19.3743 39.4318 21.7241 38.6903 24.1324 38.6903C26.5406 38.6903 28.8904 39.4318 30.8625 40.814C32.8346 42.1962 34.3333 44.152 35.1549 46.4158C36.2276 45.9 37.4137 45.6648 38.6021 45.7322C39.7906 45.7996 40.9424 46.1674 41.95 46.8012C42.9575 47.435 43.7878 48.3141 44.3631 49.3562C44.9384 50.3983 45.2398 51.5693 45.2393 52.7596Z" fill="#A87E6B"/>
<path d="M45.2396 52.7596V53.9322H5.78125C6.11046 53.0014 6.6319 52.1503 7.31166 51.4342C7.99142 50.7181 8.81428 50.1532 9.72674 49.776C10.6392 49.3989 11.6208 49.218 12.6078 49.2451C13.5947 49.2723 14.5649 49.5069 15.4553 49.9336C16.1347 48.0657 17.2777 46.4011 18.7771 45.0963C20.2764 43.7914 22.0828 42.8891 24.0267 42.4741C25.9705 42.059 27.9879 42.1449 29.8894 42.7237C31.7909 43.3024 33.5141 44.355 34.8971 45.7826C35.2489 46.5682 35.0379 46.4275 35.3896 46.322C36.4595 45.855 37.6287 45.6617 38.792 45.7592C39.9552 45.8568 41.0759 46.2423 42.053 46.8809C43.0302 47.5195 43.833 48.3912 44.3893 49.4175C44.9456 50.4437 45.2378 51.5923 45.2396 52.7596Z" fill="#BE927C"/>
</svg>
