<svg width="77" height="87" viewBox="0 0 77 87" fill="none" xmlns="http://www.w3.org/2000/svg">
<path d="M20.9707 4.37713C20.2724 3.35769 19.4446 2.38908 18.3648 1.78823C17.2851 1.18738 15.913 1.00604 14.8116 1.56604C13.6945 2.13392 13.0426 3.34275 12.7112 4.55138C12.1526 6.58795 12.4492 9.04941 14.0983 10.3684C12.2829 10.2775 10.3717 10.2055 8.75059 11.0279C7.12948 11.8503 5.97839 13.8993 6.78094 15.5304C7.71271 17.4241 10.3387 17.5025 12.4404 17.3068C10.4339 18.7394 9.32056 21.3288 9.66108 23.7706C9.7275 24.2469 9.85527 24.7368 10.1757 25.0953C10.6202 25.5926 11.3341 25.734 11.9981 25.7981C13.5932 25.9522 15.2733 25.8056 16.6613 25.0046C18.0493 24.2034 19.0731 22.6431 18.898 21.0501C20.8903 21.8203 22.9979 22.2915 25.1286 22.4426C26.7267 22.5561 28.5039 22.4227 29.6432 21.2964C30.5724 20.3776 30.8599 18.8708 30.3341 17.6745C29.8082 16.4783 28.504 15.671 27.1988 15.7341C28.0006 14.3224 29.9913 14.1116 31.1171 12.9418C32.4087 11.5999 32.2051 9.46217 31.915 7.62251C31.7135 6.34405 31.4069 4.90259 30.2971 4.2364C29.1226 3.53136 27.5881 4.04472 26.4524 4.81054C25.7121 5.30982 24.2733 7.41574 23.5228 7.51138C22.3262 7.66384 21.5097 5.164 20.9707 4.37713Z" fill="#F68F8D"/>
<path d="M37.2253 11.2995C35.2915 12.8451 35.2369 16.1953 37.1195 17.8028C35.3947 16.6788 32.8274 16.9547 31.5362 18.558C30.2448 20.1613 30.6446 22.9027 32.4403 23.9095C34.0296 24.8004 36.0307 24.2443 37.6715 23.4523C36.0545 24.8047 36.3257 27.3425 36.9228 29.364C37.1535 30.1449 37.424 30.941 37.9601 31.5539C38.4962 32.1668 39.3624 32.5584 40.1395 32.3148C40.9309 32.0667 41.398 31.2729 41.7912 30.5426C42.4316 29.3529 43.0826 28.1327 43.2839 26.7966C43.8585 29.0095 47.0177 30.0161 48.7666 28.5438C50.5157 27.0712 50.0619 23.7867 47.9794 22.8435C49.1136 22.6052 50.2714 22.358 51.2677 21.7656C52.264 21.1733 53.0874 20.1626 53.1414 19.0048C53.3781 13.915 46.6506 16.7666 44.6865 14.6255C43.6065 13.4482 43.5376 11.9009 41.9807 11.0334C40.5283 10.2245 38.5509 10.24 37.2253 11.2995Z" fill="#F68F8D"/>
<path d="M25.9915 35.9063C25.0348 35.5181 23.9765 35.2624 22.9709 35.4968C21.7641 35.778 20.7651 36.8059 20.5183 38.0202C20.2716 39.2345 20.79 40.5709 21.7914 41.3008C19.6033 40.556 17.032 40.6567 15.1526 42.0022C13.2729 43.3475 12.3569 46.0773 13.4413 48.1186C14.5256 50.1598 17.737 50.8034 19.273 49.0762C18.2699 50.8716 17.3032 52.7728 17.1988 54.8269C17.0941 56.8809 18.0803 59.1283 19.9945 59.8804C21.5883 60.5064 23.4013 59.9812 24.9381 59.2259C26.2823 58.5654 27.5802 57.6901 28.3669 56.4157C29.1536 55.1412 29.32 53.3996 28.4577 52.1749C30.5336 54.3563 33.6602 55.4894 36.6516 55.1444C37.0819 55.0947 37.5271 55.0087 37.8714 54.7458C38.1758 54.5131 38.369 54.1661 38.535 53.8209C39.3462 52.1333 39.6516 49.9749 38.5132 48.4884C37.7915 47.546 36.6392 47.062 35.5551 46.5789C35.2946 46.4628 35.0199 46.3317 34.8699 46.089C34.5229 45.5268 35.066 44.8146 35.655 44.5155C36.2441 44.2163 36.9594 44.0541 37.3295 43.5068C37.6559 43.0239 37.6075 42.3884 37.5314 41.8107C37.2838 39.9278 36.4433 37.6496 34.5511 37.4849C33.498 37.3934 32.7983 38.0134 32.058 38.6451C30.9198 39.6166 31.4575 39.767 30.2836 39.0075C28.7531 38.0169 27.7883 36.6355 25.9915 35.9063Z" fill="#F68F8D"/>
<path d="M27.1611 59.1795C26.5031 59.6453 26.0965 60.4062 25.9257 61.1941C25.7328 62.084 25.8971 63.1648 26.6723 63.6424C25.8492 62.8834 24.7992 62.3734 23.6937 62.196C23.1799 62.1136 22.643 62.1031 22.1491 62.2674C20.9238 62.6748 20.2536 64.1736 20.5991 65.4178C20.9447 66.662 22.1392 67.5668 23.4157 67.7617C24.6923 67.9566 26.0107 67.5172 27.0582 66.7619C27.0366 67.5841 27.0174 68.4248 27.2675 69.2084C27.5175 69.9921 28.0915 70.7221 28.8869 70.9313C29.8115 71.1741 30.8261 70.6247 31.2984 69.7935C31.7707 68.9623 31.7666 67.9244 31.4828 67.0116C32.3947 67.0684 33.2834 67.3708 34.1971 67.3699C35.1108 67.3688 36.1311 66.9424 36.3988 66.0688C36.6522 65.2423 36.1075 64.3399 35.3646 63.898C34.6218 63.456 33.7286 63.3657 32.868 63.2855C33.6115 62.9104 34.3711 62.5232 34.9429 61.918C35.515 61.3127 35.872 60.4355 35.6409 59.6353C35.3155 58.509 33.929 57.9674 32.7813 58.2063C31.7977 58.4109 31.1069 59.2565 30.1174 59.2564C28.9543 59.2565 28.379 58.3178 27.1611 59.1795Z" fill="#F68F8D"/>
<path d="M57.1109 53.3925C55.7704 53.5568 54.6837 54.6888 54.283 55.9785C53.8822 57.2682 54.0708 58.6765 54.4933 59.9592C53.5492 59.1117 52.1321 58.9235 50.9129 59.2742C49.6936 59.6249 48.6567 60.4505 47.8283 61.4115C46.9739 62.4025 46.2855 63.7759 46.7818 64.9867C47.2462 66.1197 48.5884 66.6476 49.8127 66.6704C51.0371 66.6931 52.2382 66.3387 53.461 66.2737C51.9 67.5096 50.858 69.3813 50.6299 71.3591C50.5425 72.1173 50.5806 72.926 50.9705 73.5822C51.5856 74.6165 52.8949 75.0008 54.0947 75.0925C55.6731 75.213 57.365 74.9381 58.567 73.9082C59.769 72.8783 60.2772 70.9552 59.38 69.651C60.8819 71.1696 62.7851 72.2881 64.8428 72.8609C66.6596 73.3668 69.0786 73.1678 69.8022 71.426C70.5203 69.6972 69.02 67.8898 67.5747 66.6998C66.7354 66.0088 65.7813 65.3177 64.6943 65.3214C65.8343 64.9592 67.0662 65.0891 68.2527 64.9376C69.4392 64.7861 70.7243 64.2086 71.0859 63.0685C71.3764 62.1522 70.9597 61.1301 70.2871 60.4434C69.6146 59.7567 68.7226 59.3375 67.8511 58.9324C66.6838 58.3898 65.5556 57.9319 64.2762 57.7508C63.4512 57.6339 62.5592 57.8182 61.8484 57.2863C60.0994 55.9768 60.1072 53.0254 57.1109 53.3925Z" fill="#F68F8D"/>
<path d="M59.2892 46.3972C59.3294 47.6531 59.6734 48.974 60.5957 49.8274C61.5182 50.6807 63.1258 50.8564 63.9938 49.9477C63.4898 50.7615 63.5487 51.8067 63.7914 52.7327C64.1356 54.0458 64.8843 55.3326 66.1005 55.9355C67.3167 56.5385 69.03 56.2138 69.6572 55.01C70.2253 53.9192 69.7743 52.5985 69.318 51.4563C69.8294 53.165 71.5472 54.4619 73.3293 54.3919C75.1115 54.3219 76.7547 52.8209 76.8961 51.043C77.0374 49.2652 75.5725 47.487 73.7929 47.3712C75.0118 47.8066 76.4866 47.5814 77.4095 46.6739C78.3325 45.7664 78.5532 44.1737 77.7825 43.1337C77.0457 42.1393 75.6804 41.8478 74.4429 41.865C72.8328 41.8871 71.2858 42.4113 70.273 43.7029C70.1403 42.5854 70.6061 39.9484 68.8635 39.6799C67.863 39.5256 67.3601 40.594 66.8684 41.2906C64.854 44.1443 62.7563 45.5856 59.2892 46.3972Z" fill="#F68F8D"/>
<path d="M79.5995 21.3405C73.4586 16.2661 65.4939 12.4121 57.6923 14.0241C64.1938 17.4533 70.7886 20.7059 77.4665 23.7773C72.5788 25.1058 67.691 26.4341 62.8033 27.7625C60.8295 28.299 58.8209 28.8505 57.0991 29.9547C55.5983 30.917 54.3788 32.2602 52.9251 33.2925C48.6418 36.3344 42.7046 36.2882 37.8708 34.2301C33.0371 32.172 29.1517 28.3733 25.8391 24.2956C25.7266 26.3962 26.0866 28.5205 26.8844 30.467C21.1996 28.6315 14.7719 29.2327 9.52621 32.0906C19.6064 33.87 29.6868 35.6492 39.767 37.4286C41.0343 37.6522 42.6654 38.3658 42.4164 39.6282C42.2463 40.4912 41.2744 40.8805 40.5345 41.3563C39.335 42.1277 38.5258 43.476 38.4091 44.8974C45.3353 43.0337 52.0529 40.3955 58.3963 37.0479C57.5959 40.2365 56.0235 43.2282 53.851 45.6956C51.9396 47.8664 49.5861 49.6238 47.7539 51.8618C46.222 53.7328 45.075 55.9157 43.3759 57.6361C40.8269 60.2175 37.1361 61.659 35.1894 64.7202C34.1322 66.3827 33.6996 68.4322 33.9947 70.3802C34.0383 70.6677 34.1162 70.9829 34.3582 71.1441C34.543 71.2671 34.7815 71.2696 35.0023 71.2467C36.5021 71.0917 37.7209 70.0152 38.8278 68.9912C43.8151 64.3778 48.8027 59.7643 53.79 55.1509C54.8798 54.1429 55.9846 53.1167 56.7501 51.8448C57.9037 49.9286 58.1998 47.6022 59.2792 45.6432C60.1806 44.0072 61.6123 42.6561 62.203 40.884C62.9352 38.6861 62.2738 36.1144 63.3953 34.0874C64.8355 31.4844 68.344 31.1016 71.3136 30.9293C82.1285 30.3016 92.8662 28.3521 103.212 25.1383C104.043 24.8799 104.907 24.5926 105.52 23.9731C106.894 22.5821 106.406 20.2507 105.604 18.467C104.832 16.75 104.598 13.3919 102.555 13.7555C100.036 14.2035 97.3798 15.7357 94.8277 16.3775C92.1567 17.049 89.4537 17.5957 86.807 18.3616C86.0829 18.5711 79.6559 21.3872 79.5995 21.3405Z" fill="#4E3B31"/>
<path d="M72.2237 17.0015C71.6358 16.2571 71.1893 15.4016 70.9146 14.4938C70.5299 13.2229 69.7998 9.67823 70.855 8.74315C71.876 9.77121 72.4394 11.353 72.6578 12.7685C72.7539 13.3929 72.1005 16.8456 72.2237 17.0015Z" fill="#BED665"/>
<path d="M59.2526 27.6451C59.5024 27.962 59.724 28.3603 59.6248 28.7515C59.5707 28.965 59.428 29.1429 59.3112 29.3299C58.9494 29.9095 58.8273 30.6055 58.5367 31.2241C57.9877 32.3925 56.8011 33.236 55.5171 33.3705C56.2771 33.2909 54.6156 26.8893 54.839 26.3906C55.6158 24.6573 58.4855 26.6717 59.2526 27.6451Z" fill="#BED665"/>
<path d="M45.4286 48.5165C43.629 48.159 42.4122 41.3243 45.6281 42.544C47.8929 43.4029 48.619 49.1505 45.4286 48.5165Z" fill="#BED665"/>
<path d="M68.1616 57.2046C69.1915 56.9341 69.9344 56.3698 70.2723 55.5928C70.4509 55.1823 70.4402 54.6043 70.3477 54.0307C72.2757 54.947 75.2413 55.5802 76.5702 54.1626C77.5514 53.1157 77.2491 50.8122 76.3899 49.19C76.1057 48.6538 75.7781 48.2264 75.4238 47.9201C76.2272 47.466 76.9557 46.9305 77.1137 46.6705C78.0087 45.1961 76.7551 43.0285 75.4989 42.1841C74.5918 41.5747 72.7097 40.9174 71.5512 41.4375C71.0793 41.6498 70.785 42.2369 70.5253 42.7548C70.4857 42.8339 70.4379 42.9293 70.3904 43.0192C70.2039 42.6088 70.1748 42.1656 70.1446 41.7021C70.0744 40.6284 69.9949 39.4113 67.989 38.6507C67.2427 38.3678 66.6555 38.3698 66.195 38.6567C65.3909 39.157 65.2791 40.3351 65.1604 41.5824C65.0517 42.7257 64.9394 43.9081 64.3126 44.3474C63.531 44.8951 62.6319 45.1588 61.7625 45.4138C60.233 45.8623 58.6515 46.3263 58.8202 48.4356C59.0421 51.2111 61.4946 51.3294 62.8122 51.3931C63.087 51.4064 63.445 51.4235 63.628 51.4658C63.5591 51.5605 63.4309 51.6931 63.3452 51.7813C63.0499 52.0861 62.7152 52.4318 62.6898 52.8935C62.6072 54.4114 63.4374 56.3791 64.9699 57.0453C65.7356 57.3783 66.8262 57.4693 67.816 57.2824C67.9348 57.2601 68.0499 57.234 68.1616 57.2046ZM69.2774 53.42C69.4677 54.1112 69.5792 54.8984 69.4354 55.2289C69.0978 56.0053 68.17 56.2862 67.6474 56.3856C66.8401 56.5381 65.9321 56.4684 65.3343 56.2084C64.1815 55.7072 63.5374 54.1234 63.6016 52.9432C63.6082 52.8219 63.8448 52.5776 64.0015 52.416C64.3219 52.085 64.8583 51.5312 64.4293 50.9307C64.1532 50.5441 63.6094 50.5179 62.8567 50.4816C61.1749 50.4005 59.8769 50.1929 59.7305 48.3631C59.6258 47.0514 60.3998 46.7649 62.02 46.2898C62.9164 46.0267 63.9325 45.7288 64.837 45.0951C65.8089 44.4142 65.9474 42.9558 66.0696 41.6691C66.162 40.6976 66.2573 39.6935 66.6779 39.4317C66.8784 39.3065 67.2108 39.3317 67.6662 39.5042C69.1232 40.0569 69.1699 40.7721 69.2346 41.7617C69.2772 42.4169 69.3259 43.1594 69.8277 43.862C70.0365 44.1546 70.2888 44.1812 70.4205 44.1709C70.8549 44.137 71.0693 43.7076 71.3417 43.1642C71.4945 42.8595 71.7504 42.3493 71.9262 42.2701C72.6932 41.9233 74.2273 42.4289 74.9904 42.9418C75.9178 43.5653 76.9126 45.2442 76.3343 46.197C76.1549 46.434 75.2254 47.0139 74.449 47.4025C74.2338 47.3543 74.015 47.3467 73.7954 47.3813C73.2965 47.4299 73.0143 47.5382 72.8579 47.7408C72.7626 47.8642 72.7234 48.0155 72.7473 48.1668C72.7884 48.4281 72.9825 48.6238 73.2539 48.6772C73.5339 48.7327 73.9929 48.6038 74.498 48.3858C74.8761 48.5766 75.2583 49.0032 75.5837 49.6177C76.3389 51.0434 76.4922 52.9124 75.9049 53.5389C75.0116 54.4916 72.4648 54.0805 70.6174 53.154C70.4023 53.0462 70.2154 52.9411 70.0534 52.8404C69.9532 52.5335 69.8517 52.2814 69.7779 52.1306C69.5718 51.7105 69.2383 51.2089 68.8182 51.2025C68.6078 51.1996 68.4195 51.314 68.316 51.5099C68.1403 51.8416 68.028 52.5284 69.2492 53.4003C69.2582 53.4066 69.2677 53.4133 69.2774 53.42Z" fill="#231F20"/>
<path d="M19.3498 11.6735C19.4944 11.6355 19.6176 11.5284 19.669 11.3813C19.7871 11.0428 19.5709 10.8728 19.0485 10.462C18.89 10.3372 18.495 10.0326 18.2517 9.89796C17.8487 9.67473 17.625 9.8756 17.5476 9.9718C17.279 10.3066 17.578 10.6441 17.7565 10.846C17.9902 11.1101 18.4832 11.57 19.158 11.6825C19.2233 11.6933 19.2886 11.6896 19.3498 11.6735ZM18.0982 10.5435L18.0965 10.544L18.0982 10.5435Z" fill="#231F20"/>
<path d="M21.9635 17.733C22.165 17.6801 22.3104 17.4937 22.3034 17.2768C22.2976 17.0968 22.2966 16.9771 22.2958 16.8914C22.2932 16.6222 22.2852 16.5733 22.199 16.3099C22.1754 16.2372 22.1435 16.1401 22.101 16.002C22.0266 15.7613 21.7765 15.6268 21.5304 15.7001C21.2897 15.7743 21.1545 16.0297 21.2285 16.2707C21.2732 16.4156 21.3064 16.5174 21.3315 16.5935C21.3816 16.7468 21.3816 16.7468 21.3829 16.8993C21.3838 16.9896 21.3849 17.116 21.3911 17.3061C21.3992 17.558 21.61 17.7557 21.862 17.7474C21.8971 17.7467 21.9311 17.7415 21.9635 17.733Z" fill="#231F20"/>
<path d="M23.8677 45.2934C23.9869 45.2621 24.0931 45.1831 24.1552 45.0654C24.2732 44.8427 24.1881 44.5665 23.9655 44.4487L23.6207 44.2662C23.4675 44.1853 23.2821 44.1979 23.1418 44.2984L22.9188 44.4578L22.4628 44.5978C22.2218 44.6718 22.0866 44.927 22.1606 45.168C22.2349 45.4089 22.4937 45.5408 22.7309 45.4703L23.2579 45.3085C23.3051 45.294 23.3494 45.2722 23.3894 45.2434L23.4436 45.2048L23.5391 45.2552C23.6438 45.3109 23.7611 45.3214 23.8677 45.2934Z" fill="#231F20"/>
<path d="M72.3973 17.3985C72.8312 17.2845 73.148 16.7087 73.4796 16.0294C73.5164 15.954 73.5443 15.8948 73.5624 15.864C75.0315 13.5724 74.1718 12.0328 72.7972 10.1082C72.5808 9.80533 72.0017 9.23959 71.5321 8.81116C70.4416 7.81699 70.2935 7.8312 70.1056 7.84943C69.944 7.86508 69.7884 7.97465 69.7208 8.12319C69.5964 8.39668 69.7718 8.64215 69.8659 8.77407C70.2403 9.29812 70.2272 10.6964 70.2148 12.0484C70.1931 14.4083 70.1682 17.0828 72.1278 17.4094C72.2228 17.4253 72.3124 17.4208 72.3973 17.3985ZM71.0555 9.61387C71.4862 10.0136 71.9117 10.4387 72.0544 10.6385C73.4374 12.5745 73.9249 13.6076 72.7916 15.3758C72.758 15.4279 72.725 15.4947 72.6595 15.6289C72.4411 16.0763 72.2757 16.363 72.1668 16.4839C71.0893 16.1659 71.1096 13.9868 71.1274 12.057C71.1357 11.1499 71.1436 10.3114 71.0555 9.61387Z" fill="#231F20"/>
<path d="M26.481 42.3553C26.6492 42.3111 26.7846 42.1719 26.8152 41.9889L26.8965 41.5024C26.9162 41.383 26.888 41.2604 26.8178 41.1618L26.1085 40.1691C26.0673 40.1114 26.0134 40.064 25.9505 40.0309L25.2611 39.6661C25.038 39.5479 24.7624 39.6331 24.6445 39.8558C24.5265 40.0785 24.6115 40.3548 24.8342 40.4725L25.4282 40.7869L25.965 41.5384L25.9147 41.8384C25.8732 42.0871 26.041 42.3221 26.2896 42.3638C26.3557 42.3748 26.4206 42.3711 26.481 42.3553Z" fill="#231F20"/>
<path d="M67.6385 73.8425C67.7167 73.8219 67.7938 73.7988 67.8692 73.7733C68.7799 73.4654 69.8511 72.6569 69.7833 70.5542C69.7438 69.3312 68.6737 67.3909 67.4422 66.2676C68.0453 66.0987 68.4933 65.9335 68.504 65.9282C70.0146 65.1449 70.406 61.9763 70.1836 60.568C70.0575 59.7715 69.4772 59.0302 68.5053 58.4239C67.0467 57.5138 65.0227 57.1178 63.8031 57.4873C63.5751 57.5576 63.2261 57.7766 62.629 58.1581C62.2461 58.4029 61.6263 58.7986 61.3788 58.8953C60.85 58.6502 60.5428 57.7324 60.2454 56.8433C59.9628 55.9987 59.6705 55.1253 59.1222 54.6117C57.7648 53.3389 56.5888 53.5439 55.8407 53.9395C53.9582 54.9366 52.9527 58.052 53.1267 59.8259C52.8478 59.9109 52.2305 59.9719 51.7155 60.0238C49.605 60.2359 46.4148 60.5569 45.9984 63.0563C45.5917 65.4962 47.0813 67.7375 49.7925 68.7659C50.1549 68.9034 50.632 68.9911 51.123 68.9788C50.7078 69.6335 50.4597 70.3423 50.3992 71.0731C50.283 72.4803 50.8582 73.861 52.0631 75.0659C52.8074 75.8102 53.8761 76.1686 55.0723 76.0748C56.5709 75.9571 58.1152 75.1391 58.9157 74.039C59.209 73.6354 59.8882 72.6132 60.132 71.4984C62.0938 73.0517 65.4182 74.4258 67.6385 73.8425ZM66.3039 66.5321C67.4827 67.2643 68.8349 69.4547 68.8713 70.5838C68.9118 71.8399 68.4885 72.6005 67.5768 72.9088C65.2782 73.6911 60.8989 71.4802 59.6675 69.7563C59.3921 69.3708 59.09 69.5164 59.0045 69.57C58.8677 69.6556 58.6718 69.8609 58.8968 70.2764C59.235 70.8999 59.2705 71.0999 59.2702 71.1568C59.1559 71.8371 58.7468 72.7197 58.1775 73.5026C57.5354 74.3852 56.229 75.0688 55.0009 75.1654C54.3462 75.2167 53.4166 75.1293 52.7085 74.4208C51.6992 73.4115 51.2151 72.2802 51.3089 71.1487C51.3912 70.1552 51.9187 69.1981 52.8113 68.4027C52.8723 68.3596 52.9366 68.3128 53.0042 68.2626C53.467 67.918 53.5914 67.8255 53.5997 67.5821C53.6058 67.4084 53.5126 67.246 53.3594 67.1638C53.1058 67.0274 52.8982 67.1753 52.8099 67.2387C52.6107 67.3811 52.4227 67.5297 52.2463 67.6842C52.1068 67.782 51.9752 67.8673 51.8949 67.9034C51.3535 68.1477 50.5902 68.0927 50.1163 67.913C48.2967 67.2227 46.4959 65.6237 46.8987 63.2066C47.2007 61.3952 49.9725 61.1163 51.8069 60.9318C53.0421 60.8077 53.6477 60.7319 53.9268 60.3704C54.0357 60.2289 54.0806 60.0544 54.053 59.8788C54.053 59.8788 54.053 59.8788 54.053 59.8786C53.8065 58.317 54.8565 55.4938 56.2681 54.7461C56.9839 54.3669 57.7129 54.5413 58.4983 55.2776C58.8784 55.6337 59.1336 56.396 59.3802 57.1331C59.7652 58.2837 60.1635 59.4731 61.1855 59.7974C61.5384 59.9094 61.9479 59.6764 63.1206 58.9274C63.4676 58.7059 63.943 58.4021 64.0724 58.3596C65.0386 58.0627 66.8068 58.4396 68.0227 59.198C68.7531 59.6537 69.2005 60.1907 69.2827 60.7103C69.4907 62.0288 69.0168 64.6346 68.0845 65.118C67.8611 65.2211 67.1362 65.4276 66.4376 65.5715C66.3271 65.5207 66.2171 65.4794 66.1085 65.4487C66.0267 65.4254 65.9291 65.3901 65.825 65.3531C65.3563 65.1858 64.8713 65.0134 64.4975 65.2329C64.3249 65.3345 64.211 65.5042 64.1766 65.7114C64.1287 65.9982 64.2327 66.2585 64.4621 66.4255C64.8288 66.6928 65.562 66.6626 66.3039 66.5321ZM53.1508 60.02C53.1509 60.0203 53.151 60.0207 53.1511 60.021L53.1511 60.0208C53.151 60.0207 53.1509 60.0203 53.1508 60.02Z" fill="#231F20"/>
<path d="M20.7118 15.728C20.9299 15.6707 21.149 15.5658 21.3622 15.4135C21.7701 15.122 21.9142 14.6914 21.7471 14.2618C21.4221 13.4261 19.7724 12.6341 19.36 12.6843C18.9981 12.7283 18.7259 12.9887 18.6317 13.3809C18.4796 14.0123 18.8044 15.049 19.5134 15.5273C19.8765 15.7721 20.2924 15.8382 20.7118 15.728ZM20.9027 14.6118C20.8984 14.6129 20.8801 14.6366 20.8318 14.671C20.3581 15.0094 20.0837 14.842 19.9194 14.6865C19.5815 14.3671 19.473 13.8377 19.51 13.6223C19.9597 13.7746 20.8739 14.3521 20.903 14.6117C20.9028 14.6117 20.9027 14.6118 20.9027 14.6118ZM19.4152 13.1373L19.4135 13.1377L19.4152 13.1373Z" fill="#231F20"/>
<path d="M25.2682 23.9166C25.7394 23.793 26.2743 23.5776 26.8879 23.2454C27.028 23.1697 27.182 23.0932 27.3421 23.0132C28.1014 22.635 29.0464 22.1642 29.4856 21.3353C30.4971 19.4243 29.8902 16.9872 28.0743 15.6662C27.9461 15.5731 27.7537 15.5038 27.3963 15.3791C27.3307 15.3562 27.2449 15.3264 27.1535 15.2932C27.2732 15.2452 27.3435 15.212 27.402 15.1702L27.515 15.0896C29.0047 14.0279 31.7775 12.0516 30.9916 9.84322C30.6655 8.92662 27.9719 4.49211 26.2966 4.45327C24.9684 4.42233 23.2641 5.91577 22.7715 6.44131C22.5446 6.68322 22.4118 7.07573 22.2861 7.46053C22.0621 7.05759 21.876 6.62223 21.6826 6.16933C21.1189 4.84977 20.4797 3.35398 18.666 2.5655C16.2662 1.52242 14.919 2.58915 14.329 3.31805C12.8676 5.12398 12.8933 8.53848 14.3839 10.6255C14.5275 10.8267 14.5496 10.9301 14.5529 10.9599C14.3282 11.2137 12.8209 11.2351 11.9162 11.2476C9.67522 11.2792 7.13525 11.3151 6.84777 13.041C6.52512 14.9778 8.35299 16.9336 9.15375 17.6843C9.37707 17.8936 9.77315 17.9473 10.5764 18.0396C10.8022 18.0656 11.1158 18.1017 11.3694 18.1445C11.26 18.2223 11.1412 18.3003 11.0492 18.3607C10.6869 18.5988 10.3122 18.845 10.1155 19.152C9.00455 20.8847 9.75023 23.9608 11.1401 25.2637C13.634 27.6016 17.6635 25.3391 19.8437 23.7822C20.6256 23.2237 20.6134 22.7504 20.5159 22.1897C20.486 22.0169 20.4549 21.8382 20.4601 21.618C20.4611 21.5758 20.4581 21.5337 20.4525 21.4914C20.9757 21.7446 21.3612 22.1667 21.7631 22.6063C22.5429 23.4611 23.4063 24.4058 25.2682 23.9166ZM26.891 14.4141C26.8478 14.4341 26.739 14.4761 26.658 14.5074C26.0811 14.7303 25.664 14.8912 25.7337 15.336C25.8022 15.7696 26.296 15.9626 27.0961 16.2412C27.2631 16.2994 27.4914 16.379 27.5504 16.413C28.9649 17.4428 29.4664 19.4211 28.6792 20.9086C28.3773 21.4785 27.6113 21.86 26.9355 22.1967C26.7652 22.2814 26.6022 22.3627 26.4537 22.4431C24.0417 23.7476 23.3682 23.0114 22.4366 21.9917C21.8351 21.3335 21.1534 20.5872 19.9572 20.3879C19.7583 20.3547 19.5696 20.4224 19.452 20.5688C19.2438 20.8273 19.3662 21.1324 19.4643 21.3776C19.4922 21.4474 19.5383 21.5623 19.5471 21.6104C19.5415 21.9142 19.5831 22.1537 19.6166 22.3467C19.6818 22.7228 19.6903 22.7711 19.3129 23.0405C17.7409 24.1631 13.8586 26.5624 11.7641 24.599C10.6579 23.5619 10.0323 20.9737 10.8836 19.6456C10.9758 19.5022 11.2942 19.2928 11.5503 19.1246C11.9801 18.8422 12.386 18.5753 12.5269 18.2031C12.5907 18.035 12.5741 17.851 12.4814 17.6987C12.2577 17.3314 11.7101 17.2526 10.6805 17.1341C10.3644 17.0977 9.89474 17.0439 9.74623 16.9901C9.17209 16.446 7.49525 14.7075 7.74771 13.1923C7.91042 12.2177 10.2332 12.1853 11.929 12.1612C13.7079 12.136 14.9931 12.1181 15.3725 11.3673C15.5548 11.0073 15.4719 10.5795 15.1267 10.096L14.7553 10.3613L15.1267 10.096C13.8958 8.37267 13.8529 5.35824 15.0385 3.8933C15.7861 2.96959 16.9147 2.79988 18.3022 3.4033C19.7832 4.04726 20.2982 5.25261 20.8436 6.52905C21.1283 7.19535 21.4228 7.88398 21.8618 8.49899C22.0711 8.79218 22.333 8.78697 22.4358 8.77109C22.8382 8.71068 22.9727 8.29961 23.142 7.78049C23.217 7.55151 23.3421 7.16782 23.4373 7.06636C24.0997 6.36016 25.4914 5.34929 26.2755 5.36636C27.1662 5.38712 29.7043 8.94779 30.1318 10.1499C30.687 11.7091 28.1869 13.4909 26.9853 14.347L26.891 14.4141ZM19.5474 21.5969C19.5474 21.5977 19.5473 21.5983 19.5474 21.599C19.5473 21.5981 19.5474 21.5977 19.5474 21.5969ZM26.8753 14.4252L26.8718 14.4278C26.8731 14.4269 26.874 14.4261 26.8753 14.4252ZM14.5533 10.9694L14.5516 10.9698L14.5533 10.9694Z" fill="#231F20"/>
<path d="M22.9961 48.2723C23.1155 48.2409 23.2217 48.1619 23.2838 48.044L23.4156 47.795L24.7465 46.8443C24.9515 46.6978 24.9989 46.4128 24.8525 46.2076C24.706 46.0025 24.421 45.9553 24.2159 46.1016L22.7969 47.1151C22.7394 47.1564 22.6921 47.2104 22.6589 47.2733L22.4769 47.6176C22.359 47.8403 22.4443 48.1164 22.667 48.2342C22.7722 48.2899 22.8895 48.3003 22.9961 48.2723Z" fill="#231F20"/>
<path d="M20.585 12.5045C20.6373 12.4908 20.6878 12.4675 20.7342 12.4344L21.018 12.2317C21.1423 12.143 21.2138 11.998 21.209 11.8454L21.1886 11.2174C21.1856 11.1276 21.1561 11.0407 21.1038 10.9674L20.7999 10.5417C20.6534 10.3363 20.3677 10.2895 20.1633 10.4354C19.9582 10.5818 19.9107 10.8668 20.0571 11.072L20.2808 11.3854L20.2888 11.6312L20.2039 11.6918C19.9988 11.8382 19.9514 12.1234 20.0977 12.3284C20.2109 12.487 20.4071 12.5513 20.585 12.5045Z" fill="#231F20"/>
<path d="M24.9623 43.2265C25.0146 43.2128 25.0653 43.1894 25.1118 43.1561L25.3954 42.9533C25.6004 42.8069 25.6477 42.5218 25.5012 42.3168L25.2986 42.0332C25.2412 41.9528 25.1594 41.8933 25.0651 41.8634L24.2733 41.6124L23.6206 41.267C23.3974 41.1488 23.1218 41.2341 23.0039 41.4568C22.8859 41.6795 22.971 41.9557 23.1936 42.0735L23.8828 42.4382C23.9069 42.4511 23.9322 42.4616 23.9583 42.4699L24.4217 42.6169C24.3667 42.756 24.3814 42.9194 24.475 43.0501C24.5884 43.2089 24.7846 43.2732 24.9623 43.2265Z" fill="#231F20"/>
<path d="M17.0386 16.5375C17.1577 16.5062 17.264 16.4271 17.3261 16.3095L17.4582 16.06L17.8778 15.7603L18.3337 15.6201C18.5745 15.5459 18.7097 15.2906 18.6356 15.0496C18.5616 14.8086 18.3151 14.6728 18.0651 14.7477L17.5383 14.9099C17.4914 14.9245 17.4472 14.9461 17.4074 14.9746L16.8399 15.3798C16.7824 15.421 16.7351 15.4749 16.702 15.5378L16.5196 15.8824C16.4017 16.1051 16.4867 16.3813 16.7094 16.4991C16.8147 16.5552 16.9318 16.5656 17.0386 16.5375Z" fill="#231F20"/>
<path d="M28.9133 42.7603C29.0326 42.7289 29.1388 42.6497 29.2009 42.532L29.3829 42.1875C29.42 42.1176 29.4381 42.039 29.4355 41.9597L29.4156 41.3316C29.4128 41.2416 29.3834 41.1542 29.3307 41.0808L29.1279 40.7973C28.9815 40.5923 28.696 40.5446 28.4913 40.6916C28.2864 40.8381 28.239 41.1233 28.3857 41.3282L28.5078 41.4992L28.5197 41.8684L28.3941 42.1059C28.2762 42.3288 28.3616 42.6049 28.5842 42.7225C28.6895 42.7779 28.8066 42.7883 28.9133 42.7603Z" fill="#231F20"/>
<path d="M30.6151 49.0424C30.7527 49.0063 30.8718 48.9063 30.926 48.7628C31.0154 48.5271 30.897 48.2637 30.6612 48.1745C30.4814 48.1062 30.3758 48.0586 30.299 48.0241C30.0479 47.911 29.9527 47.9003 29.6617 47.9528C29.6093 47.9624 29.5429 47.9742 29.4554 47.9881C29.2042 48.0275 29.0363 48.2613 29.076 48.51C29.1154 48.7589 29.3489 48.9289 29.5979 48.8894C29.6937 48.8744 29.7665 48.8611 29.8236 48.8508C29.8488 48.8463 29.8695 48.8422 29.8873 48.839C29.8982 48.8439 29.9103 48.8496 29.9244 48.8559C30.0071 48.8932 30.132 48.9493 30.3376 49.0272C30.4298 49.0628 30.5264 49.0657 30.6151 49.0424Z" fill="#231F20"/>
<path d="M27.8491 71.7668C27.9517 71.7399 28.0555 71.7035 28.1601 71.6576C29.0734 71.2563 29.9205 70.1709 30.1097 69.4478C30.2388 68.9551 30.3196 68.504 30.3549 68.0748C30.9003 68.3328 31.5399 68.5927 32.1773 68.731C33.9445 69.1141 34.7626 68.3498 35.1378 67.6411C35.706 66.5678 35.3686 65.1428 34.1354 63.4045C34.6699 62.9657 35.1331 62.4145 35.1963 62.1731C35.6441 60.4612 35.9978 59.1089 33.5858 58.2819C32.334 57.8529 31.3138 57.7886 30.555 58.0867C30.1476 58.2469 29.9262 58.7016 29.742 59.1374C29.7331 59.1075 29.7246 59.0776 29.7161 59.0478C29.6178 58.7043 29.5063 58.315 29.121 58.1063C28.8056 57.9352 28.4079 57.9385 27.832 58.1155C26.9389 58.3903 25.6249 59.192 25.9579 61.5205C25.3788 61.3726 24.653 61.4397 23.8885 61.7407C22.5521 62.2675 21.3651 63.4616 21.7271 64.942C21.8842 65.5855 22.1772 66.0254 22.5975 66.2502C23.2554 66.6016 24.0133 66.3266 24.5678 66.1249C24.2773 66.7696 24.2101 66.9594 24.2066 67.1134C24.1743 68.4918 25.4064 70.9447 26.7592 71.661C27.087 71.834 27.4588 71.8694 27.8491 71.7668ZM29.4536 67.8893C29.4282 68.2976 29.354 68.732 29.2268 69.2165C29.1107 69.6603 28.4575 70.5299 27.793 70.8219C27.4275 70.9823 27.2464 70.8857 27.1864 70.8541C26.2409 70.3535 25.1135 68.3365 25.1186 67.1678C25.1629 67.0193 25.3767 66.5497 25.494 66.292C25.7745 65.676 25.8251 65.5649 25.662 65.3377C25.3313 64.8747 24.7625 65.0826 24.2604 65.2653C23.845 65.4167 23.3277 65.6054 23.0277 65.4448C22.8461 65.3477 22.7068 65.1056 22.614 64.7248C22.3827 63.779 23.2558 62.9708 24.2236 62.5893C25.1185 62.2374 25.9764 62.3 26.2208 62.7359C26.4454 63.1368 26.7373 63.0665 26.8517 63.0176C27.1051 62.9098 27.1808 62.6799 27.0766 62.3344C26.5214 60.4934 26.8661 59.3672 28.1007 58.9873C28.561 58.8451 28.6816 58.9055 28.6864 58.9082C28.7348 58.9344 28.8 59.1624 28.8392 59.2985C28.9157 59.5659 29.011 59.8988 29.2365 60.2145C29.4321 60.4885 29.6707 60.5055 29.7957 60.4913C30.1837 60.4481 30.3444 60.0656 30.5279 59.6241C30.6118 59.4222 30.7863 59.0017 30.8988 58.9312C31.4348 58.7202 32.2644 58.7935 33.2903 59.145C34.8902 59.6935 34.7666 60.2106 34.3229 61.9072C34.2085 62.0989 33.7869 62.5162 33.419 62.8061C33.1459 62.6442 32.8356 62.5359 32.5711 62.6454C32.4667 62.6881 32.1325 62.8691 32.2172 63.4051C32.2748 63.7702 32.5248 64.0076 32.8693 64.0247C33.0173 64.032 33.1876 63.9863 33.3682 63.9051C33.3732 63.9098 33.3777 63.9145 33.382 63.9189C34.4073 65.3591 34.7269 66.4676 34.3317 67.2139C34.1176 67.6181 33.6812 68.1228 32.3711 67.8388C31.4411 67.637 30.4525 67.1135 29.8619 66.8009C29.603 66.6643 29.3783 66.7588 29.2642 66.8811C29.0105 67.1531 29.1973 67.4535 29.3089 67.6333C29.3484 67.6973 29.4272 67.824 29.4536 67.8893ZM29.4559 67.8479C29.456 67.8481 29.4558 67.8483 29.4559 67.8485C29.4558 67.8483 29.456 67.8481 29.4559 67.8479ZM33.3707 63.9037C33.3714 63.9049 33.3722 63.9058 33.3729 63.9069C33.3722 63.9058 33.3713 63.9047 33.3707 63.9037Z" fill="#231F20"/>
<path d="M27.3072 47.3514C28.528 47.0307 28.9734 45.9505 28.7807 45.0381C28.5917 44.1441 27.7587 43.2946 26.3764 43.5417C25.7484 43.6535 25.2941 44.0397 25.0955 44.6284C24.8516 45.3506 25.0546 46.2619 25.589 46.8445C26.0309 47.3259 26.6414 47.5148 27.2639 47.3626C27.2786 47.3587 27.2929 47.3552 27.3072 47.3514ZM26.5369 44.4401C27.3794 44.2896 27.7913 44.7698 27.8878 45.2268C27.9921 45.721 27.7763 46.2959 27.0474 46.4757C26.745 46.5497 26.4808 46.466 26.2616 46.2273C25.9521 45.8899 25.8226 45.3279 25.9603 44.9202C26.0514 44.6502 26.2407 44.4921 26.5369 44.4401Z" fill="#231F20"/>
<path d="M35.3058 70.1446C35.7983 70.0152 36.5784 69.6435 37.8846 68.9225C37.9533 68.8846 38.0002 68.8585 38.019 68.8489C40.9044 67.4369 43.4968 65.4256 45.8681 63.4627C50.841 59.3452 56.4117 54.4516 59.5784 48.4704C60.744 46.2691 61.2906 43.8779 61.8191 41.5654C62.5745 38.261 63.2879 35.1399 65.6687 32.6005C67.4799 30.6685 72.9179 29.8613 75.8395 29.4277C76.2122 29.3725 76.5544 29.3216 76.8568 29.2739C78.7265 28.9787 80.6703 28.7345 82.7283 28.476C88.8481 27.707 95.1767 26.9123 100.471 24.6638C100.769 24.5375 101.251 24.397 101.809 24.2341C103.893 23.6269 106.746 22.7952 107.066 20.8741C107.21 20.0082 106.741 18.5192 106.16 16.8054C105.986 16.2912 105.836 15.8475 105.785 15.6149C105.771 15.5532 105.734 15.3288 105.694 15.0912C105.262 12.4894 105.183 12.3297 104.764 12.2804C104.272 12.222 103.743 12.3217 103.277 12.5607C100.867 13.7944 98.5619 14.644 96.122 15.5434C95.0893 15.9241 94.0214 16.3177 92.932 16.747C91.919 17.146 90.9358 17.5798 89.985 17.9992C87.5657 19.0667 85.2808 20.0755 82.6524 20.4898C81.681 20.6432 79.7156 19.635 78.4152 18.9677C77.8668 18.6864 77.3933 18.4436 77.0211 18.2894C73.8768 16.99 70.3104 16.0345 65.7965 15.282C65.5793 15.2459 65.358 15.2081 65.1332 15.1698C63.5252 14.8965 61.7029 14.5868 60.0878 14.5867C59.9876 14.5868 59.1018 14.6004 58.8559 15.0775C58.7576 15.2687 58.7761 15.4912 58.9059 15.6728C59.4599 16.449 61.2741 16.8674 63.0847 17.2295C63.3279 17.278 63.5308 17.3185 63.6715 17.3518C66.5457 18.03 77.0882 21.6338 78.1574 23.131C78.1885 23.1747 78.2229 23.2334 78.2091 23.2635C78.1706 23.348 77.8581 23.792 75.4949 24.2191C73.9912 24.4914 72.2515 24.6547 70.9813 24.7738C70.3358 24.8345 69.826 24.8824 69.5412 24.9274C66.7236 25.3719 63.9745 27.3414 61.3136 29.2462C59.5666 30.4966 57.9161 31.678 56.3133 32.3991C48.2572 36.0246 40.3995 36.0359 33.592 32.4318C32.6595 31.9381 31.1533 30.1617 29.6969 28.4437C27.4225 25.761 25.9737 24.1155 24.8983 24.0904C24.7384 24.0869 24.5739 24.1741 24.4881 24.3078C24.3066 24.5905 24.397 24.777 24.9863 25.9909C25.3851 26.8118 26.5945 29.3035 26.3701 29.7961C26.3692 29.7971 26.3683 29.7981 26.3673 29.7991C26.273 29.7512 26.1423 29.6905 25.9639 29.6401C22.1351 28.5564 18.9278 28.4171 15.5648 29.1883C14.5404 29.4231 12.6012 29.9764 11.1054 31.045C11.0413 31.0907 10.9345 31.1523 10.8216 31.2175C10.3849 31.469 9.9723 31.7065 9.95056 32.118C9.93977 32.3197 10.0347 32.5088 10.2108 32.6367C10.387 32.765 10.3903 32.7673 13.9034 32.7551C16.2672 32.7467 19.5042 32.7351 20.1309 32.8396C22.2513 33.193 24.1646 33.8765 26.1899 34.6005C27.403 35.0338 28.6576 35.4819 29.9508 35.848C31.1409 36.1849 32.3822 36.4806 33.6967 36.7939C36.7092 37.5116 39.82 38.2528 42.3788 39.5335C41.7714 40.4906 39.265 43.2611 38.7606 43.6404C38.746 43.6469 38.7298 43.6527 38.7139 43.6589C38.58 43.7118 38.3558 43.8002 38.2807 44.0537C38.237 44.2018 38.2644 44.3607 38.3562 44.4897C38.6786 44.9402 39.279 44.8402 42.404 43.3418C42.5899 43.2526 42.7232 43.1884 42.777 43.1655C46.5998 41.5424 50.6644 39.7668 54.6404 37.4879L54.796 37.3972C55.2585 37.1266 56.6658 36.303 57.2593 36.5084C57.3248 36.5313 57.3992 36.573 57.4539 36.7119C58.2058 38.621 56.3926 41.8529 54.4447 44.2407C52.7188 46.3559 51.1952 48.5823 49.7219 50.7355C47.0818 54.5937 44.5881 58.2378 41.0239 61.3067C39.4393 62.6713 38.1787 64.3381 36.9594 65.9498C36.3462 66.7605 35.7121 67.5989 35.0567 68.3682L35.0063 68.4256C34.6936 68.7797 34.1113 69.439 34.4856 69.9629C34.6379 70.1755 34.8474 70.2651 35.3058 70.1446ZM69.9273 29.6122C67.8996 30.1449 66.0223 30.8891 65.0031 31.9763C62.4532 34.6959 61.6786 38.0848 60.9295 41.362C60.414 43.6165 59.8813 45.9483 58.7719 48.0433C55.6837 53.8764 50.1915 58.6982 45.2863 62.7595C42.9584 64.6866 40.4181 66.659 37.6151 68.0305C37.5964 68.0395 37.5358 68.0726 37.4438 68.1234C36.621 68.5775 36.0672 68.8544 35.6956 69.023L35.7517 68.9586C36.4239 68.1696 37.0662 67.3203 37.6875 66.4993C38.8777 64.9255 40.1087 63.2983 41.6197 61.9972C45.2741 58.8504 47.9181 54.9864 50.4753 51.2498C51.9381 49.1121 53.4505 46.902 55.1519 44.8163C56.1763 43.5604 59.4311 39.2402 58.3031 36.3763C58.1619 36.0175 57.9041 35.7648 57.5577 35.645C56.6875 35.3439 55.4945 35.9304 54.3352 36.6084L54.1866 36.695C50.2543 38.9491 46.2178 40.7118 42.4204 42.3245C42.3611 42.3497 42.2141 42.4199 42.0096 42.5177C41.375 42.822 40.8635 43.0581 40.4517 43.2397C40.8091 42.8582 41.1942 42.4325 41.5402 42.0366C43.4429 39.8601 43.4204 39.5222 43.4069 39.3202C43.3947 39.1379 43.2938 38.9793 43.1367 38.8962C40.4152 37.4553 37.1071 36.6673 33.9082 35.9051C32.6034 35.5944 31.371 35.3009 30.1993 34.9691C28.9355 34.6116 27.6958 34.1684 26.497 33.7402C24.5229 33.035 22.4817 32.3057 20.2809 31.9388C19.6298 31.8304 17.1172 31.8304 13.9001 31.8418C13.0521 31.8449 12.1878 31.8478 11.5499 31.845C11.5801 31.8255 11.6087 31.8065 11.6355 31.7872C12.6338 31.0739 14.1405 30.4507 15.7684 30.0775C18.974 29.3421 22.0417 29.4781 25.7152 30.5177C25.8399 30.5531 25.9208 30.5951 25.9991 30.6358C26.408 30.8483 26.6909 30.7874 27.0439 30.4115C27.6616 29.7522 27.1374 28.3322 25.8071 25.5922C25.7969 25.5709 25.7864 25.5495 25.7761 25.5281C26.6945 26.3138 27.9811 27.8312 29.0003 29.0336C30.5825 30.8995 32.0767 32.6621 33.1648 33.2379C40.2303 36.9787 48.3647 36.9762 56.6876 33.231C58.373 32.4724 60.0594 31.2655 61.8445 29.9878C64.4189 28.1448 67.0808 26.2396 69.6832 25.8284C69.9396 25.788 70.4367 25.7414 71.0662 25.6821C75.7252 25.2446 78.5236 24.7708 79.039 23.6422C79.1272 23.4492 79.2262 23.057 78.8997 22.5999C77.4753 20.6053 65.8869 16.9362 63.8807 16.4629C63.7328 16.4279 63.519 16.385 63.2633 16.3339C62.581 16.1974 61.0252 15.8862 60.1745 15.499C61.6924 15.5101 63.4373 15.8067 64.98 16.0689C65.2058 16.1073 65.4282 16.145 65.6461 16.1813C70.0901 16.922 73.5937 17.8596 76.6721 19.132C77.0098 19.2716 77.4679 19.5067 77.9983 19.7787C79.5713 20.5857 81.529 21.5902 82.7944 21.3902C85.5394 20.9574 87.8779 19.9252 90.3532 18.8333C91.2957 18.4173 92.2705 17.9874 93.2661 17.5951C94.3461 17.1696 95.4092 16.7776 96.4374 16.3986C98.904 15.4894 101.234 14.6309 103.693 13.3719C103.693 13.3719 103.693 13.3719 103.693 13.3719C103.916 13.2573 104.167 13.1902 104.407 13.1779C104.531 13.6573 104.717 14.7747 104.794 15.2399C104.847 15.5585 104.876 15.7286 104.893 15.809C104.955 16.0911 105.105 16.5353 105.296 17.0976C105.665 18.1879 106.284 20.013 106.166 20.7231C105.94 22.0788 103.3 22.8481 101.554 23.3572C100.968 23.5282 100.462 23.6757 100.115 23.8231C94.9368 26.0214 88.6727 26.8088 82.6145 27.5697C80.5493 27.8292 78.5987 28.0742 76.7145 28.3716C76.4146 28.4189 76.0752 28.4694 75.7054 28.5243C74.0912 28.7647 71.9355 29.0846 69.9273 29.6122Z" fill="#231F20"/>
<path d="M22.9766 14.6528C23.0289 14.6391 23.0794 14.6158 23.126 14.5826L24.686 13.4683C24.7846 13.398 24.8511 13.2913 24.871 13.1719C24.891 13.0525 24.8626 12.9301 24.7924 12.8315L24.5897 12.5479C24.4432 12.3428 24.1579 12.2956 23.9531 12.4419C23.7781 12.5669 23.7181 12.7924 23.7947 12.9833L22.5953 13.84C22.3904 13.9865 22.3429 14.2715 22.4893 14.4766C22.6027 14.6352 22.7987 14.6996 22.9766 14.6528Z" fill="#231F20"/>
<path d="M26.5829 49.9948C26.702 49.9635 26.8083 49.8845 26.8704 49.767L27.0528 49.4226C27.099 49.3354 27.1158 49.2355 27.1001 49.1379L26.9789 48.3681C26.9397 48.119 26.706 47.9489 26.4573 47.9882C26.2064 48.0282 26.0381 48.261 26.0774 48.5098L26.175 49.1299L26.0638 49.3399C25.9459 49.5628 26.0308 49.8389 26.2534 49.9569C26.3588 50.0124 26.4761 50.0229 26.5829 49.9948Z" fill="#231F20"/>
<path d="M15.6201 14.5515C15.6724 14.5377 15.7229 14.5145 15.7693 14.4813C16.0372 14.29 16.186 14.1669 16.2747 14.0934C16.2993 14.073 16.3179 14.0568 16.3345 14.0439C16.3628 14.0387 16.4137 14.0312 16.4629 14.0241C16.5186 14.0161 16.5862 14.0063 16.6697 13.993C16.9171 13.9541 17.0887 13.7201 17.0491 13.4712C17.01 13.2223 16.7762 13.0522 16.5273 13.0917C16.4483 13.1042 16.3846 13.1134 16.3321 13.1211C16.0137 13.1668 15.9308 13.1933 15.6928 13.3904C15.6083 13.4604 15.4804 13.5663 15.2392 13.7385C15.034 13.8849 14.9866 14.17 15.133 14.375C15.2462 14.5338 15.4422 14.5982 15.6201 14.5515Z" fill="#231F20"/>
<path d="M30.3319 44.7463C30.3841 44.7325 30.4346 44.7093 30.4812 44.6761L30.7191 44.5062L31.2891 44.2817L31.6249 44.2288C31.6947 44.218 31.7613 44.1905 31.819 44.1495L32.1024 43.9469C32.3076 43.8003 32.3548 43.5152 32.2084 43.3102C32.0619 43.1051 31.7763 43.0582 31.5718 43.2042L31.376 43.3442L31.0974 43.3883C31.0646 43.3933 31.0323 43.4022 31.0014 43.4145L30.3326 43.6779C30.2978 43.6916 30.265 43.7095 30.2345 43.7313L29.9508 43.9339C29.7459 44.0804 29.6985 44.3654 29.8448 44.5706C29.9579 44.7286 30.1539 44.793 30.3319 44.7463Z" fill="#231F20"/>
<path d="M57.6861 32.5356C57.8689 32.4876 58.0513 32.3559 58.2544 32.178C58.8189 31.6839 60.9392 29.3401 60.9187 28.6989C60.8374 26.1856 54.2687 25.454 54.2027 25.4518C53.9618 25.4435 53.7395 25.6246 53.7157 25.8639C53.6961 26.0606 53.7688 26.3108 54.2268 26.3871C54.8616 26.4929 55.0693 27.6974 55.27 28.8623C55.5463 30.4655 55.8595 32.2827 57.4487 32.5478C57.5291 32.5614 57.6076 32.5562 57.6861 32.5356ZM60.0017 28.6709C59.7689 29.1829 58.0387 31.2642 57.4936 31.6247C56.6952 31.4051 56.4387 30.27 56.1694 28.7076C56.0401 27.9574 55.9086 27.1942 55.6439 26.5968C57.3731 26.9586 59.8747 27.712 60.0017 28.6709ZM54.3019 25.9373L54.3002 25.9378L54.3019 25.9373Z" fill="#231F20"/>
<path d="M24.0074 59.7187C25.7318 59.2656 27.3145 58.3486 28.2891 57.3741C29.1068 56.5565 29.1958 55.1419 29.0004 53.9752C29.1598 54.1704 29.2902 54.3256 29.3971 54.4257C30.6614 55.611 33.252 55.8328 35.1576 55.4394C36.8701 55.085 38.0785 54.2833 38.558 53.1807C39.2067 51.6884 37.2955 47.2705 36.2629 46.3025C36.049 46.1018 35.7311 45.9692 35.3962 45.8816C36.7352 45.1737 37.5806 44.1312 37.779 42.9411C38.173 40.5775 36.991 38.668 34.451 37.5638C32.675 36.7916 31.766 37.7113 31.1023 38.3832C30.7102 38.78 30.3692 39.1247 29.9117 39.164C29.6462 38.9709 29.1203 37.9233 28.8333 37.3514C28.4163 36.5207 28.147 36.0001 27.8776 35.7702C26.2873 34.415 24.1186 34.7702 22.3758 35.0554C22.2414 35.0775 22.1086 35.0992 21.9785 35.1198C20.2154 35.3958 19.0214 37.4143 18.9226 39.1238C18.8812 39.8426 19.0289 40.4656 19.3385 40.9489C18.5725 40.9532 17.7968 40.9714 17.0279 41.033C13.9921 41.2747 11.6302 44.3223 11.1832 47.0057C10.7787 49.4317 13.8242 51.6577 15.5447 52.3104C16.0306 52.4949 16.6288 52.3908 17.2078 52.1709C16.3217 53.9778 16.2752 55.6483 17.0597 57.2518C17.7786 58.7208 19.0446 59.6449 20.7208 59.9245C21.7951 60.1036 22.9292 60.002 24.0074 59.7187ZM27.924 52.011C27.8063 52.0419 27.7048 52.1101 27.6337 52.2097C27.4128 52.5197 27.5965 52.8583 27.8093 53.2502C27.8781 53.3769 27.9721 53.55 27.9916 53.623C28.272 54.6709 28.2828 56.0896 27.6437 56.7286C26.2208 58.1515 23.363 59.4396 20.8702 59.0243C19.4774 58.792 18.4712 58.0606 17.879 56.8505C17.0929 55.244 17.3036 53.5958 18.5422 51.6637C18.652 51.4924 18.9945 51.1893 19.245 50.992C19.2789 50.9661 19.3078 50.9438 19.3313 50.9255C19.5284 50.7711 19.5642 50.4867 19.4117 50.2882C19.2593 50.0895 18.9747 50.0515 18.7753 50.2018C18.7562 50.2162 18.7251 50.2399 18.6852 50.2711C17.8353 50.916 16.4538 51.679 15.8679 51.4568C14.3484 50.8802 11.784 48.9498 12.0831 47.1554C12.4755 44.8001 14.5863 42.1438 17.1005 41.9423C18.1988 41.8543 19.3299 41.8578 20.4239 41.8612C20.4448 41.8612 20.4662 41.8614 20.4873 41.8615C20.5532 41.8857 20.6212 41.9075 20.6906 41.927C20.6906 41.927 20.6908 41.9269 20.691 41.9271C20.9229 41.9915 21.2949 41.8847 21.4414 41.7116C21.5565 41.5759 21.5841 41.3799 21.5093 41.2186C21.4321 41.0526 21.2661 40.9496 21.0759 40.9499C20.9407 40.95 20.8053 40.9497 20.6699 40.9494C19.8824 40.5752 19.8036 39.6977 19.8337 39.1759C19.9107 37.8421 20.8668 36.2182 22.1207 36.0207C22.2527 35.9998 22.387 35.9779 22.5233 35.9555C24.1611 35.6875 26.0175 35.3836 27.2857 36.4645C27.4292 36.588 27.7694 37.2656 28.0177 37.7604C28.7463 39.2118 29.2262 40.1005 29.8864 40.0791C30.7362 40.0514 31.2759 39.5059 31.7519 39.024C32.4093 38.3584 32.8843 37.8772 34.0872 38.4003C35.5862 39.0518 37.2872 40.3424 36.8792 42.7904C36.6736 44.0228 35.57 44.7632 34.9305 45.0948C34.5139 45.3105 33.7173 45.7506 33.6837 45.7693C33.5011 45.8703 33.4102 46.0823 33.463 46.2841C33.5159 46.4861 33.699 46.6265 33.9078 46.6251C34.4544 46.6213 35.3831 46.7276 35.6391 46.9678C36.5938 47.8629 38.1352 51.8645 37.7215 52.8161C37.3689 53.6269 36.3676 54.2577 34.9734 54.5451C33.0514 54.9421 30.9227 54.6044 30.0215 53.7595C29.9398 53.6828 29.7761 53.482 29.618 53.2876C29.0033 52.5331 28.6001 52.07 28.1837 52.0007C28.0922 51.986 28.0044 51.9899 27.924 52.011ZM21.0754 41.8631C21.0758 41.8632 21.0762 41.8631 21.0768 41.8631C21.076 41.8631 21.0757 41.8632 21.0754 41.8631ZM20.8129 41.488L20.8111 41.4885L20.8129 41.488Z" fill="#231F20"/>
<path d="M46.5312 30.293C47.2893 30.094 48.1636 29.5082 49.2154 28.5044C50.1034 27.657 49.7869 25.4266 49.2783 24.1135C49.1539 23.7922 49.016 23.5057 48.8663 23.2563C50.155 22.7598 51.1457 21.7109 51.432 20.4445C51.7494 19.0395 51.1199 17.741 49.7049 16.8819C48.108 15.9121 46.7214 15.4264 45.4663 15.397C45.1643 15.3905 44.9064 15.5552 44.6764 15.8153C44.5099 14.6732 43.9435 13.6702 43.0114 12.903C41.4744 11.6378 39.101 11.1919 37.3658 11.8406C36.2815 12.247 35.5906 13.0336 35.4202 14.0555C35.234 15.1707 35.6744 16.6595 36.1794 17.9007C35.3627 17.6864 34.05 17.4021 32.886 17.8604C32.1207 18.1617 31.5052 18.828 31.1525 19.7367C30.7599 20.748 30.7721 21.8992 31.1839 22.7412C32.344 25.1116 34.1549 25.2237 35.959 25.1776C35.9167 25.288 35.8691 25.3997 35.84 25.468C35.7592 25.6577 35.7196 25.7532 35.7033 25.85C35.6648 26.0818 35.6193 26.3029 35.575 26.5166C35.4422 27.1605 35.317 27.7685 35.3955 28.5444C35.5304 29.8732 36.0041 30.8852 36.7653 31.4716C37.4054 31.9651 38.2122 32.1391 39.1629 31.9889C40.3738 31.7993 42.8647 30.4212 43.1289 28.8369C43.2146 28.323 43.1696 27.8577 43.0762 27.4641C43.2681 27.7292 43.4454 28.0442 43.6271 28.3665C44.1103 29.2247 44.6582 30.1974 45.6854 30.3503C45.9517 30.3899 46.2324 30.3715 46.5312 30.293ZM47.9361 23.5071C48.1134 23.751 48.2826 24.0696 48.4274 24.4432C48.9928 25.9036 48.9765 27.4709 48.5853 27.8443C47.3734 29.0009 46.4429 29.5409 45.82 29.4476C45.2347 29.3605 44.8401 28.6602 44.4226 27.9186C43.9264 27.0376 43.364 26.0389 42.2884 25.8597C42.0954 25.8278 41.9146 25.8974 41.8035 26.0456C41.6133 26.2998 41.7388 26.5599 41.8603 26.8114C42.0375 27.1778 42.3671 27.8598 42.2292 28.6868C42.065 29.6709 40.0804 30.9205 39.0209 31.0876C38.3278 31.197 37.7564 31.0831 37.3227 30.7488C36.6183 30.2062 36.3799 29.2003 36.304 28.4524C36.2396 27.8157 36.346 27.2992 36.4694 26.7008C36.514 26.4841 36.5603 26.2601 36.601 26.0178C36.6137 25.9807 36.6517 25.8918 36.68 25.8257C36.8834 25.3486 37.0938 24.8553 36.8518 24.5014C36.7388 24.3365 36.5527 24.246 36.3417 24.2531C34.2034 24.3221 32.9474 24.2671 32.0044 22.3399C31.7007 21.7193 31.7004 20.8483 32.0037 20.067C32.2633 19.3985 32.6956 18.9163 33.221 18.7094C34.2194 18.3167 35.4399 18.6454 36.169 18.8423C36.7003 18.9857 37.0206 19.0726 37.2557 18.7961C37.385 18.6432 37.4089 18.4346 37.3193 18.2377C36.5303 16.5063 36.1759 15.0744 36.3207 14.2058C36.4676 13.3252 37.1445 12.8984 37.6863 12.6953C39.1124 12.1598 41.1517 12.5537 42.4316 13.6075C43.2085 14.247 44.0673 15.4098 43.7491 17.3183C43.6757 17.7582 43.9094 17.9019 44.0553 17.9487C44.4498 18.0747 44.6178 17.7302 44.7664 17.426C45.1629 16.6135 45.3696 16.3679 45.475 16.3102C46.5585 16.3429 47.7878 16.7852 49.2313 17.6621C50.3052 18.3141 50.7708 19.2307 50.5418 20.2435C50.3071 21.2829 49.3922 22.1578 48.2553 22.4991C47.9389 22.2218 47.5929 22.0728 47.2293 22.0645C47.2191 22.0644 46.5182 22.074 46.2314 22.4045C46.1203 22.5324 46.0735 22.6928 46.0995 22.8558C46.1595 23.2356 46.4808 23.6634 47.6703 23.542C47.7594 23.5328 47.8482 23.5211 47.9361 23.5071ZM36.604 25.9998C36.6038 26.0006 36.6037 26.0016 36.6036 26.0026C36.6037 26.0016 36.6038 26.0006 36.604 25.9998ZM36.4884 18.6157C36.4884 18.6159 36.4884 18.6159 36.4885 18.616C36.4885 18.616 36.4885 18.616 36.4885 18.6162C36.4885 18.616 36.4884 18.6159 36.4884 18.6157ZM36.9036 18.427L36.9018 18.4274L36.9036 18.427Z" fill="#231F20"/>
<path d="M47.6745 49.0056C47.7148 48.995 47.7536 48.979 47.79 48.9575C47.9018 48.8917 47.9801 48.7817 48.0058 48.6547C48.0216 48.5761 48.3879 46.7134 47.7555 45.2245C47.7129 45.124 47.6372 44.8955 47.5495 44.6308C46.9398 42.7898 46.5231 41.8143 45.9372 41.5919C45.3342 41.3633 44.8991 41.5469 44.6403 41.7411C43.4373 42.6443 43.5952 45.6124 43.5977 45.6418C43.7719 47.8161 47.2712 48.9517 47.4203 48.999C47.5037 49.0256 47.5919 49.0273 47.6745 49.0056ZM45.31 42.4099C45.3824 42.3908 45.4779 42.3937 45.6139 42.4451C45.9312 42.6458 46.4973 44.3558 46.6835 44.9175C46.7852 45.2247 46.8585 45.4464 46.916 45.5813C47.2547 46.3791 47.238 47.3505 47.1834 47.9401C46.1715 47.5254 44.5948 46.6552 44.508 45.5691C44.4418 44.741 44.6219 42.8967 45.1889 42.4709C45.2218 42.4461 45.2604 42.4229 45.31 42.4099Z" fill="#231F20"/>
</svg>
