<svg width="78" height="74" viewBox="0 0 78 74" fill="none" xmlns="http://www.w3.org/2000/svg">
<path d="M60.3547 5.95957C61.01 5.17092 61.7685 4.43422 62.7069 4.02076C63.6452 3.6073 64.7929 3.56295 65.6599 4.11035C66.5393 4.66546 66.985 5.71442 67.166 6.73857C67.4709 8.4643 67.0366 10.4754 65.5726 11.4384C67.0796 11.5029 68.6643 11.5904 69.9406 12.3945C71.2168 13.1987 72.0104 14.9803 71.2219 16.2662C70.3064 17.7594 68.1305 17.6222 66.409 17.299C67.9568 18.637 68.6776 20.8621 68.2086 22.8536C68.1171 23.242 67.9738 23.637 67.6814 23.9086C67.2759 24.2854 66.6752 24.3473 66.1217 24.3492C64.7918 24.3539 63.4148 24.1035 62.3295 23.335C61.2442 22.5663 60.5183 21.1983 60.7854 19.8955C59.08 20.3787 57.3023 20.606 55.5301 20.5671C54.2009 20.538 52.7427 20.2911 51.8879 19.2729C51.1908 18.4422 51.069 17.1751 51.5955 16.2271C52.122 15.2791 53.2617 14.7123 54.3353 14.8648C53.7813 13.6367 52.1526 13.3094 51.3123 12.2564C50.3483 11.0482 50.6809 9.29751 51.0621 7.79973C51.3269 6.75885 51.691 5.59138 52.6592 5.12624C53.6839 4.63397 54.9124 5.17614 55.7919 5.89624C56.3652 6.3657 57.3922 8.2164 58.005 8.35313C58.982 8.5711 59.8488 6.5683 60.3547 5.95957Z" fill="#F68F8D"/>
<path d="M46.3915 10.4298C47.8706 11.8556 47.6581 14.6279 45.9789 15.8114C47.4905 15.0153 49.5906 15.4407 50.5343 16.8647C51.478 18.2888 50.9369 20.5232 49.3757 21.2171C47.9941 21.831 46.3833 21.2176 45.0884 20.4371C46.3206 21.6789 45.9014 23.755 45.2526 25.3794C45.002 26.0069 44.7173 26.6439 44.2271 27.1091C43.7371 27.5743 42.9912 27.8313 42.3678 27.5702C41.733 27.3044 41.4081 26.6126 41.1393 25.979C40.7016 24.9466 40.2575 23.8884 40.1939 22.7689C39.549 24.5532 36.8612 25.1421 35.5293 23.7911C34.1973 22.4399 34.8248 19.7608 36.6181 19.1416C35.6992 18.8574 34.7615 18.5642 33.9839 17.9981C33.2062 17.432 32.6035 16.5337 32.6479 15.5728C32.8437 11.349 38.1832 14.2225 39.9707 12.6043C40.9537 11.7146 41.1295 10.4413 42.4826 9.84426C43.7449 9.28758 45.3777 9.45239 46.3915 10.4298Z" fill="#F68F8D"/>
<path d="M53.7825 31.6255C54.6028 31.3782 55.4969 31.2484 56.3098 31.5193C57.2854 31.8445 58.0318 32.7706 58.1424 33.793C58.2529 34.8153 57.7217 35.8796 56.8382 36.4058C58.7035 35.9586 60.8203 36.2395 62.2698 37.4957C63.7195 38.7518 64.2665 41.0779 63.2136 42.6811C62.1607 44.2844 59.4577 44.5693 58.3213 43.0241C59.0121 44.5847 59.6647 46.23 59.5931 47.9353C59.5216 49.6404 58.534 51.4217 56.8945 51.8959C55.5294 52.2906 54.0718 51.7173 52.86 50.975C51.8001 50.3259 50.795 49.5029 50.2429 48.3893C49.6909 47.2758 49.6873 45.824 50.4939 44.8783C48.611 46.5212 45.9404 47.2171 43.4951 46.7019C43.1434 46.6278 42.7822 46.5225 42.5179 46.2788C42.2843 46.0632 42.1513 45.7616 42.0407 45.4636C41.5002 44.0068 41.4138 42.1999 42.4687 41.0591C43.1375 40.3359 44.1268 40.0246 45.0597 39.7088C45.2839 39.6329 45.5209 39.5457 45.6636 39.3566C45.9935 38.9188 45.5995 38.2885 45.1358 37.9961C44.672 37.7036 44.0935 37.5146 43.8298 37.0339C43.5971 36.6098 43.686 36.0884 43.7933 35.6169C44.1427 34.0802 45.0123 32.2624 46.5884 32.2717C47.4657 32.2771 47.9962 32.8432 48.5593 33.4221C49.4251 34.3123 48.9692 34.3953 49.9976 33.8579C51.3384 33.1571 52.2418 32.0898 53.7825 31.6255Z" fill="#F68F8D"/>
<path d="M51.0269 50.7662C51.5348 51.2016 51.8123 51.8616 51.8929 52.5257C51.9838 53.2759 51.765 54.1563 51.0877 54.4914C51.8262 53.9275 52.733 53.5868 53.6601 53.5252C54.091 53.4966 54.5354 53.5292 54.9309 53.703C55.912 54.1338 56.3506 55.4238 55.9694 56.4253C55.5882 57.4268 54.5316 58.0825 53.4619 58.1454C52.3921 58.2083 51.3365 57.7439 50.529 57.0393C50.4836 57.7203 50.4348 58.4164 50.168 59.0446C49.9011 59.673 49.3708 60.232 48.6974 60.3437C47.9148 60.4733 47.1187 59.9413 46.7924 59.2182C46.466 58.4951 46.5492 57.6378 46.8538 56.9054C46.096 56.8822 45.3384 57.0638 44.5835 56.9928C43.8287 56.9216 43.0184 56.4908 42.8643 55.7485C42.7185 55.046 43.238 54.3423 43.8858 54.0342C44.5335 53.7262 45.2785 53.7202 45.9958 53.7201C45.4103 53.353 44.8124 52.9747 44.3864 52.4306C43.9603 51.8865 43.7327 51.1342 43.9852 50.4908C44.3407 49.5852 45.5279 49.2443 46.4579 49.5299C47.2549 49.7746 47.7607 50.5264 48.5783 50.6024C49.5393 50.6919 50.0869 49.9605 51.0269 50.7662Z" fill="#F68F8D"/>
<path d="M26.7238 43.6814C27.8189 43.9202 28.6297 44.9392 28.8617 46.0356C29.0937 47.1321 28.8295 48.2812 28.3818 49.3086C29.2271 48.6809 30.4125 48.6344 31.393 49.0179C32.3735 49.4014 33.1668 50.1633 33.7773 51.021C34.4071 51.9056 34.8704 53.0933 34.3672 54.0557C33.8963 54.9561 32.7468 55.2891 31.7334 55.2138C30.72 55.1385 29.7548 54.7532 28.7494 54.6055C29.9441 55.7468 30.6612 57.3734 30.6976 59.0252C30.7116 59.6584 30.618 60.3237 30.2453 60.8359C29.6576 61.6432 28.5462 61.8601 27.5477 61.8436C26.2343 61.8218 24.8574 61.4647 23.9434 60.5213C23.0294 59.5779 22.7574 57.9497 23.5989 56.941C22.2412 58.0804 20.5826 58.8582 18.8383 59.1734C17.2982 59.4517 15.3148 59.1013 14.8508 57.6065C14.3903 56.1228 15.769 54.7447 17.0547 53.8725C17.8013 53.366 18.6428 52.8684 19.5407 52.955C18.6266 52.5681 17.5987 52.5807 16.63 52.3643C15.6613 52.1479 14.6437 51.5719 14.4326 50.602C14.2631 49.8226 14.6859 49.0101 15.2945 48.4944C15.903 47.9787 16.6723 47.7009 17.4235 47.4332C18.4297 47.0746 19.3972 46.783 20.4682 46.7317C21.1589 46.6985 21.8817 46.9194 22.51 46.5346C24.0558 45.587 24.2763 43.1478 26.7238 43.6814Z" fill="#F68F8D"/>
<path d="M25.4619 37.7338C25.3321 38.7685 24.9463 39.8334 24.1186 40.4677C23.2908 41.1018 21.9489 41.1234 21.3015 40.3058C21.6555 41.017 21.5265 41.8761 21.2547 42.6226C20.8693 43.6811 20.1517 44.6868 19.1005 45.0915C18.0492 45.4962 16.6584 45.0962 16.2328 44.0533C15.8472 43.1083 16.3214 42.0517 16.7863 41.143C16.2324 42.5155 14.7133 43.4551 13.2461 43.2602C11.7789 43.0654 10.5365 41.6988 10.5564 40.2189C10.5763 38.739 11.9235 37.3823 13.4029 37.4235C12.3622 37.6895 11.1609 37.3901 10.4681 36.5693C9.77526 35.7484 9.7153 34.4155 10.4321 33.6154C11.1174 32.8504 12.2679 32.7145 13.2891 32.8238C14.6178 32.9659 15.8557 33.518 16.5933 34.6631C16.7888 33.7499 16.6067 31.5352 18.0673 31.4473C18.9058 31.3968 19.2392 32.3182 19.5919 32.9316C21.037 35.4444 22.6595 36.7966 25.4619 37.7338Z" fill="#F68F8D"/>
<path d="M10.606 15.4686C16.0703 11.7478 22.9477 9.17568 29.27 11.1075C23.6343 13.4411 17.9351 15.6216 12.1811 17.6461C16.1176 19.1195 20.0541 20.5929 23.9906 22.0663C25.5803 22.6614 27.1976 23.2715 28.5354 24.3162C29.7014 25.2268 30.6058 26.4304 31.7276 27.3951C35.033 30.2379 39.9423 30.6562 44.0947 29.3273C48.2469 27.9984 51.7494 25.1583 54.8001 22.0436C54.7315 23.7879 54.2707 25.5156 53.4618 27.0626C58.3002 25.983 63.5651 26.9739 67.6798 29.7387C59.2139 30.434 50.7479 31.1291 42.282 31.8244C41.2176 31.9117 39.815 32.3759 39.9237 33.4382C39.9979 34.1643 40.771 34.5607 41.3458 35.0107C42.2776 35.7404 42.8426 36.9167 42.8298 38.1001C37.25 36.0277 31.9022 33.3312 26.9182 30.0775C27.3344 32.7737 28.4036 35.3666 30.009 37.5724C31.4214 39.513 33.231 41.1461 34.5729 43.1362C35.6948 44.8 36.4747 46.6918 37.7463 48.244C39.6541 50.5729 42.5929 52.0477 43.9661 54.7268C44.7118 56.1818 44.9117 57.9086 44.5181 59.4955C44.4599 59.7297 44.3713 59.9842 44.1589 60.0987C43.9968 60.1862 43.7996 60.1699 43.6189 60.134C42.3915 59.8906 41.4673 58.9074 40.6314 57.9762C36.8651 53.7807 33.0987 49.5853 29.3324 45.3898C28.5094 44.4732 27.6755 43.5403 27.1407 42.4305C26.3349 40.7584 26.2691 38.8134 25.5278 37.1117C24.9087 35.6907 23.8297 34.4642 23.4778 32.9546C23.0418 31.0822 23.7861 29.0081 23.0152 27.2469C22.0253 24.9854 19.1558 24.3994 16.7152 24.0287C7.82731 22.6786 -0.895152 20.2422 -9.19619 16.7912C-9.86359 16.5138 -10.5554 16.2099 -11.0137 15.651C-12.0426 14.396 -11.4597 12.5071 -10.66 11.095C-9.89004 9.7356 -9.43865 6.97881 -7.77818 7.43635C-5.73164 8.00018 -3.65466 9.4704 -1.59523 10.1969C0.560106 10.9572 2.75151 11.6167 4.87955 12.4531C5.46182 12.6818 10.5558 15.5028 10.606 15.4686Z" fill="#4E3B31"/>
<path d="M17.0343 12.4504C17.5773 11.8805 18.0121 11.2079 18.3089 10.4789C18.7244 9.45835 19.6002 6.58562 18.8002 5.73185C17.8775 6.50283 17.2905 7.76652 17.0011 8.91936C16.8737 9.42784 17.1482 12.331 17.0343 12.4504Z" fill="#BED665"/>
<path d="M26.9342 22.2424C26.7035 22.485 26.4897 22.7971 26.5416 23.128C26.5699 23.3086 26.6741 23.4665 26.7563 23.63C27.0106 24.1368 27.058 24.7212 27.2506 25.2547C27.6144 26.2623 28.53 27.0506 29.5806 27.2604C28.9588 27.1361 30.8238 21.9744 30.6776 21.5451C30.169 20.0532 27.6429 21.497 26.9342 22.2424Z" fill="#BED665"/>
<path d="M36.7521 40.5507C38.2666 40.3936 39.7975 34.8399 37.0464 35.6004C35.1091 36.136 34.0672 40.8293 36.7521 40.5507Z" fill="#BED665"/>
<path d="M17.3 45.9815C16.4698 45.6788 15.8994 45.1554 15.68 44.4874C15.5639 44.1345 15.6172 43.6577 15.7378 43.1909C14.0742 43.7997 11.5751 44.0949 10.5861 42.8214C9.85578 41.881 10.2827 40.0009 11.1174 38.7266C11.3934 38.3053 11.697 37.9773 12.0132 37.7515C11.3844 37.3145 10.8235 36.8161 10.713 36.5891C10.0869 35.302 11.2893 33.6073 12.3922 33.0062C13.1886 32.5724 14.7942 32.174 15.7115 32.6928C16.0851 32.9045 16.2832 33.4122 16.4579 33.8601C16.4846 33.9285 16.5167 34.011 16.5491 34.0889C16.7347 33.7642 16.7928 33.4002 16.8534 33.0196C16.994 32.1378 17.1532 31.1383 18.8691 30.664C19.5076 30.4876 19.9926 30.5344 20.3511 30.8069C20.977 31.2821 20.9788 32.2642 20.981 33.3039C20.9829 34.257 20.9848 35.2426 21.469 35.6537C22.0727 36.1663 22.7952 36.4534 23.494 36.731C24.7233 37.2191 25.9944 37.7241 25.6929 39.454C25.2962 41.7303 23.2606 41.6395 22.167 41.5908C21.9389 41.5807 21.6418 41.5673 21.4873 41.5882C21.5369 41.6717 21.6327 41.7911 21.6967 41.8706C21.9173 42.1452 22.1673 42.4566 22.1527 42.84C22.1043 44.1005 21.267 45.6626 19.9496 46.0952C19.2912 46.3115 18.3832 46.3028 17.5797 46.0724C17.4832 46.0448 17.3901 46.0144 17.3 45.9815ZM16.6691 42.7686C16.4587 43.325 16.306 43.9669 16.3994 44.2511C16.6187 44.9185 17.3637 45.222 17.7879 45.3443C18.4433 45.5323 19.1988 45.5446 19.7128 45.3757C20.7039 45.0502 21.3579 43.791 21.3956 42.811C21.3994 42.7102 21.2227 42.4901 21.1057 42.3446C20.8663 42.0464 20.4657 41.5476 20.8663 41.0844C21.1242 40.7862 21.5756 40.8063 22.2003 40.8342C23.5962 40.8966 24.6847 40.8248 24.9463 39.3241C25.1336 38.2484 24.5162 37.9521 23.2139 37.4349C22.4935 37.1487 21.6768 36.8244 20.9782 36.2312C20.2274 35.5939 20.2252 34.3782 20.2231 33.3056C20.2214 32.4958 20.2198 31.6588 19.8925 31.4101C19.7364 31.2913 19.4598 31.2865 19.0703 31.394C17.8239 31.7387 17.7303 32.3261 17.6008 33.1388C17.5152 33.6769 17.4179 34.2866 16.9492 34.8287C16.7542 35.0544 16.5437 35.0569 16.4357 35.0383C16.0794 34.9769 15.9352 34.6056 15.7519 34.1357C15.649 33.8721 15.4768 33.4309 15.3376 33.3519C14.7306 33.0064 13.4241 33.3063 12.7541 33.6714C11.9399 34.1153 10.9888 35.426 11.3934 36.2578C11.5234 36.4674 12.2469 37.018 12.8585 37.3988C13.04 37.3755 13.2214 37.386 13.4002 37.4315C13.8087 37.51 14.0335 37.6212 14.1472 37.8007C14.2165 37.9099 14.2372 38.0379 14.2058 38.1611C14.1518 38.3739 13.9764 38.5206 13.748 38.5439C13.5124 38.5683 13.143 38.4265 12.7424 38.2075C12.4153 38.336 12.0667 38.6592 11.7506 39.1419C11.017 40.2619 10.7467 41.7944 11.1838 42.3572C11.8486 43.2132 13.9846 43.0693 15.5823 42.4458C15.7683 42.3732 15.9308 42.3007 16.0724 42.23C16.1789 41.9841 16.2821 41.7836 16.3547 41.6646C16.5572 41.3334 16.8714 40.9446 17.219 40.9715C17.3931 40.9854 17.5398 41.0944 17.6103 41.2642C17.73 41.5518 17.7699 42.1279 16.6939 42.7544C16.686 42.7589 16.6776 42.7638 16.6691 42.7686Z" fill="#231F20"/>
<path d="M61.1332 12.1128C61.0167 12.0703 60.9231 11.9723 60.892 11.8468C60.8204 11.5581 61.0121 11.4342 61.4753 11.135C61.6159 11.044 61.9657 10.8227 62.1771 10.7302C62.5273 10.5767 62.6967 10.7599 62.7532 10.8453C62.9494 11.1426 62.6764 11.3985 62.5134 11.5516C62.2999 11.7518 61.8572 12.0939 61.291 12.1351C61.2362 12.1389 61.1826 12.1308 61.1332 12.1128ZM62.2543 11.2754L62.2557 11.2759L62.2543 11.2754Z" fill="#231F20"/>
<path d="M58.5067 16.9186C58.3443 16.8594 58.2385 16.6942 58.2609 16.5155C58.2795 16.3672 58.2896 16.2684 58.2969 16.1977C58.3197 15.9754 58.33 15.9357 58.4215 15.7246C58.4466 15.6664 58.4805 15.5886 58.5262 15.4778C58.6062 15.2846 58.8232 15.1927 59.0209 15.2722C59.2141 15.352 59.3062 15.5734 59.2264 15.7668C59.1784 15.8831 59.1431 15.9647 59.1166 16.0257C59.0634 16.1485 59.0634 16.1485 59.0505 16.2744C59.0428 16.3489 59.0322 16.4533 59.0125 16.6099C58.9865 16.8174 58.7971 16.9645 58.5895 16.9383C58.5605 16.935 58.5329 16.9281 58.5067 16.9186Z" fill="#231F20"/>
<path d="M54.8148 39.545C54.7188 39.51 54.6371 39.4365 54.5948 39.3345C54.5145 39.1414 54.6059 38.9197 54.799 38.8395L55.0979 38.7152C55.2307 38.6602 55.3829 38.6849 55.4911 38.7786L55.6632 38.9275L56.0292 39.0782C56.2226 39.1579 56.3147 39.3792 56.235 39.5726C56.1551 39.766 55.9311 39.855 55.7405 39.7786L55.3175 39.6043C55.2797 39.5888 55.2447 39.5673 55.2139 39.5404L55.1721 39.5044L55.0893 39.5387C54.9985 39.5767 54.9008 39.5764 54.8148 39.545Z" fill="#231F20"/>
<path d="M16.8601 12.7646C16.5103 12.6371 16.2928 12.137 16.071 11.5502C16.0464 11.4851 16.028 11.434 16.0153 11.4071C14.9776 9.40065 15.8063 8.1946 17.0902 6.71003C17.2922 6.47643 17.8142 6.0535 18.2352 5.73559C19.2126 4.99797 19.334 5.0211 19.4878 5.05061C19.6201 5.07596 19.7403 5.17846 19.7847 5.3064C19.8665 5.54194 19.7026 5.73128 19.6147 5.83304C19.2652 6.23727 19.1685 7.39364 19.0748 8.51175C18.9112 10.4634 18.7262 12.6751 17.0819 12.7944C17.0022 12.8002 16.9285 12.7896 16.8601 12.7646ZM18.5673 6.4355C18.1806 6.73271 17.7964 7.05125 17.6631 7.20532C16.3716 8.69868 15.8893 9.51483 16.6898 11.063C16.7135 11.1086 16.7356 11.1663 16.7795 11.2823C16.9255 11.6688 17.0402 11.9184 17.1208 12.0267C18.0356 11.8468 18.1864 10.0446 18.32 8.44868C18.3829 7.69852 18.4408 7.0051 18.5673 6.4355Z" fill="#231F20"/>
<path d="M52.8815 36.9162C52.7459 36.8668 52.6448 36.7414 52.6335 36.5878L52.6038 36.1795C52.5966 36.0794 52.6294 35.9802 52.695 35.9042L53.3574 35.1384C53.3958 35.0939 53.444 35.059 53.4985 35.0364L54.0962 34.788C54.2897 34.7075 54.5109 34.7991 54.5912 34.9922C54.6715 35.1853 54.58 35.407 54.387 35.4871L53.872 35.7013L53.3707 36.2809L53.3892 36.5327C53.4043 36.7414 53.2476 36.9227 53.039 36.938C52.9835 36.942 52.9302 36.934 52.8815 36.9162Z" fill="#231F20"/>
<path d="M16.4535 59.7693C16.3905 59.7463 16.3285 59.7213 16.2682 59.6945C15.5394 59.37 14.7164 58.6196 14.9341 56.8874C15.0608 55.8799 16.0942 54.3589 17.1981 53.5254C16.7128 53.3395 16.3553 53.1685 16.3469 53.1634C15.1589 52.3999 15.0791 49.7517 15.3712 48.6052C15.5365 47.9568 16.073 47.3888 16.9227 46.9626C18.1979 46.3227 19.9008 46.1511 20.8801 46.5502C21.0631 46.6258 21.3346 46.8337 21.7986 47.1947C22.0963 47.4264 22.5779 47.8011 22.775 47.9C23.2308 47.7381 23.5552 47.0034 23.8692 46.2916C24.1677 45.6155 24.4764 44.9163 24.9689 44.534C26.1884 43.5867 27.1443 43.8465 27.7321 44.2309C29.2108 45.1996 29.8021 47.851 29.5221 49.3034C29.7459 49.395 30.2513 49.4929 30.6728 49.5754C32.4004 49.913 35.0117 50.4235 35.1636 52.5206C35.3121 54.568 33.909 56.3054 31.5896 56.9467C31.2796 57.0325 30.8787 57.0683 30.4739 57.0203C30.7667 57.5932 30.9171 58.198 30.9109 58.8065C30.8988 59.9782 30.3173 61.0748 29.2292 61.9777C28.5569 62.5355 27.6463 62.7495 26.6652 62.58C25.4359 62.3675 24.2228 61.5729 23.6459 60.6023C23.4346 60.2463 22.952 59.3495 22.8362 58.4096C21.0958 59.5422 18.2433 60.422 16.4535 59.7693ZM18.1184 53.8315C17.088 54.3459 15.8023 56.0518 15.6854 56.982C15.5554 58.0167 15.8467 58.6777 16.5763 59.0026C18.4154 59.8257 22.204 58.3356 23.354 57.0058C23.6112 56.7085 23.8496 56.852 23.9161 56.9029C24.0226 56.9841 24.1687 57.1688 23.9508 57.4948C23.6234 57.984 23.5787 58.1465 23.5746 58.1936C23.6168 58.7645 23.8869 59.5252 24.2971 60.2159C24.7598 60.9945 25.7867 61.6598 26.794 61.8341C27.3311 61.9267 28.1059 61.926 28.7455 61.3951C29.657 60.6387 30.144 59.7411 30.1535 58.799C30.1619 57.9717 29.7996 57.1404 29.1232 56.4145C29.0762 56.3742 29.0266 56.3306 28.9746 56.2839C28.6187 55.9636 28.523 55.8776 28.5349 55.6758C28.5432 55.5318 28.6327 55.4049 28.7656 55.3487C28.9856 55.2555 29.1458 55.3937 29.2138 55.4528C29.3675 55.5858 29.5114 55.7231 29.6453 55.8643C29.753 55.9558 29.8552 56.0364 29.9188 56.0724C30.3474 56.3159 30.9823 56.3291 31.3877 56.2171C32.9443 55.7866 34.5552 54.6038 34.4082 52.5757C34.2979 51.0557 32.029 50.6122 30.5275 50.3187C29.5164 50.1212 29.0218 50.0119 28.819 49.6918C28.7399 49.5665 28.7162 49.4189 28.7526 49.2759C28.7526 49.2759 28.7526 49.2759 28.7526 49.2758C29.0763 48.0044 28.4258 45.5909 27.3169 44.8645C26.7546 44.4962 26.1388 44.5842 25.4332 45.1322C25.0918 45.3972 24.8223 46.0075 24.5619 46.5976C24.1553 47.5187 23.7347 48.4709 22.8653 48.6602C22.5651 48.7257 22.2447 48.5016 21.3333 47.7926C21.0636 47.5829 20.6942 47.2953 20.5905 47.2502C19.815 46.9307 18.3249 47.1062 17.262 47.6393C16.6234 47.9597 16.2125 48.369 16.1046 48.7921C15.8314 49.8655 16.0226 52.055 16.7558 52.5262C16.9324 52.6285 17.5156 52.8549 18.0817 53.0275C18.1769 52.994 18.271 52.9683 18.3631 52.9513C18.4325 52.9384 18.5158 52.9167 18.6047 52.8941C19.0048 52.7919 19.4189 52.6867 19.7108 52.8969C19.8456 52.9941 19.9267 53.1431 19.9392 53.317C19.9567 53.5576 19.8508 53.7647 19.6484 53.885C19.3248 54.0777 18.7213 53.9964 18.1184 53.8315ZM29.4871 49.4619C29.487 49.4622 29.4869 49.4625 29.4868 49.4627L29.4869 49.4626C29.4869 49.4625 29.487 49.4622 29.4871 49.4619Z" fill="#231F20"/>
<path d="M59.6952 15.3583C59.5195 15.2943 59.3465 15.1907 59.182 15.0485C58.8674 14.7763 58.7815 14.4094 58.9525 14.0673C59.2854 13.4017 60.7094 12.8742 61.0462 12.9474C61.3419 13.0115 61.5468 13.2476 61.5945 13.5789C61.6716 14.1123 61.3235 14.944 60.7009 15.2846C60.3821 15.4591 60.0333 15.4816 59.6952 15.3583ZM59.6234 14.4214C59.6268 14.4226 59.6401 14.4436 59.6774 14.4757C60.0428 14.7918 60.2824 14.6746 60.4301 14.5587C60.7339 14.3207 60.8642 13.8917 60.8502 13.7109C60.4669 13.8021 59.6671 14.209 59.6231 14.4213C59.6232 14.4213 59.6234 14.4214 59.6234 14.4214ZM60.9658 13.3174L60.9672 13.3179L60.9658 13.3174Z" fill="#231F20"/>
<path d="M55.3014 21.7741C54.9216 21.6357 54.4962 21.4166 54.0147 21.0949C53.9047 21.0216 53.7834 20.9466 53.6573 20.8682C53.0589 20.4973 52.3143 20.0356 52.0151 19.3169C51.3263 17.6602 52.0151 15.6931 53.6171 14.7411C53.7303 14.6741 53.8946 14.6316 54.1994 14.5561C54.2554 14.5422 54.3286 14.5242 54.4066 14.5038C54.3114 14.4549 54.2559 14.422 54.2108 14.383L54.1236 14.3077C52.9743 13.3159 50.8351 11.4698 51.6543 9.70544C51.9942 8.97314 54.5609 5.51608 55.9481 5.61279C57.0479 5.68934 58.3414 7.05438 58.708 7.5265C58.8769 7.74383 58.9564 8.07836 59.0307 8.40598C59.2468 8.09026 59.434 7.74483 59.6286 7.38548C60.1958 6.33849 60.839 5.15169 62.3983 4.63963C64.4614 3.96225 65.4925 4.94726 65.924 5.59489C66.9927 7.19946 66.7089 10.0188 65.3168 11.6287C65.1827 11.7839 65.1565 11.8677 65.1515 11.892C65.3176 12.1189 66.5615 12.2525 67.308 12.3324C69.1572 12.5309 71.2532 12.7558 71.3581 14.2039C71.4758 15.8291 69.8151 17.3046 69.0957 17.8634C68.8951 18.0192 68.5637 18.0331 67.8929 18.0475C67.7043 18.0517 67.4424 18.0574 67.2295 18.0733C67.314 18.146 67.4061 18.2196 67.4775 18.2766C67.7586 18.5011 68.0492 18.7333 68.1882 19.0022C68.9729 20.5193 68.1203 23.0037 66.8717 23.9734C64.6313 25.7134 61.4757 23.5342 59.794 22.0801C59.1908 21.5584 59.2373 21.1683 59.361 20.7125C59.399 20.572 59.4384 20.4268 59.4511 20.2444C59.4535 20.2095 59.4591 20.175 59.467 20.1405C59.0153 20.3094 58.6643 20.6285 58.2984 20.9608C57.5883 21.6072 56.8023 22.3214 55.3014 21.7741ZM54.6911 13.7975C54.7253 13.8174 54.812 13.8605 54.8765 13.8926C55.336 14.1211 55.6683 14.2861 55.5765 14.6483C55.4866 15.0013 55.0638 15.1228 54.3812 15.2914C54.2387 15.3267 54.0439 15.375 53.9926 15.3985C52.7446 16.1406 52.1782 17.7367 52.7143 19.0263C52.9199 19.5205 53.5235 19.8946 54.0561 20.2247C54.1902 20.3078 54.3186 20.3875 54.4352 20.4654C56.3279 21.7287 56.941 21.1722 57.7892 20.4013C58.3368 19.9037 58.9574 19.3394 59.9611 19.2667C60.128 19.2545 60.2787 19.325 60.3647 19.455C60.5168 19.6846 60.3922 19.9273 60.2923 20.1224C60.2639 20.1779 60.217 20.2693 60.206 20.3084C60.1873 20.5598 60.1345 20.7545 60.092 20.9114C60.0092 21.2172 59.9984 21.2564 60.2895 21.508C61.5022 22.5565 64.5256 24.8375 66.4072 23.3761C67.4009 22.6043 68.1169 20.5138 67.5155 19.351C67.4504 19.2253 67.2034 19.0279 67.0048 18.8692C66.6713 18.6028 66.3564 18.3511 66.2686 18.0327C66.2288 17.8889 66.2567 17.7382 66.345 17.6195C66.5581 17.3331 67.0166 17.3101 67.8765 17.2914C68.1404 17.2856 68.5327 17.2772 68.6595 17.2442C69.1757 16.8388 70.6949 15.5312 70.6028 14.2598C70.5433 13.442 68.6266 13.2367 67.2271 13.0863C65.7593 12.9288 64.6987 12.8151 64.4429 12.1656C64.32 11.8541 64.4214 11.5071 64.7438 11.134L65.0302 11.3818L64.7438 11.134C65.8933 9.80474 66.1605 7.31726 65.2935 6.01566C64.7468 5.19494 63.8273 4.96794 62.6345 5.35986C61.3613 5.77809 60.843 6.73445 60.2943 7.74722C60.0078 8.27588 59.7115 8.82224 59.3015 9.29666C59.106 9.52283 58.89 9.49839 58.8062 9.47736C58.4784 9.39651 58.3989 9.04651 58.2989 8.60455C58.2546 8.40958 58.1807 8.08293 58.1098 7.99177C57.6168 7.35732 56.5445 6.41506 55.8953 6.36888C55.1577 6.31755 52.7868 9.06453 52.3412 10.0249C51.7626 11.2706 53.6913 12.9351 54.6183 13.7349L54.6911 13.7975ZM60.2068 20.2972C60.2067 20.2978 60.2067 20.2983 60.2067 20.2989C60.2068 20.2982 60.2067 20.2978 60.2068 20.2972ZM54.7033 13.8079L54.7059 13.8104C54.705 13.8095 54.7043 13.8088 54.7033 13.8079ZM65.1504 11.8998L65.1518 11.9003L65.1504 11.8998Z" fill="#231F20"/>
<path d="M55.3065 42.0736C55.2103 42.0385 55.1286 41.965 55.0864 41.8629L54.9966 41.647L53.97 40.7591C53.8119 40.6223 53.7946 40.3832 53.9313 40.2249C54.0682 40.0667 54.3073 40.0495 54.4655 40.1863L55.5601 41.1328C55.6044 41.1713 55.6394 41.2196 55.6619 41.2741L55.7859 41.5726C55.8662 41.7656 55.7744 41.9872 55.5814 42.0674C55.4901 42.1054 55.3924 42.1049 55.3065 42.0736Z" fill="#231F20"/>
<path d="M60.0485 12.7045C60.0064 12.6892 59.9664 12.666 59.9307 12.6351L59.7117 12.4458C59.6159 12.3629 59.5679 12.2376 59.5836 12.1119L59.6488 11.5946C59.6582 11.5206 59.6892 11.451 59.738 11.3945L60.0219 11.0661C60.1587 10.9077 60.3984 10.891 60.556 11.0273C60.7143 11.164 60.7316 11.4031 60.5948 11.5614L60.3859 11.8031L60.3604 12.0057L60.4259 12.0623C60.5842 12.199 60.6014 12.4383 60.4647 12.5964C60.359 12.7187 60.1919 12.7568 60.0485 12.7045Z" fill="#231F20"/>
<path d="M54.0697 37.7531C54.0276 37.7377 53.9875 37.7145 53.9516 37.6834L53.7329 37.494C53.5748 37.3573 53.5576 37.1181 53.6944 36.96L53.8836 36.7412C53.9372 36.6792 54.0094 36.6363 54.0896 36.6188L54.7631 36.4724L55.3291 36.2371C55.5225 36.1566 55.7437 36.2483 55.824 36.4413C55.9044 36.6344 55.8129 36.8561 55.6198 36.9363L55.0223 37.1847C55.0014 37.1935 54.9797 37.2003 54.9575 37.2051L54.5633 37.2909C54.598 37.4101 54.5734 37.544 54.486 37.6448C54.3801 37.7672 54.213 37.8053 54.0697 37.7531Z" fill="#231F20"/>
<path d="M62.6686 16.3094C62.5726 16.2744 62.4909 16.2009 62.4486 16.0989L62.3586 15.8827L62.0349 15.6027L61.669 15.4519C61.4758 15.372 61.3837 15.1506 61.4634 14.9572C61.5431 14.7638 61.7572 14.6705 61.958 14.7516L62.3808 14.9261C62.4185 14.9418 62.4533 14.963 62.484 14.9897L62.9218 15.3681C62.9661 15.4066 63.0011 15.4548 63.0236 15.5093L63.1478 15.808C63.2281 16.0011 63.1366 16.2228 62.9436 16.303C62.8522 16.3413 62.7547 16.3408 62.6686 16.3094Z" fill="#231F20"/>
<path d="M50.8402 37.0638C50.744 37.0287 50.6624 36.9551 50.6201 36.8531L50.4962 36.5545C50.4709 36.4938 50.462 36.4276 50.4702 36.3622L50.535 35.8447C50.5443 35.7706 50.5753 35.7006 50.6244 35.6441L50.8138 35.4253C50.9505 35.2672 51.1901 35.2498 51.3479 35.387C51.506 35.5238 51.5232 35.763 51.3863 35.9211L51.2722 36.053L51.234 36.3571L51.3195 36.5631C51.3998 36.7563 51.308 36.9779 51.115 37.058C51.0237 37.0956 50.9262 37.0952 50.8402 37.0638Z" fill="#231F20"/>
<path d="M48.9519 42.1242C48.8409 42.0837 48.7502 41.992 48.7165 41.8692C48.6607 41.6677 48.7788 41.4591 48.9805 41.4035C49.1343 41.3609 49.2252 41.3297 49.2913 41.3071C49.5075 41.2329 49.587 41.2314 49.8234 41.2972C49.866 41.3091 49.9199 41.324 49.9911 41.3422C50.1957 41.3941 50.3164 41.6001 50.2645 41.8026C50.2128 42.0053 50.0068 42.1278 49.8041 42.076C49.7261 42.0562 49.667 42.0396 49.6206 42.0267C49.6001 42.021 49.5833 42.0161 49.5688 42.0121C49.5595 42.0153 49.549 42.019 49.5369 42.0232C49.4657 42.0477 49.3582 42.0844 49.1823 42.1329C49.1034 42.1553 49.0233 42.1503 48.9519 42.1242Z" fill="#231F20"/>
<path d="M49.4892 61.1133C49.4065 61.0832 49.3235 61.0452 49.2406 60.9991C48.5169 60.5973 47.9003 59.6354 47.7996 59.0234C47.7308 58.6064 47.6988 58.2274 47.7025 57.87C47.232 58.0412 46.6836 58.2069 46.1463 58.2721C44.6566 58.4528 44.0394 57.7584 43.7839 57.1439C43.3969 56.2134 43.7852 55.0619 44.9379 53.7204C44.53 53.3167 44.1896 52.8256 44.1559 52.6213C43.9176 51.1724 43.7292 50.0278 45.7859 49.5299C46.8532 49.2717 47.701 49.297 48.3051 49.6016C48.6295 49.7654 48.7774 50.1581 48.8962 50.5323C48.9057 50.5083 48.9151 50.4843 48.9244 50.4602C49.0321 50.184 49.1541 49.8709 49.4885 49.7281C49.7623 49.611 50.0906 49.6443 50.5529 49.8348C51.2697 50.1305 52.2938 50.894 51.8396 52.7924C52.3295 52.7147 52.9241 52.8259 53.5326 53.1335C54.5964 53.6715 55.4853 54.7494 55.0725 55.9448C54.8931 56.4644 54.6172 56.8054 54.2527 56.9588C53.682 57.1986 53.0769 56.9131 52.6343 56.7038C52.8247 57.2589 52.8656 57.4208 52.8567 57.5483C52.7774 58.6897 51.5708 60.6218 50.3979 61.1097C50.1138 61.2274 49.8038 61.2281 49.4892 61.1133ZM48.4616 57.786C48.4512 58.1253 48.4791 58.49 48.5469 58.9001C48.6087 59.2757 49.0816 60.0445 49.6082 60.3369C49.8979 60.4975 50.0549 60.4316 50.107 60.4101C50.9267 60.0691 52.0133 58.4893 52.0989 57.5232C52.0738 57.3971 51.9332 56.9926 51.8561 56.7707C51.6717 56.2401 51.6384 56.1444 51.7907 55.9692C52.0995 55.6121 52.5535 55.8276 52.9543 56.0171C53.2859 56.1742 53.6989 56.3699 53.9591 56.2602C54.1166 56.194 54.2503 56.0046 54.3563 55.6971C54.6202 54.9334 53.9608 54.1984 53.1905 53.8089C52.4781 53.4493 51.7644 53.435 51.529 53.7764C51.3126 54.0904 51.0767 54.0099 50.986 53.9607C50.7849 53.8522 50.74 53.6564 50.8527 53.3789C51.453 51.9004 51.2548 50.9433 50.2638 50.5345C49.8945 50.3816 49.7902 50.4223 49.7859 50.4241C49.7439 50.442 49.6725 50.6254 49.6297 50.7349C49.546 50.9499 49.4416 51.2177 49.231 51.4612C49.0483 51.6726 48.8498 51.6682 48.7477 51.6469C48.4304 51.5814 48.327 51.253 48.2093 50.8741C48.1555 50.7008 48.0436 50.3399 47.9561 50.273C47.5295 50.0575 46.8384 50.0542 45.9636 50.2658C44.5995 50.596 44.6619 51.0328 44.8981 52.4687C44.9778 52.636 45.2941 53.0132 45.5758 53.281C45.814 53.1683 46.0786 53.1026 46.2888 53.2134C46.3718 53.2567 46.634 53.432 46.5228 53.8683C46.4471 54.1656 46.2223 54.3426 45.9363 54.3302C45.8134 54.3249 45.6762 54.274 45.5333 54.193C45.5288 54.1965 45.5247 54.2001 45.5208 54.2033C44.5629 55.3145 44.2136 56.2059 44.4828 56.8529C44.6286 57.2034 44.9504 57.654 46.0548 57.52C46.8387 57.4248 47.6959 57.0683 48.2079 56.8553C48.4323 56.7624 48.6107 56.8577 48.6956 56.9675C48.8843 57.2118 48.7068 57.4456 48.6008 57.5856C48.5633 57.6355 48.4884 57.7341 48.4616 57.786ZM48.4628 57.7517C48.4628 57.7518 48.4629 57.752 48.4628 57.7522C48.4629 57.752 48.4628 57.7518 48.4628 57.7517ZM45.5313 54.1917C45.5307 54.1926 45.53 54.1933 45.5293 54.1942C45.53 54.1933 45.5308 54.1924 45.5313 54.1917Z" fill="#231F20"/>
<path d="M51.8143 40.981C50.8303 40.6221 50.5453 39.6953 50.7747 38.9562C50.9996 38.2321 51.7531 37.5942 52.8763 37.9047C53.3866 38.0453 53.7323 38.3993 53.8511 38.901C53.9972 39.5165 53.7594 40.254 53.273 40.6942C52.8709 41.058 52.3519 41.1672 51.8492 40.9935C51.8374 40.9892 51.8258 40.9852 51.8143 40.981ZM52.6746 38.6347C51.99 38.4455 51.6128 38.8106 51.4979 39.1808C51.3737 39.5811 51.5078 40.0728 52.0963 40.2774C52.3405 40.3617 52.5653 40.313 52.7647 40.1326C53.0464 39.8775 53.1966 39.4232 53.1142 39.0757C53.0596 38.8455 52.9154 38.7004 52.6746 38.6347Z" fill="#231F20"/>
<path d="M43.453 59.1998C43.056 59.055 42.44 58.6878 41.4162 57.9917C41.3623 57.9551 41.3255 57.9299 41.3108 57.9205C39.0352 56.532 37.0478 54.6707 35.2393 52.8665C31.4468 49.082 27.2202 44.6102 25.0634 39.4246C24.2695 37.516 24.0017 35.4982 23.7428 33.5468C23.3727 30.7583 23.0232 28.1246 21.2512 25.8433C19.9032 24.1077 15.472 23.0226 13.0912 22.4397C12.7875 22.3654 12.5086 22.2971 12.2624 22.2344C10.7403 21.8468 9.1529 21.4955 7.4723 21.1237C2.47471 20.0178 -2.69338 18.8746 -6.89536 16.6096C-7.13143 16.4824 -7.51911 16.3292 -7.96788 16.1517C-9.64267 15.4898 -11.936 14.5832 -12.0528 12.9712C-12.1055 12.2447 -11.6035 11.0504 -10.9918 9.67895C-10.8084 9.26749 -10.6499 8.9124 -10.5901 8.72413C-10.5741 8.67417 -10.5261 8.4916 -10.4751 8.29834C-9.91753 6.18181 -9.84017 6.05589 -9.49043 6.04737C-9.07905 6.03697 -8.64961 6.16004 -8.2831 6.39334C-6.38644 7.59804 -4.54728 8.47722 -2.60036 9.40794C-1.77637 9.80195 -0.924199 10.2093 -0.0570809 10.6477C0.749231 11.0553 1.5283 11.4893 2.28166 11.909C4.19868 12.977 6.00909 13.9863 8.14899 14.5306C8.93983 14.7321 10.6414 14.0501 11.7672 13.5988C12.2419 13.4085 12.6518 13.2442 12.9713 13.1455C15.6692 12.3135 18.6895 11.7982 22.4771 11.5235C22.6594 11.5104 22.8451 11.4962 23.0339 11.4818C24.3835 11.3796 25.9131 11.2638 27.2476 11.3879C27.3304 11.3956 28.0613 11.475 28.2277 11.8881C28.2943 12.0536 28.2619 12.2361 28.1407 12.3762C27.6233 12.9749 26.092 13.1812 24.5681 13.3411C24.3634 13.3626 24.1927 13.3804 24.0739 13.3971C21.6468 13.7365 12.6587 15.9037 11.6601 17.0587C11.6311 17.0924 11.5981 17.1382 11.6072 17.1641C11.6325 17.2369 11.8566 17.6278 13.7764 18.1624C14.9979 18.5031 16.4229 18.7717 17.4632 18.9678C17.9919 19.0676 18.4095 19.1463 18.6414 19.2054C20.9353 19.7893 23.0554 21.628 25.1077 23.4065C26.4551 24.5741 27.728 25.6771 28.9969 26.3962C35.3748 30.0112 41.8666 30.6247 47.7686 28.1701C48.5771 27.8339 49.9582 26.4818 51.2937 25.1743C53.3793 23.1324 54.7028 21.8842 55.5934 21.9462C55.7257 21.9556 55.8549 22.0402 55.9156 22.1573C56.0438 22.4048 55.9548 22.552 55.3745 23.5097C54.9819 24.1573 53.791 26.1232 53.9386 26.5475C53.9392 26.5484 53.9399 26.5493 53.9407 26.5502C54.0223 26.5179 54.1349 26.4777 54.2862 26.4498C57.5332 25.8487 60.194 25.9802 62.9135 26.8761C63.7419 27.1488 65.3017 27.7551 66.4555 28.753C66.5049 28.7957 66.5885 28.8549 66.6768 28.9174C67.0182 29.1588 67.3409 29.3867 67.3272 29.7284C67.3206 29.8959 67.2276 30.0448 67.0723 30.137C66.9169 30.2294 66.914 30.2311 64.0121 29.9509C62.0596 29.7622 59.3858 29.5038 58.8599 29.5419C57.0807 29.671 55.4472 30.0886 53.7181 30.5311C52.6824 30.7959 51.6113 31.0697 50.5146 31.2727C49.5054 31.4596 48.4569 31.6085 47.3468 31.7663C44.8024 32.1278 42.175 32.501 39.9622 33.3626C40.3905 34.2001 42.2485 36.6819 42.6361 37.0342C42.6476 37.0406 42.6606 37.0467 42.6733 37.053C42.7798 37.1071 42.9583 37.1973 43.0008 37.4126C43.0256 37.5383 42.9907 37.6675 42.905 37.767C42.604 38.1144 42.1155 37.9856 39.6486 36.5073C39.5019 36.4193 39.3966 36.356 39.3539 36.333C36.32 34.6979 33.098 32.9183 29.9879 30.7295L29.8663 30.6426C29.505 30.3835 28.4055 29.5948 27.8993 29.7189C27.8434 29.7327 27.7788 29.7615 27.7228 29.872C26.9548 31.3917 28.2046 34.2015 29.6305 36.3243C30.8939 38.2048 31.9817 40.1615 33.0335 42.054C34.9183 45.445 36.6987 48.6477 39.4078 51.4575C40.6121 52.7069 41.5256 54.181 42.4092 55.6065C42.8536 56.3235 43.313 57.065 43.7954 57.7511L43.8327 57.8024C44.0638 58.119 44.4942 58.7085 44.1447 59.1126C44.0025 59.2766 43.8226 59.3345 43.453 59.1998ZM17.9622 23.0467C19.5966 23.6428 21.0906 24.402 21.8492 25.3787C23.7471 27.8219 24.1265 30.6816 24.4935 33.4471C24.7461 35.3497 25.007 37.3173 25.7626 39.1337C27.8659 44.1909 32.0333 48.5973 35.7741 52.3302C37.5494 54.1015 39.4968 55.9266 41.7074 57.2753C41.7222 57.2842 41.7697 57.3162 41.8418 57.3653C42.4867 57.8038 42.9231 58.0751 43.2172 58.243L43.1757 58.1855C42.681 57.4819 42.2156 56.7307 41.7654 56.0045C40.9029 54.6127 40.0109 53.1735 38.8624 51.9822C36.0848 49.1011 34.1971 45.7051 32.3714 42.421C31.3271 40.5422 30.2474 38.5997 29.0019 36.7456C28.252 35.6291 25.8947 31.8092 27.0469 29.5295C27.1913 29.2438 27.4237 29.0548 27.7191 28.9825C28.4613 28.8006 29.402 29.3769 30.3078 30.0263L30.4239 30.1093C33.4998 32.2742 36.6996 34.041 39.7133 35.6655C39.7603 35.6909 39.8764 35.7601 40.0379 35.8567C40.5388 36.1569 40.9433 36.3914 41.2696 36.5731C41.0036 36.2304 40.7182 35.849 40.4627 35.4952C39.0578 33.5506 39.1024 33.2731 39.1291 33.1072C39.1532 32.9576 39.2488 32.8343 39.385 32.7777C41.7445 31.7963 44.5385 31.3995 47.2403 31.0157C48.3423 30.8592 49.3832 30.7115 50.3769 30.5275C51.4486 30.3292 52.507 30.0583 53.5304 29.7967C55.2158 29.3658 56.9585 28.9201 58.8052 28.7861C59.3515 28.7466 61.4276 28.9398 64.085 29.1965C64.7855 29.2643 65.4994 29.3332 66.0267 29.3799C66.0032 29.3615 65.9811 29.3436 65.9604 29.3255C65.1904 28.6594 63.9934 28.0286 62.6769 27.5951C60.0847 26.741 57.5395 26.6175 54.4243 27.1941C54.3184 27.2137 54.2484 27.2422 54.1806 27.2699C53.8264 27.414 53.5973 27.3419 53.3345 27.0042C52.8748 26.4119 53.4171 25.2789 54.727 23.1172C54.737 23.1004 54.7474 23.0835 54.7576 23.0666C53.9382 23.6452 52.7585 24.8001 51.8239 25.7152C50.3731 27.1354 49.003 28.4769 48.0596 28.869C41.9339 31.4167 35.2128 30.7892 28.6237 27.0547C27.2894 26.2984 25.9888 25.1715 24.612 23.9785C22.6265 22.2578 20.5734 20.4788 18.4548 19.939C18.246 19.8859 17.8389 19.8092 17.3233 19.7117C13.5072 18.9921 11.2314 18.3854 10.8924 17.4132C10.8343 17.247 10.7826 16.9153 11.0876 16.5627C12.4179 15.0241 22.2753 12.8834 23.9694 12.6465C24.0942 12.629 24.2742 12.61 24.4894 12.5874C25.0636 12.5271 26.3731 12.3896 27.1058 12.135C25.8507 12.0275 24.3862 12.1385 23.0913 12.2365C22.9017 12.2509 22.7151 12.2649 22.5322 12.2782C18.8034 12.5485 15.8363 13.0539 13.1948 13.8685C12.905 13.958 12.5085 14.1169 12.0493 14.3009C10.6875 14.8468 8.99267 15.5263 7.96242 15.2637C5.72756 14.6951 3.87472 13.6624 1.9133 12.5698C1.16655 12.1537 0.394126 11.7235 -0.398385 11.3228C-1.25804 10.8882 -2.10633 10.4826 -2.92678 10.0904C-4.89497 9.14945 -6.75395 8.26095 -8.68888 7.03166C-8.68902 7.0316 -8.68902 7.0316 -8.68902 7.0316C-8.86491 6.91974 -9.06676 6.845 -9.26448 6.81642C-9.40351 7.20297 -9.64296 8.11201 -9.74276 8.49045C-9.81101 8.74964 -9.8476 8.88801 -9.86825 8.95303C-9.94105 9.18138 -10.0994 9.53686 -10.3001 9.98685C-10.6892 10.8594 -11.3406 12.3198 -11.2975 12.9156C-11.215 14.0532 -9.09326 14.8918 -7.68952 15.4467C-7.21833 15.6331 -6.81151 15.7939 -6.53611 15.9423C-2.42664 18.1568 2.68871 19.2891 7.63598 20.3835C9.32252 20.7568 10.9154 21.1092 12.4494 21.4998C12.6935 21.5619 12.9701 21.6298 13.2715 21.7035C14.5868 22.0263 16.3434 22.4564 17.9622 23.0467Z" fill="#231F20"/>
<path d="M57.9064 14.2956C57.8643 14.2802 57.8243 14.2571 57.7884 14.2261L56.585 13.1854C56.509 13.1198 56.4623 13.0265 56.4549 12.9263C56.4476 12.8261 56.4805 12.7271 56.5461 12.6511L56.7354 12.4323C56.8722 12.2741 57.1116 12.2571 57.2696 12.3937C57.4045 12.5104 57.4368 12.7013 57.3588 12.8532L58.284 13.6533C58.4421 13.7901 58.4593 14.0292 58.3226 14.1875C58.2167 14.3098 58.0498 14.3479 57.9064 14.2956Z" fill="#231F20"/>
<path d="M52.2101 43.221C52.114 43.1859 52.0323 43.1124 51.99 43.0106L51.8658 42.712C51.8343 42.6364 51.8281 42.5525 51.8486 42.4731L52.008 41.8463C52.0595 41.6436 52.2656 41.5209 52.4682 41.5725C52.6723 41.6249 52.7935 41.8302 52.7419 42.0327L52.6136 42.5376L52.6894 42.7197C52.7696 42.913 52.6782 43.1345 52.4853 43.2149C52.3939 43.2527 52.2962 43.2524 52.2101 43.221Z" fill="#231F20"/>
<path d="M63.9932 14.7777C63.9511 14.7624 63.9111 14.7393 63.8754 14.7083C63.6687 14.5296 63.5552 14.4165 63.4876 14.3489C63.4688 14.3301 63.4547 14.3153 63.4419 14.3034C63.419 14.297 63.3775 14.2869 63.3374 14.2772C63.292 14.2663 63.2369 14.253 63.1689 14.2356C62.9675 14.1844 62.8437 13.9779 62.8955 13.7752C62.947 13.5727 63.1532 13.4501 63.3559 13.5019C63.4202 13.5182 63.4721 13.5307 63.5149 13.5411C63.7745 13.6034 63.8409 13.6317 64.0225 13.8128C64.0869 13.8771 64.1844 13.9744 64.3705 14.1353C64.5288 14.272 64.546 14.5113 64.4093 14.6694C64.3035 14.7919 64.1366 14.83 63.9932 14.7777Z" fill="#231F20"/>
<path d="M49.5161 38.5959C49.474 38.5805 49.434 38.5574 49.3981 38.5264L49.2146 38.3677L48.7609 38.1384L48.4875 38.0689C48.4306 38.0546 48.3777 38.0267 48.3332 37.9884L48.1145 37.7992C47.9563 37.6623 47.9392 37.4231 48.0759 37.265C48.2128 37.1068 48.4523 37.09 48.6101 37.2264L48.7611 37.357L48.9879 37.4149C49.0147 37.4216 49.0406 37.4314 49.0652 37.4439L49.5976 37.7131C49.6253 37.727 49.6511 37.7443 49.6746 37.7647L49.8934 37.9539C50.0514 38.0907 50.0687 38.3298 49.932 38.4881C49.8264 38.61 49.6595 38.6482 49.5161 38.5959Z" fill="#231F20"/>
<path d="M27.8519 26.4032C27.7046 26.3495 27.564 26.2266 27.4098 26.064C26.9814 25.6124 25.4096 23.5127 25.4759 22.9845C25.7363 20.9141 31.2201 20.8146 31.2748 20.8178C31.4745 20.8295 31.6443 20.9962 31.6455 21.1958C31.6466 21.3598 31.5673 21.561 31.1829 21.5888C30.6504 21.6274 30.3861 22.6067 30.1307 23.5538C29.7791 24.8573 29.3806 26.3347 28.0471 26.4315C27.9796 26.4366 27.9152 26.4263 27.8519 26.4032ZM26.2357 23.0319C26.3886 23.4728 27.6583 25.3256 28.081 25.6653C28.7576 25.5453 29.0568 24.6271 29.3994 23.3568C29.564 22.7469 29.7313 22.1264 29.9959 21.6531C28.5393 21.8191 26.4144 22.2493 26.2357 23.0319ZM31.1555 21.2114L31.1569 21.2119L31.1555 21.2114Z" fill="#231F20"/>
<path d="M53.59 51.4537C52.2001 50.9468 50.9628 50.0674 50.2325 49.1873C49.6197 48.4488 49.6549 47.2731 49.906 46.3242C49.7593 46.4731 49.6396 46.5914 49.5436 46.6658C48.4078 47.5481 46.2501 47.5322 44.7059 47.0606C43.3181 46.636 42.3813 45.8807 42.0698 44.9328C41.6485 43.6499 43.5674 40.1464 44.495 39.4259C44.6872 39.2765 44.9601 39.1915 45.2436 39.1448C44.1916 38.4569 43.5732 37.5305 43.5008 36.5319C43.357 34.5486 44.4804 33.0617 46.6641 32.3446C48.1909 31.8431 48.8713 32.673 49.368 33.2791C49.6615 33.6371 49.9168 33.9482 50.2918 34.0158C50.526 33.8766 51.041 33.0515 51.3222 32.601C51.7306 31.9467 51.9931 31.5372 52.2335 31.368C53.6517 30.3705 55.4163 30.8307 56.8344 31.2003C56.9438 31.2289 57.0518 31.2571 57.1577 31.2841C58.5934 31.6477 59.4248 33.4074 59.3749 34.8275C59.3539 35.4246 59.184 35.928 58.8909 36.3036C59.5236 36.366 60.1631 36.4407 60.7937 36.5507C63.2836 36.9838 65.0009 39.6836 65.1639 41.9352C65.3116 43.9708 62.624 45.576 61.1522 45.9831C60.7365 46.0981 60.2502 45.9661 59.7887 45.7399C60.382 47.301 60.292 48.6849 59.5205 49.9495C58.8136 51.1081 57.6964 51.7743 56.2899 51.8764C55.3885 51.9419 54.4592 51.7707 53.59 51.4537ZM50.9464 44.7839C51.0413 44.8185 51.12 44.8826 51.171 44.9704C51.3297 45.2435 51.1519 45.5092 50.9459 45.8166C50.8794 45.916 50.7884 46.0518 50.7666 46.1106C50.4544 46.9549 50.3364 48.1264 50.8153 48.7035C51.8817 49.9886 54.144 51.2726 56.2356 51.1211C57.4044 51.0363 58.292 50.5094 58.8744 49.5549C59.6474 48.288 59.6 46.9099 58.7251 45.2182C58.6476 45.0682 58.3879 44.7915 58.1961 44.6092C58.17 44.5851 58.1479 44.5645 58.1299 44.5476C57.9789 44.4049 57.9712 44.1671 58.1125 44.0148C58.2537 43.8624 58.4918 43.8528 58.645 43.9924C58.6596 44.0058 58.6835 44.0277 58.7141 44.0566C59.3667 44.6548 60.4496 45.3915 60.9508 45.2529C62.2507 44.8933 64.518 43.4954 64.4088 41.9897C64.2657 40.0134 62.7257 37.6563 60.6638 37.2964C59.7631 37.1393 58.8282 37.0552 57.924 36.9739C57.9067 36.9723 57.889 36.9708 57.8715 36.9693C57.8153 36.9843 57.7574 36.997 57.6985 37.0078C57.6985 37.0078 57.6984 37.0077 57.6982 37.0078C57.5017 37.0432 57.2025 36.9264 57.0948 36.7721C57.0101 36.6511 57.0023 36.4871 57.0766 36.3595C57.1531 36.2283 57.2982 36.1559 57.4553 36.1708C57.5671 36.1813 57.679 36.1914 57.7908 36.2016C58.4703 35.953 58.6029 35.2339 58.6181 34.8005C58.657 33.6925 57.9919 32.2772 56.971 32.0176C56.8635 31.9901 56.7542 31.9617 56.6434 31.9328C55.3107 31.5854 53.8001 31.1916 52.6692 31.9872C52.541 32.0781 52.2079 32.6119 51.9647 33.0017C51.2511 34.1449 50.7862 34.8423 50.2423 34.7739C49.5422 34.6856 49.1383 34.1934 48.782 33.7587C48.29 33.1581 47.9345 32.7241 46.9003 33.0637C45.6117 33.4868 44.1069 34.4224 44.2558 36.4766C44.3309 37.5107 45.1859 38.2073 45.6888 38.5305C46.0165 38.7408 46.6409 39.1657 46.6672 39.1836C46.8103 39.2811 46.8691 39.4633 46.81 39.626C46.7507 39.7889 46.5886 39.8908 46.4163 39.8736C45.9648 39.8284 45.1893 39.8448 44.9594 40.0236C44.1017 40.6898 42.5204 43.8777 42.789 44.6959C43.018 45.3929 43.7969 45.9911 44.9268 46.3358C46.4844 46.8116 48.2693 46.6962 49.0789 46.0673C49.1523 46.0103 49.303 45.8569 49.4486 45.7085C50.0145 45.1323 50.3833 44.7807 50.7327 44.7554C50.8093 44.7503 50.8817 44.7602 50.9464 44.7839ZM57.3855 36.9254C57.3852 36.9254 57.3849 36.9253 57.3844 36.9253C57.385 36.9254 57.3853 36.9255 57.3855 36.9254ZM57.6313 36.6356L57.6327 36.6362L57.6313 36.6356Z" fill="#231F20"/>
<path d="M37.2413 25.4079C36.6302 25.1852 35.9529 24.634 35.161 23.7237C34.4924 22.9552 34.9254 21.1367 35.4466 20.0908C35.5741 19.8348 35.7101 19.6087 35.853 19.4141C34.8263 18.9048 34.0883 17.9619 33.9491 16.8935C33.7949 15.7082 34.4149 14.6836 35.6501 14.0826C37.0442 13.4041 38.2272 13.1093 39.2666 13.1815C39.5166 13.1994 39.717 13.3553 39.8871 13.5879C40.1124 12.657 40.6575 11.8718 41.4867 11.3095C42.854 10.3823 44.8494 10.1963 46.2333 10.8658C47.0979 11.2849 47.6083 11.9879 47.6706 12.8455C47.7387 13.7812 47.2604 14.9775 46.7477 15.9643C47.4389 15.8501 48.5454 15.7161 49.472 16.1842C50.0812 16.492 50.5386 17.0899 50.7601 17.8679C51.0068 18.7336 50.9082 19.6839 50.5032 20.348C49.3624 22.2175 47.8574 22.1708 46.3703 21.994C46.3968 22.0885 46.4275 22.1845 46.4463 22.2431C46.4984 22.4061 46.5238 22.4881 46.5299 22.5693C46.5439 22.7638 46.5645 22.95 46.5846 23.13C46.6448 23.6722 46.7016 24.1842 46.577 24.8193C46.3634 25.9069 45.8942 26.7067 45.2202 27.1327C44.6533 27.4912 43.9733 27.5729 43.1992 27.3758C42.2133 27.126 40.2611 25.7958 40.1646 24.4664C40.1333 24.0352 40.2062 23.6542 40.3137 23.3361C40.1347 23.5404 39.964 23.7871 39.7891 24.0394C39.3238 24.7114 38.7963 25.473 37.9359 25.5203C37.7128 25.5326 37.4822 25.4958 37.2413 25.4079ZM36.6023 19.6929C36.437 19.8807 36.2727 20.131 36.1244 20.4286C35.5449 21.5918 35.4378 22.8881 35.7324 23.2267C36.6448 24.2756 37.3721 24.7933 37.894 24.7641C38.3843 24.7371 38.7642 24.1889 39.1662 23.6082C39.644 22.9184 40.1855 22.1364 41.088 22.071C41.2499 22.0595 41.394 22.1309 41.4743 22.2619C41.612 22.4866 41.4883 22.6918 41.3685 22.8903C41.1939 23.1794 40.8691 23.7176 40.9195 24.4115C40.9795 25.2373 42.5233 26.4224 43.3859 26.6419C43.9502 26.7856 44.4311 26.7354 44.8152 26.4926C45.4389 26.0984 45.7132 25.2856 45.8335 24.6734C45.9356 24.1523 45.8874 23.7173 45.8314 23.2134C45.8112 23.0309 45.7902 22.8422 45.7752 22.6389C45.7676 22.6073 45.743 22.5309 45.7247 22.4741C45.5933 22.0642 45.4574 21.6405 45.6846 21.3667C45.7906 21.2391 45.9513 21.1786 46.1251 21.2007C47.8867 21.4221 48.9287 21.4733 49.8561 19.9533C50.1547 19.4639 50.2219 18.7442 50.0314 18.0753C49.8683 17.503 49.5482 17.0713 49.1299 16.86C48.3352 16.4587 47.3014 16.6365 46.6839 16.7431C46.2338 16.8208 45.9625 16.868 45.7895 16.6214C45.6944 16.4851 45.6907 16.3109 45.7799 16.1552C46.5649 14.7852 46.9679 13.6293 46.9149 12.9004C46.8613 12.1615 46.3348 11.7568 45.9027 11.5473C44.7655 10.9952 43.0502 11.1639 41.9116 11.9362C41.2206 12.4049 40.4216 13.2997 40.5377 14.9011C40.5645 15.2702 40.3604 15.371 40.2362 15.3985C39.9006 15.4723 39.7882 15.1746 39.6888 14.9118C39.4237 14.2101 39.2718 13.9912 39.1891 13.9354C38.2913 13.8792 37.2416 14.1501 35.9815 14.7637C35.044 15.2199 34.5888 15.9414 34.7001 16.7959C34.8142 17.6728 35.5029 18.466 36.416 18.8354C36.6988 18.6306 36.9961 18.5341 37.2972 18.5553C37.3056 18.5559 37.884 18.6177 38.0956 18.9128C38.1776 19.0271 38.2039 19.1632 38.1698 19.2959C38.0911 19.6051 37.7927 19.9339 36.8192 19.7422C36.7463 19.7277 36.6738 19.7112 36.6023 19.6929ZM45.7741 22.6238C45.7742 22.6245 45.7742 22.6253 45.7742 22.6261C45.7742 22.6253 45.7742 22.6245 45.7741 22.6238ZM46.4374 16.5313C46.4373 16.5315 46.4373 16.5315 46.4373 16.5316C46.4373 16.5316 46.4373 16.5316 46.4372 16.5318C46.4373 16.5316 46.4373 16.5315 46.4374 16.5313ZM46.1088 16.3435L46.1102 16.344L46.1088 16.3435Z" fill="#231F20"/>
<path d="M34.8574 40.782C34.825 40.7701 34.7942 40.7539 34.7657 40.7334C34.6784 40.6704 34.6222 40.5735 34.6107 40.4666C34.6037 40.4004 34.4442 38.8331 35.0812 37.6515C35.1242 37.5717 35.2043 37.3887 35.2971 37.1767C35.9424 35.7024 36.3617 34.9285 36.8629 34.7898C37.3788 34.6472 37.7242 34.8323 37.9231 35.0127C38.8477 35.8515 38.489 38.2919 38.4847 38.316C38.1736 40.0992 35.1948 40.7684 35.068 40.796C34.9971 40.8116 34.924 40.8063 34.8574 40.782ZM37.3183 35.5138C37.2599 35.4925 37.1808 35.4875 37.0645 35.5196C36.7869 35.661 36.1877 37.0304 35.9906 37.4803C35.883 37.7262 35.8053 37.9038 35.7474 38.0108C35.4062 38.644 35.3454 39.4479 35.3452 39.9393C36.2132 39.6745 37.5829 39.0766 37.7381 38.1859C37.8565 37.5068 37.8494 35.969 37.4137 35.5736C37.3884 35.5505 37.3583 35.5284 37.3183 35.5138Z" fill="#231F20"/>
</svg>
