<svg width="119" height="153" viewBox="0 0 119 153" fill="none" xmlns="http://www.w3.org/2000/svg">
<path d="M48.3099 111.342L104.849 0.999993" stroke="#B2BD2E" stroke-width="3" stroke-miterlimit="10"/>
<path d="M103.771 63.7712L91.2975 27.4456L53.1598 37.8386" stroke="#B2BD2E" stroke-width="3" stroke-miterlimit="10"/>
<path d="M78.8406 105.685L68.4025 72.1289L30.9653 81.1562" stroke="#B2BD2E" stroke-width="3" stroke-miterlimit="10"/>
<path d="M77.3325 31.2527C77.3325 31.2527 74.3946 57.0666 46.7354 50.3786C19.0762 43.6906 22.6695 43.4199 22.6695 43.4199C22.6695 43.4199 36.3899 33.7227 42.268 27.3102C48.519 20.494 68.7635 10.4786 77.3325 31.2527ZM19.8409 71.0815C13.9604 77.494 0.242409 87.1911 0.242409 87.1911C0.242409 87.1911 -3.35096 87.4619 24.3083 94.1499C51.9675 100.838 54.9054 75.024 54.9054 75.024C46.334 54.2522 26.0919 64.2652 19.8409 71.0815Z" fill="#CFDC31"/>
<path d="M118.572 66.4076C116.803 74.9243 116.945 91.7251 116.945 91.7251C116.945 91.7251 118.824 94.7983 97.2397 76.2543C75.6557 57.7103 94.8908 40.247 94.8908 40.247C116.757 35.0695 120.453 57.3517 118.572 66.4076ZM72.4637 84.0206C72.4637 84.0206 53.2262 101.484 74.8125 120.028C96.3989 138.572 94.5155 135.496 94.5155 135.496C94.5155 135.496 94.373 118.696 96.1424 110.179C98.0258 101.123 94.3279 78.8431 72.4637 84.0206Z" fill="#B2BD2E"/>
<path d="M50.9984 106.099C50.9984 106.099 65.2817 139.453 26.9682 153C15.6608 122.821 37.9644 103.45 50.9984 106.099Z" fill="#CFDC31"/>
</svg>
