<svg width="139" height="199" viewBox="0 0 139 199" fill="none" xmlns="http://www.w3.org/2000/svg">
<path d="M-17.2003 125.358C-17.2003 125.358 -28.0879 159.235 17.7273 169.337C4.20785 155.934 4.29538 144.938 7.96088 144.628C11.6264 144.319 33.7534 170.197 37.4985 169.252C41.2435 168.307 69.288 167.744 60.9291 160.071C52.5701 152.397 13.6279 132.531 24.7896 122.044C35.9512 111.557 59.417 158.714 77.587 151.191C95.7586 143.67 90.9803 138.398 85.5671 134.081C80.1539 129.764 68.8472 120.809 80.7964 120.522C92.7473 120.236 101.907 122.571 104.701 116.841C107.496 111.111 110.69 100.122 110.69 100.122C110.69 100.122 78.6598 105.615 81.8525 96.6974C85.0452 87.7801 110.696 91.8329 112.133 87.6142C113.571 83.394 112.625 70.3215 112.625 70.3215L-17.2003 125.358Z" fill="#DE2A2A"/>
<path d="M-17.4813 125.617C-17.4813 125.617 -49.4789 109.958 -24.9993 69.9936C-24.7032 89.0131 -16.7056 96.5762 -13.942 94.1543C-11.1766 91.7308 -14.5078 57.8703 -11.2278 55.8307C-7.94638 53.7927 11.9046 34.0096 11.6449 45.3419C11.3852 56.6742 -1.28252 98.4651 14.0263 97.7089C29.3352 96.9526 11.5764 47.3736 29.6064 39.5188C47.6365 31.664 48.1267 38.7545 47.4893 45.643C46.8519 52.5314 45.4738 66.875 53.9666 58.477C62.4594 50.079 67.1278 41.8707 73.1995 43.8333C79.2712 45.796 89.4162 51.1186 89.4162 51.1186C89.4162 51.1186 63.2409 70.3523 71.8884 74.2374C80.5359 78.1224 95.4 56.8619 99.4419 58.7539C103.484 60.6459 112.261 70.39 112.261 70.39L-17.4813 125.617Z" fill="#EE5252"/>
</svg>
