<svg width="19" height="25" viewBox="0 0 19 25" fill="none" xmlns="http://www.w3.org/2000/svg">
<path d="M8.32734 24.4382C5.74453 21.2953 0 13.678 0 9.39932C0 4.20816 4.25323 0 9.5 0C14.7448 0 19 4.20816 19 9.39932C19 13.678 13.2109 21.2953 10.6727 24.4382C10.0641 25.1873 8.93594 25.1873 8.32734 24.4382ZM9.5 12.5324C11.2466 12.5324 12.6667 11.1274 12.6667 9.39932C12.6667 7.67122 11.2466 6.26622 9.5 6.26622C7.75339 6.26622 6.33333 7.67122 6.33333 9.39932C6.33333 11.1274 7.75339 12.5324 9.5 12.5324Z" fill="#A5EFFF"/>
</svg>
