<svg aria-hidden="true" style="position: absolute; width: 0; height: 0; overflow: hidden;" version="1.1" xmlns="http://www.w3.org/2000/svg" xmlns:xlink="http://www.w3.org/1999/xlink">
<defs>
<symbol id="icon-summer" viewBox="0 0 30 32">
<path d="M13.054 20.804c0 0-3.889 3.45-7.725 1.78s-5.329-2.29-5.329-2.29c0 0 3.753-2.129 4.903-3.031s8.798 2.076 8.841 1.697c0.043-0.379-8.811-3.469-9.701-4.842s0.213-6.745-0.398-8.709c-0.611-1.964-0.779-2.579-0.779-2.579s2.251 1.515 4.751 1.787c2.5 0.272 5.859 4.496 6.885 13.622 0.657-2.972-1.103-12.631 5.522-15.545 3.107-1.805 2.249-2.525 3.38-2.688s-0.638 3.040-0.022 3.68 4.566 4.336 0.323 8.435c-4.243 4.099-8.586 6.756-8.586 6.756s9.402-4.849 12.406-2.732c3.004 2.117 4.592 6.313 0.422 8.261s-12.019-3.914-12.019-3.914 3.571 4.461 3.102 9.732c0 0-7.826-0.137-5.104-9.259-6.029 9.659-5.835 10.634-5.835 10.634l-0.958-1.354 5.923-9.444z"></path>
</symbol>
<symbol id="icon-autumn" viewBox="0 0 29 32">
<path fill="#5f0707" style="fill: var(--color2, #5f0707)" d="M13.914 22.798c-0.618 2.064-1.062 4.701-1.478 6.447-0.761 3.209-3.513 2.064-4.509 1.208-0.992-0.852 2.043-0.727 3.684-3.115 0.765-1.114 1.013-3.063 1.058-4.82 0.293-0.003 0.472 0.021 0.472 0.021s0.321 0.049 0.772 0.258z"></path>
<path fill="#841919" style="fill: var(--color3, #841919)" d="M26.995 18.028c0 0-2.13 1.027-1.1 3.053-2.518 0.639-0.639 3.3-0.639 3.3s-4.757 0.318-5.465 2.769c-0.817-0.747-2.948-0.852-3.3-0.213-0.513-2.382-1.872-3.384-2.741-3.789-0.451-0.209-0.772-0.258-0.772-0.258s0.168-1.401 0.433-3.507c0.772-6.146 2.367-18.317 3.013-19.316 0.087-0.136 0.157-0.066 0.206 0.248 0.534 3.443 3.835 4.722 3.835 4.722s-0.318 3.122 1.987 4.222c-0.957 2.591-1.027 2.7 2.805 2.878 0 0-2.448 0.814 3.835 2.588-2.626 0.5-2.095 3.304-2.095 3.304z"></path>
<path fill="#de2a2a" style="fill: var(--color4, #de2a2a)" d="M13.77 19.439c-0.374 2.075-0.628 3.451-0.628 3.451s-0.178-0.025-0.472-0.021c-0.943 0.014-3.077 0.328-4.502 2.759-0.136-0.716-2.193-1.278-3.203-0.824 0.087-2.55-4.331-4.334-4.331-4.334s2.616-1.945 0.419-3.335c1.61-1.603-0.094-3.244-0.094-3.244s1.379-2.501-0.96-3.789c6.52 0.269 4.449-1.268 4.449-1.268 3.699 1.023 3.663 0.901 3.559-1.858 2.535-0.328 3.206-3.395 3.206-3.395s3.534-0.189 5.113-3.293c0.125-0.245 0.209-0.311 0.261-0.22 0.444 0.765-1.711 13.184-2.818 19.373z"></path>
</symbol>
<symbol id="icon-spring" viewBox="0 0 29 32">
<path fill="#f68f8d" style="fill: var(--color5, #f68f8d)" d="M6.8 7.563c0.366-2.054 1.411-3.556 3.145-4.716s3.948-1.579 5.986-1.134c1.246 0.272 2.447 0.877 3.272 1.848s1.23 2.336 0.894 3.566c1.951-1.091 4.379-1.289 6.481-0.527 0.581 0.211 1.161 0.51 1.52 1.013 0.321 0.45 0.432 1.013 0.508 1.561 0.176 1.268 0.211 2.555 0.102 3.83-0.043 0.505-0.112 1.020-0.343 1.471-0.671 1.312-2.379 1.611-3.846 1.754 1.49 1.108 3.026 2.267 3.919 3.896s0.955 3.869-0.362 5.178c-0.673 0.669-1.597 1.007-2.49 1.326-0.463 0.166-0.947 0.334-1.436 0.279-0.462-0.051-0.876-0.295-1.275-0.534-1.418-0.848-2.893-1.752-3.741-3.17 0.002 1.833-0.521 3.665-1.492 5.22-0.272 0.436-0.584 0.857-0.984 1.179-0.598 0.481-1.358 0.717-2.116 0.838-2.004 0.32-4.34-0.275-5.343-2.040-0.184-0.325-0.319-0.689-0.307-1.062 0.021-0.65 0.472-1.195 0.9-1.685-1.86 0.462-3.853 0.635-5.675 0.040s-3.436-2.077-3.782-3.963c-0.224-1.218 0.108-2.526 0.884-3.491s1.984-1.568 3.221-1.609c-1.983-1.072-3.271-3.318-3.194-5.571s1.515-4.406 3.567-5.341c0.414-0.188 0.885-0.331 1.318-0.194s0.882 1.636 0.668 2.037z"></path>
<path fill="#f6c11e" style="fill: var(--color6, #f6c11e)" d="M10.438 13.216c-0.396 0.913-0.584 1.914-0.545 2.908 0.019 0.487 0.096 0.985 0.339 1.407 0.238 0.412 0.618 0.722 1.018 0.98 0.663 0.429 1.42 0.743 2.21 0.775 1.612 0.065 3.15-1.182 3.507-2.756 0.495-2.187-0.957-3.372-2.454-4.571-0.653-0.523-0.941-1.065-1.877-0.866-1.070 0.228-1.784 1.17-2.197 2.122z"></path>
<path fill="#231f20" style="fill: var(--color7, #231f20)" d="M14.643 20.165c-0.812 0-1.641-0.242-2.508-0.54-0.224-0.077-0.497-0.105-0.787-0.135-0.415-0.043-0.844-0.088-1.183-0.285-0.472-0.275-0.69-0.945-0.833-1.389-0.446-1.376-0.338-2.765 0.312-4.018 0.602-1.161 1.65-2.136 2.95-2.744 0.622-0.291 1.699 0.034 3.292 0.994 1.313 0.791 2.3 2.275 2.514 3.78 0.161 1.132-0.135 2.172-0.834 2.927-0.973 1.052-1.935 1.41-2.922 1.41zM13.113 11.354c-0.151 0-0.265 0.027-0.349 0.066-2.196 1.027-3.989 3.365-3.048 6.271 0.117 0.361 0.313 0.966 0.652 1.164 0.263 0.153 0.648 0.193 1.021 0.232 0.3 0.031 0.61 0.063 0.877 0.155 1.848 0.633 3.39 0.979 5.002-0.763 0.788-0.852 0.832-1.881 0.731-2.595-0.198-1.389-1.109-2.759-2.322-3.49-1.346-0.811-2.119-1.040-2.563-1.040z"></path>
<path fill="#231f20" style="fill: var(--color7, #231f20)" d="M14.403 31.797c-0.591 0-1.205-0.102-1.828-0.306-1.488-0.488-3.743-2.42-3.809-4.090-0.005-0.117 0.095-0.606 0.394-1.937 0.018-0.079 0.035-0.157 0.049-0.22-0.108-0.020-0.34-0.014-0.822 0.143-0.485 0.159-1.018 0.402-1.406 0.58-0.212 0.097-0.366 0.167-0.454 0.197-1.473 0.498-2.625 0.258-3.85-0.801-1.725-1.491-3.38-4.042-2.369-6.325 0.302-0.683 0.944-1.528 1.597-2.102 0.085-0.075 0.237-0.15 0.477-0.266 0.217-0.105 0.717-0.347 0.783-0.48-0.102-0.237-0.344-0.436-0.6-0.646-0.295-0.242-0.599-0.493-0.756-0.85-0.884-2.009-1.38-5.786 0.285-7.889 0.695-0.878 2.666-1.591 3.692-0.779 0.107 0.085 0.23 0.291 0.456 0.678 0.148 0.254 0.405 0.693 0.558 0.86 0.122-0.23 0.171-0.591 0.219-0.942 0.052-0.375 0.105-0.764 0.252-1.052 1.271-2.489 3.93-5.16 7.005-5.519 1.263-0.147 3.243 0.026 4.369 0.572 1.562 0.756 2.354 3.504 1.882 5.14-0.010 0.035-0.021 0.070-0.032 0.103 0.634-0.138 1.377-0.268 2.102-0.361 1.449-0.186 3.3-0.292 3.89 0.253 1.886 1.744 3.134 5.599 1.982 8.148-0.414 0.915-1.355 1.666-2.071 2.136-0.301 0.197-0.872 0.522-1.299 0.693 0.31 0.327 0.758 0.655 1.226 0.997 0.729 0.533 1.482 1.084 1.93 1.768 0.904 1.381 0.857 3.487-0.115 5.12-0.819 1.378-2.098 2.102-3.508 1.987-0.264-0.022-0.567-0.021-0.888-0.020-0.761 0.002-1.621 0.004-2.26-0.305-0.153-0.074-0.412-0.313-0.82-0.697-0.244-0.23-0.624-0.586-0.825-0.728-0.138 0.396-0.374 1.58-0.509 2.253-0.108 0.542-0.171 0.854-0.207 0.966-0.46 1.457-1.369 2.597-2.56 3.209-0.664 0.341-1.393 0.512-2.159 0.512zM9.104 24.831c0.204 0 0.369 0.049 0.481 0.163 0.079 0.079 0.079 0.079-0.029 0.558-0.104 0.461-0.379 1.687-0.384 1.837 0.058 1.477 2.181 3.274 3.53 3.716 1.327 0.435 2.599 0.372 3.677-0.182 1.094-0.562 1.932-1.617 2.359-2.97 0.031-0.097 0.111-0.499 0.196-0.924 0.499-2.496 0.577-2.606 0.799-2.632 0.202-0.023 0.439 0.169 1.209 0.892 0.274 0.257 0.614 0.577 0.72 0.628 0.554 0.268 1.366 0.266 2.082 0.265 0.329-0.001 0.64-0.002 0.922 0.021 1.25 0.102 2.39-0.55 3.127-1.79 0.895-1.506 0.946-3.435 0.124-4.692-0.407-0.623-1.131-1.151-1.83-1.663-0.641-0.469-1.246-0.911-1.567-1.401-0.067-0.102-0.036-0.202 0.010-0.257 0.102-0.121 0.245-0.058 0.299-0.035 0.012 0.006 0.032 0.014 0.048 0.020 0.363-0.134 0.948-0.454 1.3-0.684 0.671-0.44 1.55-1.137 1.924-1.964 1.066-2.359-0.139-6.067-1.888-7.684-0.368-0.34-1.799-0.389-3.733-0.127-0.844 0.114-1.611 0.262-2.204 0.402-0.275 0.419-0.684 0.621-1.176 0.567-0.103-0.011-0.345-0.038-0.386-0.237-0.025-0.124 0.041-0.232 0.198-0.32 0.192-0.108 0.59-0.236 1.104-0.363 0.048-0.096 0.089-0.205 0.124-0.327 0.426-1.477-0.307-4.004-1.67-4.663-1.046-0.506-2.966-0.671-4.146-0.534-2.926 0.341-5.469 2.908-6.691 5.3-0.116 0.227-0.164 0.58-0.211 0.923-0.063 0.461-0.129 0.937-0.366 1.237-0.060 0.076-0.147 0.115-0.241 0.108-0.254-0.018-0.476-0.353-0.921-1.114-0.127-0.217-0.3-0.513-0.359-0.565-0.81-0.641-2.539-0.022-3.122 0.714-1.561 1.972-1.075 5.558-0.232 7.475 0.118 0.268 0.373 0.478 0.643 0.7 0.289 0.238 0.588 0.484 0.725 0.824 0.168 0.418-0.447 0.716-0.989 0.979-0.151 0.073-0.338 0.164-0.386 0.206-0.613 0.539-1.213 1.327-1.494 1.962-0.921 2.080 0.644 4.454 2.264 5.854 1.117 0.966 2.119 1.176 3.455 0.724 0.068-0.023 0.229-0.097 0.415-0.182 0.893-0.408 1.738-0.767 2.291-0.767z"></path>
</symbol>
<symbol id="icon-winter" viewBox="0 0 32 32">
<path fill="#59cafc" style="fill: var(--color8, #59cafc)" d="M30.772 16.941l-7.922 0.918-4.65-2.64 4.65-2.64 7.922 0.918c0.044 0.005 0.087 0.008 0.13 0.008 0.55 0 1.025-0.405 1.091-0.955 0.071-0.593-0.36-1.13-0.963-1.2l-4.994-0.578 3.111-1.766c0.526-0.299 0.706-0.96 0.402-1.477s-0.976-0.694-1.502-0.396l-3.111 1.766 1.988-4.542c0.24-0.548-0.018-1.184-0.575-1.42s-1.205 0.017-1.445 0.566l-3.153 7.204-4.556 2.586v-5.279l4.769-6.286c0.363-0.479 0.263-1.156-0.224-1.513s-1.176-0.258-1.539 0.22l-3.007 3.963v-3.168c0-0.597-0.492-1.081-1.1-1.081s-1.099 0.484-1.099 1.081v3.169l-3.007-3.963c-0.363-0.479-1.052-0.577-1.539-0.22s-0.587 1.034-0.224 1.513l4.769 6.286v5.387l-4.745-2.694-3.153-7.204c-0.24-0.548-0.887-0.802-1.445-0.566s-0.815 0.872-0.575 1.42l1.988 4.542-2.791-1.584c-0.526-0.298-1.198-0.121-1.502 0.396s-0.123 1.178 0.402 1.477l2.791 1.584-4.994 0.578c-0.603 0.070-1.034 0.607-0.963 1.2 0.066 0.55 0.541 0.955 1.091 0.955 0.043 0 0.086-0.002 0.13-0.008l7.922-0.918 4.65 2.639-4.65 2.64-7.922-0.918c-0.603-0.070-1.15 0.354-1.221 0.947s0.36 1.13 0.963 1.2l4.994 0.578-2.791 1.584c-0.526 0.298-0.706 0.96-0.402 1.476 0.204 0.347 0.573 0.541 0.953 0.541 0.187 0 0.376-0.047 0.549-0.145l2.791-1.584-1.988 4.542c-0.24 0.548 0.018 1.184 0.575 1.42 0.137 0.058 0.285 0.088 0.434 0.088 0.426 0 0.832-0.245 1.011-0.654l3.153-7.204 4.745-2.693v5.279l-4.769 6.286c-0.363 0.479-0.263 1.156 0.224 1.513 0.19 0.139 0.42 0.215 0.657 0.215 0.335 0 0.666-0.15 0.882-0.435l3.007-3.963v3.532c0 0.597 0.492 1.081 1.099 1.081s1.1-0.484 1.1-1.081v-3.532l3.007 3.963c0.363 0.479 1.052 0.577 1.539 0.22s0.587-1.034 0.224-1.513l-4.769-6.286v-5.172l4.556 2.586 3.153 7.204c0.179 0.409 0.584 0.654 1.011 0.654 0.149 0 0.297-0.030 0.434-0.088 0.558-0.236 0.815-0.872 0.575-1.42l-1.988-4.542 3.112 1.766c0.167 0.095 0.356 0.145 0.549 0.145 0.38 0 0.75-0.194 0.953-0.541 0.304-0.517 0.123-1.178-0.402-1.477l-3.111-1.766 4.994-0.579c0.603-0.070 1.034-0.607 0.963-1.2s-0.617-1.017-1.221-0.947z"></path>
</symbol>
<symbol id="icon-burger-menu-btn" viewBox="0 0 41 32">
<path fill="#000749" style="fill: var(--color9, #000749)" d="M38.949 0.194l-37.137 0.206 0.021 3.556 37.137-0.208zM39.025 13.822l-37.137 0.208 0.019 3.556 37.139-0.208zM39.102 27.451l-37.139 0.208c-0.977 0.007-1.766 0.8-1.766 1.778 0 0.003 0 0.007 0 0.010v-0c0.005 0.978 0.799 1.769 1.778 1.769 0.003 0 0.007 0 0.010-0h-0l37.137-0.208c0.978-0.005 1.769-0.799 1.769-1.778 0-0.003 0-0.007-0-0.010v0c-0.005-0.978-0.799-1.769-1.778-1.769-0.003 0-0.007 0-0.010 0h0.001z"></path>
</symbol>
<symbol id="icon-modal-close-btn" viewBox="0 0 32 32">
<path d="M1.455 0c-0.402 0-0.765 0.163-1.028 0.426v0c-0.263 0.263-0.426 0.627-0.426 1.028s0.163 0.765 0.426 1.028l13.517 13.517-13.517 13.517c-0.263 0.263-0.426 0.627-0.426 1.028s0.163 0.765 0.426 1.028v0c0.263 0.263 0.627 0.426 1.028 0.426s0.765-0.163 1.028-0.426l13.517-13.517 13.517 13.517c0.263 0.263 0.627 0.426 1.028 0.426s0.765-0.163 1.028-0.426v0c0.263-0.263 0.426-0.627 0.426-1.028s-0.163-0.765-0.426-1.028l-13.517-13.517 13.517-13.517c0.263-0.263 0.426-0.627 0.426-1.028s-0.163-0.765-0.426-1.028v0c-0.263-0.263-0.627-0.426-1.028-0.426s-0.765 0.163-1.028 0.426l-13.517 13.517-13.517-13.517c-0.263-0.263-0.627-0.426-1.028-0.426v0z"></path>
</symbol>
<symbol id="icon-logo-arrow-down" viewBox="0 0 265 32">
<path d="M264.283 0.96l-134.397 27.257-127.809-27.254-0.39 1.838 128.191 27.335 134.779-27.331z"></path>
</symbol>
<symbol id="icon-btn-arrow-down" viewBox="0 0 100 32">
<path d="M0.975 0.392l-0.847 1.422 50.511 30.047 49.652-30.051-0.858-1.416-48.802 29.536z"></path>
</symbol>
<symbol id="icon-facebook-icon" viewBox="0 0 32 32">
<path d="M0 16.089c0 7.955 5.777 14.569 13.333 15.911v-11.556h-4v-4.444h4v-3.556c0-4 2.577-6.221 6.223-6.221 1.155 0 2.4 0.177 3.555 0.355v4.089h-2.044c-1.956 0-2.4 0.977-2.4 2.223v3.111h4.267l-0.711 4.444h-3.556v11.556c7.556-1.341 13.333-7.955 13.333-15.911 0-8.849-7.2-16.089-16-16.089s-16 7.24-16 16.089z"></path>
</symbol>
<symbol id="icon-vk-icon" viewBox="0 0 32 32">
<path d="M16 0c-8.837 0-16 7.163-16 16s7.163 16 16 16c8.837 0 16-7.163 16-16s-7.163-16-16-16zM22.153 18.052c0 0 1.415 1.397 1.763 2.045 0.010 0.013 0.015 0.027 0.018 0.033 0.142 0.238 0.175 0.423 0.105 0.562-0.117 0.23-0.517 0.343-0.653 0.353h-2.5c-0.173 0-0.537-0.045-0.977-0.348-0.338-0.237-0.672-0.625-0.997-1.003-0.485-0.563-0.905-1.050-1.328-1.050-0.054-0-0.107 0.008-0.158 0.025-0.32 0.103-0.73 0.56-0.73 1.777 0 0.38-0.3 0.598-0.512 0.598h-1.145c-0.39 0-2.422-0.137-4.222-2.035-2.203-2.325-4.187-6.988-4.203-7.032-0.125-0.302 0.133-0.463 0.415-0.463h2.525c0.337 0 0.447 0.205 0.523 0.387 0.090 0.212 0.42 1.053 0.962 2 0.878 1.543 1.417 2.17 1.848 2.17 0.081-0.001 0.16-0.022 0.232-0.060 0.563-0.313 0.458-2.322 0.433-2.738 0-0.078-0.002-0.898-0.29-1.292-0.207-0.285-0.558-0.393-0.772-0.433 0.086-0.119 0.2-0.216 0.332-0.282 0.387-0.193 1.083-0.222 1.775-0.222h0.385c0.75 0.010 0.943 0.058 1.215 0.127 0.55 0.132 0.562 0.487 0.513 1.702-0.015 0.345-0.030 0.735-0.030 1.195 0 0.1-0.005 0.207-0.005 0.32-0.017 0.618-0.037 1.32 0.4 1.608 0.057 0.036 0.123 0.055 0.19 0.055 0.152 0 0.608 0 1.845-2.122 0.381-0.683 0.713-1.393 0.992-2.123 0.025-0.043 0.098-0.177 0.185-0.228 0.064-0.033 0.135-0.049 0.207-0.048h2.968c0.323 0 0.545 0.048 0.587 0.173 0.073 0.198-0.013 0.803-1.368 2.638l-0.605 0.798c-1.228 1.61-1.228 1.692 0.077 2.913z"></path>
</symbol>
<symbol id="icon-instagram-icon" viewBox="0 0 32 32">
<path d="M9.404 0.096c1.706-0.079 2.25-0.096 6.596-0.096s4.89 0.019 6.595 0.096c1.705 0.077 2.868 0.349 3.887 0.743 1.066 0.403 2.033 1.033 2.833 1.847 0.815 0.799 1.443 1.764 1.844 2.832 0.396 1.018 0.666 2.182 0.745 3.884 0.078 1.709 0.096 2.253 0.096 6.598 0 4.346-0.019 4.89-0.096 6.596-0.077 1.702-0.349 2.866-0.745 3.884-0.401 1.068-1.031 2.035-1.844 2.835-0.8 0.815-1.767 1.443-2.833 1.844-1.018 0.396-2.182 0.666-3.884 0.745-1.708 0.078-2.252 0.096-6.598 0.096s-4.89-0.019-6.596-0.096c-1.702-0.077-2.865-0.349-3.884-0.745-1.068-0.401-2.035-1.031-2.835-1.844-0.814-0.799-1.444-1.766-1.846-2.833-0.394-1.018-0.665-2.182-0.743-3.884-0.079-1.709-0.096-2.253-0.096-6.598 0-4.346 0.019-4.89 0.096-6.595s0.349-2.868 0.743-3.887c0.403-1.068 1.033-2.034 1.847-2.833 0.799-0.814 1.765-1.444 2.832-1.846 1.018-0.394 2.182-0.665 3.884-0.743h0.001zM22.465 2.976c-1.687-0.077-2.194-0.093-6.465-0.093s-4.778 0.016-6.465 0.093c-1.561 0.071-2.407 0.332-2.972 0.551-0.746 0.291-1.28 0.636-1.84 1.196-0.531 0.516-0.939 1.145-1.196 1.84-0.22 0.564-0.48 1.411-0.551 2.972-0.077 1.687-0.093 2.193-0.093 6.465s0.016 4.778 0.093 6.466c0.071 1.561 0.332 2.407 0.551 2.972 0.256 0.694 0.665 1.324 1.196 1.84 0.516 0.531 1.146 0.94 1.84 1.196 0.564 0.22 1.411 0.48 2.972 0.551 1.687 0.077 2.192 0.093 6.465 0.093s4.778-0.016 6.465-0.093c1.561-0.071 2.407-0.332 2.972-0.551 0.746-0.291 1.28-0.636 1.84-1.196 0.531-0.516 0.94-1.146 1.196-1.84 0.22-0.564 0.48-1.411 0.551-2.972 0.077-1.687 0.093-2.194 0.093-6.465s-0.016-4.778-0.093-6.465c-0.071-1.561-0.332-2.407-0.551-2.972-0.291-0.746-0.636-1.28-1.196-1.84-0.516-0.531-1.145-0.939-1.84-1.196-0.564-0.22-1.411-0.48-2.972-0.551zM13.956 20.932c1.141 0.475 2.412 0.539 3.596 0.181s2.206-1.115 2.893-2.143c0.687-1.028 0.996-2.262 0.873-3.493s-0.668-2.38-1.543-3.252c-0.558-0.558-1.233-0.985-1.976-1.251s-1.536-0.363-2.321-0.286c-0.785 0.078-1.544 0.328-2.221 0.734s-1.255 0.957-1.694 1.613c-0.438 0.656-0.726 1.401-0.842 2.182s-0.057 1.577 0.172 2.332c0.229 0.755 0.623 1.45 1.152 2.035s1.183 1.045 1.912 1.347zM10.185 10.185c0.764-0.764 1.67-1.369 2.668-1.783s2.067-0.626 3.147-0.626c1.080 0 2.149 0.213 3.147 0.626s1.904 1.019 2.668 1.783c0.764 0.764 1.369 1.67 1.783 2.668s0.626 2.067 0.626 3.147-0.213 2.149-0.626 3.147c-0.413 0.998-1.019 1.904-1.783 2.668-1.542 1.542-3.634 2.409-5.815 2.409s-4.273-0.866-5.815-2.409c-1.542-1.542-2.409-3.634-2.409-5.815s0.866-4.273 2.409-5.815zM26.048 9.001c0.189-0.179 0.341-0.393 0.446-0.631s0.161-0.495 0.164-0.755c0.004-0.26-0.045-0.518-0.142-0.759s-0.243-0.46-0.427-0.644c-0.184-0.184-0.403-0.329-0.644-0.427s-0.499-0.146-0.759-0.142c-0.26 0.004-0.517 0.060-0.755 0.165s-0.453 0.256-0.631 0.446c-0.347 0.368-0.537 0.857-0.53 1.363s0.212 0.989 0.569 1.347 0.841 0.562 1.347 0.569c0.506 0.007 0.995-0.183 1.363-0.53z"></path>
</symbol>
<symbol id="icon-telegram-icon" viewBox="0 0 32 32">
<path d="M32 16c0 8.836-7.164 16-16 16s-16-7.164-16-16c0-8.836 7.164-16 16-16s16 7.164 16 16zM16.573 11.812c-1.556 0.647-4.667 1.987-9.331 4.019-0.757 0.301-1.155 0.596-1.191 0.884-0.061 0.488 0.549 0.68 1.379 0.94 0.113 0.036 0.231 0.072 0.351 0.112 0.817 0.265 1.916 0.576 2.487 0.588 0.519 0.011 1.097-0.203 1.736-0.64 4.357-2.943 6.607-4.429 6.748-4.461 0.1-0.023 0.239-0.052 0.332 0.032 0.093 0.083 0.084 0.24 0.075 0.283-0.061 0.257-2.453 2.483-3.693 3.635-0.387 0.359-0.66 0.613-0.716 0.672-0.125 0.129-0.253 0.253-0.376 0.372-0.76 0.731-1.328 1.28 0.032 2.176 0.653 0.431 1.176 0.787 1.697 1.141 0.569 0.388 1.137 0.775 1.873 1.257 0.187 0.123 0.365 0.249 0.54 0.373 0.663 0.473 1.259 0.897 1.995 0.831 0.427-0.040 0.869-0.441 1.093-1.64 0.529-2.835 1.572-8.973 1.813-11.504 0.015-0.21 0.006-0.421-0.027-0.629-0.019-0.168-0.101-0.323-0.229-0.433-0.191-0.156-0.487-0.189-0.62-0.187-0.601 0.011-1.524 0.332-5.968 2.18z"></path>
</symbol>
<symbol id="icon-phone-tube" viewBox="0 0 32 32">
<path d="M30.604 5.067l-4.26-4.255c-0.52-0.52-1.216-0.812-1.952-0.812s-1.432 0.288-1.952 0.812l-4.588 4.579c-0.52 0.52-0.812 1.22-0.812 1.956 0 0.74 0.288 1.432 0.812 1.956l3.584 3.588c-0.816 1.902-1.99 3.63-3.456 5.091-1.468 1.476-3.184 2.64-5.088 3.464l-3.584-3.588c-0.52-0.52-1.216-0.812-1.952-0.812-0.363-0.001-0.723 0.070-1.058 0.209s-0.639 0.344-0.894 0.603l-4.592 4.579c-0.52 0.52-0.812 1.22-0.812 1.956 0 0.74 0.288 1.432 0.812 1.956l4.256 4.256c0.888 0.888 2.112 1.396 3.368 1.396 0.26 0 0.512-0.020 0.768-0.064 5.296-0.872 10.552-3.692 14.796-7.931 4.24-4.248 7.056-9.503 7.936-14.802 0.252-1.504-0.252-3.052-1.332-4.135zM29.1 8.727c-0.78 4.715-3.316 9.419-7.136 13.238s-8.52 6.355-13.236 7.135c-0.592 0.1-1.2-0.1-1.632-0.528l-4.18-4.18 4.432-4.435 4.828 4.835 0.864-0.32c2.62-0.963 4.999-2.484 6.972-4.458s3.494-4.353 4.456-6.973l0.32-0.864-4.832-4.827 4.432-4.435 4.18 4.179c0.432 0.432 0.632 1.040 0.532 1.632z"></path>
</symbol>
</defs>
</svg>
