<svg aria-hidden="true" style="position: absolute; width: 0; height: 0; overflow: hidden;" version="1.1" xmlns="http://www.w3.org/2000/svg" xmlns:xlink="http://www.w3.org/1999/xlink">
<defs>
<symbol id="icon-degress" viewBox="0 0 32 32">
<path fill="#fff" style="fill: var(--color1, #fff)" d="M16 0c-8.802 0-16 7.198-16 16s7.198 16 16 16c8.802 0 16-7.198 16-16s-7.198-16-16-16zM16 5.818c5.658 0 10.182 4.524 10.182 10.182s-4.524 10.182-10.182 10.182c-5.658 0-10.182-4.524-10.182-10.182s4.524-10.182 10.182-10.182z"></path>
</symbol>
<symbol id="icon-logo-arrow-down" viewBox="0 0 265 32">
<path d="M264.283 0.96l-134.397 27.257-127.809-27.254-0.39 1.838 128.191 27.335 134.779-27.331z"></path>
</symbol>
<symbol id="icon-btn-arrow-down" viewBox="0 0 100 32">
<path d="M0.975 0.392l-0.847 1.422 50.511 30.047 49.652-30.051-0.858-1.416-48.802 29.536z"></path>
</symbol>
<symbol id="icon-facebook-icon" viewBox="0 0 32 32">
<path d="M0 16.089c0 7.955 5.777 14.569 13.333 15.911v-11.556h-4v-4.444h4v-3.556c0-4 2.577-6.221 6.223-6.221 1.155 0 2.4 0.177 3.555 0.355v4.089h-2.044c-1.956 0-2.4 0.977-2.4 2.223v3.111h4.267l-0.711 4.444h-3.556v11.556c7.556-1.341 13.333-7.955 13.333-15.911 0-8.849-7.2-16.089-16-16.089s-16 7.24-16 16.089z"></path>
</symbol>
<symbol id="icon-vk-icon" viewBox="0 0 32 32">
<path d="M16 0c-8.837 0-16 7.163-16 16s7.163 16 16 16c8.837 0 16-7.163 16-16s-7.163-16-16-16zM22.153 18.052c0 0 1.415 1.397 1.763 2.045 0.010 0.013 0.015 0.027 0.018 0.033 0.142 0.238 0.175 0.423 0.105 0.562-0.117 0.23-0.517 0.343-0.653 0.353h-2.5c-0.173 0-0.537-0.045-0.977-0.348-0.338-0.237-0.672-0.625-0.997-1.003-0.485-0.563-0.905-1.050-1.328-1.050-0.054-0-0.107 0.008-0.158 0.025-0.32 0.103-0.73 0.56-0.73 1.777 0 0.38-0.3 0.598-0.512 0.598h-1.145c-0.39 0-2.422-0.137-4.222-2.035-2.203-2.325-4.187-6.988-4.203-7.032-0.125-0.302 0.133-0.463 0.415-0.463h2.525c0.337 0 0.447 0.205 0.523 0.387 0.090 0.212 0.42 1.053 0.962 2 0.878 1.543 1.417 2.17 1.848 2.17 0.081-0.001 0.16-0.022 0.232-0.060 0.563-0.313 0.458-2.322 0.433-2.738 0-0.078-0.002-0.898-0.29-1.292-0.207-0.285-0.558-0.393-0.772-0.433 0.086-0.119 0.2-0.216 0.332-0.282 0.387-0.193 1.083-0.222 1.775-0.222h0.385c0.75 0.010 0.943 0.058 1.215 0.127 0.55 0.132 0.562 0.487 0.513 1.702-0.015 0.345-0.030 0.735-0.030 1.195 0 0.1-0.005 0.207-0.005 0.32-0.017 0.618-0.037 1.32 0.4 1.608 0.057 0.036 0.123 0.055 0.19 0.055 0.152 0 0.608 0 1.845-2.122 0.381-0.683 0.713-1.393 0.992-2.123 0.025-0.043 0.098-0.177 0.185-0.228 0.064-0.033 0.135-0.049 0.207-0.048h2.968c0.323 0 0.545 0.048 0.587 0.173 0.073 0.198-0.013 0.803-1.368 2.638l-0.605 0.798c-1.228 1.61-1.228 1.692 0.077 2.913z"></path>
</symbol>
<symbol id="icon-instagram-icon" viewBox="0 0 32 32">
<path d="M9.404 0.096c1.706-0.079 2.25-0.096 6.596-0.096s4.89 0.019 6.595 0.096c1.705 0.077 2.868 0.349 3.887 0.743 1.066 0.403 2.033 1.033 2.833 1.847 0.815 0.799 1.443 1.764 1.844 2.832 0.396 1.018 0.666 2.182 0.745 3.884 0.078 1.709 0.096 2.253 0.096 6.598 0 4.346-0.019 4.89-0.096 6.596-0.077 1.702-0.349 2.866-0.745 3.884-0.401 1.068-1.031 2.035-1.844 2.835-0.8 0.815-1.767 1.443-2.833 1.844-1.018 0.396-2.182 0.666-3.884 0.745-1.708 0.078-2.252 0.096-6.598 0.096s-4.89-0.019-6.596-0.096c-1.702-0.077-2.865-0.349-3.884-0.745-1.068-0.401-2.035-1.031-2.835-1.844-0.814-0.799-1.444-1.766-1.846-2.833-0.394-1.018-0.665-2.182-0.743-3.884-0.079-1.709-0.096-2.253-0.096-6.598 0-4.346 0.019-4.89 0.096-6.595s0.349-2.868 0.743-3.887c0.403-1.068 1.033-2.034 1.847-2.833 0.799-0.814 1.765-1.444 2.832-1.846 1.018-0.394 2.182-0.665 3.884-0.743h0.001zM22.465 2.976c-1.687-0.077-2.194-0.093-6.465-0.093s-4.778 0.016-6.465 0.093c-1.561 0.071-2.407 0.332-2.972 0.551-0.746 0.291-1.28 0.636-1.84 1.196-0.531 0.516-0.939 1.145-1.196 1.84-0.22 0.564-0.48 1.411-0.551 2.972-0.077 1.687-0.093 2.193-0.093 6.465s0.016 4.778 0.093 6.466c0.071 1.561 0.332 2.407 0.551 2.972 0.256 0.694 0.665 1.324 1.196 1.84 0.516 0.531 1.146 0.94 1.84 1.196 0.564 0.22 1.411 0.48 2.972 0.551 1.687 0.077 2.192 0.093 6.465 0.093s4.778-0.016 6.465-0.093c1.561-0.071 2.407-0.332 2.972-0.551 0.746-0.291 1.28-0.636 1.84-1.196 0.531-0.516 0.94-1.146 1.196-1.84 0.22-0.564 0.48-1.411 0.551-2.972 0.077-1.687 0.093-2.194 0.093-6.465s-0.016-4.778-0.093-6.465c-0.071-1.561-0.332-2.407-0.551-2.972-0.291-0.746-0.636-1.28-1.196-1.84-0.516-0.531-1.145-0.939-1.84-1.196-0.564-0.22-1.411-0.48-2.972-0.551zM13.956 20.932c1.141 0.475 2.412 0.539 3.596 0.181s2.206-1.115 2.893-2.143c0.687-1.028 0.996-2.262 0.873-3.493s-0.668-2.38-1.543-3.252c-0.558-0.558-1.233-0.985-1.976-1.251s-1.536-0.363-2.321-0.286c-0.785 0.078-1.544 0.328-2.221 0.734s-1.255 0.957-1.694 1.613c-0.438 0.656-0.726 1.401-0.842 2.182s-0.057 1.577 0.172 2.332c0.229 0.755 0.623 1.45 1.152 2.035s1.183 1.045 1.912 1.347zM10.185 10.185c0.764-0.764 1.67-1.369 2.668-1.783s2.067-0.626 3.147-0.626c1.080 0 2.149 0.213 3.147 0.626s1.904 1.019 2.668 1.783c0.764 0.764 1.369 1.67 1.783 2.668s0.626 2.067 0.626 3.147-0.213 2.149-0.626 3.147c-0.413 0.998-1.019 1.904-1.783 2.668-1.542 1.542-3.634 2.409-5.815 2.409s-4.273-0.866-5.815-2.409c-1.542-1.542-2.409-3.634-2.409-5.815s0.866-4.273 2.409-5.815zM26.048 9.001c0.189-0.179 0.341-0.393 0.446-0.631s0.161-0.495 0.164-0.755c0.004-0.26-0.045-0.518-0.142-0.759s-0.243-0.46-0.427-0.644c-0.184-0.184-0.403-0.329-0.644-0.427s-0.499-0.146-0.759-0.142c-0.26 0.004-0.517 0.060-0.755 0.165s-0.453 0.256-0.631 0.446c-0.347 0.368-0.537 0.857-0.53 1.363s0.212 0.989 0.569 1.347 0.841 0.562 1.347 0.569c0.506 0.007 0.995-0.183 1.363-0.53z"></path>
</symbol>
<symbol id="icon-telegram-icon" viewBox="0 0 32 32">
<path d="M32 16c0 8.836-7.164 16-16 16s-16-7.164-16-16c0-8.836 7.164-16 16-16s16 7.164 16 16zM16.573 11.812c-1.556 0.647-4.667 1.987-9.331 4.019-0.757 0.301-1.155 0.596-1.191 0.884-0.061 0.488 0.549 0.68 1.379 0.94 0.113 0.036 0.231 0.072 0.351 0.112 0.817 0.265 1.916 0.576 2.487 0.588 0.519 0.011 1.097-0.203 1.736-0.64 4.357-2.943 6.607-4.429 6.748-4.461 0.1-0.023 0.239-0.052 0.332 0.032 0.093 0.083 0.084 0.24 0.075 0.283-0.061 0.257-2.453 2.483-3.693 3.635-0.387 0.359-0.66 0.613-0.716 0.672-0.125 0.129-0.253 0.253-0.376 0.372-0.76 0.731-1.328 1.28 0.032 2.176 0.653 0.431 1.176 0.787 1.697 1.141 0.569 0.388 1.137 0.775 1.873 1.257 0.187 0.123 0.365 0.249 0.54 0.373 0.663 0.473 1.259 0.897 1.995 0.831 0.427-0.040 0.869-0.441 1.093-1.64 0.529-2.835 1.572-8.973 1.813-11.504 0.015-0.21 0.006-0.421-0.027-0.629-0.019-0.168-0.101-0.323-0.229-0.433-0.191-0.156-0.487-0.189-0.62-0.187-0.601 0.011-1.524 0.332-5.968 2.18z"></path>
</symbol>
<symbol id="icon-geo-location-icon" viewBox="0 0 24 32">
<path d="M10.406 31.281c-3.227-4.023-10.406-13.773-10.406-19.25 0-6.645 5.315-12.031 11.871-12.031 6.554 0 11.871 5.386 11.871 12.031 0 5.477-7.234 15.227-10.406 19.25-0.76 0.959-2.17 0.959-2.931 0zM11.871 16.041c2.183 0 3.957-1.798 3.957-4.010s-1.774-4.010-3.957-4.010-3.957 1.798-3.957 4.010c0 2.212 1.774 4.010 3.957 4.010z"></path>
</symbol>
<symbol id="icon-sun" viewBox="0 0 32 32">
<path d="M9.808 30.791l3.736-3.819c-1.323-0.312-2.568-0.779-3.658-1.559l-0.078 5.378zM21.95 1.328l-3.736 3.819c1.323 0.312 2.568 0.779 3.658 1.559l0.078-5.378zM1.169 22.139l5.37-0.078c-0.7-1.091-1.245-2.338-1.557-3.663l-3.814 3.741zM30.589 9.98l-5.37 0.078c0.701 1.091 1.245 2.338 1.557 3.663l3.814-3.741zM1.169 9.98l3.814 3.741c0.311-1.325 0.778-2.572 1.557-3.663l-5.37-0.078zM30.589 22.139l-3.814-3.741c-0.311 1.325-0.778 2.572-1.557 3.663l5.37 0.078zM9.808 1.328l0.078 5.378c1.090-0.701 2.335-1.247 3.658-1.559l-3.736-3.819zM21.95 30.791l-0.078-5.378c-1.090 0.701-2.335 1.247-3.658 1.559l3.736 3.819zM6.695 22.451l-2.101 4.91 4.903-2.104c-1.090-0.779-2.024-1.715-2.802-2.806zM25.063 9.668l2.101-4.91-4.903 2.104c1.090 0.779 2.024 1.715 2.802 2.806zM4.905 14.033l-4.981 2.027 4.981 2.027c-0.078-0.624-0.156-1.325-0.156-2.027-0.078-0.701 0-1.325 0.156-2.027zM26.853 18.086l4.981-2.027-4.981-2.027c0.156 0.623 0.156 1.325 0.156 2.027s0 1.325-0.156 2.027zM9.497 6.862l-4.903-2.104 2.101 4.91c0.778-1.091 1.712-2.027 2.802-2.806zM22.261 25.257l4.903 2.104-2.101-4.91c-0.778 1.091-1.712 2.027-2.802 2.806zM17.902 5.069l-2.024-4.988-2.024 4.988c0.623-0.078 1.323-0.156 2.024-0.156 0.701-0.078 1.323 0 2.024 0.156zM13.855 27.049l2.024 4.988 2.024-4.988c-0.623 0.078-1.323 0.156-2.024 0.156s-1.323 0-2.024-0.156z"></path>
<path d="M15.879 26.192c5.588 0 10.118-4.537 10.118-10.133s-4.53-10.133-10.118-10.133c-5.588 0-10.118 4.537-10.118 10.133s4.53 10.133 10.118 10.133z"></path>
</symbol>
<symbol id="icon-phone-tube" viewBox="0 0 32 32">
<path d="M30.604 5.067l-4.26-4.255c-0.52-0.52-1.216-0.812-1.952-0.812s-1.432 0.288-1.952 0.812l-4.588 4.579c-0.52 0.52-0.812 1.22-0.812 1.956 0 0.74 0.288 1.432 0.812 1.956l3.584 3.588c-0.816 1.902-1.99 3.63-3.456 5.091-1.468 1.476-3.184 2.64-5.088 3.464l-3.584-3.588c-0.52-0.52-1.216-0.812-1.952-0.812-0.363-0.001-0.723 0.070-1.058 0.209s-0.639 0.344-0.894 0.603l-4.592 4.579c-0.52 0.52-0.812 1.22-0.812 1.956 0 0.74 0.288 1.432 0.812 1.956l4.256 4.256c0.888 0.888 2.112 1.396 3.368 1.396 0.26 0 0.512-0.020 0.768-0.064 5.296-0.872 10.552-3.692 14.796-7.931 4.24-4.248 7.056-9.503 7.936-14.802 0.252-1.504-0.252-3.052-1.332-4.135zM29.1 8.727c-0.78 4.715-3.316 9.419-7.136 13.238s-8.52 6.355-13.236 7.135c-0.592 0.1-1.2-0.1-1.632-0.528l-4.18-4.18 4.432-4.435 4.828 4.835 0.864-0.32c2.62-0.963 4.999-2.484 6.972-4.458s3.494-4.353 4.456-6.973l0.32-0.864-4.832-4.827 4.432-4.435 4.18 4.179c0.432 0.432 0.632 1.040 0.532 1.632z"></path>
</symbol>
<symbol id="icon-pointer_right_icon_2" viewBox="0 0 32 32">
<path d="M30.72 15.168c-0.608 0.672-1.472 1.024-2.4 1.024h-4.736c0.256 0.48 0.384 1.024 0.384 1.536 0 1.248-0.736 2.432-1.824 3.008 0.256 0.384 0.512 0.928 0.512 1.632 0 1.184-0.736 2.304-1.792 2.816 0.256 0.416 0.384 0.896 0.384 1.44 0.032 0.832-0.288 1.664-0.896 2.272-0.608 0.64-1.44 0.992-2.304 0.992h-8.032c-8.672-0.64-9.792-6.176-9.792-10.944 0-4.192 2.048-7.936 5.344-9.792 0.352-0.224 1.216-0.736 2.304-1.408l0.928-0.608c1.856-1.184 3.296-2.112 4.416-2.784l0.128-0.064c0.64-0.32 1.216-0.736 1.6-1.184 0.544-0.704 1.152-1.056 1.664-1.312 0.64-0.352 1.92-0.384 2.848 0.16 0.8 0.48 1.184 1.184 1.184 2.144 0 1.184-0.416 2.464-1.152 3.552-0.352 0.64-0.896 1.248-1.504 1.824h10.208c1.856 0 3.424 1.472 3.456 3.296 0 0.032 0 0.064 0 0.096 0 0.896-0.32 1.696-0.928 2.304zM15.968 8.992l0.224-0.16c0.768-0.576 1.472-1.312 1.888-2.016l0.032-0.032c0.544-0.8 0.864-1.824 0.864-2.656 0-0.384-0.128-0.576-0.416-0.768-0.416-0.256-1.088-0.224-1.28-0.128-0.416 0.224-0.8 0.416-1.152 0.896l-0.032 0.032c-0.544 0.608-1.312 1.216-2.144 1.6l-0.032 0.032c-1.088 0.64-2.496 1.568-4.32 2.72l-0.928 0.608c-1.12 0.672-1.984 1.216-2.368 1.44-2.784 1.568-4.544 4.8-4.544 8.384 0 4.544 0.992 8.8 8.288 9.344h7.936c0.416 0 0.832-0.16 1.152-0.48 0.288-0.288 0.448-0.704 0.448-1.12v-0.032c0-0.32-0.064-0.544-0.256-0.768l-0.128-0.16c-0.256-0.32-0.352-0.736-0.224-1.088s0.416-0.64 0.832-0.768l0.128-0.032c0.608-0.192 1.088-0.8 1.088-1.472 0-0.448-0.224-0.8-0.384-0.96l-0.096-0.16c-0.224-0.256-0.32-0.608-0.224-0.96 0.096-0.384 0.384-0.704 0.736-0.832l0.096-0.032c0.672-0.224 1.216-0.992 1.216-1.696 0-0.384-0.16-0.8-0.448-1.152l-0.128-0.16c-0.256-0.384-0.288-0.832-0.096-1.216s0.576-0.608 1.024-0.608h5.568c0.512 0 0.96-0.192 1.28-0.544s0.48-0.768 0.48-1.248c-0.032-0.928-0.864-1.728-1.856-1.728h-11.488c-0.48 0-0.928-0.288-1.088-0.768-0.032-0.096-0.064-0.224-0.064-0.352 0-0.352 0.16-0.704 0.416-0.96z"></path>
</symbol>
<symbol id="icon-image" viewBox="0 0 24 24">
<path d="M5 2c-0.828 0-1.58 0.337-2.121 0.879s-0.879 1.293-0.879 2.121v14c0 0.828 0.337 1.58 0.879 2.121s1.293 0.879 2.121 0.879h14c0.828 0 1.58-0.337 2.121-0.879s0.879-1.293 0.879-2.121v-14c0-0.828-0.337-1.58-0.879-2.121s-1.293-0.879-2.121-0.879zM11 8.5c0-0.69-0.281-1.316-0.732-1.768s-1.078-0.732-1.768-0.732-1.316 0.281-1.768 0.732-0.732 1.078-0.732 1.768 0.281 1.316 0.732 1.768 1.078 0.732 1.768 0.732 1.316-0.281 1.768-0.732 0.732-1.078 0.732-1.768zM9 8.5c0 0.138-0.055 0.262-0.146 0.354s-0.216 0.146-0.354 0.146-0.262-0.055-0.354-0.146-0.146-0.216-0.146-0.354 0.055-0.262 0.146-0.354 0.216-0.146 0.354-0.146 0.262 0.055 0.354 0.146 0.146 0.216 0.146 0.354zM7.414 20l8.586-8.586 4 4v3.586c0 0.276-0.111 0.525-0.293 0.707s-0.431 0.293-0.707 0.293zM20 12.586l-3.293-3.293c-0.391-0.391-1.024-0.391-1.414 0l-10.644 10.644c-0.135-0.050-0.255-0.129-0.356-0.23-0.182-0.182-0.293-0.431-0.293-0.707v-14c0-0.276 0.111-0.525 0.293-0.707s0.431-0.293 0.707-0.293h14c0.276 0 0.525 0.111 0.707 0.293s0.293 0.431 0.293 0.707z"></path>
</symbol>
</defs>
</svg>
