<svg width="76" height="132" viewBox="0 0 76 132" fill="none" xmlns="http://www.w3.org/2000/svg">
<path d="M66.9341 65.59C70.2745 83.8384 43.5874 84.0086 43.5874 84.0086C46.4766 67.1659 57.1174 61.7604 66.9341 65.59Z" fill="#9DCC6B"/>
<path d="M62.9641 64.6828C61.9408 73.86 51.7327 76.9074 45.1174 77.9454C49.3764 65.2369 57.9399 64.1094 62.9641 64.6828Z" fill="#B5E08C"/>
<path d="M81.2853 40.9597C81.2853 40.9597 90.5797 65.9766 72.3312 69.317C70.8906 67.6281 69.7824 65.6819 69.0652 63.5811C65.7612 53.86 72.4835 46.28 81.2853 40.9597Z" fill="#9DCC6B"/>
<path d="M78.9503 42.4558C80.223 49.924 80.145 61.0028 69.0652 63.5811C67.2946 58.3729 67.3901 50.3085 78.9503 42.4558Z" fill="#B5E08C"/>
<path d="M61.4673 7.13527C79.6715 46.5679 52.9298 50.8187 44.8174 40.6734C36.9724 30.872 51.3623 14.2658 61.4673 7.13527Z" fill="#9DCC6B"/>
<path d="M58.6049 9.35583C68.8776 36.1111 55.7307 44.5686 44.8299 40.6546C37.525 31.5716 49.2294 17.123 58.6049 9.35583Z" fill="#B5E08C"/>
<path d="M37.174 61.9379C36.6031 70.1522 27.739 77.7942 2.90251 76.054C4.98343 67.8462 10.5942 55.9118 17.994 50.6595C28.0699 43.4557 37.8799 53.2588 37.174 61.9379Z" fill="#9DCC6B"/>
<path d="M36.5753 57.3795C34.1093 63.9132 25.2287 69.2323 5.53294 68.3584C7.91961 62.5936 12.0699 55.0442 17.9567 50.7133C26.6095 44.493 34.3712 50.4904 36.5753 57.3795Z" fill="#B5E08C"/>
<path d="M54.8973 59.9351C48.2047 55.3136 47.0541 36.6642 54.8559 25.366C55.1854 24.8889 55.691 24.5622 56.2613 24.4578C56.8317 24.3533 57.4202 24.4798 57.8974 24.8093C58.3745 25.1388 58.7012 25.6443 58.8056 26.2147C58.91 26.7851 58.7836 27.3736 58.4541 27.8507C51.3976 38.0695 53.442 53.6162 57.3819 56.3369C57.8591 56.6664 58.1858 57.1719 58.2902 57.7423C58.3946 58.3127 58.2682 58.9012 57.9387 59.3783C57.6092 59.8555 57.1037 60.1822 56.5333 60.2866C55.9629 60.391 55.3744 60.2645 54.8973 59.9351Z" fill="#BE927C"/>
<path d="M86.7243 79.2558C86.3948 79.7329 85.8892 80.0597 85.3189 80.1641C84.7485 80.2685 84.16 80.142 83.6828 79.8125L47.4494 54.7919C43.5274 52.0836 28.2467 55.6666 21.1902 65.8854C20.8607 66.3625 20.3552 66.6892 19.7848 66.7936C19.2144 66.8981 18.6259 66.7716 18.1488 66.4421C12.0139 62.2057 39.1396 43.7397 49.9341 51.1937C86.7132 76.9632 88.712 76.3773 86.7243 79.2558Z" fill="#BE927C"/>
<path d="M128.876 60.538L130.675 61.7804L85.9508 126.547L84.1517 125.305C82.3249 124.044 80.8477 122.341 79.8584 120.355C78.8691 118.368 78.4 116.163 78.4951 113.945C78.5901 111.728 79.2461 109.571 80.4018 107.676C81.5574 105.782 83.1749 104.211 85.1028 103.112C82.5001 99.4528 81.0872 95.0812 81.0559 90.5912C81.0246 86.1011 82.3765 81.7104 84.928 78.0155C87.4794 74.3207 91.1066 71.5011 95.3165 69.9398C99.5265 68.3785 104.115 68.1513 108.459 69.289C108.804 67.0967 109.7 65.0277 111.062 63.2758C112.425 61.5239 114.209 60.1464 116.249 59.272C118.289 58.3977 120.518 58.0552 122.726 58.2767C124.934 58.4981 127.05 59.2761 128.876 60.538Z" fill="#A87E6B"/>
<path d="M128.876 60.5378L130.675 61.7802L88.8703 122.319C87.791 120.828 87.0376 119.126 86.6591 117.325C86.2807 115.523 86.2857 113.662 86.6737 111.862C87.0618 110.063 87.8243 108.365 88.9116 106.88C89.9989 105.394 91.3867 104.154 92.9847 103.24C90.8387 100.219 89.4958 96.7017 89.0823 93.0189C88.6688 89.3361 89.1983 85.6086 90.6209 82.1866C92.0436 78.7645 94.3128 75.7603 97.2153 73.4561C100.118 71.1518 103.558 69.6232 107.214 69.0138C108.792 69.3064 108.353 69.4812 108.563 68.8296C108.98 66.6935 109.922 64.6947 111.305 63.0134C112.687 61.3321 114.465 60.021 116.48 59.1985C118.495 58.3759 120.684 58.0676 122.847 58.3014C125.011 58.5353 127.083 59.3038 128.876 60.5378Z" fill="#BE927C"/>
</svg>
