<svg width="68" height="60" viewBox="0 0 68 60" fill="none" xmlns="http://www.w3.org/2000/svg">
<path d="M10.322 22.3211C10.8773 19.2031 12.4631 16.9241 15.0954 15.1631C17.7277 13.4021 21.0868 12.766 24.1807 13.4425C26.0714 13.8561 27.8939 14.7728 29.1466 16.248C30.3993 17.7233 31.014 19.794 30.5038 21.661C33.4646 20.0049 37.1502 19.7049 40.3398 20.8605C41.2221 21.1803 42.1013 21.634 42.6463 22.398C43.1335 23.0807 43.3014 23.9357 43.4171 24.7665C43.6849 26.6906 43.7373 28.6446 43.5727 30.5802C43.5075 31.3467 43.403 32.1285 43.0526 32.8132C42.0337 34.8037 39.4416 35.2577 37.2159 35.475C39.4778 37.1568 41.8088 38.9161 43.1638 41.3876C44.5188 43.8592 44.614 47.2594 42.6147 49.2463C41.5937 50.261 40.191 50.7743 38.8353 51.2587C38.1319 51.5099 37.3981 51.7651 36.6557 51.6826C35.9549 51.6048 35.3254 51.2345 34.7201 50.8726C32.568 49.5855 30.3289 48.2138 29.0429 46.0612C29.0459 48.8438 28.2519 51.623 26.7788 53.9838C26.3656 54.6462 25.8931 55.2837 25.2851 55.7734C24.3781 56.504 23.2239 56.8618 22.0739 57.0456C19.0321 57.5315 15.4865 56.6284 13.9653 53.9499C13.6855 53.4572 13.4805 52.9039 13.4992 52.3376C13.5318 51.3512 14.2156 50.5233 14.8646 49.7799C12.0412 50.4817 9.01712 50.7436 6.25156 49.8402C3.486 48.9369 1.03735 46.6874 0.512091 43.8257C0.17282 41.9775 0.67595 39.9915 1.85418 38.5279C3.03241 37.0642 4.8651 36.1485 6.74301 36.0852C3.73271 34.4583 1.77797 31.0493 1.89462 27.6295C2.01128 24.2097 4.19356 20.9417 7.30773 19.5237C7.93575 19.2378 8.65105 19.0209 9.30882 19.2295C9.96671 19.4382 10.6477 21.7128 10.322 22.3211Z" fill="#F68F8D"/>
<path d="M54.9925 28.3897C56.2046 28.4669 57.2163 29.5268 57.4539 30.718C57.6915 31.9091 57.2573 33.1634 56.5129 34.1231C59.1426 33.2533 62.1272 33.5199 64.5612 34.8421C65.4608 35.3307 66.3073 35.98 66.8163 36.8681C67.3253 37.7563 67.4425 38.9152 66.9218 39.7964C66.4259 40.6357 65.465 41.084 64.523 41.3346C63.581 41.5852 62.5935 41.6917 61.7013 42.0842C62.9002 42.584 64.1614 43.132 64.9189 44.1871C65.5515 45.0681 65.7433 46.1866 65.8318 47.2674C65.9836 49.1226 65.7562 51.254 64.2756 52.3821C63.4442 53.0155 62.3681 53.2063 61.3373 53.3781C61.0176 53.4315 60.6768 53.4825 60.3795 53.3537C60.1293 53.2454 59.9473 53.0246 59.7914 52.801C59.2711 52.0547 58.9299 51.1843 58.8049 50.2831C58.5806 52.9359 56.2819 55.2613 53.632 55.5163C53.1852 55.5593 52.7182 55.5464 52.3108 55.3576C51.3541 54.9142 51.0638 53.7146 50.921 52.6698C50.7593 51.4851 50.677 50.156 51.4221 49.2208C49.7767 49.7517 47.9171 49.5799 46.3969 48.7564C46.0075 48.5455 45.6252 48.278 45.4204 47.8853C45.2022 47.4668 45.2166 46.9693 45.2514 46.4988C45.318 45.5995 45.4488 44.6772 45.9009 43.897C46.353 43.1166 47.1936 42.5036 48.0937 42.5594C47.2168 42.6222 46.3682 42.1185 45.8341 41.4202C45.3001 40.7218 45.039 39.8526 44.8815 38.9878C44.3886 36.2806 45.3571 32.8272 48.6655 33.1631C50.4752 33.3467 50.4368 32.3965 51.3846 30.9335C52.173 29.7164 53.3875 28.2874 54.9925 28.3897Z" fill="#F68F8D"/>
<path d="M15.8427 30.9022C15.2421 32.2872 14.9571 33.8079 15.0152 35.3165C15.0437 36.0554 15.1603 36.8112 15.5304 37.4514C15.8915 38.0762 16.469 38.5473 17.0752 38.9389C18.0822 39.5896 19.2309 40.0665 20.4288 40.1148C22.875 40.2134 25.2102 38.3202 25.7508 35.9324C26.5024 32.6137 24.2984 30.814 22.0265 28.9951C21.0348 28.2011 20.5978 27.3788 19.1772 27.6814C17.5525 28.0274 16.4692 29.4575 15.8427 30.9022Z" fill="#F6C11E"/>
<path d="M52.0601 42.505C52.0068 42.8832 51.9688 43.2766 52.0844 43.6405C52.2011 44.0077 52.4621 44.3084 52.7165 44.5976C53.066 44.995 53.4388 45.4084 53.9394 45.5805C54.3707 45.7288 54.8434 45.6777 55.2923 45.5968C56.4115 45.3949 57.5166 45.0073 58.4197 44.3161C59.3227 43.6249 60.0079 42.6053 60.1412 41.476C60.4423 38.9249 57.9441 37.7242 55.7392 37.6583C52.9041 37.5735 52.3899 40.1688 52.0601 42.505Z" fill="#F6C11E"/>
<path d="M41.8915 6.7075C41.7681 9.13305 42.2427 11.5453 42.3935 13.9694C42.4573 14.9946 42.4264 16.1288 41.7441 16.8968C42.4925 17.3803 43.4196 17.88 44.2246 17.4982C44.563 17.3376 44.8159 17.0423 45.0417 16.7434C47.2304 13.8467 47.7486 9.7725 46.3552 6.41998C45.9014 5.32853 45.2589 4.30174 45.0177 3.14478C44.7766 1.98769 45.0622 0.600732 46.0801 0C45.5351 0.321694 44.922 0.227041 44.3862 0.610689C43.8153 1.01941 43.3616 1.75426 43.0297 2.35708C42.3015 3.6795 41.9677 5.2093 41.8915 6.7075Z" fill="#BED665"/>
<path d="M50.5639 16.9425C51.5967 15.953 52.6456 14.9517 53.9017 14.2679C54.9421 13.7014 56.091 13.3714 57.2144 12.9957C59.6987 12.1649 62.1019 11.0916 64.3785 9.79599C63.6475 13.1843 62.8853 16.6512 61.0368 19.5836C59.1884 22.516 56.0023 24.8542 52.5391 24.7104C51.108 24.6509 47.6103 24.1939 47.0651 22.4899C46.4493 20.5645 49.3756 18.0809 50.5639 16.9425Z" fill="#BED665"/>
<path d="M53.9037 45.9977C52.7304 45.9977 52.065 45.442 51.7014 44.9325C50.9172 43.8336 50.9151 42.0291 51.6961 40.5441C52.7397 38.5594 54.1371 38.4377 55.6168 38.3088C56.0021 38.2752 56.4005 38.2405 56.8025 38.1712H56.8024C57.6242 38.0295 58.099 38.3664 58.3518 38.674C58.9633 39.4173 58.9862 40.8715 58.4107 42.3788C57.8277 43.9054 56.5083 45.6442 54.5538 45.9455C54.3216 45.9814 54.1052 45.9977 53.9037 45.9977ZM57.1761 38.7524C57.0917 38.7524 57.0021 38.7607 56.9069 38.7771C56.9067 38.7771 56.9067 38.7771 56.9067 38.7771C56.4794 38.8508 56.068 38.8865 55.6701 38.9212C54.2495 39.045 53.1274 39.1427 52.2401 40.8302C51.5736 42.0976 51.5574 43.6727 52.2017 44.5756C52.6688 45.2302 53.4492 45.4939 54.4604 45.3382C56.1546 45.077 57.3153 43.5251 57.8368 42.1598C58.3196 40.8955 58.3362 39.6227 57.8773 39.0648C57.7054 38.8556 57.4745 38.7524 57.1761 38.7524ZM56.8546 38.4743H56.8558H56.8546Z" fill="#231F20"/>
<path d="M53.9587 55.8314C53.4643 55.8314 52.9407 55.7389 52.3986 55.5529C50.886 55.0345 49.7273 52.9564 49.7396 51.5145C49.7451 50.8551 50.1061 49.8465 50.3096 49.3169C49.944 49.3003 49.4731 49.4949 48.9824 49.6981C48.0072 50.1019 46.7937 50.6044 45.849 49.5305C44.9061 48.4583 43.3379 44.7751 44.3085 43.3885C44.5894 42.9874 45.2164 42.7325 45.8801 42.4625C46.5301 42.1983 47.3392 41.8692 47.2538 41.545C47.0807 40.8884 46.3671 40.4128 45.6118 39.909C44.8676 39.4129 44.0982 38.8999 43.741 38.1366C43.3541 37.3097 43.369 36.4036 43.7841 35.5164C44.3254 34.3599 45.5333 33.3602 46.7901 33.0289C47.9006 32.7359 48.8846 33.583 49.536 34.1435C49.632 34.2261 49.7479 34.3258 49.8458 34.4026C49.9795 34.0192 50.1827 33.24 50.3151 32.7325C50.5211 31.943 50.6418 31.4883 50.7286 31.3231C51.2734 30.2872 52.3037 29.5097 53.5553 29.1899C54.8111 28.8691 56.1017 29.064 57.0965 29.7247C58.2152 30.4679 58.1196 32.0791 58.0428 33.3736C58.0024 34.0523 57.9568 34.8214 58.1567 35.0251C58.1733 35.042 58.2106 35.0826 58.3383 35.0764C58.3384 35.0764 58.3384 35.0764 58.3384 35.0764C58.8284 35.0562 59.3669 35.0016 59.937 34.9439C62.5692 34.677 65.8461 34.345 66.8891 37.3453C67.4944 39.0859 66.814 40.8605 65.2345 41.6606C64.9044 41.8276 64.544 41.9724 64.1413 42.0991C65.595 42.9207 66.8537 44.6256 67.187 46.3886C67.4979 48.0327 66.963 49.4003 65.681 50.2392C63.7752 51.4866 60.7363 51.862 58.7625 51.0944C58.4818 50.9853 58.2276 50.6247 57.9562 50.1824C57.8523 50.5303 57.6943 51.2019 57.4671 52.4977C57.4473 52.6112 57.4335 52.6894 57.4274 52.7184C57.1683 53.9594 56.5546 54.8866 55.653 55.3997C55.1475 55.6871 54.5758 55.8314 53.9587 55.8314ZM50.2705 48.7016C50.4726 48.7016 50.6683 48.7388 50.8545 48.8289C51.1125 48.9528 51.0102 49.2128 50.9666 49.3238C50.5639 50.3472 50.3578 51.0861 50.3542 51.5199C50.3428 52.8449 51.4751 54.5868 52.5978 54.9717C53.6448 55.3305 54.5962 55.2939 55.349 54.8655C56.0931 54.4421 56.6036 53.6562 56.8257 52.5926C56.8312 52.566 56.8436 52.4949 56.8617 52.3915C57.3146 49.8077 57.5177 49.4847 57.7189 49.3484C57.8034 49.291 57.9026 49.2703 57.9995 49.2905C58.1555 49.3231 58.2152 49.4225 58.3928 49.7177C58.5027 49.9 58.8365 50.4547 58.986 50.522C60.7636 51.2134 63.6164 50.8561 65.3443 49.725C66.7751 48.7886 66.7346 47.3043 66.5831 46.5028C66.2127 44.5441 64.513 42.5998 62.8716 42.257C62.559 42.1919 62.5816 41.9347 62.5852 41.9056C62.6205 41.6198 62.9009 41.631 63.0522 41.6373C63.1532 41.6414 63.4603 41.6538 63.542 41.6322C64.0867 41.4886 64.5493 41.3185 64.9566 41.1123C66.2745 40.4446 66.8178 39.0119 66.3084 37.5472C65.4249 35.0056 62.5423 35.2976 59.9989 35.5554C59.4193 35.6142 58.8719 35.6696 58.3635 35.6906H58.3636C58.0988 35.7013 57.8818 35.6225 57.7181 35.4558C57.327 35.0576 57.3721 34.2984 57.429 33.3374C57.5 32.1408 57.5806 30.7845 56.7562 30.2368C55.9061 29.6721 54.7946 29.5075 53.7073 29.7856C52.624 30.0624 51.7365 30.7272 51.2724 31.6094C51.2133 31.7236 51.0449 32.3691 50.9097 32.8877C50.7827 33.3744 50.6513 33.8777 50.5327 34.2709C50.3762 34.7887 50.2518 35.1973 49.8964 35.1232C49.6791 35.0779 49.4627 34.8915 49.1349 34.6095C48.5482 34.1047 47.7445 33.4131 46.9467 33.6235C45.8563 33.9109 44.8089 34.7764 44.3407 35.7772C44.1068 36.277 43.9094 37.0469 44.2976 37.8764C44.5819 38.4842 45.2786 38.9487 45.9525 39.3979C46.77 39.943 47.6154 40.5066 47.8479 41.3886C48.0712 42.2353 47.0302 42.6586 46.1116 43.0322C45.5853 43.2462 44.9887 43.4887 44.8119 43.7413C44.0976 44.7617 45.3885 48.0767 46.3103 49.1248C46.9208 49.8185 47.6381 49.5897 48.7471 49.1306C49.2587 48.9184 49.7826 48.7016 50.2705 48.7016Z" fill="#231F20"/>
<path d="M41.4914 18.6983C41.4207 18.6983 41.3496 18.6948 41.2776 18.6872C40.9878 18.6562 40.9312 18.4549 40.9209 18.3939C40.8679 18.0845 41.1745 17.9385 41.7847 17.6475C41.9279 17.5792 42.0633 17.5148 42.1448 17.4688C42.3727 17.3406 42.6205 17.3483 42.8655 17.4072C42.6671 17.2672 42.4876 17.1167 42.3917 16.9365C41.7993 15.8227 41.2631 14.7089 41.2093 13.3314C41.1064 10.7082 41.6463 8.36118 42.2176 5.87651C42.3687 5.21935 42.5251 4.53971 42.6669 3.86006C42.7004 3.70025 43.0387 2.80573 43.1972 2.39762C43.2947 2.14698 43.4358 1.79013 43.5551 1.51367C43.7216 1.12769 43.821 0.894256 44.0984 0.952153C44.952 1.13039 44.8543 2.09105 44.7757 2.86289C44.7338 3.27432 44.6906 3.69988 44.7665 3.9879C44.9831 4.80916 45.4089 5.77645 45.8597 6.80041C46.8778 9.11311 48.0317 11.7345 47.1871 13.7143C47.0978 13.9236 47.0076 14.1449 46.9147 14.3727C46.3114 15.8524 45.6275 17.5298 44.3492 18.2496C44.0706 18.4065 43.7622 18.3597 43.4651 18.2651C43.1768 18.3799 42.8782 18.4489 42.606 18.5117C42.6058 18.5117 42.6058 18.5117 42.6058 18.5117C42.5532 18.5238 42.5006 18.5364 42.4476 18.549C42.1392 18.6227 41.8221 18.6983 41.4914 18.6983ZM42.5368 18.2124H42.538H42.5368ZM44.1483 1.68921C43.8807 2.29978 43.3155 3.79798 43.2679 3.98937C43.1256 4.67148 42.9685 5.35408 42.8168 6.01431C42.2548 8.45792 41.7239 10.7662 41.8235 13.3074C41.8724 14.5552 42.3768 15.5996 42.9344 16.648C42.9927 16.7574 43.2557 16.9318 43.4299 17.0473C43.7626 17.2677 44.0271 17.443 44.0308 17.7224C44.0367 17.7199 44.0423 17.7172 44.0476 17.7143C45.1394 17.0995 45.7802 15.5276 46.3456 14.1408C46.4399 13.9099 46.5313 13.6854 46.6218 13.4732C47.3619 11.7384 46.2651 9.24661 45.2973 7.0481C44.8366 6.00128 44.4013 5.0126 44.1725 4.1445C44.068 3.74844 44.1171 3.26658 44.1646 2.80057C44.2239 2.21606 44.2378 1.86561 44.1483 1.68921Z" fill="#231F20"/>
<path d="M22.2246 41.4485C20.992 41.4485 19.7338 41.0809 18.4173 40.6297C18.078 40.5133 17.6624 40.47 17.2223 40.4243C16.5923 40.3588 15.941 40.2909 15.4271 39.9915C14.7101 39.5739 14.3805 38.5568 14.1625 37.8838C13.4862 35.7962 13.6499 33.6872 14.6359 31.7849C15.5496 30.0222 17.1395 28.5429 19.1127 27.6198C20.0568 27.1782 21.6911 27.6715 24.1097 29.1284C26.1029 30.3293 27.6005 32.5811 27.9251 34.8652C28.1692 36.5832 27.7196 38.1609 26.6591 39.3078C25.1822 40.9049 23.7226 41.4485 22.2246 41.4485ZM19.9032 28.0757C19.6733 28.0757 19.5016 28.1162 19.3733 28.1762C16.0409 29.7354 13.3182 33.283 14.7474 37.6943C14.9251 38.2428 15.2226 39.1609 15.7367 39.4605C16.1363 39.6934 16.7208 39.7542 17.286 39.813C17.7408 39.8603 18.2112 39.9093 18.6167 40.0484C21.422 41.0097 23.7625 41.5349 26.208 38.8906C27.4033 37.5979 27.4705 36.0352 27.3168 34.9517C27.0171 32.8433 25.6339 30.7642 23.7928 29.6549C21.7505 28.4247 20.5772 28.0757 19.9032 28.0757Z" fill="#231F20"/>
<path d="M47.8993 24.396C47.2641 24.396 46.7177 24.2834 46.3629 23.9727C46.0461 23.6953 45.9067 23.2981 45.9487 22.7922C46.2404 19.2809 48.3282 17.4774 51.246 15.3128C52.5876 14.3175 54.0547 13.5072 55.4734 12.7234C55.8272 12.528 56.1807 12.3326 56.5323 12.1346C56.9787 11.8832 58.7679 11.3073 60.5204 10.851C64.0271 9.93806 64.4052 10.2369 64.5662 10.3644C64.7846 10.5372 65.1503 10.8266 63.3379 14.9365C62.442 16.9684 61.4108 19.0111 61.1217 19.4128C59.0562 22.2813 55.4661 23.1785 52.2268 23.6778C51.8858 23.7304 51.4489 23.8261 50.9863 23.9274C49.9891 24.1456 48.8458 24.396 47.8993 24.396ZM46.2549 22.8176L46.5611 22.843C46.5358 23.1481 46.6034 23.3665 46.7678 23.5103C47.418 24.0794 49.4044 23.6445 50.8546 23.3269C51.327 23.2235 51.7731 23.1258 52.1331 23.0703C55.4033 22.5662 58.6951 21.7308 60.6228 19.0537C60.8734 18.7057 61.8214 16.8288 62.6681 14.9308C63.8478 12.2862 64.1458 11.1483 64.1396 10.8368C63.2648 10.6408 57.7426 12.1582 56.8337 12.6702C56.4806 12.8691 56.1256 13.0651 55.7705 13.2614C54.3695 14.0354 52.9208 14.8356 51.6121 15.8065C48.737 17.9396 46.8322 19.5816 46.5611 22.8432L46.2549 22.8176Z" fill="#231F20"/>
<path d="M21.8608 59.1021C20.9636 59.1021 20.0325 58.9476 19.0859 58.6376C16.827 57.8976 13.4046 54.965 13.3055 52.4299C13.2985 52.2523 13.4493 51.5104 13.9034 49.4901C13.9304 49.3697 13.9569 49.2522 13.978 49.1571C13.814 49.1269 13.4613 49.1353 12.7299 49.3746C11.9931 49.6156 11.1855 49.9848 10.5957 50.2542C10.2733 50.4016 10.0404 50.5081 9.90662 50.5533C7.67086 51.3087 5.92325 50.9452 4.06327 49.3368C1.44572 47.0736 -1.06649 43.2014 0.467732 39.7374C0.926732 38.7007 1.90066 37.4187 2.89131 36.5472C3.02014 36.4338 3.25025 36.3198 3.61497 36.1431C3.94441 35.9836 4.70359 35.6158 4.80389 35.4145C4.6484 35.0547 4.28171 34.7528 3.89388 34.4336C3.44681 34.0656 2.98461 33.685 2.74675 33.1441C1.40515 30.0944 0.652487 24.3631 3.17957 21.1699C4.23414 19.8377 7.22649 18.7556 8.78284 19.9873C8.94522 20.1158 9.13207 20.4283 9.47552 21.0157C9.70072 21.4007 10.0904 22.067 10.3217 22.321C10.5061 21.9723 10.5813 21.4236 10.6545 20.8908C10.7327 20.3209 10.8136 19.7315 11.0367 19.2947C12.9653 15.5174 17.0007 11.4625 21.6679 10.919C23.5855 10.6958 26.5899 10.9592 28.2988 11.7865C30.6699 12.9342 31.8714 17.1052 31.1553 19.5879C31.14 19.6412 31.1238 19.6935 31.1067 19.7446C32.0697 19.5349 33.196 19.3382 34.2962 19.1974C36.4949 18.9156 39.3041 18.754 40.1999 19.5821C43.0622 22.2286 44.9567 28.0796 43.208 31.9489C42.58 33.3382 41.1517 34.4783 40.0643 35.1902C39.6075 35.489 38.7402 35.9825 38.0925 36.2427C38.5627 36.7393 39.2429 37.2368 39.9533 37.7563C41.059 38.565 42.2025 39.4011 42.8821 40.4396C44.2539 42.5356 44.1825 45.7312 42.7083 48.211C41.4652 50.3022 39.5234 51.4014 37.3837 51.2263C36.9825 51.1935 36.5227 51.1949 36.0363 51.1957C34.8814 51.1987 33.5757 51.2015 32.6068 50.7324C32.3738 50.6197 31.9818 50.2569 31.3614 49.6746C30.9904 49.3264 30.4136 48.7849 30.1095 48.5692C29.9004 49.1709 29.5413 50.967 29.3374 51.9878C29.1731 52.8102 29.0774 53.2838 29.0235 53.4547C28.326 55.6665 26.946 57.396 25.1382 58.3244C24.1302 58.8422 23.024 59.1021 21.8608 59.1021ZM13.8168 48.5307C14.1271 48.5307 14.3764 48.6052 14.5465 48.7783C14.6664 48.8981 14.6664 48.8981 14.503 49.6251C14.3455 50.3254 13.9275 52.186 13.9197 52.4138C14.0075 54.6559 17.2303 57.3831 19.2772 58.0536C21.2918 58.7134 23.2214 58.6181 24.8573 57.778C26.5181 56.9251 27.7896 55.3241 28.4374 53.2701C28.4838 53.1227 28.6058 52.5131 28.7347 51.8677C29.4919 48.0792 29.6113 47.9125 29.9477 47.8733C30.2539 47.8379 30.6134 48.1297 31.782 49.2267C32.1974 49.6166 32.7143 50.1018 32.8747 50.1795C33.7161 50.5867 34.9481 50.5839 36.0348 50.5813C36.5342 50.5804 37.0067 50.579 37.4336 50.6139C39.3311 50.7688 41.0615 49.7788 42.18 47.897C43.5388 45.6114 43.6161 42.6833 42.3678 40.7763C41.7494 39.8313 40.6519 39.0288 39.5904 38.2525C38.6177 37.541 37.6989 36.8691 37.2126 36.1263C37.1113 35.9719 37.1574 35.8199 37.2277 35.7367C37.3828 35.5532 37.5998 35.6482 37.6815 35.684C37.7005 35.6924 37.7301 35.7053 37.7542 35.7146C38.3048 35.5109 39.1933 35.0256 39.7276 34.676C40.7468 34.0089 42.0808 32.9504 42.6478 31.6958C44.2659 28.1159 42.4363 22.4871 39.7826 20.0334C39.224 19.5168 37.053 19.4432 34.1169 19.8409C32.8363 20.0143 31.6718 20.238 30.7716 20.4503C30.3536 21.0863 29.7326 21.3935 28.9865 21.3108C28.8296 21.2933 28.4623 21.2525 28.4006 20.9504C28.3621 20.7617 28.4631 20.5983 28.7004 20.4647C28.9913 20.301 29.5964 20.1068 30.3763 19.9139C30.4484 19.7682 30.5112 19.6029 30.5647 19.4176C31.2112 17.1756 30.0986 13.3406 28.0309 12.3396C26.444 11.5715 23.5294 11.3212 21.7388 11.5296C17.2973 12.0467 13.4382 15.9426 11.5839 19.5742C11.4081 19.9183 11.3345 20.4552 11.2633 20.9744C11.1675 21.6734 11.0683 22.3962 10.7073 22.8524C10.6166 22.9671 10.4835 23.0272 10.342 23.017C9.95665 22.9898 9.62032 22.4809 8.94485 21.326C8.7526 20.9973 8.4893 20.5473 8.39944 20.4678C7.17007 19.4953 4.54612 20.4337 3.66131 21.5515C1.29268 24.5446 2.02961 29.9877 3.30926 32.8968C3.48811 33.3037 3.87495 33.6221 4.28442 33.9592C4.72313 34.3204 5.17685 34.694 5.38434 35.2104C5.63954 35.8455 4.70617 36.2976 3.8827 36.6965C3.65418 36.8073 3.36961 36.9451 3.29709 37.0089C2.36704 37.8271 1.4558 39.0236 1.0295 39.9865C-0.368769 43.1434 2.00626 46.7461 4.46499 48.8721C6.16074 50.3384 7.68033 50.6571 9.70957 49.971C9.81344 49.936 10.0574 49.8245 10.3399 49.6953C11.696 49.0758 12.9784 48.5307 13.8168 48.5307Z" fill="#231F20"/>
</svg>
