<svg width="125" height="192" viewBox="0 0 125 192" fill="none" xmlns="http://www.w3.org/2000/svg">
<path d="M31.5271 124.251C30.0601 125.526 28.416 126.673 26.5341 127.16C24.6522 127.647 22.4914 127.38 21.0364 126.091C19.5606 124.783 19.047 122.685 19.0212 120.713C18.9776 117.391 20.4043 113.761 23.4375 112.407C20.6376 111.826 17.6994 111.178 15.5571 109.284C13.4148 107.39 12.474 103.814 14.342 101.649C16.5109 99.1347 20.54 100.056 23.6622 101.186C21.1749 98.2101 20.5057 93.8268 21.9915 90.2441C22.2813 89.5454 22.6699 88.8501 23.2999 88.4312C24.1736 87.8501 25.3165 87.9177 26.3528 88.0831C28.8424 88.4805 31.3423 89.3693 33.1382 91.1387C34.9339 92.9083 35.8744 95.6895 34.9767 98.0455C38.3152 97.6621 41.7106 97.7797 45.0145 98.3937C47.4924 98.854 50.1453 99.7613 51.4337 101.927C52.4844 103.694 52.3252 106.102 51.0507 107.715C49.7762 109.328 47.4708 110.041 45.5086 109.427C46.1701 111.894 49.1173 113.004 50.368 115.231C51.8027 117.786 50.6458 120.96 49.4753 123.646C48.662 125.512 47.6242 127.585 45.6707 128.16C43.6032 128.768 41.4703 127.379 40.0447 125.763C39.1153 124.709 37.759 120.933 36.6543 120.49C34.8929 119.784 32.6595 123.266 31.5271 124.251Z" fill="#F68F8D"/>
<path d="M59.0166 120.151C56.6847 117.032 57.9288 111.91 61.4319 110.208C58.3606 111.236 54.5613 109.799 53.2306 106.847C51.8996 103.894 53.5944 99.8786 56.7273 99.0572C59.4998 98.3304 62.3261 99.9699 64.5105 101.826C62.5844 99.1261 64.0027 95.3698 65.7127 92.5287C66.3732 91.4311 67.1004 90.3262 68.1595 89.6056C69.2184 88.8848 70.6924 88.6317 71.779 89.3105C72.8856 90.0018 73.2822 91.3953 73.5915 92.6628C74.0953 94.728 74.603 96.8435 74.3802 98.9575C76.1316 95.816 81.3403 95.5351 83.4197 98.4695C85.4992 101.404 83.5071 106.225 79.9628 106.836C81.5953 107.648 83.26 108.483 84.5422 109.78C85.8244 111.077 86.6776 112.941 86.3011 114.726C84.645 122.568 75.5324 115.562 71.6938 118.043C69.583 119.408 68.8651 121.736 66.1512 122.44C63.6195 123.096 60.615 122.29 59.0166 120.151Z" fill="#F68F8D"/>
<path d="M51.6613 78.2374C50.0509 78.4494 48.3384 78.4194 46.9002 77.6641C45.1743 76.758 44.0605 74.7972 44.1659 72.8507C44.2713 70.9041 45.59 69.075 47.4038 68.3603C43.7773 68.6275 39.9025 67.4555 37.5741 64.6625C35.2454 61.8696 34.9323 57.3506 37.3918 54.6724C39.8513 51.9942 44.9956 52.2866 46.65 55.5248C45.834 52.394 45.1155 49.1164 45.7702 45.9477C46.4246 42.7791 48.8164 39.7481 52.0286 39.3614C54.7032 39.0397 57.2554 40.5576 59.2959 42.3164C61.0807 43.8546 62.7099 45.7013 63.4028 47.9533C64.0957 50.2053 63.659 52.9228 61.8611 54.4458C65.8857 51.947 71.0948 51.4605 75.5126 53.171C76.148 53.417 76.7917 53.7244 77.2116 54.261C77.5829 54.7359 77.7396 55.3408 77.8556 55.932C78.4221 58.8227 78.032 62.2298 75.7098 64.0421C74.2378 65.1909 72.2917 65.4713 70.4498 65.7773C70.0071 65.8509 69.537 65.9417 69.2124 66.2518C68.4615 66.9702 69.0061 68.2697 69.7844 68.9585C70.5628 69.6473 71.5875 70.1777 71.9341 71.1576C72.2399 72.022 71.9143 72.9704 71.5696 73.8197C70.4467 76.5883 68.2645 79.7238 65.3185 79.225C63.6789 78.9471 62.8591 77.726 61.9824 76.4709C60.6343 74.541 61.5126 74.5249 59.4244 75.2163C56.7018 76.1181 54.6857 77.8391 51.6613 78.2374Z" fill="#F68F8D"/>
<path d="M62.6619 43.2675C61.8446 42.2977 61.527 40.9781 61.579 39.711C61.6379 38.2797 62.3163 36.6992 63.6858 36.2792C62.1319 37.1087 60.3312 37.4692 58.5778 37.3013C57.7629 37.2232 56.9414 37.0265 56.2545 36.5807C54.5504 35.475 54.1238 32.9276 55.1428 31.1702C56.1618 29.4128 58.3388 28.5086 60.3596 28.7175C62.3803 28.9265 64.2135 30.1178 65.5091 31.6827C65.802 30.4223 66.1058 29.1348 66.7969 28.0409C67.4881 26.9468 68.6511 26.0628 69.9451 26.0594C71.4489 26.056 72.7759 27.2944 73.1657 28.747C73.5555 30.1997 73.1381 31.7781 72.3444 33.0554C73.7552 33.3303 75.228 33.2219 76.6188 33.5853C78.0094 33.949 79.3938 35.0023 79.4554 36.4384C79.5137 37.7971 78.3269 38.9552 77.0209 39.3337C75.7148 39.7123 74.3192 39.496 72.9771 39.2771C73.9604 40.1428 74.9635 41.0332 75.5944 42.1812C76.2256 43.3294 76.4217 44.8063 75.7527 45.933C74.8112 47.5189 72.4857 47.7941 70.833 46.9758C69.4165 46.2746 68.6997 44.7135 67.1932 44.3216C65.4225 43.8608 64.1746 45.062 62.6619 43.2675Z" fill="#F68F8D"/>
<path d="M105.967 63.9436C103.991 63.1625 102.786 61.0084 102.686 58.8861C102.587 56.7639 103.432 54.6945 104.584 52.909C102.81 53.8252 100.578 53.5504 98.861 52.5334C97.1437 51.5164 95.892 49.8487 95.0116 48.0575C94.1034 46.2101 93.5994 43.8465 94.8346 42.1996C95.9906 40.6587 98.2432 40.3866 100.116 40.837C101.989 41.2874 103.678 42.3029 105.513 42.8863C103.627 40.3862 102.782 37.1239 103.218 34.0223C103.385 32.8332 103.764 31.6171 104.617 30.7726C105.963 29.4415 108.109 29.3752 109.972 29.7109C112.423 30.1527 114.89 31.2415 116.312 33.2857C117.734 35.3298 117.746 38.4591 115.863 40.0894C118.751 38.3722 122.092 37.4234 125.452 37.3665C128.418 37.316 132.022 38.5774 132.434 41.5158C132.842 44.4324 129.842 46.5897 127.17 47.8289C125.619 48.5485 123.892 49.2226 122.239 48.7864C123.831 49.7894 125.758 50.0798 127.504 50.7805C129.251 51.4812 130.978 52.8696 131.077 54.7486C131.157 56.2587 130.117 57.6498 128.821 58.4288C127.525 59.2078 126.001 59.4926 124.514 59.7642C122.522 60.1278 120.622 60.3779 118.603 60.1469C117.301 59.998 116.016 59.364 114.723 59.8922C111.541 61.1931 110.384 65.6895 105.967 63.9436Z" fill="#F68F8D"/>
<path d="M106.513 75.4568C107.072 73.5606 108.119 71.6859 109.861 70.752C111.603 69.8183 114.121 70.1877 115.082 71.9151C114.637 70.4763 115.141 68.9085 115.877 67.5947C116.922 65.732 118.571 64.0695 120.662 63.6333C122.752 63.1971 125.232 64.3702 125.71 66.4515C126.143 68.3372 124.933 70.1693 123.786 71.7276C125.241 69.3287 128.37 68.0346 131.056 68.8473C133.742 69.6599 135.649 72.5961 135.16 75.3589C134.67 78.1217 131.736 80.2486 128.98 79.7198C131.009 79.5399 133.165 80.4669 134.21 82.2143C135.256 83.9616 134.961 86.4738 133.376 87.7519C131.86 88.974 129.666 88.8768 127.789 88.3605C125.346 87.6888 123.198 86.2779 122.168 83.9102C121.523 85.559 121.188 89.7584 118.428 89.4769C116.844 89.3153 116.502 87.4895 116.029 86.2341C114.093 81.0914 111.47 78.066 106.513 75.4568Z" fill="#F68F8D"/>
<path d="M127.509 121.651C116.149 126.944 102.496 129.656 91.2567 124.111C102.514 121.466 113.843 119.127 125.226 117.096C118.311 113.137 111.396 109.179 104.481 105.22C101.688 103.621 98.8487 101.986 96.6647 99.6225C94.7611 97.5628 93.4366 95.0346 91.6323 92.8872C86.3161 86.5589 77.2586 84.2771 69.0838 85.4955C60.9093 86.714 53.4889 90.9582 46.83 95.854C47.491 92.6115 48.8806 89.5198 50.8665 86.8724C41.4843 87.4147 31.9364 83.953 25.0821 77.5238C41.134 78.8081 57.186 80.0928 73.2378 81.3772C75.2558 81.5388 78.0219 81.0986 78.143 79.0779C78.2258 77.6966 76.9004 76.7188 75.9624 75.7014C74.4418 74.0516 73.7439 71.6783 74.1293 69.4681C83.9361 75.0494 93.1184 81.7274 101.45 89.3371C101.494 84.1655 100.286 78.9876 97.9556 74.3704C95.9056 70.3082 93.0186 66.7001 91.1157 62.5671C89.5247 59.1116 88.6431 55.3337 86.738 52.0414C83.8797 47.1014 78.8316 43.4446 77.0805 38.0128C76.1297 35.0628 76.2829 31.771 77.504 28.9221C77.6843 28.5018 77.9278 28.0527 78.3601 27.9031C78.6902 27.7891 79.0542 27.8798 79.3813 28.0022C81.6034 28.8322 83.0324 30.9541 84.312 32.9516C90.0775 41.9513 95.8432 50.9511 101.609 59.9507C102.869 61.9171 104.144 63.9172 104.806 66.157C105.803 69.5313 105.332 73.1905 106.199 76.6007C106.923 79.4486 108.568 82.0727 108.765 85.0047C109.009 88.6411 106.983 92.2944 107.888 95.8249C109.049 100.358 114.239 102.331 118.692 103.77C134.909 109.01 150.485 116.232 164.962 125.224C166.126 125.946 167.327 126.726 168.014 127.912C169.556 130.574 167.889 133.93 165.961 136.328C164.106 138.636 162.419 143.657 159.452 142.293C155.795 140.614 152.358 137.229 148.727 135.24C144.927 133.16 141.028 131.257 137.302 129.042C136.282 128.436 127.613 121.603 127.509 121.651Z" fill="#4E3B31"/>
<path d="M114.56 125.335C113.37 126.236 112.351 127.361 111.574 128.635C110.484 130.417 107.969 135.525 109.205 137.366C111.166 136.206 112.651 134.02 113.544 131.952C113.938 131.039 114.311 125.524 114.56 125.335Z" fill="#BED665"/>
<path d="M99.0282 103.992C99.5339 103.608 100.029 103.09 100.033 102.455C100.035 102.108 99.8886 101.781 99.7848 101.45C99.4637 100.424 99.5535 99.3162 99.3561 98.2593C98.9831 96.2629 97.5107 94.5085 95.6091 93.7951C96.7346 94.2175 91.669 103.305 91.8115 104.153C92.3075 107.1 97.4746 105.17 99.0282 103.992Z" fill="#BED665"/>
<path d="M86.2499 66.7389C83.3684 66.5703 78.8082 76.4939 84.1876 75.911C87.9759 75.5006 91.3584 67.0376 86.2499 66.7389Z" fill="#BED665"/>
<path d="M124.304 62.5182C125.764 63.3381 126.672 64.4915 126.878 65.8084C126.988 66.504 126.743 67.3798 126.374 68.2164C129.673 67.5853 134.439 67.7961 135.9 70.4809C136.98 72.4634 135.607 75.8507 133.656 77.98C133.011 78.6839 132.343 79.2048 131.682 79.5307C132.725 80.5404 133.622 81.6442 133.76 82.1027C134.538 84.702 131.771 87.5055 129.524 88.2934C127.901 88.8619 124.776 89.1169 123.218 87.8662C122.583 87.356 122.368 86.3456 122.178 85.4542C122.149 85.3181 122.114 85.1539 122.077 84.9982C121.631 85.5491 121.411 86.2124 121.181 86.906C120.649 88.5129 120.046 90.3344 116.69 90.6978C115.442 90.8328 114.549 90.5972 113.961 89.9779C112.935 88.8976 113.232 87.0597 113.545 85.1137C113.833 83.3299 114.13 81.4853 113.35 80.5682C112.377 79.4247 111.113 78.667 109.89 77.9343C107.739 76.6456 105.515 75.3127 106.607 72.1681C108.045 68.0303 111.826 68.8219 113.857 69.2468C114.281 69.3355 114.832 69.4512 115.128 69.4593C115.06 69.2878 114.918 69.0352 114.822 68.867C114.493 68.2859 114.121 67.627 114.265 66.9141C114.741 64.5704 116.784 61.9034 119.381 61.4964C120.679 61.2926 122.375 61.5862 123.808 62.2628C123.98 62.3439 124.145 62.4292 124.304 62.5182ZM124.503 68.7222C125.067 67.7453 125.548 66.5909 125.46 66.0308C125.254 64.715 123.953 63.9198 123.196 63.5614C122.028 63.0094 120.618 62.7558 119.604 62.9148C117.651 63.2212 116.043 65.3774 115.673 67.1995C115.635 67.3869 115.898 67.8526 116.073 68.1606C116.43 68.7916 117.027 69.8472 116.136 70.5915C115.562 71.0707 114.724 70.8952 113.564 70.6522C110.971 70.1094 108.912 69.9112 107.965 72.6392C107.286 74.5946 108.35 75.3375 110.629 76.7027C111.89 77.4583 113.319 78.3144 114.445 79.6376C115.654 81.0593 115.288 83.3345 114.964 85.3419C114.72 86.8576 114.467 88.4241 115.004 88.9893C115.259 89.2593 115.775 89.3527 116.537 89.2705C118.974 89.0062 119.329 87.9358 119.819 86.4548C120.144 85.4742 120.512 84.363 121.554 83.4921C121.988 83.1293 122.383 83.1889 122.579 83.2566C123.227 83.4804 123.383 84.2191 123.583 85.1543C123.695 85.6788 123.882 86.5568 124.119 86.7471C125.149 87.579 127.685 87.4169 129.05 86.9384C130.709 86.3565 132.888 84.1946 132.385 82.5147C132.206 82.0829 131.021 80.8317 129.993 79.9326C129.646 79.9208 129.31 79.8457 128.989 79.7059C128.249 79.4343 127.862 79.1576 127.704 78.7871C127.608 78.5615 127.608 78.3157 127.705 78.0948C127.871 77.7132 128.244 77.4922 128.678 77.5184C129.127 77.5448 129.774 77.9229 130.457 78.4549C131.108 78.3143 131.859 77.8161 132.598 77.0095C134.313 75.1381 135.286 72.3533 134.64 71.1668C133.658 69.3624 129.617 68.9793 126.438 69.658C126.068 69.737 125.741 69.8229 125.455 69.9121C125.181 70.3396 124.926 70.6832 124.754 70.8836C124.274 71.4416 123.568 72.0731 122.925 71.9165C122.604 71.8374 122.363 71.5887 122.283 71.2495C122.147 70.6748 122.248 69.5847 124.452 68.7411C124.469 68.735 124.486 68.7285 124.503 68.7222Z" fill="#231F20"/>
<path d="M31.9503 112.5C32.1553 112.616 32.3005 112.827 32.3204 113.072C32.3661 113.634 31.9696 113.807 31.0116 114.226C30.7209 114.353 29.9988 114.66 29.575 114.769C28.8729 114.949 28.6119 114.554 28.5322 114.377C28.256 113.761 28.8448 113.366 29.1966 113.129C29.6571 112.82 30.5898 112.315 31.6618 112.411C31.7655 112.42 31.8634 112.452 31.9503 112.5ZM29.5971 113.725L29.5946 113.724L29.5971 113.725Z" fill="#231F20"/>
<path d="M38.3297 104.31C38.6154 104.471 38.763 104.812 38.6665 105.14C38.5864 105.411 38.5373 105.593 38.5021 105.723C38.3915 106.132 38.3601 106.203 38.1245 106.57C38.0597 106.672 37.9727 106.807 37.8532 107C37.6446 107.337 37.2106 107.443 36.865 107.234C36.5278 107.025 36.4231 106.583 36.6314 106.246C36.7568 106.043 36.8477 105.901 36.916 105.795C37.053 105.581 37.053 105.581 37.1155 105.35C37.1527 105.212 37.2044 105.021 37.2891 104.734C37.4012 104.353 37.8005 104.136 38.1809 104.248C38.234 104.263 38.2837 104.285 38.3297 104.31Z" fill="#231F20"/>
<path d="M52.1475 63.1043C52.3165 63.1992 52.4469 63.3616 52.4949 63.5654C52.5862 63.9512 52.3473 64.338 51.9617 64.4291L51.3644 64.5703C51.0992 64.6329 50.8219 64.5401 50.6482 64.3316L50.3717 64.0006L49.7329 63.6068C49.3954 63.3986 49.2906 62.9565 49.4988 62.619C49.7073 62.2816 50.1536 62.1834 50.4868 62.3846L51.2251 62.8398C51.2912 62.8805 51.3499 62.9313 51.3994 62.991L51.4666 63.0712L51.632 63.0323C51.8135 62.9889 51.9962 63.0194 52.1475 63.1043Z" fill="#231F20"/>
<path d="M114.982 124.8C115.597 125.146 115.852 126.148 116.087 127.313C116.114 127.443 116.132 127.544 116.148 127.598C117.477 131.669 115.558 133.672 112.703 136.058C112.253 136.433 111.147 137.065 110.263 137.531C108.209 138.613 107.989 138.533 107.71 138.431C107.47 138.343 107.277 138.114 107.232 137.861C107.151 137.396 107.516 137.091 107.711 136.928C108.489 136.278 109.023 134.144 109.54 132.081C110.442 128.479 111.463 124.398 114.576 124.677C114.727 124.69 114.861 124.733 114.982 124.8ZM109.855 136.121C110.669 135.683 111.485 135.204 111.782 134.956C114.654 132.557 115.806 131.177 114.781 128.036C114.75 127.943 114.727 127.829 114.68 127.598C114.525 126.831 114.387 126.328 114.269 126.101C112.502 126.159 111.67 129.484 110.932 132.429C110.586 133.814 110.266 135.093 109.855 136.121Z" fill="#231F20"/>
<path d="M54.9631 68.6133C55.2017 68.7473 55.3527 69.0128 55.3268 69.3035L55.2578 70.0764C55.2406 70.266 55.149 70.4415 55.003 70.5637L53.53 71.7942C53.4444 71.8657 53.3435 71.9164 53.2346 71.942L52.0405 72.2243C51.654 72.3159 51.2681 72.0769 51.1768 71.6911C51.0855 71.3053 51.3244 70.9184 51.71 70.8274L52.739 70.584L53.8539 69.6526L53.8962 69.1759C53.9316 68.7808 54.2802 68.4895 54.6751 68.5245C54.7801 68.534 54.8774 68.5652 54.9631 68.6133Z" fill="#231F20"/>
<path d="M130.097 36.9796C130.208 37.0419 130.317 37.1076 130.421 37.1763C131.686 38.0058 132.996 39.6612 132.06 42.8356C131.515 44.682 129.118 47.2121 126.798 48.4345C127.649 48.9304 128.266 49.3595 128.28 49.3718C130.269 51.1629 129.61 56.142 128.713 58.198C128.206 59.3607 127.029 60.2594 125.309 60.7975C122.728 61.6052 119.489 61.4062 117.779 60.3605C117.459 60.1632 117.015 59.6915 116.257 58.8742C115.771 58.3498 114.984 57.5018 114.646 57.2565C113.743 57.4201 112.912 58.6958 112.107 59.9316C111.342 61.1055 110.551 62.3194 109.513 62.8842C106.942 64.2842 105.233 63.5062 104.251 62.6075C101.78 60.3437 101.483 55.2023 102.45 52.5704C102.06 52.3306 101.144 51.9931 100.38 51.7101C97.2512 50.551 92.5215 48.7984 92.8776 44.8283C93.225 40.9523 96.3808 38.1302 100.916 37.6385C101.522 37.5728 102.283 37.6282 103.026 37.8416C102.653 36.6803 102.556 35.5028 102.754 34.3663C103.134 32.1777 104.557 30.3035 106.869 28.9464C108.297 28.1082 110.066 27.9859 111.85 28.6026C114.085 29.3754 116.112 31.2327 116.895 33.2247C117.182 33.9553 117.811 35.7806 117.74 37.5746C121.342 35.9869 126.948 35.2119 130.097 36.9796ZM125.169 47.5808C127.254 46.933 130.181 44.1339 130.683 42.4292C131.243 40.533 130.899 39.2073 129.634 38.3766C126.444 36.275 118.901 37.9061 116.343 40.0429C115.771 40.5206 115.369 40.1793 115.26 40.0638C115.085 39.8793 114.868 39.4892 115.376 38.9457C116.137 38.1303 116.271 37.84 116.293 37.7533C116.388 36.6721 116.115 35.1665 115.558 33.7489C114.931 32.1508 113.213 30.5924 111.381 29.9588C110.404 29.6214 108.955 29.3862 107.596 30.1843C105.659 31.321 104.474 32.8518 104.169 34.6115C103.9 36.1567 104.324 37.8229 105.368 39.3874C105.444 39.4773 105.523 39.5739 105.606 39.6772C106.174 40.3852 106.327 40.5753 106.243 40.9492C106.184 41.216 105.978 41.4263 105.712 41.4908C105.272 41.598 105.014 41.2905 104.905 41.1591C104.658 40.8634 104.431 40.5626 104.223 40.2575C104.05 40.0534 103.883 39.8713 103.775 39.7847C103.048 39.1982 101.864 38.9795 101.071 39.0654C98.0273 39.3955 94.6522 41.1165 94.3078 44.956C94.05 47.8335 98.1596 49.3562 100.879 50.3638C102.711 51.0421 103.603 51.3976 103.884 52.0585C103.994 52.317 103.993 52.6005 103.882 52.8569C103.882 52.8569 103.882 52.8569 103.882 52.8571C102.888 55.137 103.368 59.8512 105.221 61.5488C106.16 62.4098 107.339 62.4331 108.827 61.6232C109.547 61.2316 110.237 60.1721 110.905 59.1476C111.947 57.5483 113.024 55.8953 114.709 55.8065C115.29 55.7757 115.821 56.2928 117.31 57.8976C117.751 58.3724 118.354 59.0233 118.534 59.1393C119.888 59.974 122.729 60.1006 124.881 59.4278C126.173 59.0232 127.067 58.383 127.398 57.6244C128.237 55.6995 128.548 51.5444 127.32 50.439C127.021 50.1937 125.999 49.5921 124.992 49.0963C124.804 49.1298 124.62 49.1492 124.443 49.1529C124.309 49.1559 124.146 49.171 123.973 49.1861C123.193 49.255 122.387 49.3254 121.904 48.8431C121.682 48.6201 121.576 48.3165 121.605 47.9874C121.646 47.5318 121.908 47.1768 122.323 47.0134C122.987 46.7517 124.091 47.0881 125.169 47.5808ZM102.564 52.2846C102.564 52.2841 102.565 52.2835 102.565 52.283L102.565 52.2833C102.565 52.2835 102.564 52.2841 102.564 52.2846Z" fill="#231F20"/>
<path d="M35.6305 106.867C35.9398 107.041 36.2318 107.287 36.4961 107.604C37.0016 108.209 37.0504 108.922 36.6259 109.51C35.7999 110.653 32.9746 111.205 32.3666 110.966C31.833 110.755 31.5217 110.251 31.5337 109.617C31.5523 108.595 32.4576 107.145 33.7264 106.698C34.3762 106.469 35.0356 106.533 35.6305 106.867ZM35.4789 108.642C35.4728 108.639 35.4544 108.595 35.3944 108.524C34.8073 107.821 34.3233 107.967 34.0115 108.139C33.3705 108.491 32.9956 109.254 32.9666 109.597C33.7116 109.543 35.3322 109.026 35.4794 108.642C35.4791 108.642 35.4789 108.642 35.4789 108.642ZM32.6301 110.298L32.6276 110.296L32.6301 110.298Z" fill="#231F20"/>
<path d="M45.8096 96.2048C46.4781 96.5796 47.207 97.1195 48.0096 97.8684C48.193 98.0391 48.397 98.2165 48.6092 98.4018C49.6154 99.2784 50.8676 100.37 51.2079 101.806C51.9907 105.116 50.1012 108.586 46.8133 109.878C46.5811 109.969 46.2608 109.998 45.6673 110.046C45.5583 110.055 45.4159 110.066 45.2637 110.081C45.4268 110.201 45.5208 110.28 45.5932 110.366L45.7333 110.534C47.5808 112.741 51.0194 116.848 48.948 119.899C48.0884 121.165 42.2305 126.849 39.6646 126.245C37.6301 125.766 35.627 122.817 35.0852 121.821C34.8356 121.363 34.789 120.713 34.75 120.077C34.2493 120.602 33.7935 121.191 33.3198 121.804C31.9388 123.59 30.3729 125.614 27.2992 126.096C23.2324 126.733 21.6039 124.575 20.9944 123.232C19.4849 119.903 20.8768 114.715 23.9729 112.128C24.2713 111.879 24.3459 111.73 24.3627 111.686C24.1211 111.211 21.8347 110.581 20.4624 110.204C17.0631 109.267 13.2102 108.207 13.4562 105.465C13.7323 102.389 17.29 100.135 18.8066 99.3093C19.2295 99.0791 19.8538 99.1542 21.1133 99.332C21.4673 99.3819 21.9592 99.4512 22.3622 99.4864C22.2265 99.3246 22.0766 99.1588 21.9603 99.0304C21.5031 98.5244 21.0302 98.0012 20.8523 97.4558C19.8474 94.3776 22.2013 89.9898 24.8335 88.5567C29.5566 85.9853 34.7952 91.0263 37.4976 94.2604C38.4669 95.4205 38.2607 96.1362 37.8901 96.9513C37.7762 97.2025 37.658 97.4622 37.5786 97.7996C37.5635 97.8642 37.5423 97.927 37.517 97.9892C38.4139 97.811 39.1679 97.3212 39.9541 96.8111C41.4799 95.8187 43.1687 94.7224 45.8096 96.2048ZM44.5157 111.315C44.4578 111.267 44.3088 111.16 44.1978 111.081C43.4079 110.513 42.8367 110.103 43.119 109.453C43.3949 108.82 44.2232 108.722 45.5517 108.615C45.8291 108.592 46.2083 108.561 46.3115 108.533C48.8731 107.526 50.4202 104.712 49.811 102.136C49.5773 101.148 48.5622 100.264 47.6666 99.4839C47.441 99.2875 47.225 99.0991 47.0307 98.9179C43.8753 95.9761 42.5582 96.8302 40.7359 98.0136C39.5594 98.7774 38.2259 99.6437 36.3258 99.4731C36.0097 99.4449 35.7493 99.2671 35.6282 98.9976C35.4137 98.5216 35.7209 98.1056 35.9673 97.771C36.0376 97.6758 36.1532 97.5191 36.1857 97.4494C36.2975 96.9846 36.4557 96.6365 36.5831 96.356C36.8315 95.8092 36.8636 95.739 36.3957 95.1793C34.447 92.8474 29.4868 87.6565 25.5202 89.816C23.4252 90.9566 21.4473 94.6494 22.2173 97.0086C22.3007 97.2635 22.7027 97.7084 23.0258 98.066C23.5684 98.6662 24.0806 99.2333 24.1477 99.8558C24.1783 100.137 24.0801 100.41 23.8786 100.606C23.3925 101.076 22.5276 100.979 20.9131 100.752C20.4175 100.682 19.681 100.578 19.4336 100.601C18.344 101.202 15.1022 103.184 14.8864 105.591C14.748 107.14 18.2715 108.109 20.8439 108.818C23.5422 109.561 25.4917 110.097 25.772 111.391C25.9069 112.011 25.6111 112.629 24.894 113.229L24.4338 112.678L24.894 113.229C22.3374 115.365 21.0778 119.937 22.3025 122.637C23.0747 124.34 24.7258 125.045 27.0773 124.676C29.5871 124.282 30.8487 122.651 32.1848 120.924C32.8822 120.022 33.6034 119.091 34.5154 118.328C34.9502 117.965 35.3469 118.077 35.4972 118.141C36.0858 118.393 36.1277 119.072 36.1799 119.929C36.2033 120.308 36.2417 120.941 36.3466 121.134C37.0752 122.471 38.7937 124.562 39.9942 124.846C41.3585 125.168 46.6333 120.752 47.7604 119.091C49.2233 116.937 46.1229 113.234 44.6327 111.455L44.5157 111.315ZM36.1808 97.47C36.1811 97.4689 36.1812 97.468 36.1816 97.4668C36.1811 97.4682 36.1811 97.4689 36.1808 97.47ZM44.4961 111.292L44.4919 111.287C44.4935 111.288 44.4946 111.29 44.4961 111.292ZM24.3671 111.672L24.3646 111.67L24.3671 111.672Z" fill="#231F20"/>
<path d="M52.0005 58.2239C52.1697 58.3189 52.3002 58.4813 52.348 58.6853L52.45 59.1167L54.0996 61.0914C54.3536 61.3957 54.3129 61.8483 54.0088 62.1027C53.7044 62.3569 53.2519 62.316 52.9975 62.0119L51.2387 59.9067C51.1675 59.821 51.1168 59.7201 51.0913 59.6113L50.9506 59.0149C50.8592 58.6291 51.0986 58.2426 51.4843 58.1515C51.6666 58.1083 51.8492 58.139 52.0005 58.2239Z" fill="#231F20"/>
<path d="M34.1602 111.724C34.2343 111.766 34.302 111.821 34.3595 111.89L34.7113 112.311C34.8653 112.496 34.9168 112.745 34.8491 112.975L34.5692 113.923C34.529 114.059 34.4497 114.179 34.3411 114.27L33.7097 114.798C33.4054 115.053 32.9518 115.011 32.6985 114.708C32.4441 114.403 32.4848 113.951 32.7889 113.696L33.2536 113.308L33.3632 112.937L33.258 112.811C33.0036 112.507 33.0445 112.054 33.3485 111.8C33.5836 111.603 33.9078 111.583 34.1602 111.724Z" fill="#231F20"/>
<path d="M52.995 66.6848C53.0691 66.7264 53.137 66.782 53.1946 66.8512L53.546 67.2724C53.8002 67.5764 53.7593 68.0292 53.4551 68.2832L53.0342 68.6348C52.915 68.7345 52.7668 68.7926 52.6114 68.8008L51.3065 68.8692L50.1759 69.1365C49.7893 69.228 49.4035 68.9891 49.3122 68.6033C49.2208 68.2175 49.4597 67.8306 49.8454 67.7395L51.0391 67.4573C51.081 67.4472 51.1235 67.4411 51.1666 67.439L51.9304 67.3988C51.9018 67.1651 51.9888 66.9222 52.1831 66.7602C52.4187 66.5635 52.7428 66.5433 52.995 66.6848Z" fill="#231F20"/>
<path d="M30.3579 104.179C30.5269 104.274 30.6574 104.437 30.7053 104.641L30.8075 105.073L31.3277 105.695L31.9663 106.089C32.3035 106.298 32.4082 106.74 32.1999 107.077C31.9917 107.415 31.5626 107.524 31.2117 107.311L30.4739 106.855C30.4083 106.815 30.3496 106.764 30.3003 106.705L29.5968 105.863C29.5256 105.778 29.4749 105.677 29.4494 105.568L29.3082 104.971C29.2169 104.585 29.4558 104.199 29.8415 104.108C30.024 104.064 30.2064 104.094 30.3579 104.179Z" fill="#231F20"/>
<path d="M58.8264 68.9602C58.9957 69.0553 59.126 69.2179 59.1739 69.4217L59.3146 70.0183C59.3433 70.1395 59.3397 70.2662 59.3044 70.386L59.0253 71.3344C58.9852 71.4703 58.9059 71.5917 58.7966 71.6825L58.3755 72.0339C58.0715 72.288 57.6178 72.2474 57.3645 71.9426C57.1105 71.6383 57.1513 71.1854 57.4558 70.9316L57.7095 70.7196L57.8738 70.1622L57.7768 69.7508C57.6856 69.3647 57.925 68.9782 58.3105 68.8873C58.4928 68.8448 58.6752 68.8754 58.8264 68.9602Z" fill="#231F20"/>
<path d="M63.906 60.0698C64.1013 60.1795 64.2429 60.3788 64.2686 60.6188C64.3114 61.013 64.0267 61.3671 63.6324 61.4096C63.3316 61.4422 63.1521 61.4729 63.0214 61.495C62.5943 61.5678 62.445 61.5462 62.0228 61.3511C61.9469 61.3157 61.8505 61.2715 61.7228 61.2156C61.3559 61.0561 61.193 60.6337 61.3519 60.2708C61.5104 59.9073 61.9334 59.741 62.2967 59.8999C62.4367 59.9607 62.5423 60.0097 62.6251 60.048C62.6617 60.0649 62.6915 60.0793 62.7174 60.0912C62.736 60.0881 62.7566 60.0842 62.7806 60.0803C62.9212 60.0561 63.1336 60.0203 63.4775 59.9831C63.632 59.9654 63.7803 59.9993 63.906 60.0698Z" fill="#231F20"/>
<path d="M68.6976 24.3769C68.8431 24.4586 68.9868 24.5551 69.1278 24.6665C70.3592 25.6392 71.219 27.6273 71.2206 28.8031C71.222 29.6044 71.1662 30.3232 71.05 30.9906C71.9826 30.814 73.0593 30.6716 74.0845 30.7136C76.9268 30.8305 77.8695 32.3182 78.1601 33.5459C78.6 35.405 77.5217 37.4409 74.9554 39.5989C75.5953 40.4787 76.0822 41.5014 76.0829 41.8939C76.0864 44.6777 76.0892 46.8766 72.0893 47.1801C70.0135 47.3373 68.4349 47.0311 67.3976 46.2767C66.8408 45.8713 66.6839 45.0914 66.5761 44.3549C66.5508 44.397 66.5259 44.439 66.5013 44.4811C66.2154 44.9651 65.8914 45.5136 65.2222 45.6786C64.6742 45.8143 64.0701 45.6516 63.2634 45.1541C62.0125 44.3818 60.3296 42.6406 61.7591 39.2275C60.8187 39.2232 59.7403 38.8336 58.6957 38.0724C56.8697 36.7409 55.5356 34.4527 56.6731 32.3423C57.1674 31.4248 57.7877 30.871 58.5166 30.6954C59.6575 30.421 60.7025 31.1399 61.4667 31.6667C61.2799 30.57 61.2528 30.2545 61.3084 30.0187C61.8053 27.9073 64.653 24.6609 66.9963 24.1063C67.5639 23.9727 68.144 24.0662 68.6976 24.3769ZM69.6042 30.916C69.7273 30.2844 69.7864 29.5935 69.7848 28.8056C69.7839 28.0839 69.1339 26.5011 68.2378 25.7933C67.7449 25.4043 67.4309 25.4797 67.327 25.504C65.6893 25.8916 63.1738 28.5157 62.7185 30.2971C62.7271 30.5407 62.8666 31.3404 62.943 31.7791C63.126 32.8282 63.1591 33.0174 62.8208 33.2987C62.1338 33.8726 61.3503 33.3307 60.6582 32.8537C60.0858 32.4586 59.3729 31.9663 58.8525 32.0921C58.5377 32.1679 58.2297 32.4813 57.9374 33.0243C57.2105 34.3727 58.2197 35.9491 59.542 36.9132C60.765 37.8035 62.096 38.0481 62.6407 37.4813C63.1415 36.9599 63.5582 37.1826 63.7129 37.3024C64.0561 37.5668 64.0802 37.9468 63.7847 38.4316C62.2101 41.0145 62.2886 42.8657 64.0178 43.9331C64.6623 44.332 64.8698 44.2878 64.8783 44.2857C64.9623 44.265 65.1519 43.9437 65.2655 43.7519C65.4878 43.3752 65.7649 42.9061 66.2332 42.5147C66.6396 42.1751 67.0096 42.2438 67.1943 42.3149C67.7678 42.5344 67.861 43.1804 67.9654 43.9253C68.0133 44.2659 68.1124 44.9752 68.2557 45.1271C68.9881 45.6607 70.2802 45.8778 71.9814 45.7491C74.6345 45.5477 74.6512 44.7115 74.6477 41.9528C74.5496 41.6155 74.073 40.8132 73.6277 40.2261C73.1477 40.3643 72.6325 40.4064 72.2732 40.1349C72.1311 40.0284 71.694 39.6204 72.0353 38.838C72.2677 38.3049 72.7423 38.0425 73.2737 38.1531C73.5019 38.2005 73.7431 38.3375 73.9858 38.5327C73.9953 38.5275 74.004 38.5221 74.0123 38.5173C76.1439 36.7307 77.0695 35.1696 76.7635 33.8769C76.5977 33.1767 76.1333 32.2353 74.0261 32.1487C72.5302 32.0875 70.8177 32.4928 69.7947 32.7349C69.3464 32.8402 69.0418 32.6073 68.9165 32.376C68.638 31.8614 69.0415 31.478 69.2826 31.2485C69.368 31.1667 69.5381 31.005 69.6042 30.916ZM69.5914 30.98C69.5915 30.9797 69.5914 30.9793 69.5916 30.9791C69.5914 30.9793 69.5915 30.9797 69.5914 30.98ZM73.989 38.5358C73.9905 38.5343 73.9921 38.5333 73.9936 38.5318C73.9921 38.5333 73.9904 38.5346 73.989 38.5358Z" fill="#231F20"/>
<path d="M58.1998 61.334C59.9312 62.3059 60.1814 64.127 59.5265 65.4398C58.8846 66.7259 57.28 67.6893 55.2733 66.7654C54.3615 66.3465 53.8228 65.5785 53.7537 64.6035C53.6684 63.4074 54.3385 62.1003 55.383 61.4251C56.2464 60.8672 57.2507 60.8214 58.1383 61.2999C58.1591 61.3115 58.1795 61.3227 58.1998 61.334ZM55.8736 65.4612C57.0967 66.0243 57.914 65.4563 58.2419 64.7987C58.5966 64.0877 58.4958 63.1269 57.4572 62.5643C57.0262 62.3319 56.5907 62.3546 56.1625 62.6312C55.5576 63.0223 55.1378 63.8266 55.1858 64.5019C55.2176 64.9491 55.4432 65.2648 55.8736 65.4612Z" fill="#231F20"/>
<path d="M79.4064 29.8002C80.105 30.1923 81.1453 31.0674 82.8483 32.6825C82.938 32.7674 82.9991 32.8258 83.0239 32.8479C86.8574 36.1407 90.0075 40.2299 92.8401 44.1578C98.7801 52.3967 105.323 62.0541 107.774 72.4148C108.677 76.2281 108.562 80.0852 108.45 83.8153C108.291 89.1455 108.141 94.1798 110.76 98.9893C112.752 102.648 120.711 106.032 124.987 107.849C125.533 108.081 126.034 108.294 126.475 108.486C129.205 109.676 132.068 110.818 135.098 112.027C144.111 115.622 153.431 119.34 160.602 124.86C161.004 125.171 161.683 125.575 162.468 126.045C165.4 127.794 169.414 130.191 169.14 133.243C169.017 134.618 167.713 136.699 166.15 139.078C165.681 139.792 165.276 140.408 165.106 140.742C165.061 140.831 164.916 141.158 164.761 141.504C163.072 145.293 162.889 145.505 162.232 145.415C161.459 145.308 160.693 144.947 160.078 144.399C156.898 141.565 153.725 139.359 150.367 137.023C148.945 136.034 147.475 135.012 145.987 133.927C144.603 132.918 143.278 131.868 141.996 130.853C138.736 128.269 135.657 125.828 131.819 124.156C130.401 123.538 127.009 124.294 124.765 124.795C123.819 125.006 123.002 125.188 122.374 125.275C117.072 126.008 111.264 126.05 104.093 125.407C103.748 125.376 103.396 125.346 103.039 125.315C100.482 125.094 97.5852 124.844 95.1263 124.204C94.9738 124.164 93.6305 123.792 93.4452 122.969C93.3713 122.639 93.4875 122.307 93.7571 122.082C94.908 121.12 97.836 121.202 100.736 121.368C101.125 121.39 101.45 121.409 101.678 121.414C106.322 121.52 123.801 120.21 126.022 118.354C126.086 118.3 126.162 118.224 126.153 118.173C126.128 118.029 125.828 117.229 122.399 115.643C120.218 114.632 117.634 113.694 115.747 113.01C114.789 112.662 114.031 112.387 113.616 112.206C109.502 110.413 106.097 106.325 102.8 102.371C100.636 99.7748 98.5909 97.3225 96.4364 95.5896C85.6074 86.8782 73.6487 83.748 61.8565 86.5383C60.2412 86.9205 57.2444 89.0284 54.3463 91.067C49.8208 94.2504 46.9633 96.1816 45.3159 95.7937C45.0712 95.7357 44.8553 95.5378 44.7776 95.3003C44.6133 94.7981 44.8247 94.5499 46.2029 92.9352C47.1352 91.8433 49.9637 88.5289 49.8172 87.69C49.8162 87.6882 49.8153 87.6863 49.8141 87.6843C49.6516 87.7199 49.4285 87.7606 49.137 87.7666C42.8783 87.8997 37.9402 86.8412 33.1256 84.3347C31.659 83.5714 28.9257 81.9608 27.0717 79.7413C26.9923 79.6463 26.854 79.5101 26.7079 79.3662C26.1428 78.8102 25.6087 78.2852 25.7386 77.6502C25.8021 77.3387 26.0216 77.0885 26.3403 76.9635C26.6594 76.838 26.6653 76.8357 32.0092 78.2462C35.6046 79.1954 40.5283 80.4955 41.5238 80.5847C44.8922 80.8866 48.0759 80.604 51.4462 80.3041C53.4648 80.125 55.5524 79.9398 57.6663 79.8948C59.6116 79.8533 61.6187 79.8949 63.744 79.9386C68.6149 80.0394 73.6446 80.1434 78.0478 79.2071C77.5022 77.5093 74.7838 72.2984 74.1661 71.521C74.1466 71.5054 74.1241 71.4902 74.1024 71.4744C73.9196 71.3408 73.6132 71.1175 73.5993 70.7017C73.5914 70.4589 73.696 70.2278 73.8869 70.0679C74.5562 69.5097 75.4307 69.8999 79.5949 73.419C79.8425 73.6285 80.02 73.7792 80.093 73.8352C85.27 77.8209 90.7549 82.1344 95.9054 87.1793L96.1064 87.379C96.7033 87.9742 98.5196 89.7856 99.5047 89.708C99.6133 89.6991 99.7431 89.665 99.8816 89.4753C101.783 86.8665 100.302 81.2278 98.2826 76.8207C96.493 72.9165 95.0553 68.9234 93.6654 65.0614C91.1744 58.1414 88.8214 51.6055 84.6107 45.5211C82.7389 42.8157 81.48 39.7788 80.2621 36.8418C79.6496 35.3647 79.0165 33.837 78.3234 32.4061L78.2694 32.2988C77.9335 31.6358 77.3083 30.4013 78.0857 29.752C78.4018 29.4886 78.7561 29.4352 79.4064 29.8002ZM116.059 105.226C113.183 103.612 110.62 101.735 109.499 99.6759C106.694 94.5252 106.857 89.0588 107.015 83.7725C107.124 80.1358 107.236 76.3747 106.377 72.7456C103.986 62.6413 97.5348 53.1245 91.6758 44.9979C88.8951 41.1417 85.8089 37.1323 82.0847 33.9339C82.0597 33.9126 81.9806 33.8383 81.8607 33.7245C80.788 32.7072 80.0545 32.0663 79.5555 31.6624L79.6154 31.7826C80.3262 33.2501 80.9677 34.7976 81.5882 36.2938C82.7769 39.1613 84.0064 42.1264 85.7914 44.7059C90.1085 50.9446 92.6033 57.8749 95.0162 64.5769C96.3963 68.4109 97.8233 72.3751 99.5874 76.2244C100.65 78.5424 103.893 86.4092 101.041 90.3226C100.684 90.813 100.192 91.0956 99.6168 91.1407C98.1727 91.2544 96.5887 89.8889 95.0923 88.3973L94.9004 88.2066C89.8065 83.2169 84.3593 78.9341 79.2168 74.9744C79.1366 74.9126 78.9405 74.7475 78.6679 74.5174C77.8223 73.8028 77.1371 73.2407 76.5821 72.8011C76.9751 73.5235 77.3927 74.3242 77.7627 75.0641C79.7973 79.1314 79.6291 79.637 79.5286 79.9392C79.4378 80.2119 79.2213 80.4134 78.9491 80.4776C74.2348 81.5932 68.8862 81.4825 63.7139 81.3755C61.6044 81.3318 59.6117 81.2904 57.6964 81.3312C55.6306 81.3749 53.5677 81.5585 51.573 81.7355C48.288 82.0271 44.8914 82.3287 41.3954 82.0154C40.3612 81.9226 36.5358 80.9272 31.6424 79.6353C30.3525 79.2946 29.0377 78.9478 28.0655 78.6994C28.1037 78.741 28.1397 78.7812 28.1729 78.8213C29.4102 80.3028 31.4571 81.8485 33.7878 83.0616C38.377 85.4511 43.1013 86.4595 49.1059 86.3319C49.3099 86.3275 49.4496 86.2956 49.585 86.2646C50.2917 86.1031 50.6983 86.308 51.0869 87.02C51.7661 88.2686 50.4055 90.2228 47.2945 93.8673C47.2707 93.8958 47.2462 93.9242 47.2219 93.9527C48.9315 93.1203 51.4915 91.3197 53.5196 89.893C56.6676 87.6789 59.6408 85.5874 61.5255 85.1417C73.7646 82.2457 86.1481 85.4721 97.3357 94.4713C99.6013 96.2939 101.691 98.7995 103.902 101.452C107.092 105.278 110.39 109.233 114.189 110.89C114.563 111.053 115.301 111.321 116.236 111.661C123.156 114.173 127.229 116.003 127.567 117.925C127.624 118.254 127.62 118.89 126.942 119.457C123.983 121.929 104.886 122.924 101.644 122.85C101.405 122.845 101.063 122.825 100.653 122.802C99.5603 122.739 97.0682 122.597 95.6196 122.849C97.9351 123.434 100.709 123.673 103.162 123.885C103.521 123.916 103.874 123.947 104.22 123.978C111.28 124.611 116.985 124.572 122.176 123.854C122.746 123.775 123.536 123.599 124.452 123.395C127.166 122.789 130.545 122.036 132.392 122.841C136.4 124.588 139.551 127.086 142.887 129.729C144.157 130.735 145.471 131.776 146.831 132.768C148.307 133.844 149.77 134.861 151.186 135.846C154.581 138.207 157.788 140.437 161.032 143.328C161.033 143.328 161.033 143.328 161.033 143.328C161.328 143.591 161.682 143.793 162.044 143.907C162.422 143.226 163.147 141.598 163.45 140.921C163.657 140.457 163.767 140.209 163.826 140.093C164.032 139.688 164.436 139.072 164.949 138.291C165.944 136.777 167.609 134.244 167.71 133.116C167.903 130.962 164.189 128.746 161.732 127.279C160.908 126.786 160.196 126.361 159.726 125.999C152.713 120.601 143.488 116.92 134.566 113.362C131.525 112.149 128.652 111.003 125.901 109.804C125.463 109.613 124.967 109.401 124.425 109.171C122.063 108.166 118.908 106.825 116.059 105.226Z" fill="#231F20"/>
<path d="M38.652 109.401C38.7262 109.443 38.7938 109.498 38.8516 109.567L40.7853 111.882C40.9075 112.028 40.9665 112.217 40.9496 112.406C40.9326 112.596 40.8409 112.771 40.695 112.893L40.2741 113.245C39.9697 113.499 39.5167 113.458 39.2628 113.154C39.046 112.894 39.0439 112.527 39.2361 112.267L37.7495 110.488C37.4955 110.183 37.5362 109.731 37.8403 109.476C38.0757 109.28 38.3996 109.26 38.652 109.401Z" fill="#231F20"/>
<path d="M58.1439 57.0223C58.3129 57.1171 58.4433 57.2796 58.4914 57.4831L58.6327 58.0797C58.6684 58.2308 58.6544 58.3895 58.5919 58.5319L58.1022 59.6559C57.9439 60.0195 57.5208 60.186 57.1577 60.0276C56.7916 59.8672 56.6275 59.4462 56.7859 59.083L57.1803 58.1775L57.0941 57.8137C57.0029 57.4276 57.2416 57.041 57.6272 56.9496C57.8096 56.9067 57.9924 56.9372 58.1439 57.0223Z" fill="#231F20"/>
<path d="M27.412 106.641C27.4861 106.683 27.5537 106.738 27.6113 106.807C27.9433 107.205 28.1212 107.451 28.227 107.598C28.2564 107.639 28.2783 107.671 28.2985 107.697C28.3395 107.716 28.414 107.748 28.4862 107.778C28.5677 107.812 28.6668 107.854 28.7887 107.907C29.1499 108.065 29.3184 108.489 29.1596 108.852C29.0014 109.215 28.5781 109.382 28.2148 109.223C28.0994 109.173 28.0062 109.134 27.9293 109.101C27.4626 108.905 27.3469 108.832 27.0625 108.438C26.9616 108.298 26.8089 108.086 26.5099 107.728C26.2555 107.424 26.2963 106.971 26.6003 106.717C26.8356 106.52 27.1596 106.5 27.412 106.641Z" fill="#231F20"/>
<path d="M61.7728 66.4984C61.8469 66.54 61.9146 66.5955 61.9724 66.6644L62.2672 67.0173L63.0461 67.5849L63.5364 67.7985C63.6384 67.8426 63.7289 67.9108 63.8005 67.9962L64.1518 68.4169C64.406 68.7213 64.365 69.1741 64.061 69.4282C63.7566 69.6825 63.3032 69.6407 63.0497 69.3374L62.8071 69.0468L62.4004 68.8692C62.3524 68.8485 62.3068 68.8223 62.2646 68.7913L61.3507 68.1252C61.3032 68.0907 61.2603 68.0504 61.2224 68.0052L60.8709 67.5843C60.6169 67.28 60.6576 66.8274 60.9618 66.573C61.1965 66.3771 61.5204 66.3568 61.7728 66.4984Z" fill="#231F20"/>
<path d="M98.5819 95.926C98.841 96.0715 99.0666 96.3443 99.3053 96.6956C99.9691 97.6714 102.269 102.08 101.983 103.048C100.864 106.842 90.5735 105.354 90.472 105.331C90.1019 105.248 89.8352 104.884 89.8939 104.511C89.9419 104.203 90.1517 103.851 90.8793 103.916C91.8876 104.007 92.6811 102.255 93.4482 100.561C94.5039 98.2299 95.7007 95.5874 98.2252 95.8134C98.353 95.8245 98.4704 95.8634 98.5819 95.926ZM100.576 102.727C100.425 101.856 98.6149 98.0013 97.9279 97.2366C96.6253 97.2546 95.7851 98.8812 94.7561 101.153C94.262 102.244 93.7595 103.354 93.1199 104.159C95.8958 104.293 100.003 104.137 100.576 102.727ZM90.8154 104.631L90.8129 104.63L90.8154 104.631Z" fill="#231F20"/>
<path d="M58.0752 41.1976C60.5211 42.5704 62.5674 44.5936 63.6651 46.4634C64.5861 48.0321 64.1612 50.2211 63.4016 51.9199C63.7216 51.6859 63.9816 51.5013 64.184 51.3913C66.5784 50.0875 70.6105 50.7761 73.3558 52.13C75.8227 53.3481 77.3448 55.0474 77.638 56.916C78.0346 59.4449 73.3745 65.414 71.4189 66.4787C71.0138 66.6995 70.4773 66.7754 69.9325 66.7762C71.6908 68.3844 72.5649 70.3065 72.3955 72.197C72.0589 75.9515 69.5028 78.3905 65.1983 79.0654C62.1884 79.5373 61.1689 77.777 60.4246 76.4912C59.9849 75.7317 59.6023 75.0718 58.9212 74.8308C58.4405 75.0196 57.2249 76.4062 56.5613 77.1632C55.5974 78.2626 54.9812 78.9487 54.4798 79.1918C51.5218 80.6251 48.3608 79.2252 45.8204 78.1006C45.6245 78.0137 45.4309 77.928 45.241 77.8451C42.666 76.7264 41.6478 73.1802 42.1747 70.5384C42.3965 69.4277 42.8681 68.5376 43.531 67.9245C42.3664 67.6146 41.1926 67.2794 40.0464 66.881C35.5201 65.3105 33.1316 59.7348 33.5142 55.4723C33.8594 51.6185 39.378 49.436 42.256 49.1238C43.0688 49.0355 43.9384 49.431 44.7328 49.9951C44.0995 46.8931 44.6905 44.3314 46.5202 42.2009C48.1966 40.2491 50.4901 39.3438 53.1529 39.5822C54.8595 39.735 56.5458 40.3391 58.0752 41.1976ZM60.9847 54.484C60.8177 54.3903 60.6901 54.2462 60.6214 54.0664C60.4079 53.507 60.8217 53.0643 61.301 52.5519C61.4559 52.3862 61.6675 52.1599 61.7262 52.0566C62.5682 50.5723 63.1467 48.4165 62.4268 47.1905C60.8241 44.4604 56.9836 41.3672 53.0238 41.0119C50.8112 40.8138 48.9895 41.5286 47.6085 43.1365C45.7753 45.2709 45.4432 47.8637 46.5634 51.296C46.6626 51.6003 47.0641 52.1974 47.3673 52.5971C47.4087 52.65 47.4438 52.6954 47.4724 52.7325C47.7112 53.0456 47.6531 53.4928 47.3423 53.7346C47.0315 53.9767 46.5831 53.9219 46.3391 53.614C46.3158 53.5845 46.2778 53.5361 46.2294 53.4728C45.191 52.1543 43.3899 50.4452 42.4099 50.5514C39.868 50.8274 35.1991 52.7505 34.9436 55.6009C34.6079 59.3422 36.7692 64.2226 40.5172 65.5255C42.1544 66.0945 43.8779 66.5373 45.5448 66.9655C45.5766 66.9739 45.6093 66.982 45.6415 66.9902C45.7513 66.9794 45.8635 66.9732 45.977 66.9711C45.977 66.9711 45.9772 66.9712 45.9776 66.9711C46.3562 66.9649 46.8802 67.2749 47.0347 67.5964C47.1562 67.8486 47.1206 68.1579 46.9427 68.3739C46.7594 68.596 46.4659 68.6871 46.1765 68.6113C45.9706 68.5576 45.7643 68.5044 45.5581 68.4512C44.2109 68.7089 43.7432 70.0137 43.5824 70.8201C43.1713 72.8812 43.9836 75.7324 45.8143 76.5298C46.0071 76.614 46.2029 76.7005 46.4014 76.7885C48.7889 77.8454 51.4948 79.0436 53.8537 77.9003C54.1212 77.7693 54.9075 76.8724 55.4817 76.2173C57.1659 74.2963 58.2486 73.1334 59.2453 73.4275C60.5282 73.8064 61.1337 74.8507 61.6675 75.7729C62.4046 77.0468 62.9372 77.9675 64.9758 77.6477C67.5161 77.2497 70.6172 75.9586 70.9659 72.0699C71.1411 70.1122 69.7541 68.5477 68.912 67.7895C68.3631 67.296 67.3246 66.3104 67.2808 66.2687C67.0429 66.0426 66.9884 65.6837 67.1488 65.3974C67.3094 65.1108 67.6438 64.9696 67.9611 65.0544C68.7919 65.2768 70.2478 65.4829 70.7327 65.2186C72.5409 64.2341 76.4729 58.7524 76.2201 57.1396C76.0045 55.7656 74.73 54.4085 72.7211 53.4186C69.9523 52.0527 66.5775 51.7235 64.8707 52.6529C64.716 52.7373 64.3871 52.9782 64.0695 53.2115C62.8346 54.1167 62.0373 54.662 61.3759 54.6025C61.2309 54.5887 61.0986 54.548 60.9847 54.484ZM46.5375 67.2208C46.5381 67.2208 46.5387 67.2211 46.5396 67.2213C46.5384 67.221 46.5379 67.2207 46.5375 67.2208ZM45.9892 67.6879L45.9867 67.6864L45.9892 67.6879Z" fill="#231F20"/>
<path d="M80.7101 94.9212C81.7855 95.5244 82.8844 96.7626 84.0881 98.7077C85.1043 100.35 83.7389 103.62 82.4444 105.418C82.1276 105.857 81.8042 106.239 81.4774 106.559C83.2428 107.826 84.3356 109.815 84.2697 111.857C84.1964 114.122 82.7236 115.849 80.2289 116.597C77.4134 117.44 75.11 117.631 73.1874 117.178C72.7251 117.068 72.3977 116.715 72.1505 116.228C71.4446 117.901 70.185 119.204 68.4619 120.003C65.6207 121.32 61.8305 121.059 59.4456 119.383C57.9559 118.335 57.2156 116.864 57.361 115.241C57.5193 113.469 58.7796 111.377 60.0402 109.687C58.712 109.69 56.6008 109.603 55.0102 108.444C53.9643 107.682 53.2912 106.423 53.1142 104.9C52.9172 103.205 53.3918 101.457 54.3523 100.339C57.0576 97.1891 59.8592 97.7359 62.5876 98.5209C62.5668 98.3361 62.5386 98.147 62.5214 98.0316C62.4736 97.7108 62.4511 97.5496 62.4646 97.3959C62.4978 97.0276 62.5161 96.673 62.5334 96.3301C62.5863 95.2972 62.6365 94.322 63.0635 93.1717C63.7953 91.2021 64.9174 89.849 66.3085 89.2577C67.4786 88.76 68.7759 88.8148 70.1639 89.4201C71.9323 90.1884 75.1787 93.2735 74.9532 95.79C74.8802 96.6065 74.6273 97.297 74.3291 97.8593C74.7264 97.5317 75.1211 97.1224 75.5254 96.7036C76.6011 95.5885 77.8206 94.3247 79.445 94.4988C79.8662 94.544 80.2862 94.6832 80.7101 94.9212ZM80.1606 105.809C80.5272 105.508 80.911 105.09 81.2794 104.579C82.7189 102.579 83.315 100.187 82.8672 99.463C81.4804 97.2219 80.2777 96.0312 79.2923 95.9265C78.3668 95.8272 77.4886 96.737 76.5591 97.7007C75.4546 98.8454 74.2027 100.143 72.4941 99.9898C72.1877 99.962 71.94 99.7845 71.8296 99.5147C71.6406 99.0524 71.9348 98.7061 72.2195 98.3713C72.6344 97.8838 73.4064 96.9759 73.5241 95.6622C73.664 94.0989 71.1375 91.4101 69.5905 90.7361C68.5787 90.2949 67.6636 90.2419 66.8709 90.579C65.5835 91.1261 64.822 92.5631 64.4101 93.6718C64.0599 94.6155 64.0173 95.4441 63.9681 96.404C63.9502 96.7516 63.9318 97.111 63.8978 97.496C63.9025 97.5575 63.9251 97.7079 63.942 97.8198C64.0626 98.6267 64.1876 99.4612 63.6789 99.904C63.4416 100.11 63.1224 100.174 62.804 100.08C59.5758 99.1278 57.6417 98.7139 55.4425 101.274C54.7344 102.099 54.3888 103.425 54.5411 104.735C54.6714 105.855 55.1386 106.761 55.8565 107.284C57.2209 108.277 59.2094 108.26 60.3973 108.249C61.2632 108.242 61.7852 108.236 62.0336 108.75C62.1699 109.034 62.1237 109.361 61.9092 109.626C60.0221 111.949 58.9151 113.989 58.7916 115.369C58.6663 116.767 59.5278 117.685 60.2723 118.209C62.2313 119.589 65.4922 119.798 67.8583 118.7C69.2944 118.034 71.0625 116.604 71.3342 113.573C71.3968 112.874 71.8095 112.748 72.0501 112.734C72.7007 112.699 72.82 113.29 72.9257 113.812C73.2075 115.206 73.4248 115.662 73.5625 115.791C75.2251 116.171 77.2719 115.984 79.8169 115.221C81.7103 114.654 82.7822 113.443 82.8349 111.81C82.8893 110.135 81.8429 108.44 80.2474 107.47C79.6556 107.767 79.0699 107.857 78.5131 107.725C78.4974 107.722 77.4342 107.429 77.1284 106.813C77.0099 106.574 77.0023 106.311 77.1065 106.073C77.3483 105.519 78.0069 104.995 79.7698 105.651C79.9018 105.7 80.0325 105.753 80.1606 105.809ZM63.8953 97.5245C63.8954 97.5233 63.8956 97.5217 63.8958 97.5202C63.8956 97.5217 63.8954 97.5233 63.8953 97.5245ZM60.7939 108.721C60.794 108.721 60.794 108.721 60.7942 108.72C60.7942 108.72 60.7942 108.72 60.7943 108.72C60.7942 108.72 60.794 108.721 60.7939 108.721ZM61.3513 109.173L61.3488 109.171L61.3513 109.173Z" fill="#231F20"/>
<path d="M89.8639 66.8842C89.9209 66.9163 89.9737 66.9561 90.0207 67.0032C90.1648 67.1477 90.2404 67.3462 90.2293 67.5497C90.2221 67.6757 90.0418 70.6567 88.4892 72.673C88.3845 72.8092 88.1787 73.127 87.9404 73.4954C86.2827 76.0567 85.2619 77.3767 84.2818 77.4832C83.2731 77.5924 82.6835 77.1405 82.3663 76.7422C80.8926 74.8906 82.309 70.4342 82.3243 70.3905C83.4509 67.1491 89.2285 66.8065 89.4742 66.7936C89.6117 66.7862 89.7467 66.8185 89.8639 66.8842ZM83.651 75.9894C83.7536 76.0471 83.9001 76.0805 84.1276 76.0561C84.6901 75.8763 86.2294 73.4971 86.7355 72.7157C87.012 72.2883 87.2115 71.9798 87.3525 71.7972C88.1842 70.7167 88.5436 69.2312 88.694 68.312C86.9891 68.5424 84.2439 69.2426 83.6815 70.8618C83.2526 72.0963 82.7962 74.9756 83.4907 75.8484C83.5309 75.8993 83.5806 75.9499 83.651 75.9894Z" fill="#231F20"/>
</svg>
