<svg width="136" height="168" viewBox="0 0 136 168" fill="none" xmlns="http://www.w3.org/2000/svg">
<path d="M75.7849 13.9126C76.06 11.906 76.5622 9.87874 77.7037 8.20555C78.8451 6.53236 80.7229 5.25944 82.7482 5.27167C84.8023 5.28396 86.645 6.57714 88.018 8.10521C90.3316 10.68 91.7037 14.5053 90.255 17.6489C92.8489 16.1831 95.5971 14.6747 98.5767 14.6901C101.556 14.7054 104.747 16.8635 104.768 19.8431C104.793 23.3025 101.002 25.345 97.7778 26.6009C101.77 27.2277 105.303 30.2055 106.596 34.0342C106.848 34.781 107.021 35.5928 106.814 36.3535C106.528 37.4087 105.585 38.1399 104.659 38.7212C102.434 40.1179 99.8643 41.1363 97.2421 40.9812C94.6198 40.8259 91.974 39.2905 91.0613 36.8272C88.7066 39.4186 85.9636 41.6562 82.9518 43.4417C80.6929 44.7811 77.9903 45.89 75.4938 45.0757C73.4575 44.4112 71.9301 42.4139 71.8226 40.2746C71.7152 38.1353 73.0341 35.9949 74.9933 35.1292C72.7819 33.6489 69.7096 34.8011 67.201 33.9131C64.323 32.8944 63.0523 29.6118 62.127 26.7027C61.4839 24.6811 60.8752 22.3434 62.0126 20.5524C63.2164 18.657 65.8423 18.283 68.0689 18.5717C69.5204 18.76 73.175 20.7903 74.3452 20.3796C76.2109 19.7247 75.5724 15.4616 75.7849 13.9126Z" fill="#F68F8D"/>
<path d="M57.0432 35.9894C61.012 36.8352 63.5511 41.7051 61.9719 45.4431C63.6748 42.5297 67.64 41.0495 70.7093 42.4515C73.7789 43.8534 75.2052 48.1647 73.3124 50.9584C71.6371 53.4306 68.296 54.0845 65.3099 54.1283C68.6725 54.9234 70.1379 58.8418 70.7466 62.2429C70.9818 63.5567 71.1697 64.922 70.8338 66.2138C70.4981 67.5056 69.516 68.7154 68.1982 68.9288C66.8562 69.146 65.589 68.3255 64.4767 67.5439C62.6647 66.2702 60.815 64.9599 59.5391 63.1494C60.3214 66.8144 56.4301 70.6087 52.7862 69.7346C49.1419 68.8603 47.396 63.7134 49.7558 60.8024C47.9185 61.2857 46.0402 61.7733 44.1452 61.6364C42.2501 61.4995 40.3015 60.6227 39.3725 58.9654C35.2894 51.6795 47.2425 50.9207 48.5494 46.3408C49.2681 43.8226 48.2333 41.5043 49.8783 39.0901C51.4132 36.8385 54.3227 35.4096 57.0432 35.9894Z" fill="#F68F8D"/>
<path d="M91.5706 63.8072C92.6878 62.5359 94.0512 61.3844 95.6971 60.9898C97.6721 60.516 99.8909 61.2892 101.144 62.8878C102.397 64.4864 102.618 66.8255 101.686 68.6304C104.346 65.9326 108.189 64.1927 111.931 64.785C115.673 65.377 119.02 68.7055 118.929 72.4931C118.838 76.2808 114.604 79.5813 111.085 78.1774C113.873 80.0724 116.685 82.1494 118.346 85.0832C120.007 88.0166 120.211 92.0344 117.958 94.5418C116.082 96.6292 113.039 97.1903 110.232 97.2113C107.777 97.2299 105.232 96.8998 103.144 95.6095C101.055 94.3191 99.5332 91.8887 99.8979 89.4608C98.4568 94.1817 94.7062 98.1375 90.0686 99.8276C89.4015 100.071 88.6859 100.271 87.9884 100.139C87.3714 100.021 86.8335 99.6544 86.3369 99.2704C83.9092 97.3925 81.8772 94.4533 82.4545 91.4389C82.8205 89.5281 84.154 87.9729 85.3882 86.4691C85.6849 86.1077 85.9912 85.7139 86.0329 85.2481C86.1288 84.1694 84.8101 83.5242 83.7271 83.5182C82.6442 83.5122 81.4768 83.7995 80.5326 83.269C79.6997 82.801 79.3043 81.834 78.9917 80.9315C77.9726 77.9901 77.5321 74.0342 80.1843 72.4039C81.6606 71.4967 83.1412 71.8917 84.6899 72.2742C87.0712 72.8625 86.3936 73.4777 87.5565 71.5028C89.0725 68.9275 89.4724 66.1947 91.5706 63.8072Z" fill="#F68F8D"/>
<path d="M106.94 98.7751C108.247 98.9747 109.401 99.7914 110.23 100.821C111.166 101.983 111.718 103.688 110.933 104.957C111.582 103.24 112.746 101.722 114.236 100.651C114.929 100.153 115.708 99.7434 116.553 99.6217C118.648 99.3193 120.73 101.024 121.137 103.101C121.544 105.178 120.457 107.381 118.729 108.604C117.001 109.827 114.747 110.15 112.657 109.812C113.292 111.002 113.937 112.22 114.146 113.551C114.355 114.884 114.05 116.375 113.037 117.265C111.86 118.3 109.97 118.239 108.668 117.368C107.365 116.496 106.61 114.972 106.355 113.426C105.061 114.179 103.98 115.274 102.64 115.944C101.3 116.613 99.4922 116.737 98.4585 115.653C97.4805 114.628 97.6164 112.905 98.3807 111.712C99.145 110.519 100.388 109.731 101.59 108.982C100.225 108.978 98.8278 108.968 97.5453 108.501C96.2626 108.034 95.0954 107.01 94.8469 105.668C94.497 103.778 96.1315 101.967 97.9889 101.474C99.5807 101.052 101.214 101.784 102.664 101.058C104.369 100.204 104.523 98.406 106.94 98.7751Z" fill="#F68F8D"/>
<path d="M58.7976 112.278C60.8828 111.535 63.3064 112.396 64.8404 113.992C66.3745 115.588 67.1318 117.791 67.4541 119.981C68.2158 118.046 70.1545 116.73 72.1989 116.349C74.2433 115.968 76.3691 116.416 78.2884 117.217C80.2681 118.042 82.2852 119.55 82.4467 121.688C82.5976 123.69 81.0181 125.449 79.2404 126.381C77.4626 127.313 75.4421 127.675 73.6023 128.477C76.7973 129.143 79.6983 131.121 81.4844 133.853C82.1691 134.9 82.7069 136.113 82.617 137.361C82.4749 139.328 80.838 140.852 79.1469 141.868C76.922 143.203 74.2406 144.042 71.7229 143.415C69.2053 142.788 67.0488 140.342 67.4063 137.772C66.3199 141.1 64.3515 144.137 61.7562 146.486C59.4648 148.562 55.7735 150.046 53.4344 148.024C51.1129 146.017 51.9851 142.267 53.2299 139.462C53.9526 137.833 54.8438 136.12 56.4396 135.327C54.503 135.634 52.7928 136.728 50.9426 137.377C49.0925 138.026 46.785 138.123 45.4183 136.717C44.3199 135.588 44.1803 133.784 44.662 132.284C45.1437 130.784 46.1433 129.514 47.1232 128.281C48.4357 126.629 49.7531 125.13 51.4952 123.925C52.6186 123.148 54.0611 122.764 54.7124 121.462C56.3146 118.259 54.1368 113.939 58.7976 112.278Z" fill="#F68F8D"/>
<path d="M50.4692 103.625C51.332 105.495 51.7974 107.684 51.0722 109.611C50.3466 111.539 48.1195 112.977 46.1801 112.282C47.5163 113.105 48.1972 114.68 48.5212 116.215C48.9806 118.392 48.8278 120.828 47.4879 122.604C46.1481 124.381 43.3986 125.163 41.5959 123.858C39.9625 122.677 39.654 120.41 39.4844 118.401C39.9891 121.281 38.4235 124.443 35.7602 125.648C33.0968 126.854 29.5867 125.86 28.0745 123.358C26.5623 120.856 27.404 117.175 29.9273 115.699C28.4604 117.232 26.1337 117.984 24.1149 117.332C22.0961 116.679 20.6034 114.507 20.9695 112.417C21.3195 110.419 23.1066 108.989 24.9328 108.106C27.309 106.957 29.961 106.589 32.3935 107.739C31.7676 106.004 29.1493 102.481 31.5061 100.808C32.8593 99.8475 34.3805 101.044 35.6125 101.704C40.6595 104.408 44.7919 104.98 50.4692 103.625Z" fill="#F68F8D"/>
<path d="M2.31026 81.8104C7.58564 69.8655 16.4298 58.3706 29.0471 55.0065C22.0356 64.8048 14.7578 74.4126 7.22514 83.8161C15.3638 82.1753 23.5023 80.5342 31.641 78.8934C34.9276 78.2308 38.2762 77.5647 41.6103 77.9191C44.5162 78.2279 47.2895 79.3014 50.1777 79.7472C58.6884 81.0613 67.356 76.6355 72.9298 70.0709C78.5033 63.5064 81.4094 55.0869 83.2713 46.679C84.978 49.675 86.0098 53.0527 86.2692 56.4912C93.2536 49.6282 103.115 45.791 112.901 46.129C99.4339 56.1362 85.966 66.1432 72.4985 76.1505C70.8053 77.4084 68.9385 79.6516 70.2301 81.319C71.1129 82.4589 72.8231 82.3161 74.2568 82.4703C76.5811 82.7205 78.7568 84.1026 79.9711 86.1C68.4519 88.4528 56.6699 89.5172 44.9158 89.2671C48.4294 93.3529 52.93 96.5834 57.9252 98.6049C62.32 100.383 67.0594 101.232 71.3874 103.167C75.0059 104.784 78.2894 107.142 82.0423 108.416C87.6732 110.328 94.1405 109.732 99.2407 112.789C102.01 114.45 104.149 117.136 105.146 120.208C105.293 120.661 105.411 121.18 105.174 121.594C104.994 121.91 104.646 122.089 104.306 122.217C101.994 123.091 99.4172 122.408 97.0433 121.72C86.3473 118.619 75.6511 115.518 64.9552 112.418C62.618 111.741 60.2455 111.048 58.1899 109.745C55.0928 107.784 52.951 104.591 49.931 102.513C47.409 100.777 44.3191 99.8474 42.1526 97.6837C39.466 95 38.5477 90.7454 35.416 88.5977C31.3946 85.8399 25.9716 87.8543 21.4927 89.7816C5.18154 96.8003 -11.9867 101.825 -29.508 104.709C-30.9167 104.94 -32.3938 105.153 -33.7459 104.695C-36.7818 103.666 -37.7772 99.89 -37.9112 96.6872C-38.0399 93.604 -40.1623 88.5106 -36.9005 87.5436C-32.8805 86.3515 -27.8629 86.6473 -23.6514 85.7146C-19.2439 84.7382 -14.881 83.5554 -10.4398 82.7351C-9.22462 82.5106 2.26184 81.9202 2.31026 81.8104Z" fill="#4E3B31"/>
<path d="M9.9352 70.037C10.2504 68.5145 10.2768 66.9328 10.0131 65.4006C9.64397 63.2556 8.11207 57.5247 5.87922 56.9287C5.13747 59.1849 5.47294 61.9167 6.19182 64.1517C6.50928 65.1373 10.0014 69.718 9.9352 70.037Z" fill="#BED665"/>
<path d="M36.7588 76.1146C36.6254 76.7624 36.593 77.5088 37.0254 78.0094C37.2615 78.2826 37.6013 78.4386 37.9096 78.6269C38.8653 79.2109 39.5552 80.1413 40.4352 80.8345C42.0975 82.1439 44.4558 82.5092 46.4364 81.7638C45.264 82.2049 43.0001 71.6032 42.3066 71.0362C39.8958 69.0661 37.1686 74.1249 36.7588 76.1146Z" fill="#BED665"/>
<path d="M72.3398 96.5566C74.7148 94.7116 71.4812 83.8015 67.6632 87.9497C64.9744 90.8709 68.1293 99.8277 72.3398 96.5566Z" fill="#BED665"/>
<path d="M45.398 125.977C43.69 126.337 42.187 126.055 41.1215 125.164C40.5584 124.694 40.1498 123.839 39.8644 122.93C37.7112 125.688 33.8296 128.793 30.8414 127.691C28.6348 126.877 27.387 123.279 27.4556 120.271C27.4784 119.276 27.6448 118.409 27.9393 117.701C26.4285 117.625 24.9677 117.375 24.5453 117.11C22.1514 115.606 22.3975 111.509 23.6188 109.349C24.5009 107.79 26.7768 105.445 28.8565 105.357C29.7039 105.322 30.5663 105.966 31.327 106.534C31.4431 106.621 31.5832 106.726 31.7188 106.823C31.691 106.085 31.4082 105.414 31.1123 104.712C30.427 103.087 29.6502 101.245 32.0316 98.6578C32.9178 97.6953 33.7798 97.2672 34.6654 97.3496C36.2111 97.4927 37.2399 99.1372 38.3293 100.878C39.3279 102.474 40.3604 104.124 41.6015 104.308C43.1491 104.537 44.6603 104.264 46.1217 103.999C48.6925 103.534 51.3509 103.053 52.6521 106.268C54.3642 110.499 50.8566 112.473 48.9724 113.533C48.5793 113.754 48.0672 114.042 47.83 114.239C48.0005 114.327 48.2857 114.427 48.4761 114.493C49.1326 114.723 49.877 114.984 50.253 115.642C51.4883 117.806 51.7159 121.3 49.9589 123.401C49.0811 124.451 47.5496 125.385 45.9618 125.838C45.7711 125.892 45.5834 125.938 45.398 125.977ZM40.9847 121.25C41.2132 122.402 41.6276 123.638 42.0809 124.017C43.1457 124.907 44.7116 124.637 45.5506 124.399C46.8457 124.03 48.1252 123.262 48.8105 122.442C50.1322 120.861 49.9136 118.067 48.9533 116.384C48.8545 116.211 48.3284 116.027 47.9802 115.905C47.2675 115.655 46.0749 115.237 46.2628 114.042C46.3837 113.273 47.1615 112.836 48.238 112.23C50.6434 110.877 52.3934 109.619 51.2646 106.83C50.4553 104.831 49.1107 104.979 46.3873 105.472C44.8805 105.745 43.1726 106.054 41.3818 105.789C39.4575 105.504 38.1841 103.469 37.0604 101.673C36.2119 100.317 35.3351 98.915 34.5266 98.8399C34.1407 98.8037 33.6721 99.0845 33.1313 99.6716C31.4016 101.551 31.8581 102.634 32.4898 104.132C32.9082 105.123 33.3819 106.247 33.1622 107.645C33.071 108.227 32.7207 108.451 32.5202 108.533C31.8586 108.802 31.2292 108.33 30.4311 107.734C29.9834 107.399 29.2339 106.839 28.9181 106.852C27.5394 106.907 25.6622 108.774 24.9202 110.086C24.0187 111.681 23.7931 114.871 25.3401 115.843C25.7769 116.059 27.5649 116.227 28.988 116.226C29.268 115.998 29.5831 115.826 29.9305 115.716C30.6973 115.421 31.1903 115.372 31.5683 115.554C31.7986 115.665 31.967 115.858 32.0431 116.097C32.1746 116.511 32.0338 116.94 31.6752 117.217C31.3057 117.504 30.5383 117.652 29.638 117.704C29.2238 118.261 28.9769 119.166 28.951 120.306C28.8907 122.95 30.0381 125.801 31.3586 126.289C33.3673 127.029 36.7981 124.557 38.8255 121.843C39.0617 121.527 39.2584 121.236 39.4219 120.97C39.3435 120.446 39.3073 120.002 39.3047 119.727C39.2983 118.96 39.419 117.98 40.0299 117.662C40.3362 117.504 40.6961 117.533 40.9916 117.744C41.4926 118.102 42.1613 119.026 41.0115 121.2C41.003 121.216 40.994 121.233 40.9847 121.25Z" fill="#231F20"/>
<path d="M83.5162 23.4164C83.2764 23.4669 83.0172 23.4004 82.8339 23.2225C82.4124 22.8131 82.6044 22.4052 83.0685 21.4197C83.2091 21.1205 83.5644 20.3841 83.8223 20.0082C84.2491 19.3851 84.7244 19.5153 84.9085 19.5995C85.5478 19.893 85.3575 20.6072 85.244 21.0341C85.0952 21.5928 84.7103 22.6286 83.8039 23.2889C83.7161 23.3527 83.6178 23.3951 83.5162 23.4164ZM84.5211 20.8416L84.524 20.841L84.5211 20.8416Z" fill="#231F20"/>
<path d="M84.1337 34.2157C83.7996 34.286 83.4497 34.1196 83.3007 33.7966C83.177 33.5285 83.0907 33.3522 83.029 33.2261C82.8352 32.8297 82.811 32.7522 82.7439 32.3029C82.7252 32.179 82.7007 32.0132 82.6616 31.7796C82.594 31.3723 82.8618 30.9915 83.2762 30.9184C83.6835 30.8504 84.0692 31.1254 84.1375 31.533C84.1784 31.7781 84.2045 31.9518 84.2236 32.0817C84.2627 32.3431 84.2627 32.3431 84.3727 32.5676C84.4377 32.7007 84.5288 32.8867 84.6593 33.1698C84.8324 33.5449 84.6685 33.9894 84.293 34.1623C84.2411 34.187 84.1876 34.2044 84.1337 34.2157Z" fill="#231F20"/>
<path d="M101.573 76.0065C101.376 76.0481 101.162 76.0102 100.985 75.8834C100.648 75.6435 100.57 75.1763 100.81 74.8402L101.181 74.3197C101.346 74.0886 101.627 73.9711 101.907 74.0154L102.351 74.0852L103.122 73.9557C103.529 73.8874 103.915 74.1621 103.983 74.5696C104.051 74.9772 103.769 75.3605 103.369 75.4314L102.478 75.581C102.398 75.5944 102.317 75.5949 102.238 75.5821L102.13 75.5653L102.027 75.7093C101.914 75.8678 101.75 75.9693 101.573 76.0065Z" fill="#231F20"/>
<path d="M9.9707 70.746C9.25106 70.8974 8.36419 70.2861 7.37949 69.5339C7.27022 69.4505 7.18594 69.3841 7.13674 69.3523C3.30143 67.072 3.43124 64.1845 4.03325 60.3548C4.12808 59.7521 4.56154 58.4978 4.93532 57.5252C5.80368 55.2677 6.03129 55.1798 6.32005 55.0686C6.56835 54.9729 6.87682 55.0193 7.08493 55.1874C7.46803 55.4969 7.39106 55.9854 7.34997 56.2478C7.18602 57.2907 8.23161 59.3304 9.24225 61.3028C11.0063 64.7457 13.0059 68.6471 10.3736 70.5643C10.2461 70.6571 10.1115 70.7163 9.9707 70.746ZM6.22306 58.3518C5.88519 59.2539 5.57359 60.1893 5.51109 60.5868C4.90532 64.4394 4.94917 66.3113 7.90814 68.071C7.99544 68.1226 8.09288 68.1963 8.28742 68.3449C8.9359 68.8404 9.38889 69.1392 9.63714 69.2364C10.9829 67.9795 9.35367 64.8005 7.91099 61.9853C7.23292 60.662 6.60591 59.4389 6.22306 58.3518Z" fill="#231F20"/>
<path d="M95.5861 73.6187C95.307 73.6775 95.0065 73.5729 94.8273 73.3271L94.351 72.6737C94.2344 72.5133 94.1858 72.3129 94.2164 72.1169L94.5271 70.1412C94.5452 70.0265 94.5895 69.9175 94.6573 69.8228L95.3999 68.782C95.6402 68.445 96.1066 68.3676 96.443 68.6075C96.7793 68.8473 96.8575 69.3145 96.6175 69.6506L95.9777 70.5474L95.7427 72.0427L96.0366 72.4456C96.2799 72.7796 96.2065 73.2473 95.8728 73.4908C95.784 73.5554 95.6862 73.5977 95.5861 73.6187Z" fill="#231F20"/>
<path d="M58.379 149.978C58.2493 150.005 58.1192 150.028 57.99 150.046C56.4294 150.263 54.2659 149.864 52.8218 146.733C51.982 144.911 52.126 141.282 53.1064 138.732C52.0985 138.927 51.3206 139.014 51.3011 139.014C48.5121 138.974 45.6127 134.618 44.9049 132.391C44.5049 131.131 44.8113 129.618 45.7907 128.016C47.2604 125.612 49.9362 123.546 51.9949 123.192C52.3806 123.128 53.0528 123.193 54.2079 123.313C54.9489 123.391 56.1477 123.516 56.5814 123.476C57.1765 122.729 56.953 121.158 56.7362 119.637C56.5305 118.191 56.3178 116.697 56.7443 115.541C57.7995 112.68 59.6735 112.117 61.0604 112.148C64.5512 112.227 68.3117 116.055 69.3589 118.782C69.83 118.702 70.7795 118.339 71.5724 118.037C74.8213 116.798 79.7324 114.927 82.1774 118.285C84.5645 121.562 84.0266 125.94 80.8078 129.438C80.3776 129.905 79.7427 130.384 79.014 130.726C80.1032 131.381 80.9871 132.238 81.6122 133.264C82.8155 135.242 82.9859 137.687 82.1045 140.338C81.56 141.975 80.2568 143.285 78.4348 144.025C76.152 144.953 73.2881 144.887 71.3075 143.863C70.5814 143.487 68.8356 142.487 67.6599 141.032C65.9249 144.749 62.0612 149.203 58.379 149.978ZM54.9689 138.284C53.7787 140.222 53.4047 144.425 54.1802 146.107C55.0428 147.977 56.2216 148.781 57.784 148.564C61.7271 148.023 66.5226 141.568 67.0619 138.138C67.1827 137.371 67.7322 137.362 67.8969 137.378C68.1602 137.403 68.598 137.56 68.5732 138.334C68.5353 139.496 68.63 139.816 68.6722 139.899C69.3392 140.812 70.5865 141.805 71.9957 142.535C73.5846 143.357 76.001 143.4 77.8718 142.64C78.8691 142.234 80.1673 141.424 80.6851 139.866C81.4234 137.646 81.3024 135.632 80.3344 134.043C79.4846 132.647 78.0088 131.632 76.1168 131.121C75.9958 131.103 75.8672 131.082 75.7313 131.058C74.8001 130.892 74.5499 130.848 74.359 130.497C74.2226 130.247 74.24 129.941 74.4041 129.708C74.6757 129.322 75.0886 129.386 75.2645 129.414C75.661 129.477 76.0456 129.557 76.4176 129.653C76.6937 129.694 76.9492 129.723 77.0934 129.717C78.0663 129.677 79.1446 129.037 79.7072 128.425C81.8673 126.078 83.3328 122.413 80.9683 119.166C79.1961 116.733 74.9289 118.359 72.105 119.435C70.2036 120.159 69.2602 120.493 68.5859 120.168C68.3224 120.04 68.1285 119.818 68.0401 119.54C68.0401 119.54 68.0401 119.54 68.04 119.54C67.255 117.07 63.6438 113.703 61.026 113.643C59.6985 113.613 58.7582 114.404 58.1475 116.059C57.8519 116.86 58.0375 118.165 58.217 119.426C58.4974 121.395 58.7866 123.431 57.5268 124.656C57.0919 125.08 56.3207 125.038 54.0521 124.802C53.381 124.732 52.4612 124.635 52.2404 124.668C50.6064 124.942 48.2915 126.793 47.0662 128.797C46.3302 130.001 46.0687 131.116 46.3298 131.938C46.9926 134.023 49.6 137.494 51.3212 137.518C51.7242 137.505 52.9383 137.276 54.0677 136.974C54.1925 136.818 54.3233 136.677 54.46 136.552C54.5628 136.458 54.6799 136.335 54.8053 136.204C55.3695 135.615 55.9537 135.006 56.6626 135.054C56.9902 135.076 57.2817 135.241 57.4843 135.519C57.765 135.905 57.8036 136.362 57.59 136.776C57.2487 137.437 56.1521 137.931 54.9689 138.284ZM69.4659 119.085C69.4661 119.085 69.4662 119.086 69.4663 119.086L69.4662 119.086C69.4662 119.086 69.4661 119.085 69.4659 119.085Z" fill="#231F20"/>
<path d="M84.4955 30.3588C84.1339 30.4348 83.7358 30.4419 83.3115 30.3753C82.4997 30.2474 81.9725 29.7221 81.9019 28.9698C81.7649 27.5064 83.6013 25.1348 84.2425 24.9057C84.8052 24.7044 85.3954 24.8863 85.8213 25.3919C86.5077 26.2056 86.7926 27.9636 86.1046 29.1849C85.7522 29.8103 85.1911 30.2124 84.4955 30.3588ZM83.3965 28.8629C83.4035 28.8614 83.4477 28.8827 83.5438 28.8976C84.4864 29.046 84.7657 28.5992 84.8923 28.2507C85.1531 27.5345 84.9236 26.679 84.7112 26.3904C84.1639 26.9437 83.2481 28.4612 83.3959 28.863C83.3962 28.863 83.3965 28.8629 83.3965 28.8629ZM84.4941 25.61L84.497 25.6094L84.4941 25.61Z" fill="#231F20"/>
<path d="M83.83 45.7041C83.0487 45.8688 82.1067 45.9456 80.9635 45.9092C80.7025 45.9011 80.4208 45.902 80.1274 45.9023C78.7369 45.9054 77.0063 45.9091 75.7542 45.0166C72.8691 42.9583 71.9696 38.9409 73.6612 35.6719C73.7808 35.4413 74.0119 35.1985 74.4442 34.7535C74.5235 34.6717 74.6274 34.5651 74.737 34.4494C74.5263 34.4669 74.3988 34.4698 74.2825 34.4515L74.0577 34.4163C71.095 33.9537 65.5805 33.0926 65.1112 29.2792C64.9164 27.6964 65.6091 19.2199 68.0359 17.9333C69.9598 16.9129 73.5539 17.8507 74.6617 18.2594C75.1717 18.4474 75.6545 18.9252 76.1212 19.3968C76.1537 18.6418 76.1069 17.8672 76.0578 17.0615C75.9154 14.7137 75.7543 12.0523 77.8337 9.56533C80.5851 6.27505 83.3427 6.84954 84.7424 7.48473C88.2099 9.05879 90.6786 14.082 90.0259 18.2349C89.9631 18.6352 90.0067 18.803 90.0237 18.849C90.5393 19.056 92.7642 17.9809 94.0992 17.3353C97.4069 15.7367 101.156 13.9248 102.844 16.2432C104.739 18.845 103.495 23.0531 102.873 24.7412C102.699 25.2119 102.158 25.5814 101.048 26.3062C100.737 26.51 100.303 26.7932 99.9633 27.0421C100.181 27.0758 100.412 27.103 100.591 27.1239C101.297 27.2069 102.027 27.2927 102.541 27.5982C105.441 29.3223 106.606 34.378 105.525 37.3078C103.586 42.5648 96.0197 42.2067 91.6816 41.5252C90.1256 41.2806 89.7961 40.578 89.5274 39.6846C89.4444 39.4094 89.3588 39.1248 89.1896 38.8057C89.1572 38.7447 89.1306 38.6809 89.1078 38.6147C88.5268 39.3699 88.2717 40.2714 88.0053 41.2107C87.4899 43.0359 86.9179 45.0543 83.83 45.7041ZM74.4763 32.9683C74.5544 32.9659 74.7447 32.9476 74.8864 32.9339C75.8955 32.8372 76.6249 32.7668 76.8492 33.4699C77.0672 34.1557 76.4852 34.801 75.517 35.7966C75.3149 36.0045 75.0387 36.2888 74.9773 36.3819C73.66 38.9295 74.3773 42.197 76.6228 43.7992C77.4836 44.413 78.8863 44.4098 80.124 44.4071C80.4356 44.4063 80.7343 44.4058 81.011 44.4146C85.5036 44.5561 85.9503 42.9826 86.5672 40.8043C86.9656 39.3982 87.4168 37.8039 89.0236 36.6339C89.2908 36.4391 89.617 36.3998 89.8969 36.5281C90.3917 36.7541 90.4362 37.2911 90.4726 37.7225C90.4829 37.8454 90.4997 38.0476 90.522 38.1245C90.7534 38.5656 90.8682 38.9472 90.9607 39.2546C91.1412 39.8537 91.1642 39.9308 91.9151 40.0486C95.0431 40.5399 102.494 41.2066 104.123 36.7915C104.983 34.4596 104 30.207 101.777 28.8855C101.537 28.7429 100.916 28.6698 100.418 28.6112C99.5803 28.5129 98.7896 28.4197 98.3098 27.9776C98.0929 27.7781 97.9823 27.4963 98.0063 27.205C98.0645 26.5024 98.8092 25.9849 100.231 25.0556C100.668 24.7702 101.317 24.3465 101.495 24.1586C101.937 22.9399 103.118 19.1609 101.636 17.1257C100.682 15.8167 97.2543 17.4742 94.7511 18.6837C92.1255 19.9525 90.2288 20.8696 89.1215 20.0478C88.5901 19.6539 88.3977 18.9661 88.5486 18.004L89.2876 18.1203L88.5486 18.004C89.0876 14.5749 86.9378 10.1254 84.1248 8.84866C82.3512 8.04358 80.5724 8.62335 78.9818 10.5262C77.284 12.5571 77.414 14.7017 77.5516 16.9728C77.6235 18.1583 77.6973 19.3837 77.5053 20.6073C77.4138 21.1907 77.0261 21.3753 76.8638 21.4275C76.2298 21.6343 75.7309 21.1306 75.1016 20.494C74.8237 20.2135 74.3587 19.743 74.1446 19.6642C72.6555 19.1154 69.8737 18.6554 68.7371 19.256C67.4468 19.9402 66.3407 27.0218 66.5965 29.0975C66.9274 31.7902 71.8994 32.5664 74.2889 32.9392L74.4763 32.9683ZM90.5118 38.105C90.5124 38.1061 90.5128 38.1069 90.5134 38.108C90.5128 38.1066 90.5124 38.1061 90.5118 38.105ZM74.5076 32.973L74.5146 32.9743C74.5121 32.9739 74.5101 32.9734 74.5076 32.973ZM90.0301 18.8633L90.033 18.8626L90.0301 18.8633Z" fill="#231F20"/>
<path d="M105.037 79.7325C104.839 79.7741 104.625 79.7362 104.448 79.6091L104.072 79.3409L101.423 78.9244C101.015 78.8602 100.737 78.4773 100.801 78.0692C100.865 77.661 101.248 77.3826 101.656 77.4465L104.479 77.8903C104.594 77.9087 104.703 77.953 104.798 78.0208L105.317 78.3918C105.654 78.6317 105.731 79.099 105.491 79.4351C105.378 79.594 105.214 79.6953 105.037 79.7325Z" fill="#231F20"/>
<path d="M82.3156 25.5414C82.2289 25.5597 82.1378 25.5626 82.0455 25.5481L81.4808 25.4594C81.2335 25.4206 81.0222 25.2605 80.9172 25.0334L80.4862 24.0981C80.4247 23.9642 80.404 23.8151 80.4269 23.6694L80.5599 22.8223C80.6237 22.4139 81.0082 22.1355 81.4148 22.1994C81.8229 22.2633 82.1016 22.6462 82.0377 23.0543L81.9399 23.6778L82.1087 24.044L82.2775 24.0706C82.6857 24.1345 82.9644 24.5176 82.9005 24.9255C82.851 25.241 82.6107 25.4793 82.3156 25.5414Z" fill="#231F20"/>
<path d="M98.4517 73.7805C98.3651 73.7988 98.2737 73.8018 98.181 73.7871L97.6165 73.698C97.2086 73.634 96.9299 73.2508 96.9942 72.8429L97.083 72.2785C97.108 72.1185 97.1844 71.9713 97.3006 71.8582L98.2768 70.9092L98.9799 69.9238C99.2202 69.5868 99.6867 69.5094 100.023 69.7492C100.359 69.9891 100.437 70.4563 100.198 70.7924L99.4553 71.8328C99.4294 71.8694 99.4001 71.9034 99.3679 71.9346L98.7966 72.4902C98.9793 72.6539 99.0778 72.904 99.0366 73.1643C98.9869 73.4802 98.7465 73.7185 98.4517 73.7805Z" fill="#231F20"/>
<path d="M90.4741 28.8485C90.2765 28.8901 90.0628 28.8522 89.8854 28.7253L89.5087 28.4567L88.6736 28.3254L87.9026 28.4547C87.4952 28.5227 87.1096 28.2476 87.0413 27.8401C86.973 27.4325 87.2345 27.0525 87.6559 26.9788L88.5469 26.8298C88.6264 26.8168 88.707 26.816 88.7864 26.8287L89.9155 27.0059C90.03 27.024 90.139 27.0684 90.2337 27.1362L90.7539 27.5073C91.0902 27.7472 91.1683 28.2144 90.9284 28.5505C90.8152 28.71 90.6513 28.8112 90.4741 28.8485Z" fill="#231F20"/>
<path d="M92.3182 75.9977C92.1203 76.0393 91.9065 76.0011 91.7291 75.8743L91.2094 75.503C91.1037 75.4277 91.0196 75.3259 90.9651 75.2077L90.5332 74.2726C90.4713 74.1385 90.4502 73.9889 90.4736 73.8427L90.5627 73.2782C90.6267 72.8703 91.0103 72.5909 91.4181 72.6561C91.826 72.7204 92.1048 73.1035 92.0402 73.5115L91.9868 73.8517L92.2404 74.4016L92.5987 74.6576C92.9351 74.8977 93.0127 75.3651 92.7727 75.7008C92.659 75.8593 92.495 75.9605 92.3182 75.9977Z" fill="#231F20"/>
<path d="M94.4353 86.4541C94.2069 86.5022 93.9591 86.443 93.7743 86.2725C93.4703 85.9928 93.4505 85.5197 93.7305 85.2159C93.944 84.9839 94.0638 84.8367 94.151 84.7297C94.436 84.3796 94.5678 84.294 95.0328 84.1573C95.1166 84.133 95.2225 84.1015 95.361 84.0577C95.7581 83.931 96.1757 84.1504 96.3001 84.544C96.4252 84.9378 96.2076 85.3584 95.8138 85.4832C95.6622 85.5316 95.5459 85.5655 95.4546 85.5924C95.4143 85.6042 95.3811 85.6134 95.3526 85.6218C95.3402 85.6369 95.3267 85.6541 95.3106 85.6737C95.2169 85.7892 95.0749 85.963 94.8308 86.2281C94.7218 86.348 94.5823 86.4232 94.4353 86.4541Z" fill="#231F20"/>
<path d="M115.17 117.729C115 117.764 114.821 117.787 114.634 117.797C113.001 117.879 110.963 116.91 110.155 115.989C109.604 115.362 109.154 114.76 108.787 114.157C108.177 114.935 107.431 115.786 106.598 116.456C104.289 118.315 102.529 117.795 101.459 117.032C99.8384 115.876 99.2868 113.54 99.8183 110.087C98.7129 109.836 97.6294 109.368 97.3595 109.061C95.4466 106.881 93.9356 105.159 96.8637 102.176C98.3834 100.628 99.8313 99.7852 101.162 99.665C101.877 99.6008 102.535 100.105 103.125 100.608C103.116 100.558 103.107 100.508 103.097 100.458C102.989 99.8823 102.867 99.2299 103.278 98.6413C103.615 98.1589 104.2 97.8719 105.174 97.7085C106.685 97.4557 109.199 97.6662 110.42 101.323C111.161 100.681 112.274 100.247 113.615 100.127C115.96 99.9181 118.576 100.797 119.133 103.232C119.375 104.291 119.268 105.151 118.817 105.788C118.111 106.786 116.798 106.94 115.838 107.051C116.737 107.783 116.974 108.012 117.093 108.235C118.152 110.231 118.146 114.731 116.69 116.773C116.336 117.268 115.817 117.592 115.17 117.729ZM109.972 113.223C110.309 113.803 110.737 114.385 111.279 115.002C111.774 115.567 113.37 116.362 114.559 116.303C115.212 116.269 115.406 115.995 115.471 115.904C116.489 114.477 116.661 110.693 115.796 108.984C115.622 108.799 114.964 108.267 114.603 107.976C113.74 107.279 113.584 107.153 113.656 106.701C113.801 105.779 114.787 105.666 115.657 105.566C116.377 105.483 117.274 105.38 117.596 104.924C117.79 104.648 117.817 104.191 117.673 103.565C117.318 102.009 115.445 101.465 113.747 101.617C112.177 101.758 110.965 102.479 110.927 103.297C110.892 104.05 110.413 104.161 110.209 104.173C109.759 104.202 109.479 103.92 109.378 103.337C108.841 100.232 107.509 98.834 105.42 99.1836C104.641 99.3129 104.509 99.49 104.504 99.4975C104.452 99.5714 104.524 99.9534 104.567 100.182C104.651 100.63 104.755 101.188 104.657 101.816C104.571 102.361 104.234 102.561 104.04 102.632C103.44 102.853 102.924 102.411 102.331 101.898C102.059 101.664 101.495 101.176 101.278 101.155C100.338 101.239 99.1758 101.956 97.9302 103.224C95.988 105.202 96.5488 105.869 98.4444 108.03C98.7528 108.227 99.677 108.529 100.429 108.684C100.711 108.246 101.086 107.86 101.554 107.826C101.738 107.812 102.361 107.832 102.63 108.68C102.814 109.257 102.622 109.789 102.129 110.067C101.918 110.186 101.634 110.244 101.31 110.258C101.306 110.268 101.303 110.278 101.3 110.288C100.855 113.151 101.2 115.011 102.327 115.814C102.937 116.25 103.947 116.669 105.659 115.291C106.874 114.313 107.939 112.82 108.575 111.928C108.854 111.538 109.253 111.511 109.51 111.607C110.081 111.819 110.028 112.397 109.996 112.742C109.985 112.865 109.963 113.108 109.972 113.223ZM109.938 113.164C109.938 113.165 109.939 113.165 109.939 113.165C109.939 113.165 109.938 113.165 109.938 113.164ZM101.306 110.257C101.305 110.26 101.305 110.262 101.305 110.264C101.305 110.262 101.305 110.259 101.306 110.257Z" fill="#231F20"/>
<path d="M98.0425 81.5474C96.018 81.9735 94.5723 80.7172 94.185 79.2385C93.8058 77.7896 94.403 75.9332 96.6104 75.2807C97.6127 74.9835 98.562 75.2161 99.2853 75.9331C100.173 76.8124 100.544 78.2972 100.189 79.5433C99.8945 80.5732 99.1384 81.2982 98.1142 81.5321C98.0899 81.5372 98.0662 81.5425 98.0425 81.5474ZM97.0345 76.7152C95.6892 77.113 95.438 78.1191 95.6321 78.8597C95.8419 79.6606 96.5803 80.3448 97.7806 80.0733C98.278 79.9597 98.604 79.6432 98.7499 79.1324C98.9558 78.4107 98.7331 77.492 98.2321 76.9955C97.9002 76.6666 97.5068 76.5739 97.0345 76.7152Z" fill="#231F20"/>
<path d="M103.052 120.824C102.235 120.996 100.819 121.024 98.3753 120.926C98.2468 120.921 98.1589 120.917 98.1242 120.917C92.859 120.966 87.5831 119.921 82.6668 118.784C72.3561 116.4 60.5996 113.317 51.5679 106.876C48.2437 104.505 45.6875 101.401 43.2154 98.4002C39.6827 94.1118 36.3462 90.0612 30.9928 88.0869C26.9201 86.5849 18.3576 89.3935 13.7574 90.9027C13.1706 91.0953 12.6318 91.272 12.1535 91.424C9.19664 92.3639 6.16854 93.4328 2.96256 94.5645C-6.57119 97.9297 -16.4298 101.41 -25.8402 102.001C-26.3688 102.035 -27.1787 102.183 -28.1165 102.354C-31.6156 102.993 -36.4074 103.868 -38.2868 101.288C-39.1338 100.125 -39.5395 97.5982 -39.9463 94.66C-40.0684 93.7786 -40.1735 93.0177 -40.2699 92.6396C-40.2953 92.5392 -40.4054 92.1829 -40.5218 91.8057C-41.7974 87.6749 -41.7992 87.383 -41.2218 87.0034C-40.5429 86.5563 -39.6944 86.3142 -38.8363 86.3225C-34.3983 86.3615 -30.3966 85.9147 -26.1605 85.4419C-24.3675 85.2419 -22.5134 85.0348 -20.6017 84.8643C-18.8242 84.7055 -17.0647 84.6196 -15.3634 84.5364C-11.034 84.3249 -6.94469 84.1263 -2.78851 82.8041C-1.25216 82.316 0.888276 79.3956 2.30442 77.4631C2.90159 76.6483 3.41731 75.9448 3.84975 75.4456C7.50411 71.2331 12.0297 67.2148 18.0929 62.7987C18.3849 62.5862 18.6815 62.3685 18.9829 62.1473C21.1389 60.5664 23.5823 58.7748 25.9493 57.5891C26.0962 57.5157 27.4045 56.8854 28.1151 57.4043C28.3994 57.6122 28.5357 57.952 28.4788 58.3134C28.2366 59.8576 25.8848 61.8026 23.497 63.6623C23.1762 63.912 22.9085 64.1203 22.7268 64.2722C19.0121 67.376 6.20625 80.3965 5.73831 83.3756C5.7248 83.4625 5.71735 83.5738 5.75964 83.6077C5.87819 83.7032 6.66212 84.1247 10.4391 83.0159C12.8429 82.3113 15.5125 81.2735 17.4614 80.5158C18.452 80.1309 19.2343 79.8269 19.6848 79.6838C24.1406 78.267 29.6154 79.1356 34.9135 79.974C38.3918 80.5243 41.6779 81.0442 44.5563 80.9246C59.0247 80.3246 70.5493 74.5733 77.8809 64.2941C78.8852 62.8861 79.7887 59.1769 80.6622 55.5899C82.0263 49.9885 82.9418 46.5135 84.4996 45.6873C84.7313 45.5649 85.0364 45.5719 85.2603 45.7049C85.7337 45.9859 85.7382 46.3255 85.7655 48.5373C85.7837 50.0331 85.8402 54.5728 86.5307 55.13C86.5327 55.1308 86.5347 55.1317 86.537 55.1324C86.64 54.993 86.787 54.808 87.0114 54.6033C91.8275 50.2044 96.4258 47.646 101.921 46.3078C103.595 45.8999 106.843 45.2873 109.82 45.7554C109.947 45.7754 110.149 45.7873 110.362 45.7999C111.187 45.8481 111.966 45.8933 112.3 46.4803C112.464 46.7681 112.463 47.1149 112.299 47.4316C112.135 47.749 112.132 47.7548 106.974 50.3157C103.503 52.0384 98.7507 54.3976 97.909 55.0107C95.0607 57.0852 92.7582 59.4913 90.3213 62.0391C88.8615 63.5647 87.3517 65.1423 85.725 66.6281C84.2282 67.9954 82.6259 69.34 80.9294 70.764C77.0411 74.0272 73.0259 77.3969 70.2158 81.1523C71.8086 82.1092 77.5156 84.3298 78.5334 84.5155C78.5594 84.5143 78.5874 84.5109 78.6153 84.5084C78.8504 84.4876 79.2438 84.4525 79.54 84.769C79.7128 84.954 79.7893 85.207 79.7494 85.4633C79.6076 86.3602 78.6542 86.6544 72.9743 86.7524C72.6364 86.758 72.3939 86.7617 72.2982 86.7678C65.5041 87.1949 58.2436 87.5763 50.7435 87.1547L50.4488 87.136C49.5725 87.0789 46.9053 86.9049 46.1862 87.6417C46.1071 87.7231 46.0287 87.839 46.0504 88.0827C46.3499 91.4326 51.3796 94.8383 55.9872 96.908C60.0694 98.7413 63.9367 100.886 67.6764 102.96C74.3779 106.677 80.7076 110.187 88.1841 112.069C91.5081 112.906 94.579 114.423 97.5492 115.89C99.043 116.628 100.588 117.392 102.113 118.038L102.229 118.085C102.947 118.375 104.285 118.913 104.121 119.956C104.053 120.379 103.812 120.664 103.052 120.824ZM22.5578 86.8333C25.9206 86.1257 29.2184 85.8383 31.5101 86.6836C37.2436 88.7977 40.8664 93.1959 44.3699 97.4492C46.7803 100.375 49.2727 103.401 52.4364 105.658C61.2444 111.94 72.8331 114.975 83.0034 117.327C87.8297 118.442 93.0007 119.468 98.1155 119.421C98.1496 119.42 98.2627 119.425 98.4347 119.431C99.9739 119.493 100.989 119.492 101.657 119.467L101.528 119.413C99.9635 118.75 98.3987 117.977 96.8855 117.23C93.9858 115.797 90.9873 114.316 87.8177 113.518C80.1519 111.589 73.4404 107.866 66.9498 104.267C63.2368 102.208 59.3978 100.079 55.3733 98.2709C52.9499 97.1821 45.0085 93.2396 44.5594 88.2142C44.5031 87.5846 44.6953 87.025 45.1152 86.5952C46.1695 85.5151 48.3485 85.499 50.5453 85.6418L50.8267 85.6596C58.2445 86.0768 65.4543 85.6972 72.2036 85.2734C72.3089 85.2668 72.5759 85.2616 72.9475 85.255C74.1009 85.2352 75.0238 85.2057 75.7607 85.1696C74.9568 84.8728 74.08 84.5315 73.2822 84.2053C68.896 82.4121 68.681 81.9003 68.5524 81.5944C68.4365 81.3183 68.468 81.0117 68.6373 80.7746C71.5683 76.6651 75.8381 73.0819 79.9671 69.6167C81.6512 68.2035 83.242 66.8687 84.7158 65.5224C86.3056 64.0707 87.7972 62.5113 89.2397 61.0037C91.6154 58.5211 94.0717 55.9539 97.0279 53.8007C97.9025 53.1638 101.585 51.3195 106.308 48.9748C107.554 48.3568 108.822 47.7266 109.755 47.2542C109.697 47.2479 109.641 47.241 109.587 47.2324C107.601 46.9198 104.935 47.1123 102.275 47.7604C97.0372 49.0357 92.641 51.4867 88.0203 55.7069C87.8633 55.8503 87.7756 55.9712 87.6908 56.0884C87.2475 56.6999 86.7881 56.8183 85.9948 56.5266C84.6055 56.0136 84.3315 53.5478 84.27 48.5555C84.2692 48.5168 84.269 48.4777 84.2684 48.4387C83.499 50.2644 82.7273 53.4328 82.116 55.9432C81.1669 59.8393 80.2708 63.5194 79.0988 65.162C71.4893 75.8308 59.5656 81.7982 44.6184 82.4185C41.5914 82.544 38.2339 82.0129 34.6798 81.4507C29.5539 80.6393 24.254 79.8009 20.1381 81.1085C19.7327 81.2375 18.9699 81.5341 18.0038 81.9092C10.8543 84.688 6.40518 86.0477 4.82142 84.7719C4.55049 84.5538 4.11741 84.0518 4.26045 83.1421C4.88395 79.1732 19.1747 65.2894 21.7677 63.123C21.9588 62.9633 22.2406 62.7434 22.5779 62.4808C23.4775 61.7799 25.5293 60.1818 26.492 58.9898C24.2754 60.1203 21.9359 61.8359 19.8672 63.3526C19.5645 63.5747 19.2662 63.7931 18.9735 64.0063C13.0041 68.3538 8.55744 72.2998 4.97965 76.4244C4.58723 76.8769 4.08841 77.5576 3.5107 78.3457C1.79759 80.683 -0.33422 83.5922 -2.3357 84.228C-6.67648 85.6086 -10.8613 85.8124 -15.2908 86.0291C-16.9774 86.1113 -18.7217 86.1967 -20.4689 86.3525C-22.364 86.5217 -24.2099 86.7276 -25.995 86.9269C-30.2775 87.4049 -34.3221 87.8567 -38.85 87.8165C-38.8502 87.8166 -38.8502 87.8166 -38.8502 87.8166C-39.262 87.8127 -39.6784 87.8982 -40.0398 88.0568C-39.8692 88.8501 -39.3213 90.6242 -39.0933 91.3629C-38.9371 91.8687 -38.8539 92.1389 -38.8206 92.2695C-38.7042 92.7284 -38.5984 93.4897 -38.4649 94.4538C-38.2061 96.323 -37.773 99.4519 -37.0785 100.406C-35.7521 102.227 -31.3191 101.417 -28.386 100.881C-27.4014 100.702 -26.5515 100.546 -25.9347 100.508C-16.7321 99.9285 -6.97346 96.4845 2.46397 93.1527C5.68136 92.017 8.71999 90.9443 11.6997 89.9972C12.174 89.8463 12.7086 89.6712 13.2908 89.4802C15.8331 88.6477 19.2272 87.5342 22.5578 86.8333Z" fill="#231F20"/>
<path d="M80.3873 30.4451C80.3006 30.4633 80.2096 30.4663 80.1169 30.4519L77.0125 29.9638C76.8165 29.9332 76.6407 29.8256 76.5238 29.6652C76.4069 29.5049 76.3586 29.3047 76.3892 29.1087L76.478 28.5442C76.5423 28.136 76.9258 27.8575 77.3333 27.9216C77.6815 27.9764 77.935 28.2627 77.9629 28.5987L80.3495 28.9739C80.7574 29.0382 81.0361 29.421 80.9722 29.8292C80.9224 30.1448 80.6824 30.383 80.3873 30.4451Z" fill="#231F20"/>
<path d="M101.045 84.8899C100.847 84.9315 100.634 84.8936 100.456 84.7671L99.9361 84.3962C99.8044 84.3022 99.7065 84.1681 99.6578 84.0136L99.2705 82.7963C99.1451 82.4026 99.3626 81.9817 99.7561 81.8567C100.153 81.7313 100.571 81.9489 100.696 82.3423L101.008 83.3229L101.325 83.549C101.661 83.7892 101.74 84.2561 101.5 84.5924C101.386 84.7511 101.222 84.8526 101.045 84.8899Z" fill="#231F20"/>
<path d="M91.0945 24.8967C91.0079 24.915 90.9168 24.918 90.8245 24.9034C90.2914 24.8196 89.9829 24.7485 89.799 24.7059C89.7479 24.694 89.7088 24.6839 89.675 24.6773C89.6298 24.6904 89.5497 24.7168 89.4723 24.7425C89.3848 24.7716 89.2785 24.8068 89.1464 24.8487C88.7552 24.9732 88.332 24.7562 88.2072 24.3624C88.0819 23.969 88.2997 23.548 88.6935 23.4233C88.8185 23.3835 88.9185 23.3503 89.0011 23.3231C89.5014 23.1564 89.6423 23.1343 90.1359 23.2485C90.3111 23.289 90.5762 23.3503 91.0562 23.4257C91.4643 23.4896 91.7431 23.8727 91.6791 24.2806C91.6297 24.5964 91.3897 24.8346 91.0945 24.8967Z" fill="#231F20"/>
<path d="M91.6968 79.9498C91.6101 79.968 91.519 79.971 91.4264 79.9565L90.953 79.8822L89.9528 79.9716L89.4218 80.1405C89.3116 80.1759 89.1939 80.1845 89.0791 80.1667L88.515 80.0779C88.1068 80.0136 87.8283 79.6304 87.8923 79.2226C87.9565 78.8144 88.3407 78.536 88.7476 78.5999L89.1372 78.6613L89.578 78.5215C89.6298 78.5047 89.6835 78.494 89.7378 78.4893L90.9115 78.3845C90.9724 78.3791 91.0337 78.3811 91.0944 78.3907L91.6589 78.4795C92.0668 78.5438 92.3455 78.9266 92.2815 79.3348C92.2319 79.6494 91.9919 79.8877 91.6968 79.9498Z" fill="#231F20"/>
<path d="M42.6429 82.1328C42.3399 82.1965 41.9759 82.1374 41.5476 82.0257C40.3576 81.716 35.5297 79.8373 35.0891 78.8825C33.3634 75.1393 42.4534 69.2455 42.5485 69.1936C42.8955 69.0047 43.3543 69.1069 43.5647 69.4402C43.7379 69.7141 43.815 70.1342 43.1997 70.5822C42.3471 71.2031 42.9268 73.121 43.4877 74.9756C44.2596 77.5281 45.1344 80.4213 42.9998 81.9763C42.892 82.0553 42.7732 82.1053 42.6429 82.1328ZM36.4124 78.1684C37.1294 78.7479 41.193 80.5282 42.2564 80.6564C43.2654 79.7485 42.8081 77.8966 42.056 75.409C41.6949 74.2146 41.3273 72.9996 41.2767 71.9298C39.008 73.7292 35.8947 76.6698 36.4124 78.1684ZM42.7595 69.9781L42.7624 69.9775L42.7595 69.9781Z" fill="#231F20"/>
<path d="M111.957 97.251C109.097 97.8528 106.104 97.6706 103.96 96.9577C102.162 96.3597 100.993 94.3517 100.423 92.4985C100.333 92.9015 100.255 93.2247 100.172 93.4498C99.1894 96.1151 95.5553 98.3418 92.4737 99.164C89.7037 99.9016 87.3442 99.6136 85.8321 98.3496C83.7859 96.6388 83.344 88.7609 84.1469 86.5842C84.313 86.1331 84.6816 85.7054 85.1082 85.331C82.6261 85.2764 80.6218 84.3691 79.4575 82.7706C77.1451 79.5957 77.4758 75.9294 80.3879 72.4466C82.4241 70.0113 84.4314 70.692 85.8972 71.1894C86.7631 71.4832 87.516 71.7382 88.2154 71.4598C88.4627 70.9819 88.4644 69.0606 88.4654 68.0117C88.4667 66.4882 88.4792 65.5275 88.7054 64.9928C90.0413 61.8393 93.4805 60.7679 96.2441 59.9066C96.4573 59.8404 96.6679 59.7747 96.8736 59.7093C99.6603 58.8196 102.892 60.9016 104.292 63.3346C104.88 64.3576 105.121 65.3791 105.022 66.3148C106.147 65.7587 107.298 65.216 108.47 64.7419C113.097 62.8676 118.795 65.6005 121.42 69.2053C123.794 72.4639 120.964 77.9618 118.922 80.1814C118.345 80.8085 117.392 81.095 116.382 81.1977C119.007 83.1955 120.301 85.6096 120.328 88.5356C120.353 91.2163 119.176 93.4999 116.925 95.1401C115.482 96.1913 113.745 96.8747 111.957 97.251ZM100.559 88.8295C100.754 88.7884 100.953 88.8138 101.13 88.9077C101.681 89.1999 101.661 89.831 101.636 90.5616C101.629 90.7977 101.618 91.1204 101.643 91.2417C102.001 92.9833 103.027 95.0706 104.432 95.5379C107.562 96.5789 112.696 96.369 116.045 93.9305C117.916 92.5676 118.854 90.7572 118.833 88.5488C118.806 85.6173 117.287 83.3565 114.054 81.4339C113.767 81.2633 113.043 81.0706 112.531 80.9653C112.462 80.9522 112.403 80.9407 112.355 80.9312C111.953 80.8495 111.692 80.4591 111.77 80.0562C111.847 79.6531 112.237 79.3884 112.639 79.4624C112.678 79.4696 112.741 79.4814 112.822 79.4979C114.541 79.8192 117.126 79.9234 117.822 79.1677C119.625 77.2071 121.967 72.4956 120.211 70.0852C117.907 66.9214 112.864 64.5777 109.031 66.1278C107.357 66.8051 105.701 67.6405 104.101 68.4485C104.07 68.4638 104.039 68.4798 104.008 68.4955C103.929 68.5793 103.845 68.6611 103.758 68.7407C103.758 68.7407 103.758 68.7408 103.757 68.7411C103.465 69.0057 102.841 69.1223 102.5 68.9762C102.231 68.8617 102.047 68.5948 102.038 68.3034C102.03 68.0035 102.197 67.7306 102.476 67.5915C102.674 67.4923 102.873 67.3925 103.071 67.2927C103.95 66.1663 103.422 64.8222 102.994 64.0796C101.903 62.1814 99.3093 60.5032 97.3267 61.1341C97.1177 61.2004 96.9049 61.2669 96.6888 61.3341C94.0916 62.1436 91.1477 63.0608 90.0826 65.5759C89.9627 65.8622 89.9616 67.1049 89.9609 68.0125C89.9585 70.6745 89.9074 72.3292 88.9242 72.7825C87.6582 73.3657 86.4669 72.9624 85.4156 72.6055C83.9635 72.1124 82.9141 71.756 81.5351 73.4055C79.8164 75.4607 78.2707 78.6009 80.6656 81.8893C81.8715 83.5445 84.0326 83.8196 85.2132 83.8362C85.9821 83.8465 87.4727 83.9068 87.5357 83.9094C87.8774 83.9234 88.1663 84.1675 88.237 84.502C88.3078 84.8369 88.1424 85.1771 87.8354 85.3283C87.0315 85.724 85.7484 86.5614 85.5496 87.1013C84.8073 89.114 85.4856 96.1102 86.7904 97.2013C87.9023 98.1307 89.8329 98.3203 92.0873 97.7181C95.1955 96.8892 98.0676 94.8316 98.7681 92.9317C98.8315 92.7594 98.9241 92.3449 99.0131 91.944C99.3602 90.3869 99.6112 89.4123 100.171 89.005C100.294 88.9164 100.425 88.8575 100.559 88.8295ZM103.147 68.9295C103.147 68.9299 103.146 68.93 103.145 68.9305C103.146 68.93 103.147 68.9298 103.147 68.9295ZM103.257 68.1871L103.259 68.1864L103.257 68.1871Z" fill="#231F20"/>
<path d="M57.3458 70.6576C56.0887 70.9225 54.3774 70.7057 52.0989 70.0065C50.1755 69.4164 49.0022 65.9153 48.7837 63.6174C48.7302 63.0551 48.722 62.5341 48.7583 62.0586C46.5051 62.2769 44.2832 61.4668 42.934 59.8209C41.4374 57.9947 41.4069 55.6295 42.8501 53.3318C44.4788 50.7383 46.1544 49.0086 47.9723 48.0442C48.4101 47.813 48.909 47.8652 49.4371 48.0775C48.8427 46.2813 48.9366 44.3957 49.7395 42.587C51.0634 39.6045 54.2146 37.2088 57.234 36.8858C59.1214 36.6856 60.7113 37.3312 61.7113 38.7039C62.8028 40.2016 63.2502 42.7068 63.4211 44.8966C64.4607 43.9832 66.1759 42.603 68.2183 42.4202C69.5612 42.3 70.9524 42.8248 72.1363 43.8976C73.454 45.0916 74.2811 46.7877 74.2956 48.324C74.3355 52.6498 71.7636 54.1434 69.0856 55.4C69.2287 55.5307 69.3805 55.6596 69.4732 55.7382C69.7308 55.957 69.859 56.0679 69.9539 56.1978C70.1806 56.5093 70.4096 56.7999 70.6314 57.0807C71.2986 57.9269 71.9284 58.7259 72.3829 59.9208C73.1605 61.9673 73.2092 63.7983 72.5241 65.2164C71.9481 66.4096 70.8934 67.2567 69.3897 67.7346C67.476 68.3455 62.8135 68.1541 61.2636 66.0262C60.7606 65.3359 60.4851 64.6209 60.333 63.9754C60.2463 64.5048 60.2177 65.0967 60.188 65.7025C60.1097 67.3149 60.0207 69.1427 58.6275 70.1207C58.2663 70.3743 57.8414 70.5533 57.3458 70.6576ZM50.3057 61.7434C50.2249 62.231 50.2108 62.8222 50.2728 63.4759C50.5162 66.0314 51.6904 68.3164 52.5379 68.5765C55.1631 69.3822 56.9232 69.4906 57.7676 68.8965C58.5615 68.3393 58.6258 67.0233 58.6933 65.6299C58.7739 63.9745 58.8651 62.098 60.31 61.0458C60.5693 60.8573 60.8854 60.8266 61.1571 60.9623C61.6225 61.1952 61.6294 61.6685 61.6359 62.1264C61.6451 62.7934 61.6627 64.035 62.4718 65.1457C63.4348 66.4675 67.2608 66.8422 68.9363 66.3093C70.0324 65.9609 70.7862 65.3746 71.1765 64.5663C71.8106 63.2539 71.4216 61.6047 70.9839 60.4528C70.6109 59.4725 70.0758 58.7935 69.4557 58.0071C69.2313 57.7223 68.999 57.4278 68.7615 57.1027C68.7156 57.0576 68.5947 56.9553 68.5047 56.8791C67.8564 56.3292 67.1858 55.7607 67.2808 55.0644C67.3254 54.7398 67.5316 54.4704 67.8461 54.326C71.0307 52.8576 72.8312 51.855 72.7986 48.3382C72.7881 47.2058 72.1492 45.929 71.1311 45.0065C70.26 44.2173 69.2725 43.828 68.3506 43.9104C66.5991 44.0677 65.0515 45.4454 64.1276 46.269C63.4541 46.8694 63.0485 47.2317 62.5009 46.999C62.1991 46.8699 62.011 46.5817 61.9979 46.2274C61.8832 43.1107 61.3517 40.7519 60.5017 39.5852C59.6401 38.4023 58.3347 38.2737 57.3915 38.3737C54.9084 38.6358 52.2086 40.71 51.1064 43.194C50.4373 44.7014 50.0321 47.036 51.8994 49.5996C52.3298 50.1905 52.0928 50.5727 51.9134 50.7483C51.4277 51.2226 50.9285 50.8409 50.4874 50.5042C49.3099 49.6045 48.8267 49.3962 48.6299 49.389C47.0658 50.2324 45.5889 51.7829 44.117 54.1277C43.0217 55.8716 43.0121 57.5567 44.0911 58.873C45.1981 60.224 47.1812 60.8346 49.0979 60.5004C49.3582 59.8617 49.7559 59.3894 50.2827 59.1104C50.2976 59.1026 51.3317 58.6022 51.9947 58.876C52.2515 58.9819 52.4378 59.1827 52.5193 59.4407C52.7102 60.0414 52.5533 60.9042 50.7209 61.5995C50.5835 61.6513 50.4447 61.6995 50.3057 61.7434ZM68.7439 57.0786C68.7447 57.0796 68.7456 57.081 68.7465 57.0823C68.7456 57.081 68.7447 57.0796 68.7439 57.0786ZM63.4931 46.1714C63.4932 46.1717 63.4932 46.1717 63.4932 46.172C63.4932 46.172 63.4932 46.172 63.4933 46.1723C63.4932 46.172 63.4932 46.1717 63.4931 46.1714ZM62.746 46.1996L62.7489 46.199L62.746 46.1996Z" fill="#231F20"/>
<path d="M69.4062 98.9224C69.3395 98.9365 69.2708 98.9415 69.2016 98.9368C68.9895 98.9224 68.794 98.8186 68.6631 98.6514C68.5823 98.5476 66.6782 96.0866 66.512 93.4403C66.5007 93.2616 66.444 92.8712 66.3781 92.4189C65.9204 89.2731 65.815 87.5376 66.5105 86.7816C67.2264 86.0039 67.9989 85.9536 68.5208 86.0483C70.9469 86.4889 72.8941 90.955 72.9121 90.9998C74.2529 94.3144 69.9577 98.5474 69.774 98.7261C69.6713 98.8263 69.5433 98.8936 69.4062 98.9224ZM68.0301 87.52C67.91 87.5453 67.7722 87.6195 67.6106 87.7948C67.2929 88.3218 67.7185 91.2434 67.8578 92.2035C67.9343 92.7282 67.9896 93.107 68.0043 93.347C68.0935 94.7649 68.8311 96.1763 69.3439 97.0002C70.5226 95.6497 72.1946 93.217 71.5246 91.5615C71.0138 90.2993 69.396 87.7285 68.2525 87.5206C68.186 87.5083 68.1124 87.5027 68.0301 87.52Z" fill="#231F20"/>
</svg>
