<svg width="129" height="100" viewBox="0 0 129 100" fill="none" xmlns="http://www.w3.org/2000/svg">
<path d="M-2.09594 119.565L-9.52931 108.57C-10.01 107.85 -10.2706 107.006 -10.2793 106.14C-10.288 105.274 -10.0445 104.424 -9.57843 103.695L-8.7639 102.428L-8.68136 102.218C-6.14834 103.219 -3.33448 103.248 -0.781836 102.298L-0.386656 102.052C0.524213 104.205 1.93186 106.112 3.72113 107.616L3.60668 107.753L-0.0347746 113.414C-1.22064 115.262 -1.9289 117.376 -2.09594 119.565Z" fill="white"/>
<path d="M31.6143 80.0932C28.7233 80.6477 26.0964 82.1416 24.1419 84.3428C23.5424 83.8118 22.9064 83.3235 22.2386 82.8815C19.4457 81.0817 16.1483 80.2271 12.8327 80.4437C9.51717 80.6603 6.35899 81.9367 3.82396 84.0846C1.28894 86.2325 -0.488729 89.1382 -1.24686 92.3732C-2.00499 95.6081 -1.70345 99.0011 -0.386705 102.052L-0.781887 102.298C-3.33454 103.248 -6.14838 103.219 -8.68141 102.218C-9.36364 101.961 -10.0157 101.63 -10.6261 101.231C-12.5143 100.011 -13.9863 98.2447 -14.8465 96.1677C-15.7066 94.0907 -15.914 91.8011 -15.4412 89.6033C-16.4186 89.3738 -17.3522 88.9866 -18.2053 88.4571C-20.1807 87.1863 -21.5705 85.1829 -22.0688 82.8875C-22.5671 80.592 -22.1331 78.1927 -20.8624 76.2172C-20.6947 75.9565 -20.4831 75.7504 -20.3087 75.5203C-21.528 73.7244 -22.1925 71.6097 -22.2194 69.4392C-22.2463 67.2687 -21.6346 65.1382 -20.4602 63.3126C-19.2859 61.487 -17.6008 60.0469 -15.6145 59.1715C-13.6282 58.296 -11.4283 58.0238 -9.28854 58.3888C-9.15144 58.1347 -9.05158 57.8567 -8.88388 57.596C-7.86928 55.991 -6.45597 54.6765 -4.78183 53.7806C-3.10769 52.8847 -1.2299 52.4381 0.668305 52.4844C2.56651 52.5306 4.42032 53.0681 6.04884 54.0445C7.67736 55.0208 9.02498 56.4027 9.96021 58.0551C11.4039 56.9969 13.134 56.4002 14.9231 56.3435C16.7122 56.2868 18.4766 56.7727 19.9844 57.7375L20.1453 57.8147C18.5831 61.2014 18.2982 65.0388 19.3434 68.6191C20.3885 72.1993 22.6932 75.2808 25.8322 77.2951C27.5257 78.3807 29.4126 79.1296 31.3897 79.5011C31.45 79.7037 31.5251 79.9016 31.6143 80.0932Z" fill="#2F5224"/>
<path d="M93.5436 86.6272C92.2982 88.5666 90.6344 90.2027 88.6744 91.4155C86.7144 92.6283 84.5078 93.387 82.2164 93.6361C81.1238 92.1789 79.7782 90.9299 78.2438 89.9486C74.7867 87.7248 70.5879 86.9654 66.5709 87.8374C62.5539 88.7094 59.0478 91.1415 56.824 94.5985C56.4075 95.2653 56.0392 95.9609 55.7219 96.6802C53.0909 95.369 50.1723 94.7409 47.2349 94.8538C47.5126 92.7733 47.2918 90.6567 46.5909 88.6782C45.8899 86.6998 44.7288 84.9163 43.2033 83.4747C41.6777 82.0331 39.8314 80.9748 37.8165 80.3868C35.8016 79.7989 33.6758 79.6982 31.6144 80.0931C31.5251 79.9016 31.45 79.7037 31.3897 79.5011C29.4127 79.1296 27.5258 78.3806 25.8322 77.2951C22.6932 75.2808 20.3886 72.1993 19.3434 68.619C18.2983 65.0388 18.5831 61.2013 20.1454 57.8146C20.4303 57.1375 20.7774 56.4883 21.1823 55.8753C21.59 55.2472 22.0442 54.6506 22.5411 54.0904C22.4852 54.0545 22.436 54.0491 22.3801 54.0132C19.9108 52.4247 18.1736 49.9204 17.5508 47.0511C16.9279 44.1819 17.4703 41.1827 19.0588 38.7133C20.6472 36.244 23.1515 34.5068 26.0208 33.884C28.8901 33.2611 31.8893 33.8035 34.3586 35.392C34.4331 35.4399 34.477 35.4944 34.5329 35.5304C34.8126 34.8338 35.1552 34.1642 35.5565 33.5298C37.1449 31.0605 39.6492 29.3233 42.5185 28.7005C45.3878 28.0776 48.387 28.62 50.8563 30.2085C52.1338 31.0278 53.2249 32.1063 54.0588 33.3743C57.6248 31.5922 61.741 31.2556 65.5491 32.4348C69.3571 33.614 72.5629 36.2179 74.4976 39.7033C77.4578 39.1981 80.5011 39.5656 83.2561 40.7608C86.011 41.956 88.3584 43.9273 90.0119 46.4341C91.6654 48.9409 92.5534 51.8749 92.5675 54.8779C92.5817 57.8809 91.7214 60.823 90.0916 63.3453C89.6886 63.9678 89.2383 64.5583 88.7448 65.1116L88.8937 65.2074C92.3508 67.4313 94.7828 70.9373 95.6549 74.9543C96.5269 78.9713 95.7675 83.1702 93.5436 86.6272Z" fill="#F4AB3E"/>
<path d="M17.1196 123.58C15.7029 121.914 14.6515 119.968 14.0332 117.87C13.4149 115.772 13.2434 113.567 13.5299 111.399C12.9748 111.389 12.4205 111.349 11.8697 111.279C9.59025 110.985 7.40414 110.191 5.4688 108.951C4.84622 108.561 4.26116 108.114 3.72113 107.616C1.93186 106.112 0.524212 104.205 -0.386656 102.052C-1.7034 99.0011 -2.00494 95.6081 -1.24681 92.3732C-0.488677 89.1382 1.28899 86.2325 3.82401 84.0846C6.35904 81.9367 9.51722 80.6603 12.8328 80.4437C16.1483 80.2271 19.4457 81.0817 22.2387 82.8815C22.9065 83.3235 23.5425 83.8118 24.142 84.3428C26.0965 82.1416 28.7234 80.6477 31.6144 80.0932C33.6758 79.6983 35.8016 79.7989 37.8165 80.3869C39.8314 80.9748 41.6777 82.0332 43.2033 83.4748C44.7288 84.9164 45.8899 86.6999 46.5909 88.6783C47.2918 90.6567 47.5126 92.7734 47.2349 94.8539C50.1723 94.7409 53.0909 95.369 55.7219 96.6802C56.0392 95.961 56.4075 95.2653 56.824 94.5986C59.0478 91.1415 62.5539 88.7095 66.5709 87.8374C70.5879 86.9654 74.7867 87.7248 78.2438 89.9487C79.7782 90.93 81.1238 92.179 82.2164 93.6362C82.4692 93.9557 82.7023 94.2903 82.9146 94.6381C85.0089 94.8131 87.0223 95.5272 88.759 96.7108C90.4956 97.8945 91.8964 99.5075 92.825 101.393C93.7536 103.278 94.1785 105.372 94.0582 107.47C93.938 109.568 93.2768 111.6 92.139 113.367C90.7713 115.484 88.7846 117.129 86.4491 118.078C87.7056 120.08 88.4877 122.343 88.7356 124.693C88.9834 127.044 88.6904 129.42 87.879 131.64C87.0675 133.859 85.7592 135.864 84.0539 137.501C82.3487 139.137 80.2918 140.362 78.0405 141.082C75.7892 141.801 73.4031 141.996 71.0648 141.652C68.7265 141.308 66.498 140.433 64.5495 139.096C62.6011 137.758 60.9844 135.992 59.8231 133.934C58.6619 131.875 57.9868 129.578 57.8495 127.219C56.2851 128.267 54.5654 129.062 52.7536 129.575C49.2919 130.579 45.6049 130.496 42.1921 129.336C40.8319 128.865 39.5329 128.232 38.3227 127.452C37.8944 127.177 37.5087 126.876 37.111 126.594C34.6198 128.159 31.7345 128.983 28.7924 128.969C25.8503 128.956 22.9729 128.105 20.4965 126.516C19.235 125.706 18.0975 124.717 17.1196 123.58Z" fill="#F4AB3E"/>
<path d="M70.9152 129.99C68.8703 128.672 67.1642 126.892 65.9349 124.793C64.7055 122.695 63.9874 120.336 63.8387 117.908C62.2742 118.956 60.5545 119.751 58.7428 120.264C55.2811 121.269 51.5941 121.185 48.1813 120.025C46.8211 119.554 45.522 118.922 44.3119 118.142C43.8836 117.866 43.4979 117.566 43.1002 117.283C40.609 118.849 37.7237 119.673 34.7816 119.659C31.8395 119.645 28.9621 118.794 26.4857 117.205C24.0031 115.613 22.0281 113.343 20.7937 110.665C19.5592 107.986 19.117 105.01 19.5191 102.088C18.9639 102.078 18.4097 102.038 17.8589 101.968C15.5794 101.675 13.3933 100.88 11.458 99.6405C10.8354 99.2506 10.2503 98.8037 9.71032 98.3057C7.92104 96.801 6.51339 94.8941 5.60253 92.741C4.34352 89.8139 4.01636 86.57 4.6655 83.4505C1.84275 85.5217 -0.19392 88.4893 -1.11161 91.868C-2.02931 95.2468 -1.77375 98.8369 -0.386712 102.052C0.524158 104.205 1.93181 106.112 3.72108 107.616C4.26111 108.114 4.84617 108.561 5.46875 108.951C7.40409 110.191 9.5902 110.985 11.8697 111.278C12.4205 111.348 12.9747 111.389 13.5299 111.399C13.1277 114.321 13.57 117.296 14.8044 119.975C16.0388 122.654 18.0139 124.923 20.4964 126.516C22.9728 128.105 25.8502 128.956 28.7924 128.969C31.7345 128.983 34.6198 128.159 37.111 126.594C37.5087 126.876 37.8944 127.177 38.3227 127.452C39.5328 128.232 40.8318 128.865 42.1921 129.336C45.6049 130.496 49.2918 130.579 52.7535 129.575C54.5653 129.062 56.285 128.267 57.8494 127.219C58.0567 130.972 59.6237 134.52 62.2576 137.202C64.8914 139.883 68.4117 141.514 72.1603 141.788C75.9088 142.062 79.6291 140.962 82.6253 138.693C85.6216 136.424 87.6888 133.141 88.4404 129.458C85.9158 131.309 82.8892 132.351 79.7603 132.445C76.6314 132.54 73.5473 131.684 70.9152 129.99Z" fill="#B2BD2E"/>
<path d="M86.4782 118.131L86.386 118.09C84.3402 120.414 81.5054 121.898 78.4297 122.253C75.354 122.609 72.2557 121.811 69.7336 120.015C68.0445 118.96 66.608 117.546 65.5258 115.874C64.4436 114.202 63.7421 112.313 63.471 110.34C62.2176 111.097 60.8485 111.644 59.4181 111.958C56.5486 112.588 53.558 112.372 50.8084 111.337C49.6778 110.912 48.5956 110.368 47.5801 109.714C47.2189 109.481 46.8923 109.232 46.5574 108.995C45.3344 109.689 43.9942 110.152 42.6037 110.361C39.2631 110.859 35.8562 110.109 33.0336 108.254C31.9762 107.576 31.0117 106.762 30.1645 105.835C28.9662 104.553 28.0436 103.039 27.4539 101.386C26.8642 99.7333 26.6199 97.9771 26.7361 96.2262C26.2867 96.2004 25.838 96.1408 25.3792 96.0642C23.4893 95.7334 21.6843 95.0288 20.0702 93.9917C19.5479 93.6637 19.0537 93.293 18.5927 92.8834C17.0903 91.6616 15.8705 90.1287 15.0172 88.3903C13.7727 85.9342 13.4242 83.1207 14.032 80.4351C10.6697 80.4001 7.38703 81.4585 4.67844 83.4509C4.02931 86.5705 4.35648 89.8144 5.61548 92.7415C6.52635 94.8946 7.93399 96.8015 9.72326 98.3062C10.2592 98.8034 10.8399 99.2501 11.458 99.6406C13.3934 100.88 15.5795 101.675 17.8589 101.968C18.4098 102.038 18.964 102.078 19.5192 102.088C19.117 105.01 19.5593 107.986 20.7937 110.665C22.0281 113.343 24.0032 115.613 26.4857 117.205C28.9621 118.794 31.8395 119.645 34.7816 119.659C37.7238 119.673 40.6091 118.849 43.1003 117.283C43.498 117.566 43.8837 117.866 44.312 118.142C45.5221 118.922 46.8211 119.554 48.1814 120.025C51.5942 121.186 55.2811 121.269 58.7428 120.264C60.5546 119.751 62.2743 118.956 63.8387 117.908C64.0066 120.682 64.9182 123.359 66.4776 125.659C68.0371 127.959 70.1869 129.797 72.7016 130.98C75.2162 132.162 78.0028 132.646 80.7689 132.381C83.535 132.115 86.1786 131.11 88.4222 129.47C89.2599 125.581 88.5634 121.519 86.4782 118.131Z" fill="#F4AB3E"/>
<path d="M88.4854 96.5368C86.8125 95.4561 84.8992 94.804 82.9145 94.6381C82.7022 94.2903 82.4691 93.9558 82.2163 93.6362C81.1237 92.179 79.7781 90.93 78.2437 89.9487C74.7866 87.7248 70.5878 86.9654 66.5708 87.8374C62.5538 88.7095 59.0477 91.1415 56.8239 94.5986C56.4074 95.2653 56.0391 95.961 55.7218 96.6802C53.0908 95.369 50.1722 94.7409 47.2348 94.8539C47.6051 92.0367 47.0611 89.175 45.6827 86.6902C44.3043 84.2055 42.1645 82.2291 39.5783 81.0519C36.9922 79.8748 34.0964 79.5592 31.3174 80.1517C28.5384 80.7441 26.0231 82.2133 24.1419 84.3428L24.0049 84.2283L20.4113 89.8147L20.5483 89.9291C22.5028 87.728 25.1297 86.234 28.0207 85.6796C30.0822 85.2847 32.2079 85.3853 34.2228 85.9732C36.2377 86.5612 38.0841 87.6196 39.6096 89.0611C41.1352 90.5027 42.2963 92.2862 42.9972 94.2647C43.6982 96.2431 43.9189 98.3598 43.6412 100.44C46.5787 100.327 49.4973 100.955 52.1282 102.267C52.4456 101.547 52.8139 100.852 53.2304 100.185C55.4542 96.7279 58.9602 94.2958 62.9772 93.4238C66.9942 92.5518 71.1931 93.3112 74.6502 95.535C76.1845 96.5163 77.5301 97.7654 78.6228 99.2226C78.8756 99.5421 79.1087 99.8767 79.3209 100.225C81.1271 100.377 82.8764 100.93 84.4415 101.844C86.0065 102.759 87.3477 104.011 88.3672 105.51C89.3867 107.008 90.0588 108.715 90.3345 110.507C90.6102 112.298 90.4825 114.129 89.9608 115.865C91.3813 114.628 92.4933 113.077 93.2079 111.335C93.9225 109.593 94.2201 107.708 94.0767 105.83C93.9334 103.953 93.3532 102.134 92.3824 100.521C91.4116 98.9073 90.0771 97.543 88.4854 96.5368Z" fill="#8EE05B"/>
<path d="M75.9245 81.6118C74.8299 78.6308 73.0595 75.944 70.752 73.7623C68.4446 71.5805 65.663 69.9632 62.6254 69.0372C59.5878 68.1111 56.377 67.9016 53.2449 68.425C50.1127 68.9485 47.1445 70.1906 44.5731 72.054C46.2562 69.5931 44.5344 66.2372 42.4578 64.0958C39.1575 60.7423 34.962 58.409 30.3721 57.3745C29.3304 57.2437 28.3052 57.005 27.3129 56.6624C26.2683 56.1826 25.355 55.4293 24.277 54.9728C23.6559 54.7143 23.0195 54.4939 22.3715 54.313C21.941 54.807 21.5437 55.3289 21.1823 55.8753C20.7774 56.4883 20.4303 57.1375 20.1454 57.8146C18.5831 61.2014 18.2982 65.0388 19.3434 68.619C20.3886 72.1993 22.6932 75.2808 25.8322 77.2951C27.5258 78.3806 29.4127 79.1296 31.3897 79.5011C31.45 79.7037 31.5251 79.9016 31.6143 80.0932C33.6758 79.6982 35.8015 79.7989 37.8164 80.3868C39.8313 80.9748 41.6777 82.0331 43.2032 83.4747C44.7288 84.9163 45.8899 86.6998 46.5908 88.6782C47.2918 90.6567 47.5125 92.7733 47.2348 94.8538C50.1723 94.7409 53.0909 95.369 55.7218 96.6802C56.0392 95.9609 56.4075 95.2653 56.824 94.5985C59.0478 91.1415 62.5538 88.7094 66.5708 87.8374C70.5878 86.9654 74.7867 87.7248 78.2438 89.9486C79.7781 90.9299 81.1237 92.1789 82.2164 93.6361C85.9301 93.2238 89.3684 91.479 91.8939 88.7252C90.0954 86.2371 87.671 84.2686 84.8665 83.0194C82.062 81.7701 78.9771 81.2845 75.9245 81.6118Z" fill="#E69D30"/>
<path d="M95.733 75.3987C95.1185 75.0035 94.5219 74.5802 93.8792 74.2247C89.7283 71.7402 84.7786 70.9535 80.0619 72.0287C79.5745 69.813 78.6352 67.7217 77.3028 65.8856C75.9703 64.0495 74.2733 62.508 72.318 61.3577C70.3626 60.2073 68.1909 59.4728 65.9387 59.2001C63.6865 58.9273 61.4022 59.1222 59.2288 59.7726C58.5769 57.6982 57.4858 55.7886 56.0298 54.1737C54.5737 52.5588 52.7868 51.2765 50.7907 50.4142C48.7946 49.5518 46.6361 49.1296 44.4622 49.1763C42.2883 49.223 40.15 49.7374 38.1927 50.6846C37.7221 49.1188 36.9473 47.6612 35.9127 46.3953C34.878 45.1293 33.6038 44.0799 32.163 43.3071C29.267 41.7775 26.0186 41.0392 22.7459 41.1667C21.0573 41.2181 19.3784 41.442 17.7354 41.8347C17.1169 44.0948 17.2336 46.4932 18.0686 48.6826C18.9037 50.872 20.4137 52.7389 22.3802 54.0132C22.436 54.0491 22.4852 54.0544 22.5411 54.0904C22.4808 54.1595 22.4417 54.2449 22.3739 54.3093C23.022 54.4902 23.6583 54.7105 24.2795 54.969C25.3574 55.4255 26.2708 56.1789 27.3153 56.6586C28.3077 57.0013 29.3329 57.2399 30.3745 57.3707C34.9645 58.4053 39.1599 60.7385 42.4602 64.0921C44.544 66.2223 46.2586 69.5893 44.5755 72.0502C47.1471 70.1874 50.1154 68.9458 53.2475 68.4229C56.3795 67.9 59.5902 68.11 62.6274 69.0363C65.6647 69.9627 68.446 71.5803 70.7531 73.7622C73.0602 75.944 74.8303 78.6308 75.9245 81.6117C78.9755 81.2853 82.0586 81.7709 84.8617 83.0192C87.6647 84.2675 90.0881 86.2343 91.8865 88.7204C93.5381 86.9628 94.7474 84.8371 95.4144 82.5193C96.0813 80.2015 96.1867 77.7582 95.7218 75.3916L95.733 75.3987Z" fill="#B2BD2E"/>
<path d="M-17.9911 80.2704C-16.5059 78.8421 -14.9298 77.5116 -13.2726 76.287C-14.1203 75.3968 -14.6228 74.2335 -14.6897 73.006C-14.8373 71.589 -14.625 70.1576 -14.0725 68.8444C-13.5199 67.5312 -12.6451 66.3786 -11.5288 65.4933C-10.37 64.631 -8.98925 64.1173 -7.54866 64.0125C-6.83492 63.9554 -6.11666 64.0024 -5.41644 64.152C-4.95418 64.2519 -3.76385 64.9307 -3.42149 64.685C-3.11797 64.4669 -3.19312 62.5783 -3.12595 62.1792C-2.99356 61.2298 -2.79426 60.2909 -2.52954 59.3695C-2.02199 57.5367 -1.15155 55.8244 0.0301696 54.3344C0.549799 53.7082 1.13467 53.1393 1.77487 52.6371C-0.288465 52.3759 -2.38361 52.7028 -4.26931 53.5802C-6.15502 54.4575 -7.75461 55.8495 -8.88391 57.596C-9.05161 57.8567 -9.15146 58.1347 -9.28856 58.3888C-11.4283 58.0239 -13.6282 58.296 -15.6145 59.1715C-17.6008 60.0469 -19.2859 61.487 -20.4603 63.3126C-21.6346 65.1382 -22.2464 67.2687 -22.2194 69.4392C-22.1925 71.6097 -21.528 73.7244 -20.3088 75.5203C-20.4831 75.7504 -20.6947 75.9565 -20.8624 76.2172C-21.6801 77.4883 -22.1576 78.9482 -22.2489 80.4568C-22.3403 81.9655 -22.0424 83.4723 -21.384 84.8327C-20.4662 83.1645 -19.3246 81.6295 -17.9911 80.2704Z" fill="#39632C"/>
<path d="M31.3896 79.5011C29.4126 79.1296 27.5257 78.3806 25.8321 77.2951C22.6932 75.2808 20.3885 72.1993 19.3434 68.619C18.2982 65.0388 18.583 61.2013 20.1453 57.8146L19.9844 57.7374C18.5079 56.7943 16.7848 56.3102 15.0331 56.3466C13.2815 56.3829 11.5799 56.938 10.1438 57.9415C9.49646 60.2289 9.05344 62.5792 8.62252 64.9188C8.48022 65.6803 8.33978 66.4429 8.26213 67.2144C8.08665 68.5001 8.1074 69.805 8.32366 71.0845C7.27589 71.0852 6.23018 71.1772 5.19835 71.3592C4.16039 71.5933 3.15425 71.9511 2.20145 72.4247C0.295906 73.3753 -1.3933 74.7084 -2.76078 76.3409C-5.38589 79.6935 -7.08615 83.6758 -7.69199 87.8906C-10.5628 87.8853 -13.3481 88.8673 -15.5809 90.6718C-15.8245 92.7189 -15.4893 94.7934 -14.6135 96.6597C-13.7377 98.5261 -12.3563 100.11 -10.6261 101.23C-10.0157 101.629 -9.36366 101.961 -8.68143 102.218C-6.14841 103.219 -3.33456 103.247 -0.781908 102.298L-0.386727 102.052C-1.70347 99.0011 -2.00501 95.6081 -1.24688 92.3731C-0.48875 89.1381 1.28891 86.2324 3.82394 84.0845C6.35896 81.9366 9.51714 80.6602 12.8327 80.4436C16.1483 80.227 19.4457 81.0816 22.2386 82.8814C22.9064 83.3234 23.5424 83.8117 24.1419 84.3427C26.0964 82.1415 28.7233 80.6476 31.6143 80.0931C31.525 79.9015 31.4499 79.7036 31.3896 79.5011Z" fill="#A7E02E"/>
<path d="M-7.69679 87.8981C-7.09095 83.6833 -5.39068 79.701 -2.76557 76.3484C-1.39809 74.716 0.291111 73.3829 2.19666 72.4323C3.14946 71.9586 4.1556 71.6009 5.19356 71.3667C6.22539 71.1847 7.2711 71.0928 8.31886 71.092C8.1026 69.8125 8.08186 68.5076 8.25734 67.2219C8.33499 66.4505 8.47543 65.6878 8.61773 64.9264C9.04865 62.5867 9.49766 60.2271 10.139 57.9491C10.0789 57.9894 10.0137 58.0211 9.9554 58.0626C9.1242 56.5688 7.94611 55.2967 6.52042 54.3535C5.09472 53.4103 3.46318 52.8236 1.7633 52.6428C1.1231 53.145 0.53823 53.714 0.0185996 54.3401C-1.16312 55.8302 -2.03357 57.5424 -2.54111 59.3752C-2.80583 60.2966 -3.00514 61.2355 -3.13753 62.185C-3.19538 62.59 -3.12024 64.4786 -3.43306 64.6907C-3.77543 64.9365 -4.96575 64.2576 -5.42801 64.1577C-6.12824 64.0082 -6.84649 63.9612 -7.56024 64.0182C-9.00082 64.1231 -10.3816 64.6368 -11.5404 65.499C-12.6566 66.3843 -13.5315 67.5369 -14.084 68.8501C-14.6366 70.1633 -14.8489 71.5947 -14.7013 73.0117C-14.6344 74.2392 -14.1319 75.4026 -13.2841 76.2928C-14.9425 77.5164 -16.5199 78.8462 -18.0064 80.2737C-19.3343 81.6328 -20.4706 83.1666 -21.384 84.8328C-20.6833 86.3138 -19.5822 87.5692 -18.2053 88.4571C-17.3522 88.9867 -16.4186 89.3738 -15.4412 89.6033C-15.5158 89.9608 -15.5473 90.3249 -15.5857 90.6793C-13.3529 88.8748 -10.5676 87.8929 -7.69679 87.8981Z" fill="#F4AB3E"/>
<path d="M22.7459 41.1668C25.2092 41.1 27.6635 41.4906 29.9843 42.3189C31.6408 40.0432 34.1039 38.4861 36.8701 37.9657C39.6363 37.4453 42.4969 38.0009 44.8671 39.5191C46.1445 40.3384 47.2356 41.417 48.0696 42.6849C51.6355 40.9028 55.7518 40.5662 59.5598 41.7454C63.3679 42.9246 66.5736 45.5285 68.5084 49.014C70.8422 48.6131 73.237 48.754 75.5078 49.4257C77.7785 50.0975 79.8645 51.2822 81.6047 52.8883C83.3448 54.4944 84.6925 56.4789 85.5438 58.6887C86.395 60.8984 86.727 63.2743 86.514 65.6327C87.9414 65.411 88.8937 65.2074 88.8937 65.2074L88.7448 65.1116C89.2383 64.5583 89.6886 63.9678 90.0916 63.3453C91.7214 60.823 92.5817 57.8809 92.5675 54.8779C92.5534 51.8749 91.6654 48.9409 90.0119 46.4341C88.3584 43.9273 86.011 41.956 83.2561 40.7608C80.5011 39.5656 77.4578 39.1981 74.4976 39.7033C72.5629 36.2179 69.3571 33.614 65.5491 32.4348C61.741 31.2556 57.6248 31.5922 54.0588 33.3743C53.2249 32.1063 52.1338 31.0278 50.8563 30.2085C48.387 28.62 45.3878 28.0776 42.5185 28.7005C39.6492 29.3233 37.1449 31.0605 35.5565 33.5298C35.1552 34.1642 34.8126 34.8338 34.5329 35.5304C34.477 35.4944 34.4331 35.4399 34.3586 35.392C31.8893 33.8035 28.8901 33.2611 26.0208 33.8839C23.1515 34.5068 20.6472 36.244 19.0588 38.7133C18.1675 40.1193 17.6146 41.7129 17.4436 43.3688C17.5035 42.8502 17.5991 42.3365 17.7298 41.8311C19.3748 41.4392 21.0556 41.2166 22.7459 41.1668Z" fill="#B2BD2E"/>
</svg>
